<svg width="40" height="40" viewBox="0 0 40 40" fill="none" xmlns="http://www.w3.org/2000/svg">
<path d="M14.6117 14.3227C14.3931 14.2537 14.163 14.1731 13.9789 14.0236C13.8294 13.897 13.7143 13.7245 13.5993 13.3908C13.4842 13.0572 13.3462 12.551 13.2542 12.1024C13.1506 11.6537 13.0931 11.2626 13.0701 10.9174C13.0471 10.5723 13.0471 10.2732 13.1276 10.0431C13.2081 9.81305 13.4267 9.62898 13.5763 9.58296C13.7373 9.53695 13.8179 9.57146 13.8869 9.54845C13.9444 9.53695 13.8524 9.49093 13.8409 9.45642L13.6568 6.86798C13.5418 5.68305 13.7949 3.95742 14.6692 3.15213C14.8762 2.95656 15.578 2.83001 15.7045 2.93355C15.5665 2.69196 15.509 2.35834 15.7736 1.99021C16.0497 1.63358 16.6364 0.920322 17.2461 0.644222C18.1779 0.230072 19.2248 -0.0805407 20.2372 0.0229968C21.3876 0.126534 22.5035 0.621214 23.4699 1.24244C24.2521 1.74862 24.9194 2.48489 25.345 3.30169C25.7937 4.18751 25.9318 5.14235 26.0238 6.18923C26.1158 7.23611 26.0353 8.49007 25.8857 9.53695C26.0008 9.54845 26.1158 9.57146 26.2194 9.60597C26.4264 9.6865 26.6335 9.83605 26.7255 10.1122C26.8176 10.3768 26.8061 10.7794 26.7716 11.182C26.737 11.5732 26.6795 11.9758 26.576 12.367C26.484 12.7696 26.3459 13.1723 26.2309 13.4599C26.1158 13.7475 26.0008 13.9085 25.8512 14.0466C25.6902 14.1731 25.4831 14.2537 25.23 14.3342C25.184 14.3457 25.138 14.3572 25.092 14.3687L25.0114 15.5881C24.9654 16.3014 24.7008 16.8996 24.2291 17.4288V19.5341C24.2291 19.9482 24.0451 20.3164 23.7115 20.5694L20.5938 22.9623L21.7212 23.6411C21.9398 23.7676 21.8248 24.0552 21.7212 24.2968L21.2726 25.3437C21.1575 25.5968 21.0195 25.8153 21.1345 26.0684L21.2381 26.3215L21.9513 28.9215L22.2504 38.0673L24.5513 27.3684C25.1725 26.172 25.3796 25.4702 25.4256 24.1703C25.4716 22.9738 25.3796 21.2712 25.276 19.5226C25.2645 19.4535 25.3105 19.3845 25.3796 19.35C25.4486 19.3155 25.5176 19.327 25.5866 19.373C26.1043 19.8332 26.7255 20.3048 27.9105 20.765C28.3131 20.9376 28.7963 21.0986 29.3025 21.2482C29.3715 21.2712 29.4175 21.3172 29.452 21.3862C29.7166 21.973 29.9352 22.6402 30.1078 23.365C30.5219 25.2056 30.614 27.4259 30.3609 29.7268C29.5326 29.7613 28.7733 30.1179 28.2211 30.6701C27.6459 31.2453 27.2892 32.0506 27.2892 32.9364C27.2892 33.8107 27.6459 34.616 28.2211 35.1912C28.7963 35.778 29.6131 36.1346 30.4874 36.1346C31.3732 36.1346 32.1785 35.778 32.7537 35.1912C33.3289 34.616 33.6971 33.8107 33.6971 32.9364C33.6971 32.0506 33.3289 31.2453 32.7537 30.6701C32.4316 30.3365 32.0405 30.0834 31.5918 29.9223C31.8679 27.4719 31.7759 25.0791 31.3157 23.0889C31.2467 22.7667 31.1662 22.4561 31.0741 22.157C31.0396 22.0765 31.0626 21.9845 31.1316 21.9154C31.1892 21.8464 31.2812 21.8234 31.3732 21.8464C31.9945 22.0075 32.5812 22.157 33.0758 22.2721C34.5369 22.6402 35.1926 22.7782 35.6528 23.1234C36.1129 23.457 36.3775 24.0092 36.8147 25.5162C37.0908 26.4596 37.4244 34.524 37.7926 35.985C37.9651 36.6868 37.8386 37.354 37.4359 37.9522C37.0218 38.5505 36.4466 38.9071 35.7218 38.9991C25.2415 40.3681 14.7612 40.2876 4.28091 38.9876C3.55615 38.8956 2.98094 38.539 2.56679 37.9407C2.15264 37.3425 2.0376 36.6638 2.21016 35.962C2.56679 34.5125 2.91191 26.4596 3.17651 25.5162C3.61367 24.0092 3.87826 23.4685 4.33843 23.1234C4.8101 22.7782 5.45433 22.6402 6.91536 22.2836C7.16845 22.2145 7.43305 22.1455 7.70915 22.0765C7.81269 22.0535 7.90472 22.088 7.96224 22.157C8.03127 22.2375 8.04277 22.3296 8.00826 22.4216C7.91623 22.6287 7.8357 22.8243 7.76667 23.0313C7.32951 24.3083 7.27199 25.5853 7.32951 26.5861C6.44369 26.7702 5.78795 27.2074 5.33929 27.7365C4.8101 28.3463 4.48798 29.1631 4.5225 29.9799L4.66055 34.432C4.67205 34.8116 4.78709 35.1797 5.01717 35.4904C5.12071 35.6399 5.25876 35.7665 5.41982 35.893C5.53486 36.2956 5.9145 36.5948 6.36316 36.5948C6.91536 36.5948 7.35252 36.1576 7.35252 35.6054C7.35252 35.0647 6.91536 34.616 6.36316 34.616C6.22511 34.616 6.09857 34.6506 5.98353 34.6966C5.93751 34.6045 5.903 34.4895 5.903 34.3745L5.76495 29.8533C5.76495 29.4737 5.9145 28.9675 6.28263 28.5418C6.7543 27.9896 7.41004 27.7826 8.1233 27.748C8.18082 27.7365 8.24985 27.7365 8.30737 27.7365C8.36489 27.7365 8.43391 27.7365 8.50294 27.748C9.37726 27.7826 9.96397 28.1162 10.3321 28.5418C10.6542 28.9215 10.8728 29.4162 10.8613 29.9223L10.7232 34.3745C10.7117 34.5125 10.6657 34.6506 10.5967 34.7541C10.5737 34.7771 10.5622 34.8001 10.5392 34.8231C10.3781 34.6966 10.171 34.6275 9.95246 34.6275C9.41177 34.6275 8.96311 35.0762 8.96311 35.6169C8.96311 36.1691 9.41177 36.6063 9.95246 36.6063C10.3206 36.6063 10.6427 36.4107 10.8038 36.1231C11.1489 35.962 11.4135 35.7434 11.6091 35.4904C11.8276 35.1797 11.9427 34.8116 11.9657 34.432C12.0117 33.3506 12.1037 30.9232 12.1037 29.8533C12.1037 29.2206 11.8507 28.4038 11.2869 27.7365C10.7117 27.0808 9.83742 26.5631 8.57196 26.4941C8.52595 25.6198 8.57196 24.5154 8.9516 23.434C9.18168 22.7552 9.54982 22.088 10.102 21.4783C10.125 21.4438 10.1595 21.4208 10.2056 21.3977C10.8958 21.2022 11.5515 20.9836 12.0807 20.765C13.2657 20.3048 13.8869 19.8447 14.4161 19.373C14.4736 19.327 14.5426 19.3155 14.6117 19.35C14.6922 19.3845 14.7267 19.4535 14.7267 19.5226C14.6117 21.2712 14.5196 22.9738 14.5656 24.1703C14.6117 25.4702 14.8187 26.172 15.44 27.3684L17.7408 38.0788L18.0399 28.9215L18.7532 26.3215L18.8222 26.1605C18.9257 25.9074 18.7992 25.6888 18.6841 25.4472L18.1319 24.2968C18.0169 24.0667 17.9133 23.7676 18.1319 23.6411L19.3399 22.9163L16.2798 20.5694C15.9461 20.3164 15.7621 19.9482 15.7621 19.5341V17.7164L15.532 17.4748C15.0258 16.9456 14.7497 16.3244 14.7037 15.5766L14.6117 14.3227ZM30.4874 32.0391C30.9821 32.0391 31.3847 32.4417 31.3847 32.9364C31.3847 33.4196 30.9821 33.8223 30.4874 33.8223C29.9927 33.8223 29.6016 33.4196 29.6016 32.9364C29.6016 32.4417 29.9927 32.0391 30.4874 32.0391ZM31.8679 31.5444C31.5228 31.1878 31.0281 30.9807 30.4874 30.9807C29.9467 30.9807 29.4635 31.1993 29.1069 31.5559C28.7618 31.9011 28.5432 32.3957 28.5432 32.9364C28.5432 33.4656 28.7618 33.9603 29.1069 34.3169C29.4635 34.6621 29.9467 34.8806 30.4874 34.8806C31.0281 34.8806 31.5228 34.6621 31.8679 34.3169C32.2245 33.9603 32.4431 33.4656 32.4431 32.9364C32.4431 32.3957 32.2245 31.9011 31.8679 31.5444Z" fill="#6F56DA"/>
</svg>
