<svg width="40" height="40" viewBox="0 0 40 40" fill="none" xmlns="http://www.w3.org/2000/svg">
<path d="M3.21626 21.073C4.38626 21.5193 7.27376 21.6018 8.65001 20.638C9.56001 21.4218 10.5325 21.8905 11.2313 21.8905C11.9325 21.8905 12.9063 21.4218 13.8163 20.6355C14.5938 21.1793 15.8463 21.3943 17.0063 21.3943C17.9013 21.3943 18.7388 21.2668 19.2475 21.0718C19.5813 20.943 19.7525 20.793 19.77 20.608C19.785 20.4605 19.6975 20.3268 19.5138 20.2118C19.4288 20.1568 19.3475 20.1105 19.2688 20.0643C18.2525 19.4543 17.8713 19.2268 17.73 13.6868C17.6838 11.8893 17.1075 10.4668 16.0163 9.45555C15.8863 9.33305 15.7488 9.22555 15.61 9.12055C15.7688 8.4693 15.735 7.97305 15.73 7.9318L15.7263 7.8793L15.7025 7.8293C14.9913 6.3093 11.6663 5.6443 11.2888 5.57305L11.2325 5.56055L11.175 5.57305C10.7988 5.6443 7.47501 6.3093 6.76251 7.8293L6.73876 7.8793L6.73376 7.9343C6.73001 7.97555 6.69501 8.47055 6.85376 9.12305C6.71626 9.22805 6.57876 9.33555 6.44751 9.45805C5.35751 10.468 4.78126 11.8918 4.73501 13.688C4.59251 19.228 4.21251 19.4543 3.19501 20.0655C3.11751 20.1118 3.03626 20.158 2.95126 20.213C2.76751 20.3293 2.68001 20.4618 2.69501 20.6093C2.71126 20.7955 2.88251 20.9455 3.21626 21.073ZM7.34751 8.0418C7.88251 7.0443 10.2688 6.3818 11.2313 6.19305C12.195 6.3818 14.5813 7.0443 15.115 8.0418C15.1275 8.3593 15.1075 9.90305 13.7113 10.9393H8.75126C7.35376 9.90305 7.33501 8.3568 7.34751 8.0418ZM8.96251 12.9068C9.13626 13.3905 9.87876 14.7555 12.675 14.7555C13.8925 14.7555 15.12 15.243 15.5913 15.9155C15.6325 15.9743 15.665 16.033 15.6925 16.0943C15.405 19.0643 12.4675 21.273 11.2313 21.273C10.0325 21.273 7.23501 19.1968 6.80376 16.3655C7.22626 13.7768 8.53876 13.068 8.96251 12.9068Z" fill="#33C468"/>
<path d="M10.6795 10.1043H11.782V9.11426H12.7732V8.01176H11.782V7.02051H10.6795V8.01176H9.68945V9.11426H10.6795V10.1043Z" fill="#33C468"/>
<path d="M20.3566 16.3353C21.3203 19.7765 24.6166 22.2453 26.4328 22.2453C28.2491 22.2453 31.5453 19.7765 32.5091 16.3353C33.3328 16.0165 33.8891 15.2203 33.8891 14.329V13.464C33.8891 12.684 33.4616 11.9915 32.8191 11.6153C32.8866 11.3265 32.9503 11.0103 33.0103 10.6703C33.3316 8.82902 34.3753 3.96777 26.4328 3.96777C18.4903 3.96777 19.5341 8.83027 19.8553 10.6703C19.9153 11.009 19.9803 11.3253 20.0466 11.6153C19.4041 11.9928 18.9766 12.684 18.9766 13.464V14.329C18.9766 15.2215 19.5328 16.0165 20.3566 16.3353ZM19.7453 13.464C19.7453 13.0415 19.9403 12.6603 20.2478 12.4015C20.4716 13.1928 20.6653 13.6415 20.6653 13.6415C21.0028 15.059 21.3416 15.734 21.3416 12.8965C21.3416 10.0615 22.1528 8.73652 23.5028 9.79152C24.8528 10.8465 25.8791 10.7028 26.4328 10.7028C26.9878 10.7028 28.0141 10.8465 29.3641 9.79152C30.7141 8.73652 31.5253 10.0628 31.5253 12.8965C31.5253 15.734 31.8641 15.0578 32.2016 13.6415C32.2016 13.6415 32.3953 13.1928 32.6191 12.4015C32.9278 12.6603 33.1216 13.0415 33.1216 13.464V14.329C33.1216 14.9515 32.6991 15.5015 32.0916 15.6653L31.8741 15.7253L31.8203 15.944C31.0066 19.1953 27.8391 21.4765 26.4341 21.4765C25.0291 21.4765 21.8628 19.1953 21.0478 15.944L20.9941 15.7253L20.7766 15.6653C20.1703 15.5003 19.7466 14.9515 19.7466 14.329V13.464H19.7453Z" fill="#33C468"/>
<path d="M23.1514 15.7377H24.7089C25.4952 15.7377 26.1364 14.9914 26.1364 14.0777C26.1364 13.8402 26.0902 13.6127 26.0114 13.4077H26.8527C26.7739 13.6127 26.7277 13.8402 26.7277 14.0777C26.7277 14.9914 27.3689 15.7377 28.1564 15.7377H29.7127C30.5002 15.7377 31.1402 14.9914 31.1402 14.0777C31.1402 13.1639 30.5002 12.4189 29.7139 12.4189H28.1577C27.8002 12.4189 27.4764 12.5789 27.2252 12.8314H25.6389C25.3877 12.5789 25.0652 12.4189 24.7077 12.4189H23.1502C22.3639 12.4189 21.7227 13.1639 21.7227 14.0777C21.7227 14.9914 22.3652 15.7377 23.1514 15.7377ZM28.1577 12.9952H29.7139C30.1839 12.9952 30.5652 13.4802 30.5652 14.0764C30.5652 14.6727 30.1839 15.1589 29.7139 15.1589H28.1577C27.6877 15.1589 27.3052 14.6727 27.3052 14.0764C27.3052 13.4802 27.6877 12.9952 28.1577 12.9952ZM23.1514 12.9952H24.7089C25.1777 12.9952 25.5602 13.4802 25.5602 14.0764C25.5602 14.6727 25.1777 15.1589 24.7089 15.1589H23.1514C22.6814 15.1589 22.3002 14.6727 22.3002 14.0764C22.3002 13.4802 22.6827 12.9952 23.1514 12.9952Z" fill="#33C468"/>
<path d="M20.2395 29.584C19.9632 29.8228 19.7832 30.174 19.7832 30.5678C19.7832 31.289 20.3695 31.8753 21.0907 31.8753C21.812 31.8753 22.397 31.289 22.397 30.5678C22.397 29.8478 21.8107 29.2603 21.0907 29.2603C21.042 29.2603 20.9945 29.2715 20.9482 29.2765C21.017 29.4453 21.0832 29.6053 21.1482 29.7553C21.5732 29.784 21.9095 30.1365 21.9095 30.5678C21.9095 31.019 21.5432 31.3878 21.0907 31.3878C20.6382 31.3878 20.2707 31.019 20.2707 30.5678C20.2707 30.3803 20.337 30.209 20.4445 30.0678C20.3832 29.9253 20.3132 29.7628 20.2395 29.584Z" fill="#33C468"/>
<path d="M16.8079 22.6628C15.5491 22.1703 14.3766 21.8916 14.3766 21.8916C13.4479 23.5366 11.2304 24.7304 11.2304 24.7304C11.2304 24.7304 9.01289 23.5366 8.08414 21.8916C8.08414 21.8916 3.33039 23.0291 2.69039 24.7304C2.05039 26.4316 1.58789 30.7629 1.58789 30.7629C1.58789 30.7629 4.47539 33.0841 11.2304 33.0841C11.8241 33.0841 12.3854 33.0641 12.9191 33.0304L12.9241 32.9891C12.9854 32.4179 13.5454 27.3491 14.3841 25.1153C14.7241 24.2128 15.5241 23.4041 16.8079 22.6628Z" fill="#33C468"/>
<path d="M37.0424 25.6566C36.7174 24.7941 35.5362 24.0466 34.2562 23.4641C33.9187 24.4741 33.5237 25.4341 33.2374 26.0916L33.3724 26.1316C33.4324 26.3491 33.4474 26.6254 33.3424 26.9791C33.0387 28.0041 35.9087 27.3479 34.7687 32.0141L34.5749 31.9566C34.4937 32.3529 34.3549 32.8766 34.1262 33.4654C34.2612 33.6041 34.3262 33.8041 34.2674 34.0041C34.1799 34.2954 33.8724 34.4641 33.5799 34.3779C33.2874 34.2916 33.1199 33.9841 33.2074 33.6904C33.2787 33.4529 33.4949 33.3041 33.7312 33.3016C33.9524 32.7254 34.0849 32.2141 34.1624 31.8329L33.9799 31.7791C33.9799 31.7791 34.6037 29.7741 33.3612 29.3266C32.1187 28.8791 31.8562 28.8016 30.5724 28.4991C29.2874 28.1991 28.7187 30.2204 28.7187 30.2204L28.5374 30.1666C28.3949 30.5279 28.2262 31.0304 28.0987 31.6341C28.2949 31.7641 28.3974 32.0066 28.3274 32.2441C28.2399 32.5354 27.9337 32.7029 27.6399 32.6166C27.3474 32.5304 27.1799 32.2229 27.2674 31.9291C27.3262 31.7316 27.4899 31.5966 27.6787 31.5554C27.8087 30.9379 27.9774 30.4216 28.1237 30.0441L27.9299 29.9854C29.5162 25.4516 31.5662 27.5666 31.8699 26.5404C31.9749 26.1866 32.1374 25.9641 32.3074 25.8129L32.4949 25.8691C32.8862 24.9729 33.2487 24.0304 33.5349 23.1566C32.8487 22.8804 32.1762 22.6566 31.6237 22.4879C30.8674 22.2566 30.3412 22.1304 30.3412 22.1304C30.4149 23.6829 29.0849 26.2779 27.9574 28.1816L27.1149 25.1016C27.6562 25.0491 27.7637 24.1329 27.7012 23.6329C27.6374 23.1216 26.4324 22.8641 26.4324 22.8641C26.4324 22.8641 25.2287 23.1216 25.1637 23.6329C25.1012 24.1316 25.2099 25.0491 25.7499 25.1016L24.9087 28.1816C23.7799 26.2791 22.4499 23.6829 22.5237 22.1304C22.5237 22.1304 21.9987 22.2579 21.2412 22.4879C20.7587 22.6354 20.1824 22.8266 19.5849 23.0554C19.3249 24.4829 20.0224 26.8616 20.6987 28.6466C20.8249 28.6204 20.9549 28.6079 21.0887 28.6079C22.1699 28.6079 23.0487 29.4879 23.0487 30.5679C23.0487 31.6491 22.1699 32.5279 21.0887 32.5279C20.0074 32.5279 19.1287 31.6491 19.1287 30.5679C19.1287 29.8966 19.4687 29.3029 19.9862 28.9504C19.3774 27.3716 18.6574 25.0916 18.7699 23.3929C17.4274 23.9841 16.1612 24.7579 15.8224 25.6579C15.0287 27.7716 14.4512 33.1529 14.4512 33.1529C14.4512 33.1529 18.0399 36.0354 26.4312 36.0354C34.8224 36.0354 38.4112 33.1529 38.4112 33.1529C38.4112 33.1529 37.8374 27.7716 37.0424 25.6566Z" fill="#33C468"/>
</svg>
