<svg width="40" height="40" viewBox="0 0 40 40" fill="none" xmlns="http://www.w3.org/2000/svg">
<path d="M29.9913 20.0003C33.0363 20.0187 34.9496 21.9237 35.003 24.9703C34.9446 28.1703 33.1263 29.9803 30.0113 30.0003C26.878 29.9803 25.058 28.1703 24.9996 25.032V24.9703C25.0563 21.8787 26.9213 20.0187 29.9913 20.002V20.0003ZM38.2346 35.672C37.478 33.577 35.9563 32.297 33.8363 31.9637C31.3063 31.5703 28.693 31.5703 26.1646 31.9637C24.0446 32.2953 22.523 33.577 21.7663 35.672C21.5996 36.1337 21.6446 36.6453 21.8896 37.072C22.1346 37.497 22.5563 37.7937 23.0396 37.8787C23.143 37.897 25.6296 38.332 29.9996 38.332C34.3696 38.332 36.8563 37.8953 36.9596 37.8787C37.443 37.792 37.863 37.497 38.1096 37.072C38.3546 36.6453 38.3996 36.1353 38.233 35.672H38.2346ZM16.668 23.3337C16.668 24.2553 17.413 25.0003 18.3346 25.0003H21.6663V25.0937C21.688 26.282 21.9046 27.3637 22.2696 28.3337H18.3346C17.413 28.3337 16.668 29.0787 16.668 30.0003C16.668 30.922 17.413 31.667 18.3346 31.667H20.2596C19.5813 32.4853 19.028 33.4453 18.6313 34.547C18.2063 35.7253 18.2696 36.997 18.7413 38.142C17.5063 38.257 16.2246 38.3353 15.0013 38.3353C10.218 38.3353 4.52964 37.1603 4.28964 37.1103C3.6263 36.972 3.1113 36.4453 2.98964 35.777C2.9363 35.4787 1.66797 28.3887 1.66797 20.002C1.66797 11.6153 2.9363 4.52366 2.98964 4.22533C3.1113 3.55866 3.6263 3.03033 4.28964 2.89199C4.52964 2.84199 10.218 1.66699 15.0013 1.66699C19.7846 1.66699 25.473 2.84199 25.713 2.89199C26.3763 3.03033 26.8913 3.55699 27.013 4.22533C27.0596 4.48533 28.0263 9.89366 28.2763 16.8237C25.4213 17.332 23.2913 19.0987 22.2963 21.667H18.3363C17.4146 21.667 16.6696 22.412 16.6696 23.3337H16.668ZM13.3346 30.0003C13.3346 29.0787 12.5896 28.3337 11.668 28.3337H10.0013C9.07964 28.3337 8.33464 29.0787 8.33464 30.0003C8.33464 30.922 9.07964 31.667 10.0013 31.667H11.668C12.5896 31.667 13.3346 30.922 13.3346 30.0003ZM13.3346 23.3337C13.3346 22.412 12.5896 21.667 11.668 21.667H10.0013C9.07964 21.667 8.33464 22.412 8.33464 23.3337C8.33464 24.2553 9.07964 25.0003 10.0013 25.0003H11.668C12.5896 25.0003 13.3346 24.2553 13.3346 23.3337ZM16.668 15.0003H18.3346C19.2563 15.0003 20.0013 14.2553 20.0013 13.3337C20.0013 12.412 19.2563 11.667 18.3346 11.667H16.668V10.0003C16.668 9.07866 15.923 8.33366 15.0013 8.33366C14.0796 8.33366 13.3346 9.07866 13.3346 10.0003V11.667H11.668C10.7463 11.667 10.0013 12.412 10.0013 13.3337C10.0013 14.2553 10.7463 15.0003 11.668 15.0003H13.3346V16.667C13.3346 17.5887 14.0796 18.3337 15.0013 18.3337C15.923 18.3337 16.668 17.5887 16.668 16.667V15.0003Z" fill="#FC5C79"/>
</svg>
