<svg width="40" height="40" viewBox="0 0 40 40" fill="none" xmlns="http://www.w3.org/2000/svg">
<path d="M36.6673 19.9999C36.6673 22.1886 36.2362 24.3559 35.3986 26.378C34.5611 28.4001 33.3334 30.2374 31.7858 31.785C30.2381 33.3327 28.4008 34.5603 26.3787 35.3979C24.3566 36.2355 22.1893 36.6666 20.0006 36.6666C17.812 36.6666 15.6447 36.2355 13.6226 35.3979C11.6005 34.5603 9.76318 33.3327 8.21554 31.785C6.66789 30.2374 5.44024 28.4001 4.60266 26.378C3.76508 24.3559 3.33398 22.1886 3.33398 19.9999C3.33398 17.8112 3.76508 15.644 4.60266 13.6219C5.44024 11.5998 6.6679 9.76245 8.21554 8.2148C9.76318 6.66716 11.6005 5.4395 13.6226 4.60193C15.6447 3.76435 17.812 3.33325 20.0007 3.33325C22.1894 3.33325 24.3566 3.76435 26.3787 4.60193C28.4008 5.43951 30.2381 6.66716 31.7858 8.21481C33.3334 9.76245 34.5611 11.5998 35.3986 13.6219C36.2362 15.644 36.6673 17.8112 36.6673 19.9999L36.6673 19.9999Z" stroke="#131415" stroke-width="2"/>
<path d="M26.6673 19.9999C26.6673 22.1886 26.4949 24.3559 26.1598 26.378C25.8248 28.4001 25.3338 30.2374 24.7147 31.785C24.0956 33.3327 23.3607 34.5603 22.5519 35.3979C21.743 36.2355 20.8761 36.6666 20.0007 36.6666C19.1252 36.6666 18.2583 36.2355 17.4494 35.3979C16.6406 34.5603 15.9057 33.3327 15.2866 31.785C14.6675 30.2374 14.1765 28.4001 13.8415 26.378C13.5064 24.3559 13.334 22.1886 13.334 19.9999C13.334 17.8112 13.5064 15.644 13.8415 13.6219C14.1765 11.5998 14.6675 9.76245 15.2866 8.2148C15.9057 6.66716 16.6406 5.4395 17.4494 4.60193C18.2583 3.76435 19.1252 3.33325 20.0007 3.33325C20.8761 3.33325 21.743 3.76435 22.5519 4.60193C23.3607 5.43951 24.0956 6.66716 24.7147 8.21481C25.3338 9.76245 25.8248 11.5998 26.1598 13.6219C26.4949 15.644 26.6673 17.8112 26.6673 19.9999L26.6673 19.9999Z" stroke="#131415" stroke-width="2"/>
<path d="M3.33398 20H36.6673" stroke="#131415" stroke-width="2" stroke-linecap="round"/>
</svg>
