<svg width="32" height="32" viewBox="0 0 32 32" fill="none" xmlns="http://www.w3.org/2000/svg">
<path d="M25.1852 15.26H6.63016C5.75016 15.26 5.03516 14.545 5.03516 13.665V11.025C5.03516 10.145 5.75016 9.42999 6.63016 9.42999H25.1852C26.0652 9.42999 26.7802 10.145 26.7802 11.025V13.665C26.7802 14.545 26.0652 15.26 25.1852 15.26ZM6.63016 10.435C6.30016 10.435 6.03516 10.7 6.03516 11.03V13.67C6.03516 14 6.30016 14.265 6.63016 14.265H25.1852C25.5152 14.265 25.7802 14 25.7802 13.67V11.03C25.7802 10.7 25.5152 10.435 25.1852 10.435H6.63016Z" fill="#131415"/>
<path d="M24.3139 17.4249H7.50391C7.22891 17.4249 7.00391 17.1999 7.00391 16.9249V14.7599C7.00391 14.4849 7.22891 14.2599 7.50391 14.2599H24.3139C24.5889 14.2599 24.8139 14.4849 24.8139 14.7599V16.9249C24.8139 17.1999 24.5889 17.4249 24.3139 17.4249ZM8.00391 16.4249H23.8139V15.2599H8.00391V16.4249Z" fill="#131415"/>
<path d="M25.1852 22.25H6.63016C5.75016 22.25 5.03516 21.535 5.03516 20.655V18.015C5.03516 17.135 5.75016 16.42 6.63016 16.42H25.1852C26.0652 16.42 26.7802 17.135 26.7802 18.015V20.655C26.7802 21.535 26.0652 22.25 25.1852 22.25ZM6.63016 17.425C6.30016 17.425 6.03516 17.69 6.03516 18.02V20.66C6.03516 20.99 6.30016 21.255 6.63016 21.255H25.1852C25.5152 21.255 25.7802 20.99 25.7802 20.66V18.02C25.7802 17.69 25.5152 17.425 25.1852 17.425H6.63016Z" fill="#131415"/>
<path d="M24.3139 24.4149H7.50391C7.22891 24.4149 7.00391 24.1899 7.00391 23.9149V21.7499C7.00391 21.4749 7.22891 21.2499 7.50391 21.2499H24.3139C24.5889 21.2499 24.8139 21.4749 24.8139 21.7499V23.9149C24.8139 24.1899 24.5889 24.4149 24.3139 24.4149ZM8.00391 23.4149H23.8139V22.2499H8.00391V23.4149Z" fill="#131415"/>
<path d="M25.1852 29.24H6.63016C5.75016 29.24 5.03516 28.525 5.03516 27.645V25.005C5.03516 24.125 5.75016 23.41 6.63016 23.41H25.1852C26.0652 23.41 26.7802 24.125 26.7802 25.005V27.645C26.7802 28.525 26.0652 29.24 25.1852 29.24ZM6.63016 24.415C6.30016 24.415 6.03516 24.68 6.03516 25.01V27.65C6.03516 27.98 6.30016 28.245 6.63016 28.245H25.1852C25.5152 28.245 25.7802 27.98 25.7802 27.65V25.01C25.7802 24.68 25.5152 24.415 25.1852 24.415H6.63016Z" fill="#131415"/>
<path d="M23.9609 12.845H22.8359C22.5609 12.845 22.3359 12.62 22.3359 12.345C22.3359 12.07 22.5609 11.845 22.8359 11.845H23.9609C24.2359 11.845 24.4609 12.07 24.4609 12.345C24.4609 12.62 24.2409 12.845 23.9609 12.845Z" fill="#131415"/>
<path d="M23.9609 19.84H22.8359C22.5609 19.84 22.3359 19.615 22.3359 19.34C22.3359 19.065 22.5609 18.84 22.8359 18.84H23.9609C24.2359 18.84 24.4609 19.065 24.4609 19.34C24.4609 19.615 24.2409 19.84 23.9609 19.84Z" fill="#131415"/>
<path d="M23.9609 26.83H22.8359C22.5609 26.83 22.3359 26.605 22.3359 26.33C22.3359 26.055 22.5609 25.83 22.8359 25.83H23.9609C24.2359 25.83 24.4609 26.055 24.4609 26.33C24.4609 26.605 24.2409 26.83 23.9609 26.83Z" fill="#131415"/>
<path d="M8.12891 20.375C7.85391 20.375 7.62891 20.15 7.62891 19.875V18.705C7.62891 18.43 7.85391 18.205 8.12891 18.205C8.40391 18.205 8.62891 18.43 8.62891 18.705V19.875C8.62891 20.15 8.40391 20.375 8.12891 20.375Z" fill="#131415"/>
<path d="M9.59375 20.375C9.31875 20.375 9.09375 20.15 9.09375 19.875V18.705C9.09375 18.43 9.31875 18.205 9.59375 18.205C9.86875 18.205 10.0938 18.43 10.0938 18.705V19.875C10.0938 20.15 9.86875 20.375 9.59375 20.375Z" fill="#131415"/>
<path d="M11.0703 20.375C10.7953 20.375 10.5703 20.15 10.5703 19.875V18.705C10.5703 18.43 10.7953 18.205 11.0703 18.205C11.3453 18.205 11.5703 18.43 11.5703 18.705V19.875C11.5703 20.15 11.3453 20.375 11.0703 20.375Z" fill="#131415"/>
<path d="M8.12891 13.435C7.85391 13.435 7.62891 13.21 7.62891 12.935V11.765C7.62891 11.49 7.85391 11.265 8.12891 11.265C8.40391 11.265 8.62891 11.49 8.62891 11.765V12.935C8.62891 13.21 8.40391 13.435 8.12891 13.435Z" fill="#131415"/>
<path d="M9.59375 13.435C9.31875 13.435 9.09375 13.21 9.09375 12.935V11.765C9.09375 11.49 9.31875 11.265 9.59375 11.265C9.86875 11.265 10.0938 11.49 10.0938 11.765V12.935C10.0938 13.21 9.86875 13.435 9.59375 13.435Z" fill="#131415"/>
<path d="M11.0703 13.435C10.7953 13.435 10.5703 13.21 10.5703 12.935V11.765C10.5703 11.49 10.7953 11.265 11.0703 11.265C11.3453 11.265 11.5703 11.49 11.5703 11.765V12.935C11.5703 13.21 11.3453 13.435 11.0703 13.435Z" fill="#131415"/>
<path d="M8.12891 27.4149C7.85391 27.4149 7.62891 27.1899 7.62891 26.9149V25.7449C7.62891 25.4699 7.85391 25.2449 8.12891 25.2449C8.40391 25.2449 8.62891 25.4699 8.62891 25.7449V26.9149C8.62891 27.1899 8.40391 27.4149 8.12891 27.4149Z" fill="#131415"/>
<path d="M9.59375 27.4149C9.31875 27.4149 9.09375 27.1899 9.09375 26.9149V25.7449C9.09375 25.4699 9.31875 25.2449 9.59375 25.2449C9.86875 25.2449 10.0938 25.4699 10.0938 25.7449V26.9149C10.0938 27.1899 9.86875 27.4149 9.59375 27.4149Z" fill="#131415"/>
<path d="M11.0703 27.415C10.7953 27.415 10.5703 27.19 10.5703 26.915V25.745C10.5703 25.47 10.7953 25.245 11.0703 25.245C11.3453 25.245 11.5703 25.47 11.5703 25.745V26.915C11.5703 27.19 11.3453 27.415 11.0703 27.415Z" fill="#131415"/>
<path d="M28.5948 26.945H26.2798C26.0048 26.945 25.7798 26.72 25.7798 26.445C25.7798 26.17 26.0048 25.945 26.2798 25.945H28.5948C29.2498 25.945 29.7848 25.41 29.7848 24.755V4.95001C29.7848 4.29501 29.2498 3.76001 28.5948 3.76001H3.40484C2.74984 3.76001 2.21484 4.29501 2.21484 4.95001V24.755C2.21484 25.41 2.74984 25.945 3.40484 25.945H5.53484C5.80984 25.945 6.03484 26.17 6.03484 26.445C6.03484 26.72 5.80984 26.945 5.53484 26.945H3.40484C2.19984 26.945 1.21484 25.965 1.21484 24.755V4.95001C1.21484 3.74501 2.19484 2.76001 3.40484 2.76001H28.5898C29.7948 2.76001 30.7798 3.74001 30.7798 4.95001V24.755C30.7848 25.96 29.7998 26.945 28.5948 26.945Z" fill="#131415"/>
<path d="M30.2838 7.47498H1.71875C1.44375 7.47498 1.21875 7.24998 1.21875 6.97498C1.21875 6.69998 1.44375 6.47498 1.71875 6.47498H30.2838C30.5588 6.47498 30.7838 6.69998 30.7838 6.97498C30.7838 7.24998 30.5588 7.47498 30.2838 7.47498Z" fill="#131415"/>
<path d="M22.4554 5.65002H21.1504C20.8754 5.65002 20.6504 5.42502 20.6504 5.15002C20.6504 4.87502 20.8754 4.65002 21.1504 4.65002H22.4554C22.7304 4.65002 22.9554 4.87502 22.9554 5.15002C22.9554 5.42502 22.7354 5.65002 22.4554 5.65002Z" fill="#131415"/>
<path d="M25.2952 5.65002H23.9902C23.7152 5.65002 23.4902 5.42502 23.4902 5.15002C23.4902 4.87502 23.7152 4.65002 23.9902 4.65002H25.2952C25.5702 4.65002 25.7952 4.87502 25.7952 5.15002C25.7952 5.42502 25.5702 5.65002 25.2952 5.65002Z" fill="#131415"/>
<path d="M28.1292 5.65002H26.8242C26.5492 5.65002 26.3242 5.42502 26.3242 5.15002C26.3242 4.87502 26.5492 4.65002 26.8242 4.65002H28.1292C28.4042 4.65002 28.6292 4.87502 28.6292 5.15002C28.6292 5.42502 28.4042 5.65002 28.1292 5.65002Z" fill="#131415"/>
</svg>
