<svg width="56" height="56" viewBox="0 0 56 56" fill="none" xmlns="http://www.w3.org/2000/svg">
<path d="M27.9987 52.0004C41.2539 52.0004 51.9994 41.2549 51.9994 27.9997C51.9994 14.7445 41.2539 3.99902 27.9987 3.99902C14.7435 3.99902 3.99805 14.7445 3.99805 27.9997C3.99805 41.2549 14.7435 52.0004 27.9987 52.0004Z" fill="#17BD54"/>
<path fill-rule="evenodd" clip-rule="evenodd" d="M48.9676 6.56689L10.5254 19.7955L22.2353 22.1304L48.9676 6.56689Z" fill="#ECF0F1"/>
<path fill-rule="evenodd" clip-rule="evenodd" d="M10.5254 19.7954L22.2353 22.1303L30.0074 17.606L14.2733 18.5051L10.5254 19.7954Z" fill="#FFC42E"/>
<path fill-rule="evenodd" clip-rule="evenodd" d="M22.2344 22.1304L24.0487 35.9343L48.9667 6.56689L22.2344 22.1304Z" fill="#C6CBD6"/>
<path fill-rule="evenodd" clip-rule="evenodd" d="M22.2344 22.1303L24.0487 35.9341L35.1856 22.8078L33.2633 19.676L29.454 22.8556L30.0065 17.606L22.2344 22.1303Z" fill="#EAA43A"/>
<path fill-rule="evenodd" clip-rule="evenodd" d="M48.9669 6.56689L26.4395 25.3725L24.0488 35.9343L48.9669 6.56689Z" fill="#ECF0F1"/>
<path fill-rule="evenodd" clip-rule="evenodd" d="M29.4542 22.8558L26.4395 25.3726L24.0488 35.9344L35.1858 22.8081L33.2635 19.6763L29.4542 22.8558Z" fill="#FFC42E"/>
<path fill-rule="evenodd" clip-rule="evenodd" d="M41.3039 32.7786L48.9669 6.56689L26.4395 25.3725L41.3039 32.7786Z" fill="#ECF0F1"/>
<path fill-rule="evenodd" clip-rule="evenodd" d="M26.4238 25.3729L41.2894 32.779L41.8703 30.8476L34.3369 18.7808L26.4238 25.3729Z" fill="#FFC42E"/>
<path fill-rule="evenodd" clip-rule="evenodd" d="M26.4238 25.3729L26.9297 25.6253L34.5654 19.1468L34.3369 18.7808L26.4238 25.3729Z" fill="#FCE379"/>
<path fill-rule="evenodd" clip-rule="evenodd" d="M48.9693 6.56689L48.3384 6.78402L29.2793 17.6481L30.008 17.6061L48.9693 6.56689Z" fill="white"/>
<path fill-rule="evenodd" clip-rule="evenodd" d="M29.2777 17.648L21.3691 21.9575L22.2342 22.1303L30.0063 17.606L29.2777 17.648Z" fill="#FCE379"/>
<path fill-rule="evenodd" clip-rule="evenodd" d="M49.0833 6.67602L48.9685 6.56689L34.3359 18.7804L34.5644 19.1464L49.0833 6.67602Z" fill="white"/>
<path d="M8.85156 26.0887L14.6207 22.8433L14.9731 23.4719L9.20283 26.7174L8.85156 26.0887Z" fill="white"/>
<path d="M19.0859 39.8304L23.0442 36.585L23.5 37.1397L19.5418 40.3852L19.0859 39.8304Z" fill="white"/>
<path d="M34.2188 36.4174L37.7246 33.1719L38.2122 33.6993L34.7064 36.9448L34.2188 36.4174Z" fill="white"/>
</svg>
