<svg width="56" height="56" viewBox="0 0 56 56" fill="none" xmlns="http://www.w3.org/2000/svg">
<path fill-rule="evenodd" clip-rule="evenodd" d="M23.8844 8.33341C24.2309 4.09032 27.9281 0.916691 32.1747 1.21693C36.4213 1.51716 39.635 5.17958 39.381 9.42913C43.4361 9.42913 46.7539 12.7469 46.7539 16.802C46.7539 20.8571 43.4361 24.175 39.381 24.175H15.3064C12.3712 24.1519 10.0039 21.7659 10.0039 18.8305C10.0039 15.8951 12.3712 13.5091 15.3064 13.486C14.5924 10.6558 16.4445 7.68974 19.0883 7.06543C20.6881 6.68764 22.5445 7.11705 23.8842 8.3333L23.8844 8.33341Z" fill="#17A54B"/>
<path fill-rule="evenodd" clip-rule="evenodd" d="M39.3803 9.42895C43.4353 9.42895 46.7531 12.7467 46.7531 16.8018C46.7531 20.8569 43.4353 24.1747 39.3803 24.1747H17.865C14.9298 24.1516 12.5625 21.7656 12.5625 18.8303C12.5625 15.895 14.9298 13.509 17.865 13.4858C17.0327 8.13679 23.156 7.03506 25.121 10.0769C26.1841 0.323588 38.7864 0.873963 39.3803 9.42895Z" fill="#17BD54"/>
<path fill-rule="evenodd" clip-rule="evenodd" d="M39.4881 30.0466H24.9209L24.0236 28.4924C23.6517 27.8482 23.013 27.4795 22.2692 27.4795H16.518C15.4022 27.4795 14.4922 28.3896 14.4922 29.5053V44.7097H41.514V32.0725C41.514 30.9566 40.604 30.0466 39.4882 30.0466H39.4881Z" fill="#E37500"/>
<path fill-rule="evenodd" clip-rule="evenodd" d="M30.5377 36.9293L31.1546 35.8608C31.8038 34.7363 32.955 34.0718 34.2534 34.0718H41.0164C41.1853 34.0718 41.3514 34.0838 41.514 34.1066V44.7097H14.4922V36.9641C14.6549 36.9413 14.821 36.9293 14.9898 36.9293H30.5377Z" fill="#C45B00"/>
<path fill-rule="evenodd" clip-rule="evenodd" d="M30.2819 4.09232C29.9266 4.1574 29.5858 3.92214 29.5206 3.56678C29.4555 3.21142 29.6908 2.87061 30.0461 2.80542C30.1734 2.7819 30.2977 2.76189 30.4186 2.74537C32.2931 2.48987 33.975 2.95318 35.2666 3.88451C36.5639 4.82 37.4615 6.22514 37.7619 7.84815C37.7811 7.95195 37.7975 8.05422 37.8113 8.15484C37.8594 8.51293 37.6081 8.84237 37.2499 8.8905C36.8917 8.93862 36.5624 8.68728 36.5142 8.32907C36.5026 8.24431 36.4896 8.1625 36.4751 8.08397C36.237 6.79728 35.5275 5.68472 34.5027 4.94578C33.4722 4.20268 32.1168 3.83475 30.5929 4.04245C30.4877 4.05678 30.3839 4.07351 30.2819 4.09232Z" fill="#28D668"/>
<path d="M38.8302 32.3594H17.17C17.0049 32.3594 16.8711 32.4932 16.8711 32.6583V46.3631C16.8711 46.5282 17.0049 46.662 17.17 46.662H38.8302C38.9953 46.662 39.1291 46.5282 39.1291 46.3631V32.6583C39.1291 32.4932 38.9953 32.3594 38.8302 32.3594Z" fill="#E9E9FF"/>
<path fill-rule="evenodd" clip-rule="evenodd" d="M49.3027 38.1473H51.9432C52.3515 38.1473 52.6844 37.8143 52.6844 37.4061V27.7536H54.3526C54.4973 27.7536 54.6213 27.6763 54.6852 27.5465C54.7491 27.4166 54.7345 27.2713 54.6461 27.1567L50.9166 22.3167C50.8441 22.2227 50.7418 22.1724 50.623 22.1724C50.5042 22.1724 50.402 22.2227 50.3294 22.3167L46.5999 27.1567C46.5115 27.2713 46.4969 27.4167 46.5608 27.5465C46.6247 27.6763 46.7487 27.7536 46.8934 27.7536H48.5615V37.4061C48.5615 37.8142 48.8946 38.1473 49.3029 38.1473H49.3027Z" fill="#17BD54"/>
<path fill-rule="evenodd" clip-rule="evenodd" d="M50.3945 38.1471H51.9436C52.3519 38.1471 52.6849 37.8141 52.6849 37.4059V27.7532H54.353C54.4977 27.7532 54.6218 27.676 54.6856 27.5462C54.7495 27.4164 54.735 27.271 54.6466 27.1564L51.1691 22.6436L47.6917 27.1564C47.6033 27.271 47.5887 27.4164 47.6526 27.5462C47.7165 27.676 47.8405 27.7532 47.9852 27.7532H49.6534V37.4059C49.6534 37.814 49.9865 38.1471 50.3948 38.1471H50.3945Z" fill="#17BD54"/>
<path fill-rule="evenodd" clip-rule="evenodd" d="M14.9907 38.4816H31.4347L32.4997 36.6369C32.8715 35.9927 33.5103 35.624 34.254 35.624H41.0171C42.1329 35.624 43.043 36.534 43.043 37.6499V52.7772C43.043 53.8929 42.133 54.803 41.0171 54.803H14.9907C13.8748 54.803 12.9648 53.893 12.9648 52.7772V40.5074C12.9648 39.3917 13.8748 38.4816 14.9907 38.4816Z" fill="#E68207"/>
<path fill-rule="evenodd" clip-rule="evenodd" d="M16.8891 38.4816H33.3332L34.3982 36.6369C34.7702 35.9927 35.4088 35.624 36.1526 35.624H41.0178C42.1335 35.624 43.0436 36.534 43.0436 37.6499V52.7772C43.0436 53.8929 42.1336 54.803 41.0178 54.803H16.8891C15.7734 54.803 14.8633 53.893 14.8633 52.7772V40.5074C14.8633 39.3917 15.7733 38.4816 16.8891 38.4816Z" fill="#FDA02F"/>
<path fill-rule="evenodd" clip-rule="evenodd" d="M4.05871 38.1473H6.69913C7.10743 38.1473 7.44037 37.8143 7.44037 37.4061V27.7536H9.10855C9.25326 27.7536 9.37729 27.6763 9.44116 27.5465C9.50504 27.4166 9.49049 27.2713 9.40212 27.1567L5.67254 22.3167C5.60002 22.2227 5.49776 22.1724 5.37898 22.1724C5.26019 22.1724 5.15793 22.2227 5.08541 22.3167L1.35573 27.1566C1.26735 27.2712 1.2528 27.4166 1.31668 27.5464C1.38055 27.6762 1.50448 27.7534 1.64929 27.7534H3.31737V37.406C3.31737 37.8141 3.65041 38.1472 4.05871 38.1472V38.1473Z" fill="#17BD54"/>
<path fill-rule="evenodd" clip-rule="evenodd" d="M5.15051 38.1471H6.69948C7.10777 38.1471 7.44071 37.8141 7.44071 37.4059V27.7532H9.1089C9.25371 27.7532 9.37763 27.676 9.44151 27.5462C9.50538 27.4164 9.49084 27.271 9.40246 27.1564L5.92499 22.6436L2.44752 27.1564C2.35915 27.271 2.3446 27.4164 2.40848 27.5462C2.47235 27.676 2.59638 27.7532 2.74109 27.7532H4.40916V37.4059C4.40916 37.814 4.74221 38.1471 5.15051 38.1471Z" fill="#17BD54"/>
</svg>
