<svg width="56" height="56" viewBox="0 0 56 56" fill="none" xmlns="http://www.w3.org/2000/svg">
<path d="M4 15V5.69231C4 5.24348 4.1719 4.81303 4.47788 4.49567C4.78386 4.1783 5.19886 4 5.63158 4H13.393C14.0511 4 14.6915 4.2215 15.2179 4.63123L16.8585 5.90723C17.3852 6.31686 18.0258 6.53834 18.6842 6.53846H33.3684C33.8011 6.53846 34.2161 6.71676 34.5221 7.03413C34.8281 7.3515 35 7.78194 35 8.23077V15H4Z" fill="#E58B0A"/>
<path d="M7 14V11.6C7.00132 11.176 7.17734 10.7698 7.48961 10.47C7.80189 10.1702 8.22504 10.0013 8.66667 10H30.3333C30.775 10.0013 31.1981 10.1702 31.5104 10.47C31.8227 10.7698 31.9987 11.176 32 11.6V14H7Z" fill="white"/>
<path d="M33.3684 13H5.63158C4.73048 13 4 13.7397 4 14.6522V30.3478C4 31.2603 4.73048 32 5.63158 32H33.3684C34.2695 32 35 31.2603 35 30.3478V14.6522C35 13.7397 34.2695 13 33.3684 13Z" fill="#FFB90B"/>
<path d="M21 35V25.6923C21 25.2435 21.1719 24.813 21.4779 24.4957C21.7839 24.1783 22.1989 24 22.6316 24H30.393C31.0511 24 31.6915 24.2215 32.2179 24.6312L33.8585 25.9072C34.3852 26.3169 35.0258 26.5383 35.6842 26.5385H50.3684C50.8011 26.5385 51.2161 26.7168 51.5221 27.0341C51.8281 27.3515 52 27.7819 52 28.2308V35H21Z" fill="#E58B0A"/>
<path d="M51.7832 16.3826L47.3211 20.8069C47.2615 20.8679 47.1897 20.9165 47.1102 20.9497C47.0308 20.9829 46.9452 21 46.8587 21C46.7721 21 46.6865 20.9829 46.6071 20.9497C46.5276 20.9165 46.4558 20.8679 46.3962 20.8069L41.9349 16.3826C41.8356 16.2869 41.7665 16.1655 41.7359 16.0328C41.7052 15.9001 41.7143 15.7616 41.7621 15.6338C41.8099 15.5059 41.8943 15.3941 42.0053 15.3115C42.1164 15.2289 42.2495 15.179 42.3888 15.1677H44.2898C44.2346 13.5632 43.8387 11.9872 43.1269 10.5389C42.4151 9.09054 41.4028 7.8013 40.1538 6.75232C40.0825 6.69301 40.0326 6.61304 40.0114 6.52413C39.9902 6.43522 39.9988 6.34204 40.0359 6.25822C40.073 6.1744 40.1368 6.10435 40.2178 6.05832C40.2988 6.0123 40.3928 5.99271 40.4861 6.00243C42.8699 6.13355 45.1284 7.0844 46.8587 8.68537C47.7095 9.54456 48.3751 10.5607 48.8163 11.674C49.2575 12.7872 49.4653 13.9751 49.4276 15.1677H51.3285C51.4679 15.1789 51.6011 15.2287 51.7123 15.3112C51.8235 15.3937 51.908 15.5056 51.9558 15.6334C52.0037 15.7613 52.0129 15.8998 51.9823 16.0326C51.9517 16.1654 51.8826 16.2868 51.7832 16.3826Z" fill="#17BD54"/>
<path d="M4.21701 39.62L8.68281 35.1932C8.74246 35.1322 8.81424 35.0836 8.89379 35.0503C8.97335 35.0171 9.05902 35 9.14559 35C9.23217 35 9.31783 35.0171 9.39739 35.0503C9.47695 35.0836 9.54873 35.1322 9.60837 35.1932L14.0733 39.62C14.1728 39.7158 14.2419 39.8372 14.2725 39.97C14.3032 40.1028 14.2941 40.2414 14.2463 40.3693C14.1985 40.4972 14.114 40.6091 14.0029 40.6917C13.8917 40.7743 13.7585 40.8243 13.6191 40.8355H11.7166C11.7718 42.441 12.168 44.0179 12.8804 45.467C13.5928 46.9161 14.6059 48.2061 15.8559 49.2557C15.9239 49.3158 15.9709 49.3951 15.9902 49.4826C16.0095 49.57 16.0001 49.6611 15.9634 49.7431C15.9267 49.8251 15.8645 49.8938 15.7856 49.9396C15.7067 49.9854 15.615 50.006 15.5234 49.9985C13.1386 49.8693 10.8784 48.9207 9.14559 47.3215C8.29404 46.4619 7.62789 45.4452 7.18636 44.3313C6.74482 43.2174 6.53682 42.0288 6.5746 40.8355H4.67121C4.53179 40.8243 4.39862 40.7743 4.28747 40.6917C4.17631 40.6091 4.09183 40.4972 4.04404 40.3693C3.99624 40.2414 3.98713 40.1028 4.01779 39.97C4.04844 39.8372 4.11758 39.7158 4.21701 39.62Z" fill="#17BD54"/>
<path d="M24 34V31.6C24.0013 31.176 24.1773 30.7698 24.4896 30.47C24.8019 30.1702 25.225 30.0013 25.6667 30H47.3333C47.775 30.0013 48.1981 30.1702 48.5104 30.47C48.8227 30.7698 48.9987 31.176 49 31.6V34H24Z" fill="white"/>
<path d="M50.3684 33H22.6316C21.7305 33 21 33.7397 21 34.6522V50.3478C21 51.2603 21.7305 52 22.6316 52H50.3684C51.2695 52 52 51.2603 52 50.3478V34.6522C52 33.7397 51.2695 33 50.3684 33Z" fill="#FFB90B"/>
</svg>
