<svg width="56" height="56" viewBox="0 0 56 56" fill="none" xmlns="http://www.w3.org/2000/svg">
<path fill-rule="evenodd" clip-rule="evenodd" d="M23.8844 8.33341C24.2309 4.09032 27.9281 0.916691 32.1747 1.21693C36.4213 1.51716 39.635 5.17958 39.381 9.42913C43.4361 9.42913 46.7539 12.7469 46.7539 16.802C46.7539 20.8571 43.4361 24.175 39.381 24.175H15.3064C12.3712 24.1519 10.0039 21.7659 10.0039 18.8305C10.0039 15.8951 12.3712 13.5091 15.3064 13.486C14.5924 10.6558 16.4445 7.68974 19.0883 7.06543C20.6881 6.68764 22.5445 7.11705 23.8842 8.3333L23.8844 8.33341Z" fill="#8267F6"/>
<path fill-rule="evenodd" clip-rule="evenodd" d="M39.3803 9.42846C43.4353 9.42846 46.7531 12.7462 46.7531 16.8013C46.7531 20.8564 43.4353 24.1742 39.3803 24.1742H17.865C14.9298 24.1511 12.5625 21.7651 12.5625 18.8298C12.5625 15.8945 14.9298 13.5085 17.865 13.4853C17.0327 8.1363 23.156 7.03457 25.121 10.0764C26.1841 0.3231 38.7864 0.873475 39.3803 9.42846Z" fill="#6F56DA"/>
<path fill-rule="evenodd" clip-rule="evenodd" d="M39.4881 30.0476H24.9209L24.0236 28.4934C23.6517 27.8492 23.013 27.4805 22.2692 27.4805H16.518C15.4022 27.4805 14.4922 28.3906 14.4922 29.5063V44.7106H41.514V32.0735C41.514 30.9576 40.604 30.0476 39.4882 30.0476H39.4881Z" fill="#E37500"/>
<path fill-rule="evenodd" clip-rule="evenodd" d="M30.5377 36.9298L31.1546 35.8613C31.8038 34.7368 32.955 34.0723 34.2534 34.0723H41.0164C41.1853 34.0723 41.3514 34.0843 41.514 34.107V44.7102H14.4922V36.9646C14.6549 36.9418 14.821 36.9298 14.9898 36.9298H30.5377Z" fill="#C45B00"/>
<path fill-rule="evenodd" clip-rule="evenodd" d="M30.28 4.09232C29.9246 4.1574 29.5838 3.92214 29.5186 3.56678C29.4536 3.21142 29.6888 2.87061 30.0442 2.80542C30.1715 2.7819 30.2957 2.76189 30.4166 2.74537C32.2912 2.48987 33.973 2.95318 35.2646 3.88451C36.5619 4.82 37.4596 6.22514 37.7599 7.84815C37.7792 7.95195 37.7956 8.05422 37.8094 8.15484C37.8575 8.51293 37.6061 8.84237 37.2479 8.8905C36.8897 8.93862 36.5604 8.68728 36.5123 8.32907C36.5007 8.24431 36.4877 8.1625 36.4731 8.08397C36.235 6.79728 35.5255 5.68472 34.5008 4.94578C33.4702 4.20268 32.1149 3.83475 30.5909 4.04245C30.4857 4.05678 30.3819 4.07351 30.28 4.09232Z" fill="#A48FFF"/>
<path d="M38.8302 32.3594H17.17C17.0049 32.3594 16.8711 32.4932 16.8711 32.6583V46.3631C16.8711 46.5282 17.0049 46.662 17.17 46.662H38.8302C38.9953 46.662 39.1291 46.5282 39.1291 46.3631V32.6583C39.1291 32.4932 38.9953 32.3594 38.8302 32.3594Z" fill="#E9E9FF"/>
<path fill-rule="evenodd" clip-rule="evenodd" d="M49.3047 38.1469H51.9451C52.3534 38.1469 52.6864 37.8138 52.6864 37.4056V27.7531H54.3545C54.4992 27.7531 54.6233 27.6758 54.6871 27.546C54.751 27.4161 54.7365 27.2708 54.6481 27.1562L50.9185 22.3162C50.846 22.2222 50.7437 22.1719 50.625 22.1719C50.5062 22.1719 50.4039 22.2222 50.3314 22.3162L46.6018 27.1562C46.5134 27.2708 46.4989 27.4162 46.5628 27.546C46.6266 27.6758 46.7507 27.7531 46.8954 27.7531H48.5635V37.4056C48.5635 37.8137 48.8965 38.1469 49.3048 38.1469H49.3047Z" fill="#29B933"/>
<path fill-rule="evenodd" clip-rule="evenodd" d="M50.3984 38.1462H51.9475C52.3558 38.1462 52.6888 37.8131 52.6888 37.4049V27.7522H54.3569C54.5016 27.7522 54.6257 27.675 54.6896 27.5452C54.7534 27.4154 54.7389 27.27 54.6505 27.1554L51.173 22.6426L47.6956 27.1554C47.6072 27.27 47.5926 27.4154 47.6565 27.5452C47.7204 27.675 47.8444 27.7522 47.9891 27.7522H49.6573V37.4049C49.6573 37.813 49.9904 38.1462 50.3987 38.1462H50.3984Z" fill="#2DD62D"/>
<path fill-rule="evenodd" clip-rule="evenodd" d="M14.9907 38.4825H31.4347L32.4997 36.6379C32.8715 35.9937 33.5103 35.625 34.254 35.625H41.0171C42.1329 35.625 43.043 36.535 43.043 37.6508V52.7782C43.043 53.8939 42.133 54.804 41.0171 54.804H14.9907C13.8748 54.804 12.9648 53.894 12.9648 52.7782V40.5084C12.9648 39.3926 13.8748 38.4825 14.9907 38.4825Z" fill="#E68207"/>
<path fill-rule="evenodd" clip-rule="evenodd" d="M16.8891 38.4825H33.3332L34.3982 36.6379C34.7702 35.9937 35.4088 35.625 36.1526 35.625H41.0178C42.1335 35.625 43.0436 36.535 43.0436 37.6508V52.7782C43.0436 53.8939 42.1336 54.804 41.0178 54.804H16.8891C15.7734 54.804 14.8633 53.894 14.8633 52.7782V40.5084C14.8633 39.3926 15.7733 38.4825 16.8891 38.4825Z" fill="#FDA02F"/>
<path fill-rule="evenodd" clip-rule="evenodd" d="M4.05871 38.1469H6.69913C7.10743 38.1469 7.44037 37.8138 7.44037 37.4056V27.7531H9.10855C9.25326 27.7531 9.37729 27.6758 9.44116 27.546C9.50504 27.4161 9.49049 27.2708 9.40212 27.1562L5.67254 22.3163C5.60002 22.2222 5.49776 22.1719 5.37898 22.1719C5.26019 22.1719 5.15793 22.2222 5.08541 22.3163L1.35573 27.1561C1.26735 27.2707 1.2528 27.4161 1.31668 27.5459C1.38055 27.6757 1.50448 27.753 1.64929 27.753H3.31737V37.4055C3.31737 37.8136 3.65041 38.1467 4.05871 38.1467V38.1469Z" fill="#29B933"/>
<path fill-rule="evenodd" clip-rule="evenodd" d="M5.14855 38.1462H6.69752C7.10582 38.1462 7.43876 37.8131 7.43876 37.4049V27.7522H9.10695C9.25176 27.7522 9.37568 27.675 9.43955 27.5452C9.50343 27.4154 9.48888 27.27 9.40051 27.1554L5.92304 22.6426L2.44557 27.1554C2.3572 27.27 2.34265 27.4154 2.40652 27.5452C2.4704 27.675 2.59443 27.7522 2.73913 27.7522H4.40721V37.4049C4.40721 37.813 4.74026 38.1462 5.14855 38.1462Z" fill="#2DD62D"/>
</svg>
