<svg width="56" height="56" viewBox="0 0 56 56" fill="none" xmlns="http://www.w3.org/2000/svg">
<path d="M28.0007 52.0013C41.2559 52.0013 52.0013 41.2559 52.0013 28.0007C52.0013 14.7455 41.2559 4 28.0007 4C14.7455 4 4 14.7455 4 28.0007C4 41.2559 14.7455 52.0013 28.0007 52.0013Z" fill="#6F56DA"/>
<path fill-rule="evenodd" clip-rule="evenodd" d="M48.9696 6.56836L10.5273 19.797L22.2372 22.1319L48.9696 6.56836Z" fill="#ECF0F1"/>
<path fill-rule="evenodd" clip-rule="evenodd" d="M10.5273 19.7968L22.2372 22.1318L30.0093 17.6074L14.2753 18.5066L10.5273 19.7968Z" fill="#FFC42E"/>
<path fill-rule="evenodd" clip-rule="evenodd" d="M22.2344 22.1319L24.0487 35.9357L48.9667 6.56836L22.2344 22.1319Z" fill="#C6CBD6"/>
<path fill-rule="evenodd" clip-rule="evenodd" d="M22.2344 22.1318L24.0487 35.9356L35.1856 22.8093L33.2633 19.6775L29.454 22.857L30.0065 17.6074L22.2344 22.1318Z" fill="#EAA43A"/>
<path fill-rule="evenodd" clip-rule="evenodd" d="M48.9688 6.56836L26.4414 25.374L24.0508 35.9357L48.9688 6.56836Z" fill="#ECF0F1"/>
<path fill-rule="evenodd" clip-rule="evenodd" d="M29.4561 22.8573L26.4414 25.3741L24.0508 35.9358L35.1877 22.8095L33.2655 19.6777L29.4561 22.8573Z" fill="#FFC42E"/>
<path fill-rule="evenodd" clip-rule="evenodd" d="M41.3058 32.78L48.9688 6.56836L26.4414 25.374L41.3058 32.78Z" fill="#ECF0F1"/>
<path fill-rule="evenodd" clip-rule="evenodd" d="M26.4258 25.3734L41.2913 32.7795L41.8722 30.8481L34.3389 18.7812L26.4258 25.3734Z" fill="#FFC42E"/>
<path fill-rule="evenodd" clip-rule="evenodd" d="M26.4258 25.3734L26.9316 25.6258L34.5673 19.1473L34.3388 18.7812L26.4258 25.3734Z" fill="#FCE379"/>
<path fill-rule="evenodd" clip-rule="evenodd" d="M48.9713 6.56836L48.3404 6.78548L29.2812 17.6496L30.0099 17.6075L48.9713 6.56836Z" fill="white"/>
<path fill-rule="evenodd" clip-rule="evenodd" d="M29.2796 17.6495L21.3711 21.959L22.2362 22.1318L30.0083 17.6074L29.2796 17.6495Z" fill="#FCE379"/>
<path fill-rule="evenodd" clip-rule="evenodd" d="M49.0833 6.67749L48.9685 6.56836L34.3359 18.7818L34.5644 19.1479L49.0833 6.67749Z" fill="white"/>
<path d="M8.85156 26.0912L14.6207 22.8457L14.9731 23.4743L9.20283 26.7198L8.85156 26.0912Z" fill="white"/>
<path d="M19.0859 39.8334L23.0442 36.5879L23.5 37.1426L19.5418 40.3881L19.0859 39.8334Z" fill="white"/>
<path d="M34.2188 36.4193L37.7246 33.1738L38.2122 33.7013L34.7064 36.9468L34.2188 36.4193Z" fill="white"/>
</svg>
