<svg width="32" height="32" viewBox="0 0 32 32" fill="none" xmlns="http://www.w3.org/2000/svg">
<path d="M28.5948 26.945H23.2798C23.0048 26.945 22.7798 26.72 22.7798 26.445C22.7798 26.17 23.0048 25.945 23.2798 25.945H28.5948C29.2498 25.945 29.7848 25.41 29.7848 24.755V4.95001C29.7848 4.29501 29.2498 3.76001 28.5948 3.76001H3.40484C2.74984 3.76001 2.21484 4.29501 2.21484 4.95001V24.755C2.21484 25.41 2.74984 25.945 3.40484 25.945H8.53484C8.80984 25.945 9.03484 26.17 9.03484 26.445C9.03484 26.72 8.80984 26.945 8.53484 26.945H3.40484C2.19984 26.945 1.21484 25.965 1.21484 24.755V4.95001C1.21484 3.74501 2.19484 2.76001 3.40484 2.76001H28.5898C29.7948 2.76001 30.7798 3.74001 30.7798 4.95001V24.755C30.7848 25.96 29.7998 26.945 28.5948 26.945Z" fill="black"/>
<path d="M30.2838 7.47498H1.71875C1.44375 7.47498 1.21875 7.24998 1.21875 6.97498C1.21875 6.69998 1.44375 6.47498 1.71875 6.47498H30.2838C30.5588 6.47498 30.7838 6.69998 30.7838 6.97498C30.7838 7.24998 30.5588 7.47498 30.2838 7.47498Z" fill="black"/>
<path d="M22.4554 5.65002H21.1504C20.8754 5.65002 20.6504 5.42502 20.6504 5.15002C20.6504 4.87502 20.8754 4.65002 21.1504 4.65002H22.4554C22.7304 4.65002 22.9554 4.87502 22.9554 5.15002C22.9554 5.42502 22.7354 5.65002 22.4554 5.65002Z" fill="black"/>
<path d="M25.2952 5.65002H23.9902C23.7152 5.65002 23.4902 5.42502 23.4902 5.15002C23.4902 4.87502 23.7152 4.65002 23.9902 4.65002H25.2952C25.5702 4.65002 25.7952 4.87502 25.7952 5.15002C25.7952 5.42502 25.5702 5.65002 25.2952 5.65002Z" fill="black"/>
<path d="M28.1292 5.65002H26.8242C26.5492 5.65002 26.3242 5.42502 26.3242 5.15002C26.3242 4.87502 26.5492 4.65002 26.8242 4.65002H28.1292C28.4042 4.65002 28.6292 4.87502 28.6292 5.15002C28.6292 5.42502 28.4042 5.65002 28.1292 5.65002Z" fill="black"/>
<path d="M16 10C10.4874 10 6 14.4874 6 20C6 25.5126 10.4874 30 16 30C21.5126 30 26 25.5126 26 20C26 14.4874 21.5126 10 16 10ZM16 11.4322C18.2211 11.4322 20.2513 12.2814 21.7739 13.6784C21.5176 13.6281 21.2613 13.6382 21.0101 13.7236C20.3166 13.9648 19.7236 14.9698 20.1608 15.8141C20.3618 16.201 20.7638 16.7538 21.201 17.3317C21.4824 17.7085 22.0955 19.0754 21.5678 21.0854C21.196 22.5075 20.4171 24.9548 20.4171 24.9548L17.3065 15.9045H18.2864C18.4874 15.9045 18.6482 15.7437 18.6482 15.5427C18.6482 15.3417 18.4874 15.1809 18.2864 15.1809H13.5327C13.3317 15.1809 13.1709 15.3417 13.1709 15.5427C13.1709 15.7437 13.3317 15.9045 13.5327 15.9045H14.3518L15.7739 19.608L13.9296 25.1106L10.8342 15.9045H11.8141C12.0151 15.9045 12.1759 15.7437 12.1759 15.5427C12.1759 15.3417 12.0151 15.1809 11.8141 15.1809H8.9196C10.4673 12.9196 13.0653 11.4322 16 11.4322ZM7.43216 20C7.43216 18.7789 7.68844 17.6181 8.15075 16.5678L12.2764 27.7136C9.41206 26.3266 7.43216 23.392 7.43216 20ZM13.5126 28.196L16.1859 20.794L18.8643 28.0754C17.9698 28.392 17.005 28.5678 16.005 28.5678C15.1357 28.5678 14.3015 28.4372 13.5126 28.196ZM20.5276 27.2714C21.0653 25.6884 22.9246 20.1658 23.2764 19.0704C23.608 18.0402 23.8744 17.4372 23.8543 16.5829C24.3116 17.6332 24.5678 18.7889 24.5678 20C24.5678 23.0603 22.9497 25.7538 20.5276 27.2714Z" fill="#131415"/>
</svg>
