<svg width="32" height="32" viewBox="0 0 32 32" fill="none" xmlns="http://www.w3.org/2000/svg">
<path d="M16.625 18.4999H26.625C26.97 18.4999 27.2501 18.2199 27.2501 17.8749C27.2501 17.5299 26.97 17.2499 26.625 17.2499H16.625C16.28 17.2499 16 17.5299 16 17.8749C16 18.2199 16.28 18.4999 16.625 18.4999Z" fill="#131415"/>
<path d="M31 12.875V10.375C31 9.77125 30.82 9.2125 30.5225 8.73373C30.515 8.71873 30.5138 8.70121 30.505 8.6875L26.64 2.47498C26.0662 1.55248 25.0738 1 23.9863 1H8.01502C6.92629 1 5.935 1.55248 5.36125 2.47498L1.49623 8.6875C1.48873 8.69998 1.48873 8.71375 1.48123 8.72752C1.18123 9.20623 1 9.76873 1 10.375V12.875C1 13.9 1.50373 14.805 2.27002 15.375C1.50373 15.945 1 16.8487 1 17.875V20.375C1 21.4 1.50373 22.305 2.27002 22.875C1.50373 23.445 1 24.3487 1 25.375V27.875C1 29.5975 2.4025 31 4.12498 31H12.32C12.6662 31 12.945 30.72 12.945 30.375C12.945 30.03 12.665 29.75 12.32 29.75H4.12498C3.09121 29.75 2.24998 28.9087 2.24998 27.875V25.375C2.24998 24.34 3.09121 23.5 4.12498 23.5H14.58C14.925 23.5 15.205 23.22 15.205 22.875C15.205 22.53 14.925 22.25 14.58 22.25H4.12498C3.09121 22.25 2.24998 21.4087 2.24998 20.375V17.875C2.24998 16.84 3.09121 16 4.12498 16H27.875C28.9087 16 29.75 16.8412 29.75 17.875V20.375C29.75 20.65 29.6825 20.9263 29.5524 21.1925C29.4012 21.5025 29.5287 21.8762 29.8387 22.0288C30.1499 22.1813 30.5237 22.0538 30.6749 21.7425C30.8912 21.3026 30.9999 20.8438 30.9999 20.375V17.875C30.9999 16.85 30.4962 15.945 29.7299 15.375C30.4963 14.8038 31 13.9 31 12.875ZM6.4225 3.13498C6.76627 2.58121 7.36123 2.24998 8.01373 2.24998H23.985C24.6375 2.24998 25.2325 2.58121 25.5775 3.13498L28.1563 7.27873C28.0625 7.26871 27.9713 7.24996 27.875 7.24996H4.12498C4.02871 7.24996 3.93748 7.26871 3.84373 7.27744L6.4225 3.13498ZM29.75 12.875C29.75 13.9088 28.9088 14.75 27.875 14.75H4.12498C3.09121 14.75 2.24998 13.9088 2.24998 12.875V10.375C2.24998 9.34 3.09121 8.5 4.12498 8.5H27.875C28.9087 8.5 29.75 9.34 29.75 10.375V12.875H29.75Z" fill="#131415"/>
<path d="M3.5 26.6249C3.5 27.6586 4.34123 28.4999 5.375 28.4999C6.40877 28.4999 7.25 27.6586 7.25 26.6249C7.25 25.5911 6.40877 24.7499 5.375 24.7499C4.34123 24.7499 3.5 25.5899 3.5 26.6249ZM5.99996 26.6249C5.99996 26.9699 5.71994 27.2499 5.37494 27.2499C5.02994 27.2499 4.74998 26.9699 4.74998 26.6249C4.74998 26.2799 5.03 25.9999 5.375 25.9999C5.72 25.9999 5.99996 26.2799 5.99996 26.6249Z" fill="#131415"/>
<path d="M26.6249 22.25C26.5112 22.25 26.3974 22.2563 26.2862 22.2663C25.2449 20.7037 23.4962 19.75 21.625 19.75C18.715 19.75 16.3137 21.9712 16.0287 24.8075C14.59 25.085 13.5 26.355 13.5 27.875C13.5 29.5975 14.9025 31 16.625 31H26.625C29.0375 31 31 29.0375 31 26.625C31 24.2124 29.0375 22.25 26.6249 22.25ZM26.6249 29.75H16.625C15.5912 29.75 14.75 28.9088 14.75 27.875C14.75 26.8412 15.5912 26 16.625 26C16.97 26 17.25 25.72 17.25 25.375C17.25 22.9625 19.2125 21 21.625 21C23.1875 21 24.6438 21.8613 25.4225 23.2475C25.5526 23.4787 25.81 23.6012 26.0776 23.5562C26.2563 23.525 26.4376 23.4999 26.6251 23.4999C28.3475 23.4999 29.75 24.9024 29.75 26.6249C29.75 28.3474 28.3475 29.75 26.6249 29.75Z" fill="#131415"/>
<path d="M26.625 9.74988H16.625C16.28 9.74988 16 10.0299 16 10.3749C16 10.7199 16.28 10.9999 16.625 10.9999H26.625C26.97 10.9999 27.2501 10.7199 27.2501 10.3749C27.2501 10.0299 26.97 9.74988 26.625 9.74988Z" fill="#131415"/>
<path d="M26.625 12.25H16.625C16.28 12.25 16 12.53 16 12.875C16 13.22 16.28 13.5 16.625 13.5H26.625C26.97 13.5 27.2501 13.22 27.2501 12.875C27.2501 12.53 26.97 12.25 26.625 12.25Z" fill="#131415"/>
<path d="M5.375 9.74988C4.34123 9.74988 3.5 10.5899 3.5 11.6249C3.5 12.6599 4.34123 13.4999 5.375 13.4999C6.40877 13.4999 7.25 12.6586 7.25 11.6249C7.25 10.5912 6.40871 9.74988 5.375 9.74988ZM5.375 12.2499C5.03 12.2499 4.74998 11.9699 4.74998 11.6249C4.74998 11.2799 5.03 10.9999 5.375 10.9999C5.72 10.9999 6.00002 11.2799 6.00002 11.6249C6.00002 11.9699 5.72 12.2499 5.375 12.2499Z" fill="#131415"/>
<path d="M3.5 19.1249C3.5 20.1586 4.34123 20.9999 5.375 20.9999C6.40877 20.9999 7.25 20.1586 7.25 19.1249C7.25 18.0911 6.40877 17.2499 5.375 17.2499C4.34123 17.2499 3.5 18.0899 3.5 19.1249ZM5.99996 19.1249C5.99996 19.4699 5.71994 19.7499 5.37494 19.7499C5.02994 19.7499 4.74998 19.4699 4.74998 19.1249C4.74998 18.7799 5.03 18.4999 5.375 18.4999C5.72 18.4999 5.99996 18.7799 5.99996 19.1249Z" fill="#131415"/>
</svg>
