<svg width="32" height="32" viewBox="0 0 32 32" fill="none" xmlns="http://www.w3.org/2000/svg">
<g clip-path="url(#clip0_445_290)">
<path d="M24.1928 15.7576H21.0898C20.7989 15.7576 20.6049 15.5637 20.6049 15.2727C20.6049 14.9818 20.7989 14.7879 21.0898 14.7879H24.1928C26.1322 14.7879 27.7322 13.1879 27.7322 11.2485C27.7322 9.30911 26.1322 7.70911 24.1928 7.70911C24.0474 7.70911 23.9019 7.66062 23.8049 7.51517C23.708 7.36971 23.708 7.22426 23.708 7.0788C23.8534 6.54547 23.9504 6.15759 23.9504 5.72123C23.9504 3.34547 22.0595 1.45456 19.6837 1.45456C17.308 1.45456 15.417 3.34547 15.417 5.72123C15.417 6.01214 15.2231 6.20608 14.9322 6.20608C14.6413 6.20608 14.4473 6.01214 14.4473 5.72123V5.23638C13.817 4.41214 12.8473 3.92729 11.8292 3.92729C10.0352 3.92729 8.5322 5.43032 8.5322 7.22426C8.5322 7.51517 8.33826 7.70911 8.04735 7.70911C7.75644 7.70911 7.5625 7.51517 7.5625 7.22426C7.5625 4.8485 9.45341 2.95759 11.8292 2.95759C12.8958 2.95759 13.914 3.39395 14.6898 4.12123C15.3686 1.98789 17.3564 0.484863 19.6837 0.484863C22.5928 0.484863 24.9201 2.81214 24.9201 5.72123C24.9201 6.06062 24.8716 6.40001 24.8231 6.78789C27.0049 7.0788 28.7019 8.96971 28.7019 11.2485C28.7019 13.7212 26.6655 15.7576 24.1928 15.7576Z" fill="#131415"/>
<path d="M10.7154 15.806H7.85479C5.38207 15.806 3.3457 13.7697 3.3457 11.2969C3.3457 8.82421 5.38207 6.78784 7.85479 6.78784C8.43661 6.78784 9.06692 6.88481 9.60025 7.12724C9.84267 7.22421 9.98813 7.51511 9.89116 7.75754C9.79419 7.99996 9.50328 8.14542 9.26086 8.04845C8.82449 7.90299 8.38813 7.80602 7.90328 7.80602C5.96388 7.80602 4.36388 9.40602 4.36388 11.3454C4.36388 13.2848 5.96388 14.8848 7.90328 14.8848H10.7639C11.0548 14.8848 11.2487 15.0788 11.2487 15.3697C11.2487 15.6606 11.0063 15.806 10.7154 15.806Z" fill="#131415"/>
<path d="M16.0005 31.5152C15.9035 31.5152 15.855 31.5152 15.758 31.4667L12.1702 29.4304C12.0247 29.3334 11.9277 29.1879 11.9277 28.994V25.0182C11.9277 24.8243 12.0247 24.6789 12.1702 24.5819C12.3156 24.4849 12.5096 24.4849 12.655 24.5819L16.2429 26.6667C16.3883 26.7637 16.4853 26.9092 16.4853 27.1031V31.0304C16.4853 31.2243 16.3883 31.3698 16.2429 31.4667C16.1459 31.5152 16.0974 31.5152 16.0005 31.5152ZM12.8974 28.7031L15.5156 30.2061V27.394L12.8974 25.891V28.7031Z" fill="#131415"/>
<path d="M16.0005 31.5152C15.9035 31.5152 15.855 31.5152 15.758 31.4667C15.6126 31.3698 15.5156 31.2243 15.5156 31.0304V27.1031C15.5156 26.9092 15.6126 26.7637 15.758 26.6667L19.3459 24.5819C19.4914 24.4849 19.6853 24.4849 19.8308 24.5819C19.9762 24.6789 20.0732 24.8243 20.0732 25.0182V28.994C20.0732 29.1879 19.9762 29.3334 19.8308 29.4304L16.2429 31.4667C16.1459 31.5152 16.0974 31.5152 16.0005 31.5152ZM16.4853 27.394V30.2061L19.1035 28.7031V25.8425L16.4853 27.394Z" fill="#131415"/>
<path d="M16.0005 27.5879C15.9035 27.5879 15.855 27.5879 15.758 27.5394L12.1702 25.4546C12.0247 25.3576 11.9277 25.2122 11.9277 25.0182C11.9277 24.8243 12.0247 24.6788 12.1702 24.5819L15.758 22.5455C15.9035 22.4485 16.0974 22.4485 16.2429 22.5455L19.8308 24.5819C19.9762 24.6788 20.0732 24.8243 20.0732 25.0182C20.0732 25.2122 19.9762 25.3576 19.8308 25.4546L16.2429 27.5394C16.1459 27.5879 16.0974 27.5879 16.0005 27.5879ZM13.3823 25.0182L16.0005 26.5213L18.6186 25.0182L16.0005 23.5152L13.3823 25.0182Z" fill="#131415"/>
<path d="M15.9996 12.0728C13.2359 12.0728 10.4238 11.2 10.4238 9.60005C10.4238 8.00005 13.2359 7.12732 15.9996 7.12732C18.7147 7.12732 21.5753 8.00005 21.5753 9.60005C21.5753 11.2 18.7632 12.0728 15.9996 12.0728ZM15.9996 8.09702C13.1875 8.09702 11.3935 8.96974 11.3935 9.60005C11.3935 10.2303 13.1875 11.1031 15.9996 11.1031C18.8117 11.1031 20.6056 10.2303 20.6056 9.60005C20.6056 9.01823 18.7632 8.09702 15.9996 8.09702Z" fill="#131415"/>
<path d="M15.9996 21.1394C13.2359 21.1394 10.4238 20.2667 10.4238 18.6667V15.6606C10.4238 15.3697 10.6178 15.1758 10.9087 15.1758C11.1996 15.1758 11.3935 15.3697 11.3935 15.6606C11.3935 16.2909 13.1875 17.1637 15.9996 17.1637C18.7632 17.1637 20.6056 16.2424 20.6056 15.6606C20.6056 15.3697 20.7996 15.1758 21.0905 15.1758C21.3814 15.1758 21.5753 15.3697 21.5753 15.6606V18.6667C21.5753 20.2667 18.7632 21.1394 15.9996 21.1394ZM11.3935 17.1152V18.6667C11.3935 19.297 13.1875 20.1697 15.9996 20.1697C18.8117 20.1697 20.6056 19.297 20.6056 18.6667V17.1152C19.539 17.794 17.745 18.1334 15.9996 18.1334C14.2541 18.1334 12.4602 17.794 11.3935 17.1152Z" fill="#131415"/>
<path d="M15.9996 15.0789C13.2359 15.0789 10.4238 14.2061 10.4238 12.6061V9.60008C10.4238 9.30917 10.6178 9.11523 10.9087 9.11523C11.1996 9.11523 11.3935 9.30917 11.3935 9.60008C11.3935 10.2304 13.1875 11.1031 15.9996 11.1031C18.8117 11.1031 20.6056 10.2304 20.6056 9.60008C20.6056 9.30917 20.7996 9.11523 21.0905 9.11523C21.3814 9.11523 21.5753 9.30917 21.5753 9.60008V12.6061C21.5753 14.2061 18.7632 15.0789 15.9996 15.0789ZM11.3935 11.0546V12.6061C11.3935 13.2364 13.1875 14.1092 15.9996 14.1092C18.8117 14.1092 20.6056 13.2364 20.6056 12.6061V11.0546C18.4723 12.4122 13.5269 12.4122 11.3935 11.0546Z" fill="#131415"/>
<path d="M15.9996 18.1334C13.2359 18.1334 10.4238 17.2607 10.4238 15.6607V12.6546C10.4238 12.3637 10.6178 12.1698 10.9087 12.1698C11.1996 12.1698 11.3935 12.3637 11.3935 12.6546C11.3935 13.285 13.1875 14.1577 15.9996 14.1577C18.7632 14.1577 20.6056 13.2365 20.6056 12.6546C20.6056 12.3637 20.7996 12.1698 21.0905 12.1698C21.3814 12.1698 21.5753 12.3637 21.5753 12.6546V15.6607C21.5753 17.2607 18.7632 18.1334 15.9996 18.1334ZM11.3935 14.1092V15.6607C11.3935 16.291 13.1875 17.1637 15.9996 17.1637C18.8117 17.1637 20.6056 16.291 20.6056 15.6607V14.1092C19.539 14.788 17.745 15.1274 15.9996 15.1274C14.2541 15.1274 12.4602 14.788 11.3935 14.1092Z" fill="#131415"/>
<path d="M27.1509 28.5576C27.0539 28.5576 27.0054 28.5576 26.9084 28.5091L23.3205 26.4727C23.1751 26.3757 23.0781 26.2303 23.0781 26.0363V22.1091C23.0781 21.9151 23.1751 21.7697 23.3205 21.6727C23.466 21.5757 23.6599 21.5757 23.8054 21.6727L27.3933 23.7091C27.5387 23.806 27.6357 23.9515 27.6357 24.1454V28.0727C27.6357 28.2666 27.5387 28.4121 27.3933 28.5091C27.2963 28.5576 27.2478 28.5576 27.1509 28.5576ZM24.0478 25.7454L26.666 27.2485V24.4363L24.0478 22.9333V25.7454Z" fill="#131415"/>
<path d="M27.1509 28.5576C27.0539 28.5576 27.0054 28.5576 26.9084 28.5091C26.763 28.4121 26.666 28.2666 26.666 28.0727V24.1454C26.666 23.9515 26.763 23.806 26.9084 23.7091L30.4478 21.6727C30.5933 21.5757 30.7872 21.5757 30.9327 21.6727C31.0781 21.7697 31.1751 21.9151 31.1751 22.1091V26.0363C31.1751 26.2303 31.0781 26.3757 30.9327 26.4727L27.3933 28.5091C27.2963 28.5576 27.2478 28.5576 27.1509 28.5576ZM27.6357 24.4363V27.2485L30.2054 25.7939V22.9818L27.6357 24.4363Z" fill="#131415"/>
<path d="M27.1509 24.6303C27.0539 24.6303 27.0054 24.6303 26.9084 24.5818L23.3205 22.5454C23.1751 22.4485 23.0781 22.303 23.0781 22.1091C23.0781 21.9151 23.1751 21.7697 23.3205 21.6727L26.9084 19.5879C27.0539 19.4909 27.2478 19.4909 27.3933 19.5879L30.9327 21.6727C31.0781 21.7697 31.1751 21.9151 31.1751 22.1091C31.1751 22.303 31.0781 22.4485 30.9327 22.5454L27.3933 24.5818C27.2963 24.6303 27.2478 24.6303 27.1509 24.6303ZM24.5327 22.1091L27.1509 23.6121L29.7206 22.1091L27.1509 20.606L24.5327 22.1091Z" fill="#131415"/>
<path d="M4.84846 28.5576C4.75149 28.5576 4.70301 28.5576 4.60604 28.5091L1.06664 26.4727C0.921188 26.3757 0.824219 26.2303 0.824219 26.0363V22.1091C0.824219 21.9151 0.921188 21.7697 1.06664 21.6727C1.2121 21.5757 1.40604 21.5757 1.55149 21.6727L5.09089 23.7091C5.23634 23.806 5.33331 23.9515 5.33331 24.1454V28.0727C5.33331 28.2666 5.23634 28.4121 5.09089 28.5091C4.99392 28.5576 4.94543 28.5576 4.84846 28.5576ZM1.79392 25.7454L4.36361 27.2V24.3879L1.79392 22.9333V25.7454Z" fill="#131415"/>
<path d="M4.84813 28.5576C4.75116 28.5576 4.70268 28.5576 4.60571 28.5091C4.46025 28.4121 4.36328 28.2666 4.36328 28.0727V24.1454C4.36328 23.9515 4.46025 23.806 4.60571 23.7091L8.19358 21.6727C8.33904 21.5757 8.53298 21.5757 8.67843 21.6727C8.82389 21.7697 8.92086 21.9151 8.92086 22.1091V26.0363C8.92086 26.2303 8.82389 26.3757 8.67843 26.4727L5.09055 28.5091C4.99358 28.5576 4.9451 28.5576 4.84813 28.5576ZM5.33298 24.4363V27.2485L7.95116 25.7454V22.9333L5.33298 24.4363Z" fill="#131415"/>
<path d="M4.84846 24.6303C4.75149 24.6303 4.70301 24.6303 4.60604 24.5818L1.06664 22.5454C0.921188 22.4485 0.824219 22.303 0.824219 22.1091C0.824219 21.9151 0.921188 21.7697 1.06664 21.6727L4.60604 19.5879C4.75149 19.4909 4.94543 19.4909 5.09089 19.5879L8.67876 21.6727C8.82422 21.7697 8.92119 21.9151 8.92119 22.1091C8.92119 22.303 8.82422 22.4485 8.67876 22.5454L5.09089 24.5818C4.99392 24.6303 4.94543 24.6303 4.84846 24.6303ZM2.27876 22.1091L4.84846 23.6121L7.46664 22.1091L4.84846 20.606L2.27876 22.1091Z" fill="#131415"/>
<path d="M16.0005 23.4666C15.7096 23.4666 15.5156 23.2727 15.5156 22.9818V20.9454C15.5156 20.6545 15.7096 20.4606 16.0005 20.4606C16.2914 20.4606 16.4853 20.6545 16.4853 20.9454V22.9818C16.4853 23.2727 16.2914 23.4666 16.0005 23.4666Z" fill="#131415"/>
<path d="M4.84813 20.5576C4.55722 20.5576 4.36328 20.3637 4.36328 20.0727V19.2485C4.36328 18.1333 5.23601 17.2606 6.35116 17.2606H10.9087C11.1996 17.2606 11.3936 17.4546 11.3936 17.7455C11.3936 18.0364 11.1996 18.2303 10.9087 18.2303H6.35116C5.81783 18.2303 5.33298 18.7152 5.33298 19.2485V20.0727C5.33298 20.3637 5.13904 20.5576 4.84813 20.5576Z" fill="#131415"/>
<path d="M27.1509 20.5091C26.86 20.5091 26.6661 20.3152 26.6661 20.0243V19.2C26.6661 18.6667 26.1812 18.1819 25.6479 18.1819H21.0903C20.7994 18.1819 20.6055 17.9879 20.6055 17.697C20.6055 17.4061 20.7994 17.2122 21.0903 17.2122H25.6479C26.763 17.2122 27.6358 18.0849 27.6358 19.2V20.0243C27.6358 20.3152 27.4418 20.5091 27.1509 20.5091Z" fill="#131415"/>
<path d="M12.897 13.2364C12.606 13.2364 12.4121 13.0425 12.4121 12.7516V12.5091C12.4121 12.2182 12.606 12.0243 12.897 12.0243C13.1879 12.0243 13.3818 12.2182 13.3818 12.5091V12.7516C13.3818 13.0425 13.1879 13.2364 12.897 13.2364Z" fill="#131415"/>
<path d="M14.2544 13.5758C13.9635 13.5758 13.7695 13.3818 13.7695 13.0909V12.8485C13.7695 12.5576 13.9635 12.3636 14.2544 12.3636C14.5453 12.3636 14.7392 12.5576 14.7392 12.8485V13.0909C14.7392 13.3818 14.5453 13.5758 14.2544 13.5758Z" fill="#131415"/>
<path d="M15.6118 13.7213C15.3209 13.7213 15.127 13.5273 15.127 13.2364V12.994C15.127 12.7031 15.3209 12.5092 15.6118 12.5092C15.9027 12.5092 16.0967 12.7031 16.0967 12.994V13.2364C16.0967 13.5273 15.9027 13.7213 15.6118 13.7213Z" fill="#131415"/>
<path d="M12.897 16.2424C12.606 16.2424 12.4121 16.0485 12.4121 15.7575V15.5151C12.4121 15.2242 12.606 15.0303 12.897 15.0303C13.1879 15.0303 13.3818 15.2242 13.3818 15.5151V15.7575C13.3818 16.0485 13.1879 16.2424 12.897 16.2424Z" fill="#131415"/>
<path d="M14.2544 16.5818C13.9635 16.5818 13.7695 16.3878 13.7695 16.0969V15.8545C13.7695 15.5636 13.9635 15.3696 14.2544 15.3696C14.5453 15.3696 14.7392 15.5636 14.7392 15.8545V16.0969C14.7392 16.3878 14.5453 16.5818 14.2544 16.5818Z" fill="#131415"/>
<path d="M15.6118 16.7273C15.3209 16.7273 15.127 16.5333 15.127 16.2424V16C15.127 15.7091 15.3209 15.5151 15.6118 15.5151C15.9027 15.5151 16.0967 15.7091 16.0967 16V16.2424C16.0967 16.5333 15.9027 16.7273 15.6118 16.7273Z" fill="#131415"/>
<path d="M12.897 19.297C12.606 19.297 12.4121 19.103 12.4121 18.8121V18.5697C12.4121 18.2788 12.606 18.0848 12.897 18.0848C13.1879 18.0848 13.3818 18.2788 13.3818 18.5697V18.8121C13.3818 19.103 13.1879 19.297 12.897 19.297Z" fill="#131415"/>
<path d="M14.2544 19.6363C13.9635 19.6363 13.7695 19.4424 13.7695 19.1515V18.909C13.7695 18.6181 13.9635 18.4242 14.2544 18.4242C14.5453 18.4242 14.7392 18.6181 14.7392 18.909V19.1515C14.7392 19.4424 14.5453 19.6363 14.2544 19.6363Z" fill="#131415"/>
<path d="M15.6118 19.7334C15.3209 19.7334 15.127 19.5394 15.127 19.2485V19.0061C15.127 18.7152 15.3209 18.5212 15.6118 18.5212C15.9027 18.5212 16.0967 18.7152 16.0967 19.0061V19.2485C16.0967 19.5394 15.9027 19.7334 15.6118 19.7334Z" fill="#131415"/>
</g>
<defs>
<clipPath id="clip0_445_290">
<rect width="32" height="32" fill="white"/>
</clipPath>
</defs>
</svg>
