<svg width="32" height="32" viewBox="0 0 32 32" fill="none" xmlns="http://www.w3.org/2000/svg">
<path d="M29.125 1.25H2.875C1.63437 1.25 0.625 2.25931 0.625 3.5V23.8841C0.625 25.1248 1.63431 26.1341 2.875 26.1341H7.53125C8.1605 27.1066 8.95563 27.9737 9.88056 28.6811C11.6503 30.0346 13.7664 30.75 16 30.75C18.2336 30.75 20.3497 30.0346 22.1195 28.681C23.0444 27.9736 23.8396 27.1066 24.4688 26.1341H29.125C30.3656 26.1341 31.375 25.1248 31.375 23.8841V3.5C31.375 2.25931 30.3656 1.25 29.125 1.25ZM2.875 2H29.125C29.9521 2 30.625 2.67294 30.625 3.5V6.69475H1.375V3.5C1.375 2.67294 2.04787 2 2.875 2ZM15.625 25.9136V29.9686C14.304 29.7472 13.1002 28.3677 12.3116 26.2803C13.3802 26.0599 14.4926 25.936 15.625 25.9136ZM12.0666 25.5655C11.8889 24.9924 11.7413 24.3753 11.6274 23.7232H15.625V25.1634C14.4088 25.1866 13.2136 25.3225 12.0666 25.5655ZM16.375 29.9686V25.9136C17.5074 25.9359 18.6198 26.0599 19.6884 26.2803C18.8998 28.3677 17.6959 29.7472 16.375 29.9686ZM16.375 25.1634V23.7232H20.3726C20.2588 24.3753 20.1111 24.9923 19.9335 25.5655C18.7864 25.3225 17.5913 25.1866 16.375 25.1634ZM21.1341 23.7232H24.8199C24.4499 24.7909 23.8931 25.7629 23.1931 26.606C22.3918 26.2536 21.5454 25.9625 20.6656 25.7368C20.8591 25.1053 21.0161 24.4314 21.1341 23.7232ZM22.7529 22.9732V18.3629H26.4723C26.9636 18.3629 27.3632 18.7626 27.3632 19.2537V22.0823C27.3632 22.5735 26.9636 22.9732 26.4723 22.9732H22.7529ZM21.1341 17.6129C21.0161 16.9048 20.8591 16.2308 20.6657 15.5994C21.5454 15.3736 22.3919 15.0826 23.1932 14.7301C23.8932 15.5733 24.4499 16.5452 24.82 17.6129H21.1341ZM15.625 11.3675V15.4226C14.4926 15.4002 13.3802 15.2763 12.3116 15.0559C13.1002 12.9685 14.3041 11.5889 15.625 11.3675ZM15.625 16.1728V17.6129H11.6274C11.7413 16.9609 11.8889 16.3439 12.0665 15.7707C13.2136 16.0137 14.4087 16.1496 15.625 16.1728ZM19.9335 15.7707C20.1111 16.3438 20.2588 16.9609 20.3726 17.6129H16.375V16.1728C17.5913 16.1496 18.7864 16.0137 19.9335 15.7707ZM16.375 15.4226V11.3675C17.6959 11.5889 18.8998 12.9685 19.6884 15.0559C18.6199 15.2763 17.5074 15.4002 16.375 15.4226ZM20.4253 14.8868C20.1281 14.0834 19.7672 13.3623 19.3498 12.7432C19.0681 12.3255 18.7681 11.9666 18.4534 11.6675C20.0565 12.1083 21.5084 12.9707 22.6611 14.142C21.9489 14.441 21.2009 14.6905 20.4253 14.8868ZM12.6502 12.7433C12.2327 13.3623 11.8719 14.0834 11.5747 14.8868C10.7991 14.6906 10.0511 14.4411 9.33887 14.1421C10.4916 12.9708 11.9435 12.1084 13.5466 11.6676C13.2319 11.9666 12.9319 12.3256 12.6502 12.7433ZM8.80688 14.7301C9.60819 15.0826 10.4546 15.3736 11.3344 15.5994C11.141 16.2308 10.9839 16.9048 10.8659 17.6129H7.18013C7.55013 16.5452 8.10688 15.5733 8.80688 14.7301ZM22.0029 18.3629V22.9732H5.52775C5.03656 22.9732 4.63694 22.5736 4.63694 22.0824V19.2538C4.63694 18.7626 5.03656 18.3629 5.52775 18.3629H22.0029ZM10.8659 23.7232C10.9839 24.4314 11.1409 25.1053 11.3344 25.7368C10.4546 25.9625 9.60819 26.2536 8.80688 26.606C8.10688 25.7629 7.55012 24.7909 7.18006 23.7232H10.8659ZM9.33887 27.1941C10.0511 26.8952 10.7991 26.6457 11.5747 26.4494C11.8719 27.2528 12.2327 27.9739 12.6502 28.5929C12.9319 29.0106 13.2319 29.3696 13.5466 29.6686C11.9436 29.2278 10.4916 28.3654 9.33887 27.1941ZM18.4534 29.6686C18.7681 29.3695 19.0681 29.0106 19.3499 28.5928C19.7673 27.9738 20.1281 27.2528 20.4254 26.4493C21.2009 26.6456 21.9489 26.8951 22.6612 27.1941C21.5084 28.3654 20.0565 29.2277 18.4534 29.6686ZM29.125 25.3841H24.9097C25.1923 24.8529 25.4274 24.2967 25.61 23.7232H26.4722C27.3771 23.7232 28.1131 22.9872 28.1131 22.0824V19.2538C28.1131 18.349 27.3771 17.6129 26.4722 17.6129H25.61C24.9882 15.6598 23.757 13.9074 22.1195 12.6551C20.3497 11.3016 18.2337 10.5861 16 10.5861C13.7663 10.5861 11.6502 11.3016 9.8805 12.6551C8.243 13.9075 7.01175 15.6598 6.39 17.6129H5.52775C4.623 17.6129 3.88694 18.349 3.88694 19.2538V22.0824C3.88694 22.9872 4.623 23.7232 5.52775 23.7232H6.39C6.57256 24.2967 6.80769 24.8529 7.09025 25.3841H2.875C2.04794 25.3841 1.375 24.7112 1.375 23.8841V7.44475H30.625V23.8841C30.625 24.7112 29.9521 25.3841 29.125 25.3841ZM3.97738 5.54125C4.63569 5.54125 5.17125 5.00569 5.17125 4.34731C5.17125 3.68906 4.63569 3.15344 3.97738 3.15344C3.31906 3.15344 2.78344 3.689 2.78344 4.34731C2.78344 5.00569 3.31906 5.54125 3.97738 5.54125ZM3.97738 3.9035C4.22213 3.9035 4.42125 4.10262 4.42125 4.34737C4.42125 4.59212 4.22213 4.79131 3.97738 4.79131C3.73256 4.79131 3.53344 4.59212 3.53344 4.34737C3.53344 4.10262 3.73256 3.9035 3.97738 3.9035ZM7.58044 5.54125C8.23875 5.54125 8.77437 5.00569 8.77437 4.34731C8.77437 3.68906 8.23881 3.15344 7.58044 3.15344C6.92213 3.15344 6.38656 3.689 6.38656 4.34731C6.38656 5.00569 6.92219 5.54125 7.58044 5.54125ZM7.58044 3.9035C7.82525 3.9035 8.02437 4.10262 8.02437 4.34737C8.02437 4.59212 7.82525 4.79131 7.58044 4.79131C7.33569 4.79131 7.13656 4.59212 7.13656 4.34737C7.13656 4.10262 7.33569 3.9035 7.58044 3.9035ZM11.1836 5.54125C11.8419 5.54125 12.3775 5.00569 12.3775 4.34731C12.3775 3.68906 11.8419 3.15344 11.1836 3.15344C10.5252 3.15344 9.98969 3.689 9.98969 4.34731C9.98969 5.00569 10.5253 5.54125 11.1836 5.54125ZM11.1836 3.9035C11.4284 3.9035 11.6275 4.10262 11.6275 4.34737C11.6275 4.59212 11.4284 4.79131 11.1836 4.79131C10.9388 4.79131 10.7397 4.59212 10.7397 4.34737C10.7397 4.10262 10.9388 3.9035 11.1836 3.9035ZM20.8164 5.54125H28.0227C28.681 5.54125 29.2166 5.00569 29.2166 4.34731C29.2166 3.68906 28.681 3.15344 28.0227 3.15344H20.8164C20.1581 3.15344 19.6226 3.689 19.6226 4.34731C19.6226 5.00569 20.1581 5.54125 20.8164 5.54125ZM20.8164 3.9035H28.0227C28.2674 3.9035 28.4666 4.10262 28.4666 4.34737C28.4666 4.59212 28.2674 4.79131 28.0227 4.79131H20.8164C20.5717 4.79131 20.3726 4.59212 20.3726 4.34737C20.3726 4.10262 20.5717 3.9035 20.8164 3.9035ZM26.6798 21.7595L26.1154 21.1951C26.2472 20.9721 26.3233 20.7122 26.3233 20.4349C26.3233 19.6086 25.6511 18.9364 24.8248 18.9364C23.9985 18.9364 23.3263 19.6086 23.3263 20.4349C23.3263 21.2611 23.9986 21.9334 24.8248 21.9334C25.1022 21.9334 25.362 21.8573 25.5851 21.7254L26.1494 22.2897C26.2226 22.363 26.3186 22.3996 26.4146 22.3996C26.5106 22.3996 26.6065 22.363 26.6798 22.2897C26.8262 22.1434 26.8262 21.9059 26.6798 21.7595ZM24.0764 20.4349C24.0764 20.0222 24.4122 19.6864 24.8249 19.6864C25.2376 19.6864 25.5734 20.0222 25.5734 20.4349C25.5734 20.8477 25.2376 21.1834 24.8249 21.1834C24.4121 21.1834 24.0764 20.8476 24.0764 20.4349Z" fill="#131415"/>
</svg>
