<svg width="32" height="32" viewBox="0 0 32 32" fill="none" xmlns="http://www.w3.org/2000/svg">
<path d="M30 9.63637V4.54548C30 3.14158 28.8584 2 27.4546 2H4.54548C3.14158 2 2 3.14158 2 4.54548V9.63637C2 10.4003 2.34507 11.0786 2.87944 11.5455C2.34507 12.0124 2 12.6906 2 13.4546V18.5454C2 19.3094 2.34507 19.9876 2.87944 20.4545C2.34507 20.9214 2 21.5998 2 22.3636V27.4545C2 28.8584 3.14158 30 4.54548 30H27.4546C28.8584 30 30.0001 28.8584 30.0001 27.4545V22.3636C30.0001 21.5997 29.655 20.9214 29.1206 20.4545C29.655 19.9876 30.0001 19.3094 30.0001 18.5454V13.4546C30.0001 12.6906 29.655 12.0124 29.1206 11.5455C29.6549 11.0786 30 10.4003 30 9.63637ZM28.7273 27.4546C28.7273 28.1562 28.1562 28.7273 27.4546 28.7273H4.54548C3.84388 28.7273 3.27277 28.1562 3.27277 27.4546V22.3637C3.27277 21.6621 3.84388 21.091 4.54548 21.091H27.4546C28.1562 21.091 28.7273 21.6621 28.7273 22.3637V27.4546ZM28.7273 18.5454C28.7273 19.247 28.1562 19.8182 27.4546 19.8182H4.54548C3.84388 19.8182 3.27277 19.247 3.27277 18.5454V13.4546C3.27277 12.753 3.84388 12.1818 4.54548 12.1818H27.4546C28.1562 12.1818 28.7273 12.753 28.7273 13.4546V18.5454ZM28.7273 9.63637C28.7273 10.338 28.1562 10.9091 27.4546 10.9091H4.54548C3.84388 10.9091 3.27277 10.338 3.27277 9.63637V4.54548C3.27277 3.84388 3.84388 3.27277 4.54548 3.27277H27.4546C28.1562 3.27277 28.7273 3.84388 28.7273 4.54548V9.63637Z" fill="#131415"/>
<path d="M6.45474 4.54541C6.10299 4.54541 5.81836 4.82998 5.81836 5.18173V8.99992C5.81836 9.35167 6.10299 9.6363 6.45474 9.6363C6.80649 9.6363 7.09113 9.35167 7.09113 8.99992V5.18173C7.09107 4.82998 6.80643 4.54541 6.45474 4.54541Z" fill="#131415"/>
<path d="M8.99967 4.54541C8.64791 4.54541 8.36328 4.83004 8.36328 5.18179V8.99998C8.36328 9.35173 8.64791 9.63636 8.99967 9.63636C9.35142 9.63636 9.63605 9.35173 9.63605 8.99998V5.18179C9.63605 4.82998 9.35142 4.54541 8.99967 4.54541Z" fill="#131415"/>
<path d="M11.5446 4.54541C11.1928 4.54541 10.9082 4.83004 10.9082 5.18179V8.99998C10.9082 9.35173 11.1928 9.63636 11.5446 9.63636C11.8963 9.63636 12.181 9.35173 12.181 8.99998V5.18179C12.181 4.82998 11.8963 4.54541 11.5446 4.54541Z" fill="#131415"/>
<path d="M24.9094 8.36365C25.6123 8.36365 26.1821 7.79384 26.1821 7.09095C26.1821 6.38805 25.6123 5.81824 24.9094 5.81824C24.2065 5.81824 23.6367 6.38805 23.6367 7.09095C23.6367 7.79384 24.2065 8.36365 24.9094 8.36365Z" fill="#131415"/>
<path d="M21.0911 8.36365C21.794 8.36365 22.3638 7.79384 22.3638 7.09095C22.3638 6.38805 21.794 5.81824 21.0911 5.81824C20.3882 5.81824 19.8184 6.38805 19.8184 7.09095C19.8184 7.79384 20.3882 8.36365 21.0911 8.36365Z" fill="#131415"/>
<path d="M6.45474 13.4546C6.10299 13.4546 5.81836 13.7392 5.81836 14.091V17.9092C5.81836 18.2609 6.10299 18.5455 6.45474 18.5455C6.80649 18.5455 7.09113 18.2609 7.09113 17.9092V14.091C7.09107 13.7392 6.80643 13.4546 6.45474 13.4546Z" fill="#131415"/>
<path d="M8.99967 13.4546C8.64791 13.4546 8.36328 13.7392 8.36328 14.091V17.9092C8.36328 18.2609 8.64791 18.5455 8.99967 18.5455C9.35142 18.5455 9.63605 18.2609 9.63605 17.9092V14.091C9.63605 13.7392 9.35142 13.4546 8.99967 13.4546Z" fill="#131415"/>
<path d="M11.5446 13.4546C11.1928 13.4546 10.9082 13.7392 10.9082 14.091V17.9092C10.9082 18.2609 11.1928 18.5455 11.5446 18.5455C11.8963 18.5455 12.181 18.2609 12.181 17.9092V14.091C12.181 13.7392 11.8963 13.4546 11.5446 13.4546Z" fill="#131415"/>
<path d="M24.9094 17.2727C25.6123 17.2727 26.1821 16.7029 26.1821 16C26.1821 15.2971 25.6123 14.7273 24.9094 14.7273C24.2065 14.7273 23.6367 15.2971 23.6367 16C23.6367 16.7029 24.2065 17.2727 24.9094 17.2727Z" fill="#131415"/>
<path d="M21.0911 17.2727C21.794 17.2727 22.3638 16.7029 22.3638 16C22.3638 15.2971 21.794 14.7273 21.0911 14.7273C20.3882 14.7273 19.8184 15.2971 19.8184 16C19.8184 16.7029 20.3882 17.2727 21.0911 17.2727Z" fill="#131415"/>
<path d="M6.45474 22.3636C6.10299 22.3636 5.81836 22.6483 5.81836 23V26.8182C5.81836 27.17 6.10299 27.4546 6.45474 27.4546C6.80649 27.4546 7.09107 27.17 7.09107 26.8182V23C7.09107 22.6483 6.80643 22.3636 6.45474 22.3636Z" fill="#131415"/>
<path d="M8.99967 22.3636C8.64791 22.3636 8.36328 22.6483 8.36328 23V26.8182C8.36328 27.17 8.64791 27.4546 8.99967 27.4546C9.35142 27.4546 9.63605 27.17 9.63605 26.8182V23C9.63605 22.6483 9.35142 22.3636 8.99967 22.3636Z" fill="#131415"/>
<path d="M11.5446 22.3636C11.1928 22.3636 10.9082 22.6483 10.9082 23V26.8182C10.9082 27.17 11.1928 27.4546 11.5446 27.4546C11.8963 27.4546 12.181 27.17 12.181 26.8182V23C12.181 22.6483 11.8963 22.3636 11.5446 22.3636Z" fill="#131415"/>
<path d="M24.9094 26.1818C25.6123 26.1818 26.1821 25.612 26.1821 24.9091C26.1821 24.2062 25.6123 23.6364 24.9094 23.6364C24.2065 23.6364 23.6367 24.2062 23.6367 24.9091C23.6367 25.612 24.2065 26.1818 24.9094 26.1818Z" fill="#131415"/>
<path d="M21.0911 26.1818C21.794 26.1818 22.3638 25.612 22.3638 24.9091C22.3638 24.2062 21.794 23.6364 21.0911 23.6364C20.3882 23.6364 19.8184 24.2062 19.8184 24.9091C19.8184 25.612 20.3882 26.1818 21.0911 26.1818Z" fill="#131415"/>
</svg>
