<svg width="40" height="40" viewBox="0 0 40 40" fill="none" xmlns="http://www.w3.org/2000/svg">
<g clip-path="url(#clip0_2011_10051)">
<path d="M8.33333 6.66602H15L20 11.666H31.6667C32.5507 11.666 33.3986 12.0172 34.0237 12.6423C34.6488 13.2674 35 14.1153 35 14.9993V28.3327C35 29.2167 34.6488 30.0646 34.0237 30.6897C33.3986 31.3148 32.5507 31.666 31.6667 31.666H8.33333C7.44928 31.666 6.60143 31.3148 5.97631 30.6897C5.35119 30.0646 5 29.2167 5 28.3327V9.99935C5 9.11529 5.35119 8.26745 5.97631 7.64233C6.60143 7.0172 7.44928 6.66602 8.33333 6.66602Z" stroke="black" stroke-width="2" stroke-linecap="round" stroke-linejoin="round"/>
</g>
<defs>
<clipPath id="clip0_2011_10051">
<rect width="40" height="40" fill="white"/>
</clipPath>
</defs>
</svg>
