<svg width="20" height="22" viewBox="0 0 20 22" fill="none" xmlns="http://www.w3.org/2000/svg">
<path d="M6.43177 5.00064H0.99877L0.88477 5.00664C0.718616 5.02578 0.559918 5.08629 0.423199 5.18263C0.286481 5.27897 0.17611 5.40806 0.102189 5.55809C0.0282683 5.70813 -0.00684163 5.8743 7.32902e-05 6.04141C0.00698821 6.20852 0.0557068 6.37123 0.14177 6.51464L2.83177 11.0006L0.14177 15.4866L0.0877703 15.5866C0.018466 15.739 -0.0114752 15.9064 0.000691986 16.0733C0.0128592 16.2403 0.0667454 16.4015 0.15741 16.5422C0.248074 16.683 0.372616 16.7987 0.519615 16.8788C0.666615 16.9589 0.831368 17.0008 0.99877 17.0006H6.43277L9.14177 21.5146L9.21577 21.6226C9.31634 21.749 9.44603 21.8492 9.59376 21.9146C9.74149 21.9799 9.90285 22.0085 10.064 21.9979C10.2252 21.9873 10.3814 21.9378 10.5193 21.8536C10.6572 21.7695 10.7726 21.6531 10.8558 21.5146L13.5638 17.0006H18.9988L19.1128 16.9946C19.2789 16.9755 19.4376 16.915 19.5743 16.8186C19.7111 16.7223 19.8214 16.5932 19.8953 16.4432C19.9693 16.2931 20.0044 16.127 19.9975 15.9599C19.9905 15.7928 19.9418 15.63 19.8558 15.4866L17.1648 11.0006L19.8558 6.51464L19.9098 6.41464C19.9791 6.26225 20.009 6.09491 19.9968 5.92795C19.9847 5.76099 19.9308 5.59976 19.8401 5.45904C19.7495 5.31831 19.6249 5.2026 19.4779 5.12251C19.3309 5.04242 19.1662 5.00052 18.9988 5.00064H13.5648L10.8558 0.486637C10.7669 0.338784 10.6412 0.216448 10.491 0.131517C10.3409 0.0465873 10.1713 0.00195312 9.99877 0.00195312C9.82624 0.00195312 9.65666 0.0465873 9.50648 0.131517C9.35631 0.216448 9.23067 0.338784 9.14177 0.486637L6.43177 5.00064Z" fill="#FAC632"/>
</svg>
