<svg width="492" height="179" viewBox="0 0 492 179" fill="none" xmlns="http://www.w3.org/2000/svg">
<mask id="path-1-outside-1_2011_17789" maskUnits="userSpaceOnUse" x="0" y="0" width="492" height="179" fill="black">
<rect fill="white" width="492" height="179"/>
<path d="M1.138 142V103.344C9.67133 92.9333 17.01 83.2907 23.154 74.416C29.4687 65.5413 34.8447 57.1787 39.282 49.328C43.7193 41.4773 47.3887 33.8827 50.29 26.544C53.362 19.2053 56.0073 11.952 58.226 4.784H129.65V174H88.69V31.408H86.13C82.3753 41.3067 78.194 50.6933 73.586 59.568C68.978 68.272 63.9433 76.5493 58.482 84.4C53.1913 92.08 47.5593 99.5893 41.586 106.928V109.744H153.714V142H1.138ZM246.248 177.584C235.155 177.584 225 175.707 215.784 171.952C206.739 168.027 198.973 162.395 192.488 155.056C186.003 147.717 181.053 138.587 177.64 127.664C174.227 116.741 172.52 104.283 172.52 90.288C172.52 70.4907 175.763 54.1067 182.248 41.136C188.733 27.9947 197.608 18.1813 208.872 11.696C220.307 5.03999 233.192 1.71199 247.528 1.71199C262.205 1.71199 275.091 5.03999 286.184 11.696C297.277 18.352 305.896 28.1653 312.04 41.136C318.184 54.1067 321.256 70.1493 321.256 89.264C321.256 103.771 319.379 116.571 315.624 127.664C312.04 138.757 306.835 147.973 300.008 155.312C293.352 162.651 285.416 168.197 276.2 171.952C267.155 175.707 257.171 177.584 246.248 177.584ZM247.272 145.328C251.027 145.328 254.781 144.475 258.536 142.768C262.461 140.891 266.045 137.904 269.288 133.808C272.531 129.712 275.091 124.251 276.968 117.424C278.845 110.427 279.784 101.723 279.784 91.312C279.784 78.8533 278.419 68.3573 275.688 59.824C272.957 51.2907 269.117 44.8053 264.168 40.368C259.219 35.9307 253.416 33.712 246.76 33.712C241.981 33.712 237.032 35.3333 231.912 38.576C226.792 41.8187 222.525 47.4507 219.112 55.472C215.699 63.4933 213.992 74.8427 213.992 89.52C213.992 99.76 214.845 108.464 216.552 115.632C218.429 122.629 220.904 128.347 223.976 132.784C227.219 137.051 230.803 140.208 234.728 142.256C238.824 144.304 243.005 145.328 247.272 145.328ZM338.388 142V103.344C346.921 92.9333 354.26 83.2907 360.404 74.416C366.719 65.5413 372.095 57.1787 376.532 49.328C380.969 41.4773 384.639 33.8827 387.54 26.544C390.612 19.2053 393.257 11.952 395.476 4.784H466.9V174H425.94V31.408H423.38C419.625 41.3067 415.444 50.6933 410.836 59.568C406.228 68.272 401.193 76.5493 395.732 84.4C390.441 92.08 384.809 99.5893 378.836 106.928V109.744H490.964V142H338.388Z"/>
</mask>
<path d="M1.138 142V103.344C9.67133 92.9333 17.01 83.2907 23.154 74.416C29.4687 65.5413 34.8447 57.1787 39.282 49.328C43.7193 41.4773 47.3887 33.8827 50.29 26.544C53.362 19.2053 56.0073 11.952 58.226 4.784H129.65V174H88.69V31.408H86.13C82.3753 41.3067 78.194 50.6933 73.586 59.568C68.978 68.272 63.9433 76.5493 58.482 84.4C53.1913 92.08 47.5593 99.5893 41.586 106.928V109.744H153.714V142H1.138ZM246.248 177.584C235.155 177.584 225 175.707 215.784 171.952C206.739 168.027 198.973 162.395 192.488 155.056C186.003 147.717 181.053 138.587 177.64 127.664C174.227 116.741 172.52 104.283 172.52 90.288C172.52 70.4907 175.763 54.1067 182.248 41.136C188.733 27.9947 197.608 18.1813 208.872 11.696C220.307 5.03999 233.192 1.71199 247.528 1.71199C262.205 1.71199 275.091 5.03999 286.184 11.696C297.277 18.352 305.896 28.1653 312.04 41.136C318.184 54.1067 321.256 70.1493 321.256 89.264C321.256 103.771 319.379 116.571 315.624 127.664C312.04 138.757 306.835 147.973 300.008 155.312C293.352 162.651 285.416 168.197 276.2 171.952C267.155 175.707 257.171 177.584 246.248 177.584ZM247.272 145.328C251.027 145.328 254.781 144.475 258.536 142.768C262.461 140.891 266.045 137.904 269.288 133.808C272.531 129.712 275.091 124.251 276.968 117.424C278.845 110.427 279.784 101.723 279.784 91.312C279.784 78.8533 278.419 68.3573 275.688 59.824C272.957 51.2907 269.117 44.8053 264.168 40.368C259.219 35.9307 253.416 33.712 246.76 33.712C241.981 33.712 237.032 35.3333 231.912 38.576C226.792 41.8187 222.525 47.4507 219.112 55.472C215.699 63.4933 213.992 74.8427 213.992 89.52C213.992 99.76 214.845 108.464 216.552 115.632C218.429 122.629 220.904 128.347 223.976 132.784C227.219 137.051 230.803 140.208 234.728 142.256C238.824 144.304 243.005 145.328 247.272 145.328ZM338.388 142V103.344C346.921 92.9333 354.26 83.2907 360.404 74.416C366.719 65.5413 372.095 57.1787 376.532 49.328C380.969 41.4773 384.639 33.8827 387.54 26.544C390.612 19.2053 393.257 11.952 395.476 4.784H466.9V174H425.94V31.408H423.38C419.625 41.3067 415.444 50.6933 410.836 59.568C406.228 68.272 401.193 76.5493 395.732 84.4C390.441 92.08 384.809 99.5893 378.836 106.928V109.744H490.964V142H338.388Z" fill="url(#paint0_linear_2011_17789)"/>
<path d="M1.138 142H0.138V143H1.138V142ZM1.138 103.344L0.364609 102.71L0.138 102.987V103.344H1.138ZM23.154 74.416L22.3391 73.8362L22.3318 73.8468L23.154 74.416ZM39.282 49.328L40.1526 49.8201L39.282 49.328ZM50.29 26.544L49.3676 26.1579L49.3637 26.1671L49.36 26.1763L50.29 26.544ZM58.226 4.784V3.784H57.4887L57.2707 4.48831L58.226 4.784ZM129.65 4.784H130.65V3.784H129.65V4.784ZM129.65 174V175H130.65V174H129.65ZM88.69 174H87.69V175H88.69V174ZM88.69 31.408H89.69V30.408H88.69V31.408ZM86.13 31.408V30.408H85.4398L85.195 31.0533L86.13 31.408ZM73.586 59.568L74.4698 60.0359L74.4735 60.0288L73.586 59.568ZM58.482 84.4L57.6611 83.8289L57.6585 83.8327L58.482 84.4ZM41.586 106.928L40.8104 106.297L40.586 106.572V106.928H41.586ZM41.586 109.744H40.586V110.744H41.586V109.744ZM153.714 109.744H154.714V108.744H153.714V109.744ZM153.714 142V143H154.714V142H153.714ZM1.138 142H2.138V103.344H1.138H0.138V142H1.138ZM1.138 103.344L1.91139 103.978C10.4579 93.5512 17.8136 83.8867 23.9762 74.9852L23.154 74.416L22.3318 73.8468C16.2064 82.6946 8.88479 92.3154 0.364609 102.71L1.138 103.344ZM23.154 74.416L23.9688 74.9958C30.2996 66.0984 35.6951 57.7063 40.1526 49.8201L39.282 49.328L38.4114 48.8359C33.9942 56.651 28.6377 64.9842 22.3392 73.8362L23.154 74.416ZM39.282 49.328L40.1526 49.8201C44.6094 41.9349 48.2995 34.2986 51.22 26.9117L50.29 26.544L49.36 26.1763C46.4778 33.4667 42.8293 41.0198 38.4114 48.8359L39.282 49.328ZM50.29 26.544L51.2124 26.9301C54.2961 19.5636 56.9526 12.2801 59.1813 5.07968L58.226 4.784L57.2707 4.48831C55.0621 11.6239 52.4279 18.847 49.3676 26.1579L50.29 26.544ZM58.226 4.784V5.784H129.65V4.784V3.784H58.226V4.784ZM129.65 4.784H128.65V174H129.65H130.65V4.784H129.65ZM129.65 174V173H88.69V174V175H129.65V174ZM88.69 174H89.69V31.408H88.69H87.69V174H88.69ZM88.69 31.408V30.408H86.13V31.408V32.408H88.69V31.408ZM86.13 31.408L85.195 31.0533C81.4533 40.9178 77.2876 50.2689 72.6985 59.1072L73.586 59.568L74.4735 60.0288C79.1004 51.1178 83.2974 41.6955 87.065 31.7626L86.13 31.408ZM73.586 59.568L72.7022 59.1001C68.1125 67.7695 63.0987 76.0123 57.6611 83.8289L58.482 84.4L59.3029 84.9711C64.7879 77.0863 69.8435 68.7745 74.4698 60.0359L73.586 59.568ZM58.482 84.4L57.6585 83.8327C52.3832 91.4904 46.7672 98.9784 40.8104 106.297L41.586 106.928L42.3616 107.559C48.3515 100.2 53.9995 92.6696 59.3055 84.9673L58.482 84.4ZM41.586 106.928H40.586V109.744H41.586H42.586V106.928H41.586ZM41.586 109.744V110.744H153.714V109.744V108.744H41.586V109.744ZM153.714 109.744H152.714V142H153.714H154.714V109.744H153.714ZM153.714 142V141H1.138V142V143H153.714V142ZM215.784 171.952L215.386 172.869L215.396 172.874L215.407 172.878L215.784 171.952ZM192.488 155.056L191.739 155.718L192.488 155.056ZM177.64 127.664L178.594 127.366L177.64 127.664ZM182.248 41.136L183.142 41.5832L183.145 41.5785L182.248 41.136ZM208.872 11.696L209.371 12.5626L209.375 12.5602L208.872 11.696ZM286.184 11.696L285.669 12.5535H285.67L286.184 11.696ZM312.04 41.136L312.944 40.7079L312.04 41.136ZM315.624 127.664L314.677 127.343L314.672 127.357L315.624 127.664ZM300.008 155.312L299.276 154.631L299.267 154.64L300.008 155.312ZM276.2 171.952L275.823 171.026L275.817 171.028L276.2 171.952ZM258.536 142.768L258.95 143.678L258.959 143.674L258.967 143.67L258.536 142.768ZM269.288 133.808L268.504 133.187L269.288 133.808ZM276.968 117.424L277.932 117.689L277.934 117.683L276.968 117.424ZM275.688 59.824L274.736 60.1288L275.688 59.824ZM264.168 40.368L263.5 41.1126L264.168 40.368ZM216.552 115.632L215.579 115.864L215.582 115.877L215.586 115.891L216.552 115.632ZM223.976 132.784L223.154 133.353L223.166 133.371L223.18 133.389L223.976 132.784ZM234.728 142.256L234.265 143.143L234.273 143.147L234.281 143.15L234.728 142.256ZM246.248 177.584V176.584C235.269 176.584 225.244 174.726 216.161 171.026L215.784 171.952L215.407 172.878C224.756 176.687 235.04 178.584 246.248 178.584V177.584ZM215.784 171.952L216.182 171.035C207.27 167.167 199.625 161.622 193.237 154.394L192.488 155.056L191.739 155.718C198.322 163.167 206.207 168.886 215.386 172.869L215.784 171.952ZM192.488 155.056L193.237 154.394C186.86 147.177 181.973 138.176 178.594 127.366L177.64 127.664L176.686 127.962C180.134 138.997 185.146 148.258 191.739 155.718L192.488 155.056ZM177.64 127.664L178.594 127.366C175.217 116.558 173.52 104.203 173.52 90.288H172.52H171.52C171.52 104.362 173.236 116.924 176.686 127.962L177.64 127.664ZM172.52 90.288H173.52C173.52 70.5922 176.747 54.3738 183.142 41.5832L182.248 41.136L181.354 40.6888C174.778 53.8395 171.52 70.3892 171.52 90.288H172.52ZM182.248 41.136L183.145 41.5785C189.554 28.5914 198.3 18.9368 209.371 12.5626L208.872 11.696L208.373 10.8294C196.916 17.4258 187.913 27.3979 181.351 40.6934L182.248 41.136ZM208.872 11.696L209.375 12.5602C220.644 6.00052 233.354 2.71199 247.528 2.71199V1.71199V0.71199C233.031 0.71199 219.969 4.07947 208.369 10.8318L208.872 11.696ZM247.528 1.71199V2.71199C262.049 2.71199 274.752 6.00277 285.669 12.5535L286.184 11.696L286.699 10.8385C275.43 4.07722 262.362 0.71199 247.528 0.71199V1.71199ZM286.184 11.696L285.67 12.5535C296.575 19.097 305.067 28.7515 311.136 41.5641L312.04 41.136L312.944 40.7079C306.725 27.5791 297.979 17.607 286.698 10.8385L286.184 11.696ZM312.04 41.136L311.136 41.5641C317.2 54.3642 320.256 70.2506 320.256 89.264H321.256H322.256C322.256 70.0481 319.169 53.8491 312.944 40.7079L312.04 41.136ZM321.256 89.264H320.256C320.256 103.687 318.389 116.375 314.677 127.343L315.624 127.664L316.571 127.985C320.368 116.767 322.256 103.855 322.256 89.264H321.256ZM315.624 127.664L314.672 127.357C311.126 138.333 305.988 147.415 299.276 154.631L300.008 155.312L300.74 155.993C307.681 148.531 312.954 139.181 316.576 127.971L315.624 127.664ZM300.008 155.312L299.267 154.64C292.712 161.867 284.901 167.327 275.823 171.026L276.2 171.952L276.577 172.878C285.931 169.067 293.992 163.434 300.749 155.984L300.008 155.312ZM276.2 171.952L275.817 171.028C266.906 174.727 257.054 176.584 246.248 176.584V177.584V178.584C257.287 178.584 267.403 176.686 276.583 172.876L276.2 171.952ZM247.272 145.328V146.328C251.183 146.328 255.078 145.438 258.95 143.678L258.536 142.768L258.122 141.858C254.485 143.511 250.87 144.328 247.272 144.328V145.328ZM258.536 142.768L258.967 143.67C263.055 141.715 266.754 138.62 270.072 134.429L269.288 133.808L268.504 133.187C265.337 137.188 261.868 140.066 258.105 141.866L258.536 142.768ZM269.288 133.808L270.072 134.429C273.422 130.197 276.031 124.602 277.932 117.689L276.968 117.424L276.004 117.159C274.15 123.899 271.639 129.227 268.504 133.187L269.288 133.808ZM276.968 117.424L277.934 117.683C279.841 110.573 280.784 101.776 280.784 91.312H279.784H278.784C278.784 101.67 277.849 110.28 276.002 117.165L276.968 117.424ZM279.784 91.312H280.784C280.784 78.7871 279.412 68.1812 276.64 59.5192L275.688 59.824L274.736 60.1288C277.425 68.5335 278.784 78.9196 278.784 91.312H279.784ZM275.688 59.824L276.64 59.5192C273.874 50.8734 269.956 44.2138 264.836 39.6234L264.168 40.368L263.5 41.1126C268.279 45.3969 272.041 51.7079 274.736 60.1288L275.688 59.824ZM264.168 40.368L264.836 39.6234C259.702 35.0214 253.662 32.712 246.76 32.712V33.712V34.712C253.17 34.712 258.735 36.8399 263.5 41.1126L264.168 40.368ZM246.76 33.712V32.712C241.747 32.712 236.614 34.4141 231.377 37.7312L231.912 38.576L232.447 39.4208C237.45 36.2525 242.216 34.712 246.76 34.712V33.712ZM231.912 38.576L231.377 37.7312C226.026 41.1204 221.651 46.9508 218.192 55.0804L219.112 55.472L220.032 55.8635C223.399 47.9506 227.558 42.5169 232.447 39.4208L231.912 38.576ZM219.112 55.472L218.192 55.0804C214.702 63.2823 212.992 74.7877 212.992 89.52H213.992H214.992C214.992 74.8976 216.696 63.7044 220.032 55.8635L219.112 55.472ZM213.992 89.52H212.992C212.992 99.8102 213.849 108.597 215.579 115.864L216.552 115.632L217.525 115.4C215.842 108.331 214.992 99.7098 214.992 89.52H213.992ZM216.552 115.632L215.586 115.891C217.484 122.964 219.998 128.795 223.154 133.353L223.976 132.784L224.798 132.215C221.81 127.898 219.375 122.295 217.518 115.373L216.552 115.632ZM223.976 132.784L223.18 133.389C226.493 137.749 230.185 141.014 234.265 143.143L234.728 142.256L235.191 141.369C231.42 139.402 227.944 136.353 224.772 132.179L223.976 132.784ZM234.728 142.256L234.281 143.15C238.505 145.263 242.839 146.328 247.272 146.328V145.328V144.328C243.172 144.328 239.143 143.345 235.175 141.362L234.728 142.256ZM338.388 142H337.388V143H338.388V142ZM338.388 103.344L337.615 102.71L337.388 102.987V103.344H338.388ZM360.404 74.416L359.589 73.8362L359.582 73.8468L360.404 74.416ZM376.532 49.328L377.403 49.8201L376.532 49.328ZM387.54 26.544L386.618 26.1579L386.614 26.1671L386.61 26.1763L387.54 26.544ZM395.476 4.784V3.784H394.739L394.521 4.48831L395.476 4.784ZM466.9 4.784H467.9V3.784H466.9V4.784ZM466.9 174V175H467.9V174H466.9ZM425.94 174H424.94V175H425.94V174ZM425.94 31.408H426.94V30.408H425.94V31.408ZM423.38 31.408V30.408H422.69L422.445 31.0533L423.38 31.408ZM410.836 59.568L411.72 60.0359L411.724 60.0288L410.836 59.568ZM395.732 84.4L394.911 83.8289L394.909 83.8327L395.732 84.4ZM378.836 106.928L378.06 106.297L377.836 106.572V106.928H378.836ZM378.836 109.744H377.836V110.744H378.836V109.744ZM490.964 109.744H491.964V108.744H490.964V109.744ZM490.964 142V143H491.964V142H490.964ZM338.388 142H339.388V103.344H338.388H337.388V142H338.388ZM338.388 103.344L339.161 103.978C347.708 93.5512 355.064 83.8867 361.226 74.9852L360.404 74.416L359.582 73.8468C353.456 82.6946 346.135 92.3154 337.615 102.71L338.388 103.344ZM360.404 74.416L361.219 74.9958C367.55 66.0984 372.945 57.7063 377.403 49.8201L376.532 49.328L375.661 48.8359C371.244 56.651 365.888 64.9842 359.589 73.8362L360.404 74.416ZM376.532 49.328L377.403 49.8201C381.859 41.9349 385.55 34.2986 388.47 26.9117L387.54 26.544L386.61 26.1763C383.728 33.4667 380.079 41.0198 375.661 48.8359L376.532 49.328ZM387.54 26.544L388.462 26.9301C391.546 19.5636 394.203 12.2801 396.431 5.07968L395.476 4.784L394.521 4.48831C392.312 11.6239 389.678 18.847 386.618 26.1579L387.54 26.544ZM395.476 4.784V5.784H466.9V4.784V3.784H395.476V4.784ZM466.9 4.784H465.9V174H466.9H467.9V4.784H466.9ZM466.9 174V173H425.94V174V175H466.9V174ZM425.94 174H426.94V31.408H425.94H424.94V174H425.94ZM425.94 31.408V30.408H423.38V31.408V32.408H425.94V31.408ZM423.38 31.408L422.445 31.0533C418.703 40.9178 414.538 50.2689 409.949 59.1072L410.836 59.568L411.724 60.0288C416.35 51.1178 420.547 41.6955 424.315 31.7626L423.38 31.408ZM410.836 59.568L409.952 59.1001C405.363 67.7695 400.349 76.0123 394.911 83.8289L395.732 84.4L396.553 84.9711C402.038 77.0863 407.093 68.7745 411.72 60.0359L410.836 59.568ZM395.732 84.4L394.909 83.8327C389.633 91.4904 384.017 98.9784 378.06 106.297L378.836 106.928L379.612 107.559C385.601 100.2 391.25 92.6696 396.556 84.9673L395.732 84.4ZM378.836 106.928H377.836V109.744H378.836H379.836V106.928H378.836ZM378.836 109.744V110.744H490.964V109.744V108.744H378.836V109.744ZM490.964 109.744H489.964V142H490.964H491.964V109.744H490.964ZM490.964 142V141H338.388V142V143H490.964V142Z" fill="#D9DFE5" mask="url(#path-1-outside-1_2011_17789)"/>
<defs>
<linearGradient id="paint0_linear_2011_17789" x1="324" y1="-30.5" x2="245.5" y2="172" gradientUnits="userSpaceOnUse">
<stop stop-color="#DEF7EA"/>
<stop offset="1" stop-color="white"/>
</linearGradient>
</defs>
</svg>
