<svg width="208" height="45" viewBox="0 0 208 45" fill="none" xmlns="http://www.w3.org/2000/svg">
<rect width="208" height="45" fill="white"/>
<path d="M13.7784 17.3636H15.9091L19.6136 26.4091H19.75L23.4545 17.3636H25.5852V29H23.9148V20.5795H23.8068L20.375 28.983H18.9886L15.5568 20.5739H15.4489V29H13.7784V17.3636ZM28.0014 29V20.2727H29.7003V29H28.0014ZM28.8594 18.9261C28.5639 18.9261 28.3101 18.8277 28.098 18.6307C27.8897 18.4299 27.7855 18.1913 27.7855 17.9148C27.7855 17.6345 27.8897 17.3958 28.098 17.1989C28.3101 16.9981 28.5639 16.8977 28.8594 16.8977C29.1548 16.8977 29.4067 16.9981 29.6151 17.1989C29.8272 17.3958 29.9332 17.6345 29.9332 17.9148C29.9332 18.1913 29.8272 18.4299 29.6151 18.6307C29.4067 18.8277 29.1548 18.9261 28.8594 18.9261ZM35.6449 32.4545C34.9517 32.4545 34.3551 32.3636 33.8551 32.1818C33.3589 32 32.9536 31.7595 32.6392 31.4602C32.3248 31.161 32.09 30.8333 31.9347 30.4773L33.3949 29.875C33.4972 30.0417 33.6335 30.2178 33.804 30.4034C33.9782 30.5928 34.2131 30.7538 34.5085 30.8864C34.8078 31.0189 35.1922 31.0852 35.6619 31.0852C36.3059 31.0852 36.8381 30.928 37.2585 30.6136C37.679 30.303 37.8892 29.8068 37.8892 29.125V27.4091H37.7812C37.679 27.5947 37.5313 27.8011 37.3381 28.0284C37.1487 28.2557 36.8873 28.4527 36.554 28.6193C36.2206 28.786 35.7869 28.8693 35.2528 28.8693C34.5634 28.8693 33.9422 28.7083 33.3892 28.3864C32.84 28.0606 32.4044 27.5814 32.0824 26.9489C31.7642 26.3125 31.6051 25.5303 31.6051 24.6023C31.6051 23.6742 31.7623 22.8788 32.0767 22.2159C32.3949 21.553 32.8305 21.0455 33.3835 20.6932C33.9366 20.3371 34.5634 20.1591 35.2642 20.1591C35.8059 20.1591 36.2434 20.25 36.5767 20.4318C36.91 20.6098 37.1695 20.8182 37.3551 21.0568C37.5445 21.2955 37.6903 21.5057 37.7926 21.6875H37.9176V20.2727H39.5824V29.1932C39.5824 29.9432 39.4081 30.5587 39.0597 31.0398C38.7112 31.5208 38.2396 31.8769 37.6449 32.108C37.054 32.339 36.3873 32.4545 35.6449 32.4545ZM35.6278 27.4602C36.1165 27.4602 36.5294 27.3466 36.8665 27.1193C37.2074 26.8883 37.465 26.5587 37.6392 26.1307C37.8172 25.6989 37.9062 25.1818 37.9062 24.5795C37.9062 23.9924 37.8191 23.4754 37.6449 23.0284C37.4706 22.5814 37.215 22.233 36.8778 21.983C36.5407 21.7292 36.1241 21.6023 35.6278 21.6023C35.1165 21.6023 34.6903 21.7348 34.3494 22C34.0085 22.2614 33.7509 22.6174 33.5767 23.0682C33.4063 23.5189 33.321 24.0227 33.321 24.5795C33.321 25.1515 33.4081 25.6534 33.5824 26.0852C33.7566 26.517 34.0142 26.8542 34.3551 27.0966C34.6998 27.339 35.1241 27.4602 35.6278 27.4602ZM41.8608 29V20.2727H43.5028V21.6591H43.5938C43.7528 21.1894 44.0331 20.8201 44.4347 20.5511C44.84 20.2784 45.2983 20.142 45.8097 20.142C45.9157 20.142 46.0407 20.1458 46.1847 20.1534C46.3324 20.161 46.4479 20.1705 46.5312 20.1818V21.8068C46.4631 21.7879 46.3419 21.767 46.1676 21.7443C45.9934 21.7178 45.8191 21.7045 45.6449 21.7045C45.2434 21.7045 44.8854 21.7898 44.571 21.9602C44.2604 22.1269 44.0142 22.3598 43.8324 22.6591C43.6506 22.9545 43.5597 23.2917 43.5597 23.6705V29H41.8608ZM50.4631 29.1932C49.91 29.1932 49.41 29.0909 48.9631 28.8864C48.5161 28.678 48.1619 28.3769 47.9006 27.983C47.643 27.589 47.5142 27.1061 47.5142 26.5341C47.5142 26.0417 47.6089 25.6364 47.7983 25.3182C47.9877 25 48.2434 24.7481 48.5653 24.5625C48.8873 24.3769 49.2472 24.2367 49.6449 24.142C50.0426 24.0473 50.4479 23.9754 50.8608 23.9261C51.3835 23.8655 51.8078 23.8163 52.1335 23.7784C52.4593 23.7367 52.696 23.6705 52.8438 23.5795C52.9915 23.4886 53.0653 23.3409 53.0653 23.1364V23.0966C53.0653 22.6004 52.9252 22.2159 52.6449 21.9432C52.3684 21.6705 51.9555 21.5341 51.4062 21.5341C50.8343 21.5341 50.3835 21.661 50.054 21.9148C49.7282 22.1648 49.5028 22.4432 49.3778 22.75L47.7812 22.3864C47.9706 21.8561 48.2472 21.428 48.6108 21.1023C48.9782 20.7727 49.4006 20.5341 49.8778 20.3864C50.3551 20.2348 50.857 20.1591 51.3835 20.1591C51.732 20.1591 52.1013 20.2008 52.4915 20.2841C52.8854 20.3636 53.2528 20.5114 53.5938 20.7273C53.9384 20.9432 54.2206 21.2519 54.4403 21.6534C54.66 22.0511 54.7699 22.5682 54.7699 23.2045V29H53.1108V27.8068H53.0426C52.9328 28.0265 52.768 28.2424 52.5483 28.4545C52.3286 28.6667 52.0464 28.8428 51.7017 28.983C51.357 29.1231 50.9441 29.1932 50.4631 29.1932ZM50.8324 27.8295C51.3021 27.8295 51.7036 27.7367 52.0369 27.5511C52.3741 27.3655 52.6297 27.1231 52.804 26.8239C52.982 26.5208 53.071 26.197 53.071 25.8523V24.7273C53.0104 24.7879 52.893 24.8447 52.7188 24.8977C52.5483 24.947 52.3532 24.9905 52.1335 25.0284C51.9138 25.0625 51.6998 25.0947 51.4915 25.125C51.2831 25.1515 51.1089 25.1742 50.9688 25.1932C50.6392 25.2348 50.3381 25.3049 50.0653 25.4034C49.7964 25.5019 49.5805 25.6439 49.4176 25.8295C49.2585 26.0114 49.179 26.2538 49.179 26.5568C49.179 26.9773 49.3343 27.2955 49.6449 27.5114C49.9555 27.7235 50.3513 27.8295 50.8324 27.8295ZM61.1065 20.2727V21.6364H56.3395V20.2727H61.1065ZM57.6179 18.1818H59.3168V26.4375C59.3168 26.767 59.366 27.0152 59.4645 27.1818C59.563 27.3447 59.6899 27.4564 59.8452 27.517C60.0043 27.5739 60.1766 27.6023 60.3622 27.6023C60.4986 27.6023 60.6179 27.5928 60.7202 27.5739C60.8224 27.5549 60.902 27.5398 60.9588 27.5284L61.2656 28.9318C61.1671 28.9697 61.027 29.0076 60.8452 29.0455C60.6634 29.0871 60.4361 29.1098 60.1634 29.1136C59.7164 29.1212 59.2997 29.0417 58.9134 28.875C58.527 28.7083 58.2145 28.4508 57.9759 28.1023C57.7372 27.7538 57.6179 27.3163 57.6179 26.7898V18.1818ZM62.9858 29V20.2727H64.6847V29H62.9858ZM63.8438 18.9261C63.5483 18.9261 63.2945 18.8277 63.0824 18.6307C62.8741 18.4299 62.7699 18.1913 62.7699 17.9148C62.7699 17.6345 62.8741 17.3958 63.0824 17.1989C63.2945 16.9981 63.5483 16.8977 63.8438 16.8977C64.1392 16.8977 64.3911 16.9981 64.5994 17.1989C64.8116 17.3958 64.9176 17.6345 64.9176 17.9148C64.9176 18.1913 64.8116 18.4299 64.5994 18.6307C64.3911 18.8277 64.1392 18.9261 63.8438 18.9261ZM70.6463 29.1761C69.8281 29.1761 69.1141 28.9886 68.5043 28.6136C67.8944 28.2386 67.4209 27.714 67.0838 27.0398C66.7467 26.3655 66.5781 25.5777 66.5781 24.6761C66.5781 23.7708 66.7467 22.9792 67.0838 22.3011C67.4209 21.6231 67.8944 21.0966 68.5043 20.7216C69.1141 20.3466 69.8281 20.1591 70.6463 20.1591C71.4645 20.1591 72.1785 20.3466 72.7884 20.7216C73.3982 21.0966 73.8717 21.6231 74.2088 22.3011C74.5459 22.9792 74.7145 23.7708 74.7145 24.6761C74.7145 25.5777 74.5459 26.3655 74.2088 27.0398C73.8717 27.714 73.3982 28.2386 72.7884 28.6136C72.1785 28.9886 71.4645 29.1761 70.6463 29.1761ZM70.652 27.75C71.1823 27.75 71.6217 27.6098 71.9702 27.3295C72.3187 27.0492 72.5762 26.6761 72.7429 26.2102C72.9134 25.7443 72.9986 25.2311 72.9986 24.6705C72.9986 24.1136 72.9134 23.6023 72.7429 23.1364C72.5762 22.6667 72.3187 22.2898 71.9702 22.0057C71.6217 21.7216 71.1823 21.5795 70.652 21.5795C70.1179 21.5795 69.6747 21.7216 69.3224 22.0057C68.974 22.2898 68.7145 22.6667 68.544 23.1364C68.3774 23.6023 68.294 24.1136 68.294 24.6705C68.294 25.2311 68.3774 25.7443 68.544 26.2102C68.7145 26.6761 68.974 27.0492 69.3224 27.3295C69.6747 27.6098 70.1179 27.75 70.652 27.75ZM78.3097 23.8182V29H76.6108V20.2727H78.2415V21.6932H78.3494C78.5502 21.2311 78.8646 20.8598 79.2926 20.5795C79.7244 20.2992 80.268 20.1591 80.9233 20.1591C81.518 20.1591 82.0388 20.2841 82.4858 20.5341C82.9328 20.7803 83.2794 21.1477 83.5256 21.6364C83.7718 22.125 83.8949 22.7292 83.8949 23.4489V29H82.196V23.6534C82.196 23.0208 82.0313 22.5265 81.7017 22.1705C81.3722 21.8106 80.9195 21.6307 80.3438 21.6307C79.9498 21.6307 79.5994 21.7159 79.2926 21.8864C78.9896 22.0568 78.7491 22.3068 78.571 22.6364C78.3968 22.9621 78.3097 23.3561 78.3097 23.8182ZM100.209 21.1477H98.4361C98.3679 20.7689 98.241 20.4356 98.0554 20.1477C97.8698 19.8598 97.6425 19.6155 97.3736 19.4148C97.1046 19.214 96.8035 19.0625 96.4702 18.9602C96.1406 18.858 95.7902 18.8068 95.419 18.8068C94.7486 18.8068 94.1482 18.9754 93.6179 19.3125C93.0914 19.6496 92.6747 20.1439 92.3679 20.7955C92.0649 21.447 91.9134 22.2424 91.9134 23.1818C91.9134 24.1288 92.0649 24.928 92.3679 25.5795C92.6747 26.2311 93.0933 26.7235 93.6236 27.0568C94.1539 27.3902 94.7505 27.5568 95.4134 27.5568C95.7808 27.5568 96.1293 27.5076 96.4588 27.4091C96.7921 27.3068 97.0933 27.1572 97.3622 26.9602C97.6312 26.7633 97.8584 26.5227 98.044 26.2386C98.2334 25.9508 98.3641 25.6212 98.4361 25.25L100.209 25.2557C100.114 25.8277 99.9304 26.3542 99.6577 26.8352C99.3887 27.3125 99.0421 27.7254 98.6179 28.0739C98.1974 28.4186 97.7164 28.6856 97.1747 28.875C96.633 29.0644 96.0421 29.1591 95.402 29.1591C94.3944 29.1591 93.4967 28.9205 92.7088 28.4432C91.9209 27.9621 91.2997 27.2746 90.8452 26.3807C90.3944 25.4867 90.169 24.4205 90.169 23.1818C90.169 21.9394 90.3963 20.8731 90.8509 19.983C91.3054 19.089 91.9266 18.4034 92.7145 17.9261C93.5024 17.4451 94.3982 17.2045 95.402 17.2045C96.0194 17.2045 96.5952 17.2936 97.1293 17.4716C97.6671 17.6458 98.1501 17.9034 98.5781 18.2443C99.0062 18.5814 99.3603 18.9943 99.6406 19.483C99.9209 19.9678 100.11 20.5227 100.209 21.1477ZM105.849 29.1761C105.031 29.1761 104.317 28.9886 103.707 28.6136C103.098 28.2386 102.624 27.714 102.287 27.0398C101.95 26.3655 101.781 25.5777 101.781 24.6761C101.781 23.7708 101.95 22.9792 102.287 22.3011C102.624 21.6231 103.098 21.0966 103.707 20.7216C104.317 20.3466 105.031 20.1591 105.849 20.1591C106.668 20.1591 107.382 20.3466 107.991 20.7216C108.601 21.0966 109.075 21.6231 109.412 22.3011C109.749 22.9792 109.918 23.7708 109.918 24.6761C109.918 25.5777 109.749 26.3655 109.412 27.0398C109.075 27.714 108.601 28.2386 107.991 28.6136C107.382 28.9886 106.668 29.1761 105.849 29.1761ZM105.855 27.75C106.385 27.75 106.825 27.6098 107.173 27.3295C107.522 27.0492 107.779 26.6761 107.946 26.2102C108.116 25.7443 108.202 25.2311 108.202 24.6705C108.202 24.1136 108.116 23.6023 107.946 23.1364C107.779 22.6667 107.522 22.2898 107.173 22.0057C106.825 21.7216 106.385 21.5795 105.855 21.5795C105.321 21.5795 104.878 21.7216 104.526 22.0057C104.177 22.2898 103.918 22.6667 103.747 23.1364C103.58 23.6023 103.497 24.1136 103.497 24.6705C103.497 25.2311 103.58 25.7443 103.747 26.2102C103.918 26.6761 104.177 27.0492 104.526 27.3295C104.878 27.6098 105.321 27.75 105.855 27.75ZM111.814 29V20.2727H113.445V21.6932H113.553C113.734 21.2121 114.032 20.8371 114.445 20.5682C114.857 20.2955 115.352 20.1591 115.928 20.1591C116.511 20.1591 117 20.2955 117.393 20.5682C117.791 20.8409 118.085 21.2159 118.274 21.6932H118.365C118.573 21.2273 118.905 20.8561 119.359 20.5795C119.814 20.2992 120.356 20.1591 120.984 20.1591C121.776 20.1591 122.422 20.4072 122.922 20.9034C123.426 21.3996 123.678 22.1477 123.678 23.1477V29H121.979V23.3068C121.979 22.7159 121.818 22.2879 121.496 22.0227C121.174 21.7576 120.789 21.625 120.342 21.625C119.789 21.625 119.359 21.7955 119.053 22.1364C118.746 22.4735 118.592 22.9072 118.592 23.4375V29H116.899V23.1989C116.899 22.7254 116.751 22.3447 116.456 22.0568C116.161 21.7689 115.776 21.625 115.303 21.625C114.981 21.625 114.683 21.7102 114.411 21.8807C114.142 22.0473 113.924 22.2803 113.757 22.5795C113.594 22.8788 113.513 23.2254 113.513 23.6193V29H111.814ZM125.955 32.2727V20.2727H127.614V21.6875H127.756C127.854 21.5057 127.996 21.2955 128.182 21.0568C128.367 20.8182 128.625 20.6098 128.955 20.4318C129.284 20.25 129.72 20.1591 130.261 20.1591C130.966 20.1591 131.595 20.3371 132.148 20.6932C132.701 21.0492 133.134 21.5625 133.449 22.233C133.767 22.9034 133.926 23.7102 133.926 24.6534C133.926 25.5966 133.769 26.4053 133.455 27.0795C133.14 27.75 132.708 28.267 132.159 28.6307C131.61 28.9905 130.983 29.1705 130.278 29.1705C129.748 29.1705 129.314 29.0814 128.977 28.9034C128.644 28.7254 128.383 28.517 128.193 28.2784C128.004 28.0398 127.858 27.8277 127.756 27.642H127.653V32.2727H125.955ZM127.619 24.6364C127.619 25.25 127.708 25.7879 127.886 26.25C128.064 26.7121 128.322 27.0739 128.659 27.3352C128.996 27.5928 129.409 27.7216 129.898 27.7216C130.405 27.7216 130.83 27.5871 131.17 27.3182C131.511 27.0455 131.769 26.6761 131.943 26.2102C132.121 25.7443 132.21 25.2197 132.21 24.6364C132.21 24.0606 132.123 23.5436 131.949 23.0852C131.778 22.6269 131.521 22.2652 131.176 22C130.835 21.7348 130.409 21.6023 129.898 21.6023C129.405 21.6023 128.989 21.7292 128.648 21.983C128.311 22.2367 128.055 22.5909 127.881 23.0455C127.706 23.5 127.619 24.0303 127.619 24.6364ZM137.528 17.3636V29H135.83V17.3636H137.528ZM143.575 29.1761C142.715 29.1761 141.975 28.9924 141.354 28.625C140.736 28.2538 140.259 27.733 139.922 27.0625C139.589 26.3883 139.422 25.5985 139.422 24.6932C139.422 23.7992 139.589 23.0114 139.922 22.3295C140.259 21.6477 140.729 21.1155 141.331 20.733C141.937 20.3504 142.645 20.1591 143.456 20.1591C143.948 20.1591 144.426 20.2405 144.888 20.4034C145.35 20.5663 145.765 20.822 146.132 21.1705C146.5 21.5189 146.789 21.9716 147.001 22.5284C147.214 23.0814 147.32 23.7538 147.32 24.5455V25.1477H140.382V23.875H145.655C145.655 23.428 145.564 23.0322 145.382 22.6875C145.2 22.339 144.945 22.0644 144.615 21.8636C144.289 21.6629 143.907 21.5625 143.467 21.5625C142.99 21.5625 142.573 21.6799 142.217 21.9148C141.865 22.1458 141.592 22.4489 141.399 22.8239C141.21 23.1951 141.115 23.5985 141.115 24.0341V25.0284C141.115 25.6117 141.217 26.108 141.422 26.517C141.63 26.9261 141.92 27.2386 142.291 27.4545C142.662 27.6667 143.096 27.7727 143.592 27.7727C143.914 27.7727 144.208 27.7273 144.473 27.6364C144.738 27.5417 144.967 27.4015 145.161 27.2159C145.354 27.0303 145.501 26.8011 145.604 26.5284L147.212 26.8182C147.083 27.2917 146.852 27.7064 146.518 28.0625C146.189 28.4148 145.774 28.6894 145.274 28.8864C144.778 29.0795 144.212 29.1761 143.575 29.1761ZM153.278 20.2727V21.6364H148.511V20.2727H153.278ZM149.79 18.1818H151.489V26.4375C151.489 26.767 151.538 27.0152 151.636 27.1818C151.735 27.3447 151.862 27.4564 152.017 27.517C152.176 27.5739 152.348 27.6023 152.534 27.6023C152.67 27.6023 152.79 27.5928 152.892 27.5739C152.994 27.5549 153.074 27.5398 153.131 27.5284L153.438 28.9318C153.339 28.9697 153.199 29.0076 153.017 29.0455C152.835 29.0871 152.608 29.1098 152.335 29.1136C151.888 29.1212 151.472 29.0417 151.085 28.875C150.699 28.7083 150.386 28.4508 150.148 28.1023C149.909 27.7538 149.79 27.3163 149.79 26.7898V18.1818ZM158.825 29.1761C157.965 29.1761 157.225 28.9924 156.604 28.625C155.986 28.2538 155.509 27.733 155.172 27.0625C154.839 26.3883 154.672 25.5985 154.672 24.6932C154.672 23.7992 154.839 23.0114 155.172 22.3295C155.509 21.6477 155.979 21.1155 156.581 20.733C157.187 20.3504 157.895 20.1591 158.706 20.1591C159.198 20.1591 159.676 20.2405 160.138 20.4034C160.6 20.5663 161.015 20.822 161.382 21.1705C161.75 21.5189 162.039 21.9716 162.251 22.5284C162.464 23.0814 162.57 23.7538 162.57 24.5455V25.1477H155.632V23.875H160.905C160.905 23.428 160.814 23.0322 160.632 22.6875C160.45 22.339 160.195 22.0644 159.865 21.8636C159.539 21.6629 159.157 21.5625 158.717 21.5625C158.24 21.5625 157.823 21.6799 157.467 21.9148C157.115 22.1458 156.842 22.4489 156.649 22.8239C156.46 23.1951 156.365 23.5985 156.365 24.0341V25.0284C156.365 25.6117 156.467 26.108 156.672 26.517C156.88 26.9261 157.17 27.2386 157.541 27.4545C157.912 27.6667 158.346 27.7727 158.842 27.7727C159.164 27.7727 159.458 27.7273 159.723 27.6364C159.988 27.5417 160.217 27.4015 160.411 27.2159C160.604 27.0303 160.751 26.8011 160.854 26.5284L162.462 26.8182C162.333 27.2917 162.102 27.7064 161.768 28.0625C161.439 28.4148 161.024 28.6894 160.524 28.8864C160.028 29.0795 159.462 29.1761 158.825 29.1761Z" fill="#131415"/>
<g clip-path="url(#clip0_2011_12346)">
<path d="M188.5 14.3399C190.008 15.2107 191.263 16.4604 192.14 17.9652C193.017 19.47 193.485 21.1777 193.499 22.9192C193.513 24.6608 193.072 26.3758 192.22 27.8946C191.368 29.4133 190.133 30.6831 188.639 31.5782C187.145 32.4733 185.443 32.9627 183.702 32.998C181.961 33.0332 180.241 32.6131 178.712 31.7791C177.183 30.9452 175.898 29.7264 174.985 28.2434C174.071 26.7604 173.561 25.0646 173.505 23.3239L173.5 22.9999L173.505 22.6759C173.561 20.9489 174.064 19.2659 174.964 17.7909C175.864 16.3159 177.131 15.0993 178.641 14.2598C180.151 13.4202 181.853 12.9863 183.581 13.0003C185.309 13.0144 187.004 13.4759 188.5 14.3399ZM187.207 20.2929C187.035 20.1207 186.806 20.0173 186.563 20.002C186.32 19.9867 186.079 20.0606 185.887 20.2099L185.793 20.2929L182.5 23.5849L181.207 22.2929L181.113 22.2099C180.921 22.0607 180.68 21.9869 180.437 22.0022C180.194 22.0176 179.965 22.121 179.793 22.2932C179.621 22.4653 179.518 22.6943 179.502 22.9373C179.487 23.1803 179.561 23.4205 179.71 23.6129L179.793 23.7069L181.793 25.7069L181.887 25.7899C182.062 25.926 182.278 25.9998 182.5 25.9998C182.722 25.9998 182.938 25.926 183.113 25.7899L183.207 25.7069L187.207 21.7069L187.29 21.6129C187.439 21.4205 187.513 21.1802 187.498 20.9372C187.483 20.6942 187.379 20.4651 187.207 20.2929Z" fill="#00C84A"/>
</g>
<defs>
<clipPath id="clip0_2011_12346">
<rect width="24" height="24" fill="white" transform="translate(171.5 11)"/>
</clipPath>
</defs>
</svg>
