<svg width="276" height="68" viewBox="0 0 276 68" fill="none" xmlns="http://www.w3.org/2000/svg">
<path d="M0 34C0 15.2223 15.2223 0 34 0H276V68H34C15.2223 68 0 52.7777 0 34Z" fill="url(#paint0_linear_2011_14767)" fill-opacity="0.7"/>
<rect x="16" y="16" width="36" height="36" rx="18" fill="#33C468"/>
<g clip-path="url(#clip0_2011_14767)">
<path d="M40.6693 32.334H27.3359L31.9193 27.334" stroke="white" stroke-width="2" stroke-linecap="round" stroke-linejoin="round"/>
<path d="M27.3359 35.666H40.6693L36.0859 40.666" stroke="white" stroke-width="2" stroke-linecap="round" stroke-linejoin="round"/>
</g>
<path d="M71.7575 41H67.3215V27.9091H71.847C73.1468 27.9091 74.2632 28.1712 75.1965 28.6953C76.134 29.2152 76.8541 29.9631 77.357 30.9389C77.8598 31.9148 78.1112 33.0824 78.1112 34.4418C78.1112 35.8054 77.8577 36.9773 77.3506 37.9574C76.8477 38.9375 76.1212 39.6896 75.1709 40.2138C74.2249 40.7379 73.0871 41 71.7575 41ZM69.6929 38.9482H71.6425C72.5544 38.9482 73.3151 38.782 73.9244 38.4496C74.5338 38.1129 74.9919 37.6122 75.2987 36.9474C75.6056 36.2784 75.759 35.4432 75.759 34.4418C75.759 33.4403 75.6056 32.6094 75.2987 31.9489C74.9919 31.2841 74.5381 30.7876 73.9372 30.4595C73.3406 30.1271 72.5992 29.9609 71.7128 29.9609H69.6929V38.9482ZM84.5448 41.1918C83.586 41.1918 82.7551 40.9808 82.0519 40.5589C81.3488 40.1371 80.8034 39.5469 80.4156 38.7884C80.032 38.0298 79.8403 37.1435 79.8403 36.1293C79.8403 35.1151 80.032 34.2266 80.4156 33.4638C80.8034 32.701 81.3488 32.1087 82.0519 31.6868C82.7551 31.2649 83.586 31.054 84.5448 31.054C85.5036 31.054 86.3346 31.2649 87.0377 31.6868C87.7409 32.1087 88.2842 32.701 88.6677 33.4638C89.0555 34.2266 89.2494 35.1151 89.2494 36.1293C89.2494 37.1435 89.0555 38.0298 88.6677 38.7884C88.2842 39.5469 87.7409 40.1371 87.0377 40.5589C86.3346 40.9808 85.5036 41.1918 84.5448 41.1918ZM84.5576 39.3381C85.0775 39.3381 85.5122 39.1953 85.8616 38.9098C86.211 38.62 86.471 38.2322 86.6414 37.7464C86.8161 37.2607 86.9035 36.7195 86.9035 36.1229C86.9035 35.522 86.8161 34.9787 86.6414 34.4929C86.471 34.0028 86.211 33.6129 85.8616 33.3232C85.5122 33.0334 85.0775 32.8885 84.5576 32.8885C84.0249 32.8885 83.5818 33.0334 83.2281 33.3232C82.8786 33.6129 82.6166 34.0028 82.4419 34.4929C82.2714 34.9787 82.1862 35.522 82.1862 36.1229C82.1862 36.7195 82.2714 37.2607 82.4419 37.7464C82.6166 38.2322 82.8786 38.62 83.2281 38.9098C83.5818 39.1953 84.0249 39.3381 84.5576 39.3381ZM91.2133 41V31.1818H93.425V32.8501H93.54C93.7446 32.2876 94.0834 31.8487 94.5564 31.5334C95.0294 31.2138 95.594 31.054 96.2503 31.054C96.915 31.054 97.4754 31.2159 97.9314 31.5398C98.3916 31.8594 98.7155 32.2962 98.903 32.8501H99.0052C99.2226 32.3047 99.589 31.87 100.105 31.5462C100.625 31.218 101.24 31.054 101.952 31.054C102.855 31.054 103.593 31.3395 104.164 31.9105C104.735 32.4815 105.02 33.3146 105.02 34.4098V41H102.7V34.7678C102.7 34.1584 102.538 33.7131 102.214 33.4318C101.89 33.1463 101.494 33.0036 101.025 33.0036C100.467 33.0036 100.03 33.1783 99.7148 33.5277C99.4037 33.8729 99.2481 34.3224 99.2481 34.8764V41H96.979V34.6719C96.979 34.1648 96.8256 33.7599 96.5187 33.4574C96.2162 33.1548 95.8199 33.0036 95.3298 33.0036C94.9974 33.0036 94.6949 33.0888 94.4221 33.2592C94.1494 33.4254 93.9321 33.6619 93.7702 33.9688C93.6082 34.2713 93.5273 34.625 93.5273 35.0298V41H91.2133ZM110.193 41.1982C109.571 41.1982 109.01 41.0874 108.512 40.8658C108.017 40.6399 107.625 40.3075 107.336 39.8686C107.05 39.4297 106.907 38.8885 106.907 38.245C106.907 37.6911 107.01 37.233 107.214 36.8707C107.419 36.5085 107.698 36.2188 108.052 36.0014C108.405 35.7841 108.804 35.62 109.247 35.5092C109.694 35.3942 110.157 35.3111 110.634 35.2599C111.209 35.2003 111.676 35.147 112.034 35.1001C112.392 35.049 112.652 34.9723 112.814 34.87C112.98 34.7635 113.063 34.5994 113.063 34.3778V34.3395C113.063 33.858 112.92 33.4851 112.635 33.2209C112.349 32.9567 111.938 32.8246 111.401 32.8246C110.834 32.8246 110.385 32.9482 110.052 33.1953C109.724 33.4425 109.503 33.7344 109.388 34.071L107.227 33.7642C107.397 33.1676 107.679 32.669 108.071 32.2685C108.463 31.8636 108.942 31.5611 109.509 31.3608C110.076 31.1562 110.702 31.054 111.388 31.054C111.861 31.054 112.332 31.1094 112.801 31.2202C113.27 31.331 113.698 31.5142 114.086 31.7699C114.473 32.0213 114.785 32.3643 115.019 32.799C115.258 33.2337 115.377 33.777 115.377 34.429V41H113.152V39.6513H113.076C112.935 39.924 112.737 40.1797 112.481 40.4183C112.23 40.6527 111.912 40.8423 111.529 40.9872C111.15 41.1278 110.704 41.1982 110.193 41.1982ZM110.794 39.4979C111.258 39.4979 111.661 39.4062 112.002 39.223C112.343 39.0355 112.605 38.7884 112.788 38.4815C112.976 38.1747 113.069 37.8402 113.069 37.478V36.321C112.997 36.3807 112.873 36.4361 112.699 36.4872C112.528 36.5384 112.336 36.5831 112.123 36.6214C111.91 36.6598 111.699 36.6939 111.491 36.7237C111.282 36.7536 111.101 36.7791 110.947 36.8004C110.602 36.8473 110.293 36.924 110.02 37.0305C109.748 37.1371 109.532 37.2862 109.375 37.478C109.217 37.6655 109.138 37.9084 109.138 38.2067C109.138 38.6328 109.294 38.9545 109.605 39.1719C109.916 39.3892 110.312 39.4979 110.794 39.4979ZM117.704 41V31.1818H120.017V41H117.704ZM118.867 29.7884C118.5 29.7884 118.185 29.6669 117.921 29.424C117.657 29.1768 117.525 28.8807 117.525 28.5355C117.525 28.1861 117.657 27.8899 117.921 27.647C118.185 27.3999 118.5 27.2763 118.867 27.2763C119.238 27.2763 119.553 27.3999 119.813 27.647C120.077 27.8899 120.209 28.1861 120.209 28.5355C120.209 28.8807 120.077 29.1768 119.813 29.424C119.553 29.6669 119.238 29.7884 118.867 29.7884ZM124.711 35.2472V41H122.397V31.1818H124.609V32.8501H124.724C124.949 32.3004 125.31 31.8636 125.804 31.5398C126.302 31.2159 126.918 31.054 127.651 31.054C128.329 31.054 128.919 31.1989 129.422 31.4886C129.929 31.7784 130.321 32.1982 130.598 32.7479C130.879 33.2976 131.018 33.9645 131.013 34.7486V41H128.699V35.1065C128.699 34.4503 128.529 33.9368 128.188 33.5661C127.851 33.1953 127.385 33.0099 126.788 33.0099C126.383 33.0099 126.023 33.0994 125.708 33.2784C125.397 33.4531 125.152 33.7067 124.973 34.0391C124.798 34.3714 124.711 34.7741 124.711 35.2472ZM137.358 29.897V27.9091H147.802V29.897H143.756V41H141.404V29.897H137.358ZM148.694 41V31.1818H150.937V32.8182H151.04C151.219 32.2514 151.525 31.8146 151.96 31.5078C152.399 31.1967 152.9 31.0412 153.462 31.0412C153.59 31.0412 153.733 31.0476 153.891 31.0604C154.052 31.0689 154.187 31.0838 154.293 31.1051V33.2337C154.195 33.1996 154.04 33.1697 153.827 33.1442C153.618 33.1143 153.415 33.0994 153.219 33.0994C152.797 33.0994 152.418 33.1911 152.082 33.3743C151.749 33.5533 151.487 33.8026 151.295 34.1222C151.104 34.4418 151.008 34.8104 151.008 35.228V41H148.694ZM158.48 41.1982C157.858 41.1982 157.297 41.0874 156.799 40.8658C156.305 40.6399 155.913 40.3075 155.623 39.8686C155.337 39.4297 155.195 38.8885 155.195 38.245C155.195 37.6911 155.297 37.233 155.501 36.8707C155.706 36.5085 155.985 36.2188 156.339 36.0014C156.692 35.7841 157.091 35.62 157.534 35.5092C157.981 35.3942 158.444 35.3111 158.921 35.2599C159.496 35.2003 159.963 35.147 160.321 35.1001C160.679 35.049 160.939 34.9723 161.101 34.87C161.267 34.7635 161.35 34.5994 161.35 34.3778V34.3395C161.35 33.858 161.207 33.4851 160.922 33.2209C160.636 32.9567 160.225 32.8246 159.688 32.8246C159.121 32.8246 158.672 32.9482 158.339 33.1953C158.011 33.4425 157.79 33.7344 157.675 34.071L155.514 33.7642C155.685 33.1676 155.966 32.669 156.358 32.2685C156.75 31.8636 157.229 31.5611 157.796 31.3608C158.363 31.1562 158.989 31.054 159.675 31.054C160.148 31.054 160.619 31.1094 161.088 31.2202C161.557 31.331 161.985 31.5142 162.373 31.7699C162.761 32.0213 163.072 32.3643 163.306 32.799C163.545 33.2337 163.664 33.777 163.664 34.429V41H161.44V39.6513H161.363C161.222 39.924 161.024 40.1797 160.768 40.4183C160.517 40.6527 160.199 40.8423 159.816 40.9872C159.437 41.1278 158.991 41.1982 158.48 41.1982ZM159.081 39.4979C159.545 39.4979 159.948 39.4062 160.289 39.223C160.63 39.0355 160.892 38.7884 161.075 38.4815C161.263 38.1747 161.356 37.8402 161.356 37.478V36.321C161.284 36.3807 161.16 36.4361 160.986 36.4872C160.815 36.5384 160.623 36.5831 160.41 36.6214C160.197 36.6598 159.986 36.6939 159.778 36.7237C159.569 36.7536 159.388 36.7791 159.234 36.8004C158.889 36.8473 158.58 36.924 158.307 37.0305C158.035 37.1371 157.82 37.2862 157.662 37.478C157.504 37.6655 157.425 37.9084 157.425 38.2067C157.425 38.6328 157.581 38.9545 157.892 39.1719C158.203 39.3892 158.599 39.4979 159.081 39.4979ZM168.305 35.2472V41H165.991V31.1818H168.202V32.8501H168.317C168.543 32.3004 168.903 31.8636 169.398 31.5398C169.896 31.2159 170.512 31.054 171.245 31.054C171.922 31.054 172.513 31.1989 173.016 31.4886C173.523 31.7784 173.915 32.1982 174.192 32.7479C174.473 33.2976 174.611 33.9645 174.607 34.7486V41H172.293V35.1065C172.293 34.4503 172.123 33.9368 171.782 33.5661C171.445 33.1953 170.979 33.0099 170.382 33.0099C169.977 33.0099 169.617 33.0994 169.302 33.2784C168.991 33.4531 168.746 33.7067 168.567 34.0391C168.392 34.3714 168.305 34.7741 168.305 35.2472ZM184.719 33.777L182.61 34.0071C182.55 33.794 182.446 33.5938 182.297 33.4062C182.152 33.2188 181.956 33.0675 181.709 32.9524C181.462 32.8374 181.159 32.7798 180.801 32.7798C180.32 32.7798 179.915 32.8842 179.587 33.093C179.263 33.3018 179.103 33.5724 179.107 33.9048C179.103 34.1903 179.207 34.4226 179.42 34.6016C179.638 34.7805 179.996 34.9276 180.494 35.0426L182.169 35.4006C183.098 35.6009 183.788 35.9183 184.24 36.353C184.696 36.7876 184.926 37.3565 184.93 38.0597C184.926 38.6776 184.745 39.223 184.387 39.696C184.033 40.1648 183.541 40.5312 182.91 40.7955C182.28 41.0597 181.555 41.1918 180.737 41.1918C179.535 41.1918 178.568 40.9403 177.835 40.4375C177.102 39.9304 176.665 39.2251 176.525 38.3217L178.781 38.1044C178.883 38.5476 179.101 38.8821 179.433 39.108C179.766 39.3338 180.198 39.4467 180.731 39.4467C181.28 39.4467 181.722 39.3338 182.054 39.108C182.391 38.8821 182.559 38.603 182.559 38.2706C182.559 37.9893 182.45 37.7571 182.233 37.5739C182.02 37.3906 181.687 37.25 181.236 37.152L179.561 36.8004C178.619 36.6044 177.922 36.2741 177.471 35.8097C177.019 35.3409 176.795 34.7486 176.8 34.0327C176.795 33.4276 176.959 32.9034 177.292 32.4602C177.628 32.0128 178.095 31.6676 178.692 31.4247C179.293 31.1776 179.985 31.054 180.769 31.054C181.92 31.054 182.825 31.299 183.486 31.7891C184.15 32.2791 184.562 32.9418 184.719 33.777ZM191.811 31.1818V32.9716H186.007V31.1818H191.811ZM187.458 41V30.255C187.458 29.5945 187.595 29.0447 187.867 28.6058C188.144 28.1669 188.515 27.8388 188.98 27.6214C189.444 27.4041 189.96 27.2955 190.527 27.2955C190.927 27.2955 191.283 27.3274 191.594 27.3913C191.905 27.4553 192.135 27.5128 192.284 27.5639L191.824 29.3537C191.726 29.3239 191.603 29.294 191.453 29.2642C191.304 29.2301 191.138 29.2131 190.955 29.2131C190.524 29.2131 190.22 29.3175 190.041 29.5263C189.866 29.7308 189.779 30.0249 189.779 30.4084V41H187.458ZM197.601 41.1918C196.617 41.1918 195.766 40.9872 195.051 40.5781C194.339 40.1648 193.791 39.581 193.408 38.8267C193.024 38.0682 192.832 37.1754 192.832 36.1484C192.832 35.1385 193.024 34.2521 193.408 33.4893C193.796 32.7223 194.337 32.1257 195.031 31.6996C195.726 31.2692 196.542 31.054 197.479 31.054C198.085 31.054 198.656 31.152 199.193 31.348C199.734 31.5398 200.211 31.8381 200.624 32.2429C201.042 32.6477 201.37 33.1634 201.609 33.7898C201.847 34.4119 201.967 35.1534 201.967 36.0142V36.7237H193.919V35.1641H199.749C199.744 34.7209 199.649 34.3267 199.461 33.9815C199.274 33.6321 199.011 33.3572 198.675 33.157C198.342 32.9567 197.955 32.8565 197.511 32.8565C197.038 32.8565 196.623 32.9716 196.265 33.2017C195.907 33.4276 195.628 33.7259 195.428 34.0966C195.232 34.4631 195.131 34.8658 195.127 35.3047V36.6662C195.127 37.2372 195.232 37.7273 195.44 38.1364C195.649 38.5412 195.941 38.8523 196.316 39.0696C196.691 39.2827 197.13 39.3892 197.633 39.3892C197.97 39.3892 198.274 39.3423 198.547 39.2486C198.82 39.1506 199.056 39.0078 199.256 38.8203C199.457 38.6328 199.608 38.4006 199.71 38.1236L201.871 38.3665C201.734 38.9375 201.475 39.4361 201.091 39.8622C200.712 40.2841 200.226 40.6122 199.634 40.8466C199.041 41.0767 198.364 41.1918 197.601 41.1918ZM203.924 41V31.1818H206.168V32.8182H206.27C206.449 32.2514 206.756 31.8146 207.191 31.5078C207.63 31.1967 208.13 31.0412 208.693 31.0412C208.821 31.0412 208.963 31.0476 209.121 31.0604C209.283 31.0689 209.417 31.0838 209.524 31.1051V33.2337C209.426 33.1996 209.27 33.1697 209.057 33.1442C208.848 33.1143 208.646 33.0994 208.45 33.0994C208.028 33.0994 207.649 33.1911 207.312 33.3743C206.98 33.5533 206.718 33.8026 206.526 34.1222C206.334 34.4418 206.238 34.8104 206.238 35.228V41H203.924ZM220.064 41H215.628V27.9091H220.154C221.453 27.9091 222.57 28.1712 223.503 28.6953C224.441 29.2152 225.161 29.9631 225.664 30.9389C226.166 31.9148 226.418 33.0824 226.418 34.4418C226.418 35.8054 226.164 36.9773 225.657 37.9574C225.154 38.9375 224.428 39.6896 223.478 40.2138C222.532 40.7379 221.394 41 220.064 41ZM218 38.9482H219.949C220.861 38.9482 221.622 38.782 222.231 38.4496C222.84 38.1129 223.299 37.6122 223.605 36.9474C223.912 36.2784 224.066 35.4432 224.066 34.4418C224.066 33.4403 223.912 32.6094 223.605 31.9489C223.299 31.2841 222.845 30.7876 222.244 30.4595C221.647 30.1271 220.906 29.9609 220.019 29.9609H218V38.9482ZM232.851 41.1918C231.893 41.1918 231.062 40.9808 230.359 40.5589C229.655 40.1371 229.11 39.5469 228.722 38.7884C228.339 38.0298 228.147 37.1435 228.147 36.1293C228.147 35.1151 228.339 34.2266 228.722 33.4638C229.11 32.701 229.655 32.1087 230.359 31.6868C231.062 31.2649 231.893 31.054 232.851 31.054C233.81 31.054 234.641 31.2649 235.344 31.6868C236.047 32.1087 236.591 32.701 236.974 33.4638C237.362 34.2266 237.556 35.1151 237.556 36.1293C237.556 37.1435 237.362 38.0298 236.974 38.7884C236.591 39.5469 236.047 40.1371 235.344 40.5589C234.641 40.9808 233.81 41.1918 232.851 41.1918ZM232.864 39.3381C233.384 39.3381 233.819 39.1953 234.168 38.9098C234.518 38.62 234.778 38.2322 234.948 37.7464C235.123 37.2607 235.21 36.7195 235.21 36.1229C235.21 35.522 235.123 34.9787 234.948 34.4929C234.778 34.0028 234.518 33.6129 234.168 33.3232C233.819 33.0334 233.384 32.8885 232.864 32.8885C232.332 32.8885 231.888 33.0334 231.535 33.3232C231.185 33.6129 230.923 34.0028 230.748 34.4929C230.578 34.9787 230.493 35.522 230.493 36.1229C230.493 36.7195 230.578 37.2607 230.748 37.7464C230.923 38.2322 231.185 38.62 231.535 38.9098C231.888 39.1953 232.332 39.3381 232.864 39.3381ZM241.834 35.2472V41H239.52V31.1818H241.732V32.8501H241.847C242.073 32.3004 242.433 31.8636 242.927 31.5398C243.426 31.2159 244.041 31.054 244.774 31.054C245.452 31.054 246.042 31.1989 246.545 31.4886C247.052 31.7784 247.444 32.1982 247.721 32.7479C248.002 33.2976 248.141 33.9645 248.136 34.7486V41H245.823V35.1065C245.823 34.4503 245.652 33.9368 245.311 33.5661C244.975 33.1953 244.508 33.0099 243.911 33.0099C243.506 33.0099 243.146 33.0994 242.831 33.2784C242.52 33.4531 242.275 33.7067 242.096 34.0391C241.921 34.3714 241.834 34.7741 241.834 35.2472ZM254.835 41.1918C253.851 41.1918 253.001 40.9872 252.285 40.5781C251.573 40.1648 251.026 39.581 250.642 38.8267C250.259 38.0682 250.067 37.1754 250.067 36.1484C250.067 35.1385 250.259 34.2521 250.642 33.4893C251.03 32.7223 251.571 32.1257 252.266 31.6996C252.96 31.2692 253.776 31.054 254.714 31.054C255.319 31.054 255.89 31.152 256.427 31.348C256.968 31.5398 257.445 31.8381 257.859 32.2429C258.276 32.6477 258.604 33.1634 258.843 33.7898C259.082 34.4119 259.201 35.1534 259.201 36.0142V36.7237H251.153V35.1641H256.983C256.979 34.7209 256.883 34.3267 256.695 33.9815C256.508 33.6321 256.246 33.3572 255.909 33.157C255.577 32.9567 255.189 32.8565 254.746 32.8565C254.273 32.8565 253.857 32.9716 253.499 33.2017C253.141 33.4276 252.862 33.7259 252.662 34.0966C252.466 34.4631 252.366 34.8658 252.362 35.3047V36.6662C252.362 37.2372 252.466 37.7273 252.675 38.1364C252.884 38.5412 253.176 38.8523 253.551 39.0696C253.926 39.2827 254.364 39.3892 254.867 39.3892C255.204 39.3892 255.509 39.3423 255.781 39.2486C256.054 39.1506 256.291 39.0078 256.491 38.8203C256.691 38.6328 256.842 38.4006 256.945 38.1236L259.105 38.3665C258.969 38.9375 258.709 39.4361 258.325 39.8622C257.946 40.2841 257.46 40.6122 256.868 40.8466C256.276 41.0767 255.598 41.1918 254.835 41.1918Z" fill="url(#paint1_linear_2011_14767)"/>
<defs>
<linearGradient id="paint0_linear_2011_14767" x1="0" y1="34" x2="276" y2="34" gradientUnits="userSpaceOnUse">
<stop stop-color="#6F56DA"/>
<stop offset="1" stop-color="#6F56DA" stop-opacity="0.435294"/>
</linearGradient>
<linearGradient id="paint1_linear_2011_14767" x1="66" y1="34" x2="260" y2="34" gradientUnits="userSpaceOnUse">
<stop stop-color="white"/>
<stop offset="1" stop-color="white"/>
</linearGradient>
<clipPath id="clip0_2011_14767">
<rect width="20" height="20" fill="white" transform="translate(24 24)"/>
</clipPath>
</defs>
</svg>
