<svg width="263" height="68" viewBox="0 0 263 68" fill="none" xmlns="http://www.w3.org/2000/svg">
<rect width="263" height="68" rx="34" fill="url(#paint0_linear_106_1543)"/>
<path d="M35.3513 35.1705V41H33.4401V27.9091H35.3257V32.7798H35.4472C35.6773 32.2514 36.0289 31.8317 36.5019 31.5206C36.9749 31.2095 37.5928 31.054 38.3556 31.054C39.0289 31.054 39.6169 31.1925 40.1198 31.4695C40.6269 31.7464 41.0189 32.1598 41.2959 32.7095C41.5771 33.255 41.7178 33.9368 41.7178 34.755V41H39.8066V34.9851C39.8066 34.2649 39.6212 33.7067 39.2504 33.3104C38.8797 32.9098 38.3641 32.7095 37.7036 32.7095C37.2519 32.7095 36.847 32.8054 36.4891 32.9972C36.1354 33.1889 35.8563 33.4702 35.6517 33.8409C35.4514 34.2074 35.3513 34.6506 35.3513 35.1705ZM48.8513 31.1818V32.7159H43.4884V31.1818H48.8513ZM44.9266 28.8295H46.8378V38.1172C46.8378 38.4879 46.8932 38.767 47.004 38.9545C47.1148 39.1378 47.2575 39.2635 47.4323 39.3317C47.6112 39.3956 47.8051 39.4276 48.0139 39.4276C48.1673 39.4276 48.3016 39.4169 48.4166 39.3956C48.5317 39.3743 48.6212 39.3572 48.6851 39.3445L49.0303 40.9233C48.9195 40.9659 48.7618 41.0085 48.5573 41.0511C48.3527 41.098 48.097 41.1236 47.7902 41.1278C47.2874 41.1364 46.8186 41.0469 46.384 40.8594C45.9493 40.6719 45.5977 40.3821 45.3293 39.9901C45.0608 39.598 44.9266 39.1058 44.9266 38.5135V28.8295ZM55.5486 31.1818V32.7159H50.1856V31.1818H55.5486ZM51.6238 28.8295H53.5351V38.1172C53.5351 38.4879 53.5905 38.767 53.7013 38.9545C53.8121 39.1378 53.9548 39.2635 54.1295 39.3317C54.3085 39.3956 54.5024 39.4276 54.7112 39.4276C54.8646 39.4276 54.9988 39.4169 55.1139 39.3956C55.229 39.3743 55.3184 39.3572 55.3824 39.3445L55.7275 40.9233C55.6167 40.9659 55.4591 41.0085 55.2545 41.0511C55.05 41.098 54.7943 41.1236 54.4875 41.1278C53.9846 41.1364 53.5159 41.0469 53.0812 40.8594C52.6466 40.6719 52.295 40.3821 52.0265 39.9901C51.7581 39.598 51.6238 39.1058 51.6238 38.5135V28.8295ZM57.6627 44.6818V31.1818H59.5292V32.7734H59.689C59.7998 32.5689 59.9596 32.3324 60.1684 32.0639C60.3772 31.7955 60.667 31.5611 61.0377 31.3608C61.4085 31.1562 61.8985 31.054 62.5079 31.054C63.3005 31.054 64.0079 31.2543 64.6301 31.6548C65.2522 32.0554 65.7401 32.6328 66.0938 33.3871C66.4518 34.1413 66.6308 35.049 66.6308 36.1101C66.6308 37.1712 66.4539 38.081 66.1002 38.8395C65.7465 39.5937 65.2607 40.1754 64.6428 40.5845C64.0249 40.9893 63.3197 41.1918 62.5271 41.1918C61.9305 41.1918 61.4426 41.0916 61.0633 40.8913C60.6883 40.6911 60.3943 40.4567 60.1812 40.1882C59.9681 39.9197 59.8041 39.6811 59.689 39.4723H59.574V44.6818H57.6627ZM59.5356 36.0909C59.5356 36.7812 59.6357 37.3864 59.836 37.9062C60.0363 38.4261 60.3261 38.8331 60.7053 39.1271C61.0846 39.4169 61.5491 39.5618 62.0988 39.5618C62.6698 39.5618 63.1471 39.4105 63.5306 39.108C63.9142 38.8011 64.2039 38.3857 64.3999 37.8615C64.6002 37.3374 64.7004 36.7472 64.7004 36.0909C64.7004 35.4432 64.6024 34.8615 64.4063 34.3459C64.2146 33.8303 63.9248 33.4233 63.537 33.125C63.1535 32.8267 62.6741 32.6776 62.0988 32.6776C61.5448 32.6776 61.0761 32.8203 60.6926 33.1058C60.3133 33.3913 60.0257 33.7898 59.8296 34.3011C59.6336 34.8125 59.5356 35.4091 59.5356 36.0909ZM76.1294 33.5788L74.3971 33.8857C74.3247 33.6641 74.2096 33.4531 74.0519 33.2528C73.8985 33.0526 73.6897 32.8885 73.4255 32.7607C73.1613 32.6328 72.8311 32.5689 72.4347 32.5689C71.8936 32.5689 71.4419 32.6903 71.0796 32.9332C70.7174 33.1719 70.5363 33.4808 70.5363 33.8601C70.5363 34.1882 70.6578 34.4524 70.9007 34.6527C71.1436 34.853 71.5356 35.017 72.0768 35.1449L73.6365 35.5028C74.5399 35.7116 75.2132 36.0334 75.6563 36.468C76.0995 36.9027 76.3211 37.4673 76.3211 38.1619C76.3211 38.75 76.1507 39.2741 75.8097 39.7344C75.4731 40.1903 75.0022 40.5483 74.3971 40.8082C73.7963 41.0682 73.0995 41.1982 72.3069 41.1982C71.2075 41.1982 70.3105 40.9638 69.6159 40.495C68.9213 40.022 68.4951 39.3509 68.3374 38.4815L70.1847 38.2003C70.2998 38.6818 70.5363 39.0462 70.8943 39.2933C71.2522 39.5362 71.7188 39.6577 72.2941 39.6577C72.9205 39.6577 73.4213 39.5277 73.7963 39.2678C74.1713 39.0036 74.3588 38.6818 74.3588 38.3026C74.3588 37.9957 74.2437 37.7379 74.0136 37.5291C73.7877 37.3203 73.4404 37.1626 72.9717 37.0561L71.3097 36.6918C70.3936 36.483 69.716 36.1506 69.2771 35.6946C68.8424 35.2386 68.6251 34.6612 68.6251 33.9624C68.6251 33.3828 68.787 32.8757 69.1109 32.4411C69.4347 32.0064 69.8822 31.6676 70.4532 31.4247C71.0242 31.1776 71.6784 31.054 72.4156 31.054C73.4767 31.054 74.3119 31.2841 74.9213 31.7443C75.5306 32.2003 75.9333 32.8118 76.1294 33.5788ZM79.6817 41.1214C79.3323 41.1214 79.0319 40.9979 78.7805 40.7507C78.529 40.4993 78.4033 40.1967 78.4033 39.843C78.4033 39.4936 78.529 39.1953 78.7805 38.9482C79.0319 38.6967 79.3323 38.571 79.6817 38.571C80.0312 38.571 80.3316 38.6967 80.583 38.9482C80.8344 39.1953 80.9601 39.4936 80.9601 39.843C80.9601 40.0774 80.9005 40.2926 80.7812 40.4886C80.6661 40.6804 80.5127 40.8338 80.3209 40.9489C80.1292 41.0639 79.9161 41.1214 79.6817 41.1214ZM79.6817 33.9751C79.3323 33.9751 79.0319 33.8494 78.7805 33.598C78.529 33.3466 78.4033 33.0462 78.4033 32.6967C78.4033 32.3473 78.529 32.049 78.7805 31.8018C79.0319 31.5504 79.3323 31.4247 79.6817 31.4247C80.0312 31.4247 80.3316 31.5504 80.583 31.8018C80.8344 32.049 80.9601 32.3473 80.9601 32.6967C80.9601 32.9311 80.9005 33.1463 80.7812 33.3423C80.6661 33.5341 80.5127 33.6875 80.3209 33.8026C80.1292 33.9176 79.9161 33.9751 79.6817 33.9751ZM88.5059 27.2955L84.2872 42.9688H82.5805L86.7993 27.2955H88.5059Z" fill="#D5DAE8"/>
<rect x="103" y="28" width="128" height="12" rx="6" fill="url(#paint1_linear_106_1543)"/>
<defs>
<linearGradient id="paint0_linear_106_1543" x1="0" y1="34" x2="263" y2="34" gradientUnits="userSpaceOnUse">
<stop stop-color="white"/>
<stop offset="1" stop-color="white" stop-opacity="0"/>
</linearGradient>
<linearGradient id="paint1_linear_106_1543" x1="103" y1="34" x2="231" y2="34" gradientUnits="userSpaceOnUse">
<stop stop-color="#D5DAE8"/>
<stop offset="1" stop-color="#D5DAE8"/>
</linearGradient>
</defs>
</svg>
