<svg width="112" height="112" viewBox="0 0 112 112" fill="none" xmlns="http://www.w3.org/2000/svg">
<rect width="112" height="112" fill="url(#paint0_linear_2011_14848)" fill-opacity="0.7"/>
<path d="M69 52C59.6 52 52 59.6 52 69C52 78.4 59.6 86 69 86C78.4 86 86 78.4 86 69C86 59.6 78.4 52 69 52ZM70.6 78.8L69.4 77.2L76.1 72H56V70H81.9L70.6 78.8ZM56.1 68L67.4 59.2L68.6 60.8L61.9 66H82V68H56.1Z" fill="#E2E5E9"/>
<path d="M46.3008 33C52.7008 34.2 59.2008 34.3 65.7008 33.1C64.3008 30.1 62.5008 27.7 60.3008 26.3C58.9008 26.1 57.5008 26 56.0008 26C54.5008 26 53.1008 26.1 51.6008 26.3C49.5008 27.7 47.7008 30 46.3008 33Z" fill="#E2E5E9"/>
<path d="M64.3008 27.1992C65.6008 28.6992 66.7008 30.5992 67.7008 32.6992C69.5008 32.2992 71.2008 31.8992 73.0008 31.2992C70.4008 29.4992 67.5008 28.0992 64.3008 27.1992Z" fill="#E2E5E9"/>
<path d="M47.6992 84.8004C46.3992 83.3004 45.2992 81.5004 44.2992 79.4004C42.5992 79.8004 40.8992 80.3004 39.1992 80.9004C41.7992 82.6004 44.5992 83.9004 47.6992 84.8004Z" fill="#E2E5E9"/>
<path d="M44.2992 32.5992C45.2992 30.4992 46.3992 28.6992 47.5992 27.1992C44.5992 28.0992 41.6992 29.3992 39.1992 31.0992C40.8992 31.6992 42.5992 32.1992 44.2992 32.5992Z" fill="#E2E5E9"/>
<path d="M43.5 77.5C41.2 71.7 40.1 64.3 40 57H26C26.3 66.1 30.6 74.1 37.3 79.4C39.4 78.7 41.4 78 43.5 77.5Z" fill="#E2E5E9"/>
<path d="M40 54.9996C40.1 47.2996 41.3 39.9996 43.5 34.4996C41.4 33.9996 39.3 33.3996 37.3 32.5996C30.7 37.8996 26.3 45.8996 26 54.9996H40Z" fill="#E2E5E9"/>
<path d="M52.4008 78.1992C50.4008 78.2992 48.3008 78.5992 46.3008 78.9992C47.7008 81.9992 49.5008 84.2992 51.6008 85.6992C53.0008 85.8992 54.5008 85.9992 56.0008 85.9992C57.3008 85.9992 58.7008 85.8992 60.0008 85.6992C56.8008 83.9992 54.1008 81.3992 52.4008 78.1992Z" fill="#E2E5E9"/>
<path d="M50 69C50 64.4 51.6 60.3 54.3 57H42C42.1 64.3 43.3 71.5 45.5 77.1C47.5 76.7 49.5 76.4 51.5 76.2C50.5 74 50 71.6 50 69Z" fill="#E2E5E9"/>
<path d="M69 50.0004H69.7C69.3 44.5004 68.2 39.2004 66.5 35.0004C63 35.7004 59.6 36.0004 56.1 36.0004C52.5 36.0004 48.9 35.6004 45.4 34.9004C43.3 40.5004 42.1 47.7004 42 55.0004H56.2C59.6 51.9004 64.1 50.0004 69 50.0004Z" fill="#E2E5E9"/>
<path d="M81.8 55.0008H86C85.7 46.0008 81.5 38.1008 75 32.8008C72.8 33.5008 70.7 34.1008 68.5 34.6008C70.2 39.2008 71.3 44.6008 71.7 50.2008C75.6 50.8008 79.1 52.5008 81.8 55.0008Z" fill="#E2E5E9"/>
<defs>
<linearGradient id="paint0_linear_2011_14848" x1="0" y1="56" x2="112" y2="56" gradientUnits="userSpaceOnUse">
<stop stop-color="white" stop-opacity="0"/>
<stop offset="1" stop-color="white"/>
</linearGradient>
</defs>
</svg>
