<svg width="248" height="68" viewBox="0 0 248 68" fill="none" xmlns="http://www.w3.org/2000/svg">
<rect x="-60" width="308" height="68" rx="34" fill="url(#paint0_linear_106_1538)"/>
<rect x="-28" y="28" width="187" height="12" rx="6" fill="url(#paint1_linear_106_1538)"/>
<path d="M176.012 41.1214C175.662 41.1214 175.362 40.9979 175.111 40.7507C174.859 40.4993 174.733 40.1967 174.733 39.843C174.733 39.4936 174.859 39.1953 175.111 38.9482C175.362 38.6967 175.662 38.571 176.012 38.571C176.361 38.571 176.662 38.6967 176.913 38.9482C177.165 39.1953 177.29 39.4936 177.29 39.843C177.29 40.0774 177.231 40.2926 177.111 40.4886C176.996 40.6804 176.843 40.8338 176.651 40.9489C176.459 41.0639 176.246 41.1214 176.012 41.1214ZM183.986 41.1982C183.036 41.1982 182.217 40.983 181.531 40.5526C180.85 40.1179 180.325 39.5192 179.959 38.7564C179.592 37.9936 179.409 37.12 179.409 36.1357C179.409 35.1385 179.597 34.2585 179.972 33.4957C180.347 32.7287 180.875 32.13 181.557 31.6996C182.239 31.2692 183.042 31.054 183.967 31.054C184.712 31.054 185.377 31.1925 185.961 31.4695C186.545 31.7422 187.016 32.1257 187.374 32.62C187.736 33.1143 187.951 33.6918 188.019 34.3523H186.159C186.057 33.892 185.823 33.4957 185.456 33.1634C185.094 32.831 184.608 32.6648 183.999 32.6648C183.466 32.6648 182.999 32.8054 182.599 33.0866C182.203 33.3636 181.894 33.7599 181.672 34.2756C181.45 34.7869 181.34 35.392 181.34 36.0909C181.34 36.8068 181.448 37.4247 181.666 37.9446C181.883 38.4645 182.19 38.8672 182.586 39.1527C182.987 39.4382 183.457 39.581 183.999 39.581C184.361 39.581 184.689 39.5149 184.983 39.3828C185.281 39.2464 185.531 39.0526 185.731 38.8011C185.935 38.5497 186.078 38.2472 186.159 37.8935H188.019C187.951 38.5284 187.744 39.0952 187.399 39.5938C187.054 40.0923 186.592 40.4844 186.012 40.7699C185.437 41.0554 184.761 41.1982 183.986 41.1982ZM194.199 41.1982C193.278 41.1982 192.475 40.9872 191.789 40.5653C191.103 40.1435 190.57 39.5533 190.191 38.7947C189.812 38.0362 189.622 37.1499 189.622 36.1357C189.622 35.1172 189.812 34.2266 190.191 33.4638C190.57 32.701 191.103 32.1087 191.789 31.6868C192.475 31.2649 193.278 31.054 194.199 31.054C195.119 31.054 195.922 31.2649 196.609 31.6868C197.295 32.1087 197.827 32.701 198.207 33.4638C198.586 34.2266 198.775 35.1172 198.775 36.1357C198.775 37.1499 198.586 38.0362 198.207 38.7947C197.827 39.5533 197.295 40.1435 196.609 40.5653C195.922 40.9872 195.119 41.1982 194.199 41.1982ZM194.205 39.5938C194.802 39.5938 195.296 39.4361 195.688 39.1207C196.08 38.8054 196.37 38.3857 196.557 37.8615C196.749 37.3374 196.845 36.7599 196.845 36.1293C196.845 35.5028 196.749 34.9276 196.557 34.4034C196.37 33.875 196.08 33.451 195.688 33.1314C195.296 32.8118 194.802 32.652 194.205 32.652C193.604 32.652 193.106 32.8118 192.709 33.1314C192.317 33.451 192.025 33.875 191.834 34.4034C191.646 34.9276 191.552 35.5028 191.552 36.1293C191.552 36.7599 191.646 37.3374 191.834 37.8615C192.025 38.3857 192.317 38.8054 192.709 39.1207C193.106 39.4361 193.604 39.5938 194.205 39.5938ZM200.909 41V31.1818H202.743V32.7798H202.865C203.069 32.2386 203.404 31.8168 203.868 31.5142C204.333 31.2074 204.889 31.054 205.537 31.054C206.193 31.054 206.743 31.2074 207.186 31.5142C207.633 31.821 207.964 32.2429 208.177 32.7798H208.279C208.513 32.2557 208.886 31.8381 209.397 31.527C209.909 31.2116 210.518 31.054 211.226 31.054C212.116 31.054 212.843 31.3331 213.405 31.8913C213.972 32.4496 214.255 33.2912 214.255 34.4162V41H212.344V34.5952C212.344 33.9304 212.163 33.4489 211.801 33.1506C211.439 32.8523 211.006 32.7031 210.503 32.7031C209.881 32.7031 209.397 32.8949 209.052 33.2784C208.707 33.6577 208.535 34.1456 208.535 34.7422V41H206.63V34.4737C206.63 33.9411 206.464 33.5128 206.131 33.1889C205.799 32.8651 205.366 32.7031 204.834 32.7031C204.471 32.7031 204.137 32.799 203.83 32.9908C203.527 33.1783 203.282 33.4403 203.095 33.777C202.912 34.1136 202.82 34.5036 202.82 34.9467V41H200.909Z" fill="#D5DAE8"/>
<defs>
<linearGradient id="paint0_linear_106_1538" x1="-60" y1="34" x2="248" y2="34" gradientUnits="userSpaceOnUse">
<stop stop-color="white" stop-opacity="0"/>
<stop offset="1" stop-color="white"/>
</linearGradient>
<linearGradient id="paint1_linear_106_1538" x1="-28" y1="34" x2="159" y2="34" gradientUnits="userSpaceOnUse">
<stop stop-color="#D5DAE8"/>
<stop offset="1" stop-color="#D5DAE8"/>
</linearGradient>
</defs>
</svg>
