<svg width="80" height="80" viewBox="0 0 80 80" fill="none" xmlns="http://www.w3.org/2000/svg">
<rect width="80" height="80" rx="4.23841" fill="white"/>
<g clip-path="url(#clip0_510_489)">
<path d="M40.2641 67.3011C56.3571 67.3011 69.4031 54.2515 69.4031 38.154C69.4031 22.0565 56.3571 9.00684 40.2641 9.00684C24.171 9.00684 11.125 22.0565 11.125 38.154C11.125 54.2515 24.171 67.3011 40.2641 67.3011Z" fill="#17BD54"/>
<path d="M40.5476 56.481C40.0535 56.481 39.6522 56.0846 39.6446 55.5904C39.6371 55.0911 40.0359 54.6797 40.535 54.6722C44.7386 54.6044 48.7189 52.9587 51.7412 50.0359C52.1024 49.6897 52.6717 49.6998 53.0203 50.0585C53.3689 50.4173 53.3589 50.9893 53.0003 51.338C49.6444 54.5819 45.2277 56.4083 40.5651 56.4835C40.5576 56.481 40.5526 56.481 40.5476 56.481Z" fill="#F9FBFC"/>
<path d="M39.9792 21.6364C39.4851 21.6364 39.0838 21.24 39.0763 20.7458C39.0688 20.2465 39.4675 19.8351 39.9667 19.8276L40.0494 19.8225C40.1196 19.8175 40.1924 19.8125 40.2651 19.8125C40.7642 19.8125 41.168 20.2164 41.168 20.7157C41.168 21.2149 40.7642 21.6188 40.2651 21.6188L40.1773 21.6238C40.1171 21.6289 40.0544 21.6314 39.9942 21.6339C39.9867 21.6364 39.9817 21.6364 39.9792 21.6364Z" fill="#F9FBFC"/>
<path d="M22.8326 39.0597C22.3335 39.0597 21.9297 38.6558 21.9297 38.1566C21.9297 32.8906 24.2121 27.868 28.1899 24.3783C28.5661 24.0471 29.1355 24.0873 29.464 24.4611C29.7926 24.8374 29.7575 25.4069 29.3812 25.7381C25.7947 28.8866 23.738 33.4125 23.738 38.1566C23.7355 38.6533 23.3317 39.0597 22.8326 39.0597Z" fill="#F9FBFC"/>
<path d="M39.9795 56.4811C39.9745 56.4811 39.9695 56.4811 39.9644 56.4811C35.2994 56.4058 30.8826 54.5794 27.5293 51.3356C27.1706 50.9893 27.1606 50.4148 27.5092 50.0561C27.8553 49.6973 28.4272 49.6873 28.7884 50.0335C31.8106 52.9562 35.791 54.6045 39.9945 54.6697C40.4936 54.6773 40.8924 55.0887 40.8849 55.588C40.8749 56.0847 40.4711 56.4811 39.9795 56.4811Z" fill="#F9FBFC"/>
<path d="M28.1584 51.5887C27.9327 51.5887 27.7069 51.5034 27.5289 51.3353C23.9172 47.8431 21.9258 43.1617 21.9258 38.1541C21.9258 37.6549 22.3296 37.251 22.8287 37.251C23.3278 37.251 23.7316 37.6549 23.7316 38.1541C23.7316 42.6675 25.5249 46.8847 28.7829 50.0333C29.1416 50.3795 29.1516 50.9515 28.803 51.3127C28.6299 51.4959 28.3942 51.5887 28.1584 51.5887Z" fill="#F9FBFC"/>
<path d="M40.2632 56.4958C40.188 56.4958 40.1153 56.4907 40.0425 56.4857L39.9598 56.4807C39.4607 56.4707 39.0644 56.0542 39.0744 55.5575C39.0869 55.0658 39.4882 54.6719 39.9773 54.6719C39.9848 54.6719 39.9924 54.6719 39.9974 54.6719C40.0576 54.6744 40.1153 54.6769 40.173 54.6819L40.2632 54.6869C40.7624 54.6869 41.1662 55.0908 41.1662 55.5901C41.1687 56.0893 40.7624 56.4958 40.2632 56.4958Z" fill="#F9FBFC"/>
<path d="M40.2623 56.4962C39.7632 56.4962 39.3594 56.0923 39.3594 55.593C39.3594 55.0938 39.7632 54.6899 40.2623 54.6899L40.3501 54.6848C40.4078 54.6798 40.4654 54.6773 40.5256 54.6748C40.9972 54.6773 41.4386 55.0586 41.4486 55.5604C41.4587 56.0597 41.0649 56.4736 40.5633 56.4836L40.4805 56.4887C40.4103 56.4912 40.3375 56.4962 40.2623 56.4962Z" fill="#F9FBFC"/>
<path d="M51.7413 25.9592C51.5306 25.9592 51.3174 25.8864 51.1468 25.7334C48.2074 23.1519 44.4377 21.6968 40.5326 21.634C40.0335 21.6265 39.6347 21.2151 39.6447 20.7158C39.6522 20.2166 40.051 19.8352 40.5627 19.8252C44.8942 19.8954 49.0777 21.5111 52.3407 24.3736C52.7169 24.7023 52.752 25.2743 52.4235 25.6506C52.2429 25.8563 51.9921 25.9592 51.7413 25.9592Z" fill="#F9FBFC"/>
<path d="M28.7834 25.9589C28.5325 25.9589 28.2817 25.8536 28.1037 25.6503C27.7751 25.274 27.8102 24.7045 28.1864 24.3734C31.4495 21.5108 35.6305 19.8952 39.9645 19.8249C40.4861 19.8049 40.8749 20.2138 40.8824 20.7155C40.8899 21.2148 40.4912 21.6262 39.9946 21.6338C36.0894 21.6965 32.3198 23.1516 29.3803 25.7331C29.2072 25.8862 28.994 25.9589 28.7834 25.9589Z" fill="#F9FBFC"/>
<path d="M40.5471 21.6368C40.5421 21.6368 40.5396 21.6368 40.5346 21.6368C40.4719 21.6368 40.4117 21.6318 40.3515 21.6268L40.2662 21.6218C39.7671 21.6218 39.3633 21.2178 39.3633 20.7186C39.3633 20.2193 39.7671 19.8154 40.2662 19.8154C40.3389 19.8154 40.4092 19.8204 40.4819 19.8255L40.5647 19.8305C41.0638 19.838 41.4626 20.2494 41.455 20.7487C41.445 21.2404 41.0412 21.6368 40.5471 21.6368Z" fill="#F9FBFC"/>
<path d="M52.3688 51.5887C52.133 51.5887 51.8973 51.4959 51.7192 51.3127C51.3706 50.954 51.3806 50.382 51.7393 50.0333C54.9973 46.8847 56.7906 42.6649 56.7906 38.1541C56.7906 33.4075 54.7339 28.8816 51.1474 25.7356C50.7712 25.407 50.736 24.835 51.0646 24.4586C51.3932 24.0848 51.965 24.0447 52.3387 24.3759C56.3166 27.8656 58.5989 32.8882 58.5989 38.1541C58.5989 43.1617 56.61 47.8431 52.9983 51.3353C52.8203 51.5059 52.5945 51.5887 52.3688 51.5887Z" fill="#F9FBFC"/>
<path d="M33.9708 28.8543C33.8228 28.8543 33.6723 28.8167 33.5318 28.7415C33.0954 28.4981 32.9374 27.9487 33.1807 27.5121C34.7708 24.6446 37.0407 22.1182 39.7419 20.2091C40.1482 19.9205 40.715 20.0159 41.001 20.4248C41.2894 20.8312 41.1916 21.3957 40.7853 21.6842C38.3048 23.4404 36.2205 25.7585 34.7608 28.3902C34.5953 28.6863 34.2893 28.8543 33.9708 28.8543Z" fill="#F9FBFC"/>
<path d="M40.265 21.8497C39.9815 21.8497 39.7031 21.7168 39.5251 21.4659C39.2366 21.057 39.3344 20.495 39.7433 20.2065L39.8436 20.1312C39.9063 20.081 39.969 20.0334 40.0367 19.9882C40.448 19.7047 41.0099 19.8076 41.2933 20.219C41.5767 20.6305 41.4739 21.1924 41.0625 21.4759C41.0249 21.501 40.9898 21.5311 40.9522 21.5587C40.897 21.6014 40.8418 21.644 40.7866 21.6842C40.6261 21.7945 40.443 21.8497 40.265 21.8497Z" fill="#F9FBFC"/>
<path d="M40.5473 56.4809C40.3717 56.4809 40.1961 56.4307 40.0406 56.3254C39.9704 56.2777 39.9027 56.2275 39.8375 56.1748L39.7422 56.1021C39.3334 55.8136 39.238 55.2491 39.524 54.8427C39.8124 54.4362 40.3767 54.3384 40.783 54.6244C40.8382 54.662 40.8909 54.7047 40.9436 54.7448C40.9787 54.7724 41.0138 54.8 41.0514 54.8251C41.4652 55.1036 41.5731 55.6655 41.2947 56.0795C41.1216 56.3404 40.8382 56.4809 40.5473 56.4809Z" fill="#F9FBFC"/>
<path d="M40.2616 56.2676C40.081 56.2676 39.8979 56.2149 39.7399 56.102C36.7502 53.9871 34.3124 51.1296 32.6946 47.8355C32.4739 47.3865 32.6595 46.8446 33.106 46.6263C33.5549 46.4055 34.0942 46.5912 34.3174 47.0377C35.8047 50.0608 38.0394 52.685 40.7858 54.6268C41.1921 54.9153 41.2899 55.4798 41.0014 55.8862C40.8234 56.1346 40.545 56.2676 40.2616 56.2676Z" fill="#F9FBFC"/>
<path d="M33.97 28.8546C33.8672 28.8546 33.7643 28.8371 33.6615 28.7994C31.6776 28.0794 29.8492 27.0583 28.2189 25.7638C27.8277 25.4527 27.7625 24.8832 28.0735 24.4943C28.3845 24.103 28.9538 24.0403 29.3451 24.3488C30.8198 25.5204 32.4802 26.4462 34.2785 27.101C34.7475 27.2716 34.9908 27.7909 34.8203 28.26C34.6873 28.6263 34.3412 28.8546 33.97 28.8546Z" fill="#F9FBFC"/>
<path d="M46.5551 28.8543C46.1864 28.8543 45.8403 28.626 45.7049 28.2572C45.5343 27.788 45.7776 27.2687 46.2466 27.0981C48.0449 26.4458 49.7053 25.5201 51.1801 24.346C51.5713 24.0349 52.1407 24.1001 52.4517 24.4915C52.7627 24.8829 52.6975 25.4499 52.3062 25.7609C50.6784 27.0555 48.8475 28.0766 46.8636 28.7966C46.7608 28.8367 46.658 28.8543 46.5551 28.8543Z" fill="#F9FBFC"/>
<path d="M40.2623 29.9755C39.7632 29.9755 39.3594 29.5716 39.3594 29.0723C39.3594 28.5731 39.7632 28.1691 40.2623 28.1691C42.2788 28.1691 44.2903 27.8104 46.2466 27.1004C46.7156 26.9298 47.2348 27.1732 47.4028 27.6423C47.5734 28.1114 47.3301 28.6308 46.8611 28.8014C44.7091 29.5791 42.4895 29.9755 40.2623 29.9755Z" fill="#F9FBFC"/>
<path d="M40.264 29.9755C38.0368 29.9755 35.8171 29.5792 33.6626 28.7989C33.1936 28.6283 32.9503 28.109 33.1209 27.6399C33.2914 27.1707 33.8106 26.9274 34.2771 27.098C36.2334 27.8079 38.2474 28.1667 40.2614 28.1667C40.7606 28.1667 41.1644 28.5706 41.1644 29.0699C41.1694 29.5716 40.7631 29.9755 40.264 29.9755Z" fill="#F9FBFC"/>
<path d="M52.3679 51.5889C52.1572 51.5889 51.9465 51.5161 51.776 51.3681C50.2636 50.051 48.5506 49.0123 46.6895 48.2798C46.2255 48.0966 45.9973 47.5723 46.1804 47.1082C46.3635 46.644 46.8877 46.4157 47.3517 46.5989C49.4058 47.4067 51.2944 48.5532 52.9623 50.0058C53.3385 50.3345 53.3786 50.904 53.0501 51.2803C52.872 51.4835 52.6187 51.5889 52.3679 51.5889Z" fill="#F9FBFC"/>
<path d="M47.0191 48.3425C46.9087 48.3425 46.7959 48.3224 46.688 48.2798C44.6138 47.4644 42.4519 47.0505 40.2623 47.0505C39.7632 47.0505 39.3594 46.6466 39.3594 46.1473C39.3594 45.6481 39.7632 45.2441 40.2623 45.2441C42.6801 45.2441 45.0653 45.7007 47.3502 46.5989C47.8142 46.782 48.0424 47.3064 47.8593 47.7705C47.7214 48.1242 47.3803 48.3425 47.0191 48.3425Z" fill="#F9FBFC"/>
<path d="M33.505 48.3426C33.1438 48.3426 32.8027 48.1243 32.6648 47.7681C32.4817 47.3039 32.7099 46.7796 33.1739 46.5964C35.4588 45.6958 37.844 45.2417 40.2618 45.2417C40.7609 45.2417 41.1647 45.6456 41.1647 46.1449C41.1647 46.6441 40.7609 47.048 40.2618 47.048C38.0722 47.048 35.9103 47.462 33.8361 48.2773C33.7282 48.3225 33.6153 48.3426 33.505 48.3426Z" fill="#F9FBFC"/>
<path d="M28.1587 51.5889C27.9054 51.5889 27.6546 51.4836 27.4765 51.2778C27.1479 50.9015 27.188 50.3295 27.5643 50.0034C29.2321 48.5533 31.1207 47.4068 33.1749 46.5964C33.6389 46.4133 34.1631 46.6416 34.3462 47.1057C34.5292 47.5698 34.301 48.0942 33.837 48.2773C31.9735 49.0124 30.263 50.051 28.7506 51.3656C28.58 51.5162 28.3694 51.5889 28.1587 51.5889Z" fill="#F9FBFC"/>
<path d="M40.2626 21.8498C40.0845 21.8498 39.9039 21.7971 39.7459 21.6892C39.6857 21.6466 39.628 21.6014 39.5678 21.5563C39.5327 21.5287 39.5001 21.5036 39.465 21.4785C39.0537 21.195 38.9508 20.633 39.2343 20.2216C39.5177 19.8101 40.0795 19.7048 40.4908 19.9908C40.5535 20.0359 40.6162 20.0811 40.6764 20.1288L40.7792 20.204C41.1881 20.49 41.2909 21.052 41.005 21.4634C40.8294 21.7143 40.5485 21.8498 40.2626 21.8498Z" fill="#F9FBFC"/>
<path d="M39.9797 56.481C39.6888 56.481 39.4054 56.343 39.2298 56.0821C38.9489 55.6681 39.0593 55.1062 39.4731 54.8277C39.5082 54.8026 39.5433 54.7775 39.5759 54.7499C39.6336 54.7073 39.6888 54.6621 39.7465 54.622C40.1578 54.3385 40.7196 54.4388 41.0055 54.8478C41.289 55.2567 41.1886 55.8212 40.7798 56.1072L40.682 56.1799C40.6168 56.2301 40.5516 56.2803 40.4839 56.3255C40.3309 56.4308 40.1553 56.481 39.9797 56.481Z" fill="#F9FBFC"/>
<path d="M40.2651 56.268C39.9817 56.268 39.7033 56.1351 39.5252 55.8867C39.2368 55.4803 39.3346 54.9158 39.7409 54.6273C42.4848 52.6855 44.722 50.0613 46.2068 47.0382C46.4275 46.5891 46.9692 46.406 47.4182 46.6267C47.8671 46.8475 48.0502 47.3894 47.8295 47.836C46.2093 51.1275 43.7739 53.9875 40.7843 56.1024C40.6263 56.2153 40.4457 56.268 40.2651 56.268Z" fill="#F9FBFC"/>
<path d="M46.5554 28.8544C46.2369 28.8544 45.9284 28.6863 45.7654 28.3878C44.3056 25.7586 42.2239 23.4404 39.7409 21.6818C39.3346 21.3933 39.2368 20.8288 39.5252 20.4224C39.8136 20.0134 40.378 19.9181 40.7843 20.2066C43.488 22.1183 45.7553 24.6447 47.3455 27.5097C47.5887 27.9462 47.4307 28.4957 46.9943 28.739C46.8539 28.8168 46.7034 28.8544 46.5554 28.8544Z" fill="#F9FBFC"/>
<path d="M27.3325 39.0602H22.8326C22.3335 39.0602 21.9297 38.6563 21.9297 38.1571C21.9297 37.6578 22.3335 37.2539 22.8326 37.2539H27.3325C27.8317 37.2539 28.2355 37.6578 28.2355 38.1571C28.2355 38.6563 27.8317 39.0602 27.3325 39.0602Z" fill="#F9FBFC"/>
<path d="M57.1797 39.0597H53.1939C52.6948 39.0597 52.291 38.6558 52.291 38.1566C52.291 37.6573 52.6948 37.2534 53.1939 37.2534H57.1797C57.6788 37.2534 58.0826 37.6573 58.0826 38.1566C58.0826 38.6558 57.6788 39.0597 57.1797 39.0597Z" fill="#F9FBFC"/>
<path d="M40.2623 29.9758C39.7632 29.9758 39.3594 29.5719 39.3594 29.0727V20.9442C39.3594 20.4449 39.7632 20.041 40.2623 20.041C40.7614 20.041 41.1652 20.4449 41.1652 20.9442V29.0727C41.1677 29.5719 40.7614 29.9758 40.2623 29.9758Z" fill="#F9FBFC"/>
<path d="M40.2623 56.2678C39.7632 56.2678 39.3594 55.8639 39.3594 55.3647V46.1449C39.3594 45.6456 39.7632 45.2417 40.2623 45.2417C40.7614 45.2417 41.1652 45.6456 41.1652 46.1449V55.3647C41.1677 55.8639 40.7614 56.2678 40.2623 56.2678Z" fill="#F9FBFC"/>
<path d="M40.2623 21.85C39.7632 21.85 39.3594 21.4461 39.3594 20.9468V20.721C39.3594 20.2218 39.7632 19.8179 40.2623 19.8179C40.7614 19.8179 41.1652 20.2218 41.1652 20.721V20.9468C41.1677 21.4436 40.7614 21.85 40.2623 21.85Z" fill="#F9FBFC"/>
<path d="M40.2623 56.496C39.7632 56.496 39.3594 56.0921 39.3594 55.5928V55.367C39.3594 54.8678 39.7632 54.4639 40.2623 54.4639C40.7614 54.4639 41.1652 54.8678 41.1652 55.367V55.5928C41.1677 56.0896 40.7614 56.496 40.2623 56.496Z" fill="#F9FBFC"/>
<path d="M64.3169 62.9556L55.1523 55.4092L56.6447 67.1905L59.3459 65.7002L61.864 70.2687L64.1389 69.0144L61.6182 64.4458L64.3169 62.9556Z" fill="white"/>
<path d="M61.8682 71.5231C61.4268 71.5231 60.9979 71.2898 60.7696 70.8734L58.8559 67.4037L57.2558 68.2868C56.8921 68.4875 56.4532 68.495 56.082 68.3069C55.7108 68.1187 55.4575 67.7599 55.4073 67.346L53.9125 55.5647C53.8473 55.0554 54.1006 54.5562 54.5495 54.3078C54.9985 54.0594 55.5553 54.1096 55.9516 54.4383L65.1187 61.9847C65.4397 62.2481 65.6077 62.6546 65.5701 63.0685C65.5325 63.4825 65.2917 63.8513 64.9281 64.052L63.3279 64.935L65.2416 68.4072C65.4021 68.6982 65.4397 69.0419 65.3494 69.3606C65.2566 69.6792 65.0409 69.9501 64.75 70.1107L62.4751 71.3651C62.2795 71.473 62.0738 71.5231 61.8682 71.5231ZM59.3475 64.4458C59.4654 64.4458 59.5808 64.4609 59.6962 64.496C60.0147 64.5888 60.2856 64.8046 60.4461 65.0956L62.3598 68.5653L62.4375 68.5226L60.5238 65.053C60.1903 64.4458 60.4085 63.6832 61.0154 63.3495L62.0964 62.7524L56.7943 58.3871L57.6596 65.201L58.7406 64.6039C58.9287 64.4985 59.1369 64.4458 59.3475 64.4458Z" fill="#F9FBFC"/>
<path d="M64.3189 62.9556L55.1543 55.4092L56.6466 67.1905L59.3478 65.7002L61.866 70.2687L64.1408 69.0144L61.6202 64.4458L64.3189 62.9556Z" fill="black"/>
<path d="M36.049 37.6069H34.4936C34.4652 37.4057 34.4072 37.227 34.3196 37.0707C34.232 36.9121 34.1196 36.7772 33.9822 36.6659C33.8449 36.5546 33.6863 36.4694 33.5064 36.4102C33.3288 36.351 33.1359 36.3214 32.9276 36.3214C32.5511 36.3214 32.2232 36.4149 31.9439 36.602C31.6645 36.7866 31.4479 37.0565 31.294 37.4116C31.1402 37.7644 31.0632 38.1929 31.0632 38.6971C31.0632 39.2156 31.1402 39.6512 31.294 40.004C31.4503 40.3567 31.6681 40.623 31.9474 40.803C32.2268 40.9829 32.55 41.0728 32.9169 41.0728C33.1229 41.0728 33.3134 41.0456 33.4886 40.9912C33.6662 40.9367 33.8236 40.8574 33.9609 40.7532C34.0982 40.6467 34.2119 40.5177 34.3018 40.3662C34.3942 40.2147 34.4581 40.0418 34.4936 39.8477L36.049 39.8548C36.0088 40.1886 35.9081 40.5106 35.7472 40.8207C35.5885 41.1285 35.3743 41.4043 35.1044 41.6481C34.8369 41.8896 34.5173 42.0814 34.1456 42.2234C33.7763 42.3631 33.3584 42.4329 32.892 42.4329C32.2434 42.4329 31.6634 42.2861 31.152 41.9926C30.643 41.699 30.2405 41.2741 29.9446 40.7177C29.651 40.1614 29.5043 39.4879 29.5043 38.6971C29.5043 37.904 29.6534 37.2293 29.9517 36.673C30.25 36.1166 30.6548 35.6929 31.1662 35.4017C31.6776 35.1081 32.2528 34.9613 32.892 34.9613C33.3134 34.9613 33.7041 35.0205 34.0639 35.1389C34.4261 35.2573 34.7469 35.4301 35.0263 35.6574C35.3056 35.8823 35.5329 36.1581 35.7081 36.4848C35.8857 36.8115 35.9993 37.1855 36.049 37.6069ZM39.7298 42.3335H37.1516V35.0608H39.7511C40.4826 35.0608 41.1123 35.2064 41.6403 35.4976C42.1682 35.7864 42.5742 36.2019 42.8583 36.744C43.1448 37.2861 43.288 37.9348 43.288 38.69C43.288 39.4476 43.1448 40.0986 42.8583 40.6432C42.5742 41.1877 42.1658 41.6055 41.6332 41.8967C41.1029 42.1879 40.4684 42.3335 39.7298 42.3335ZM38.6893 41.016H39.6658C40.1204 41.016 40.5027 40.9355 40.8129 40.7745C41.1254 40.6112 41.3597 40.3591 41.516 40.0182C41.6746 39.6749 41.7539 39.2322 41.7539 38.69C41.7539 38.1526 41.6746 37.7135 41.516 37.3726C41.3597 37.0316 41.1265 36.7807 40.8164 36.6197C40.5063 36.4587 40.1239 36.3782 39.6694 36.3782H38.6893V41.016ZM50.5101 35.0608V42.3335H49.182L46.0179 37.7561H45.9647V42.3335H44.427V35.0608H45.7765L48.9157 39.6346H48.9796V35.0608H50.5101Z" fill="white"/>
</g>
<defs>
<clipPath id="clip0_510_489">
<rect width="58.2781" height="62.5166" fill="white" transform="translate(11.125 9.00684)"/>
</clipPath>
</defs>
</svg>
