<svg width="120" height="74" viewBox="0 0 120 74" fill="none" xmlns="http://www.w3.org/2000/svg">
<path d="M60.8302 64.1367L46.6426 105.365C50.8806 106.607 55.3611 107.292 60.0037 107.292C65.5087 107.292 70.7923 106.34 75.7047 104.611C75.5784 104.408 75.4634 104.193 75.3693 103.959L60.8302 64.1367Z" fill="#F5F7F9"/>
<path d="M12.7109 59.9977C12.7109 78.7179 23.5899 94.894 39.3651 102.558L16.8079 40.7529C14.1846 46.6341 12.7109 53.1427 12.7109 59.9977Z" fill="#F5F7F9"/>
<path d="M91.923 57.6116C91.923 51.7675 89.8257 47.7213 88.0265 44.5685C85.6285 40.6733 83.3814 37.3757 83.3814 33.4792C83.3814 29.1323 86.6778 25.0861 91.3229 25.0861C91.5332 25.0861 91.7312 25.1121 91.9366 25.122C83.525 17.4169 72.3169 12.71 60.0038 12.71C43.48 12.71 28.9447 21.1859 20.4922 34.0261C21.6009 34.0595 22.644 34.083 23.5349 34.083C28.4819 34.083 36.1399 33.4829 36.1399 33.4829C38.6914 33.3295 38.9884 37.075 36.4431 37.3757C36.4431 37.3757 33.8805 37.6763 31.0309 37.8273L48.2488 89.0507L58.5969 58.0113L51.2272 37.8261C48.6807 37.6751 46.269 37.3744 46.269 37.3744C43.7225 37.2259 44.0195 33.3307 46.5673 33.4817C46.5673 33.4817 54.3788 34.0818 59.0226 34.0818C63.9684 34.0818 71.6289 33.4817 71.6289 33.4817C74.1804 33.3307 74.4786 37.0737 71.9296 37.3744C71.9296 37.3744 69.3645 37.6751 66.5173 37.8261L83.6091 88.6609L88.326 72.8993C90.3689 66.3585 91.923 61.659 91.923 57.6116Z" fill="#F5F7F9"/>
<path d="M101.497 37.3105C101.7 38.8152 101.816 40.4349 101.816 42.1734C101.816 46.9719 100.922 52.3668 98.2217 59.1117L83.7754 100.874C97.8331 92.6754 107.293 77.4434 107.293 60.0002C107.294 51.7766 105.192 44.0455 101.497 37.3105Z" fill="#F5F7F9"/>
<path d="M60.0007 0C26.864 0 0.00195312 26.8633 0.00195312 60C0.00195312 93.1367 26.864 120 60.0007 120C93.1374 120 119.999 93.1367 119.999 60C119.999 26.8633 93.1374 0 60.0007 0ZM60.0032 112.597C30.9993 112.597 7.40637 89.0039 7.40637 59.9975C7.40637 30.9961 30.998 7.40318 60.0032 7.40318C89.0034 7.40318 112.595 30.9973 112.595 59.9975C112.596 89.0014 89.0022 112.597 60.0032 112.597Z" fill="#F5F7F9"/>
</svg>
