<svg width="120" height="90" viewBox="0 0 120 90" fill="none" xmlns="http://www.w3.org/2000/svg">
<g clip-path="url(#clip0_503_757)">
<path d="M119.891 65.9479C119.467 61.8521 117.803 57.9833 115.12 54.8595C112.438 51.7357 108.865 49.506 104.88 48.469C105.785 43.6756 104.882 38.717 102.345 34.5505C99.8082 30.384 95.8176 27.3052 91.1438 25.9087C86.5999 24.5626 81.7242 24.8877 77.3993 26.8254C75.8005 24.5118 73.9035 22.4192 71.7574 20.6018C58.2668 9.18395 38.0023 10.8703 26.5842 24.3611C23.8451 27.5971 21.7755 31.3445 20.4955 35.3863C19.2154 39.428 18.7504 43.6836 19.1273 47.9065C13.9336 48.2688 9.28125 50.2624 5.85938 53.6297C2.08055 57.3466 0 62.4597 0 68.0285C0.00858992 72.6684 1.60559 77.1654 4.52531 80.7715C7.08609 83.9191 10.8684 87.5885 17.4405 88.0282C17.5259 88.034 17.5545 88.0359 23.0025 88.0378C23.3947 88.0423 23.7783 87.9226 24.0983 87.6958C24.4183 87.4689 24.6582 87.1466 24.7838 86.775C24.8804 86.4916 24.9081 86.1892 24.8647 85.8929C24.8212 85.5966 24.7078 85.315 24.5338 85.0713C24.3598 84.8275 24.1303 84.6288 23.8642 84.4914C23.5981 84.3541 23.3031 84.2821 23.0037 84.2815C21.026 84.2815 18.06 84.2794 17.6423 84.277C12.5752 83.9205 9.64195 81.1083 7.44164 78.4036C5.0647 75.4675 3.7645 71.8061 3.75727 68.0285C3.75727 63.476 5.43938 59.3142 8.49375 56.3097C11.7047 53.1515 16.1002 51.5231 21.2128 51.6093L21.4406 51.6131C21.6865 51.617 21.9302 51.5671 22.1548 51.4669C22.3793 51.3667 22.5792 51.2187 22.7406 51.0331C22.9019 50.8476 23.0208 50.629 23.0888 50.3927C23.1568 50.1564 23.1724 49.9081 23.1345 49.6652L23.0991 49.44C22.0844 42.9809 23.3387 36.3698 26.6487 30.7313C29.9586 25.0927 35.1196 20.775 41.2539 18.5125C47.3883 16.2499 54.1169 16.1824 60.2954 18.3214C66.4739 20.4603 71.7206 24.6737 75.143 30.2447L75.2398 30.4022C75.4684 30.7736 75.8319 31.042 76.2541 31.1512C76.6764 31.2605 77.1245 31.202 77.5045 30.9881L77.6655 30.8974C79.5354 29.8494 81.5964 29.1868 83.7266 28.9486C85.8569 28.7105 88.0133 28.9016 90.0684 29.5108C92.0837 30.1068 93.9604 31.0973 95.5895 32.4249C97.2186 33.7524 98.5677 35.3904 99.5583 37.2438C101.565 41.0376 101.989 45.4716 100.736 49.5766L100.733 49.5869C100.664 49.8178 100.645 50.0606 100.678 50.2993C100.711 50.5379 100.795 50.7667 100.923 50.9704C101.052 51.174 101.223 51.3478 101.424 51.4799C101.625 51.6121 101.853 51.6996 102.091 51.7366C104.968 52.1633 107.686 53.3265 109.981 55.1135C111.692 56.4641 113.118 58.1414 114.176 60.0478C115.233 61.9543 115.901 64.0519 116.141 66.2187C116.38 68.3855 116.187 70.5784 115.572 72.6699C114.957 74.7613 113.932 76.7097 112.557 78.4017C109.762 81.8374 106.964 84.1516 102.398 84.2765C102.084 84.2765 97.9383 84.2805 96.3342 84.2815C96.0347 84.2822 95.7396 84.3542 95.4735 84.4917C95.2074 84.6291 94.9779 84.828 94.8039 85.0719C94.63 85.3157 94.5167 85.5975 94.4734 85.8939C94.43 86.1903 94.458 86.4927 94.5548 86.7761C94.6804 87.1477 94.9204 87.47 95.2403 87.6969C95.5603 87.9237 95.9439 88.0435 96.3361 88.039C102.406 88.0347 102.444 88.0338 102.477 88.0331C108.859 87.8655 112.627 84.2688 115.471 80.7719C117.152 78.716 118.407 76.3472 119.166 73.8027C119.925 71.2581 120.171 68.5883 119.891 65.9479Z" fill="#F5F7F9"/>
<path d="M88.5213 46.2275H31.4765C31.0846 46.2275 30.6965 46.3047 30.3344 46.4547C29.9724 46.6047 29.6434 46.8245 29.3663 47.1016C29.0891 47.3787 28.8693 47.7077 28.7194 48.0698C28.5694 48.4319 28.4922 48.8199 28.4922 49.2118V61.3037C28.4922 61.6956 28.5694 62.0837 28.7194 62.4458C28.8693 62.8078 29.0891 63.1368 29.3663 63.4139C29.6434 63.691 29.9724 63.9109 30.3344 64.0608C30.6965 64.2108 31.0846 64.288 31.4765 64.288H88.5215C88.9134 64.288 89.3014 64.2108 89.6635 64.0608C90.0256 63.9109 90.3546 63.691 90.6317 63.4139C90.9088 63.1368 91.1286 62.8078 91.2786 62.4458C91.4286 62.0837 91.5058 61.6956 91.5058 61.3037V49.2121C91.5058 48.4205 91.1913 47.6614 90.6316 47.1017C90.0719 46.542 89.3128 46.2275 88.5213 46.2275ZM87.7478 60.5307H32.2499V49.9839H87.7499L87.7478 60.5307Z" fill="#F5F7F9"/>
<path d="M38.1678 57.1363H61.6378C62.1226 57.1425 62.5918 56.9652 62.9514 56.64C63.311 56.3148 63.5344 55.8657 63.5768 55.3827C63.5939 55.126 63.5581 54.8685 63.4716 54.6262C63.3851 54.3839 63.2498 54.162 63.074 53.9741C62.8982 53.7863 62.6857 53.6365 62.4497 53.5342C62.2136 53.4318 61.9591 53.379 61.7018 53.3791H38.2322C37.7474 53.3729 37.2782 53.5502 36.9186 53.8754C36.559 54.2006 36.3356 54.6497 36.2932 55.1327C36.2761 55.3893 36.3119 55.6468 36.3984 55.889C36.4848 56.1313 36.6201 56.3533 36.7959 56.5411C36.9716 56.729 37.184 56.8787 37.42 56.9811C37.656 57.0835 37.9105 57.1363 38.1678 57.1363Z" fill="#F5F7F9"/>
<path d="M70.8774 57.1363H71.8906C72.3754 57.1425 72.8447 56.9652 73.2042 56.64C73.5638 56.3148 73.7872 55.8657 73.8296 55.3827C73.8467 55.126 73.8109 54.8685 73.7244 54.6262C73.638 54.3839 73.5026 54.162 73.3268 53.9741C73.151 53.7863 72.9385 53.6365 72.7025 53.5342C72.4665 53.4318 72.2119 53.379 71.9546 53.3791H70.9412C70.4564 53.3729 69.9872 53.5502 69.6276 53.8754C69.268 54.2006 69.0446 54.6497 69.0022 55.1327C68.9851 55.3894 69.0209 55.6469 69.1074 55.8892C69.1939 56.1315 69.3293 56.3535 69.5051 56.5414C69.6809 56.7292 69.8934 56.879 70.1295 56.9813C70.3656 57.0837 70.6201 57.1364 70.8774 57.1363Z" fill="#F5F7F9"/>
<path d="M77.9163 57.1363H78.9299C79.4147 57.1424 79.8838 56.9651 80.2434 56.6399C80.6029 56.3147 80.8263 55.8657 80.8687 55.3827C80.8858 55.126 80.8501 54.8685 80.7636 54.6262C80.6771 54.3839 80.5418 54.1619 80.366 53.974C80.1902 53.7862 79.9777 53.6364 79.7416 53.5341C79.5055 53.4317 79.251 53.379 78.9937 53.3791H77.9803C77.4955 53.3729 77.0262 53.5502 76.6667 53.8754C76.3071 54.2006 76.0837 54.6497 76.0413 55.1327C76.0242 55.3894 76.06 55.6469 76.1465 55.8892C76.2329 56.1315 76.3683 56.3534 76.5441 56.5413C76.7199 56.7291 76.9324 56.8789 77.1684 56.9812C77.4044 57.0836 77.659 57.1364 77.9163 57.1363Z" fill="#F5F7F9"/>
<path d="M88.5213 67.5684H31.4765C31.0846 67.5684 30.6965 67.6455 30.3344 67.7955C29.9724 67.9455 29.6434 68.1653 29.3663 68.4424C29.0891 68.7196 28.8693 69.0485 28.7194 69.4106C28.5694 69.7727 28.4922 70.1608 28.4922 70.5527V82.6445C28.4922 83.0364 28.5694 83.4245 28.7194 83.7866C28.8693 84.1486 29.0891 84.4776 29.3663 84.7547C29.6434 85.0319 29.9724 85.2517 30.3344 85.4017C30.6965 85.5516 31.0846 85.6288 31.4765 85.6288H88.5215C88.9134 85.6288 89.3014 85.5516 89.6635 85.4017C90.0256 85.2517 90.3546 85.0319 90.6317 84.7547C90.9088 84.4776 91.1286 84.1486 91.2786 83.7866C91.4286 83.4245 91.5058 83.0364 91.5058 82.6445V70.5527C91.5057 69.7612 91.1912 69.0021 90.6315 68.4424C90.0718 67.8828 89.3128 67.5684 88.5213 67.5684ZM87.7478 81.8716H32.2499V71.3247H87.7499L87.7478 81.8716Z" fill="#F5F7F9"/>
<path d="M38.1677 78.4771H61.6378C62.1226 78.4833 62.5918 78.306 62.9514 77.9808C63.311 77.6556 63.5344 77.2065 63.5768 76.7236C63.5939 76.4669 63.558 76.2094 63.4715 75.9671C63.385 75.7248 63.2497 75.5029 63.0739 75.315C62.8981 75.1272 62.6856 74.9774 62.4496 74.875C62.2136 74.7727 61.9591 74.7199 61.7018 74.7199H38.2322C37.7474 74.7137 37.2781 74.891 36.9185 75.2163C36.5589 75.5415 36.3356 75.9907 36.2932 76.4737C36.2761 76.7304 36.3119 76.9878 36.3984 77.23C36.4849 77.4723 36.6202 77.6942 36.7959 77.882C36.9717 78.0698 37.1841 78.2196 37.4201 78.3219C37.656 78.4243 37.9105 78.4771 38.1677 78.4771Z" fill="#F5F7F9"/>
<path d="M70.8774 78.4771H71.8906C72.3754 78.4833 72.8446 78.306 73.2042 77.9808C73.5638 77.6556 73.7872 77.2065 73.8296 76.7236C73.8467 76.4669 73.8109 76.2094 73.7244 75.9671C73.6379 75.7248 73.5025 75.5029 73.3267 75.315C73.1509 75.1272 72.9385 74.9774 72.7024 74.875C72.4664 74.7727 72.2119 74.7199 71.9546 74.7199H70.9412C70.4563 74.7137 69.9871 74.891 69.6275 75.2163C69.2679 75.5415 69.0445 75.9907 69.0022 76.4737C68.9851 76.7304 69.0209 76.9879 69.1075 77.2302C69.194 77.4725 69.3293 77.6944 69.5052 77.8823C69.681 78.0701 69.8935 78.2198 70.1295 78.3221C70.3656 78.4245 70.6201 78.4772 70.8774 78.4771Z" fill="#F5F7F9"/>
<path d="M77.9163 78.4771H78.9299C79.4147 78.4833 79.8838 78.306 80.2434 77.9808C80.6029 77.6556 80.8263 77.2065 80.8687 76.7236C80.8858 76.4668 80.85 76.2094 80.7635 75.9671C80.677 75.7247 80.5417 75.5028 80.3659 75.3149C80.1901 75.1271 79.9776 74.9773 79.7415 74.875C79.5055 74.7726 79.251 74.7198 78.9937 74.7199H77.9802C77.4954 74.7137 77.0262 74.891 76.6666 75.2163C76.307 75.5415 76.0836 75.9907 76.0413 76.4737C76.0242 76.7304 76.06 76.9879 76.1465 77.2301C76.233 77.4724 76.3684 77.6943 76.5441 77.8822C76.7199 78.07 76.9324 78.2197 77.1684 78.3221C77.4045 78.4244 77.659 78.4772 77.9163 78.4771Z" fill="#F5F7F9"/>
<path d="M88.5215 88.9102H31.4765C30.6853 88.911 29.9267 89.2257 29.3672 89.7852C28.8077 90.3447 28.4931 91.1032 28.4922 91.8945V103.986C28.4931 104.778 28.8077 105.536 29.3672 106.096C29.9267 106.655 30.6853 106.97 31.4765 106.971H88.5215C89.3127 106.97 90.0713 106.655 90.6307 106.096C91.1902 105.536 91.5049 104.778 91.5058 103.986V91.8945C91.5049 91.1032 91.1902 90.3447 90.6307 89.7852C90.0713 89.2257 89.3127 88.911 88.5215 88.9102ZM87.748 103.213H32.2499V92.6665H87.7499L87.748 103.213Z" fill="#F5F7F9"/>
</g>
<defs>
<clipPath id="clip0_503_757">
<rect width="120" height="120" fill="white"/>
</clipPath>
</defs>
</svg>
