<svg width="80" height="80" viewBox="0 0 80 80" fill="none" xmlns="http://www.w3.org/2000/svg">
<rect width="80" height="80" rx="4.23841" fill="white"/>
<g clip-path="url(#clip0_135_286)">
<path d="M40.2637 9.50659C56.0805 9.50659 68.9033 22.3325 68.9033 38.1541C68.9031 53.9754 56.0804 66.8005 40.2637 66.8005C24.4472 66.8003 11.6252 53.9753 11.625 38.1541C11.625 22.3327 24.4471 9.50681 40.2637 9.50659Z" fill="#6F56DA" stroke="url(#paint0_linear_135_286)"/>
<path d="M40.5476 56.4808C40.0535 56.4808 39.6522 56.0844 39.6446 55.5901C39.6371 55.0909 40.0359 54.6795 40.535 54.6719C44.7386 54.6042 48.7189 52.9584 51.7412 50.0357C52.1024 49.6895 52.6717 49.6995 53.0203 50.0583C53.3689 50.417 53.3589 50.989 53.0003 51.3377C49.6444 54.5816 45.2277 56.408 40.5651 56.4833C40.5576 56.4808 40.5526 56.4808 40.5476 56.4808Z" fill="#F9FBFC"/>
<path d="M39.9792 21.6361C39.4851 21.6361 39.0838 21.2398 39.0763 20.7455C39.0688 20.2463 39.4675 19.8348 39.9667 19.8273L40.0494 19.8223C40.1196 19.8173 40.1924 19.8123 40.2651 19.8123C40.7642 19.8123 41.168 20.2162 41.168 20.7154C41.168 21.2147 40.7642 21.6186 40.2651 21.6186L40.1773 21.6236C40.1171 21.6286 40.0544 21.6311 39.9942 21.6336C39.9867 21.6361 39.9817 21.6361 39.9792 21.6361Z" fill="#F9FBFC"/>
<path d="M22.8326 39.0595C22.3335 39.0595 21.9297 38.6556 21.9297 38.1563C21.9297 32.8904 24.2121 27.8678 28.1899 24.3781C28.5661 24.0469 29.1355 24.087 29.464 24.4608C29.7926 24.8372 29.7575 25.4067 29.3812 25.7378C25.7947 28.8863 23.738 33.4122 23.738 38.1563C23.7355 38.6531 23.3317 39.0595 22.8326 39.0595Z" fill="#F9FBFC"/>
<path d="M39.9795 56.4808C39.9745 56.4808 39.9695 56.4808 39.9644 56.4808C35.2994 56.4056 30.8826 54.5792 27.5293 51.3353C27.1706 50.9891 27.1606 50.4146 27.5092 50.0558C27.8553 49.6971 28.4272 49.687 28.7884 50.0332C31.8106 52.956 35.791 54.6043 39.9945 54.6695C40.4936 54.677 40.8924 55.0885 40.8849 55.5877C40.8749 56.0844 40.4711 56.4808 39.9795 56.4808Z" fill="#F9FBFC"/>
<path d="M28.1584 51.5885C27.9327 51.5885 27.7069 51.5032 27.5289 51.3351C23.9172 47.8428 21.9258 43.1614 21.9258 38.1539C21.9258 37.6546 22.3296 37.2507 22.8287 37.2507C23.3278 37.2507 23.7316 37.6546 23.7316 38.1539C23.7316 42.6672 25.5249 46.8845 28.7829 50.033C29.1416 50.3792 29.1516 50.9512 28.803 51.3125C28.6299 51.4956 28.3942 51.5885 28.1584 51.5885Z" fill="#F9FBFC"/>
<path d="M40.2632 56.4958C40.188 56.4958 40.1153 56.4907 40.0425 56.4857L39.9598 56.4807C39.4607 56.4707 39.0644 56.0542 39.0744 55.5575C39.0869 55.0658 39.4882 54.6719 39.9773 54.6719C39.9848 54.6719 39.9924 54.6719 39.9974 54.6719C40.0576 54.6744 40.1153 54.6769 40.173 54.6819L40.2632 54.6869C40.7624 54.6869 41.1662 55.0908 41.1662 55.5901C41.1687 56.0893 40.7624 56.4958 40.2632 56.4958Z" fill="#F9FBFC"/>
<path d="M40.2623 56.4959C39.7632 56.4959 39.3594 56.092 39.3594 55.5928C39.3594 55.0935 39.7632 54.6896 40.2623 54.6896L40.3501 54.6846C40.4078 54.6796 40.4654 54.6771 40.5256 54.6746C40.9972 54.6771 41.4386 55.0584 41.4486 55.5602C41.4587 56.0594 41.0649 56.4734 40.5633 56.4834L40.4805 56.4884C40.4103 56.4909 40.3375 56.4959 40.2623 56.4959Z" fill="#F9FBFC"/>
<path d="M51.7413 25.9589C51.5306 25.9589 51.3174 25.8862 51.1468 25.7332C48.2074 23.1516 44.4377 21.6965 40.5326 21.6338C40.0335 21.6263 39.6347 21.2148 39.6447 20.7156C39.6522 20.2163 40.051 19.835 40.5627 19.825C44.8942 19.8952 49.0777 21.5109 52.3407 24.3734C52.7169 24.702 52.752 25.274 52.4235 25.6504C52.2429 25.8561 51.9921 25.9589 51.7413 25.9589Z" fill="#F9FBFC"/>
<path d="M28.7834 25.9589C28.5325 25.9589 28.2817 25.8536 28.1037 25.6503C27.7751 25.274 27.8102 24.7045 28.1864 24.3734C31.4495 21.5108 35.6305 19.8952 39.9645 19.8249C40.4861 19.8049 40.8749 20.2138 40.8824 20.7155C40.8899 21.2148 40.4912 21.6262 39.9946 21.6338C36.0894 21.6965 32.3198 23.1516 29.3803 25.7331C29.2072 25.8862 28.994 25.9589 28.7834 25.9589Z" fill="#F9FBFC"/>
<path d="M40.5471 21.6363C40.5421 21.6363 40.5396 21.6363 40.5346 21.6363C40.4719 21.6363 40.4117 21.6313 40.3515 21.6263L40.2662 21.6213C39.7671 21.6213 39.3633 21.2174 39.3633 20.7181C39.3633 20.2189 39.7671 19.8149 40.2662 19.8149C40.3389 19.8149 40.4092 19.82 40.4819 19.825L40.5647 19.83C41.0638 19.8375 41.4626 20.249 41.455 20.7482C41.445 21.2399 41.0412 21.6363 40.5471 21.6363Z" fill="#F9FBFC"/>
<path d="M52.3688 51.5885C52.133 51.5885 51.8973 51.4956 51.7192 51.3125C51.3706 50.9537 51.3806 50.3817 51.7393 50.033C54.9973 46.8845 56.7906 42.6647 56.7906 38.1539C56.7906 33.4073 54.7339 28.8814 51.1474 25.7354C50.7712 25.4067 50.736 24.8347 51.0646 24.4584C51.3932 24.0846 51.965 24.0444 52.3387 24.3756C56.3166 27.8653 58.5989 32.8879 58.5989 38.1539C58.5989 43.1614 56.61 47.8428 52.9983 51.3351C52.8203 51.5057 52.5945 51.5885 52.3688 51.5885Z" fill="#F9FBFC"/>
<path d="M33.9708 28.8541C33.8228 28.8541 33.6723 28.8165 33.5318 28.7412C33.0954 28.4979 32.9374 27.9484 33.1807 27.5119C34.7708 24.6444 37.0407 22.118 39.7419 20.2088C40.1482 19.9203 40.715 20.0156 41.001 20.4246C41.2894 20.831 41.1916 21.3955 40.7853 21.684C38.3048 23.4401 36.2205 25.7583 34.7608 28.39C34.5953 28.686 34.2893 28.8541 33.9708 28.8541Z" fill="#F9FBFC"/>
<path d="M40.265 21.8495C39.9815 21.8495 39.7031 21.7165 39.5251 21.4656C39.2366 21.0567 39.3344 20.4947 39.7433 20.2062L39.8436 20.131C39.9063 20.0808 39.969 20.0331 40.0367 19.988C40.448 19.7045 41.0099 19.8073 41.2933 20.2188C41.5767 20.6302 41.4739 21.1922 41.0625 21.4757C41.0249 21.5008 40.9898 21.5309 40.9522 21.5585C40.897 21.6011 40.8418 21.6438 40.7866 21.6839C40.6261 21.7943 40.443 21.8495 40.265 21.8495Z" fill="#F9FBFC"/>
<path d="M40.5473 56.4807C40.3717 56.4807 40.1961 56.4305 40.0406 56.3251C39.9704 56.2774 39.9027 56.2273 39.8375 56.1746L39.7422 56.1018C39.3334 55.8133 39.238 55.2488 39.524 54.8424C39.8124 54.436 40.3767 54.3381 40.783 54.6242C40.8382 54.6618 40.8909 54.7044 40.9436 54.7446C40.9787 54.7722 41.0138 54.7998 41.0514 54.8249C41.4652 55.1033 41.5731 55.6653 41.2947 56.0793C41.1216 56.3402 40.8382 56.4807 40.5473 56.4807Z" fill="#F9FBFC"/>
<path d="M40.2616 56.2673C40.081 56.2673 39.8979 56.2147 39.7399 56.1018C36.7502 53.9868 34.3124 51.1293 32.6946 47.8353C32.4739 47.3862 32.6595 46.8443 33.106 46.6261C33.5549 46.4053 34.0942 46.5909 34.3174 47.0375C35.8047 50.0606 38.0394 52.6848 40.7858 54.6266C41.1921 54.9151 41.2899 55.4796 41.0014 55.886C40.8234 56.1344 40.545 56.2673 40.2616 56.2673Z" fill="#F9FBFC"/>
<path d="M33.97 28.8541C33.8672 28.8541 33.7643 28.8366 33.6615 28.7989C31.6776 28.0789 29.8492 27.0578 28.2189 25.7633C27.8277 25.4522 27.7625 24.8827 28.0735 24.4939C28.3845 24.1025 28.9538 24.0398 29.3451 24.3483C30.8198 25.52 32.4802 26.4457 34.2785 27.1005C34.7475 27.2711 34.9908 27.7904 34.8203 28.2596C34.6873 28.6258 34.3412 28.8541 33.97 28.8541Z" fill="#F9FBFC"/>
<path d="M46.5551 28.854C46.1864 28.854 45.8403 28.6257 45.7049 28.2569C45.5343 27.7878 45.7776 27.2685 46.2466 27.0979C48.0449 26.4456 49.7053 25.5199 51.1801 24.3457C51.5713 24.0347 52.1407 24.0999 52.4517 24.4913C52.7627 24.8826 52.6975 25.4496 52.3062 25.7607C50.6784 27.0552 48.8475 28.0763 46.8636 28.7963C46.7608 28.8365 46.658 28.854 46.5551 28.854Z" fill="#F9FBFC"/>
<path d="M40.2623 29.9752C39.7632 29.9752 39.3594 29.5713 39.3594 29.0721C39.3594 28.5728 39.7632 28.1689 40.2623 28.1689C42.2788 28.1689 44.2903 27.8101 46.2466 27.1002C46.7156 26.9296 47.2348 27.1729 47.4028 27.6421C47.5734 28.1112 47.3301 28.6305 46.8611 28.8011C44.7091 29.5788 42.4895 29.9752 40.2623 29.9752Z" fill="#F9FBFC"/>
<path d="M40.264 29.9753C38.0368 29.9753 35.8171 29.5789 33.6626 28.7987C33.1936 28.6281 32.9503 28.1088 33.1209 27.6396C33.2914 27.1705 33.8106 26.9271 34.2771 27.0977C36.2334 27.8077 38.2474 28.1665 40.2614 28.1665C40.7606 28.1665 41.1644 28.5704 41.1644 29.0696C41.1694 29.5714 40.7631 29.9753 40.264 29.9753Z" fill="#F9FBFC"/>
<path d="M52.3679 51.5886C52.1572 51.5886 51.9465 51.5159 51.776 51.3678C50.2636 50.0507 48.5506 49.0121 46.6895 48.2795C46.2255 48.0964 45.9973 47.572 46.1804 47.1079C46.3635 46.6438 46.8877 46.4155 47.3517 46.5986C49.4058 47.4065 51.2944 48.553 52.9623 50.0056C53.3385 50.3342 53.3786 50.9037 53.0501 51.28C52.872 51.4832 52.6187 51.5886 52.3679 51.5886Z" fill="#F9FBFC"/>
<path d="M47.0191 48.3423C46.9087 48.3423 46.7959 48.3222 46.688 48.2795C44.6138 47.4642 42.4519 47.0502 40.2623 47.0502C39.7632 47.0502 39.3594 46.6463 39.3594 46.1471C39.3594 45.6478 39.7632 45.2439 40.2623 45.2439C42.6801 45.2439 45.0653 45.7005 47.3502 46.5986C47.8142 46.7818 48.0424 47.3061 47.8593 47.7702C47.7214 48.124 47.3803 48.3423 47.0191 48.3423Z" fill="#F9FBFC"/>
<path d="M33.505 48.3423C33.1438 48.3423 32.8027 48.1241 32.6648 47.7678C32.4817 47.3037 32.7099 46.7793 33.1739 46.5962C35.4588 45.6955 37.844 45.2415 40.2618 45.2415C40.7609 45.2415 41.1647 45.6454 41.1647 46.1446C41.1647 46.6439 40.7609 47.0478 40.2618 47.0478C38.0722 47.0478 35.9103 47.4617 33.8361 48.2771C33.7282 48.3223 33.6153 48.3423 33.505 48.3423Z" fill="#F9FBFC"/>
<path d="M28.1587 51.5887C27.9054 51.5887 27.6546 51.4833 27.4765 51.2776C27.1479 50.9013 27.188 50.3293 27.5643 50.0031C29.2321 48.553 31.1207 47.4065 33.1749 46.5962C33.6389 46.413 34.1631 46.6413 34.3462 47.1055C34.5292 47.5696 34.301 48.0939 33.837 48.2771C31.9735 49.0122 30.263 50.0508 28.7506 51.3654C28.58 51.5159 28.3694 51.5887 28.1587 51.5887Z" fill="#F9FBFC"/>
<path d="M40.2626 21.8495C40.0845 21.8495 39.9039 21.7969 39.7459 21.689C39.6857 21.6463 39.628 21.6012 39.5678 21.556C39.5327 21.5284 39.5001 21.5033 39.465 21.4782C39.0537 21.1947 38.9508 20.6328 39.2343 20.2213C39.5177 19.8099 40.0795 19.7045 40.4908 19.9905C40.5535 20.0357 40.6162 20.0808 40.6764 20.1285L40.7792 20.2038C41.1881 20.4898 41.2909 21.0517 41.005 21.4632C40.8294 21.7141 40.5485 21.8495 40.2626 21.8495Z" fill="#F9FBFC"/>
<path d="M39.9797 56.4808C39.6888 56.4808 39.4054 56.3428 39.2298 56.0819C38.9489 55.6679 39.0593 55.1059 39.4731 54.8275C39.5082 54.8024 39.5433 54.7773 39.5759 54.7497C39.6336 54.707 39.6888 54.6619 39.7465 54.6217C40.1578 54.3382 40.7196 54.4386 41.0055 54.8475C41.289 55.2565 41.1886 55.8209 40.7798 56.1069L40.682 56.1797C40.6168 56.2299 40.5516 56.28 40.4839 56.3252C40.3309 56.4306 40.1553 56.4808 39.9797 56.4808Z" fill="#F9FBFC"/>
<path d="M40.2651 56.2675C39.9817 56.2675 39.7033 56.1346 39.5252 55.8862C39.2368 55.4798 39.3346 54.9153 39.7409 54.6268C42.4848 52.685 44.722 50.0608 46.2068 47.0377C46.4275 46.5886 46.9692 46.4055 47.4182 46.6263C47.8671 46.847 48.0502 47.3889 47.8295 47.8355C46.2093 51.127 43.7739 53.987 40.7843 56.102C40.6263 56.2149 40.4457 56.2675 40.2651 56.2675Z" fill="#F9FBFC"/>
<path d="M46.5554 28.8539C46.2369 28.8539 45.9284 28.6858 45.7654 28.3873C44.3056 25.7581 42.2239 23.44 39.7409 21.6813C39.3346 21.3928 39.2368 20.8283 39.5252 20.4219C39.8136 20.013 40.378 19.9176 40.7843 20.2061C43.488 22.1178 45.7553 24.6442 47.3455 27.5092C47.5887 27.9457 47.4307 28.4952 46.9943 28.7385C46.8539 28.8163 46.7034 28.8539 46.5554 28.8539Z" fill="#F9FBFC"/>
<path d="M27.3325 39.06H22.8326C22.3335 39.06 21.9297 38.6561 21.9297 38.1568C21.9297 37.6576 22.3335 37.2537 22.8326 37.2537H27.3325C27.8317 37.2537 28.2355 37.6576 28.2355 38.1568C28.2355 38.6561 27.8317 39.06 27.3325 39.06Z" fill="#F9FBFC"/>
<path d="M57.1797 39.0595H53.1939C52.6948 39.0595 52.291 38.6556 52.291 38.1563C52.291 37.6571 52.6948 37.2532 53.1939 37.2532H57.1797C57.6788 37.2532 58.0826 37.6571 58.0826 38.1563C58.0826 38.6556 57.6788 39.0595 57.1797 39.0595Z" fill="#F9FBFC"/>
<path d="M40.2623 29.9756C39.7632 29.9756 39.3594 29.5717 39.3594 29.0724V20.9439C39.3594 20.4447 39.7632 20.0408 40.2623 20.0408C40.7614 20.0408 41.1652 20.4447 41.1652 20.9439V29.0724C41.1677 29.5717 40.7614 29.9756 40.2623 29.9756Z" fill="#F9FBFC"/>
<path d="M40.2623 56.2676C39.7632 56.2676 39.3594 55.8637 39.3594 55.3644V46.1446C39.3594 45.6454 39.7632 45.2415 40.2623 45.2415C40.7614 45.2415 41.1652 45.6454 41.1652 46.1446V55.3644C41.1677 55.8637 40.7614 56.2676 40.2623 56.2676Z" fill="#F9FBFC"/>
<path d="M40.2623 21.8497C39.7632 21.8497 39.3594 21.4458 39.3594 20.9466V20.7208C39.3594 20.2215 39.7632 19.8176 40.2623 19.8176C40.7614 19.8176 41.1652 20.2215 41.1652 20.7208V20.9466C41.1677 21.4433 40.7614 21.8497 40.2623 21.8497Z" fill="#F9FBFC"/>
<path d="M40.2623 56.4957C39.7632 56.4957 39.3594 56.0918 39.3594 55.5926V55.3668C39.3594 54.8675 39.7632 54.4636 40.2623 54.4636C40.7614 54.4636 41.1652 54.8675 41.1652 55.3668V55.5926C41.1677 56.0893 40.7614 56.4957 40.2623 56.4957Z" fill="#F9FBFC"/>
<path d="M64.3169 62.9556L55.1523 55.4092L56.6447 67.1905L59.3459 65.7002L61.864 70.2687L64.1389 69.0144L61.6182 64.4458L64.3169 62.9556Z" fill="#131415"/>
<path d="M61.8682 71.5231C61.4268 71.5231 60.9979 71.2898 60.7696 70.8734L58.8559 67.4037L57.2558 68.2868C56.8921 68.4875 56.4532 68.495 56.082 68.3069C55.7108 68.1187 55.4575 67.7599 55.4073 67.346L53.9125 55.5647C53.8473 55.0554 54.1006 54.5562 54.5495 54.3078C54.9985 54.0594 55.5553 54.1096 55.9516 54.4383L65.1187 61.9847C65.4397 62.2481 65.6077 62.6546 65.5701 63.0685C65.5325 63.4825 65.2917 63.8513 64.9281 64.052L63.3279 64.935L65.2416 68.4072C65.4021 68.6982 65.4397 69.0419 65.3494 69.3606C65.2566 69.6792 65.0409 69.9501 64.75 70.1107L62.4751 71.3651C62.2795 71.473 62.0738 71.5231 61.8682 71.5231ZM59.3475 64.4458C59.4654 64.4458 59.5808 64.4609 59.6962 64.496C60.0147 64.5888 60.2856 64.8046 60.4461 65.0956L62.3598 68.5653L62.4375 68.5226L60.5238 65.053C60.1903 64.4458 60.4085 63.6832 61.0154 63.3495L62.0964 62.7524L56.7943 58.3871L57.6596 65.201L58.7406 64.6039C58.9287 64.4985 59.1369 64.4458 59.3475 64.4458Z" fill="#F9FBFC"/>
<path d="M64.3189 62.9556L55.1543 55.4092L56.6466 67.1905L59.3478 65.7002L61.866 70.2687L64.1408 69.0144L61.6202 64.4458L64.3189 62.9556Z" fill="#131415"/>
<path d="M36.049 37.6067H34.4936C34.4652 37.4055 34.4072 37.2267 34.3196 37.0705C34.232 36.9119 34.1196 36.7769 33.9822 36.6656C33.8449 36.5544 33.6863 36.4691 33.5064 36.41C33.3288 36.3508 33.1359 36.3212 32.9276 36.3212C32.5511 36.3212 32.2232 36.4147 31.9439 36.6017C31.6645 36.7864 31.4479 37.0563 31.294 37.4114C31.1402 37.7641 31.0632 38.1926 31.0632 38.6969C31.0632 39.2154 31.1402 39.651 31.294 40.0037C31.4503 40.3565 31.6681 40.6228 31.9474 40.8027C32.2268 40.9826 32.55 41.0726 32.9169 41.0726C33.1229 41.0726 33.3134 41.0454 33.4886 40.9909C33.6662 40.9365 33.8236 40.8572 33.9609 40.753C34.0982 40.6465 34.2119 40.5174 34.3018 40.3659C34.3942 40.2144 34.4581 40.0416 34.4936 39.8475L36.049 39.8546C36.0088 40.1884 35.9081 40.5103 35.7472 40.8205C35.5885 41.1282 35.3743 41.404 35.1044 41.6479C34.8369 41.8894 34.5173 42.0811 34.1456 42.2232C33.7763 42.3628 33.3584 42.4327 32.892 42.4327C32.2434 42.4327 31.6634 42.2859 31.152 41.9923C30.643 41.6988 30.2405 41.2738 29.9446 40.7175C29.651 40.1611 29.5043 39.4876 29.5043 38.6969C29.5043 37.9038 29.6534 37.2291 29.9517 36.6727C30.25 36.1164 30.6548 35.6926 31.1662 35.4014C31.6776 35.1079 32.2528 34.9611 32.892 34.9611C33.3134 34.9611 33.7041 35.0203 34.0639 35.1386C34.4261 35.257 34.7469 35.4298 35.0263 35.6571C35.3056 35.882 35.5329 36.1578 35.7081 36.4845C35.8857 36.8112 35.9993 37.1853 36.049 37.6067ZM39.7298 42.3333H37.1516V35.0605H39.7511C40.4826 35.0605 41.1123 35.2061 41.6403 35.4973C42.1682 35.7861 42.5742 36.2016 42.8583 36.7438C43.1448 37.2859 43.288 37.9346 43.288 38.6898C43.288 39.4474 43.1448 40.0984 42.8583 40.6429C42.5742 41.1874 42.1658 41.6053 41.6332 41.8965C41.1029 42.1877 40.4684 42.3333 39.7298 42.3333ZM38.6893 41.0158H39.6658C40.1204 41.0158 40.5027 40.9353 40.8129 40.7743C41.1254 40.611 41.3597 40.3588 41.516 40.0179C41.6746 39.6746 41.7539 39.2319 41.7539 38.6898C41.7539 38.1524 41.6746 37.7132 41.516 37.3723C41.3597 37.0314 41.1265 36.7805 40.8164 36.6195C40.5063 36.4585 40.1239 36.378 39.6694 36.378H38.6893V41.0158ZM50.5101 35.0605V42.3333H49.182L46.0179 37.7558H45.9647V42.3333H44.427V35.0605H45.7765L48.9157 39.6344H48.9796V35.0605H50.5101Z" fill="white"/>
</g>
<defs>
<linearGradient id="paint0_linear_135_286" x1="40.2641" y1="9.00659" x2="40.2641" y2="67.3009" gradientUnits="userSpaceOnUse">
<stop stop-color="#836DE4"/>
<stop offset="1" stop-color="#4E37B3"/>
</linearGradient>
<clipPath id="clip0_135_286">
<rect width="58.2781" height="62.5166" fill="white" transform="translate(11.125 9.00659)"/>
</clipPath>
</defs>
</svg>
