<svg width="137" height="64" viewBox="0 0 137 64" fill="none" xmlns="http://www.w3.org/2000/svg">
<rect width="137" height="64" rx="8" fill="white"/>
<rect x="11.5" y="10.5" width="31" height="31" rx="7.5" stroke="#DAD2FB"/>
<g clip-path="url(#clip0_135_555)">
<path d="M20.636 33.3639C19.3773 32.1052 18.5202 30.5016 18.1729 28.7558C17.8257 27.0099 18.0039 25.2004 18.6851 23.5558C19.3663 21.9113 20.5198 20.5057 21.9999 19.5168C23.4799 18.5278 25.22 18 27 18C28.78 18 30.5201 18.5278 32.0001 19.5168C33.4802 20.5057 34.6337 21.9113 35.3149 23.5558C35.9961 25.2004 36.1743 27.0099 35.8271 28.7558C35.4798 30.5016 34.6227 32.1052 33.364 33.3639" stroke="#6F56DA" stroke-width="2" stroke-linecap="round" stroke-linejoin="round"/>
<path d="M31 23L27 27" stroke="#6F56DA" stroke-width="2" stroke-linecap="round" stroke-linejoin="round"/>
</g>
<path d="M57.9446 30.179C56.9602 30.179 56.0845 30.0192 55.3175 29.6996C54.5547 29.3757 53.956 28.9347 53.5213 28.3764C53.0866 27.8182 52.8693 27.1854 52.8693 26.478C52.8693 25.9325 52.9929 25.4318 53.2401 24.9759C53.4915 24.5156 53.8324 24.1342 54.2628 23.8317C54.6932 23.5249 55.1747 23.3288 55.7074 23.2436V23.1541C55.0085 23.0135 54.4418 22.6747 54.0071 22.1378C53.5724 21.5966 53.3551 20.968 53.3551 20.2521C53.3551 19.5746 53.5533 18.9716 53.9496 18.4432C54.3459 17.9105 54.8892 17.4929 55.5795 17.1903C56.2741 16.8835 57.0625 16.7301 57.9446 16.7301C58.8267 16.7301 59.6129 16.8835 60.3033 17.1903C60.9979 17.4972 61.5433 17.9169 61.9396 18.4496C62.3359 18.978 62.5362 19.5788 62.5405 20.2521C62.5362 20.9723 62.3146 21.6009 61.8757 22.1378C61.4368 22.6747 60.8743 23.0135 60.1882 23.1541V23.2436C60.7124 23.3288 61.1875 23.5249 61.6136 23.8317C62.044 24.1342 62.3849 24.5156 62.6364 24.9759C62.892 25.4318 63.022 25.9325 63.0263 26.478C63.022 27.1854 62.8026 27.8182 62.3679 28.3764C61.9332 28.9347 61.3324 29.3757 60.5653 29.6996C59.8026 30.0192 58.929 30.179 57.9446 30.179ZM57.9446 28.1463C58.3835 28.1463 58.767 28.0675 59.0952 27.9098C59.4233 27.7479 59.679 27.5263 59.8622 27.245C60.0497 26.9595 60.1435 26.6314 60.1435 26.2607C60.1435 25.8814 60.0476 25.5469 59.8558 25.2571C59.6641 24.9631 59.4041 24.733 59.076 24.5668C58.7479 24.3963 58.3707 24.3111 57.9446 24.3111C57.5227 24.3111 57.1456 24.3963 56.8132 24.5668C56.4808 24.733 56.2188 24.9631 56.027 25.2571C55.8395 25.5469 55.7457 25.8814 55.7457 26.2607C55.7457 26.6314 55.8374 26.9595 56.0206 27.245C56.2038 27.5263 56.4616 27.7479 56.794 27.9098C57.1264 28.0675 57.5099 28.1463 57.9446 28.1463ZM57.9446 22.2976C58.3111 22.2976 58.6371 22.223 58.9226 22.0739C59.2081 21.9247 59.4318 21.718 59.5938 21.4538C59.7557 21.1896 59.8366 20.8849 59.8366 20.5398C59.8366 20.1989 59.7557 19.9006 59.5938 19.6449C59.4318 19.3849 59.2102 19.1825 58.929 19.0376C58.6477 18.8885 58.3196 18.8139 57.9446 18.8139C57.5739 18.8139 57.2457 18.8885 56.9602 19.0376C56.6747 19.1825 56.451 19.3849 56.2891 19.6449C56.1314 19.9006 56.0526 20.1989 56.0526 20.5398C56.0526 20.8849 56.1335 21.1896 56.2955 21.4538C56.4574 21.718 56.6811 21.9247 56.9666 22.0739C57.2521 22.223 57.5781 22.2976 57.9446 22.2976ZM69.698 16.7301C70.3713 16.7301 71.019 16.843 71.6412 17.0689C72.2676 17.2947 72.8258 17.6548 73.3159 18.1491C73.8102 18.6435 74.2001 19.2997 74.4856 20.1179C74.7754 20.9318 74.9224 21.9311 74.9267 23.1158C74.9267 24.228 74.801 25.2209 74.5495 26.0945C74.3024 26.9638 73.9466 27.7031 73.4821 28.3125C73.0176 28.9219 72.4572 29.3864 71.801 29.706C71.1447 30.0213 70.4118 30.179 69.6021 30.179C68.7285 30.179 67.9572 30.0107 67.2882 29.674C66.6191 29.3331 66.0801 28.8707 65.671 28.2869C65.2662 27.6989 65.0211 27.0384 64.9359 26.3054H67.6653C67.7718 26.7827 67.9956 27.1534 68.3365 27.4176C68.6774 27.6776 69.0993 27.8075 69.6021 27.8075C70.4544 27.8075 71.1021 27.4368 71.5453 26.6953C71.9885 25.9496 72.2122 24.929 72.2164 23.6335H72.127C71.9309 24.017 71.6667 24.3473 71.3343 24.6243C71.002 24.897 70.6206 25.108 70.1902 25.2571C69.764 25.4062 69.3102 25.4808 68.8287 25.4808C68.0574 25.4808 67.3691 25.2997 66.764 24.9375C66.1589 24.5753 65.6816 24.0767 65.3322 23.4418C64.9828 22.8068 64.8081 22.0824 64.8081 21.2685C64.8038 20.3906 65.0062 19.6087 65.4153 18.9226C65.8244 18.2365 66.3954 17.6996 67.1284 17.3118C67.8656 16.9197 68.7221 16.7259 69.698 16.7301ZM69.7172 18.9034C69.2868 18.9034 68.9032 19.0057 68.5666 19.2102C68.2342 19.4148 67.97 19.6896 67.774 20.0348C67.5822 20.38 67.4885 20.7656 67.4927 21.1918C67.4927 21.6222 67.5865 22.0099 67.774 22.3551C67.9657 22.696 68.2257 22.9687 68.5538 23.1733C68.8862 23.3736 69.2654 23.4737 69.6916 23.4737C70.0112 23.4737 70.3074 23.4141 70.5801 23.2947C70.8528 23.1754 71.0893 23.0114 71.2896 22.8026C71.4941 22.5895 71.6539 22.3445 71.769 22.0675C71.8841 21.7905 71.9416 21.4964 71.9416 21.1854C71.9373 20.772 71.8393 20.3928 71.6476 20.0476C71.4558 19.7024 71.1916 19.4254 70.8549 19.2166C70.5183 19.0078 70.139 18.9034 69.7172 18.9034ZM84.0098 27.5455V26.8551C84.0098 26.331 84.1206 25.8494 84.3422 25.4105C84.568 24.9673 84.894 24.6136 85.3201 24.3494C85.7505 24.081 86.2747 23.9467 86.8926 23.9467C87.519 23.9467 88.0453 24.0788 88.4714 24.343C88.9018 24.6072 89.2257 24.9609 89.443 25.4041C89.6646 25.843 89.7754 26.3267 89.7754 26.8551V27.5455C89.7754 28.0696 89.6646 28.5533 89.443 28.9964C89.2214 29.4354 88.8954 29.7869 88.465 30.0511C88.0346 30.3196 87.5105 30.4538 86.8926 30.4538C86.2662 30.4538 85.7399 30.3196 85.3137 30.0511C84.8876 29.7869 84.5637 29.4354 84.3422 28.9964C84.1206 28.5533 84.0098 28.0696 84.0098 27.5455ZM85.8699 26.8551V27.5455C85.8699 27.848 85.9423 28.1335 86.0872 28.402C86.2363 28.6705 86.5048 28.8047 86.8926 28.8047C87.2804 28.8047 87.5446 28.6726 87.6852 28.4084C87.8301 28.1442 87.9025 27.8565 87.9025 27.5455V26.8551C87.9025 26.544 87.8343 26.2543 87.698 25.9858C87.5616 25.7173 87.2931 25.5831 86.8926 25.5831C86.5091 25.5831 86.2427 25.7173 86.0936 25.9858C85.9444 26.2543 85.8699 26.544 85.8699 26.8551ZM77.2917 20.054V19.3636C77.2917 18.8352 77.4047 18.3516 77.6305 17.9126C77.8564 17.4695 78.1824 17.1158 78.6085 16.8516C79.0389 16.5874 79.5588 16.4553 80.1681 16.4553C80.7988 16.4553 81.3272 16.5874 81.7534 16.8516C82.1795 17.1158 82.5034 17.4695 82.725 17.9126C82.9466 18.3516 83.0574 18.8352 83.0574 19.3636V20.054C83.0574 20.5824 82.9444 21.0661 82.7186 21.505C82.497 21.9439 82.171 22.2955 81.7406 22.5597C81.3145 22.8196 80.7903 22.9496 80.1681 22.9496C79.546 22.9496 79.0197 22.8175 78.5893 22.5533C78.1632 22.2848 77.8393 21.9332 77.6177 21.4986C77.4004 21.0597 77.2917 20.5781 77.2917 20.054ZM79.1646 19.3636V20.054C79.1646 20.3651 79.237 20.6527 79.3819 20.9169C79.5311 21.1811 79.7931 21.3132 80.1681 21.3132C80.5602 21.3132 80.8265 21.1811 80.9672 20.9169C81.112 20.6527 81.1845 20.3651 81.1845 20.054V19.3636C81.1845 19.0526 81.1163 18.7628 80.9799 18.4943C80.8436 18.2259 80.573 18.0916 80.1681 18.0916C79.7889 18.0916 79.5268 18.228 79.3819 18.5007C79.237 18.7734 79.1646 19.0611 79.1646 19.3636ZM78.1355 30L87.1355 16.9091H88.8102L79.8102 30H78.1355Z" fill="#131415"/>
<path d="M52.8807 48V40.7273H57.2415V41.5085H53.7614V43.9659H56.9148V44.7472H53.7614V48H52.8807ZM60.2413 48.1278C59.8957 48.1278 59.582 48.0627 59.3002 47.9325C59.0185 47.8 58.7948 47.6094 58.6291 47.3608C58.4634 47.1098 58.3805 46.8068 58.3805 46.4517C58.3805 46.1392 58.4421 45.8859 58.5652 45.6918C58.6883 45.4953 58.8528 45.3414 59.0588 45.2301C59.2647 45.1188 59.492 45.036 59.7406 44.9815C59.9915 44.9247 60.2437 44.8797 60.497 44.8466C60.8284 44.804 61.0971 44.772 61.3031 44.7507C61.5114 44.727 61.6629 44.688 61.7576 44.6335C61.8547 44.5791 61.9032 44.4844 61.9032 44.3494V44.321C61.9032 43.9706 61.8074 43.6984 61.6156 43.5043C61.4262 43.3101 61.1386 43.2131 60.7527 43.2131C60.3526 43.2131 60.0389 43.3007 59.8116 43.4759C59.5843 43.651 59.4245 43.8381 59.3322 44.0369L58.5368 43.7528C58.6788 43.4214 58.8682 43.1634 59.1049 42.9787C59.344 42.7917 59.6045 42.6615 59.8862 42.5881C60.1703 42.5123 60.4496 42.4744 60.7243 42.4744C60.8994 42.4744 61.1007 42.4957 61.3279 42.5384C61.5576 42.5786 61.7789 42.6626 61.992 42.7905C62.2074 42.9183 62.3862 43.1113 62.5282 43.3693C62.6703 43.6274 62.7413 43.973 62.7413 44.4062V48H61.9032V47.2614H61.8606C61.8038 47.3797 61.7091 47.5064 61.5765 47.6413C61.444 47.7763 61.2676 47.8911 61.0474 47.9858C60.8272 48.0805 60.5585 48.1278 60.2413 48.1278ZM60.3691 47.375C60.7006 47.375 60.9799 47.3099 61.2072 47.1797C61.4368 47.0495 61.6097 46.8814 61.7257 46.6754C61.844 46.4695 61.9032 46.2528 61.9032 46.0256V45.2585C61.8677 45.3011 61.7896 45.3402 61.6689 45.3757C61.5505 45.4089 61.4132 45.4384 61.2569 45.4645C61.103 45.4882 60.9527 45.5095 60.8059 45.5284C60.6615 45.545 60.5443 45.5592 60.4544 45.571C60.2366 45.5994 60.033 45.6456 59.8436 45.7095C59.6565 45.7711 59.505 45.8646 59.389 45.9901C59.2754 46.1132 59.2186 46.2812 59.2186 46.4943C59.2186 46.7855 59.3263 47.0057 59.5417 47.1548C59.7595 47.3016 60.0353 47.375 60.3691 47.375ZM68.1346 43.767L67.3817 43.9801C67.3344 43.8546 67.2646 43.7327 67.1722 43.6143C67.0823 43.4936 66.9592 43.3942 66.8029 43.3161C66.6467 43.2379 66.4466 43.1989 66.2028 43.1989C65.869 43.1989 65.5908 43.2758 65.3683 43.4297C65.1481 43.5812 65.038 43.7741 65.038 44.0085C65.038 44.2169 65.1138 44.3814 65.2653 44.5021C65.4168 44.6229 65.6535 44.7235 65.9755 44.804L66.7852 45.0028C67.2728 45.1212 67.6362 45.3023 67.8754 45.5462C68.1145 45.7876 68.234 46.099 68.234 46.4801C68.234 46.7926 68.1441 47.072 67.9641 47.3182C67.7866 47.5644 67.538 47.7585 67.2184 47.9006C66.8988 48.0426 66.5271 48.1136 66.1033 48.1136C65.547 48.1136 65.0865 47.9929 64.7219 47.7514C64.3574 47.5099 64.1265 47.1572 64.0295 46.6932L64.8249 46.4943C64.9007 46.7879 65.0439 47.008 65.2546 47.1548C65.4677 47.3016 65.7459 47.375 66.0891 47.375C66.4798 47.375 66.7899 47.2921 67.0195 47.1264C67.2515 46.9583 67.3675 46.7571 67.3675 46.5227C67.3675 46.3333 67.3013 46.1747 67.1687 46.0469C67.0361 45.9167 66.8325 45.8196 66.5579 45.7557L65.6488 45.5426C65.1493 45.4242 64.7823 45.2408 64.5479 44.9922C64.3159 44.7412 64.1999 44.4276 64.1999 44.0511C64.1999 43.7434 64.2863 43.4711 64.4592 43.2344C64.6344 42.9976 64.8723 42.8118 65.1729 42.6768C65.476 42.5419 65.8192 42.4744 66.2028 42.4744C66.7425 42.4744 67.1663 42.5928 67.4741 42.8295C67.7842 43.0663 68.0044 43.3788 68.1346 43.767ZM71.8677 42.5455V43.2557H69.041V42.5455H71.8677ZM69.8649 41.2386H70.7029V46.4375C70.7029 46.6742 70.7373 46.8518 70.8059 46.9702C70.877 47.0862 70.9669 47.1643 71.0758 47.2045C71.1871 47.2424 71.3043 47.2614 71.4274 47.2614C71.5197 47.2614 71.5955 47.2566 71.6547 47.2472C71.7138 47.2353 71.7612 47.2259 71.7967 47.2188L71.9672 47.9716C71.9103 47.9929 71.831 48.0142 71.7292 48.0355C71.6274 48.0592 71.4984 48.071 71.3422 48.071C71.1054 48.071 70.8734 48.0201 70.6461 47.9183C70.4212 47.8165 70.2342 47.6615 70.085 47.4531C69.9383 47.2448 69.8649 46.982 69.8649 46.6648V41.2386ZM75.3567 48.1136C74.8311 48.1136 74.3778 47.9976 73.9966 47.7656C73.6178 47.5312 73.3255 47.2045 73.1195 46.7855C72.9159 46.3641 72.8141 45.8741 72.8141 45.3153C72.8141 44.7566 72.9159 44.2642 73.1195 43.8381C73.3255 43.4096 73.6119 43.0758 73.9789 42.8366C74.3482 42.5952 74.7791 42.4744 75.2715 42.4744C75.5556 42.4744 75.8361 42.5218 76.1131 42.6165C76.3901 42.7112 76.6422 42.8651 76.8695 43.0781C77.0968 43.2888 77.2779 43.5682 77.4128 43.9162C77.5478 44.2642 77.6152 44.6927 77.6152 45.2017V45.5568H73.4107V44.8324H76.763C76.763 44.5246 76.7014 44.25 76.5783 44.0085C76.4576 43.767 76.2847 43.5765 76.0598 43.4368C75.8373 43.2971 75.5745 43.2273 75.2715 43.2273C74.9377 43.2273 74.6489 43.3101 74.405 43.4759C74.1635 43.6392 73.9777 43.8523 73.8475 44.1151C73.7173 44.3778 73.6522 44.6596 73.6522 44.9602V45.4432C73.6522 45.8551 73.7232 46.2043 73.8652 46.4908C74.0096 46.7749 74.2097 46.9915 74.4654 47.1406C74.7211 47.2874 75.0182 47.3608 75.3567 47.3608C75.5769 47.3608 75.7757 47.33 75.9533 47.2685C76.1332 47.2045 76.2883 47.1098 76.4185 46.9844C76.5487 46.8565 76.6493 46.6979 76.7203 46.5085L77.53 46.7358C77.4448 47.0104 77.3016 47.2519 77.1003 47.4602C76.8991 47.6662 76.6505 47.8272 76.3546 47.9432C76.0587 48.0568 75.726 48.1136 75.3567 48.1136ZM78.8901 48V42.5455H79.6998V43.3693H79.7566C79.856 43.0994 80.0359 42.8804 80.2963 42.7124C80.5568 42.5443 80.8503 42.4602 81.177 42.4602C81.2386 42.4602 81.3155 42.4614 81.4078 42.4638C81.5002 42.4661 81.57 42.4697 81.6174 42.4744V43.3267C81.589 43.3196 81.5239 43.3089 81.4221 43.2947C81.3226 43.2782 81.2173 43.2699 81.106 43.2699C80.8409 43.2699 80.6041 43.3255 80.3958 43.4368C80.1898 43.5457 80.0265 43.6972 79.9057 43.8913C79.7873 44.0831 79.7282 44.3021 79.7282 44.5483V48H78.8901ZM86.858 48L84.8693 40.7273H85.7642L87.2841 46.6506H87.3551L88.9034 40.7273H89.8977L91.446 46.6506H91.517L93.0369 40.7273H93.9318L91.9432 48H91.0341L89.429 42.2045H89.3722L87.767 48H86.858ZM96.6946 48.1136C96.169 48.1136 95.7157 47.9976 95.3345 47.7656C94.9557 47.5312 94.6634 47.2045 94.4574 46.7855C94.2538 46.3641 94.152 45.8741 94.152 45.3153C94.152 44.7566 94.2538 44.2642 94.4574 43.8381C94.6634 43.4096 94.9498 43.0758 95.3168 42.8366C95.6861 42.5952 96.117 42.4744 96.6094 42.4744C96.8935 42.4744 97.174 42.5218 97.451 42.6165C97.728 42.7112 97.9801 42.8651 98.2074 43.0781C98.4347 43.2888 98.6158 43.5682 98.7507 43.9162C98.8857 44.2642 98.9531 44.6927 98.9531 45.2017V45.5568H94.7486V44.8324H98.1009C98.1009 44.5246 98.0393 44.25 97.9162 44.0085C97.7955 43.767 97.6226 43.5765 97.3977 43.4368C97.1752 43.2971 96.9124 43.2273 96.6094 43.2273C96.2756 43.2273 95.9867 43.3101 95.7429 43.4759C95.5014 43.6392 95.3156 43.8523 95.1854 44.1151C95.0552 44.3778 94.9901 44.6596 94.9901 44.9602V45.4432C94.9901 45.8551 95.0611 46.2043 95.2031 46.4908C95.3475 46.7749 95.5476 46.9915 95.8033 47.1406C96.0589 47.2874 96.3561 47.3608 96.6946 47.3608C96.9148 47.3608 97.1136 47.33 97.2912 47.2685C97.4711 47.2045 97.6262 47.1098 97.7564 46.9844C97.8866 46.8565 97.9872 46.6979 98.0582 46.5085L98.8679 46.7358C98.7827 47.0104 98.6394 47.2519 98.4382 47.4602C98.237 47.6662 97.9884 47.8272 97.6925 47.9432C97.3965 48.0568 97.0639 48.1136 96.6946 48.1136ZM100.342 48V40.7273H101.18V43.4119H101.251C101.312 43.3172 101.397 43.1965 101.506 43.0497C101.618 42.9006 101.776 42.768 101.982 42.652C102.191 42.5336 102.472 42.4744 102.827 42.4744C103.287 42.4744 103.692 42.5893 104.042 42.8189C104.392 43.0485 104.666 43.3741 104.862 43.7955C105.059 44.2169 105.157 44.714 105.157 45.2869C105.157 45.8646 105.059 46.3653 104.862 46.7891C104.666 47.2105 104.393 47.5372 104.045 47.7692C103.697 47.9988 103.296 48.1136 102.842 48.1136C102.491 48.1136 102.211 48.0556 102 47.9396C101.789 47.8213 101.627 47.6875 101.513 47.5384C101.4 47.3868 101.312 47.2614 101.251 47.1619H101.151V48H100.342ZM101.165 45.2727C101.165 45.6847 101.226 46.0481 101.347 46.3629C101.467 46.6754 101.644 46.9205 101.876 47.098C102.108 47.2732 102.392 47.3608 102.728 47.3608C103.078 47.3608 103.371 47.2685 103.605 47.0838C103.842 46.8968 104.019 46.6458 104.138 46.331C104.259 46.0137 104.319 45.661 104.319 45.2727C104.319 44.8892 104.26 44.5436 104.141 44.2358C104.025 43.9257 103.849 43.6806 103.612 43.5007C103.378 43.3184 103.083 43.2273 102.728 43.2273C102.387 43.2273 102.101 43.3137 101.869 43.4865C101.637 43.657 101.461 43.8961 101.343 44.2038C101.225 44.5092 101.165 44.8655 101.165 45.2727ZM110.303 43.767L109.55 43.9801C109.502 43.8546 109.433 43.7327 109.34 43.6143C109.25 43.4936 109.127 43.3942 108.971 43.3161C108.815 43.2379 108.615 43.1989 108.371 43.1989C108.037 43.1989 107.759 43.2758 107.536 43.4297C107.316 43.5812 107.206 43.7741 107.206 44.0085C107.206 44.2169 107.282 44.3814 107.433 44.5021C107.585 44.6229 107.821 44.7235 108.143 44.804L108.953 45.0028C109.441 45.1212 109.804 45.3023 110.043 45.5462C110.282 45.7876 110.402 46.099 110.402 46.4801C110.402 46.7926 110.312 47.072 110.132 47.3182C109.955 47.5644 109.706 47.7585 109.386 47.9006C109.067 48.0426 108.695 48.1136 108.271 48.1136C107.715 48.1136 107.254 47.9929 106.89 47.7514C106.525 47.5099 106.295 47.1572 106.197 46.6932L106.993 46.4943C107.069 46.7879 107.212 47.008 107.423 47.1548C107.636 47.3016 107.914 47.375 108.257 47.375C108.648 47.375 108.958 47.2921 109.188 47.1264C109.42 46.9583 109.536 46.7571 109.536 46.5227C109.536 46.3333 109.469 46.1747 109.337 46.0469C109.204 45.9167 109 45.8196 108.726 45.7557L107.817 45.5426C107.317 45.4242 106.95 45.2408 106.716 44.9922C106.484 44.7412 106.368 44.4276 106.368 44.0511C106.368 43.7434 106.454 43.4711 106.627 43.2344C106.802 42.9976 107.04 42.8118 107.341 42.6768C107.644 42.5419 107.987 42.4744 108.371 42.4744C108.911 42.4744 109.334 42.5928 109.642 42.8295C109.952 43.0663 110.172 43.3788 110.303 43.767ZM111.664 48V42.5455H112.502V48H111.664ZM112.09 41.6364C111.926 41.6364 111.785 41.5807 111.667 41.4695C111.551 41.3582 111.493 41.2244 111.493 41.0682C111.493 40.9119 111.551 40.7782 111.667 40.6669C111.785 40.5556 111.926 40.5 112.09 40.5C112.253 40.5 112.393 40.5556 112.509 40.6669C112.627 40.7782 112.686 40.9119 112.686 41.0682C112.686 41.2244 112.627 41.3582 112.509 41.4695C112.393 41.5807 112.253 41.6364 112.09 41.6364ZM116.409 42.5455V43.2557H113.582V42.5455H116.409ZM114.406 41.2386H115.244V46.4375C115.244 46.6742 115.278 46.8518 115.347 46.9702C115.418 47.0862 115.508 47.1643 115.617 47.2045C115.728 47.2424 115.845 47.2614 115.968 47.2614C116.061 47.2614 116.136 47.2566 116.196 47.2472C116.255 47.2353 116.302 47.2259 116.338 47.2188L116.508 47.9716C116.451 47.9929 116.372 48.0142 116.27 48.0355C116.168 48.0592 116.039 48.071 115.883 48.071C115.646 48.071 115.414 48.0201 115.187 47.9183C114.962 47.8165 114.775 47.6615 114.626 47.4531C114.479 47.2448 114.406 46.982 114.406 46.6648V41.2386ZM119.898 48.1136C119.372 48.1136 118.919 47.9976 118.538 47.7656C118.159 47.5312 117.866 47.2045 117.661 46.7855C117.457 46.3641 117.355 45.8741 117.355 45.3153C117.355 44.7566 117.457 44.2642 117.661 43.8381C117.866 43.4096 118.153 43.0758 118.52 42.8366C118.889 42.5952 119.32 42.4744 119.812 42.4744C120.097 42.4744 120.377 42.5218 120.654 42.6165C120.931 42.7112 121.183 42.8651 121.411 43.0781C121.638 43.2888 121.819 43.5682 121.954 43.9162C122.089 44.2642 122.156 44.6927 122.156 45.2017V45.5568H117.952V44.8324H121.304C121.304 44.5246 121.242 44.25 121.119 44.0085C120.999 43.767 120.826 43.5765 120.601 43.4368C120.378 43.2971 120.116 43.2273 119.812 43.2273C119.479 43.2273 119.19 43.3101 118.946 43.4759C118.705 43.6392 118.519 43.8523 118.388 44.1151C118.258 44.3778 118.193 44.6596 118.193 44.9602V45.4432C118.193 45.8551 118.264 46.2043 118.406 46.4908C118.551 46.7749 118.751 46.9915 119.006 47.1406C119.262 47.2874 119.559 47.3608 119.898 47.3608C120.118 47.3608 120.317 47.33 120.494 47.2685C120.674 47.2045 120.829 47.1098 120.96 46.9844C121.09 46.8565 121.19 46.6979 121.261 46.5085L122.071 46.7358C121.986 47.0104 121.843 47.2519 121.641 47.4602C121.44 47.6662 121.192 47.8272 120.896 47.9432C120.6 48.0568 120.267 48.1136 119.898 48.1136Z" fill="#404248"/>
<defs>
<clipPath id="clip0_135_555">
<rect width="24" height="24" fill="white" transform="translate(15 14)"/>
</clipPath>
</defs>
</svg>
