<svg width="120" height="129" viewBox="0 0 120 129" fill="none" xmlns="http://www.w3.org/2000/svg">
<rect x="0.416667" y="0.416667" width="119.167" height="128" rx="6.25" fill="white"/>
<rect x="0.416667" y="0.416667" width="119.167" height="128" rx="6.25" stroke="#FF4C4C" stroke-width="0.833333"/>
<path d="M44.2888 45.1085C44.8499 45.1085 45.3897 45.2026 45.9082 45.3908C46.4302 45.579 46.8954 45.8791 47.3038 46.291C47.7157 46.703 48.0406 47.2498 48.2785 47.9317C48.52 48.6099 48.6425 49.4427 48.6461 50.4299C48.6461 51.3567 48.5413 52.1841 48.3318 52.9121C48.1258 53.6366 47.8293 54.2527 47.4423 54.7605C47.0552 55.2683 46.5882 55.6554 46.0413 55.9217C45.4945 56.1845 44.8837 56.3159 44.2089 56.3159C43.481 56.3159 42.8382 56.1756 42.2807 55.8951C41.7231 55.611 41.2739 55.2257 40.933 54.7392C40.5957 54.2491 40.3915 53.6987 40.3204 53.0879H42.5949C42.6837 53.4856 42.8702 53.7946 43.1543 54.0148C43.4383 54.2314 43.7899 54.3397 44.2089 54.3397C44.9192 54.3397 45.4589 54.0307 45.8283 53.4128C46.1976 52.7914 46.384 51.9409 46.3876 50.8614H46.313C46.1496 51.181 45.9295 51.4562 45.6525 51.687C45.3755 51.9143 45.0577 52.09 44.699 52.2143C44.3439 52.3386 43.9657 52.4008 43.5644 52.4008C42.9217 52.4008 42.3481 52.2498 41.8439 51.948C41.3396 51.6462 40.9419 51.2307 40.6507 50.7015C40.3595 50.1724 40.2139 49.5687 40.2139 48.8905C40.2104 48.1589 40.379 47.5073 40.7199 46.9356C41.0609 46.3638 41.5367 45.9164 42.1475 45.5932C42.7619 45.2665 43.4756 45.105 44.2888 45.1085ZM44.3048 46.9196C43.9462 46.9196 43.6266 47.0048 43.346 47.1753C43.069 47.3457 42.8489 47.5748 42.6855 47.8624C42.5257 48.1501 42.4476 48.4714 42.4511 48.8265C42.4511 49.1852 42.5293 49.5084 42.6855 49.796C42.8453 50.0801 43.0619 50.3074 43.3354 50.4778C43.6123 50.6447 43.9284 50.7282 44.2835 50.7282C44.5498 50.7282 44.7967 50.6785 45.0239 50.579C45.2512 50.4796 45.4483 50.3429 45.6152 50.1689C45.7856 49.9913 45.9188 49.7871 46.0147 49.5563C46.1106 49.3255 46.1585 49.0805 46.1585 48.8212C46.155 48.4768 46.0733 48.1607 45.9135 47.8731C45.7537 47.5854 45.5335 47.3546 45.253 47.1806C44.9724 47.0066 44.6564 46.9196 44.3048 46.9196ZM54.1912 45.1085C54.7523 45.1085 55.292 45.2026 55.8105 45.3908C56.3325 45.579 56.7977 45.8791 57.2061 46.291C57.618 46.703 57.943 47.2498 58.1809 47.9317C58.4224 48.6099 58.5449 49.4427 58.5484 50.4299C58.5484 51.3567 58.4437 52.1841 58.2342 52.9121C58.0282 53.6366 57.7317 54.2527 57.3446 54.7605C56.9575 55.2683 56.4905 55.6554 55.9437 55.9217C55.3968 56.1845 54.786 56.3159 54.1113 56.3159C53.3833 56.3159 52.7405 56.1756 52.183 55.8951C51.6255 55.611 51.1763 55.2257 50.8354 54.7392C50.498 54.2491 50.2938 53.6987 50.2228 53.0879H52.4973C52.5861 53.4856 52.7725 53.7946 53.0566 54.0148C53.3407 54.2314 53.6922 54.3397 54.1113 54.3397C54.8215 54.3397 55.3613 54.0307 55.7306 53.4128C56.0999 52.7914 56.2864 51.9409 56.2899 50.8614H56.2153C56.052 51.181 55.8318 51.4562 55.5548 51.687C55.2778 51.9143 54.96 52.09 54.6013 52.2143C54.2462 52.3386 53.868 52.4008 53.4668 52.4008C52.824 52.4008 52.2505 52.2498 51.7462 51.948C51.242 51.6462 50.8442 51.2307 50.553 50.7015C50.2619 50.1724 50.1163 49.5687 50.1163 48.8905C50.1127 48.1589 50.2814 47.5073 50.6223 46.9356C50.9632 46.3638 51.4391 45.9164 52.0498 45.5932C52.6642 45.2665 53.378 45.105 54.1912 45.1085ZM54.2072 46.9196C53.8485 46.9196 53.5289 47.0048 53.2484 47.1753C52.9714 47.3457 52.7512 47.5748 52.5878 47.8624C52.428 48.1501 52.3499 48.4714 52.3535 48.8265C52.3535 49.1852 52.4316 49.5084 52.5878 49.796C52.7476 50.0801 52.9643 50.3074 53.2377 50.4778C53.5147 50.6447 53.8307 50.7282 54.1859 50.7282C54.4522 50.7282 54.699 50.6785 54.9263 50.579C55.1535 50.4796 55.3506 50.3429 55.5175 50.1689C55.688 49.9913 55.8212 49.7871 55.917 49.5563C56.0129 49.3255 56.0609 49.0805 56.0609 48.8212C56.0573 48.4768 55.9756 48.1607 55.8158 47.8731C55.656 47.5854 55.4359 47.3546 55.1553 47.1806C54.8748 47.0066 54.5587 46.9196 54.2072 46.9196ZM61.0546 56.3052C60.7031 56.3052 60.4012 56.181 60.1491 55.9324C59.9005 55.6802 59.7762 55.3784 59.7762 55.0268C59.7762 54.6788 59.9005 54.3805 60.1491 54.1319C60.4012 53.8834 60.7031 53.7591 61.0546 53.7591C61.3956 53.7591 61.6938 53.8834 61.9495 54.1319C62.2052 54.3805 62.3331 54.6788 62.3331 55.0268C62.3331 55.2612 62.2727 55.4761 62.1519 55.6714C62.0348 55.8631 61.8803 56.0176 61.6885 56.1348C61.4968 56.2484 61.2855 56.3052 61.0546 56.3052ZM67.9168 45.1085C68.4778 45.1085 69.0176 45.2026 69.5361 45.3908C70.0581 45.579 70.5233 45.8791 70.9317 46.291C71.3436 46.703 71.6685 47.2498 71.9065 47.9317C72.1479 48.6099 72.2705 49.4427 72.274 50.4299C72.274 51.3567 72.1693 52.1841 71.9597 52.9121C71.7538 53.6366 71.4573 54.2527 71.0702 54.7605C70.6831 55.2683 70.2161 55.6554 69.6693 55.9217C69.1224 56.1845 68.5116 56.3159 67.8369 56.3159C67.1089 56.3159 66.4661 56.1756 65.9086 55.8951C65.3511 55.611 64.9019 55.2257 64.5609 54.7392C64.2236 54.2491 64.0194 53.6987 63.9484 53.0879H66.2229C66.3117 53.4856 66.4981 53.7946 66.7822 54.0148C67.0663 54.2314 67.4178 54.3397 67.8369 54.3397C68.5471 54.3397 69.0869 54.0307 69.4562 53.4128C69.8255 52.7914 70.0119 51.9409 70.0155 50.8614H69.9409C69.7776 51.181 69.5574 51.4562 69.2804 51.687C69.0034 51.9143 68.6856 52.09 68.3269 52.2143C67.9718 52.3386 67.5936 52.4008 67.1923 52.4008C66.5496 52.4008 65.9761 52.2498 65.4718 51.948C64.9676 51.6462 64.5698 51.2307 64.2786 50.7015C63.9874 50.1724 63.8418 49.5687 63.8418 48.8905C63.8383 48.1589 64.007 47.5073 64.3479 46.9356C64.6888 46.3638 65.1646 45.9164 65.7754 45.5932C66.3898 45.2665 67.1036 45.105 67.9168 45.1085ZM67.9328 46.9196C67.5741 46.9196 67.2545 47.0048 66.9739 47.1753C66.697 47.3457 66.4768 47.5748 66.3134 47.8624C66.1536 48.1501 66.0755 48.4714 66.0791 48.8265C66.0791 49.1852 66.1572 49.5084 66.3134 49.796C66.4732 50.0801 66.6899 50.3074 66.9633 50.4778C67.2403 50.6447 67.5563 50.7282 67.9114 50.7282C68.1778 50.7282 68.4246 50.6785 68.6519 50.579C68.8791 50.4796 69.0762 50.3429 69.2431 50.1689C69.4136 49.9913 69.5467 49.7871 69.6426 49.5563C69.7385 49.3255 69.7864 49.0805 69.7864 48.8212C69.7829 48.4768 69.7012 48.1607 69.5414 47.8731C69.3816 47.5854 69.1614 47.3546 68.8809 47.1806C68.6004 47.0066 68.2843 46.9196 67.9328 46.9196ZM79.8433 54.1213V53.546C79.8433 53.1092 79.9356 52.7079 80.1203 52.3422C80.3085 51.9729 80.5801 51.6781 80.9352 51.4579C81.2939 51.2342 81.7307 51.1224 82.2456 51.1224C82.7676 51.1224 83.2062 51.2324 83.5613 51.4526C83.92 51.6728 84.1899 51.9675 84.371 52.3368C84.5556 52.7026 84.6479 53.1057 84.6479 53.546V54.1213C84.6479 54.5581 84.5556 54.9611 84.371 55.3305C84.1863 55.6962 83.9146 55.9892 83.556 56.2094C83.1973 56.4331 82.7605 56.5449 82.2456 56.5449C81.7236 56.5449 81.285 56.4331 80.9299 56.2094C80.5748 55.9892 80.3049 55.6962 80.1203 55.3305C79.9356 54.9611 79.8433 54.5581 79.8433 54.1213ZM81.3933 53.546V54.1213C81.3933 54.3734 81.4537 54.6114 81.5744 54.8351C81.6987 55.0588 81.9225 55.1707 82.2456 55.1707C82.5688 55.1707 82.7889 55.0606 82.9061 54.8404C83.0269 54.6202 83.0872 54.3805 83.0872 54.1213V53.546C83.0872 53.2868 83.0304 53.0453 82.9168 52.8216C82.8031 52.5979 82.5794 52.486 82.2456 52.486C81.926 52.486 81.7041 52.5979 81.5798 52.8216C81.4555 53.0453 81.3933 53.2868 81.3933 53.546ZM74.2449 47.8784V47.3031C74.2449 46.8628 74.339 46.4597 74.5272 46.0939C74.7154 45.7246 74.9871 45.4299 75.3422 45.2097C75.7009 44.9895 76.1341 44.8795 76.6419 44.8795C77.1675 44.8795 77.6078 44.9895 77.9629 45.2097C78.318 45.4299 78.5879 45.7246 78.7726 46.0939C78.9573 46.4597 79.0496 46.8628 79.0496 47.3031V47.8784C79.0496 48.3187 78.9555 48.7218 78.7673 49.0876C78.5826 49.4533 78.3109 49.7463 77.9523 49.9665C77.5972 50.1831 77.1604 50.2914 76.6419 50.2914C76.1234 50.2914 75.6849 50.1813 75.3262 49.9611C74.9711 49.7374 74.7012 49.4444 74.5166 49.0822C74.3354 48.7165 74.2449 48.3152 74.2449 47.8784ZM75.8056 47.3031V47.8784C75.8056 48.1376 75.866 48.3773 75.9867 48.5975C76.111 48.8177 76.3294 48.9278 76.6419 48.9278C76.9686 48.9278 77.1906 48.8177 77.3078 48.5975C77.4285 48.3773 77.4889 48.1376 77.4889 47.8784V47.3031C77.4889 47.0439 77.432 46.8024 77.3184 46.5787C77.2048 46.355 76.9793 46.2431 76.6419 46.2431C76.3259 46.2431 76.1075 46.3567 75.9867 46.584C75.866 46.8113 75.8056 47.051 75.8056 47.3031ZM74.948 56.1667L82.448 45.2577H83.8436L76.3436 56.1667H74.948Z" fill="black"/>
<path d="M97.5 50.8334C97.5 71.5441 80.7107 88.3334 60 88.3334C39.2893 88.3334 22.5 71.5441 22.5 50.8334C22.5 30.1227 39.2893 13.3334 60 13.3334C80.7107 13.3334 97.5 30.1227 97.5 50.8334ZM30 50.8334C30 67.4019 43.4315 80.8334 60 80.8334C76.5685 80.8334 90 67.4019 90 50.8334C90 34.2648 76.5685 20.8334 60 20.8334C43.4315 20.8334 30 34.2648 30 50.8334Z" fill="#F2F0FC"/>
<g filter="url(#filter0_i_784_348)">
<path d="M60 17.0834C60 15.0123 61.6833 13.3139 63.744 13.5206C71.8264 14.3314 79.4654 17.7512 85.4757 23.3154C92.4073 29.7325 96.6618 38.5293 97.3888 47.9472C98.1158 57.3652 95.2617 66.7107 89.3971 74.1156C83.5324 81.5205 75.0892 86.4394 65.7551 87.8891C56.421 89.3388 46.8836 87.2125 39.0493 81.9351C31.215 76.6578 25.6609 68.6182 23.4971 59.4234C21.3333 50.2285 22.7193 40.5558 27.3781 32.3385C31.4176 25.2135 37.6595 19.6379 45.1153 16.4139C47.0162 15.5919 49.1353 16.6997 49.7635 18.6732C50.3916 20.6467 49.2874 22.7347 47.4076 23.604C41.7457 26.2223 37.0096 30.557 33.9025 36.0375C30.1755 42.6113 29.0667 50.3495 30.7977 57.7054C32.5287 65.0613 36.972 71.4929 43.2395 75.7148C49.5069 79.9367 57.1368 81.6377 64.6041 80.478C72.0714 79.3182 78.8259 75.3831 83.5177 69.4592C88.2094 63.5352 90.4926 56.0589 89.911 48.5245C89.3294 40.9901 85.9258 33.9527 80.3805 28.819C75.7575 24.539 69.9298 21.8451 63.7404 21.0674C61.6855 20.8092 60 19.1544 60 17.0834Z" fill="#FF4C4C"/>
</g>
<path d="M24.5573 104.065C24.5118 103.662 24.3243 103.349 23.9948 103.128C23.6652 102.903 23.2505 102.791 22.7505 102.791C22.3925 102.791 22.0829 102.848 21.8215 102.962C21.5601 103.072 21.357 103.226 21.2121 103.422C21.0701 103.615 20.9991 103.835 20.9991 104.082C20.9991 104.29 21.0473 104.469 21.1439 104.619C21.2434 104.77 21.3726 104.896 21.5317 104.999C21.6937 105.098 21.867 105.182 22.0516 105.25C22.2363 105.315 22.4138 105.369 22.5843 105.412L23.4366 105.634C23.715 105.702 24.0005 105.794 24.2931 105.911C24.5857 106.027 24.857 106.18 25.107 106.371C25.357 106.561 25.5587 106.797 25.7121 107.078C25.8684 107.359 25.9465 107.696 25.9465 108.088C25.9465 108.582 25.8187 109.021 25.563 109.405C25.3101 109.788 24.9422 110.091 24.4593 110.312C23.9792 110.534 23.3982 110.645 22.7164 110.645C22.063 110.645 21.4976 110.541 21.0204 110.334C20.5431 110.126 20.1695 109.832 19.8996 109.452C19.6297 109.068 19.4806 108.614 19.4522 108.088H20.7732C20.7988 108.403 20.901 108.666 21.08 108.876C21.2618 109.084 21.4934 109.239 21.7746 109.341C22.0587 109.44 22.3698 109.49 22.7079 109.49C23.08 109.49 23.411 109.432 23.7008 109.315C23.9934 109.196 24.2235 109.031 24.3911 108.821C24.5587 108.608 24.6425 108.359 24.6425 108.075C24.6425 107.817 24.5687 107.605 24.4209 107.44C24.276 107.276 24.0786 107.139 23.8286 107.031C23.5814 106.923 23.3016 106.828 22.9891 106.746L21.9579 106.464C21.259 106.274 20.705 105.994 20.2959 105.625C19.8897 105.256 19.6866 104.767 19.6866 104.159C19.6866 103.656 19.8229 103.217 20.0956 102.842C20.3684 102.467 20.7377 102.176 21.2036 101.969C21.6695 101.759 22.1951 101.653 22.7803 101.653C23.3712 101.653 23.8925 101.757 24.3442 101.964C24.7988 102.172 25.1567 102.457 25.4181 102.821C25.6795 103.182 25.8158 103.597 25.8272 104.065H24.5573ZM30.2388 110.632C29.5939 110.632 29.0385 110.494 28.5726 110.219C28.1095 109.94 27.7515 109.55 27.4987 109.047C27.2487 108.541 27.1237 107.949 27.1237 107.27C27.1237 106.599 27.2487 106.009 27.4987 105.497C27.7515 104.986 28.1038 104.587 28.5555 104.3C29.0101 104.013 29.5413 103.869 30.1493 103.869C30.5186 103.869 30.8765 103.93 31.2231 104.053C31.5697 104.175 31.8808 104.366 32.1564 104.628C32.4319 104.889 32.6493 105.229 32.8084 105.646C32.9674 106.061 33.047 106.565 33.047 107.159V107.611H27.8439V106.656H31.7984C31.7984 106.321 31.7302 106.024 31.5939 105.766C31.4575 105.504 31.2657 105.298 31.0186 105.148C30.7743 104.997 30.4873 104.922 30.1578 104.922C29.7998 104.922 29.4873 105.01 29.2203 105.186C28.9561 105.359 28.7515 105.587 28.6067 105.868C28.4646 106.146 28.3936 106.449 28.3936 106.776V107.521C28.3936 107.959 28.4703 108.331 28.6237 108.638C28.7799 108.945 28.9973 109.179 29.2757 109.341C29.5541 109.5 29.8794 109.58 30.2515 109.58C30.493 109.58 30.7132 109.545 30.9121 109.477C31.1109 109.406 31.2828 109.301 31.4277 109.162C31.5726 109.023 31.6834 108.851 31.7601 108.646L32.966 108.864C32.8694 109.219 32.6961 109.53 32.4461 109.797C32.199 110.061 31.8879 110.267 31.5129 110.415C31.1407 110.56 30.716 110.632 30.2388 110.632ZM34.4607 110.5V103.955H35.6922V104.994H35.7604C35.8797 104.642 36.09 104.365 36.3911 104.163C36.6951 103.959 37.0388 103.857 37.4223 103.857C37.5019 103.857 37.5956 103.859 37.7036 103.865C37.8144 103.871 37.901 103.878 37.9635 103.886V105.105C37.9124 105.091 37.8215 105.075 37.6908 105.058C37.5601 105.038 37.4295 105.028 37.2988 105.028C36.9976 105.028 36.7292 105.092 36.4934 105.22C36.2604 105.345 36.0758 105.52 35.9394 105.744C35.803 105.966 35.7348 106.219 35.7348 106.503V110.5H34.4607ZM44.8648 103.955L42.4912 110.5H41.1276L38.7498 103.955H40.1177L41.7753 108.991H41.8435L43.4969 103.955H44.8648ZM48.6606 110.632C48.0157 110.632 47.4603 110.494 46.9944 110.219C46.5314 109.94 46.1734 109.55 45.9206 109.047C45.6706 108.541 45.5456 107.949 45.5456 107.27C45.5456 106.599 45.6706 106.009 45.9206 105.497C46.1734 104.986 46.5257 104.587 46.9774 104.3C47.4319 104.013 47.9632 103.869 48.5711 103.869C48.9405 103.869 49.2984 103.93 49.645 104.053C49.9916 104.175 50.3027 104.366 50.5782 104.628C50.8538 104.889 51.0711 105.229 51.2302 105.646C51.3893 106.061 51.4689 106.565 51.4689 107.159V107.611H46.2657V106.656H50.2203C50.2203 106.321 50.1521 106.024 50.0157 105.766C49.8794 105.504 49.6876 105.298 49.4405 105.148C49.1961 104.997 48.9092 104.922 48.5797 104.922C48.2217 104.922 47.9092 105.01 47.6422 105.186C47.378 105.359 47.1734 105.587 47.0285 105.868C46.8865 106.146 46.8155 106.449 46.8155 106.776V107.521C46.8155 107.959 46.8922 108.331 47.0456 108.638C47.2018 108.945 47.4192 109.179 47.6976 109.341C47.976 109.5 48.3013 109.58 48.6734 109.58C48.9149 109.58 49.1351 109.545 49.3339 109.477C49.5328 109.406 49.7047 109.301 49.8496 109.162C49.9944 109.023 50.1052 108.851 50.1819 108.646L51.3879 108.864C51.2913 109.219 51.118 109.53 50.868 109.797C50.6209 110.061 50.3098 110.267 49.9348 110.415C49.5626 110.56 49.1379 110.632 48.6606 110.632ZM52.8826 110.5V103.955H54.1141V104.994H54.1823C54.3016 104.642 54.5118 104.365 54.813 104.163C55.117 103.959 55.4607 103.857 55.8442 103.857C55.9238 103.857 56.0175 103.859 56.1255 103.865C56.2363 103.871 56.3229 103.878 56.3854 103.886V105.105C56.3343 105.091 56.2434 105.075 56.1127 105.058C55.982 105.038 55.8513 105.028 55.7206 105.028C55.4195 105.028 55.151 105.092 54.9152 105.22C54.6823 105.345 54.4976 105.52 54.3613 105.744C54.2249 105.966 54.1567 106.219 54.1567 106.503V110.5H52.8826ZM66.3783 101.773H67.6993V107.513C67.6993 108.124 67.5559 108.665 67.2689 109.136C66.982 109.605 66.5786 109.974 66.0587 110.244C65.5388 110.511 64.9295 110.645 64.2306 110.645C63.5346 110.645 62.9266 110.511 62.4067 110.244C61.8868 109.974 61.4834 109.605 61.1965 109.136C60.9096 108.665 60.7661 108.124 60.7661 107.513V101.773H62.0829V107.406C62.0829 107.801 62.1695 108.152 62.3428 108.459C62.5189 108.766 62.7675 109.007 63.0885 109.183C63.4096 109.357 63.7902 109.443 64.2306 109.443C64.6738 109.443 65.0559 109.357 65.3769 109.183C65.7008 109.007 65.9479 108.766 66.1184 108.459C66.2917 108.152 66.3783 107.801 66.3783 107.406V101.773ZM69.5115 112.955V103.955H70.7558V105.016H70.8623C70.9362 104.879 71.0427 104.722 71.1819 104.543C71.3211 104.364 71.5143 104.207 71.7615 104.074C72.0086 103.938 72.3353 103.869 72.7416 103.869C73.27 103.869 73.7416 104.003 74.1564 104.27C74.5711 104.537 74.8964 104.922 75.1322 105.425C75.3709 105.928 75.4902 106.533 75.4902 107.24C75.4902 107.947 75.3723 108.554 75.1365 109.06C74.9007 109.562 74.5768 109.95 74.1649 110.223C73.753 110.493 73.2828 110.628 72.7544 110.628C72.3567 110.628 72.0314 110.561 71.7785 110.428C71.5285 110.294 71.3325 110.138 71.1905 109.959C71.0484 109.78 70.939 109.621 70.8623 109.482H70.7856V112.955H69.5115ZM70.7601 107.227C70.7601 107.687 70.8268 108.091 70.9603 108.438C71.0939 108.784 71.2871 109.055 71.5399 109.251C71.7927 109.445 72.1024 109.541 72.4689 109.541C72.8496 109.541 73.1677 109.44 73.4234 109.239C73.6791 109.034 73.8723 108.757 74.003 108.408C74.1365 108.058 74.2032 107.665 74.2032 107.227C74.2032 106.795 74.1379 106.408 74.0072 106.064C73.8794 105.72 73.6862 105.449 73.4277 105.25C73.172 105.051 72.8524 104.952 72.4689 104.952C72.0996 104.952 71.7871 105.047 71.5314 105.237C71.2785 105.428 71.0868 105.693 70.9561 106.034C70.8254 106.375 70.7601 106.773 70.7601 107.227ZM79.9731 103.955V104.977H76.3978V103.955H79.9731ZM77.3567 102.386H78.6308V108.578C78.6308 108.825 78.6677 109.011 78.7416 109.136C78.8155 109.259 78.9106 109.342 79.0271 109.388C79.1464 109.43 79.2757 109.452 79.4149 109.452C79.5172 109.452 79.6067 109.445 79.6834 109.43C79.7601 109.416 79.8197 109.405 79.8623 109.396L80.0924 110.449C80.0186 110.477 79.9135 110.506 79.7771 110.534C79.6407 110.565 79.4703 110.582 79.2657 110.585C78.9305 110.591 78.618 110.531 78.3282 110.406C78.0385 110.281 77.8041 110.088 77.6251 109.827C77.4461 109.565 77.3567 109.237 77.3567 108.842V102.386ZM81.3826 110.5V103.955H82.6567V110.5H81.3826ZM82.026 102.945C81.8045 102.945 81.6141 102.871 81.455 102.723C81.2988 102.572 81.2206 102.393 81.2206 102.186C81.2206 101.976 81.2988 101.797 81.455 101.649C81.6141 101.499 81.8045 101.423 82.026 101.423C82.2476 101.423 82.4366 101.499 82.5928 101.649C82.7519 101.797 82.8314 101.976 82.8314 102.186C82.8314 102.393 82.7519 102.572 82.5928 102.723C82.4366 102.871 82.2476 102.945 82.026 102.945ZM84.3709 110.5V103.955H85.5939V105.02H85.6748C85.8112 104.659 86.0342 104.378 86.3439 104.176C86.6535 103.972 87.0243 103.869 87.4561 103.869C87.8936 103.869 88.2601 103.972 88.5555 104.176C88.8538 104.381 89.074 104.662 89.216 105.02H89.2842C89.4405 104.67 89.689 104.392 90.03 104.185C90.3709 103.974 90.7771 103.869 91.2487 103.869C91.8425 103.869 92.3268 104.055 92.7018 104.428C93.0797 104.8 93.2686 105.361 93.2686 106.111V110.5H91.9944V106.23C91.9944 105.787 91.8737 105.466 91.6322 105.267C91.3907 105.068 91.1024 104.969 90.7672 104.969C90.3524 104.969 90.03 105.097 89.7998 105.352C89.5697 105.605 89.4547 105.93 89.4547 106.328V110.5H88.1848V106.149C88.1848 105.794 88.074 105.509 87.8524 105.293C87.6308 105.077 87.3425 104.969 86.9873 104.969C86.7459 104.969 86.5229 105.033 86.3183 105.161C86.1166 105.286 85.9532 105.46 85.8282 105.685C85.7061 105.909 85.645 106.169 85.645 106.464V110.5H84.3709ZM97.7974 110.632C97.1525 110.632 96.5971 110.494 96.1312 110.219C95.6681 109.94 95.3101 109.55 95.0573 109.047C94.8073 108.541 94.6823 107.949 94.6823 107.27C94.6823 106.599 94.8073 106.009 95.0573 105.497C95.3101 104.986 95.6624 104.587 96.1141 104.3C96.5687 104.013 97.0999 103.869 97.7079 103.869C98.0772 103.869 98.4351 103.93 98.7817 104.053C99.1283 104.175 99.4394 104.366 99.715 104.628C99.9905 104.889 100.208 105.229 100.367 105.646C100.526 106.061 100.606 106.565 100.606 107.159V107.611H95.4025V106.656H99.357C99.357 106.321 99.2888 106.024 99.1525 105.766C99.0161 105.504 98.8243 105.298 98.5772 105.148C98.3329 104.997 98.0459 104.922 97.7164 104.922C97.3584 104.922 97.0459 105.01 96.7789 105.186C96.5147 105.359 96.3101 105.587 96.1653 105.868C96.0232 106.146 95.9522 106.449 95.9522 106.776V107.521C95.9522 107.959 96.0289 108.331 96.1823 108.638C96.3385 108.945 96.5559 109.179 96.8343 109.341C97.1127 109.5 97.438 109.58 97.8101 109.58C98.0516 109.58 98.2718 109.545 98.4706 109.477C98.6695 109.406 98.8414 109.301 98.9863 109.162C99.1312 109.023 99.242 108.851 99.3187 108.646L100.525 108.864C100.428 109.219 100.255 109.53 100.005 109.797C99.7576 110.061 99.4465 110.267 99.0715 110.415C98.6993 110.56 98.2746 110.632 97.7974 110.632Z" fill="black"/>
<defs>
<filter id="filter0_i_784_348" x="22.5" y="13.5035" width="75" height="75.6633" filterUnits="userSpaceOnUse" color-interpolation-filters="sRGB">
<feFlood flood-opacity="0" result="BackgroundImageFix"/>
<feBlend mode="normal" in="SourceGraphic" in2="BackgroundImageFix" result="shape"/>
<feColorMatrix in="SourceAlpha" type="matrix" values="0 0 0 0 0 0 0 0 0 0 0 0 0 0 0 0 0 0 127 0" result="hardAlpha"/>
<feOffset dy="0.833333"/>
<feGaussianBlur stdDeviation="0.416667"/>
<feComposite in2="hardAlpha" operator="arithmetic" k2="-1" k3="1"/>
<feColorMatrix type="matrix" values="0 0 0 0 1 0 0 0 0 0.779503 0 0 0 0 0.779503 0 0 0 1 0"/>
<feBlend mode="normal" in2="shape" result="effect1_innerShadow_784_348"/>
</filter>
</defs>
</svg>
