<svg width="182" height="50" viewBox="0 0 182 50" fill="none" xmlns="http://www.w3.org/2000/svg">
<path d="M6.66699 0.416992H175C178.452 0.417 181.25 3.21522 181.25 6.66699V43C181.25 46.4518 178.452 49.25 175 49.25H6.66699C3.21521 49.25 0.416994 46.4518 0.416992 43V6.66699C0.416992 3.21521 3.21521 0.416992 6.66699 0.416992Z" fill="white"/>
<path d="M6.66699 0.416992H175C178.452 0.417 181.25 3.21522 181.25 6.66699V43C181.25 46.4518 178.452 49.25 175 49.25H6.66699C3.21521 49.25 0.416994 46.4518 0.416992 43V6.66699C0.416992 3.21521 3.21521 0.416992 6.66699 0.416992Z" stroke="#33C468" stroke-width="0.833333"/>
<path d="M13.332 32.594H31.332V14.594H13.332V32.594ZM49.4375 21.682C49.3693 21.0769 49.0881 20.6081 48.5938 20.2757C48.0994 19.9391 47.4773 19.7708 46.7273 19.7708C46.1903 19.7708 45.7259 19.856 45.3338 20.0265C44.9418 20.1926 44.6371 20.4228 44.4197 20.7168C44.2067 21.0066 44.1001 21.3368 44.1001 21.7076C44.1001 22.0186 44.1726 22.2871 44.3175 22.513C44.4666 22.7388 44.6605 22.9284 44.8991 23.0819C45.142 23.231 45.402 23.3567 45.679 23.459C45.956 23.557 46.2223 23.638 46.478 23.7019L47.7564 24.0343C48.174 24.1365 48.6023 24.275 49.0412 24.4498C49.4801 24.6245 49.8871 24.8546 50.2621 25.1401C50.6371 25.4256 50.9396 25.7793 51.1697 26.2012C51.4041 26.623 51.5213 27.128 51.5213 27.7161C51.5213 28.4576 51.3295 29.1159 50.946 29.6912C50.5668 30.2665 50.0149 30.7203 49.2905 31.0527C48.5703 31.3851 47.6989 31.5513 46.6761 31.5513C45.696 31.5513 44.848 31.3958 44.1321 31.0847C43.4162 30.7736 42.8558 30.3326 42.451 29.7615C42.0462 29.1863 41.8224 28.5044 41.7798 27.7161H43.7614C43.7997 28.1891 43.9531 28.5833 44.2216 28.8986C44.4943 29.2097 44.8416 29.4419 45.2635 29.5953C45.6896 29.7445 46.1562 29.8191 46.6634 29.8191C47.2216 29.8191 47.718 29.7317 48.1527 29.557C48.5916 29.378 48.9368 29.1309 49.1882 28.8155C49.4396 28.4959 49.5653 28.123 49.5653 27.6969C49.5653 27.3091 49.4545 26.9917 49.233 26.7445C49.0156 26.4973 48.7195 26.2928 48.3445 26.1309C47.9737 25.9689 47.554 25.8262 47.0852 25.7026L45.5384 25.2807C44.4901 24.9952 43.6591 24.5755 43.0455 24.0215C42.4361 23.4675 42.1314 22.7346 42.1314 21.8226C42.1314 21.0684 42.3359 20.41 42.745 19.8475C43.1541 19.285 43.7081 18.8482 44.407 18.5371C45.1058 18.2218 45.8942 18.0641 46.772 18.0641C47.6584 18.0641 48.4403 18.2196 49.1179 18.5307C49.7997 18.8418 50.3366 19.2701 50.7287 19.8155C51.1207 20.3567 51.3253 20.9789 51.3423 21.682H49.4375ZM53.7282 31.334V21.5158H55.6394V31.334H53.7282ZM54.6934 20.0009C54.361 20.0009 54.0755 19.8901 53.8368 19.6685C53.6025 19.4426 53.4853 19.1742 53.4853 18.8631C53.4853 18.5478 53.6025 18.2793 53.8368 18.0577C54.0755 17.8319 54.361 17.7189 54.6934 17.7189C55.0257 17.7189 55.3091 17.8319 55.5435 18.0577C55.7821 18.2793 55.9015 18.5478 55.9015 18.8631C55.9015 19.1742 55.7821 19.4426 55.5435 19.6685C55.3091 19.8901 55.0257 20.0009 54.6934 20.0009ZM62.7937 21.5158V23.0499H57.4308V21.5158H62.7937ZM58.869 19.1635H60.7802V28.4512C60.7802 28.8219 60.8356 29.101 60.9464 29.2885C61.0572 29.4718 61.1999 29.5975 61.3746 29.6657C61.5536 29.7296 61.7475 29.7615 61.9563 29.7615C62.1097 29.7615 62.244 29.7509 62.359 29.7296C62.4741 29.7083 62.5636 29.6912 62.6275 29.6784L62.9727 31.2573C62.8619 31.2999 62.7042 31.3425 62.4996 31.3851C62.2951 31.432 62.0394 31.4576 61.7326 31.4618C61.2298 31.4703 60.761 31.3809 60.3263 31.1934C59.8917 31.0059 59.5401 30.7161 59.2717 30.324C59.0032 29.932 58.869 29.4398 58.869 28.8475V19.1635ZM69.0339 31.5321C68.0666 31.5321 67.2335 31.3255 66.5346 30.9121C65.84 30.4945 65.3031 29.9086 64.9238 29.1543C64.5488 28.3958 64.3613 27.5073 64.3613 26.4888C64.3613 25.4831 64.5488 24.5968 64.9238 23.8297C65.3031 23.0627 65.8315 22.464 66.5091 22.0336C67.1909 21.6032 67.9877 21.388 68.8997 21.388C69.4537 21.388 69.9906 21.4796 70.5105 21.6628C71.0304 21.8461 71.497 22.1337 71.9103 22.5257C72.3237 22.9178 72.6497 23.427 72.8883 24.0534C73.127 24.6756 73.2463 25.432 73.2463 26.3226V27.0002H65.4416V25.5684H71.3734C71.3734 25.0655 71.2711 24.6202 71.0666 24.2324C70.862 23.8404 70.5744 23.5314 70.2037 23.3056C69.8372 23.0797 69.4068 22.9668 68.9125 22.9668C68.3755 22.9668 67.9068 23.0989 67.5062 23.3631C67.1099 23.623 66.8031 23.964 66.5858 24.3858C66.3727 24.8034 66.2662 25.2573 66.2662 25.7473V26.8659C66.2662 27.5222 66.3812 28.0804 66.6113 28.5407C66.8457 29.0009 67.1717 29.3525 67.5893 29.5953C68.0069 29.834 68.4949 29.9533 69.0531 29.9533C69.4153 29.9533 69.7456 29.9022 70.0439 29.7999C70.3422 29.6934 70.6 29.5357 70.8173 29.3269C71.0346 29.1181 71.2008 28.8603 71.3159 28.5534L73.1248 28.8794C72.9799 29.4121 72.72 29.8787 72.345 30.2793C71.9743 30.6756 71.5076 30.9846 70.9451 31.2061C70.3869 31.4235 69.7498 31.5321 69.0339 31.5321ZM80.2839 31.334V18.2431H84.9501C85.9686 18.2431 86.8123 18.4284 87.4814 18.7992C88.1504 19.1699 88.6511 19.677 88.9835 20.3205C89.3159 20.9597 89.4821 21.6799 89.4821 22.481C89.4821 23.2864 89.3137 24.0108 88.9771 24.6543C88.6447 25.2935 88.1419 25.8006 87.4686 26.1756C86.7995 26.5463 85.9579 26.7317 84.9437 26.7317H81.7349V25.057H84.7647C85.4082 25.057 85.9302 24.9462 86.3308 24.7246C86.7314 24.4988 87.0254 24.1919 87.2129 23.8042C87.4004 23.4164 87.4941 22.9753 87.4941 22.481C87.4941 21.9867 87.4004 21.5478 87.2129 21.1642C87.0254 20.7807 86.7292 20.4803 86.3244 20.263C85.9238 20.0456 85.3954 19.937 84.7392 19.937H82.2591V31.334H80.2839ZM91.6442 31.334V21.5158H93.4915V23.0755H93.5938C93.7727 22.5471 94.0881 22.1316 94.5398 21.829C94.9957 21.5222 95.5114 21.3688 96.0866 21.3688C96.206 21.3688 96.3466 21.373 96.5085 21.3816C96.6747 21.3901 96.8047 21.4007 96.8984 21.4135V23.2417C96.8217 23.2203 96.6854 23.1969 96.4893 23.1713C96.2933 23.1415 96.0973 23.1266 95.9013 23.1266C95.4496 23.1266 95.0469 23.2225 94.6932 23.4142C94.3438 23.6017 94.0668 23.8638 93.8622 24.2005C93.6577 24.5328 93.5554 24.9121 93.5554 25.3382V31.334H91.6442ZM102.336 31.5321C101.416 31.5321 100.613 31.3212 99.9267 30.8993C99.2406 30.4775 98.7079 29.8873 98.3287 29.1287C97.9494 28.3702 97.7598 27.4838 97.7598 26.4696C97.7598 25.4512 97.9494 24.5605 98.3287 23.7978C98.7079 23.035 99.2406 22.4426 99.9267 22.0208C100.613 21.5989 101.416 21.388 102.336 21.388C103.257 21.388 104.06 21.5989 104.746 22.0208C105.432 22.4426 105.965 23.035 106.344 23.7978C106.724 24.5605 106.913 25.4512 106.913 26.4696C106.913 27.4838 106.724 28.3702 106.344 29.1287C105.965 29.8873 105.432 30.4775 104.746 30.8993C104.06 31.3212 103.257 31.5321 102.336 31.5321ZM102.343 29.9277C102.939 29.9277 103.434 29.7701 103.826 29.4547C104.218 29.1394 104.508 28.7196 104.695 28.1955C104.887 27.6713 104.983 27.0939 104.983 26.4632C104.983 25.8368 104.887 25.2615 104.695 24.7374C104.508 24.209 104.218 23.785 103.826 23.4654C103.434 23.1458 102.939 22.986 102.343 22.986C101.742 22.986 101.243 23.1458 100.847 23.4654C100.455 23.785 100.163 24.209 99.9714 24.7374C99.7839 25.2615 99.6902 25.8368 99.6902 26.4632C99.6902 27.0939 99.7839 27.6713 99.9714 28.1955C100.163 28.7196 100.455 29.1394 100.847 29.4547C101.243 29.7701 101.742 29.9277 102.343 29.9277ZM113.63 21.5158V23.0499H108.267V21.5158H113.63ZM109.705 19.1635H111.616V28.4512C111.616 28.8219 111.672 29.101 111.782 29.2885C111.893 29.4718 112.036 29.5975 112.211 29.6657C112.39 29.7296 112.583 29.7615 112.792 29.7615C112.946 29.7615 113.08 29.7509 113.195 29.7296C113.31 29.7083 113.4 29.6912 113.463 29.6784L113.809 31.2573C113.698 31.2999 113.54 31.3425 113.336 31.3851C113.131 31.432 112.875 31.4576 112.569 31.4618C112.066 31.4703 111.597 31.3809 111.162 31.1934C110.728 31.0059 110.376 30.7161 110.108 30.324C109.839 29.932 109.705 29.4398 109.705 28.8475V19.1635ZM119.87 31.5321C118.903 31.5321 118.069 31.3255 117.371 30.9121C116.676 30.4945 116.139 29.9086 115.76 29.1543C115.385 28.3958 115.197 27.5073 115.197 26.4888C115.197 25.4831 115.385 24.5968 115.76 23.8297C116.139 23.0627 116.667 22.464 117.345 22.0336C118.027 21.6032 118.824 21.388 119.736 21.388C120.29 21.388 120.827 21.4796 121.346 21.6628C121.866 21.8461 122.333 22.1337 122.746 22.5257C123.16 22.9178 123.486 23.427 123.724 24.0534C123.963 24.6756 124.082 25.432 124.082 26.3226V27.0002H116.278V25.5684H122.209C122.209 25.0655 122.107 24.6202 121.903 24.2324C121.698 23.8404 121.41 23.5314 121.04 23.3056C120.673 23.0797 120.243 22.9668 119.748 22.9668C119.211 22.9668 118.743 23.0989 118.342 23.3631C117.946 23.623 117.639 23.964 117.422 24.3858C117.209 24.8034 117.102 25.2573 117.102 25.7473V26.8659C117.102 27.5222 117.217 28.0804 117.447 28.5407C117.682 29.0009 118.008 29.3525 118.425 29.5953C118.843 29.834 119.331 29.9533 119.889 29.9533C120.251 29.9533 120.581 29.9022 120.88 29.7999C121.178 29.6934 121.436 29.5357 121.653 29.3269C121.871 29.1181 122.037 28.8603 122.152 28.5534L123.961 28.8794C123.816 29.4121 123.556 29.8787 123.181 30.2793C122.81 30.6756 122.344 30.9846 121.781 31.2061C121.223 31.4235 120.586 31.5321 119.87 31.5321ZM130.338 31.5321C129.388 31.5321 128.57 31.3169 127.884 30.8865C127.202 30.4519 126.678 29.8532 126.311 29.0904C125.945 28.3276 125.762 27.454 125.762 26.4696C125.762 25.4725 125.949 24.5925 126.324 23.8297C126.699 23.0627 127.228 22.464 127.909 22.0336C128.591 21.6032 129.395 21.388 130.319 21.388C131.065 21.388 131.73 21.5265 132.314 21.8034C132.897 22.0762 133.368 22.4597 133.726 22.954C134.088 23.4483 134.304 24.0257 134.372 24.6863H132.512C132.409 24.226 132.175 23.8297 131.809 23.4973C131.446 23.165 130.961 22.9988 130.351 22.9988C129.819 22.9988 129.352 23.1394 128.951 23.4206C128.555 23.6976 128.246 24.0939 128.025 24.6096C127.803 25.1209 127.692 25.726 127.692 26.4249C127.692 27.1408 127.801 27.7587 128.018 28.2786C128.235 28.7985 128.542 29.2012 128.939 29.4867C129.339 29.7722 129.81 29.915 130.351 29.915C130.713 29.915 131.042 29.8489 131.336 29.7168C131.634 29.5804 131.883 29.3865 132.083 29.1351C132.288 28.8837 132.431 28.5811 132.512 28.2275H134.372C134.304 28.8624 134.097 29.4292 133.752 29.9277C133.407 30.4263 132.944 30.8184 132.365 31.1039C131.789 31.3894 131.114 31.5321 130.338 31.5321ZM140.999 21.5158V23.0499H135.636V21.5158H140.999ZM137.074 19.1635H138.985V28.4512C138.985 28.8219 139.041 29.101 139.151 29.2885C139.262 29.4718 139.405 29.5975 139.58 29.6657C139.759 29.7296 139.953 29.7615 140.161 29.7615C140.315 29.7615 140.449 29.7509 140.564 29.7296C140.679 29.7083 140.769 29.6912 140.833 29.6784L141.178 31.2573C141.067 31.2999 140.909 31.3425 140.705 31.3851C140.5 31.432 140.244 31.4576 139.938 31.4618C139.435 31.4703 138.966 31.3809 138.531 31.1934C138.097 31.0059 137.745 30.7161 137.477 30.324C137.208 29.932 137.074 29.4398 137.074 28.8475V19.1635ZM143.113 31.334V21.5158H145.024V31.334H143.113ZM144.078 20.0009C143.746 20.0009 143.46 19.8901 143.222 19.6685C142.987 19.4426 142.87 19.1742 142.87 18.8631C142.87 18.5478 142.987 18.2793 143.222 18.0577C143.46 17.8319 143.746 17.7189 144.078 17.7189C144.411 17.7189 144.694 17.8319 144.928 18.0577C145.167 18.2793 145.286 18.5478 145.286 18.8631C145.286 19.1742 145.167 19.4426 144.928 19.6685C144.694 19.8901 144.411 20.0009 144.078 20.0009ZM151.731 31.5321C150.811 31.5321 150.007 31.3212 149.321 30.8993C148.635 30.4775 148.102 29.8873 147.723 29.1287C147.344 28.3702 147.154 27.4838 147.154 26.4696C147.154 25.4512 147.344 24.5605 147.723 23.7978C148.102 23.035 148.635 22.4426 149.321 22.0208C150.007 21.5989 150.811 21.388 151.731 21.388C152.651 21.388 153.455 21.5989 154.141 22.0208C154.827 22.4426 155.36 23.035 155.739 23.7978C156.118 24.5605 156.308 25.4512 156.308 26.4696C156.308 27.4838 156.118 28.3702 155.739 29.1287C155.36 29.8873 154.827 30.4775 154.141 30.8993C153.455 31.3212 152.651 31.5321 151.731 31.5321ZM151.737 29.9277C152.334 29.9277 152.828 29.7701 153.22 29.4547C153.612 29.1394 153.902 28.7196 154.09 28.1955C154.281 27.6713 154.377 27.0939 154.377 26.4632C154.377 25.8368 154.281 25.2615 154.09 24.7374C153.902 24.209 153.612 23.785 153.22 23.4654C152.828 23.1458 152.334 22.986 151.737 22.986C151.137 22.986 150.638 23.1458 150.242 23.4654C149.85 23.785 149.558 24.209 149.366 24.7374C149.178 25.2615 149.085 25.8368 149.085 26.4632C149.085 27.0939 149.178 27.6713 149.366 28.1955C149.558 28.7196 149.85 29.1394 150.242 29.4547C150.638 29.7701 151.137 29.9277 151.737 29.9277ZM160.352 25.5044V31.334H158.441V21.5158H160.276V23.1138H160.397C160.623 22.5939 160.977 22.1763 161.458 21.861C161.944 21.5456 162.555 21.388 163.293 21.388C163.962 21.388 164.548 21.5286 165.05 21.8098C165.553 22.0868 165.943 22.5002 166.22 23.0499C166.497 23.5996 166.636 24.2793 166.636 25.089V31.334H164.724V25.3191C164.724 24.6074 164.539 24.0513 164.168 23.6507C163.798 23.2459 163.288 23.0435 162.641 23.0435C162.197 23.0435 161.803 23.1394 161.458 23.3311C161.117 23.5229 160.847 23.8042 160.646 24.1749C160.45 24.5414 160.352 24.9846 160.352 25.5044Z" fill="#131415"/>
</svg>
