<svg width="212" height="76" viewBox="0 0 212 76" fill="none" xmlns="http://www.w3.org/2000/svg">
<rect width="212" height="76" fill="white"/>
<rect x="13.5889" y="12.5889" width="36.5111" height="36.5111" rx="8.83333" stroke="#DAD2FB" stroke-width="1.17778"/>
<g clip-path="url(#clip0_2011_9587)">
<path d="M24.3468 39.5172C22.8644 38.0347 21.8549 36.146 21.4459 34.0898C21.0369 32.0336 21.2468 29.9023 22.0491 27.9654C22.8514 26.0285 24.21 24.373 25.9532 23.2083C27.6963 22.0436 29.7457 21.4219 31.8422 21.4219C33.9387 21.4219 35.9881 22.0436 37.7312 23.2083C39.4744 24.373 40.833 26.0285 41.6353 27.9654C42.4376 29.9023 42.6475 32.0336 42.2385 34.0898C41.8295 36.146 40.82 38.0347 39.3376 39.5172" stroke="#6F56DA" stroke-width="2.35556" stroke-linecap="round" stroke-linejoin="round"/>
<path d="M36.5549 27.3105L31.8438 32.0217" stroke="#6F56DA" stroke-width="2.35556" stroke-linecap="round" stroke-linejoin="round"/>
</g>
<path d="M68.2905 36.2108C67.1311 36.2108 66.0997 36.0226 65.1963 35.6462C64.2979 35.2647 63.5928 34.7453 63.0808 34.0878C62.5689 33.4303 62.3129 32.685 62.3129 31.8518C62.3129 31.2094 62.4585 30.6197 62.7496 30.0827C63.0457 29.5406 63.4472 29.0914 63.9541 28.7351C64.461 28.3737 65.0282 28.1428 65.6555 28.0425V27.9371C64.8324 27.7714 64.1649 27.3724 63.653 26.7401C63.1411 26.1027 62.8851 25.3624 62.8851 24.5192C62.8851 23.7212 63.1185 23.011 63.5852 22.3886C64.052 21.7613 64.6919 21.2694 65.505 20.9131C66.3231 20.5517 67.2516 20.371 68.2905 20.371C69.3294 20.371 70.2554 20.5517 71.0685 20.9131C71.8866 21.2744 72.529 21.7688 72.9957 22.3962C73.4625 23.0185 73.6984 23.7262 73.7034 24.5192C73.6984 25.3674 73.4374 26.1077 72.9205 26.7401C72.4035 27.3724 71.741 27.7714 70.933 27.9371V28.0425C71.5503 28.1428 72.1099 28.3737 72.6118 28.7351C73.1187 29.0914 73.5202 29.5406 73.8163 30.0827C74.1175 30.6197 74.2706 31.2094 74.2756 31.8518C74.2706 32.685 74.0121 33.4303 73.5001 34.0878C72.9882 34.7453 72.2805 35.2647 71.3771 35.6462C70.4787 36.0226 69.4499 36.2108 68.2905 36.2108ZM68.2905 33.8168C68.8074 33.8168 69.2591 33.7239 69.6456 33.5382C70.0321 33.3475 70.3332 33.0865 70.549 32.7553C70.7698 32.419 70.8803 32.0325 70.8803 31.5959C70.8803 31.1492 70.7673 30.7552 70.5415 30.4139C70.3156 30.0676 70.0095 29.7966 69.623 29.6009C69.2366 29.4001 68.7924 29.2997 68.2905 29.2997C67.7936 29.2997 67.3494 29.4001 66.958 29.6009C66.5665 29.7966 66.2578 30.0676 66.032 30.4139C65.8111 30.7552 65.7007 31.1492 65.7007 31.5959C65.7007 32.0325 65.8086 32.419 66.0244 32.7553C66.2402 33.0865 66.5439 33.3475 66.9354 33.5382C67.3268 33.7239 67.7786 33.8168 68.2905 33.8168ZM68.2905 26.9283C68.7221 26.9283 69.1061 26.8404 69.4423 26.6648C69.7786 26.4891 70.0421 26.2457 70.2328 25.9345C70.4235 25.6233 70.5189 25.2645 70.5189 24.858C70.5189 24.4564 70.4235 24.1051 70.2328 23.804C70.0421 23.4978 69.7811 23.2594 69.4499 23.0888C69.1186 22.9131 68.7322 22.8253 68.2905 22.8253C67.8538 22.8253 67.4674 22.9131 67.1311 23.0888C66.7948 23.2594 66.5313 23.4978 66.3406 23.804C66.1549 24.1051 66.0621 24.4564 66.0621 24.858C66.0621 25.2645 66.1574 25.6233 66.3482 25.9345C66.5389 26.2457 66.8024 26.4891 67.1386 26.6648C67.4749 26.8404 67.8589 26.9283 68.2905 26.9283ZM82.1333 20.371C82.9263 20.371 83.6892 20.504 84.422 20.77C85.1598 21.036 85.8172 21.4601 86.3944 22.0423C86.9766 22.6245 87.4359 23.3974 87.7721 24.3611C88.1134 25.3197 88.2866 26.4966 88.2916 27.8919C88.2916 29.2018 88.1435 30.3713 87.8474 31.4001C87.5563 32.424 87.1372 33.2948 86.5902 34.0125C86.0431 34.7302 85.3831 35.2773 84.6102 35.6537C83.8373 36.0251 82.974 36.2108 82.0204 36.2108C80.9915 36.2108 80.0831 36.0125 79.2951 35.6161C78.5072 35.2145 77.8723 34.67 77.3904 33.9824C76.9136 33.2898 76.6251 32.5118 76.5247 31.6486H79.7393C79.8648 32.2107 80.1283 32.6473 80.5298 32.9585C80.9313 33.2647 81.4282 33.4178 82.0204 33.4178C83.0242 33.4178 83.7871 32.9811 84.3091 32.1078C84.831 31.2295 85.0945 30.0275 85.0995 28.5017H84.9941C84.7633 28.9534 84.4521 29.3424 84.0606 29.6686C83.6691 29.9898 83.2199 30.2383 82.713 30.4139C82.2111 30.5896 81.6766 30.6774 81.1095 30.6774C80.2011 30.6774 79.3905 30.4641 78.6778 30.0375C77.9651 29.6109 77.403 29.0237 76.9914 28.2759C76.5799 27.528 76.3741 26.6748 76.3741 25.7162C76.3691 24.6823 76.6075 23.7613 77.0893 22.9533C77.5711 22.1452 78.2437 21.5128 79.1069 21.0561C79.9752 20.5944 80.984 20.366 82.1333 20.371ZM82.1559 22.9307C81.649 22.9307 81.1973 23.0511 80.8008 23.292C80.4093 23.533 80.0982 23.8567 79.8673 24.2632C79.6414 24.6697 79.531 25.124 79.536 25.6259C79.536 26.1328 79.6465 26.5895 79.8673 26.996C80.0931 27.3975 80.3993 27.7187 80.7858 27.9597C81.1772 28.1955 81.6239 28.3135 82.1258 28.3135C82.5022 28.3135 82.8511 28.2432 83.1723 28.1027C83.4935 27.9622 83.772 27.7689 84.0079 27.523C84.2488 27.2721 84.437 26.9835 84.5726 26.6572C84.7081 26.331 84.7758 25.9847 84.7758 25.6183C84.7708 25.1315 84.6554 24.6848 84.4295 24.2783C84.2037 23.8717 83.8925 23.5455 83.496 23.2996C83.0995 23.0536 82.6528 22.9307 82.1559 22.9307ZM98.9895 33.1091V32.296C98.9895 31.6787 99.1199 31.1116 99.3809 30.5946C99.6469 30.0726 100.031 29.6561 100.533 29.3449C101.04 29.0287 101.657 28.8706 102.385 28.8706C103.123 28.8706 103.742 29.0262 104.244 29.3374C104.751 29.6485 105.133 30.0651 105.389 30.5871C105.65 31.104 105.78 31.6737 105.78 32.296V33.1091C105.78 33.7264 105.65 34.2961 105.389 34.818C105.128 35.335 104.744 35.7491 104.237 36.0602C103.73 36.3764 103.113 36.5345 102.385 36.5345C101.647 36.5345 101.027 36.3764 100.525 36.0602C100.023 35.7491 99.6419 35.335 99.3809 34.818C99.1199 34.2961 98.9895 33.7264 98.9895 33.1091ZM101.18 32.296V33.1091C101.18 33.4654 101.266 33.8017 101.436 34.1179C101.612 34.4341 101.928 34.5922 102.385 34.5922C102.841 34.5922 103.153 34.4366 103.318 34.1254C103.489 33.8143 103.574 33.4755 103.574 33.1091V32.296C103.574 31.9296 103.494 31.5884 103.333 31.2722C103.173 30.956 102.857 30.7979 102.385 30.7979C101.933 30.7979 101.619 30.956 101.444 31.2722C101.268 31.5884 101.18 31.9296 101.18 32.296ZM91.0771 24.2858V23.4727C91.0771 22.8504 91.2101 22.2807 91.4761 21.7638C91.7421 21.2418 92.1261 20.8252 92.6279 20.5141C93.1349 20.2029 93.7472 20.0473 94.4649 20.0473C95.2077 20.0473 95.83 20.2029 96.3319 20.5141C96.8338 20.8252 97.2153 21.2418 97.4762 21.7638C97.7372 22.2807 97.8677 22.8504 97.8677 23.4727V24.2858C97.8677 24.9081 97.7347 25.4778 97.4687 25.9947C97.2077 26.5117 96.8238 26.9258 96.3169 27.2369C95.815 27.5431 95.1976 27.6962 94.4649 27.6962C93.7321 27.6962 93.1123 27.5406 92.6054 27.2294C92.1035 26.9132 91.722 26.4991 91.461 25.9872C91.2051 25.4703 91.0771 24.9031 91.0771 24.2858ZM93.2829 23.4727V24.2858C93.2829 24.6522 93.3682 24.991 93.5389 25.3021C93.7145 25.6133 94.0232 25.7689 94.4649 25.7689C94.9266 25.7689 95.2403 25.6133 95.4059 25.3021C95.5766 24.991 95.6619 24.6522 95.6619 24.2858V23.4727C95.6619 23.1063 95.5816 22.7651 95.421 22.4489C95.2604 22.1327 94.9417 21.9746 94.4649 21.9746C94.0182 21.9746 93.7095 22.1352 93.5389 22.4564C93.3682 22.7776 93.2829 23.1164 93.2829 23.4727ZM92.0708 36L102.671 20.5818H104.643L94.0433 36H92.0708Z" fill="#6F56DA"/>
<path d="M62.3263 57V48.4343H67.4624V49.3545H63.3636V52.2487H67.0776V53.1689H63.3636V57H62.3263ZM70.9955 57.1506C70.5884 57.1506 70.2189 57.0739 69.8871 56.9205C69.5553 56.7644 69.2918 56.5399 69.0967 56.2472C68.9015 55.9516 68.8039 55.5947 68.8039 55.1765C68.8039 54.8084 68.8764 54.51 69.0214 54.2814C69.1664 54.05 69.3601 53.8687 69.6027 53.7377C69.8453 53.6066 70.113 53.509 70.4058 53.4449C70.7013 53.378 70.9983 53.325 71.2966 53.286C71.687 53.2358 72.0035 53.1982 72.246 53.1731C72.4914 53.1452 72.6699 53.0992 72.7814 53.035C72.8957 52.9709 72.9529 52.8594 72.9529 52.7004V52.667C72.9529 52.2543 72.8399 51.9337 72.6141 51.705C72.391 51.4764 72.0522 51.3621 71.5978 51.3621C71.1265 51.3621 70.7571 51.4652 70.4894 51.6716C70.2217 51.8779 70.0335 52.0982 69.9248 52.3324L68.9879 51.9978C69.1552 51.6074 69.3783 51.3035 69.6571 51.086C69.9387 50.8657 70.2454 50.7124 70.5772 50.6259C70.9118 50.5367 71.2409 50.4921 71.5643 50.4921C71.7706 50.4921 72.0076 50.5172 72.2753 50.5674C72.5458 50.6148 72.8065 50.7138 73.0574 50.8643C73.3112 51.0149 73.5217 51.2422 73.689 51.5461C73.8563 51.85 73.9399 52.2571 73.9399 52.7674V57H72.9529V56.1301H72.9027C72.8358 56.2695 72.7242 56.4186 72.5681 56.5776C72.4119 56.7365 72.2042 56.8717 71.9449 56.9833C71.6856 57.0948 71.3691 57.1506 70.9955 57.1506ZM71.1461 56.2639C71.5364 56.2639 71.8654 56.1872 72.1331 56.0339C72.4036 55.8805 72.6071 55.6825 72.7437 55.4399C72.8832 55.1974 72.9529 54.9422 72.9529 54.6746V53.7711C72.911 53.8213 72.819 53.8673 72.6768 53.9092C72.5374 53.9482 72.3757 53.9831 72.1917 54.0137C72.0104 54.0416 71.8334 54.0667 71.6605 54.089C71.4904 54.1085 71.3524 54.1253 71.2464 54.1392C70.9899 54.1727 70.7501 54.227 70.527 54.3023C70.3068 54.3748 70.1283 54.485 69.9917 54.6327C69.8579 54.7777 69.7909 54.9757 69.7909 55.2266C69.7909 55.5696 69.9178 55.8289 70.1715 56.0046C70.4281 56.1775 70.7529 56.2639 71.1461 56.2639ZM80.292 52.0145L79.4053 52.2655C79.3496 52.1177 79.2673 51.9741 79.1586 51.8347C79.0526 51.6925 78.9076 51.5754 78.7236 51.4833C78.5396 51.3913 78.304 51.3453 78.0168 51.3453C77.6236 51.3453 77.296 51.4359 77.0339 51.6172C76.7746 51.7956 76.6449 52.0229 76.6449 52.2989C76.6449 52.5443 76.7342 52.7381 76.9126 52.8803C77.0911 53.0225 77.3699 53.141 77.7491 53.2358L78.7027 53.47C79.2771 53.6094 79.7051 53.8227 79.9867 54.1099C80.2683 54.3943 80.4091 54.761 80.4091 55.2099C80.4091 55.578 80.3032 55.907 80.0913 56.197C79.8821 56.487 79.5894 56.7156 79.213 56.8829C78.8365 57.0502 78.3988 57.1338 77.8997 57.1338C77.2444 57.1338 76.7021 56.9916 76.2727 56.7072C75.8433 56.4228 75.5714 56.0074 75.4571 55.4609L76.394 55.2266C76.4832 55.5724 76.6519 55.8317 76.9001 56.0046C77.151 56.1775 77.4786 56.2639 77.8829 56.2639C78.343 56.2639 78.7083 56.1663 78.9787 55.9711C79.252 55.7731 79.3886 55.5361 79.3886 55.2601C79.3886 55.037 79.3105 54.8502 79.1544 54.6997C78.9983 54.5463 78.7585 54.432 78.435 54.3567L77.3643 54.1057C76.776 53.9663 76.3438 53.7502 76.0677 53.4575C75.7945 53.1619 75.6579 52.7925 75.6579 52.3491C75.6579 51.9866 75.7596 51.666 75.9632 51.3872C76.1695 51.1083 76.4497 50.8894 76.8039 50.7305C77.1608 50.5716 77.5651 50.4921 78.0168 50.4921C78.6525 50.4921 79.1516 50.6315 79.5141 50.9104C79.8794 51.1892 80.1387 51.5572 80.292 52.0145ZM84.6888 50.5758V51.4122H81.3596V50.5758H84.6888ZM82.3299 49.0366H83.317V55.1597C83.317 55.4386 83.3574 55.6477 83.4383 55.7871C83.5219 55.9237 83.6279 56.0157 83.7561 56.0631C83.8872 56.1077 84.0252 56.1301 84.1702 56.1301C84.2789 56.1301 84.3682 56.1245 84.4379 56.1133C84.5076 56.0994 84.5633 56.0882 84.6052 56.0799L84.8059 56.9665C84.739 56.9916 84.6456 57.0167 84.5257 57.0418C84.4058 57.0697 84.2538 57.0836 84.0698 57.0836C83.791 57.0836 83.5177 57.0237 83.2501 56.9038C82.9852 56.7839 82.7649 56.6013 82.5892 56.3559C82.4164 56.1105 82.3299 55.801 82.3299 55.4274V49.0366ZM88.7981 57.1338C88.1791 57.1338 87.6451 56.9972 87.1962 56.724C86.7501 56.4479 86.4057 56.0631 86.1631 55.5696C85.9233 55.0733 85.8034 54.4961 85.8034 53.8381C85.8034 53.18 85.9233 52.6001 86.1631 52.0982C86.4057 51.5935 86.7431 51.2003 87.1753 50.9187C87.6103 50.6343 88.1177 50.4921 88.6977 50.4921C89.0323 50.4921 89.3627 50.5479 89.6889 50.6594C90.0152 50.7709 90.3121 50.9522 90.5798 51.2031C90.8475 51.4513 91.0608 51.7803 91.2197 52.1902C91.3786 52.6001 91.4581 53.1047 91.4581 53.7042V54.1225H86.5061V53.2693H90.4543C90.4543 52.9068 90.3818 52.5833 90.2368 52.2989C90.0946 52.0145 89.8911 51.7901 89.6262 51.6256C89.3641 51.461 89.0546 51.3788 88.6977 51.3788C88.3045 51.3788 87.9644 51.4764 87.6772 51.6716C87.3928 51.864 87.1739 52.1149 87.0205 52.4244C86.8672 52.7339 86.7905 53.0657 86.7905 53.4198V53.9886C86.7905 54.4738 86.8742 54.8851 87.0414 55.2225C87.2115 55.5571 87.4471 55.8122 87.7483 55.9878C88.0494 56.1607 88.3994 56.2472 88.7981 56.2472C89.0574 56.2472 89.2916 56.2109 89.5007 56.1384C89.7126 56.0631 89.8953 55.9516 90.0486 55.8038C90.202 55.6533 90.3205 55.4664 90.4041 55.2434L91.3577 55.511C91.2574 55.8345 91.0887 56.1189 90.8517 56.3643C90.6147 56.6068 90.3219 56.7965 89.9733 56.9331C89.6248 57.0669 89.2331 57.1338 88.7981 57.1338ZM92.9596 57V50.5758H93.9132V51.5461H93.9801C94.0972 51.2282 94.3092 50.9703 94.6159 50.7723C94.9226 50.5744 95.2683 50.4754 95.6531 50.4754C95.7256 50.4754 95.8162 50.4768 95.925 50.4796C96.0337 50.4823 96.116 50.4865 96.1717 50.4921V51.4959C96.1383 51.4875 96.0616 51.475 95.9417 51.4583C95.8246 51.4387 95.7005 51.429 95.5695 51.429C95.2572 51.429 94.9783 51.4945 94.733 51.6256C94.4904 51.7538 94.298 51.9323 94.1558 52.1609C94.0164 52.3868 93.9467 52.6447 93.9467 52.9347V57H92.9596ZM102.344 57L100.002 48.4343H101.056L102.846 55.4107H102.93L104.753 48.4343H105.924L107.748 55.4107H107.831L109.621 48.4343H110.675L108.333 57H107.263L105.372 50.1742H105.305L103.415 57H102.344ZM113.929 57.1338C113.31 57.1338 112.776 56.9972 112.327 56.724C111.881 56.4479 111.537 56.0631 111.294 55.5696C111.055 55.0733 110.935 54.4961 110.935 53.8381C110.935 53.18 111.055 52.6001 111.294 52.0982C111.537 51.5935 111.874 51.2003 112.307 50.9187C112.742 50.6343 113.249 50.4921 113.829 50.4921C114.164 50.4921 114.494 50.5479 114.82 50.6594C115.146 50.7709 115.443 50.9522 115.711 51.2031C115.979 51.4513 116.192 51.7803 116.351 52.1902C116.51 52.6001 116.589 53.1047 116.589 53.7042V54.1225H111.637V53.2693H115.586C115.586 52.9068 115.513 52.5833 115.368 52.2989C115.226 52.0145 115.022 51.7901 114.757 51.6256C114.495 51.461 114.186 51.3788 113.829 51.3788C113.436 51.3788 113.096 51.4764 112.808 51.6716C112.524 51.864 112.305 52.1149 112.152 52.4244C111.998 52.7339 111.922 53.0657 111.922 53.4198V53.9886C111.922 54.4738 112.005 54.8851 112.173 55.2225C112.343 55.5571 112.578 55.8122 112.88 55.9878C113.181 56.1607 113.531 56.2472 113.929 56.2472C114.189 56.2472 114.423 56.2109 114.632 56.1384C114.844 56.0631 115.027 55.9516 115.18 55.8038C115.333 55.6533 115.452 55.4664 115.535 55.2434L116.489 55.511C116.389 55.8345 116.22 56.1189 115.983 56.3643C115.746 56.6068 115.453 56.7965 115.105 56.9331C114.756 57.0669 114.364 57.1338 113.929 57.1338ZM118.225 57V48.4343H119.212V51.5963H119.295C119.368 51.4847 119.468 51.3425 119.597 51.1697C119.728 50.994 119.914 50.8379 120.157 50.7012C120.402 50.5618 120.734 50.4921 121.152 50.4921C121.693 50.4921 122.17 50.6273 122.583 50.8978C122.996 51.1683 123.318 51.5517 123.549 52.048C123.78 52.5443 123.896 53.1298 123.896 53.8046C123.896 54.485 123.78 55.0747 123.549 55.5738C123.318 56.0701 122.997 56.4549 122.587 56.7281C122.177 56.9986 121.705 57.1338 121.169 57.1338C120.757 57.1338 120.426 57.0655 120.178 56.9289C119.93 56.7895 119.739 56.6319 119.605 56.4563C119.471 56.2778 119.368 56.1301 119.295 56.0129H119.178V57H118.225ZM119.195 53.7879C119.195 54.273 119.266 54.701 119.408 55.0719C119.551 55.4399 119.758 55.7285 120.032 55.9377C120.305 56.144 120.639 56.2472 121.035 56.2472C121.448 56.2472 121.792 56.1384 122.068 55.9209C122.347 55.7007 122.556 55.4051 122.696 55.0342C122.838 54.6606 122.909 54.2452 122.909 53.7879C122.909 53.3362 122.839 52.9291 122.7 52.5666C122.563 52.2013 122.356 51.9127 122.077 51.7008C121.801 51.4861 121.454 51.3788 121.035 51.3788C120.634 51.3788 120.296 51.4806 120.023 51.6841C119.75 51.8849 119.544 52.1665 119.404 52.529C119.265 52.8887 119.195 53.3083 119.195 53.7879ZM128.852 57V48.4343H129.89V52.2487H134.457V48.4343H135.494V57H134.457V53.1689H129.89V57H128.852ZM140.047 57.1338C139.467 57.1338 138.958 56.9958 138.52 56.7198C138.085 56.4437 137.745 56.0576 137.5 55.5612C137.257 55.0649 137.136 54.485 137.136 53.8213C137.136 53.1521 137.257 52.568 137.5 52.0689C137.745 51.5698 138.085 51.1822 138.52 50.9062C138.958 50.6301 139.467 50.4921 140.047 50.4921C140.627 50.4921 141.134 50.6301 141.569 50.9062C142.007 51.1822 142.347 51.5698 142.59 52.0689C142.835 52.568 142.958 53.1521 142.958 53.8213C142.958 54.485 142.835 55.0649 142.59 55.5612C142.347 56.0576 142.007 56.4437 141.569 56.7198C141.134 56.9958 140.627 57.1338 140.047 57.1338ZM140.047 56.2472C140.487 56.2472 140.85 56.1342 141.134 55.9084C141.419 55.6825 141.629 55.3856 141.766 55.0175C141.902 54.6495 141.971 54.2507 141.971 53.8213C141.971 53.3919 141.902 52.9918 141.766 52.621C141.629 52.2501 141.419 51.9504 141.134 51.7217C140.85 51.4931 140.487 51.3788 140.047 51.3788C139.606 51.3788 139.244 51.4931 138.959 51.7217C138.675 51.9504 138.464 52.2501 138.328 52.621C138.191 52.9918 138.123 53.3919 138.123 53.8213C138.123 54.2507 138.191 54.6495 138.328 55.0175C138.464 55.3856 138.675 55.6825 138.959 55.9084C139.244 56.1342 139.606 56.2472 140.047 56.2472ZM149.015 52.0145L148.128 52.2655C148.072 52.1177 147.99 51.9741 147.881 51.8347C147.775 51.6925 147.631 51.5754 147.446 51.4833C147.262 51.3913 147.027 51.3453 146.74 51.3453C146.346 51.3453 146.019 51.4359 145.757 51.6172C145.497 51.7956 145.368 52.0229 145.368 52.2989C145.368 52.5443 145.457 52.7381 145.635 52.8803C145.814 53.0225 146.093 53.141 146.472 53.2358L147.426 53.47C148 53.6094 148.428 53.8227 148.71 54.1099C148.991 54.3943 149.132 54.761 149.132 55.2099C149.132 55.578 149.026 55.907 148.814 56.197C148.605 56.487 148.312 56.7156 147.936 56.8829C147.559 57.0502 147.122 57.1338 146.623 57.1338C145.967 57.1338 145.425 56.9916 144.996 56.7072C144.566 56.4228 144.294 56.0074 144.18 55.4609L145.117 55.2266C145.206 55.5724 145.375 55.8317 145.623 56.0046C145.874 56.1775 146.202 56.2639 146.606 56.2639C147.066 56.2639 147.431 56.1663 147.702 55.9711C147.975 55.7731 148.111 55.5361 148.111 55.2601C148.111 55.037 148.033 54.8502 147.877 54.6997C147.721 54.5463 147.481 54.432 147.158 54.3567L146.087 54.1057C145.499 53.9663 145.067 53.7502 144.791 53.4575C144.517 53.1619 144.381 52.7925 144.381 52.3491C144.381 51.9866 144.483 51.666 144.686 51.3872C144.892 51.1083 145.173 50.8894 145.527 50.7305C145.884 50.5716 146.288 50.4921 146.74 50.4921C147.375 50.4921 147.874 50.6315 148.237 50.9104C148.602 51.1892 148.862 51.5572 149.015 52.0145ZM153.412 50.5758V51.4122H150.082V50.5758H153.412ZM151.053 49.0366H152.04V55.1597C152.04 55.4386 152.08 55.6477 152.161 55.7871C152.245 55.9237 152.351 56.0157 152.479 56.0631C152.61 56.1077 152.748 56.1301 152.893 56.1301C153.002 56.1301 153.091 56.1245 153.161 56.1133C153.23 56.0994 153.286 56.0882 153.328 56.0799L153.529 56.9665C153.462 56.9916 153.368 57.0167 153.249 57.0418C153.129 57.0697 152.977 57.0836 152.793 57.0836C152.514 57.0836 152.241 57.0237 151.973 56.9038C151.708 56.7839 151.488 56.6013 151.312 56.3559C151.139 56.1105 151.053 55.801 151.053 55.4274V49.0366ZM154.896 57V50.5758H155.884V57H154.896ZM155.398 49.5051C155.206 49.5051 155.04 49.4395 154.901 49.3085C154.764 49.1774 154.696 49.0199 154.696 48.8359C154.696 48.6518 154.764 48.4943 154.901 48.3632C155.04 48.2322 155.206 48.1667 155.398 48.1667C155.591 48.1667 155.755 48.2322 155.892 48.3632C156.031 48.4943 156.101 48.6518 156.101 48.8359C156.101 49.0199 156.031 49.1774 155.892 49.3085C155.755 49.4395 155.591 49.5051 155.398 49.5051ZM158.678 53.1354V57H157.691V50.5758H158.645V51.5795H158.729C158.879 51.2533 159.108 50.9912 159.415 50.7932C159.721 50.5925 160.117 50.4921 160.602 50.4921C161.037 50.4921 161.418 50.5813 161.744 50.7598C162.07 50.9354 162.324 51.2031 162.505 51.5628C162.687 51.9197 162.777 52.3714 162.777 52.9179V57H161.79V52.9848C161.79 52.4802 161.659 52.087 161.397 51.8054C161.135 51.521 160.775 51.3788 160.318 51.3788C160.003 51.3788 159.721 51.4471 159.473 51.5837C159.228 51.7204 159.034 51.9197 158.892 52.1818C158.75 52.4439 158.678 52.7618 158.678 53.1354ZM167.174 59.5429C166.697 59.5429 166.287 59.4816 165.944 59.3589C165.601 59.239 165.316 59.0801 165.087 58.8821C164.861 58.6869 164.681 58.4778 164.547 58.2547L165.334 57.7027C165.423 57.8198 165.536 57.9536 165.673 58.1042C165.809 58.2575 165.996 58.39 166.233 58.5015C166.473 58.6158 166.786 58.673 167.174 58.673C167.693 58.673 168.121 58.5475 168.458 58.2966C168.795 58.0456 168.964 57.6525 168.964 57.1171V55.8122H168.88C168.808 55.9293 168.705 56.0743 168.571 56.2472C168.44 56.4172 168.25 56.5692 168.002 56.703C167.757 56.8341 167.425 56.8996 167.007 56.8996C166.488 56.8996 166.022 56.7769 165.61 56.5316C165.2 56.2862 164.875 55.9293 164.635 55.4609C164.398 54.9924 164.28 54.4236 164.28 53.7544C164.28 53.0964 164.396 52.5234 164.627 52.0354C164.858 51.5447 165.18 51.1655 165.593 50.8978C166.006 50.6273 166.483 50.4921 167.023 50.4921C167.442 50.4921 167.774 50.5618 168.019 50.7012C168.267 50.8379 168.457 50.994 168.588 51.1697C168.722 51.3425 168.825 51.4847 168.897 51.5963H168.998V50.5758H169.951V57.184C169.951 57.7361 169.826 58.185 169.575 58.5308C169.327 58.8793 168.992 59.1344 168.571 59.2962C168.153 59.4607 167.687 59.5429 167.174 59.5429ZM167.141 56.0129C167.537 56.0129 167.871 55.9223 168.144 55.7411C168.418 55.5598 168.625 55.2991 168.768 54.959C168.91 54.6188 168.981 54.2117 168.981 53.7377C168.981 53.2748 168.911 52.8663 168.772 52.5122C168.632 52.1581 168.426 51.8807 168.153 51.6799C167.879 51.4792 167.542 51.3788 167.141 51.3788C166.722 51.3788 166.374 51.4847 166.095 51.6967C165.819 51.9086 165.611 52.193 165.472 52.5499C165.335 52.9068 165.267 53.3027 165.267 53.7377C165.267 54.1838 165.337 54.5784 165.476 54.9213C165.618 55.2615 165.827 55.5292 166.103 55.7244C166.382 55.9167 166.728 56.0129 167.141 56.0129Z" fill="#404248"/>
<defs>
<clipPath id="clip0_2011_9587">
<rect width="28.2667" height="28.2667" fill="white" transform="translate(17.7109 16.7109)"/>
</clipPath>
</defs>
</svg>
