<svg width="120" height="129" viewBox="0 0 120 129" fill="none" xmlns="http://www.w3.org/2000/svg">
<rect x="0.416667" y="0.416667" width="119.167" height="128" rx="6.25" fill="white"/>
<rect x="0.416667" y="0.416667" width="119.167" height="128" rx="6.25" stroke="#33C468" stroke-width="0.833333"/>
<path d="M44.2888 45.1097C44.8499 45.1097 45.3897 45.2038 45.9082 45.392C46.4302 45.5803 46.8954 45.8803 47.3038 46.2923C47.7157 46.7042 48.0406 47.2511 48.2785 47.9329C48.52 48.6112 48.6425 49.4439 48.6461 50.4311C48.6461 51.358 48.5413 52.1854 48.3318 52.9134C48.1258 53.6378 47.8293 54.2539 47.4423 54.7617C47.0552 55.2695 46.5882 55.6566 46.0413 55.9229C45.4945 56.1857 44.8837 56.3171 44.2089 56.3171C43.481 56.3171 42.8382 56.1768 42.2807 55.8963C41.7231 55.6122 41.2739 55.2269 40.933 54.7404C40.5957 54.2504 40.3915 53.6999 40.3204 53.0891H42.5949C42.6837 53.4869 42.8702 53.7958 43.1543 54.016C43.4383 54.2326 43.7899 54.3409 44.2089 54.3409C44.9192 54.3409 45.4589 54.032 45.8283 53.4141C46.1976 52.7926 46.384 51.9421 46.3876 50.8626H46.313C46.1496 51.1822 45.9295 51.4574 45.6525 51.6882C45.3755 51.9155 45.0577 52.0913 44.699 52.2156C44.3439 52.3398 43.9657 52.402 43.5644 52.402C42.9217 52.402 42.3481 52.2511 41.8439 51.9492C41.3396 51.6474 40.9419 51.2319 40.6507 50.7028C40.3595 50.1737 40.2139 49.57 40.2139 48.8917C40.2104 48.1602 40.379 47.5085 40.7199 46.9368C41.0609 46.3651 41.5367 45.9176 42.1475 45.5945C42.7619 45.2678 43.4756 45.1062 44.2888 45.1097ZM44.3048 46.9208C43.9462 46.9208 43.6266 47.006 43.346 47.1765C43.069 47.3469 42.8489 47.576 42.6855 47.8636C42.5257 48.1513 42.4476 48.4727 42.4511 48.8278C42.4511 49.1864 42.5293 49.5096 42.6855 49.7972C42.8453 50.0813 43.0619 50.3086 43.3354 50.479C43.6123 50.646 43.9284 50.7294 44.2835 50.7294C44.5498 50.7294 44.7967 50.6797 45.0239 50.5803C45.2512 50.4808 45.4483 50.3441 45.6152 50.1701C45.7856 49.9925 45.9188 49.7884 46.0147 49.5575C46.1106 49.3267 46.1585 49.0817 46.1585 48.8224C46.155 48.478 46.0733 48.1619 45.9135 47.8743C45.7537 47.5866 45.5335 47.3558 45.253 47.1818C44.9724 47.0078 44.6564 46.9208 44.3048 46.9208ZM54.1912 45.1097C54.7523 45.1097 55.292 45.2038 55.8105 45.392C56.3325 45.5803 56.7977 45.8803 57.2061 46.2923C57.618 46.7042 57.943 47.2511 58.1809 47.9329C58.4224 48.6112 58.5449 49.4439 58.5484 50.4311C58.5484 51.358 58.4437 52.1854 58.2342 52.9134C58.0282 53.6378 57.7317 54.2539 57.3446 54.7617C56.9575 55.2695 56.4905 55.6566 55.9437 55.9229C55.3968 56.1857 54.786 56.3171 54.1113 56.3171C53.3833 56.3171 52.7405 56.1768 52.183 55.8963C51.6255 55.6122 51.1763 55.2269 50.8354 54.7404C50.498 54.2504 50.2938 53.6999 50.2228 53.0891H52.4973C52.5861 53.4869 52.7725 53.7958 53.0566 54.016C53.3407 54.2326 53.6922 54.3409 54.1113 54.3409C54.8215 54.3409 55.3613 54.032 55.7306 53.4141C56.0999 52.7926 56.2864 51.9421 56.2899 50.8626H56.2153C56.052 51.1822 55.8318 51.4574 55.5548 51.6882C55.2778 51.9155 54.96 52.0913 54.6013 52.2156C54.2462 52.3398 53.868 52.402 53.4668 52.402C52.824 52.402 52.2505 52.2511 51.7462 51.9492C51.242 51.6474 50.8442 51.2319 50.553 50.7028C50.2619 50.1737 50.1163 49.57 50.1163 48.8917C50.1127 48.1602 50.2814 47.5085 50.6223 46.9368C50.9632 46.3651 51.4391 45.9176 52.0498 45.5945C52.6642 45.2678 53.378 45.1062 54.1912 45.1097ZM54.2072 46.9208C53.8485 46.9208 53.5289 47.006 53.2484 47.1765C52.9714 47.3469 52.7512 47.576 52.5878 47.8636C52.428 48.1513 52.3499 48.4727 52.3535 48.8278C52.3535 49.1864 52.4316 49.5096 52.5878 49.7972C52.7476 50.0813 52.9643 50.3086 53.2377 50.479C53.5147 50.646 53.8307 50.7294 54.1859 50.7294C54.4522 50.7294 54.699 50.6797 54.9263 50.5803C55.1535 50.4808 55.3506 50.3441 55.5175 50.1701C55.688 49.9925 55.8212 49.7884 55.917 49.5575C56.0129 49.3267 56.0609 49.0817 56.0609 48.8224C56.0573 48.478 55.9756 48.1619 55.8158 47.8743C55.656 47.5866 55.4359 47.3558 55.1553 47.1818C54.8748 47.0078 54.5587 46.9208 54.2072 46.9208ZM61.0546 56.3065C60.7031 56.3065 60.4012 56.1822 60.1491 55.9336C59.9005 55.6815 59.7762 55.3796 59.7762 55.0281C59.7762 54.68 59.9005 54.3817 60.1491 54.1332C60.4012 53.8846 60.7031 53.7603 61.0546 53.7603C61.3956 53.7603 61.6938 53.8846 61.9495 54.1332C62.2052 54.3817 62.3331 54.68 62.3331 55.0281C62.3331 55.2624 62.2727 55.4773 62.1519 55.6726C62.0348 55.8643 61.8803 56.0188 61.6885 56.136C61.4968 56.2496 61.2855 56.3065 61.0546 56.3065ZM67.9168 45.1097C68.4778 45.1097 69.0176 45.2038 69.5361 45.392C70.0581 45.5803 70.5233 45.8803 70.9317 46.2923C71.3436 46.7042 71.6685 47.2511 71.9065 47.9329C72.1479 48.6112 72.2705 49.4439 72.274 50.4311C72.274 51.358 72.1693 52.1854 71.9597 52.9134C71.7538 53.6378 71.4573 54.2539 71.0702 54.7617C70.6831 55.2695 70.2161 55.6566 69.6693 55.9229C69.1224 56.1857 68.5116 56.3171 67.8369 56.3171C67.1089 56.3171 66.4661 56.1768 65.9086 55.8963C65.3511 55.6122 64.9019 55.2269 64.5609 54.7404C64.2236 54.2504 64.0194 53.6999 63.9484 53.0891H66.2229C66.3117 53.4869 66.4981 53.7958 66.7822 54.016C67.0663 54.2326 67.4178 54.3409 67.8369 54.3409C68.5471 54.3409 69.0869 54.032 69.4562 53.4141C69.8255 52.7926 70.0119 51.9421 70.0155 50.8626H69.9409C69.7776 51.1822 69.5574 51.4574 69.2804 51.6882C69.0034 51.9155 68.6856 52.0913 68.3269 52.2156C67.9718 52.3398 67.5936 52.402 67.1923 52.402C66.5496 52.402 65.9761 52.2511 65.4718 51.9492C64.9676 51.6474 64.5698 51.2319 64.2786 50.7028C63.9874 50.1737 63.8418 49.57 63.8418 48.8917C63.8383 48.1602 64.007 47.5085 64.3479 46.9368C64.6888 46.3651 65.1646 45.9176 65.7754 45.5945C66.3898 45.2678 67.1036 45.1062 67.9168 45.1097ZM67.9328 46.9208C67.5741 46.9208 67.2545 47.006 66.9739 47.1765C66.697 47.3469 66.4768 47.576 66.3134 47.8636C66.1536 48.1513 66.0755 48.4727 66.0791 48.8278C66.0791 49.1864 66.1572 49.5096 66.3134 49.7972C66.4732 50.0813 66.6899 50.3086 66.9633 50.479C67.2403 50.646 67.5563 50.7294 67.9114 50.7294C68.1778 50.7294 68.4246 50.6797 68.6519 50.5803C68.8791 50.4808 69.0762 50.3441 69.2431 50.1701C69.4136 49.9925 69.5467 49.7884 69.6426 49.5575C69.7385 49.3267 69.7864 49.0817 69.7864 48.8224C69.7829 48.478 69.7012 48.1619 69.5414 47.8743C69.3816 47.5866 69.1614 47.3558 68.8809 47.1818C68.6004 47.0078 68.2843 46.9208 67.9328 46.9208ZM79.8433 54.1225V53.5472C79.8433 53.1104 79.9356 52.7092 80.1203 52.3434C80.3085 51.9741 80.5801 51.6793 80.9352 51.4592C81.2939 51.2354 81.7307 51.1236 82.2456 51.1236C82.7676 51.1236 83.2062 51.2337 83.5613 51.4538C83.92 51.674 84.1899 51.9687 84.371 52.3381C84.5556 52.7038 84.6479 53.1069 84.6479 53.5472V54.1225C84.6479 54.5593 84.5556 54.9624 84.371 55.3317C84.1863 55.6974 83.9146 55.9904 83.556 56.2106C83.1973 56.4343 82.7605 56.5462 82.2456 56.5462C81.7236 56.5462 81.285 56.4343 80.9299 56.2106C80.5748 55.9904 80.3049 55.6974 80.1203 55.3317C79.9356 54.9624 79.8433 54.5593 79.8433 54.1225ZM81.3933 53.5472V54.1225C81.3933 54.3746 81.4537 54.6126 81.5744 54.8363C81.6987 55.06 81.9225 55.1719 82.2456 55.1719C82.5688 55.1719 82.7889 55.0618 82.9061 54.8416C83.0269 54.6214 83.0872 54.3817 83.0872 54.1225V53.5472C83.0872 53.288 83.0304 53.0465 82.9168 52.8228C82.8031 52.5991 82.5794 52.4872 82.2456 52.4872C81.926 52.4872 81.7041 52.5991 81.5798 52.8228C81.4555 53.0465 81.3933 53.288 81.3933 53.5472ZM74.2449 47.8796V47.3043C74.2449 46.864 74.339 46.4609 74.5272 46.0952C74.7154 45.7259 74.9871 45.4311 75.3422 45.2109C75.7009 44.9908 76.1341 44.8807 76.6419 44.8807C77.1675 44.8807 77.6078 44.9908 77.9629 45.2109C78.318 45.4311 78.5879 45.7259 78.7726 46.0952C78.9573 46.4609 79.0496 46.864 79.0496 47.3043V47.8796C79.0496 48.32 78.9555 48.723 78.7673 49.0888C78.5826 49.4545 78.3109 49.7475 77.9523 49.9677C77.5972 50.1843 77.1604 50.2926 76.6419 50.2926C76.1234 50.2926 75.6849 50.1825 75.3262 49.9624C74.9711 49.7386 74.7012 49.4457 74.5166 49.0835C74.3354 48.7177 74.2449 48.3164 74.2449 47.8796ZM75.8056 47.3043V47.8796C75.8056 48.1388 75.866 48.3786 75.9867 48.5987C76.111 48.8189 76.3294 48.929 76.6419 48.929C76.9686 48.929 77.1906 48.8189 77.3078 48.5987C77.4285 48.3786 77.4889 48.1388 77.4889 47.8796V47.3043C77.4889 47.0451 77.432 46.8036 77.3184 46.5799C77.2048 46.3562 76.9793 46.2443 76.6419 46.2443C76.3259 46.2443 76.1075 46.358 75.9867 46.5852C75.866 46.8125 75.8056 47.0522 75.8056 47.3043ZM74.948 56.168L82.448 45.2589H83.8436L76.3436 56.168H74.948Z" fill="black"/>
<path d="M97.5 50.834C97.5 71.5447 80.7107 88.334 60 88.334C39.2893 88.334 22.5 71.5447 22.5 50.834C22.5 30.1233 39.2893 13.334 60 13.334C80.7107 13.334 97.5 30.1233 97.5 50.834ZM30 50.834C30 67.4025 43.4315 80.834 60 80.834C76.5685 80.834 90 67.4025 90 50.834C90 34.2654 76.5685 20.834 60 20.834C43.4315 20.834 30 34.2654 30 50.834Z" fill="#F2F0FC"/>
<g filter="url(#filter0_i_2011_10841)">
<path d="M60 17.084C60 15.0129 61.6833 13.3145 63.744 13.5213C71.8264 14.3321 79.4654 17.7518 85.4757 23.316C92.4073 29.7332 96.6618 38.5299 97.3888 47.9479C98.1158 57.3659 95.2617 66.7113 89.3971 74.1162C83.5324 81.5212 75.0892 86.44 65.7551 87.8897C56.421 89.3394 46.8836 87.2131 39.0493 81.9357C31.215 76.6584 25.6609 68.6188 23.4971 59.424C21.3333 50.2291 22.7193 40.5564 27.3781 32.3391C31.4176 25.2141 37.6595 19.6385 45.1153 16.4145C47.0162 15.5925 49.1353 16.7003 49.7635 18.6738C50.3916 20.6473 49.2874 22.7354 47.4076 23.6046C41.7457 26.2229 37.0096 30.5576 33.9025 36.0381C30.1755 42.6119 29.0667 50.3501 30.7977 57.706C32.5287 65.0619 36.972 71.4935 43.2395 75.7154C49.5069 79.9373 57.1368 81.6383 64.6041 80.4786C72.0714 79.3188 78.8259 75.3837 83.5177 69.4598C88.2094 63.5358 90.4926 56.0595 89.911 48.5251C89.3294 40.9907 85.9258 33.9533 80.3805 28.8196C75.7575 24.5396 69.9298 21.8457 63.7404 21.068C61.6855 20.8098 60 19.1551 60 17.084Z" fill="#33C468"/>
</g>
<path d="M24.5553 104.065C24.5099 103.662 24.3224 103.349 23.9928 103.128C23.6633 102.903 23.2485 102.791 22.7485 102.791C22.3906 102.791 22.0809 102.848 21.8195 102.962C21.5582 103.072 21.3551 103.226 21.2102 103.422C21.0681 103.615 20.9971 103.835 20.9971 104.082C20.9971 104.29 21.0454 104.469 21.142 104.619C21.2414 104.77 21.3707 104.896 21.5298 104.999C21.6917 105.098 21.865 105.182 22.0497 105.25C22.2343 105.315 22.4119 105.369 22.5823 105.412L23.4346 105.634C23.713 105.702 23.9985 105.794 24.2911 105.911C24.5837 106.027 24.8551 106.18 25.1051 106.371C25.3551 106.561 25.5568 106.797 25.7102 107.078C25.8664 107.359 25.9445 107.696 25.9445 108.088C25.9445 108.582 25.8167 109.021 25.561 109.405C25.3082 109.788 24.9403 110.091 24.4573 110.312C23.9772 110.534 23.3962 110.645 22.7144 110.645C22.061 110.645 21.4957 110.541 21.0184 110.334C20.5411 110.126 20.1676 109.832 19.8977 109.452C19.6278 109.068 19.4786 108.614 19.4502 108.088H20.7712C20.7968 108.403 20.8991 108.666 21.0781 108.876C21.2599 109.084 21.4914 109.239 21.7727 109.341C22.0568 109.44 22.3678 109.49 22.7059 109.49C23.0781 109.49 23.409 109.432 23.6988 109.315C23.9914 109.196 24.2215 109.031 24.3891 108.821C24.5568 108.608 24.6406 108.359 24.6406 108.075C24.6406 107.817 24.5667 107.605 24.419 107.44C24.2741 107.276 24.0766 107.139 23.8266 107.031C23.5795 106.923 23.2997 106.828 22.9872 106.746L21.9559 106.464C21.257 106.274 20.7031 105.994 20.294 105.625C19.8877 105.256 19.6846 104.767 19.6846 104.159C19.6846 103.656 19.821 103.217 20.0937 102.842C20.3664 102.467 20.7357 102.176 21.2016 101.969C21.6676 101.759 22.1931 101.653 22.7784 101.653C23.3693 101.653 23.8906 101.757 24.3423 101.964C24.7968 102.172 25.1548 102.457 25.4161 102.821C25.6775 103.182 25.8139 103.597 25.8252 104.065H24.5553ZM30.2368 110.632C29.5919 110.632 29.0365 110.494 28.5706 110.219C28.1075 109.94 27.7496 109.55 27.4967 109.047C27.2467 108.541 27.1217 107.949 27.1217 107.27C27.1217 106.599 27.2467 106.009 27.4967 105.497C27.7496 104.986 28.1019 104.587 28.5536 104.3C29.0081 104.013 29.5394 103.869 30.1473 103.869C30.5166 103.869 30.8746 103.93 31.2212 104.053C31.5678 104.175 31.8788 104.366 32.1544 104.628C32.43 104.889 32.6473 105.229 32.8064 105.646C32.9655 106.061 33.045 106.565 33.045 107.159V107.611H27.8419V106.656H31.7965C31.7965 106.321 31.7283 106.024 31.5919 105.766C31.4556 105.504 31.2638 105.298 31.0166 105.148C30.7723 104.997 30.4854 104.922 30.1558 104.922C29.7979 104.922 29.4854 105.01 29.2183 105.186C28.9541 105.359 28.7496 105.587 28.6047 105.868C28.4627 106.146 28.3916 106.449 28.3916 106.776V107.521C28.3916 107.959 28.4683 108.331 28.6217 108.638C28.778 108.945 28.9953 109.179 29.2737 109.341C29.5521 109.5 29.8774 109.58 30.2496 109.58C30.4911 109.58 30.7112 109.545 30.9101 109.477C31.109 109.406 31.2808 109.301 31.4257 109.162C31.5706 109.023 31.6814 108.851 31.7581 108.646L32.9641 108.864C32.8675 109.219 32.6942 109.53 32.4442 109.797C32.197 110.061 31.886 110.267 31.511 110.415C31.1388 110.56 30.7141 110.632 30.2368 110.632ZM34.4587 110.5V103.955H35.6903V104.994H35.7585C35.8778 104.642 36.088 104.365 36.3891 104.163C36.6931 103.959 37.0369 103.857 37.4204 103.857C37.4999 103.857 37.5937 103.859 37.7016 103.865C37.8124 103.871 37.8991 103.878 37.9616 103.886V105.105C37.9105 105.091 37.8195 105.075 37.6889 105.058C37.5582 105.038 37.4275 105.028 37.2968 105.028C36.9957 105.028 36.7272 105.092 36.4914 105.22C36.2585 105.345 36.0738 105.52 35.9374 105.744C35.8011 105.966 35.7329 106.219 35.7329 106.503V110.5H34.4587ZM44.8629 103.955L42.4893 110.5H41.1257L38.7478 103.955H40.1157L41.7734 108.991H41.8416L43.495 103.955H44.8629ZM48.6587 110.632C48.0138 110.632 47.4584 110.494 46.9925 110.219C46.5294 109.94 46.1715 109.55 45.9186 109.047C45.6686 108.541 45.5436 107.949 45.5436 107.27C45.5436 106.599 45.6686 106.009 45.9186 105.497C46.1715 104.986 46.5237 104.587 46.9754 104.3C47.43 104.013 47.9612 103.869 48.5692 103.869C48.9385 103.869 49.2965 103.93 49.6431 104.053C49.9896 104.175 50.3007 104.366 50.5763 104.628C50.8519 104.889 51.0692 105.229 51.2283 105.646C51.3874 106.061 51.4669 106.565 51.4669 107.159V107.611H46.2638V106.656H50.2183C50.2183 106.321 50.1502 106.024 50.0138 105.766C49.8774 105.504 49.6857 105.298 49.4385 105.148C49.1942 104.997 48.9073 104.922 48.5777 104.922C48.2198 104.922 47.9073 105.01 47.6402 105.186C47.376 105.359 47.1715 105.587 47.0266 105.868C46.8845 106.146 46.8135 106.449 46.8135 106.776V107.521C46.8135 107.959 46.8902 108.331 47.0436 108.638C47.1999 108.945 47.4172 109.179 47.6956 109.341C47.974 109.5 48.2993 109.58 48.6715 109.58C48.9129 109.58 49.1331 109.545 49.332 109.477C49.5308 109.406 49.7027 109.301 49.8476 109.162C49.9925 109.023 50.1033 108.851 50.18 108.646L51.386 108.864C51.2894 109.219 51.1161 109.53 50.8661 109.797C50.6189 110.061 50.3078 110.267 49.9328 110.415C49.5607 110.56 49.136 110.632 48.6587 110.632ZM52.8806 110.5V103.955H54.1122V104.994H54.1803C54.2997 104.642 54.5099 104.365 54.811 104.163C55.115 103.959 55.4587 103.857 55.8423 103.857C55.9218 103.857 56.0156 103.859 56.1235 103.865C56.2343 103.871 56.321 103.878 56.3835 103.886V105.105C56.3323 105.091 56.2414 105.075 56.1107 105.058C55.9801 105.038 55.8494 105.028 55.7187 105.028C55.4176 105.028 55.1491 105.092 54.9133 105.22C54.6803 105.345 54.4957 105.52 54.3593 105.744C54.223 105.966 54.1548 106.219 54.1548 106.503V110.5H52.8806ZM66.3764 101.773H67.6974V107.513C67.6974 108.124 67.5539 108.665 67.267 109.136C66.9801 109.605 66.5766 109.974 66.0568 110.244C65.5369 110.511 64.9275 110.645 64.2286 110.645C63.5326 110.645 62.9247 110.511 62.4048 110.244C61.8849 109.974 61.4815 109.605 61.1945 109.136C60.9076 108.665 60.7641 108.124 60.7641 107.513V101.773H62.0809V107.406C62.0809 107.801 62.1676 108.152 62.3409 108.459C62.517 108.766 62.7656 109.007 63.0866 109.183C63.4076 109.357 63.7883 109.443 64.2286 109.443C64.6718 109.443 65.0539 109.357 65.3749 109.183C65.6988 109.007 65.946 108.766 66.1164 108.459C66.2897 108.152 66.3764 107.801 66.3764 107.406V101.773ZM69.5095 112.955V103.955H70.7538V105.016H70.8604C70.9342 104.879 71.0408 104.722 71.18 104.543C71.3192 104.364 71.5124 104.207 71.7595 104.074C72.0067 103.938 72.3334 103.869 72.7396 103.869C73.2681 103.869 73.7396 104.003 74.1544 104.27C74.5692 104.537 74.8945 104.922 75.1303 105.425C75.3689 105.928 75.4882 106.533 75.4882 107.24C75.4882 107.947 75.3703 108.554 75.1345 109.06C74.8987 109.562 74.5749 109.95 74.1629 110.223C73.751 110.493 73.2808 110.628 72.7524 110.628C72.3547 110.628 72.0294 110.561 71.7766 110.428C71.5266 110.294 71.3306 110.138 71.1885 109.959C71.0465 109.78 70.9371 109.621 70.8604 109.482H70.7837V112.955H69.5095ZM70.7581 107.227C70.7581 107.687 70.8249 108.091 70.9584 108.438C71.0919 108.784 71.2851 109.055 71.5379 109.251C71.7908 109.445 72.1004 109.541 72.4669 109.541C72.8476 109.541 73.1658 109.44 73.4215 109.239C73.6771 109.034 73.8703 108.757 74.001 108.408C74.1345 108.058 74.2013 107.665 74.2013 107.227C74.2013 106.795 74.136 106.408 74.0053 106.064C73.8774 105.72 73.6842 105.449 73.4257 105.25C73.17 105.051 72.8504 104.952 72.4669 104.952C72.0976 104.952 71.7851 105.047 71.5294 105.237C71.2766 105.428 71.0848 105.693 70.9541 106.034C70.8235 106.375 70.7581 106.773 70.7581 107.227ZM79.9712 103.955V104.977H76.3959V103.955H79.9712ZM77.3547 102.386H78.6288V108.578C78.6288 108.825 78.6658 109.011 78.7396 109.136C78.8135 109.259 78.9087 109.342 79.0252 109.388C79.1445 109.43 79.2737 109.452 79.4129 109.452C79.5152 109.452 79.6047 109.445 79.6814 109.43C79.7581 109.416 79.8178 109.405 79.8604 109.396L80.0905 110.449C80.0166 110.477 79.9115 110.506 79.7752 110.534C79.6388 110.565 79.4683 110.582 79.2638 110.585C78.9286 110.591 78.6161 110.531 78.3263 110.406C78.0365 110.281 77.8021 110.088 77.6232 109.827C77.4442 109.565 77.3547 109.237 77.3547 108.842V102.386ZM81.3806 110.5V103.955H82.6548V110.5H81.3806ZM82.0241 102.945C81.8025 102.945 81.6122 102.871 81.4531 102.723C81.2968 102.572 81.2187 102.393 81.2187 102.186C81.2187 101.976 81.2968 101.797 81.4531 101.649C81.6122 101.499 81.8025 101.423 82.0241 101.423C82.2457 101.423 82.4346 101.499 82.5909 101.649C82.7499 101.797 82.8295 101.976 82.8295 102.186C82.8295 102.393 82.7499 102.572 82.5909 102.723C82.4346 102.871 82.2457 102.945 82.0241 102.945ZM84.3689 110.5V103.955H85.5919V105.02H85.6729C85.8092 104.659 86.0323 104.378 86.3419 104.176C86.6516 103.972 87.0223 103.869 87.4541 103.869C87.8916 103.869 88.2581 103.972 88.5536 104.176C88.8519 104.381 89.072 104.662 89.2141 105.02H89.2823C89.4385 104.67 89.6871 104.392 90.028 104.185C90.3689 103.974 90.7752 103.869 91.2467 103.869C91.8405 103.869 92.3249 104.055 92.6999 104.428C93.0777 104.8 93.2666 105.361 93.2666 106.111V110.5H91.9925V106.23C91.9925 105.787 91.8718 105.466 91.6303 105.267C91.3888 105.068 91.1004 104.969 90.7652 104.969C90.3504 104.969 90.028 105.097 89.7979 105.352C89.5678 105.605 89.4527 105.93 89.4527 106.328V110.5H88.1828V106.149C88.1828 105.794 88.072 105.509 87.8504 105.293C87.6289 105.077 87.3405 104.969 86.9854 104.969C86.7439 104.969 86.5209 105.033 86.3164 105.161C86.1146 105.286 85.9513 105.46 85.8263 105.685C85.7041 105.909 85.6431 106.169 85.6431 106.464V110.5H84.3689ZM97.7954 110.632C97.1505 110.632 96.5951 110.494 96.1292 110.219C95.6661 109.94 95.3082 109.55 95.0553 109.047C94.8053 108.541 94.6803 107.949 94.6803 107.27C94.6803 106.599 94.8053 106.009 95.0553 105.497C95.3082 104.986 95.6605 104.587 96.1122 104.3C96.5667 104.013 97.098 103.869 97.7059 103.869C98.0752 103.869 98.4332 103.93 98.7798 104.053C99.1264 104.175 99.4374 104.366 99.713 104.628C99.9886 104.889 100.206 105.229 100.365 105.646C100.524 106.061 100.604 106.565 100.604 107.159V107.611H95.4005V106.656H99.3551C99.3551 106.321 99.2869 106.024 99.1505 105.766C99.0142 105.504 98.8224 105.298 98.5752 105.148C98.3309 104.997 98.044 104.922 97.7144 104.922C97.3565 104.922 97.044 105.01 96.7769 105.186C96.5127 105.359 96.3082 105.587 96.1633 105.868C96.0213 106.146 95.9502 106.449 95.9502 106.776V107.521C95.9502 107.959 96.0269 108.331 96.1803 108.638C96.3366 108.945 96.5539 109.179 96.8323 109.341C97.1107 109.5 97.436 109.58 97.8082 109.58C98.0497 109.58 98.2698 109.545 98.4687 109.477C98.6676 109.406 98.8394 109.301 98.9843 109.162C99.1292 109.023 99.24 108.851 99.3167 108.646L100.523 108.864C100.426 109.219 100.253 109.53 100.003 109.797C99.7556 110.061 99.4445 110.267 99.0695 110.415C98.6974 110.56 98.2727 110.632 97.7954 110.632Z" fill="black"/>
<defs>
<filter id="filter0_i_2011_10841" x="22.5" y="13.5039" width="75" height="75.6634" filterUnits="userSpaceOnUse" color-interpolation-filters="sRGB">
<feFlood flood-opacity="0" result="BackgroundImageFix"/>
<feBlend mode="normal" in="SourceGraphic" in2="BackgroundImageFix" result="shape"/>
<feColorMatrix in="SourceAlpha" type="matrix" values="0 0 0 0 0 0 0 0 0 0 0 0 0 0 0 0 0 0 127 0" result="hardAlpha"/>
<feOffset dy="0.833333"/>
<feGaussianBlur stdDeviation="0.416667"/>
<feComposite in2="hardAlpha" operator="arithmetic" k2="-1" k3="1"/>
<feColorMatrix type="matrix" values="0 0 0 0 0.356759 0 0 0 0 0.976544 0 0 0 0 0.583301 0 0 0 1 0"/>
<feBlend mode="normal" in2="shape" result="effect1_innerShadow_2011_10841"/>
</filter>
</defs>
</svg>
