<svg width="104" height="104" viewBox="0 0 104 104" fill="none" xmlns="http://www.w3.org/2000/svg">
<rect width="104" height="104" fill="white"/>
<path d="M78.25 22.5H25.75C23.2687 22.5 21.25 24.5186 21.25 27V67.7682C21.25 70.2496 23.2686 72.2682 25.75 72.2682H35.0625C36.321 74.2132 37.9113 75.9474 39.7611 77.3621C43.3006 80.0691 47.5327 81.5 52 81.5C56.4673 81.5 60.6994 80.0691 64.239 77.362C66.0889 75.9473 67.6791 74.2131 68.9376 72.2681H78.25C80.7313 72.2681 82.75 70.2495 82.75 67.7681V27C82.75 24.5186 80.7313 22.5 78.25 22.5ZM25.75 24H78.25C79.9041 24 81.25 25.3459 81.25 27V33.3895H22.75V27C22.75 25.3459 24.0957 24 25.75 24ZM51.25 71.8271V79.9372C48.608 79.4944 46.2004 76.7354 44.6231 72.5605C46.7604 72.1198 48.9853 71.872 51.25 71.8271ZM44.1331 71.131C43.7779 69.9847 43.4825 68.7505 43.2549 67.4464H51.25V70.3269C48.8175 70.3731 46.4272 70.645 44.1331 71.131ZM52.75 79.9372V71.8271C55.0148 71.8719 57.2396 72.1198 59.3769 72.5605C57.7996 76.7354 55.3919 79.4944 52.75 79.9372ZM52.75 70.3269V67.4464H60.7453C60.5175 68.7505 60.2221 69.9846 59.867 71.131C57.5729 70.645 55.1826 70.3731 52.75 70.3269ZM62.2682 67.4464H69.6399C68.8997 69.5819 67.7863 71.5258 66.3862 73.212C64.7835 72.5071 63.0907 71.925 61.3312 71.4736C61.7181 70.2106 62.0322 68.8628 62.2682 67.4464ZM65.5057 65.9464V56.7257H72.9446C73.9271 56.7257 74.7264 57.5251 74.7264 58.5075V64.1646C74.7264 65.147 73.9271 65.9464 72.9446 65.9464H65.5057ZM62.2682 55.2259C62.0322 53.8096 61.7181 52.4615 61.3314 51.1987C63.0909 50.7472 64.7837 50.1651 66.3864 49.4603C67.7864 51.1465 68.8999 53.0904 69.64 55.2259H62.2682ZM51.25 42.735V50.8452C48.9851 50.8005 46.7604 50.5526 44.6231 50.1117C46.2004 45.937 48.6081 43.1779 51.25 42.735ZM51.25 52.3455V55.2259H43.2547C43.4825 53.9219 43.7779 52.6877 44.133 51.5414C46.4272 52.0274 48.8174 52.2993 51.25 52.3455ZM59.867 51.5414C60.2223 52.6876 60.5176 53.9218 60.7453 55.2259H52.75V52.3455C55.1826 52.2993 57.5729 52.0274 59.867 51.5414ZM52.75 50.8452V42.735C55.3919 43.1779 57.7996 45.937 59.3769 50.1117C57.2398 50.5526 55.0149 50.8004 52.75 50.8452ZM60.8506 49.7735C60.2561 48.1667 59.5345 46.7245 58.6996 45.4865C58.1361 44.651 57.5363 43.9331 56.9069 43.335C60.113 44.2166 63.0169 45.9414 65.3223 48.284C63.8978 48.882 62.4019 49.381 60.8506 49.7735ZM45.3004 45.4866C44.4655 46.7246 43.7438 48.1667 43.1494 49.7736C41.5983 49.3811 40.1022 48.8821 38.6777 48.2841C40.9831 45.9416 43.887 44.2167 47.0931 43.3351C46.4637 43.9333 45.8639 44.6511 45.3004 45.4866ZM37.6138 49.4603C39.2164 50.1653 40.9093 50.7472 42.6688 51.1987C42.282 52.4615 41.9679 53.8096 41.7319 55.2259H34.3603C35.1003 53.0904 36.2138 51.1465 37.6138 49.4603ZM64.0057 56.7259V65.9465H31.0555C30.0731 65.9465 29.2739 65.1471 29.2739 64.1647V58.5076C29.2739 57.5252 30.0731 56.7259 31.0555 56.7259H64.0057ZM41.7319 67.4464C41.9679 68.8628 42.2819 70.2106 42.6688 71.4736C40.9093 71.925 39.2164 72.5071 37.6138 73.212C36.2138 71.5258 35.1002 69.5819 34.3601 67.4464H41.7319ZM38.6777 74.3882C40.1022 73.7904 41.5983 73.2914 43.1494 72.8988C43.7439 74.5056 44.4654 75.9478 45.3004 77.1857C45.8639 78.0212 46.4637 78.7391 47.0931 79.3372C43.8871 78.4555 40.9831 76.7307 38.6777 74.3882ZM56.9069 79.3371C57.5363 78.739 58.1362 78.0211 58.6997 77.1856C59.5346 75.9476 60.2562 74.5056 60.8507 72.8986C62.4019 73.2912 63.8979 73.7902 65.3224 74.3882C63.0169 76.7307 60.113 78.4555 56.9069 79.3371ZM78.25 70.7682H69.8195C70.3846 69.7057 70.8549 68.5935 71.22 67.4465H72.9445C74.7541 67.4465 76.2262 65.9744 76.2262 64.1647V58.5076C76.2262 56.698 74.7541 55.2259 72.9445 55.2259H71.22C69.9764 51.3196 67.514 47.8149 64.239 45.3102C60.6995 42.6032 56.4674 41.1723 52 41.1723C47.5326 41.1723 43.3005 42.6031 39.761 45.3102C36.486 47.815 34.0235 51.3196 32.78 55.2259H31.0555C29.246 55.2259 27.7739 56.698 27.7739 58.5076V64.1647C27.7739 65.9744 29.246 67.4465 31.0555 67.4465H32.78C33.1451 68.5935 33.6154 69.7057 34.1805 70.7682H25.75C24.0959 70.7682 22.75 69.4224 22.75 67.7682V34.8895H81.25V67.7681C81.25 69.4224 79.9043 70.7682 78.25 70.7682ZM27.9548 31.0825C29.2714 31.0825 30.3425 30.0114 30.3425 28.6946C30.3425 27.3781 29.2714 26.3069 27.9548 26.3069C26.6381 26.3069 25.5669 27.378 25.5669 28.6946C25.5669 30.0114 26.6381 31.0825 27.9548 31.0825ZM27.9548 27.807C28.4443 27.807 28.8425 28.2052 28.8425 28.6947C28.8425 29.1842 28.4443 29.5826 27.9548 29.5826C27.4651 29.5826 27.0669 29.1842 27.0669 28.6947C27.0669 28.2052 27.4651 27.807 27.9548 27.807ZM35.1609 31.0825C36.4775 31.0825 37.5487 30.0114 37.5487 28.6946C37.5487 27.3781 36.4776 26.3069 35.1609 26.3069C33.8443 26.3069 32.7731 27.378 32.7731 28.6946C32.7731 30.0114 33.8444 31.0825 35.1609 31.0825ZM35.1609 27.807C35.6505 27.807 36.0487 28.2052 36.0487 28.6947C36.0487 29.1842 35.6505 29.5826 35.1609 29.5826C34.6714 29.5826 34.2731 29.1842 34.2731 28.6947C34.2731 28.2052 34.6714 27.807 35.1609 27.807ZM42.3671 31.0825C43.6838 31.0825 44.755 30.0114 44.755 28.6946C44.755 27.3781 43.6839 26.3069 42.3671 26.3069C41.0505 26.3069 39.9794 27.378 39.9794 28.6946C39.9794 30.0114 41.0506 31.0825 42.3671 31.0825ZM42.3671 27.807C42.8568 27.807 43.255 28.2052 43.255 28.6947C43.255 29.1842 42.8568 29.5826 42.3671 29.5826C41.8776 29.5826 41.4794 29.1842 41.4794 28.6947C41.4794 28.2052 41.8776 27.807 42.3671 27.807ZM61.6329 31.0825H76.0454C77.362 31.0825 78.4331 30.0114 78.4331 28.6946C78.4331 27.3781 77.362 26.3069 76.0454 26.3069H61.6329C60.3162 26.3069 59.2451 27.378 59.2451 28.6946C59.2451 30.0114 60.3162 31.0825 61.6329 31.0825ZM61.6329 27.807H76.0454C76.5349 27.807 76.9331 28.2052 76.9331 28.6947C76.9331 29.1842 76.5349 29.5826 76.0454 29.5826H61.6329C61.1434 29.5826 60.7451 29.1842 60.7451 28.6947C60.7451 28.2052 61.1434 27.807 61.6329 27.807ZM73.3595 63.519L72.2308 62.3903C72.4945 61.9441 72.6466 61.4245 72.6466 60.8698C72.6466 59.2173 71.3022 57.8727 69.6496 57.8727C67.997 57.8727 66.6526 59.2173 66.6526 60.8698C66.6526 62.5223 67.9971 63.8667 69.6496 63.8667C70.2044 63.8667 70.724 63.7146 71.1701 63.4509L72.2988 64.5795C72.4453 64.726 72.6371 64.7993 72.8291 64.7993C73.0211 64.7993 73.213 64.726 73.3595 64.5795C73.6524 64.2867 73.6524 63.8119 73.3595 63.519ZM68.1527 60.8699C68.1527 60.0444 68.8244 59.3729 69.6497 59.3729C70.4751 59.3729 71.1468 60.0444 71.1468 60.8699C71.1468 61.6954 70.4753 62.3669 69.6497 62.3669C68.8242 62.3669 68.1527 61.6953 68.1527 60.8699Z" fill="#6F56DA"/>
</svg>
