<svg width="104" height="104" viewBox="0 0 104 104" fill="none" xmlns="http://www.w3.org/2000/svg">
<rect width="104" height="104" fill="white"/>
<g clip-path="url(#clip0_2011_10814)">
<path d="M52.5766 54.8008L42.9766 82.7008C45.8516 83.5508 48.8766 84.0008 52.0266 84.0008C55.7516 84.0008 59.3266 83.3508 62.6516 82.1758C62.5766 82.0258 62.4766 81.9008 62.4266 81.7508L52.5766 54.8008Z" fill="#21759B"/>
<path d="M20 51.9996C20 64.6496 27.35 75.6246 38.025 80.7996L22.775 38.9746C21 42.9496 20 47.3496 20 51.9996Z" fill="#21759B"/>
<path d="M73.6016 50.375C73.6016 46.425 72.1766 43.675 70.9516 41.55C69.3266 38.925 67.8016 36.675 67.8016 34.05C67.8016 31.1 70.0266 28.375 73.1766 28.375C73.3016 28.375 73.4516 28.4 73.5766 28.4C67.8766 23.175 60.3016 20 51.9766 20C40.8016 20 30.9516 25.75 25.2266 34.425C25.9766 34.45 26.6766 34.475 27.2766 34.475C30.6266 34.475 35.8016 34.075 35.8016 34.075C37.5266 33.975 37.7266 36.5 36.0016 36.725C36.0016 36.725 34.2766 36.925 32.3516 37.025L44.0016 71.675L51.0016 50.675L46.0016 37.025C44.2766 36.925 42.6516 36.725 42.6516 36.725C40.9266 36.625 41.1266 33.975 42.8516 34.075C42.8516 34.075 48.1266 34.475 51.2766 34.475C54.6266 34.475 59.8016 34.075 59.8016 34.075C61.5266 33.975 61.7266 36.5 60.0016 36.725C60.0016 36.725 58.2766 36.925 56.3516 37.025L67.9266 71.425L71.1266 60.775C72.8016 56.575 73.6016 53.125 73.6016 50.375Z" fill="#21759B"/>
<path d="M80.0766 36.6504C80.2266 37.6754 80.3016 38.7754 80.3016 39.9504C80.3016 43.2004 79.7016 46.8504 77.8766 51.4004L68.1016 79.6504C77.6016 74.1004 84.0016 63.8004 84.0016 52.0004C84.0016 46.4254 82.5766 41.2004 80.0766 36.6504Z" fill="#21759B"/>
</g>
<defs>
<clipPath id="clip0_2011_10814">
<rect width="64" height="64" fill="white" transform="translate(20 20)"/>
</clipPath>
</defs>
</svg>
