<svg width="120" height="128" viewBox="0 0 120 128" fill="none" xmlns="http://www.w3.org/2000/svg">
<rect x="0.416667" y="0.416667" width="119.167" height="127" rx="6.25" fill="white"/>
<rect x="0.416667" y="0.416667" width="119.167" height="127" rx="6.25" stroke="url(#paint0_linear_2011_9597)" stroke-width="0.833333"/>
<path d="M44.2888 45.1097C44.8499 45.1097 45.3897 45.2038 45.9082 45.392C46.4302 45.5803 46.8954 45.8803 47.3038 46.2923C47.7157 46.7042 48.0406 47.2511 48.2785 47.9329C48.52 48.6112 48.6425 49.4439 48.6461 50.4311C48.6461 51.358 48.5413 52.1854 48.3318 52.9134C48.1258 53.6378 47.8293 54.2539 47.4423 54.7617C47.0552 55.2695 46.5882 55.6566 46.0413 55.9229C45.4945 56.1857 44.8837 56.3171 44.2089 56.3171C43.481 56.3171 42.8382 56.1768 42.2807 55.8963C41.7231 55.6122 41.2739 55.2269 40.933 54.7404C40.5957 54.2504 40.3915 53.6999 40.3204 53.0891H42.5949C42.6837 53.4869 42.8702 53.7958 43.1543 54.016C43.4383 54.2326 43.7899 54.3409 44.2089 54.3409C44.9192 54.3409 45.4589 54.032 45.8283 53.4141C46.1976 52.7926 46.384 51.9421 46.3876 50.8626H46.313C46.1496 51.1822 45.9295 51.4574 45.6525 51.6882C45.3755 51.9155 45.0577 52.0913 44.699 52.2156C44.3439 52.3398 43.9657 52.402 43.5644 52.402C42.9217 52.402 42.3481 52.2511 41.8439 51.9492C41.3396 51.6474 40.9419 51.2319 40.6507 50.7028C40.3595 50.1737 40.2139 49.57 40.2139 48.8917C40.2104 48.1602 40.379 47.5085 40.7199 46.9368C41.0609 46.3651 41.5367 45.9176 42.1475 45.5945C42.7619 45.2678 43.4756 45.1062 44.2888 45.1097ZM44.3048 46.9208C43.9462 46.9208 43.6266 47.006 43.346 47.1765C43.069 47.3469 42.8489 47.576 42.6855 47.8636C42.5257 48.1513 42.4476 48.4727 42.4511 48.8278C42.4511 49.1864 42.5293 49.5096 42.6855 49.7972C42.8453 50.0813 43.0619 50.3086 43.3354 50.479C43.6123 50.646 43.9284 50.7294 44.2835 50.7294C44.5498 50.7294 44.7967 50.6797 45.0239 50.5803C45.2512 50.4808 45.4483 50.3441 45.6152 50.1701C45.7856 49.9925 45.9188 49.7884 46.0147 49.5575C46.1106 49.3267 46.1585 49.0817 46.1585 48.8224C46.155 48.478 46.0733 48.1619 45.9135 47.8743C45.7537 47.5866 45.5335 47.3558 45.253 47.1818C44.9724 47.0078 44.6564 46.9208 44.3048 46.9208ZM54.1912 45.1097C54.7523 45.1097 55.292 45.2038 55.8105 45.392C56.3325 45.5803 56.7977 45.8803 57.2061 46.2923C57.618 46.7042 57.943 47.2511 58.1809 47.9329C58.4224 48.6112 58.5449 49.4439 58.5484 50.4311C58.5484 51.358 58.4437 52.1854 58.2342 52.9134C58.0282 53.6378 57.7317 54.2539 57.3446 54.7617C56.9575 55.2695 56.4905 55.6566 55.9437 55.9229C55.3968 56.1857 54.786 56.3171 54.1113 56.3171C53.3833 56.3171 52.7405 56.1768 52.183 55.8963C51.6255 55.6122 51.1763 55.2269 50.8354 54.7404C50.498 54.2504 50.2938 53.6999 50.2228 53.0891H52.4973C52.5861 53.4869 52.7725 53.7958 53.0566 54.016C53.3407 54.2326 53.6922 54.3409 54.1113 54.3409C54.8215 54.3409 55.3613 54.032 55.7306 53.4141C56.0999 52.7926 56.2864 51.9421 56.2899 50.8626H56.2153C56.052 51.1822 55.8318 51.4574 55.5548 51.6882C55.2778 51.9155 54.96 52.0913 54.6013 52.2156C54.2462 52.3398 53.868 52.402 53.4668 52.402C52.824 52.402 52.2505 52.2511 51.7462 51.9492C51.242 51.6474 50.8442 51.2319 50.553 50.7028C50.2619 50.1737 50.1163 49.57 50.1163 48.8917C50.1127 48.1602 50.2814 47.5085 50.6223 46.9368C50.9632 46.3651 51.4391 45.9176 52.0498 45.5945C52.6642 45.2678 53.378 45.1062 54.1912 45.1097ZM54.2072 46.9208C53.8485 46.9208 53.5289 47.006 53.2484 47.1765C52.9714 47.3469 52.7512 47.576 52.5878 47.8636C52.428 48.1513 52.3499 48.4727 52.3535 48.8278C52.3535 49.1864 52.4316 49.5096 52.5878 49.7972C52.7476 50.0813 52.9643 50.3086 53.2377 50.479C53.5147 50.646 53.8307 50.7294 54.1859 50.7294C54.4522 50.7294 54.699 50.6797 54.9263 50.5803C55.1535 50.4808 55.3506 50.3441 55.5175 50.1701C55.688 49.9925 55.8212 49.7884 55.917 49.5575C56.0129 49.3267 56.0609 49.0817 56.0609 48.8224C56.0573 48.478 55.9756 48.1619 55.8158 47.8743C55.656 47.5866 55.4359 47.3558 55.1553 47.1818C54.8748 47.0078 54.5587 46.9208 54.2072 46.9208ZM61.0546 56.3065C60.7031 56.3065 60.4012 56.1822 60.1491 55.9336C59.9005 55.6815 59.7762 55.3796 59.7762 55.0281C59.7762 54.68 59.9005 54.3817 60.1491 54.1332C60.4012 53.8846 60.7031 53.7603 61.0546 53.7603C61.3956 53.7603 61.6938 53.8846 61.9495 54.1332C62.2052 54.3817 62.3331 54.68 62.3331 55.0281C62.3331 55.2624 62.2727 55.4773 62.1519 55.6726C62.0348 55.8643 61.8803 56.0188 61.6885 56.136C61.4968 56.2496 61.2855 56.3065 61.0546 56.3065ZM67.9168 45.1097C68.4778 45.1097 69.0176 45.2038 69.5361 45.392C70.0581 45.5803 70.5233 45.8803 70.9317 46.2923C71.3436 46.7042 71.6685 47.2511 71.9065 47.9329C72.1479 48.6112 72.2705 49.4439 72.274 50.4311C72.274 51.358 72.1693 52.1854 71.9597 52.9134C71.7538 53.6378 71.4573 54.2539 71.0702 54.7617C70.6831 55.2695 70.2161 55.6566 69.6693 55.9229C69.1224 56.1857 68.5116 56.3171 67.8369 56.3171C67.1089 56.3171 66.4661 56.1768 65.9086 55.8963C65.3511 55.6122 64.9019 55.2269 64.5609 54.7404C64.2236 54.2504 64.0194 53.6999 63.9484 53.0891H66.2229C66.3117 53.4869 66.4981 53.7958 66.7822 54.016C67.0663 54.2326 67.4178 54.3409 67.8369 54.3409C68.5471 54.3409 69.0869 54.032 69.4562 53.4141C69.8255 52.7926 70.0119 51.9421 70.0155 50.8626H69.9409C69.7776 51.1822 69.5574 51.4574 69.2804 51.6882C69.0034 51.9155 68.6856 52.0913 68.3269 52.2156C67.9718 52.3398 67.5936 52.402 67.1923 52.402C66.5496 52.402 65.9761 52.2511 65.4718 51.9492C64.9676 51.6474 64.5698 51.2319 64.2786 50.7028C63.9874 50.1737 63.8418 49.57 63.8418 48.8917C63.8383 48.1602 64.007 47.5085 64.3479 46.9368C64.6888 46.3651 65.1646 45.9176 65.7754 45.5945C66.3898 45.2678 67.1036 45.1062 67.9168 45.1097ZM67.9328 46.9208C67.5741 46.9208 67.2545 47.006 66.9739 47.1765C66.697 47.3469 66.4768 47.576 66.3134 47.8636C66.1536 48.1513 66.0755 48.4727 66.0791 48.8278C66.0791 49.1864 66.1572 49.5096 66.3134 49.7972C66.4732 50.0813 66.6899 50.3086 66.9633 50.479C67.2403 50.646 67.5563 50.7294 67.9114 50.7294C68.1778 50.7294 68.4246 50.6797 68.6519 50.5803C68.8791 50.4808 69.0762 50.3441 69.2431 50.1701C69.4136 49.9925 69.5467 49.7884 69.6426 49.5575C69.7385 49.3267 69.7864 49.0817 69.7864 48.8224C69.7829 48.478 69.7012 48.1619 69.5414 47.8743C69.3816 47.5866 69.1614 47.3558 68.8809 47.1818C68.6004 47.0078 68.2843 46.9208 67.9328 46.9208ZM79.8433 54.1225V53.5472C79.8433 53.1104 79.9356 52.7092 80.1203 52.3434C80.3085 51.9741 80.5801 51.6793 80.9352 51.4592C81.2939 51.2354 81.7307 51.1236 82.2456 51.1236C82.7676 51.1236 83.2062 51.2337 83.5613 51.4538C83.92 51.674 84.1899 51.9687 84.371 52.3381C84.5556 52.7038 84.6479 53.1069 84.6479 53.5472V54.1225C84.6479 54.5593 84.5556 54.9624 84.371 55.3317C84.1863 55.6974 83.9146 55.9904 83.556 56.2106C83.1973 56.4343 82.7605 56.5462 82.2456 56.5462C81.7236 56.5462 81.285 56.4343 80.9299 56.2106C80.5748 55.9904 80.3049 55.6974 80.1203 55.3317C79.9356 54.9624 79.8433 54.5593 79.8433 54.1225ZM81.3933 53.5472V54.1225C81.3933 54.3746 81.4537 54.6126 81.5744 54.8363C81.6987 55.06 81.9225 55.1719 82.2456 55.1719C82.5688 55.1719 82.7889 55.0618 82.9061 54.8416C83.0269 54.6214 83.0872 54.3817 83.0872 54.1225V53.5472C83.0872 53.288 83.0304 53.0465 82.9168 52.8228C82.8031 52.5991 82.5794 52.4872 82.2456 52.4872C81.926 52.4872 81.7041 52.5991 81.5798 52.8228C81.4555 53.0465 81.3933 53.288 81.3933 53.5472ZM74.2449 47.8796V47.3043C74.2449 46.864 74.339 46.4609 74.5272 46.0952C74.7154 45.7259 74.9871 45.4311 75.3422 45.2109C75.7009 44.9908 76.1341 44.8807 76.6419 44.8807C77.1675 44.8807 77.6078 44.9908 77.9629 45.2109C78.318 45.4311 78.5879 45.7259 78.7726 46.0952C78.9573 46.4609 79.0496 46.864 79.0496 47.3043V47.8796C79.0496 48.32 78.9555 48.723 78.7673 49.0888C78.5826 49.4545 78.3109 49.7475 77.9523 49.9677C77.5972 50.1843 77.1604 50.2926 76.6419 50.2926C76.1234 50.2926 75.6849 50.1825 75.3262 49.9624C74.9711 49.7386 74.7012 49.4457 74.5166 49.0835C74.3354 48.7177 74.2449 48.3164 74.2449 47.8796ZM75.8056 47.3043V47.8796C75.8056 48.1388 75.866 48.3786 75.9867 48.5987C76.111 48.8189 76.3294 48.929 76.6419 48.929C76.9686 48.929 77.1906 48.8189 77.3078 48.5987C77.4285 48.3786 77.4889 48.1388 77.4889 47.8796V47.3043C77.4889 47.0451 77.432 46.8036 77.3184 46.5799C77.2048 46.3562 76.9793 46.2443 76.6419 46.2443C76.3259 46.2443 76.1075 46.358 75.9867 46.5852C75.866 46.8125 75.8056 47.0522 75.8056 47.3043ZM74.948 56.168L82.448 45.2589H83.8436L76.3436 56.168H74.948Z" fill="black"/>
<path d="M97.5 50.834C97.5 71.5447 80.7107 88.334 60 88.334C39.2893 88.334 22.5 71.5447 22.5 50.834C22.5 30.1233 39.2893 13.334 60 13.334C80.7107 13.334 97.5 30.1233 97.5 50.834ZM28.2213 50.834C28.2213 68.3849 42.4491 82.6127 60 82.6127C77.5509 82.6127 91.7787 68.3849 91.7787 50.834C91.7787 33.2831 77.5509 19.0552 60 19.0552C42.4491 19.0552 28.2213 33.2831 28.2213 50.834Z" fill="#F2F0FC"/>
<g filter="url(#filter0_i_2011_9597)">
<path d="M60 16.1946C60 14.6147 61.2828 13.3226 62.8581 13.443C71.2671 14.0855 79.2462 17.5489 85.4757 23.316C92.4073 29.7332 96.6618 38.5299 97.3888 47.9479C98.1158 57.3659 95.2617 66.7113 89.3971 74.1162C83.5324 81.5212 75.0892 86.44 65.7551 87.8897C56.421 89.3394 46.8836 87.2131 39.0493 81.9357C31.215 76.6584 25.6609 68.6188 23.4971 59.424C21.3333 50.2291 22.7193 40.5564 27.3781 32.3391C31.5649 24.9543 38.1177 19.2339 45.9357 16.0712C47.4003 15.4787 49.0146 16.3209 49.4937 17.8263C49.9729 19.3318 49.1343 20.9287 47.678 21.5413C41.2309 24.2531 35.8309 29.0301 32.3551 35.1608C28.4071 42.1244 27.2326 50.3214 29.0662 58.1134C30.8999 65.9055 35.6066 72.7184 42.2457 77.1906C48.8848 81.6628 56.9671 83.4648 64.8771 82.2363C72.7871 81.0077 79.9422 76.8393 84.912 70.5641C89.8819 64.2889 92.3006 56.3693 91.6845 48.3882C91.0684 40.4071 87.463 32.9524 81.5889 27.5143C76.4174 22.7266 69.8229 19.8125 62.8569 19.1839C61.2834 19.0419 60 17.7745 60 16.1946Z" fill="#6F56DA"/>
</g>
<path d="M25.5399 104.244C25.4957 103.852 25.3134 103.548 24.993 103.333C24.6726 103.114 24.2694 103.005 23.7833 103.005C23.4352 103.005 23.1342 103.061 22.8801 103.171C22.626 103.279 22.4285 103.428 22.2876 103.618C22.1495 103.806 22.0805 104.02 22.0805 104.261C22.0805 104.462 22.1274 104.636 22.2213 104.783C22.318 104.929 22.4437 105.052 22.5984 105.151C22.7558 105.248 22.9243 105.33 23.1038 105.396C23.2833 105.459 23.456 105.512 23.6217 105.553L24.4503 105.769C24.7209 105.835 24.9985 105.925 25.283 106.038C25.5675 106.151 25.8313 106.3 26.0743 106.485C26.3174 106.67 26.5135 106.9 26.6626 107.173C26.8145 107.447 26.8905 107.774 26.8905 108.155C26.8905 108.636 26.7662 109.062 26.5176 109.435C26.2718 109.808 25.9141 110.102 25.4446 110.318C24.9778 110.533 24.413 110.641 23.7501 110.641C23.1148 110.641 22.5652 110.54 22.1012 110.338C21.6372 110.137 21.274 109.851 21.0116 109.481C20.7492 109.108 20.6042 108.666 20.5766 108.155H21.8609C21.8858 108.462 21.9852 108.717 22.1592 108.922C22.336 109.123 22.5611 109.274 22.8345 109.373C23.1107 109.47 23.4131 109.518 23.7418 109.518C24.1036 109.518 24.4254 109.461 24.7071 109.348C24.9916 109.232 25.2153 109.072 25.3783 108.868C25.5413 108.661 25.6227 108.419 25.6227 108.143C25.6227 107.891 25.5509 107.686 25.4073 107.525C25.2664 107.365 25.0745 107.233 24.8314 107.128C24.5911 107.023 24.3191 106.93 24.0153 106.85L23.0127 106.577C22.3332 106.392 21.7946 106.119 21.3969 105.76C21.0019 105.401 20.8044 104.926 20.8044 104.335C20.8044 103.846 20.937 103.42 21.2022 103.055C21.4673 102.69 21.8264 102.407 22.2793 102.206C22.7323 102.001 23.2433 101.899 23.8123 101.899C24.3867 101.899 24.8936 102 25.3327 102.202C25.7746 102.403 26.1227 102.681 26.3768 103.034C26.6309 103.385 26.7634 103.788 26.7745 104.244H25.5399ZM31.0635 110.628C30.4366 110.628 29.8966 110.494 29.4436 110.227C28.9934 109.956 28.6454 109.576 28.3996 109.087C28.1565 108.596 28.035 108.02 28.035 107.36C28.035 106.708 28.1565 106.133 28.3996 105.636C28.6454 105.139 28.9879 104.751 29.427 104.472C29.869 104.193 30.3855 104.054 30.9765 104.054C31.3356 104.054 31.6836 104.113 32.0206 104.232C32.3575 104.35 32.66 104.537 32.9279 104.791C33.1958 105.045 33.4071 105.375 33.5617 105.781C33.7164 106.184 33.7938 106.675 33.7938 107.252V107.691H28.7352V106.763H32.5799C32.5799 106.437 32.5136 106.148 32.381 105.897C32.2484 105.643 32.062 105.443 31.8217 105.296C31.5842 105.15 31.3052 105.077 30.9848 105.077C30.6368 105.077 30.333 105.162 30.0733 105.334C29.8165 105.502 29.6176 105.723 29.4768 105.997C29.3387 106.267 29.2696 106.561 29.2696 106.879V107.604C29.2696 108.029 29.3442 108.391 29.4933 108.69C29.6452 108.988 29.8565 109.216 30.1272 109.373C30.3979 109.528 30.7141 109.605 31.076 109.605C31.3107 109.605 31.5248 109.572 31.7181 109.506C31.9115 109.437 32.0786 109.334 32.2194 109.199C32.3603 109.064 32.468 108.897 32.5426 108.698L33.715 108.909C33.6211 109.254 33.4526 109.557 33.2096 109.816C32.9693 110.073 32.6669 110.274 32.3023 110.417C31.9405 110.558 31.5275 110.628 31.0635 110.628ZM35.1682 110.5V104.136H36.3655V105.147H36.4318C36.5478 104.805 36.7522 104.535 37.045 104.339C37.3405 104.141 37.6747 104.041 38.0476 104.041C38.1249 104.041 38.2161 104.044 38.321 104.049C38.4287 104.055 38.513 104.062 38.5737 104.07V105.255C38.524 105.241 38.4356 105.226 38.3086 105.209C38.1815 105.19 38.0545 105.18 37.9274 105.18C37.6347 105.18 37.3736 105.243 37.1444 105.367C36.9179 105.488 36.7384 105.658 36.6058 105.876C36.4732 106.092 36.4069 106.338 36.4069 106.614V110.5H35.1682ZM45.2833 104.136L42.9757 110.5H41.6499L39.3381 104.136H40.668L42.2796 109.033H42.3459L43.9534 104.136H45.2833ZM48.9737 110.628C48.3467 110.628 47.8067 110.494 47.3538 110.227C46.9036 109.956 46.5556 109.576 46.3097 109.087C46.0667 108.596 45.9452 108.02 45.9452 107.36C45.9452 106.708 46.0667 106.133 46.3097 105.636C46.5556 105.139 46.898 104.751 47.3372 104.472C47.7791 104.193 48.2956 104.054 48.8867 104.054C49.2457 104.054 49.5937 104.113 49.9307 104.232C50.2677 104.35 50.5701 104.537 50.838 104.791C51.1059 105.045 51.3172 105.375 51.4719 105.781C51.6266 106.184 51.7039 106.675 51.7039 107.252V107.691H46.6453V106.763H50.49C50.49 106.437 50.4237 106.148 50.2912 105.897C50.1586 105.643 49.9721 105.443 49.7318 105.296C49.4943 105.15 49.2154 105.077 48.895 105.077C48.547 105.077 48.2431 105.162 47.9835 105.334C47.7266 105.502 47.5278 105.723 47.3869 105.997C47.2488 106.267 47.1798 106.561 47.1798 106.879V107.604C47.1798 108.029 47.2543 108.391 47.4035 108.69C47.5554 108.988 47.7667 109.216 48.0374 109.373C48.308 109.528 48.6243 109.605 48.9861 109.605C49.2209 109.605 49.4349 109.572 49.6283 109.506C49.8216 109.437 49.9887 109.334 50.1296 109.199C50.2704 109.064 50.3782 108.897 50.4527 108.698L51.6252 108.909C51.5313 109.254 51.3628 109.557 51.1197 109.816C50.8795 110.073 50.577 110.274 50.2124 110.417C49.8506 110.558 49.4377 110.628 48.9737 110.628ZM53.0784 110.5V104.136H54.2757V105.147H54.342C54.458 104.805 54.6624 104.535 54.9551 104.339C55.2507 104.141 55.5849 104.041 55.9577 104.041C56.0351 104.041 56.1262 104.044 56.2312 104.049C56.3389 104.055 56.4231 104.062 56.4839 104.07V105.255C56.4342 105.241 56.3458 105.226 56.2187 105.209C56.0917 105.19 55.9646 105.18 55.8376 105.18C55.5448 105.18 55.2838 105.243 55.0546 105.367C54.8281 105.488 54.6485 105.658 54.516 105.876C54.3834 106.092 54.3171 106.338 54.3171 106.614V110.5H53.0784ZM66.1992 102.015H67.4835V107.596C67.4835 108.19 67.3441 108.716 67.0651 109.174C66.7861 109.63 66.3939 109.989 65.8885 110.251C65.383 110.511 64.7906 110.641 64.1111 110.641C63.4344 110.641 62.8434 110.511 62.3379 110.251C61.8325 109.989 61.4403 109.63 61.1613 109.174C60.8824 108.716 60.7429 108.19 60.7429 107.596V102.015H62.0231V107.492C62.0231 107.876 62.1073 108.217 62.2758 108.516C62.447 108.814 62.6887 109.049 63.0008 109.22C63.3129 109.388 63.683 109.473 64.1111 109.473C64.542 109.473 64.9135 109.388 65.2256 109.22C65.5405 109.049 65.7808 108.814 65.9465 108.516C66.115 108.217 66.1992 107.876 66.1992 107.492V102.015ZM69.2453 112.886V104.136H70.4551V105.168H70.5587C70.6305 105.035 70.7341 104.882 70.8694 104.708C71.0047 104.534 71.1925 104.382 71.4328 104.252C71.6731 104.12 71.9908 104.054 72.3857 104.054C72.8995 104.054 73.3579 104.183 73.7612 104.443C74.1645 104.703 74.4807 105.077 74.7099 105.566C74.942 106.055 75.058 106.643 75.058 107.331C75.058 108.018 74.9433 108.608 74.7141 109.1C74.4848 109.589 74.17 109.966 73.7695 110.231C73.369 110.493 72.9119 110.624 72.3982 110.624C72.0115 110.624 71.6952 110.559 71.4494 110.43C71.2064 110.3 71.0158 110.148 70.8777 109.974C70.7396 109.8 70.6332 109.645 70.5587 109.51H70.4841V112.886H69.2453ZM70.4592 107.318C70.4592 107.766 70.5241 108.158 70.654 108.495C70.7838 108.832 70.9716 109.096 71.2174 109.286C71.4632 109.474 71.7643 109.568 72.1206 109.568C72.4907 109.568 72.8 109.47 73.0486 109.274C73.2972 109.075 73.485 108.806 73.6121 108.466C73.7419 108.126 73.8068 107.744 73.8068 107.318C73.8068 106.898 73.7432 106.521 73.6162 106.187C73.4919 105.853 73.3041 105.589 73.0527 105.396C72.8042 105.202 72.4934 105.106 72.1206 105.106C71.7615 105.106 71.4577 105.198 71.2091 105.383C70.9633 105.568 70.7769 105.827 70.6498 106.158C70.5228 106.49 70.4592 106.876 70.4592 107.318ZM79.4164 104.136V105.131H75.9404V104.136H79.4164ZM76.8726 102.612H78.1113V108.632C78.1113 108.872 78.1473 109.053 78.2191 109.174C78.2909 109.293 78.3834 109.374 78.4966 109.419C78.6126 109.46 78.7383 109.481 78.8737 109.481C78.9731 109.481 79.0601 109.474 79.1347 109.46C79.2092 109.446 79.2672 109.435 79.3087 109.427L79.5324 110.45C79.4606 110.478 79.3584 110.506 79.2258 110.533C79.0932 110.564 78.9275 110.58 78.7287 110.583C78.4027 110.588 78.0989 110.53 77.8172 110.409C77.5355 110.287 77.3076 110.1 77.1336 109.845C76.9596 109.591 76.8726 109.272 76.8726 108.888V102.612ZM80.7867 110.5V104.136H82.0254V110.5H80.7867ZM81.4123 103.154C81.1968 103.154 81.0118 103.083 80.8571 102.939C80.7052 102.793 80.6292 102.619 80.6292 102.417C80.6292 102.213 80.7052 102.039 80.8571 101.895C81.0118 101.749 81.1968 101.675 81.4123 101.675C81.6277 101.675 81.8114 101.749 81.9633 101.895C82.118 102.039 82.1953 102.213 82.1953 102.417C82.1953 102.619 82.118 102.793 81.9633 102.939C81.8114 103.083 81.6277 103.154 81.4123 103.154ZM83.692 110.5V104.136H84.881V105.172H84.9597C85.0923 104.821 85.3091 104.548 85.6102 104.352C85.9112 104.153 86.2717 104.054 86.6915 104.054C87.1168 104.054 87.4731 104.153 87.7604 104.352C88.0504 104.551 88.2644 104.824 88.4025 105.172H88.4688C88.6207 104.832 88.8624 104.562 89.1938 104.36C89.5253 104.156 89.9203 104.054 90.3787 104.054C90.956 104.054 91.4269 104.234 91.7915 104.596C92.1589 104.958 92.3425 105.504 92.3425 106.233V110.5H91.1038V106.349C91.1038 105.918 90.9864 105.606 90.7516 105.412C90.5168 105.219 90.2365 105.122 89.9106 105.122C89.5073 105.122 89.1938 105.247 88.9701 105.495C88.7464 105.741 88.6345 106.057 88.6345 106.444V110.5H87.3999V106.27C87.3999 105.925 87.2922 105.647 87.0768 105.437C86.8613 105.227 86.581 105.122 86.2358 105.122C86.001 105.122 85.7842 105.185 85.5853 105.309C85.3892 105.43 85.2304 105.6 85.1089 105.818C84.9901 106.037 84.9307 106.289 84.9307 106.577V110.5H83.692ZM96.7455 110.628C96.1185 110.628 95.5785 110.494 95.1256 110.227C94.6754 109.956 94.3274 109.576 94.0815 109.087C93.8385 108.596 93.717 108.02 93.717 107.36C93.717 106.708 93.8385 106.133 94.0815 105.636C94.3274 105.139 94.6699 104.751 95.109 104.472C95.5509 104.193 96.0674 104.054 96.6585 104.054C97.0175 104.054 97.3656 104.113 97.7025 104.232C98.0395 104.35 98.3419 104.537 98.6098 104.791C98.8778 105.045 99.089 105.375 99.2437 105.781C99.3984 106.184 99.4757 106.675 99.4757 107.252V107.691H94.4171V106.763H98.2618C98.2618 106.437 98.1955 106.148 98.063 105.897C97.9304 105.643 97.744 105.443 97.5037 105.296C97.2661 105.15 96.9872 105.077 96.6668 105.077C96.3188 105.077 96.0149 105.162 95.7553 105.334C95.4985 105.502 95.2996 105.723 95.1587 105.997C95.0206 106.267 94.9516 106.561 94.9516 106.879V107.604C94.9516 108.029 95.0262 108.391 95.1753 108.69C95.3272 108.988 95.5385 109.216 95.8092 109.373C96.0799 109.528 96.3961 109.605 96.7579 109.605C96.9927 109.605 97.2067 109.572 97.4001 109.506C97.5934 109.437 97.7605 109.334 97.9014 109.199C98.0422 109.064 98.15 108.897 98.2245 108.698L99.397 108.909C99.3031 109.254 99.1346 109.557 98.8916 109.816C98.6513 110.073 98.3488 110.274 97.9842 110.417C97.6224 110.558 97.2095 110.628 96.7455 110.628Z" fill="black"/>
<defs>
<filter id="filter0_i_2011_9597" x="22.5" y="13.4355" width="75" height="75.7318" filterUnits="userSpaceOnUse" color-interpolation-filters="sRGB">
<feFlood flood-opacity="0" result="BackgroundImageFix"/>
<feBlend mode="normal" in="SourceGraphic" in2="BackgroundImageFix" result="shape"/>
<feColorMatrix in="SourceAlpha" type="matrix" values="0 0 0 0 0 0 0 0 0 0 0 0 0 0 0 0 0 0 127 0" result="hardAlpha"/>
<feOffset dy="0.833333"/>
<feGaussianBlur stdDeviation="0.416667"/>
<feComposite in2="hardAlpha" operator="arithmetic" k2="-1" k3="1"/>
<feColorMatrix type="matrix" values="0 0 0 0 0.804104 0 0 0 0 0.758333 0 0 0 0 1 0 0 0 1 0"/>
<feBlend mode="normal" in2="shape" result="effect1_innerShadow_2011_9597"/>
</filter>
<linearGradient id="paint0_linear_2011_9597" x1="108.75" y1="66.4069" x2="60.234" y2="128.018" gradientUnits="userSpaceOnUse">
<stop stop-color="#1E212B"/>
<stop offset="1"/>
</linearGradient>
</defs>
</svg>
