<svg width="212" height="76" viewBox="0 0 212 76" fill="none" xmlns="http://www.w3.org/2000/svg">
<g clip-path="url(#clip0_2011_13383)">
<rect width="212" height="76" rx="9.42222" fill="white"/>
<rect x="13.542" y="12.3662" width="36.5111" height="36.5111" rx="8.83333" stroke="#DAD2FB" stroke-width="1.17778"/>
<g clip-path="url(#clip1_2011_13383)">
<path d="M24.2999 39.2945C22.8175 37.8121 21.808 35.9233 21.399 33.8671C20.99 31.8109 21.1999 29.6796 22.0022 27.7427C22.8045 25.8059 24.1631 24.1504 25.9063 22.9856C27.6494 21.8209 29.6988 21.1992 31.7953 21.1992C33.8918 21.1992 35.9412 21.8209 37.6843 22.9856C39.4275 24.1504 40.7861 25.8059 41.5884 27.7427C42.3907 29.6796 42.6006 31.8109 42.1917 33.8671C41.7827 35.9233 40.7731 37.8121 39.2907 39.2945" stroke="#6F56DA" stroke-width="2.35556" stroke-linecap="round" stroke-linejoin="round"/>
<path d="M36.508 27.0879L31.7969 31.799" stroke="#6F56DA" stroke-width="2.35556" stroke-linecap="round" stroke-linejoin="round"/>
</g>
<path d="M68.2436 35.9881C67.0842 35.9881 66.0528 35.7999 65.1494 35.4235C64.251 35.0421 63.5459 34.5226 63.0339 33.8651C62.522 33.2076 62.2661 32.4623 62.2661 31.6292C62.2661 30.9868 62.4116 30.397 62.7027 29.86C62.9988 29.318 63.4003 28.8688 63.9072 28.5124C64.4142 28.1511 64.9813 27.9202 65.6087 27.8198V27.7144C64.7856 27.5488 64.118 27.1498 63.6061 26.5174C63.0942 25.88 62.8382 25.1397 62.8382 24.2965C62.8382 23.4985 63.0716 22.7883 63.5384 22.166C64.0051 21.5386 64.645 21.0468 65.4581 20.6904C66.2762 20.329 67.2047 20.1484 68.2436 20.1484C69.2825 20.1484 70.2085 20.329 71.0216 20.6904C71.8397 21.0518 72.4821 21.5461 72.9489 22.1735C73.4156 22.7959 73.6515 23.5035 73.6565 24.2965C73.6515 25.1447 73.3905 25.885 72.8736 26.5174C72.3566 27.1498 71.6941 27.5488 70.8861 27.7144V27.8198C71.5034 27.9202 72.063 28.1511 72.5649 28.5124C73.0718 28.8688 73.4733 29.318 73.7695 29.86C74.0706 30.397 74.2237 30.9868 74.2287 31.6292C74.2237 32.4623 73.9652 33.2076 73.4533 33.8651C72.9413 34.5226 72.2337 35.0421 71.3303 35.4235C70.4319 35.7999 69.403 35.9881 68.2436 35.9881ZM68.2436 33.5941C68.7606 33.5941 69.2123 33.5013 69.5987 33.3156C69.9852 33.1248 70.2863 32.8638 70.5021 32.5326C70.723 32.1963 70.8334 31.8099 70.8334 31.3732C70.8334 30.9265 70.7205 30.5326 70.4946 30.1913C70.2688 29.845 69.9626 29.5739 69.5761 29.3782C69.1897 29.1774 68.7455 29.0771 68.2436 29.0771C67.7467 29.0771 67.3026 29.1774 66.9111 29.3782C66.5196 29.5739 66.2109 29.845 65.9851 30.1913C65.7643 30.5326 65.6538 30.9265 65.6538 31.3732C65.6538 31.8099 65.7617 32.1963 65.9776 32.5326C66.1934 32.8638 66.497 33.1248 66.8885 33.3156C67.28 33.5013 67.7317 33.5941 68.2436 33.5941ZM68.2436 26.7056C68.6752 26.7056 69.0592 26.6178 69.3955 26.4421C69.7317 26.2665 69.9952 26.023 70.1859 25.7119C70.3767 25.4007 70.472 25.0418 70.472 24.6353C70.472 24.2338 70.3767 23.8825 70.1859 23.5813C69.9952 23.2752 69.7342 23.0368 69.403 22.8661C69.0717 22.6905 68.6853 22.6026 68.2436 22.6026C67.807 22.6026 67.4205 22.6905 67.0842 22.8661C66.748 23.0368 66.4845 23.2752 66.2938 23.5813C66.108 23.8825 66.0152 24.2338 66.0152 24.6353C66.0152 25.0418 66.1106 25.4007 66.3013 25.7119C66.492 26.023 66.7555 26.2665 67.0918 26.4421C67.428 26.6178 67.812 26.7056 68.2436 26.7056ZM82.0865 20.1484C82.8795 20.1484 83.6423 20.2814 84.3751 20.5474C85.1129 20.8134 85.7704 21.2375 86.3476 21.8197C86.9297 22.4019 87.389 23.1748 87.7252 24.1384C88.0665 25.097 88.2397 26.274 88.2447 27.6692C88.2447 28.9792 88.0967 30.1486 87.8005 31.1775C87.5094 32.2013 87.0904 33.0721 86.5433 33.7898C85.9962 34.5076 85.3362 35.0546 84.5633 35.431C83.7904 35.8024 82.9271 35.9881 81.9735 35.9881C80.9447 35.9881 80.0362 35.7899 79.2483 35.3934C78.4603 34.9919 77.8254 34.4473 77.3436 33.7597C76.8668 33.0671 76.5782 32.2892 76.4778 31.4259H79.6924C79.8179 31.988 80.0814 32.4247 80.4829 32.7359C80.8844 33.042 81.3813 33.1951 81.9735 33.1951C82.9773 33.1951 83.7402 32.7585 84.2622 31.8852C84.7842 31.0068 85.0476 29.8048 85.0527 28.279H84.9473C84.7164 28.7308 84.4052 29.1197 84.0137 29.446C83.6223 29.7672 83.1731 30.0156 82.6662 30.1913C82.1643 30.3669 81.6297 30.4548 81.0626 30.4548C80.1542 30.4548 79.3436 30.2415 78.6309 29.8148C77.9182 29.3882 77.3561 28.801 76.9446 28.0532C76.533 27.3054 76.3272 26.4522 76.3272 25.4935C76.3222 24.4596 76.5606 23.5387 77.0424 22.7306C77.5243 21.9226 78.1968 21.2902 79.0601 20.8335C79.9283 20.3717 80.9371 20.1433 82.0865 20.1484ZM82.1091 22.708C81.6021 22.708 81.1504 22.8285 80.7539 23.0694C80.3625 23.3103 80.0513 23.634 79.8204 24.0406C79.5946 24.4471 79.4842 24.9013 79.4892 25.4032C79.4892 25.9101 79.5996 26.3668 79.8204 26.7734C80.0463 27.1749 80.3524 27.4961 80.7389 27.737C81.1304 27.9729 81.577 28.0908 82.0789 28.0908C82.4554 28.0908 82.8042 28.0206 83.1254 27.88C83.4466 27.7395 83.7252 27.5463 83.961 27.3004C84.202 27.0494 84.3902 26.7608 84.5257 26.4346C84.6612 26.1084 84.7289 25.762 84.7289 25.3957C84.7239 24.9088 84.6085 24.4621 84.3826 24.0556C84.1568 23.6491 83.8456 23.3228 83.4491 23.0769C83.0526 22.831 82.6059 22.708 82.1091 22.708ZM98.9426 32.8864V32.0734C98.9426 31.456 99.0731 30.8889 99.3341 30.3719C99.6001 29.85 99.984 29.4334 100.486 29.1222C100.993 28.806 101.61 28.6479 102.338 28.6479C103.076 28.6479 103.696 28.8035 104.197 29.1147C104.704 29.4259 105.086 29.8424 105.342 30.3644C105.603 30.8814 105.733 31.451 105.733 32.0734V32.8864C105.733 33.5038 105.603 34.0734 105.342 34.5954C105.081 35.1123 104.697 35.5264 104.19 35.8376C103.683 36.1538 103.066 36.3119 102.338 36.3119C101.6 36.3119 100.98 36.1538 100.478 35.8376C99.9765 35.5264 99.595 35.1123 99.3341 34.5954C99.0731 34.0734 98.9426 33.5038 98.9426 32.8864ZM101.133 32.0734V32.8864C101.133 33.2428 101.219 33.579 101.389 33.8952C101.565 34.2114 101.881 34.3695 102.338 34.3695C102.795 34.3695 103.106 34.2139 103.271 33.9028C103.442 33.5916 103.527 33.2528 103.527 32.8864V32.0734C103.527 31.707 103.447 31.3657 103.286 31.0495C103.126 30.7333 102.81 30.5752 102.338 30.5752C101.886 30.5752 101.573 30.7333 101.397 31.0495C101.221 31.3657 101.133 31.707 101.133 32.0734ZM91.0302 24.0631V23.2501C91.0302 22.6277 91.1632 22.0581 91.4292 21.5411C91.6952 21.0192 92.0792 20.6026 92.5811 20.2914C93.088 19.9802 93.7003 19.8246 94.418 19.8246C95.1608 19.8246 95.7832 19.9802 96.2851 20.2914C96.7869 20.6026 97.1684 21.0192 97.4294 21.5411C97.6904 22.0581 97.8208 22.6277 97.8208 23.2501V24.0631C97.8208 24.6855 97.6878 25.2551 97.4218 25.7721C97.1609 26.289 96.7769 26.7031 96.27 27.0143C95.7681 27.3204 95.1508 27.4735 94.418 27.4735C93.6852 27.4735 93.0654 27.3179 92.5585 27.0067C92.0566 26.6906 91.6752 26.2765 91.4142 25.7646C91.1582 25.2476 91.0302 24.6805 91.0302 24.0631ZM93.236 23.2501V24.0631C93.236 24.4295 93.3214 24.7683 93.492 25.0795C93.6677 25.3906 93.9763 25.5462 94.418 25.5462C94.8797 25.5462 95.1934 25.3906 95.3591 25.0795C95.5297 24.7683 95.615 24.4295 95.615 24.0631V23.2501C95.615 22.8837 95.5347 22.5424 95.3741 22.2262C95.2135 21.91 94.8948 21.7519 94.418 21.7519C93.9713 21.7519 93.6627 21.9125 93.492 22.2337C93.3214 22.5549 93.236 22.8937 93.236 23.2501ZM92.024 35.7773L102.624 20.3592H104.596L93.9964 35.7773H92.024Z" fill="#131415"/>
<path d="M62.2794 56.7773V48.2117H67.4155V49.1318H63.3167V52.0261H67.0307V52.9462H63.3167V56.7773H62.2794ZM70.9486 56.9279C70.5415 56.9279 70.1721 56.8512 69.8403 56.6979C69.5085 56.5417 69.245 56.3173 69.0498 56.0245C68.8546 55.7289 68.757 55.372 68.757 54.9538C68.757 54.5857 68.8295 54.2874 68.9745 54.0588C69.1195 53.8273 69.3133 53.6461 69.5559 53.515C69.7984 53.384 70.0661 53.2864 70.3589 53.2223C70.6544 53.1553 70.9514 53.1024 71.2497 53.0633C71.6401 53.0131 71.9566 52.9755 72.1992 52.9504C72.4445 52.9225 72.623 52.8765 72.7345 52.8124C72.8488 52.7483 72.906 52.6367 72.906 52.4778V52.4443C72.906 52.0317 72.7931 51.711 72.5672 51.4824C72.3442 51.2537 72.0054 51.1394 71.5509 51.1394C71.0797 51.1394 70.7102 51.2426 70.4425 51.4489C70.1749 51.6552 69.9866 51.8755 69.8779 52.1097L68.941 51.7751C69.1083 51.3848 69.3314 51.0808 69.6102 50.8634C69.8918 50.6431 70.1986 50.4897 70.5304 50.4033C70.865 50.3141 71.194 50.2695 71.5174 50.2695C71.7238 50.2695 71.9608 50.2945 72.2284 50.3447C72.4989 50.3921 72.7596 50.4911 73.0106 50.6417C73.2643 50.7923 73.4748 51.0195 73.6421 51.3234C73.8094 51.6274 73.8931 52.0344 73.8931 52.5447V56.7773H72.906V55.9074H72.8558C72.7889 56.0468 72.6774 56.196 72.5212 56.3549C72.3651 56.5138 72.1573 56.6491 71.898 56.7606C71.6387 56.8721 71.3222 56.9279 70.9486 56.9279ZM71.0992 56.0412C71.4895 56.0412 71.8186 55.9646 72.0862 55.8112C72.3567 55.6578 72.5602 55.4599 72.6969 55.2173C72.8363 54.9747 72.906 54.7196 72.906 54.4519V53.5485C72.8642 53.5987 72.7722 53.6447 72.63 53.6865C72.4905 53.7255 72.3288 53.7604 72.1448 53.7911C71.9635 53.819 71.7865 53.8441 71.6136 53.8664C71.4435 53.8859 71.3055 53.9026 71.1996 53.9165C70.943 53.95 70.7032 54.0044 70.4802 54.0797C70.2599 54.1522 70.0814 54.2623 69.9448 54.4101C69.811 54.5551 69.7441 54.753 69.7441 55.004C69.7441 55.3469 69.8709 55.6063 70.1247 55.7819C70.3812 55.9548 70.706 56.0412 71.0992 56.0412ZM80.2451 51.7919L79.3585 52.0428C79.3027 51.895 79.2204 51.7514 79.1117 51.612C79.0057 51.4698 78.8608 51.3527 78.6767 51.2607C78.4927 51.1687 78.2571 51.1227 77.9699 51.1227C77.5767 51.1227 77.2491 51.2133 76.987 51.3945C76.7277 51.573 76.5981 51.8002 76.5981 52.0763C76.5981 52.3216 76.6873 52.5154 76.8657 52.6576C77.0442 52.7998 77.323 52.9183 77.7022 53.0131L78.6558 53.2474C79.2302 53.3868 79.6582 53.6001 79.9398 53.8873C80.2214 54.1717 80.3623 54.5383 80.3623 54.9873C80.3623 55.3553 80.2563 55.6843 80.0444 55.9743C79.8353 56.2643 79.5425 56.4929 79.1661 56.6602C78.7897 56.8275 78.3519 56.9112 77.8528 56.9112C77.1975 56.9112 76.6552 56.769 76.2258 56.4846C75.7964 56.2002 75.5246 55.7847 75.4102 55.2382L76.3471 55.004C76.4363 55.3497 76.605 55.609 76.8532 55.7819C77.1041 55.9548 77.4318 56.0412 77.8361 56.0412C78.2961 56.0412 78.6614 55.9436 78.9319 55.7485C79.2051 55.5505 79.3417 55.3135 79.3417 55.0374C79.3417 54.8144 79.2637 54.6276 79.1075 54.477C78.9514 54.3236 78.7116 54.2093 78.3881 54.134L77.3174 53.8831C76.7291 53.7437 76.2969 53.5276 76.0209 53.2348C75.7476 52.9392 75.611 52.5698 75.611 52.1265C75.611 51.764 75.7128 51.4433 75.9163 51.1645C76.1226 50.8857 76.4029 50.6668 76.757 50.5079C77.1139 50.3489 77.5182 50.2695 77.9699 50.2695C78.6056 50.2695 79.1047 50.4089 79.4672 50.6877C79.8325 50.9665 80.0918 51.3346 80.2451 51.7919ZM84.6419 50.3531V51.1896H81.3127V50.3531H84.6419ZM82.283 48.814H83.2701V54.9371C83.2701 55.2159 83.3105 55.425 83.3914 55.5644C83.475 55.7011 83.581 55.7931 83.7093 55.8405C83.8403 55.8851 83.9783 55.9074 84.1233 55.9074C84.2321 55.9074 84.3213 55.9018 84.391 55.8907C84.4607 55.8767 84.5165 55.8656 84.5583 55.8572L84.7591 56.7439C84.6921 56.769 84.5987 56.7941 84.4788 56.8192C84.3589 56.8471 84.207 56.861 84.0229 56.861C83.7441 56.861 83.4709 56.801 83.2032 56.6811C82.9383 56.5613 82.718 56.3786 82.5424 56.1332C82.3695 55.8879 82.283 55.5784 82.283 55.2047V48.814ZM88.7512 56.9112C88.1322 56.9112 87.5982 56.7746 87.1493 56.5013C86.7032 56.2253 86.3588 55.8405 86.1163 55.3469C85.8765 54.8506 85.7566 54.2735 85.7566 53.6154C85.7566 52.9574 85.8765 52.3774 86.1163 51.8755C86.3588 51.3708 86.6962 50.9777 87.1284 50.6961C87.5634 50.4117 88.0709 50.2695 88.6508 50.2695C88.9854 50.2695 89.3158 50.3252 89.6421 50.4367C89.9683 50.5483 90.2653 50.7295 90.5329 50.9805C90.8006 51.2286 91.0139 51.5576 91.1728 51.9675C91.3318 52.3774 91.4112 52.8821 91.4112 53.4816V53.8998H86.4592V53.0466H90.4075C90.4075 52.6841 90.335 52.3607 90.19 52.0763C90.0478 51.7919 89.8442 51.5674 89.5793 51.4029C89.3172 51.2384 89.0077 51.1561 88.6508 51.1561C88.2577 51.1561 87.9175 51.2537 87.6303 51.4489C87.3459 51.6413 87.127 51.8922 86.9737 52.2017C86.8203 52.5112 86.7436 52.8431 86.7436 53.1972V53.766C86.7436 54.2511 86.8273 54.6624 86.9946 54.9998C87.1647 55.3344 87.4003 55.5895 87.7014 55.7652C88.0025 55.9381 88.3525 56.0245 88.7512 56.0245C89.0105 56.0245 89.2447 55.9883 89.4539 55.9158C89.6658 55.8405 89.8484 55.7289 90.0018 55.5812C90.1551 55.4306 90.2736 55.2438 90.3573 55.0207L91.3109 55.2884C91.2105 55.6118 91.0418 55.8962 90.8048 56.1416C90.5678 56.3842 90.275 56.5738 89.9265 56.7104C89.5779 56.8443 89.1862 56.9112 88.7512 56.9112ZM92.9127 56.7773V50.3531H93.8663V51.3234H93.9333C94.0504 51.0056 94.2623 50.7476 94.569 50.5497C94.8757 50.3517 95.2215 50.2527 95.6062 50.2527C95.6787 50.2527 95.7694 50.2541 95.8781 50.2569C95.9868 50.2597 96.0691 50.2639 96.1249 50.2695V51.2732C96.0914 51.2649 96.0147 51.2523 95.8948 51.2356C95.7777 51.2161 95.6536 51.2063 95.5226 51.2063C95.2103 51.2063 94.9315 51.2718 94.6861 51.4029C94.4435 51.5312 94.2511 51.7096 94.1089 51.9382C93.9695 52.1641 93.8998 52.422 93.8998 52.712V56.7773H92.9127ZM102.297 56.7773L99.9549 48.2117H101.009L102.799 55.188H102.883L104.706 48.2117H105.877L107.701 55.188H107.784L109.575 48.2117H110.629L108.286 56.7773H107.216L105.325 49.9516H105.258L103.368 56.7773H102.297ZM113.882 56.9112C113.263 56.9112 112.73 56.7746 112.281 56.5013C111.834 56.2253 111.49 55.8405 111.248 55.3469C111.008 54.8506 110.888 54.2735 110.888 53.6154C110.888 52.9574 111.008 52.3774 111.248 51.8755C111.49 51.3708 111.828 50.9777 112.26 50.6961C112.695 50.4117 113.202 50.2695 113.782 50.2695C114.117 50.2695 114.447 50.3252 114.773 50.4367C115.1 50.5483 115.397 50.7295 115.664 50.9805C115.932 51.2286 116.145 51.5576 116.304 51.9675C116.463 52.3774 116.543 52.8821 116.543 53.4816V53.8998H111.591V53.0466H115.539C115.539 52.6841 115.466 52.3607 115.321 52.0763C115.179 51.7919 114.976 51.5674 114.711 51.4029C114.449 51.2384 114.139 51.1561 113.782 51.1561C113.389 51.1561 113.049 51.2537 112.762 51.4489C112.477 51.6413 112.258 51.8922 112.105 52.2017C111.952 52.5112 111.875 52.8431 111.875 53.1972V53.766C111.875 54.2511 111.959 54.6624 112.126 54.9998C112.296 55.3344 112.532 55.5895 112.833 55.7652C113.134 55.9381 113.484 56.0245 113.882 56.0245C114.142 56.0245 114.376 55.9883 114.585 55.9158C114.797 55.8405 114.98 55.7289 115.133 55.5812C115.286 55.4306 115.405 55.2438 115.489 55.0207L116.442 55.2884C116.342 55.6118 116.173 55.8962 115.936 56.1416C115.699 56.3842 115.406 56.5738 115.058 56.7104C114.709 56.8443 114.317 56.9112 113.882 56.9112ZM118.178 56.7773V48.2117H119.165V51.3736H119.249C119.321 51.2621 119.421 51.1199 119.55 50.947C119.681 50.7713 119.868 50.6152 120.11 50.4786C120.356 50.3392 120.687 50.2695 121.106 50.2695C121.647 50.2695 122.123 50.4047 122.536 50.6751C122.949 50.9456 123.271 51.329 123.502 51.8253C123.734 52.3216 123.849 52.9072 123.849 53.582C123.849 54.2623 123.734 54.852 123.502 55.3511C123.271 55.8474 122.95 56.2322 122.54 56.5055C122.13 56.7759 121.658 56.9112 121.122 56.9112C120.71 56.9112 120.379 56.8429 120.131 56.7062C119.883 56.5668 119.692 56.4093 119.558 56.2336C119.424 56.0552 119.321 55.9074 119.249 55.7903H119.131V56.7773H118.178ZM119.148 53.5652C119.148 54.0504 119.219 54.4784 119.362 54.8492C119.504 55.2173 119.711 55.5059 119.985 55.715C120.258 55.9213 120.593 56.0245 120.988 56.0245C121.401 56.0245 121.746 55.9158 122.022 55.6983C122.3 55.478 122.509 55.1824 122.649 54.8116C122.791 54.438 122.862 54.0225 122.862 53.5652C122.862 53.1135 122.793 52.7064 122.653 52.3439C122.516 51.9787 122.309 51.6901 122.03 51.4782C121.754 51.2635 121.407 51.1561 120.988 51.1561C120.587 51.1561 120.25 51.2579 119.976 51.4615C119.703 51.6622 119.497 51.9438 119.357 52.3063C119.218 52.666 119.148 53.0856 119.148 53.5652ZM128.805 56.7773V48.2117H129.843V52.0261H134.41V48.2117H135.447V56.7773H134.41V52.9462H129.843V56.7773H128.805ZM140 56.9112C139.42 56.9112 138.911 56.7732 138.473 56.4971C138.038 56.2211 137.698 55.8349 137.453 55.3386C137.21 54.8423 137.089 54.2623 137.089 53.5987C137.089 52.9295 137.21 52.3453 137.453 51.8462C137.698 51.3471 138.038 50.9596 138.473 50.6835C138.911 50.4075 139.42 50.2695 140 50.2695C140.58 50.2695 141.087 50.4075 141.522 50.6835C141.96 50.9596 142.3 51.3471 142.543 51.8462C142.788 52.3453 142.911 52.9295 142.911 53.5987C142.911 54.2623 142.788 54.8423 142.543 55.3386C142.3 55.8349 141.96 56.2211 141.522 56.4971C141.087 56.7732 140.58 56.9112 140 56.9112ZM140 56.0245C140.44 56.0245 140.803 55.9116 141.087 55.6857C141.372 55.4599 141.582 55.1629 141.719 54.7949C141.855 54.4268 141.924 54.0281 141.924 53.5987C141.924 53.1693 141.855 52.7692 141.719 52.3983C141.582 52.0275 141.372 51.7277 141.087 51.4991C140.803 51.2705 140.44 51.1561 140 51.1561C139.559 51.1561 139.197 51.2705 138.912 51.4991C138.628 51.7277 138.417 52.0275 138.281 52.3983C138.144 52.7692 138.076 53.1693 138.076 53.5987C138.076 54.0281 138.144 54.4268 138.281 54.7949C138.417 55.1629 138.628 55.4599 138.912 55.6857C139.197 55.9116 139.559 56.0245 140 56.0245ZM148.968 51.7919L148.081 52.0428C148.026 51.895 147.943 51.7514 147.835 51.612C147.729 51.4698 147.584 51.3527 147.4 51.2607C147.216 51.1687 146.98 51.1227 146.693 51.1227C146.3 51.1227 145.972 51.2133 145.71 51.3945C145.451 51.573 145.321 51.8002 145.321 52.0763C145.321 52.3216 145.41 52.5154 145.589 52.6576C145.767 52.7998 146.046 52.9183 146.425 53.0131L147.379 53.2474C147.953 53.3868 148.381 53.6001 148.663 53.8873C148.944 54.1717 149.085 54.5383 149.085 54.9873C149.085 55.3553 148.979 55.6843 148.767 55.9743C148.558 56.2643 148.265 56.4929 147.889 56.6602C147.513 56.8275 147.075 56.9112 146.576 56.9112C145.92 56.9112 145.378 56.769 144.949 56.4846C144.519 56.2002 144.247 55.7847 144.133 55.2382L145.07 55.004C145.159 55.3497 145.328 55.609 145.576 55.7819C145.827 55.9548 146.155 56.0412 146.559 56.0412C147.019 56.0412 147.384 55.9436 147.655 55.7485C147.928 55.5505 148.065 55.3135 148.065 55.0374C148.065 54.8144 147.987 54.6276 147.83 54.477C147.674 54.3236 147.434 54.2093 147.111 54.134L146.04 53.8831C145.452 53.7437 145.02 53.5276 144.744 53.2348C144.47 52.9392 144.334 52.5698 144.334 52.1265C144.334 51.764 144.436 51.4433 144.639 51.1645C144.846 50.8857 145.126 50.6668 145.48 50.5079C145.837 50.3489 146.241 50.2695 146.693 50.2695C147.329 50.2695 147.828 50.4089 148.19 50.6877C148.555 50.9665 148.815 51.3346 148.968 51.7919ZM153.365 50.3531V51.1896H150.036V50.3531H153.365ZM151.006 48.814H151.993V54.9371C151.993 55.2159 152.033 55.425 152.114 55.5644C152.198 55.7011 152.304 55.7931 152.432 55.8405C152.563 55.8851 152.701 55.9074 152.846 55.9074C152.955 55.9074 153.044 55.9018 153.114 55.8907C153.184 55.8767 153.239 55.8656 153.281 55.8572L153.482 56.7439C153.415 56.769 153.322 56.7941 153.202 56.8192C153.082 56.8471 152.93 56.861 152.746 56.861C152.467 56.861 152.194 56.801 151.926 56.6811C151.661 56.5613 151.441 56.3786 151.265 56.1332C151.092 55.8879 151.006 55.5784 151.006 55.2047V48.814ZM154.85 56.7773V50.3531H155.837V56.7773H154.85ZM155.351 49.2824C155.159 49.2824 154.993 49.2169 154.854 49.0858C154.717 48.9548 154.649 48.7972 154.649 48.6132C154.649 48.4292 154.717 48.2716 154.854 48.1406C154.993 48.0095 155.159 47.944 155.351 47.944C155.544 47.944 155.708 48.0095 155.845 48.1406C155.984 48.2716 156.054 48.4292 156.054 48.6132C156.054 48.7972 155.984 48.9548 155.845 49.0858C155.708 49.2169 155.544 49.2824 155.351 49.2824ZM158.632 52.9128V56.7773H157.645V50.3531H158.598V51.3569H158.682C158.832 51.0307 159.061 50.7686 159.368 50.5706C159.674 50.3698 160.07 50.2695 160.555 50.2695C160.99 50.2695 161.371 50.3587 161.697 50.5371C162.024 50.7128 162.277 50.9805 162.459 51.3402C162.64 51.6971 162.73 52.1488 162.73 52.6953V56.7773H161.743V52.7622C161.743 52.2575 161.612 51.8644 161.35 51.5827C161.088 51.2983 160.728 51.1561 160.271 51.1561C159.956 51.1561 159.674 51.2244 159.426 51.3611C159.181 51.4977 158.987 51.6971 158.845 51.9592C158.703 52.2213 158.632 52.5391 158.632 52.9128ZM167.127 59.3203C166.65 59.3203 166.24 59.2589 165.898 59.1362C165.555 59.0163 165.269 58.8574 165.04 58.6594C164.814 58.4643 164.634 58.2551 164.501 58.0321L165.287 57.48C165.376 57.5971 165.489 57.7309 165.626 57.8815C165.762 58.0349 165.949 58.1673 166.186 58.2788C166.426 58.3932 166.74 58.4503 167.127 58.4503C167.646 58.4503 168.074 58.3249 168.411 58.0739C168.749 57.823 168.917 57.4298 168.917 56.8945V55.5895H168.834C168.761 55.7066 168.658 55.8516 168.524 56.0245C168.393 56.1946 168.203 56.3466 167.955 56.4804C167.71 56.6114 167.378 56.677 166.96 56.677C166.441 56.677 165.976 56.5543 165.563 56.3089C165.153 56.0635 164.828 55.7066 164.588 55.2382C164.351 54.7698 164.233 54.201 164.233 53.5318C164.233 52.8737 164.349 52.3007 164.58 51.8128C164.811 51.322 165.134 50.9428 165.546 50.6751C165.959 50.4047 166.436 50.2695 166.977 50.2695C167.395 50.2695 167.727 50.3392 167.972 50.4786C168.22 50.6152 168.41 50.7713 168.541 50.947C168.675 51.1199 168.778 51.2621 168.85 51.3736H168.951V50.3531H169.904V56.9614C169.904 57.5135 169.779 57.9624 169.528 58.3081C169.28 58.6567 168.945 58.9118 168.524 59.0735C168.106 59.238 167.64 59.3203 167.127 59.3203ZM167.094 55.7903C167.49 55.7903 167.824 55.6997 168.098 55.5184C168.371 55.3372 168.578 55.0765 168.721 54.7363C168.863 54.3961 168.934 53.989 168.934 53.515C168.934 53.0522 168.864 52.6437 168.725 52.2896C168.585 51.9355 168.379 51.658 168.106 51.4573C167.833 51.2565 167.495 51.1561 167.094 51.1561C166.675 51.1561 166.327 51.2621 166.048 51.474C165.772 51.6859 165.564 51.9703 165.425 52.3272C165.288 52.6841 165.22 53.0801 165.22 53.515C165.22 53.9612 165.29 54.3557 165.429 54.6987C165.571 55.0388 165.78 55.3065 166.056 55.5017C166.335 55.6941 166.681 55.7903 167.094 55.7903Z" fill="#404248"/>
</g>
<defs>
<clipPath id="clip0_2011_13383">
<rect width="212" height="76" rx="9.42222" fill="white"/>
</clipPath>
<clipPath id="clip1_2011_13383">
<rect width="28.2667" height="28.2667" fill="white" transform="translate(17.6641 16.4883)"/>
</clipPath>
</defs>
</svg>
