<svg width="108" height="100" viewBox="0 0 108 100" fill="none" xmlns="http://www.w3.org/2000/svg">
<path d="M54.7474 57.723L41.9785 94.8281C45.7927 95.9462 49.8252 96.5632 54.0035 96.5632C58.9581 96.5632 63.7133 95.7057 68.1344 94.1499C68.0208 93.9673 67.9172 93.7735 67.8326 93.563L54.7474 57.723Z" fill="#F5F7F9"/>
<path d="M11.4395 53.9979C11.4395 70.8461 21.2305 85.4046 35.4282 92.3024L15.1267 36.6776C12.7658 41.9707 11.4395 47.8284 11.4395 53.9979Z" fill="#F5F7F9"/>
<path d="M82.7291 51.8509C82.7291 46.5912 80.8415 42.9497 79.2223 40.1121C77.0641 36.6064 75.0417 33.6386 75.0417 30.1318C75.0417 26.2196 78.0084 22.578 82.189 22.578C82.3783 22.578 82.5565 22.6014 82.7414 22.6103C75.1709 15.6757 65.0836 11.4395 54.0019 11.4395C39.1305 11.4395 26.0486 19.0678 18.4414 30.624C19.4392 30.6541 20.378 30.6752 21.1798 30.6752C25.6321 30.6752 32.5244 30.1351 32.5244 30.1351C34.8207 29.997 35.088 33.368 32.7972 33.6386C32.7972 33.6386 30.4909 33.9092 27.9262 34.0451L43.4224 80.1461L52.7357 52.2106L46.1029 34.0439C43.811 33.9081 41.6406 33.6375 41.6406 33.6375C39.3487 33.5038 39.616 29.9981 41.909 30.134C41.909 30.134 48.9393 30.6741 53.1188 30.6741C57.57 30.6741 64.4645 30.134 64.4645 30.134C66.7608 29.9981 67.0291 33.3669 64.7351 33.6375C64.7351 33.6375 62.4265 33.9081 59.864 34.0439L75.2466 79.7953L79.4918 65.6098C81.3304 59.7232 82.7291 55.4936 82.7291 51.8509Z" fill="#F5F7F9"/>
<path d="M91.3479 33.5795C91.5305 34.9336 91.6352 36.3914 91.6352 37.956C91.6352 42.2747 90.83 47.1301 88.4001 53.2005L75.3984 90.7867C88.0504 83.4078 96.5641 69.699 96.5641 54.0001C96.5652 46.5989 94.6732 39.641 91.3479 33.5795Z" fill="#F5F7F9"/>
<path d="M54.0008 0C24.1778 0 0.00195312 24.1769 0.00195312 54C0.00195312 83.8231 24.1778 108 54.0008 108C83.8239 108 108 83.8231 108 54C108 24.1769 83.8239 0 54.0008 0ZM54.0031 101.337C27.8995 101.337 6.66593 80.1035 6.66593 53.9978C6.66593 27.8965 27.8984 6.66286 54.0031 6.66286C80.1033 6.66286 101.336 27.8976 101.336 53.9978C101.337 80.1013 80.1021 101.337 54.0031 101.337Z" fill="#F5F7F9"/>
</svg>
