<svg width="80" height="80" viewBox="0 0 80 80" fill="none" xmlns="http://www.w3.org/2000/svg">
<rect width="80" height="80" fill="white"/>
<g clip-path="url(#clip0_2011_10227)">
<path d="M40.2637 9.50586C56.0805 9.50586 68.9033 22.3318 68.9033 38.1533C68.9031 53.9747 56.0804 66.7998 40.2637 66.7998C24.4472 66.7996 11.6252 53.9745 11.625 38.1533C11.625 22.332 24.4471 9.50608 40.2637 9.50586Z" fill="#6F56DA" stroke="url(#paint0_linear_2011_10227)"/>
<path d="M40.5476 56.4815C40.0535 56.4815 39.6522 56.0851 39.6446 55.5909C39.6371 55.0916 40.0359 54.6802 40.535 54.6727C44.7386 54.6049 48.7189 52.9592 51.7412 50.0364C52.1024 49.6902 52.6717 49.7002 53.0203 50.059C53.3689 50.4178 53.3589 50.9898 53.0003 51.3385C49.6444 54.5823 45.2277 56.4087 40.5651 56.484C40.5576 56.4815 40.5526 56.4815 40.5476 56.4815Z" fill="#F9FBFC"/>
<path d="M39.9772 21.6364C39.4831 21.6364 39.0818 21.24 39.0743 20.7458C39.0668 20.2465 39.4656 19.8351 39.9647 19.8276L40.0475 19.8225C40.1177 19.8175 40.1904 19.8125 40.2632 19.8125C40.7623 19.8125 41.1661 20.2164 41.1661 20.7157C41.1661 21.2149 40.7623 21.6188 40.2632 21.6188L40.1754 21.6238C40.1152 21.6289 40.0525 21.6314 39.9923 21.6339C39.9848 21.6364 39.9797 21.6364 39.9772 21.6364Z" fill="#F9FBFC"/>
<path d="M22.8326 39.0588C22.3335 39.0588 21.9297 38.6548 21.9297 38.1556C21.9297 32.8896 24.2121 27.867 28.1899 24.3773C28.5661 24.0462 29.1355 24.0863 29.464 24.4601C29.7926 24.8364 29.7575 25.4059 29.3812 25.7371C25.7947 28.8856 23.738 33.4115 23.738 38.1556C23.7355 38.6523 23.3317 39.0588 22.8326 39.0588Z" fill="#F9FBFC"/>
<path d="M39.9795 56.4821C39.9745 56.4821 39.9695 56.4821 39.9644 56.4821C35.2994 56.4068 30.8826 54.5804 27.5293 51.3365C27.1706 50.9903 27.1606 50.4158 27.5092 50.057C27.8553 49.6983 28.4272 49.6883 28.7884 50.0345C31.8106 52.9572 35.791 54.6055 39.9945 54.6707C40.4936 54.6782 40.8924 55.0897 40.8849 55.5889C40.8749 56.0857 40.4711 56.4821 39.9795 56.4821Z" fill="#F9FBFC"/>
<path d="M28.1584 51.5897C27.9327 51.5897 27.7069 51.5044 27.5289 51.3363C23.9172 47.8441 21.9258 43.1627 21.9258 38.1551C21.9258 37.6559 22.3296 37.252 22.8287 37.252C23.3278 37.252 23.7316 37.6559 23.7316 38.1551C23.7316 42.6684 25.5249 46.8857 28.7829 50.0342C29.1416 50.3805 29.1516 50.9525 28.803 51.3137C28.6299 51.4969 28.3942 51.5897 28.1584 51.5897Z" fill="#F9FBFC"/>
<path d="M40.2632 56.4958C40.188 56.4958 40.1153 56.4907 40.0425 56.4857L39.9598 56.4807C39.4607 56.4707 39.0644 56.0542 39.0744 55.5575C39.0869 55.0658 39.4882 54.6719 39.9773 54.6719C39.9848 54.6719 39.9924 54.6719 39.9974 54.6719C40.0576 54.6744 40.1153 54.6769 40.173 54.6819L40.2632 54.6869C40.7624 54.6869 41.1662 55.0908 41.1662 55.5901C41.1687 56.0893 40.7624 56.4958 40.2632 56.4958Z" fill="#F9FBFC"/>
<path d="M40.2623 56.4972C39.7632 56.4972 39.3594 56.0932 39.3594 55.594C39.3594 55.0948 39.7632 54.6908 40.2623 54.6908L40.3501 54.6858C40.4078 54.6808 40.4654 54.6783 40.5256 54.6758C40.9972 54.6783 41.4386 55.0596 41.4486 55.5614C41.4587 56.0606 41.0649 56.4746 40.5633 56.4846L40.4805 56.4896C40.4103 56.4921 40.3375 56.4972 40.2623 56.4972Z" fill="#F9FBFC"/>
<path d="M51.7413 25.9582C51.5306 25.9582 51.3174 25.8855 51.1468 25.7324C48.2074 23.1509 44.4377 21.6958 40.5326 21.6331C40.0335 21.6255 39.6347 21.2141 39.6447 20.7148C39.6522 20.2156 40.051 19.8343 40.5627 19.8242C44.8942 19.8945 49.0777 21.5101 52.3407 24.3727C52.7169 24.7013 52.752 25.2733 52.4235 25.6496C52.2429 25.8554 51.9921 25.9582 51.7413 25.9582Z" fill="#F9FBFC"/>
<path d="M28.7834 25.9589C28.5325 25.9589 28.2817 25.8536 28.1037 25.6503C27.7751 25.274 27.8102 24.7045 28.1864 24.3734C31.4495 21.5108 35.6305 19.8952 39.9645 19.8249C40.4861 19.8049 40.8749 20.2138 40.8824 20.7155C40.8899 21.2148 40.4912 21.6262 39.9946 21.6338C36.0894 21.6965 32.3198 23.1516 29.3803 25.7331C29.2072 25.8862 28.994 25.9589 28.7834 25.9589Z" fill="#F9FBFC"/>
<path d="M40.5471 21.6358C40.5421 21.6358 40.5396 21.6358 40.5346 21.6358C40.4719 21.6358 40.4117 21.6308 40.3515 21.6258L40.2662 21.6208C39.7671 21.6208 39.3633 21.2169 39.3633 20.7176C39.3633 20.2184 39.7671 19.8145 40.2662 19.8145C40.3389 19.8145 40.4092 19.8195 40.4819 19.8245L40.5647 19.8295C41.0638 19.837 41.4626 20.2485 41.455 20.7477C41.445 21.2394 41.0412 21.6358 40.5471 21.6358Z" fill="#F9FBFC"/>
<path d="M52.3688 51.5882C52.133 51.5882 51.8973 51.4954 51.7192 51.3123C51.3706 50.9535 51.3806 50.3815 51.7393 50.0328C54.9973 46.8842 56.7906 42.6645 56.7906 38.1536C56.7906 33.407 54.7339 28.8812 51.1474 25.7351C50.7712 25.4065 50.736 24.8345 51.0646 24.4582C51.3932 24.0843 51.965 24.0442 52.3387 24.3754C56.3166 27.8651 58.5989 32.8877 58.5989 38.1536C58.5989 43.1612 56.61 47.8426 52.9983 51.3348C52.8203 51.5054 52.5945 51.5882 52.3688 51.5882Z" fill="#F9FBFC"/>
<path d="M33.9708 28.8548C33.8228 28.8548 33.6723 28.8172 33.5318 28.7419C33.0954 28.4986 32.9374 27.9492 33.1807 27.5126C34.7708 24.6451 37.0407 22.1187 39.7419 20.2095C40.1482 19.921 40.715 20.0164 41.001 20.4253C41.2894 20.8317 41.1916 21.3962 40.7853 21.6847C38.3048 23.4409 36.2205 25.759 34.7608 28.3907C34.5953 28.6867 34.2893 28.8548 33.9708 28.8548Z" fill="#F9FBFC"/>
<path d="M40.265 21.8497C39.9815 21.8497 39.7031 21.7168 39.5251 21.4659C39.2366 21.057 39.3344 20.495 39.7433 20.2065L39.8436 20.1312C39.9063 20.081 39.969 20.0334 40.0367 19.9882C40.448 19.7047 41.0099 19.8076 41.2933 20.219C41.5767 20.6305 41.4739 21.1924 41.0625 21.4759C41.0249 21.501 40.9898 21.5311 40.9522 21.5587C40.897 21.6014 40.8418 21.644 40.7866 21.6842C40.6261 21.7945 40.443 21.8497 40.265 21.8497Z" fill="#F9FBFC"/>
<path d="M40.5473 56.4814C40.3717 56.4814 40.1961 56.4312 40.0406 56.3258C39.9704 56.2782 39.9027 56.228 39.8375 56.1753L39.7422 56.1026C39.3334 55.8141 39.238 55.2496 39.524 54.8431C39.8124 54.4367 40.3767 54.3389 40.783 54.6249C40.8382 54.6625 40.8909 54.7052 40.9436 54.7453C40.9787 54.7729 41.0138 54.8005 41.0514 54.8256C41.4652 55.1041 41.5731 55.666 41.2947 56.08C41.1216 56.3409 40.8382 56.4814 40.5473 56.4814Z" fill="#F9FBFC"/>
<path d="M40.2616 56.2676C40.081 56.2676 39.8979 56.2149 39.7399 56.102C36.7502 53.9871 34.3124 51.1296 32.6946 47.8355C32.4739 47.3865 32.6595 46.8446 33.106 46.6263C33.5549 46.4055 34.0942 46.5912 34.3174 47.0377C35.8047 50.0608 38.0394 52.685 40.7858 54.6268C41.1921 54.9153 41.2899 55.4798 41.0014 55.8862C40.8234 56.1346 40.545 56.2676 40.2616 56.2676Z" fill="#F9FBFC"/>
<path d="M33.9681 28.8536C33.8652 28.8536 33.7624 28.8361 33.6596 28.7985C31.6757 28.0784 29.8473 27.0574 28.217 25.7628C27.8257 25.4517 27.7605 24.8822 28.0715 24.4934C28.3825 24.102 28.9519 24.0393 29.3431 24.3479C30.8179 25.5195 32.4782 26.4452 34.2766 27.1C34.7456 27.2706 34.9889 27.7899 34.8183 28.2591C34.6854 28.6253 34.3393 28.8536 33.9681 28.8536Z" fill="#F9FBFC"/>
<path d="M46.5532 28.8533C46.1845 28.8533 45.8384 28.625 45.7029 28.2562C45.5324 27.7871 45.7757 27.2678 46.2447 27.0972C48.043 26.4449 49.7033 25.5191 51.1781 24.345C51.5694 24.0339 52.1387 24.0992 52.4497 24.4905C52.7607 24.8819 52.6955 25.4489 52.3042 25.76C50.6765 27.0545 48.8456 28.0756 46.8617 28.7956C46.7588 28.8357 46.656 28.8533 46.5532 28.8533Z" fill="#F9FBFC"/>
<path d="M40.2623 29.9765C39.7632 29.9765 39.3594 29.5725 39.3594 29.0733C39.3594 28.574 39.7632 28.1701 40.2623 28.1701C42.2788 28.1701 44.2903 27.8114 46.2466 27.1014C46.7156 26.9308 47.2348 27.1741 47.4028 27.6433C47.5734 28.1124 47.3301 28.6317 46.8611 28.8023C44.7091 29.5801 42.4895 29.9765 40.2623 29.9765Z" fill="#F9FBFC"/>
<path d="M40.264 29.9751C38.0368 29.9751 35.8171 29.5787 33.6626 28.7984C33.1936 28.6278 32.9503 28.1085 33.1209 27.6394C33.2914 27.1702 33.8106 26.9269 34.2771 27.0975C36.2334 27.8075 38.2474 28.1662 40.2614 28.1662C40.7606 28.1662 41.1644 28.5701 41.1644 29.0694C41.1694 29.5711 40.7631 29.9751 40.264 29.9751Z" fill="#F9FBFC"/>
<path d="M52.3679 51.5884C52.1572 51.5884 51.9465 51.5156 51.776 51.3676C50.2636 50.0505 48.5506 49.0118 46.6895 48.2793C46.2255 48.0961 45.9973 47.5718 46.1804 47.1077C46.3635 46.6435 46.8877 46.4152 47.3517 46.5984C49.4058 47.4062 51.2944 48.5527 52.9623 50.0053C53.3385 50.334 53.3786 50.9035 53.0501 51.2798C52.872 51.483 52.6187 51.5884 52.3679 51.5884Z" fill="#F9FBFC"/>
<path d="M47.0191 48.3425C46.9087 48.3425 46.7959 48.3224 46.688 48.2798C44.6138 47.4644 42.4519 47.0505 40.2623 47.0505C39.7632 47.0505 39.3594 46.6466 39.3594 46.1473C39.3594 45.6481 39.7632 45.2441 40.2623 45.2441C42.6801 45.2441 45.0653 45.7007 47.3502 46.5989C47.8142 46.782 48.0424 47.3064 47.8593 47.7705C47.7214 48.1242 47.3803 48.3425 47.0191 48.3425Z" fill="#F9FBFC"/>
<path d="M33.505 48.3431C33.1438 48.3431 32.8027 48.1248 32.6648 47.7685C32.4817 47.3044 32.7099 46.7801 33.1739 46.5969C35.4588 45.6963 37.844 45.2422 40.2618 45.2422C40.7609 45.2422 41.1647 45.6461 41.1647 46.1454C41.1647 46.6446 40.7609 47.0485 40.2618 47.0485C38.0722 47.0485 35.9103 47.4625 33.8361 48.2778C33.7282 48.323 33.6153 48.3431 33.505 48.3431Z" fill="#F9FBFC"/>
<path d="M28.1587 51.5889C27.9054 51.5889 27.6546 51.4836 27.4765 51.2778C27.1479 50.9015 27.188 50.3295 27.5643 50.0034C29.2321 48.5533 31.1207 47.4068 33.1749 46.5964C33.6389 46.4133 34.1631 46.6416 34.3462 47.1057C34.5292 47.5698 34.301 48.0942 33.837 48.2773C31.9735 49.0124 30.263 50.051 28.7506 51.3656C28.58 51.5162 28.3694 51.5889 28.1587 51.5889Z" fill="#F9FBFC"/>
<path d="M40.2626 21.8503C40.0845 21.8503 39.9039 21.7976 39.7459 21.6897C39.6857 21.6471 39.628 21.6019 39.5678 21.5567C39.5327 21.5291 39.5001 21.5041 39.465 21.479C39.0537 21.1955 38.9508 20.6335 39.2343 20.2221C39.5177 19.8106 40.0795 19.7053 40.4908 19.9913C40.5535 20.0364 40.6162 20.0816 40.6764 20.1292L40.7792 20.2045C41.1881 20.4905 41.2909 21.0525 41.005 21.4639C40.8294 21.7148 40.5485 21.8503 40.2626 21.8503Z" fill="#F9FBFC"/>
<path d="M39.9797 56.481C39.6888 56.481 39.4054 56.343 39.2298 56.0821C38.9489 55.6681 39.0593 55.1062 39.4731 54.8277C39.5082 54.8026 39.5433 54.7775 39.5759 54.7499C39.6336 54.7073 39.6888 54.6621 39.7465 54.622C40.1578 54.3385 40.7196 54.4388 41.0055 54.8478C41.289 55.2567 41.1886 55.8212 40.7798 56.1072L40.682 56.1799C40.6168 56.2301 40.5516 56.2803 40.4839 56.3255C40.3309 56.4308 40.1553 56.481 39.9797 56.481Z" fill="#F9FBFC"/>
<path d="M40.2651 56.268C39.9817 56.268 39.7033 56.1351 39.5252 55.8867C39.2368 55.4803 39.3346 54.9158 39.7409 54.6273C42.4848 52.6855 44.722 50.0613 46.2068 47.0382C46.4275 46.5891 46.9692 46.406 47.4182 46.6267C47.8671 46.8475 48.0502 47.3894 47.8295 47.836C46.2093 51.1275 43.7739 53.9875 40.7843 56.1024C40.6263 56.2153 40.4457 56.268 40.2651 56.268Z" fill="#F9FBFC"/>
<path d="M46.5554 28.8534C46.2369 28.8534 45.9284 28.6854 45.7654 28.3868C44.3056 25.7576 42.2239 23.4395 39.7409 21.6808C39.3346 21.3923 39.2368 20.8278 39.5252 20.4214C39.8136 20.0125 40.378 19.9171 40.7843 20.2056C43.488 22.1173 45.7553 24.6437 47.3455 27.5087C47.5887 27.9453 47.4307 28.4947 46.9943 28.738C46.8539 28.8158 46.7034 28.8534 46.5554 28.8534Z" fill="#F9FBFC"/>
<path d="M27.3325 39.0602H22.8326C22.3335 39.0602 21.9297 38.6563 21.9297 38.1571C21.9297 37.6578 22.3335 37.2539 22.8326 37.2539H27.3325C27.8317 37.2539 28.2355 37.6578 28.2355 38.1571C28.2355 38.6563 27.8317 39.0602 27.3325 39.0602Z" fill="#F9FBFC"/>
<path d="M57.1778 39.0602H53.192C52.6929 39.0602 52.2891 38.6563 52.2891 38.1571C52.2891 37.6578 52.6929 37.2539 53.192 37.2539H57.1778C57.6769 37.2539 58.0807 37.6578 58.0807 38.1571C58.0807 38.6563 57.6769 39.0602 57.1778 39.0602Z" fill="#F9FBFC"/>
<path d="M40.2623 29.9758C39.7632 29.9758 39.3594 29.5719 39.3594 29.0727V20.9442C39.3594 20.4449 39.7632 20.041 40.2623 20.041C40.7614 20.041 41.1652 20.4449 41.1652 20.9442V29.0727C41.1677 29.5719 40.7614 29.9758 40.2623 29.9758Z" fill="#F9FBFC"/>
<path d="M40.2623 56.2683C39.7632 56.2683 39.3594 55.8644 39.3594 55.3652V46.1454C39.3594 45.6461 39.7632 45.2422 40.2623 45.2422C40.7614 45.2422 41.1652 45.6461 41.1652 46.1454V55.3652C41.1677 55.8644 40.7614 56.2683 40.2623 56.2683Z" fill="#F9FBFC"/>
<path d="M40.2623 21.8505C39.7632 21.8505 39.3594 21.4466 39.3594 20.9473V20.7215C39.3594 20.2223 39.7632 19.8184 40.2623 19.8184C40.7614 19.8184 41.1652 20.2223 41.1652 20.7215V20.9473C41.1677 21.4441 40.7614 21.8505 40.2623 21.8505Z" fill="#F9FBFC"/>
<path d="M40.2623 56.497C39.7632 56.497 39.3594 56.093 39.3594 55.5938V55.368C39.3594 54.8688 39.7632 54.4648 40.2623 54.4648C40.7614 54.4648 41.1652 54.8688 41.1652 55.368V55.5938C41.1677 56.0905 40.7614 56.497 40.2623 56.497Z" fill="#F9FBFC"/>
<path d="M64.3169 62.9546L55.1523 55.4082L56.6447 67.1895L59.3459 65.6993L61.864 70.2678L64.1389 69.0134L61.6182 64.4449L64.3169 62.9546Z" fill="#131415"/>
<path d="M61.8682 71.5222C61.4268 71.5222 60.9979 71.2888 60.7696 70.8724L58.8559 67.4027L57.2558 68.2858C56.8921 68.4865 56.4532 68.494 56.082 68.3059C55.7108 68.1177 55.4575 67.759 55.4073 67.345L53.9125 55.5637C53.8473 55.0545 54.1006 54.5552 54.5495 54.3068C54.9985 54.0585 55.5553 54.1086 55.9516 54.4373L65.1187 61.9837C65.4397 62.2472 65.6077 62.6536 65.5701 63.0675C65.5325 63.4815 65.2917 63.8503 64.9281 64.051L63.3279 64.9341L65.2416 68.4062C65.4021 68.6973 65.4397 69.041 65.3494 69.3596C65.2566 69.6782 65.0409 69.9491 64.75 70.1097L62.4751 71.3641C62.2795 71.472 62.0738 71.5222 61.8682 71.5222ZM59.3475 64.4449C59.4654 64.4449 59.5808 64.4599 59.6962 64.495C60.0147 64.5879 60.2856 64.8036 60.4461 65.0946L62.3598 68.5643L62.4375 68.5216L60.5238 65.052C60.1903 64.4449 60.4085 63.6822 61.0154 63.3485L62.0964 62.7514L56.7943 58.3861L57.6596 65.2L58.7406 64.6029C58.9287 64.4975 59.1369 64.4449 59.3475 64.4449Z" fill="#F9FBFC"/>
<path d="M64.3208 62.9546L55.1562 55.4082L56.6486 67.1895L59.3498 65.6993L61.8679 70.2678L64.1428 69.0134L61.6221 64.4449L64.3208 62.9546Z" fill="#131415"/>
<path d="M36.049 37.6055H34.4936C34.4652 37.4042 34.4072 37.2255 34.3196 37.0692C34.232 36.9106 34.1196 36.7757 33.9822 36.6644C33.8449 36.5531 33.6863 36.4679 33.5064 36.4087C33.3288 36.3496 33.1359 36.32 32.9276 36.32C32.5511 36.32 32.2232 36.4135 31.9439 36.6005C31.6645 36.7852 31.4479 37.055 31.294 37.4102C31.1402 37.7629 31.0632 38.1914 31.0632 38.6957C31.0632 39.2141 31.1402 39.6497 31.294 40.0025C31.4503 40.3552 31.6681 40.6216 31.9474 40.8015C32.2268 40.9814 32.55 41.0714 32.9169 41.0714C33.1229 41.0714 33.3134 41.0442 33.4886 40.9897C33.6662 40.9353 33.8236 40.8559 33.9609 40.7518C34.0982 40.6452 34.2119 40.5162 34.3018 40.3647C34.3942 40.2132 34.4581 40.0404 34.4936 39.8462L36.049 39.8533C36.0088 40.1871 35.9081 40.5091 35.7472 40.8192C35.5885 41.127 35.3743 41.4028 35.1044 41.6467C34.8369 41.8881 34.5173 42.0799 34.1456 42.2219C33.7763 42.3616 33.3584 42.4315 32.892 42.4315C32.2434 42.4315 31.6634 42.2847 31.152 41.9911C30.643 41.6976 30.2405 41.2726 29.9446 40.7163C29.651 40.1599 29.5043 39.4864 29.5043 38.6957C29.5043 37.9026 29.6534 37.2279 29.9517 36.6715C30.25 36.1152 30.6548 35.6914 31.1662 35.4002C31.6776 35.1067 32.2528 34.9599 32.892 34.9599C33.3134 34.9599 33.7041 35.0191 34.0639 35.1374C34.4261 35.2558 34.7469 35.4286 35.0263 35.6559C35.3056 35.8808 35.5329 36.1566 35.7081 36.4833C35.8857 36.81 35.9993 37.1841 36.049 37.6055ZM39.7298 42.332H37.1516V35.0593H39.7511C40.4826 35.0593 41.1123 35.2049 41.6403 35.4961C42.1682 35.7849 42.5742 36.2004 42.8583 36.7425C43.1448 37.2847 43.288 37.9334 43.288 38.6886C43.288 39.4461 43.1448 40.0972 42.8583 40.6417C42.5742 41.1862 42.1658 41.604 41.6332 41.8952C41.1029 42.1864 40.4684 42.332 39.7298 42.332ZM38.6893 41.0146H39.6658C40.1204 41.0146 40.5027 40.9341 40.8129 40.7731C41.1254 40.6097 41.3597 40.3576 41.516 40.0167C41.6746 39.6734 41.7539 39.2307 41.7539 38.6886C41.7539 38.1512 41.6746 37.712 41.516 37.3711C41.3597 37.0302 41.1265 36.7792 40.8164 36.6183C40.5063 36.4573 40.1239 36.3768 39.6694 36.3768H38.6893V41.0146ZM50.5101 35.0593V42.332H49.182L46.0179 37.7546H45.9647V42.332H44.427V35.0593H45.7765L48.9157 39.6332H48.9796V35.0593H50.5101Z" fill="white"/>
</g>
<defs>
<linearGradient id="paint0_linear_2011_10227" x1="40.2641" y1="9.00586" x2="40.2641" y2="67.3001" gradientUnits="userSpaceOnUse">
<stop stop-color="#836DE4"/>
<stop offset="1" stop-color="#4E37B3"/>
</linearGradient>
<clipPath id="clip0_2011_10227">
<rect width="58.2781" height="62.5166" fill="white" transform="translate(11.125 9.00586)"/>
</clipPath>
</defs>
</svg>
