<svg width="146" height="32" viewBox="0 0 146 32" fill="none" xmlns="http://www.w3.org/2000/svg">
<path fill-rule="evenodd" clip-rule="evenodd" d="M2.10883 29.9172C4.21766 32 7.61177 32 14.4 32H21.4725C20.9778 31.1594 20.7 30.1852 20.7 29.1765C20.7 27.7258 21.2745 26.3465 22.2427 25.3333H20.7C19.9544 25.3333 19.35 24.7364 19.35 24C19.35 23.2636 19.9544 22.6667 20.7 22.6667H24.1707C25.091 20.3735 27.2788 18.6667 30 18.6667C32.8092 18.6667 35.0572 20.4948 35.919 22.8986L35.9448 22.9165C36 21.4626 36 19.7679 36 17.7778V17.3333H0V17.7778C0 24.4822 0 27.8344 2.10883 29.9172ZM7.2 27.1111C6.45442 27.1111 5.85 26.5142 5.85 25.7778L5.85 22.2222C5.85 21.4858 6.45441 20.8889 7.2 20.8889C7.94558 20.8889 8.55 21.4858 8.55 22.2222V25.7778C8.55 26.5142 7.94558 27.1111 7.2 27.1111ZM12.6 27.1111C11.8544 27.1111 11.25 26.5142 11.25 25.7778V22.2222C11.25 21.4858 11.8544 20.8889 12.6 20.8889C13.3456 20.8889 13.95 21.4858 13.95 22.2222V25.7778C13.95 26.5142 13.3456 27.1111 12.6 27.1111Z" fill="#FF4C4C"/>
<path fill-rule="evenodd" clip-rule="evenodd" d="M2.10883 2.0828C0 4.16559 0 7.5178 0 14.2222V14.6667H36V14.2222C36 7.5178 36 4.16559 33.8912 2.0828C31.7823 0 28.3882 0 21.6 0H14.4C7.61177 0 4.21766 0 2.10883 2.0828ZM12.6 11.1111C11.8544 11.1111 11.25 10.5142 11.25 9.77778V6.22222C11.25 5.48584 11.8544 4.88889 12.6 4.88889C13.3456 4.88889 13.95 5.48584 13.95 6.22222V9.77778C13.95 10.5142 13.3456 11.1111 12.6 11.1111ZM5.85 9.77778C5.85 10.5142 6.45442 11.1111 7.2 11.1111C7.94558 11.1111 8.55 10.5142 8.55 9.77778V6.22222C8.55 5.48584 7.94558 4.88889 7.2 4.88889C6.45441 4.88889 5.85 5.48584 5.85 6.22222L5.85 9.77778ZM19.35 8C19.35 7.26362 19.9544 6.66667 20.7 6.66667H28.8C29.5456 6.66667 30.15 7.26362 30.15 8C30.15 8.73638 29.5456 9.33333 28.8 9.33333H20.7C19.9544 9.33333 19.35 8.73638 19.35 8Z" fill="#FF4C4C"/>
<path fill-rule="evenodd" clip-rule="evenodd" d="M33.5777 24.6767C33.3774 22.7958 31.852 21.3333 30 21.3333C28.4788 21.3333 27.178 22.32 26.6508 23.7147C26.4889 24.1429 26.4 24.6096 26.4 25.098C26.4 25.5579 26.4788 25.9985 26.6232 26.4059C26.4539 26.3712 26.279 26.3529 26.1 26.3529C25.3082 26.3529 24.596 26.7094 24.1021 27.2772C23.6659 27.7787 23.4 28.4451 23.4 29.1765C23.4 30.7359 24.6088 32 26.1 32H32.4C34.3882 32 36 30.3145 36 28.2353C36 26.5874 34.9876 25.1868 33.5777 24.6767Z" fill="#FF4C4C"/>
<path d="M33.5777 24.6767C33.3774 22.7958 31.852 21.3333 30 21.3333C28.4788 21.3333 27.178 22.32 26.6508 23.7147C26.4889 24.1429 26.4 24.6096 26.4 25.098C26.4 25.5579 26.4788 25.9985 26.6232 26.4059C26.4539 26.3712 26.279 26.3529 26.1 26.3529C25.3082 26.3529 24.596 26.7094 24.1021 27.2772C23.6659 27.7787 23.4 28.4451 23.4 29.1765C23.4 30.7359 24.6088 32 26.1 32H32.4C34.3882 32 36 30.3145 36 28.2353C36 26.5874 34.9876 25.1868 33.5777 24.6767Z" fill="#FF4C4C"/>
<path d="M52.108 11.9091L54.75 16.7415L57.4347 11.9091H60.6989L56.7528 18.4545L60.767 25H57.5199L54.75 20.2869L52.0057 25H48.733L52.7216 18.4545L48.8352 11.9091H52.108ZM62.5016 25V7.54545H65.6635V14.9347H73.7516V7.54545H76.922V25H73.7516V17.5852H65.6635V25H62.5016ZM85.2148 25.2557C83.9364 25.2557 82.8285 24.9744 81.891 24.4119C80.9535 23.8494 80.2262 23.0625 79.7091 22.0511C79.1978 21.0398 78.9421 19.858 78.9421 18.5057C78.9421 17.1534 79.1978 15.9687 79.7091 14.9517C80.2262 13.9347 80.9535 13.1449 81.891 12.5824C82.8285 12.0199 83.9364 11.7386 85.2148 11.7386C86.4932 11.7386 87.6012 12.0199 88.5387 12.5824C89.4762 13.1449 90.2006 13.9347 90.712 14.9517C91.229 15.9687 91.4876 17.1534 91.4876 18.5057C91.4876 19.858 91.229 21.0398 90.712 22.0511C90.2006 23.0625 89.4762 23.8494 88.5387 24.4119C87.6012 24.9744 86.4932 25.2557 85.2148 25.2557ZM85.2319 22.7841C85.9251 22.7841 86.5046 22.5937 86.9705 22.2131C87.4364 21.8267 87.783 21.3097 88.0103 20.6619C88.2432 20.0142 88.3597 19.2926 88.3597 18.4972C88.3597 17.696 88.2432 16.9716 88.0103 16.3239C87.783 15.6705 87.4364 15.1506 86.9705 14.7642C86.5046 14.3778 85.9251 14.1847 85.2319 14.1847C84.5216 14.1847 83.9307 14.3778 83.4591 14.7642C82.9932 15.1506 82.6438 15.6705 82.4109 16.3239C82.1836 16.9716 82.0699 17.696 82.0699 18.4972C82.0699 19.2926 82.1836 20.0142 82.4109 20.6619C82.6438 21.3097 82.9932 21.8267 83.4591 22.2131C83.9307 22.5937 84.5216 22.7841 85.2319 22.7841ZM103.733 15.3693L100.92 15.6761C100.841 15.392 100.702 15.125 100.503 14.875C100.309 14.625 100.048 14.4233 99.7186 14.2699C99.389 14.1165 98.9856 14.0398 98.5083 14.0398C97.8663 14.0398 97.3265 14.179 96.889 14.4574C96.4572 14.7358 96.2441 15.0966 96.2498 15.5398C96.2441 15.9205 96.3833 16.2301 96.6674 16.4688C96.9572 16.7074 97.4345 16.9034 98.0992 17.0568L100.332 17.5341C101.571 17.8011 102.491 18.2244 103.094 18.804C103.702 19.3835 104.008 20.142 104.014 21.0795C104.008 21.9034 103.767 22.6307 103.29 23.2614C102.818 23.8864 102.162 24.375 101.321 24.7273C100.48 25.0795 99.514 25.2557 98.4231 25.2557C96.8208 25.2557 95.5311 24.9205 94.5538 24.25C93.5765 23.5739 92.9941 22.6335 92.8066 21.429L95.8151 21.1392C95.9515 21.7301 96.2413 22.1761 96.6845 22.4773C97.1276 22.7784 97.7043 22.929 98.4146 22.929C99.1475 22.929 99.7356 22.7784 100.179 22.4773C100.628 22.1761 100.852 21.804 100.852 21.3608C100.852 20.9858 100.707 20.6761 100.417 20.4318C100.133 20.1875 99.6901 20 99.0879 19.8693L96.8549 19.4006C95.5992 19.1392 94.6703 18.6989 94.068 18.0795C93.4657 17.4545 93.1674 16.6648 93.1731 15.7102C93.1674 14.9034 93.3862 14.2045 93.8293 13.6136C94.2782 13.017 94.9004 12.5568 95.6958 12.233C96.497 11.9034 97.4203 11.7386 98.4657 11.7386C99.9998 11.7386 101.207 12.0653 102.088 12.7188C102.974 13.3722 103.523 14.2557 103.733 15.3693ZM112.375 11.9091V14.2955H104.849V11.9091H112.375ZM106.707 8.77273H109.793V21.0625C109.793 21.4773 109.855 21.7955 109.98 22.017C110.111 22.233 110.281 22.3807 110.491 22.4602C110.702 22.5398 110.935 22.5795 111.19 22.5795C111.383 22.5795 111.56 22.5653 111.719 22.5369C111.883 22.5085 112.008 22.483 112.094 22.4602L112.614 24.8722C112.449 24.929 112.213 24.9915 111.906 25.0597C111.605 25.1278 111.236 25.1676 110.798 25.179C110.026 25.2017 109.33 25.0852 108.71 24.8295C108.091 24.5682 107.599 24.1648 107.236 23.6193C106.878 23.0739 106.702 22.392 106.707 21.5739V8.77273ZM114.235 25V11.9091H117.32V25H114.235ZM115.786 10.0511C115.298 10.0511 114.877 9.8892 114.525 9.56534C114.173 9.23579 113.997 8.84091 113.997 8.38068C113.997 7.91477 114.173 7.51989 114.525 7.19602C114.877 6.86648 115.298 6.7017 115.786 6.7017C116.281 6.7017 116.701 6.86648 117.048 7.19602C117.4 7.51989 117.576 7.91477 117.576 8.38068C117.576 8.84091 117.4 9.23579 117.048 9.56534C116.701 9.8892 116.281 10.0511 115.786 10.0511ZM122.858 17.3295V25H119.773V11.9091H122.722V14.1335H122.875C123.176 13.4006 123.657 12.8182 124.316 12.3864C124.98 11.9545 125.801 11.7386 126.779 11.7386C127.682 11.7386 128.469 11.9318 129.14 12.3182C129.816 12.7045 130.338 13.2642 130.708 13.9972C131.083 14.7301 131.267 15.6193 131.262 16.6648V25H128.176V17.142C128.176 16.267 127.949 15.5824 127.495 15.0881C127.046 14.5937 126.424 14.3466 125.628 14.3466C125.088 14.3466 124.608 14.4659 124.188 14.7045C123.773 14.9375 123.446 15.2756 123.208 15.7188C122.975 16.1619 122.858 16.6989 122.858 17.3295ZM139.371 30.1818C138.263 30.1818 137.312 30.0313 136.516 29.7301C135.721 29.4347 135.081 29.0369 134.598 28.5369C134.116 28.0369 133.78 27.483 133.593 26.875L136.371 26.2017C136.496 26.4574 136.678 26.7102 136.917 26.9602C137.155 27.2159 137.476 27.4261 137.88 27.5909C138.289 27.7614 138.803 27.8466 139.422 27.8466C140.297 27.8466 141.022 27.6335 141.596 27.2074C142.17 26.7869 142.456 26.0938 142.456 25.1278V22.6477H142.303C142.144 22.9659 141.911 23.2926 141.604 23.6278C141.303 23.9631 140.902 24.2443 140.402 24.4716C139.908 24.6989 139.286 24.8125 138.536 24.8125C137.53 24.8125 136.618 24.5767 135.8 24.1051C134.988 23.6278 134.34 22.9176 133.857 21.9744C133.38 21.0256 133.141 19.8381 133.141 18.4119C133.141 16.9744 133.38 15.7614 133.857 14.7727C134.34 13.7784 134.991 13.0256 135.809 12.5142C136.627 11.9972 137.539 11.7386 138.545 11.7386C139.312 11.7386 139.942 11.8693 140.437 12.1307C140.937 12.3864 141.334 12.696 141.63 13.0597C141.925 13.4176 142.15 13.7557 142.303 14.0739H142.473V11.9091H145.516V25.2131C145.516 26.3324 145.249 27.2585 144.715 27.9915C144.181 28.7244 143.451 29.2727 142.525 29.6364C141.598 30 140.547 30.1818 139.371 30.1818ZM139.397 22.392C140.05 22.392 140.607 22.233 141.067 21.9148C141.527 21.5966 141.877 21.1392 142.116 20.5426C142.354 19.946 142.473 19.2301 142.473 18.3949C142.473 17.571 142.354 16.8494 142.116 16.2301C141.883 15.6108 141.536 15.1307 141.076 14.7898C140.621 14.4432 140.062 14.2699 139.397 14.2699C138.709 14.2699 138.135 14.4489 137.675 14.8068C137.215 15.1648 136.868 15.6562 136.635 16.2812C136.402 16.9006 136.286 17.6051 136.286 18.3949C136.286 19.196 136.402 19.8977 136.635 20.5C136.874 21.0966 137.223 21.5625 137.684 21.8977C138.15 22.2273 138.721 22.392 139.397 22.392Z" fill="#131415"/>
</svg>
