<svg xmlns="http://www.w3.org/2000/svg" width="156" height="32" viewBox="0 0 156 32" fill="none"><path fill-rule="evenodd" clip-rule="evenodd" d="M2.60883 29.9172C4.71766 32 8.11177 32 14.9 32H21.9725C21.4778 31.1594 21.2 30.1852 21.2 29.1765C21.2 27.7258 21.7745 26.3465 22.7427 25.3333H21.2C20.4544 25.3333 19.85 24.7364 19.85 24C19.85 23.2636 20.4544 22.6667 21.2 22.6667H24.6707C25.591 20.3735 27.7788 18.6667 30.5 18.6667C33.3092 18.6667 35.5572 20.4948 36.419 22.8986L36.4448 22.9165C36.5 21.4626 36.5 19.7679 36.5 17.7778V17.3333H0.5V17.7778C0.5 24.4822 0.5 27.8344 2.60883 29.9172ZM7.7 27.1111C6.95442 27.1111 6.35 26.5142 6.35 25.7778L6.35 22.2222C6.35 21.4858 6.95441 20.8889 7.7 20.8889C8.44558 20.8889 9.05 21.4858 9.05 22.2222V25.7778C9.05 26.5142 8.44558 27.1111 7.7 27.1111ZM13.1 27.1111C12.3544 27.1111 11.75 26.5142 11.75 25.7778V22.2222C11.75 21.4858 12.3544 20.8889 13.1 20.8889C13.8456 20.8889 14.45 21.4858 14.45 22.2222V25.7778C14.45 26.5142 13.8456 27.1111 13.1 27.1111Z" fill="#8B70FF"></path><path fill-rule="evenodd" clip-rule="evenodd" d="M2.60883 2.0828C0.5 4.16559 0.5 7.5178 0.5 14.2222V14.6667H36.5V14.2222C36.5 7.5178 36.5 4.16559 34.3912 2.0828C32.2823 0 28.8882 0 22.1 0H14.9C8.11177 0 4.71766 0 2.60883 2.0828ZM13.1 11.1111C12.3544 11.1111 11.75 10.5142 11.75 9.77778V6.22222C11.75 5.48584 12.3544 4.88889 13.1 4.88889C13.8456 4.88889 14.45 5.48584 14.45 6.22222V9.77778C14.45 10.5142 13.8456 11.1111 13.1 11.1111ZM6.35 9.77778C6.35 10.5142 6.95442 11.1111 7.7 11.1111C8.44558 11.1111 9.05 10.5142 9.05 9.77778V6.22222C9.05 5.48584 8.44558 4.88889 7.7 4.88889C6.95441 4.88889 6.35 5.48584 6.35 6.22222L6.35 9.77778ZM19.85 8C19.85 7.26362 20.4544 6.66667 21.2 6.66667H29.3C30.0456 6.66667 30.65 7.26362 30.65 8C30.65 8.73638 30.0456 9.33333 29.3 9.33333H21.2C20.4544 9.33333 19.85 8.73638 19.85 8Z" fill="#8B70FF"></path><path fill-rule="evenodd" clip-rule="evenodd" d="M34.0777 24.6767C33.8774 22.7958 32.352 21.3333 30.5 21.3333C28.9788 21.3333 27.678 22.32 27.1508 23.7147C26.9889 24.1429 26.9 24.6096 26.9 25.098C26.9 25.5579 26.9788 25.9985 27.1232 26.4059C26.9539 26.3712 26.779 26.3529 26.6 26.3529C25.8082 26.3529 25.096 26.7094 24.6021 27.2772C24.1659 27.7787 23.9 28.4451 23.9 29.1765C23.9 30.7359 25.1088 32 26.6 32H32.9C34.8882 32 36.5 30.3145 36.5 28.2353C36.5 26.5874 35.4876 25.1868 34.0777 24.6767Z" fill="#8B70FF"></path><path d="M34.0777 24.6767C33.8774 22.7958 32.352 21.3333 30.5 21.3333C28.9788 21.3333 27.678 22.32 27.1508 23.7147C26.9889 24.1429 26.9 24.6096 26.9 25.098C26.9 25.5579 26.9788 25.9985 27.1232 26.4059C26.9539 26.3712 26.779 26.3529 26.6 26.3529C25.8082 26.3529 25.096 26.7094 24.6021 27.2772C24.1659 27.7787 23.9 28.4451 23.9 29.1765C23.9 30.7359 25.1088 32 26.6 32H32.9C34.8882 32 36.5 30.3145 36.5 28.2353C36.5 26.5874 35.4876 25.1868 34.0777 24.6767Z" fill="#8B70FF"></path><path d="M50.2216 25V7.54545H53.3835V14.9347H61.4716V7.54545H64.642V25H61.4716V17.5852H53.3835V25H50.2216ZM72.9348 25.2557C71.6564 25.2557 70.5485 24.9744 69.611 24.4119C68.6735 23.8494 67.9462 23.0625 67.4291 22.0511C66.9178 21.0398 66.6621 19.858 66.6621 18.5057C66.6621 17.1534 66.9178 15.9687 67.4291 14.9517C67.9462 13.9347 68.6735 13.1449 69.611 12.5824C70.5485 12.0199 71.6564 11.7386 72.9348 11.7386C74.2132 11.7386 75.3212 12.0199 76.2587 12.5824C77.1962 13.1449 77.9206 13.9347 78.432 14.9517C78.949 15.9687 79.2076 17.1534 79.2076 18.5057C79.2076 19.858 78.949 21.0398 78.432 22.0511C77.9206 23.0625 77.1962 23.8494 76.2587 24.4119C75.3212 24.9744 74.2132 25.2557 72.9348 25.2557ZM72.9519 22.7841C73.6451 22.7841 74.2246 22.5937 74.6905 22.2131C75.1564 21.8267 75.503 21.3097 75.7303 20.6619C75.9632 20.0142 76.0797 19.2926 76.0797 18.4972C76.0797 17.696 75.9632 16.9716 75.7303 16.3239C75.503 15.6705 75.1564 15.1506 74.6905 14.7642C74.2246 14.3778 73.6451 14.1847 72.9519 14.1847C72.2416 14.1847 71.6507 14.3778 71.1791 14.7642C70.7132 15.1506 70.3638 15.6705 70.1309 16.3239C69.9036 16.9716 69.7899 17.696 69.7899 18.4972C69.7899 19.2926 69.9036 20.0142 70.1309 20.6619C70.3638 21.3097 70.7132 21.8267 71.1791 22.2131C71.6507 22.5937 72.2416 22.7841 72.9519 22.7841ZM91.4528 15.3693L88.6403 15.6761C88.5607 15.392 88.4215 15.125 88.2226 14.875C88.0295 14.625 87.7681 14.4233 87.4386 14.2699C87.109 14.1165 86.7056 14.0398 86.2283 14.0398C85.5863 14.0398 85.0465 14.179 84.609 14.4574C84.1772 14.7358 83.9641 15.0966 83.9698 15.5398C83.9641 15.9205 84.1033 16.2301 84.3874 16.4688C84.6772 16.7074 85.1545 16.9034 85.8192 17.0568L88.0522 17.5341C89.2908 17.8011 90.2113 18.2244 90.8136 18.804C91.4215 19.3835 91.7283 20.142 91.734 21.0795C91.7283 21.9034 91.4868 22.6307 91.0096 23.2614C90.538 23.8864 89.8817 24.375 89.0408 24.7273C88.1999 25.0795 87.234 25.2557 86.1431 25.2557C84.5408 25.2557 83.2511 24.9205 82.2738 24.25C81.2965 23.5739 80.7141 22.6335 80.5266 21.429L83.5351 21.1392C83.6715 21.7301 83.9613 22.1761 84.4045 22.4773C84.8476 22.7784 85.4243 22.929 86.1346 22.929C86.8675 22.929 87.4556 22.7784 87.8988 22.4773C88.3476 22.1761 88.5721 21.804 88.5721 21.3608C88.5721 20.9858 88.4272 20.6761 88.1374 20.4318C87.8533 20.1875 87.4101 20 86.8079 19.8693L84.5749 19.4006C83.3192 19.1392 82.3903 18.6989 81.788 18.0795C81.1857 17.4545 80.8874 16.6648 80.8931 15.7102C80.8874 14.9034 81.1062 14.2045 81.5493 13.6136C81.9982 13.017 82.6204 12.5568 83.4158 12.233C84.217 11.9034 85.1403 11.7386 86.1857 11.7386C87.7198 11.7386 88.9272 12.0653 89.8079 12.7188C90.6942 13.3722 91.2425 14.2557 91.4528 15.3693ZM100.095 11.9091V14.2955H92.5694V11.9091H100.095ZM94.4274 8.77273H97.5126V21.0625C97.5126 21.4773 97.5751 21.7955 97.7001 22.017C97.8308 22.233 98.0012 22.3807 98.2114 22.4602C98.4217 22.5398 98.6546 22.5795 98.9103 22.5795C99.1035 22.5795 99.2796 22.5653 99.4387 22.5369C99.6035 22.5085 99.7285 22.483 99.8137 22.4602L100.334 24.8722C100.169 24.929 99.933 24.9915 99.6262 25.0597C99.3251 25.1278 98.9558 25.1676 98.5183 25.179C97.7455 25.2017 97.0495 25.0852 96.4302 24.8295C95.8109 24.5682 95.3194 24.1648 94.9558 23.6193C94.5978 23.0739 94.4217 22.392 94.4274 21.5739V8.77273ZM101.955 25V11.9091H105.04V25H101.955ZM103.506 10.0511C103.018 10.0511 102.597 9.8892 102.245 9.56534C101.893 9.23579 101.717 8.84091 101.717 8.38068C101.717 7.91477 101.893 7.51989 102.245 7.19602C102.597 6.86648 103.018 6.7017 103.506 6.7017C104.001 6.7017 104.421 6.86648 104.768 7.19602C105.12 7.51989 105.296 7.91477 105.296 8.38068C105.296 8.84091 105.12 9.23579 104.768 9.56534C104.421 9.8892 104.001 10.0511 103.506 10.0511ZM110.578 17.3295V25H107.493V11.9091H110.442V14.1335H110.595C110.896 13.4006 111.377 12.8182 112.036 12.3864C112.7 11.9545 113.521 11.7386 114.499 11.7386C115.402 11.7386 116.189 11.9318 116.86 12.3182C117.536 12.7045 118.058 13.2642 118.428 13.9972C118.803 14.7301 118.987 15.6193 118.982 16.6648V25H115.896V17.142C115.896 16.267 115.669 15.5824 115.215 15.0881C114.766 14.5937 114.144 14.3466 113.348 14.3466C112.808 14.3466 112.328 14.4659 111.908 14.7045C111.493 14.9375 111.166 15.2756 110.928 15.7188C110.695 16.1619 110.578 16.6989 110.578 17.3295ZM124.211 20.892L124.202 17.1676H124.696L129.401 11.9091H133.006L127.219 18.3523H126.58L124.211 20.892ZM121.398 25V7.54545H124.483V25H121.398ZM129.614 25L125.353 19.0426L127.432 16.8693L133.304 25H129.614ZM138.109 25.2642C137.28 25.2642 136.532 25.1165 135.868 24.821C135.209 24.5199 134.686 24.0767 134.299 23.4915C133.919 22.9062 133.728 22.1847 133.728 21.3267C133.728 20.5881 133.865 19.9773 134.138 19.4943C134.41 19.0114 134.782 18.625 135.254 18.3352C135.726 18.0455 136.257 17.8267 136.848 17.679C137.444 17.5256 138.061 17.4148 138.697 17.3466C139.464 17.267 140.086 17.196 140.564 17.1335C141.041 17.0653 141.388 16.9631 141.603 16.8267C141.825 16.6847 141.936 16.4659 141.936 16.1705V16.1193C141.936 15.4773 141.746 14.9801 141.365 14.6278C140.984 14.2756 140.436 14.0994 139.72 14.0994C138.964 14.0994 138.365 14.2642 137.922 14.5938C137.484 14.9233 137.189 15.3125 137.035 15.7614L134.155 15.3523C134.382 14.5568 134.757 13.892 135.28 13.358C135.802 12.8182 136.442 12.4148 137.197 12.1477C137.953 11.875 138.788 11.7386 139.703 11.7386C140.334 11.7386 140.961 11.8125 141.586 11.9602C142.211 12.108 142.782 12.3523 143.299 12.6932C143.817 13.0284 144.231 13.4858 144.544 14.0653C144.862 14.6449 145.021 15.3693 145.021 16.2386V25H142.055V23.2017H141.953C141.765 23.5653 141.501 23.9062 141.16 24.2244C140.825 24.5369 140.402 24.7898 139.89 24.983C139.385 25.1705 138.791 25.2642 138.109 25.2642ZM138.91 22.9972C139.53 22.9972 140.067 22.875 140.521 22.6307C140.976 22.3807 141.325 22.0511 141.569 21.642C141.819 21.233 141.944 20.7869 141.944 20.304V18.7614C141.848 18.8409 141.683 18.9148 141.45 18.983C141.223 19.0511 140.967 19.1108 140.683 19.1619C140.399 19.2131 140.118 19.2585 139.839 19.2983C139.561 19.3381 139.319 19.3722 139.115 19.4006C138.655 19.4631 138.243 19.5653 137.879 19.7074C137.515 19.8494 137.228 20.0483 137.018 20.304C136.808 20.554 136.703 20.8778 136.703 21.2756C136.703 21.8438 136.91 22.2727 137.325 22.5625C137.74 22.8523 138.268 22.9972 138.91 22.9972ZM147.403 25V11.9091H150.395V14.0909H150.531C150.77 13.3352 151.179 12.7528 151.758 12.3438C152.344 11.929 153.011 11.7216 153.761 11.7216C153.932 11.7216 154.122 11.7301 154.332 11.7472C154.548 11.7585 154.727 11.7784 154.869 11.8068V14.6449C154.739 14.5994 154.531 14.5597 154.247 14.5256C153.969 14.4858 153.699 14.4659 153.437 14.4659C152.875 14.4659 152.369 14.5881 151.92 14.8324C151.477 15.071 151.128 15.4034 150.872 15.8295C150.616 16.2557 150.489 16.7472 150.489 17.304V25H147.403Z" fill="url(#paint0_linear_518_2082)"></path><defs><linearGradient id="paint0_linear_518_2082" x1="83.275" y1="17.0909" x2="151.755" y2="16.9757" gradientUnits="userSpaceOnUse"><stop stop-color="#8B70FF"></stop><stop offset="1" stop-color="#FC5C79"></stop></linearGradient></defs></svg>