<svg xmlns="http://www.w3.org/2000/svg" width="155" height="32" viewBox="0 0 155 32" fill="none"><path fill-rule="evenodd" clip-rule="evenodd" d="M2.10883 29.9172C4.21766 32 7.61177 32 14.4 32H21.4725C20.9778 31.1594 20.7 30.1852 20.7 29.1765C20.7 27.7258 21.2745 26.3465 22.2427 25.3333H20.7C19.9544 25.3333 19.35 24.7364 19.35 24C19.35 23.2636 19.9544 22.6667 20.7 22.6667H24.1707C25.091 20.3735 27.2788 18.6667 30 18.6667C32.8092 18.6667 35.0572 20.4948 35.919 22.8986L35.9448 22.9165C36 21.4626 36 19.7679 36 17.7778V17.3333H0V17.7778C0 24.4822 0 27.8344 2.10883 29.9172ZM7.2 27.1111C6.45442 27.1111 5.85 26.5142 5.85 25.7778L5.85 22.2222C5.85 21.4858 6.45441 20.8889 7.2 20.8889C7.94558 20.8889 8.55 21.4858 8.55 22.2222V25.7778C8.55 26.5142 7.94558 27.1111 7.2 27.1111ZM12.6 27.1111C11.8544 27.1111 11.25 26.5142 11.25 25.7778V22.2222C11.25 21.4858 11.8544 20.8889 12.6 20.8889C13.3456 20.8889 13.95 21.4858 13.95 22.2222V25.7778C13.95 26.5142 13.3456 27.1111 12.6 27.1111Z" fill="#3795FC"></path><path fill-rule="evenodd" clip-rule="evenodd" d="M2.10883 2.0828C0 4.16559 0 7.5178 0 14.2222V14.6667H36V14.2222C36 7.5178 36 4.16559 33.8912 2.0828C31.7823 0 28.3882 0 21.6 0H14.4C7.61177 0 4.21766 0 2.10883 2.0828ZM12.6 11.1111C11.8544 11.1111 11.25 10.5142 11.25 9.77778V6.22222C11.25 5.48584 11.8544 4.88889 12.6 4.88889C13.3456 4.88889 13.95 5.48584 13.95 6.22222V9.77778C13.95 10.5142 13.3456 11.1111 12.6 11.1111ZM5.85 9.77778C5.85 10.5142 6.45442 11.1111 7.2 11.1111C7.94558 11.1111 8.55 10.5142 8.55 9.77778V6.22222C8.55 5.48584 7.94558 4.88889 7.2 4.88889C6.45441 4.88889 5.85 5.48584 5.85 6.22222L5.85 9.77778ZM19.35 8C19.35 7.26362 19.9544 6.66667 20.7 6.66667H28.8C29.5456 6.66667 30.15 7.26362 30.15 8C30.15 8.73638 29.5456 9.33333 28.8 9.33333H20.7C19.9544 9.33333 19.35 8.73638 19.35 8Z" fill="#3795FC"></path><path fill-rule="evenodd" clip-rule="evenodd" d="M33.5777 24.6767C33.3774 22.7958 31.852 21.3333 30 21.3333C28.4788 21.3333 27.178 22.32 26.6508 23.7147C26.4889 24.1429 26.4 24.6096 26.4 25.098C26.4 25.5579 26.4788 25.9985 26.6232 26.4059C26.4539 26.3712 26.279 26.3529 26.1 26.3529C25.3082 26.3529 24.596 26.7094 24.1021 27.2772C23.6659 27.7787 23.4 28.4451 23.4 29.1765C23.4 30.7359 24.6088 32 26.1 32H32.4C34.3882 32 36 30.3145 36 28.2353C36 26.5874 34.9876 25.1868 33.5777 24.6767Z" fill="#3795FC"></path><path d="M33.5777 24.6767C33.3774 22.7958 31.852 21.3333 30 21.3333C28.4788 21.3333 27.178 22.32 26.6508 23.7147C26.4889 24.1429 26.4 24.6096 26.4 25.098C26.4 25.5579 26.4788 25.9985 26.6232 26.4059C26.4539 26.3712 26.279 26.3529 26.1 26.3529C25.3082 26.3529 24.596 26.7094 24.1021 27.2772C23.6659 27.7787 23.4 28.4451 23.4 29.1765C23.4 30.7359 24.6088 32 26.1 32H32.4C34.3882 32 36 30.3145 36 28.2353C36 26.5874 34.9876 25.1868 33.5777 24.6767Z" fill="#3795FC"></path><path d="M49.7216 25V7.54545H52.8835V14.9347H60.9716V7.54545H64.142V25H60.9716V17.5852H52.8835V25H49.7216ZM72.4348 25.2557C71.1564 25.2557 70.0485 24.9744 69.111 24.4119C68.1735 23.8494 67.4462 23.0625 66.9291 22.0511C66.4178 21.0398 66.1621 19.858 66.1621 18.5057C66.1621 17.1534 66.4178 15.9687 66.9291 14.9517C67.4462 13.9347 68.1735 13.1449 69.111 12.5824C70.0485 12.0199 71.1564 11.7386 72.4348 11.7386C73.7132 11.7386 74.8212 12.0199 75.7587 12.5824C76.6962 13.1449 77.4206 13.9347 77.932 14.9517C78.449 15.9687 78.7076 17.1534 78.7076 18.5057C78.7076 19.858 78.449 21.0398 77.932 22.0511C77.4206 23.0625 76.6962 23.8494 75.7587 24.4119C74.8212 24.9744 73.7132 25.2557 72.4348 25.2557ZM72.4519 22.7841C73.1451 22.7841 73.7246 22.5937 74.1905 22.2131C74.6564 21.8267 75.003 21.3097 75.2303 20.6619C75.4632 20.0142 75.5797 19.2926 75.5797 18.4972C75.5797 17.696 75.4632 16.9716 75.2303 16.3239C75.003 15.6705 74.6564 15.1506 74.1905 14.7642C73.7246 14.3778 73.1451 14.1847 72.4519 14.1847C71.7416 14.1847 71.1507 14.3778 70.6791 14.7642C70.2132 15.1506 69.8638 15.6705 69.6309 16.3239C69.4036 16.9716 69.2899 17.696 69.2899 18.4972C69.2899 19.2926 69.4036 20.0142 69.6309 20.6619C69.8638 21.3097 70.2132 21.8267 70.6791 22.2131C71.1507 22.5937 71.7416 22.7841 72.4519 22.7841ZM90.9528 15.3693L88.1403 15.6761C88.0607 15.392 87.9215 15.125 87.7226 14.875C87.5295 14.625 87.2681 14.4233 86.9386 14.2699C86.609 14.1165 86.2056 14.0398 85.7283 14.0398C85.0863 14.0398 84.5465 14.179 84.109 14.4574C83.6772 14.7358 83.4641 15.0966 83.4698 15.5398C83.4641 15.9205 83.6033 16.2301 83.8874 16.4688C84.1772 16.7074 84.6545 16.9034 85.3192 17.0568L87.5522 17.5341C88.7908 17.8011 89.7113 18.2244 90.3136 18.804C90.9215 19.3835 91.2283 20.142 91.234 21.0795C91.2283 21.9034 90.9868 22.6307 90.5096 23.2614C90.038 23.8864 89.3817 24.375 88.5408 24.7273C87.6999 25.0795 86.734 25.2557 85.6431 25.2557C84.0408 25.2557 82.7511 24.9205 81.7738 24.25C80.7965 23.5739 80.2141 22.6335 80.0266 21.429L83.0351 21.1392C83.1715 21.7301 83.4613 22.1761 83.9045 22.4773C84.3476 22.7784 84.9243 22.929 85.6346 22.929C86.3675 22.929 86.9556 22.7784 87.3988 22.4773C87.8476 22.1761 88.0721 21.804 88.0721 21.3608C88.0721 20.9858 87.9272 20.6761 87.6374 20.4318C87.3533 20.1875 86.9101 20 86.3079 19.8693L84.0749 19.4006C82.8192 19.1392 81.8903 18.6989 81.288 18.0795C80.6857 17.4545 80.3874 16.6648 80.3931 15.7102C80.3874 14.9034 80.6062 14.2045 81.0493 13.6136C81.4982 13.017 82.1204 12.5568 82.9158 12.233C83.717 11.9034 84.6403 11.7386 85.6857 11.7386C87.2198 11.7386 88.4272 12.0653 89.3079 12.7188C90.1942 13.3722 90.7425 14.2557 90.9528 15.3693ZM99.595 11.9091V14.2955H92.0694V11.9091H99.595ZM93.9274 8.77273H97.0126V21.0625C97.0126 21.4773 97.0751 21.7955 97.2001 22.017C97.3308 22.233 97.5012 22.3807 97.7114 22.4602C97.9217 22.5398 98.1546 22.5795 98.4103 22.5795C98.6035 22.5795 98.7796 22.5653 98.9387 22.5369C99.1035 22.5085 99.2285 22.483 99.3137 22.4602L99.8336 24.8722C99.6688 24.929 99.433 24.9915 99.1262 25.0597C98.8251 25.1278 98.4558 25.1676 98.0183 25.179C97.2455 25.2017 96.5495 25.0852 95.9302 24.8295C95.3109 24.5682 94.8194 24.1648 94.4558 23.6193C94.0978 23.0739 93.9217 22.392 93.9274 21.5739V8.77273ZM101.455 25V11.9091H104.54V25H101.455ZM103.006 10.0511C102.518 10.0511 102.097 9.8892 101.745 9.56534C101.393 9.23579 101.217 8.84091 101.217 8.38068C101.217 7.91477 101.393 7.51989 101.745 7.19602C102.097 6.86648 102.518 6.7017 103.006 6.7017C103.501 6.7017 103.921 6.86648 104.268 7.19602C104.62 7.51989 104.796 7.91477 104.796 8.38068C104.796 8.84091 104.62 9.23579 104.268 9.56534C103.921 9.8892 103.501 10.0511 103.006 10.0511ZM110.078 17.3295V25H106.993V11.9091H109.942V14.1335H110.095C110.396 13.4006 110.877 12.8182 111.536 12.3864C112.2 11.9545 113.021 11.7386 113.999 11.7386C114.902 11.7386 115.689 11.9318 116.36 12.3182C117.036 12.7045 117.558 13.2642 117.928 13.9972C118.303 14.7301 118.487 15.6193 118.482 16.6648V25H115.396V17.142C115.396 16.267 115.169 15.5824 114.715 15.0881C114.266 14.5937 113.644 14.3466 112.848 14.3466C112.308 14.3466 111.828 14.4659 111.408 14.7045C110.993 14.9375 110.666 15.2756 110.428 15.7188C110.195 16.1619 110.078 16.6989 110.078 17.3295ZM123.711 20.892L123.702 17.1676H124.196L128.901 11.9091H132.506L126.719 18.3523H126.08L123.711 20.892ZM120.898 25V7.54545H123.983V25H120.898ZM129.114 25L124.853 19.0426L126.932 16.8693L132.804 25H129.114ZM137.609 25.2642C136.78 25.2642 136.032 25.1165 135.368 24.821C134.709 24.5199 134.186 24.0767 133.799 23.4915C133.419 22.9062 133.228 22.1847 133.228 21.3267C133.228 20.5881 133.365 19.9773 133.638 19.4943C133.91 19.0114 134.282 18.625 134.754 18.3352C135.226 18.0455 135.757 17.8267 136.348 17.679C136.944 17.5256 137.561 17.4148 138.197 17.3466C138.964 17.267 139.586 17.196 140.064 17.1335C140.541 17.0653 140.888 16.9631 141.103 16.8267C141.325 16.6847 141.436 16.4659 141.436 16.1705V16.1193C141.436 15.4773 141.246 14.9801 140.865 14.6278C140.484 14.2756 139.936 14.0994 139.22 14.0994C138.464 14.0994 137.865 14.2642 137.422 14.5938C136.984 14.9233 136.689 15.3125 136.535 15.7614L133.655 15.3523C133.882 14.5568 134.257 13.892 134.78 13.358C135.302 12.8182 135.942 12.4148 136.697 12.1477C137.453 11.875 138.288 11.7386 139.203 11.7386C139.834 11.7386 140.461 11.8125 141.086 11.9602C141.711 12.108 142.282 12.3523 142.799 12.6932C143.317 13.0284 143.731 13.4858 144.044 14.0653C144.362 14.6449 144.521 15.3693 144.521 16.2386V25H141.555V23.2017H141.453C141.265 23.5653 141.001 23.9062 140.66 24.2244C140.325 24.5369 139.902 24.7898 139.39 24.983C138.885 25.1705 138.291 25.2642 137.609 25.2642ZM138.41 22.9972C139.03 22.9972 139.567 22.875 140.021 22.6307C140.476 22.3807 140.825 22.0511 141.069 21.642C141.319 21.233 141.444 20.7869 141.444 20.304V18.7614C141.348 18.8409 141.183 18.9148 140.95 18.983C140.723 19.0511 140.467 19.1108 140.183 19.1619C139.899 19.2131 139.618 19.2585 139.339 19.2983C139.061 19.3381 138.819 19.3722 138.615 19.4006C138.155 19.4631 137.743 19.5653 137.379 19.7074C137.015 19.8494 136.728 20.0483 136.518 20.304C136.308 20.554 136.203 20.8778 136.203 21.2756C136.203 21.8438 136.41 22.2727 136.825 22.5625C137.24 22.8523 137.768 22.9972 138.41 22.9972ZM146.903 25V11.9091H149.895V14.0909H150.031C150.27 13.3352 150.679 12.7528 151.258 12.3438C151.844 11.929 152.511 11.7216 153.261 11.7216C153.432 11.7216 153.622 11.7301 153.832 11.7472C154.048 11.7585 154.227 11.7784 154.369 11.8068V14.6449C154.239 14.5994 154.031 14.5597 153.747 14.5256C153.469 14.4858 153.199 14.4659 152.937 14.4659C152.375 14.4659 151.869 14.5881 151.42 14.8324C150.977 15.071 150.628 15.4034 150.372 15.8295C150.116 16.2557 149.989 16.7472 149.989 17.304V25H146.903Z" fill="url(#paint0_linear_584_1657)"></path><defs><linearGradient id="paint0_linear_584_1657" x1="82.775" y1="17.0909" x2="151.255" y2="16.9757" gradientUnits="userSpaceOnUse"><stop stop-color="#3795FC"></stop><stop offset="1" stop-color="#17BD54"></stop></linearGradient></defs></svg>