<svg width="146" height="33" viewBox="0 0 146 33" fill="none" xmlns="http://www.w3.org/2000/svg">
<path fill-rule="evenodd" clip-rule="evenodd" d="M2.10883 30.0285C4.21766 32.1113 7.61177 32.1113 14.4 32.1113H21.4725C20.9778 31.2707 20.7 30.2965 20.7 29.2878C20.7 27.8371 21.2745 26.4579 22.2427 25.4447H20.7C19.9544 25.4447 19.35 24.8477 19.35 24.1113C19.35 23.3749 19.9544 22.778 20.7 22.778H24.1707C25.091 20.4848 27.2788 18.778 30 18.778C32.8092 18.778 35.0572 20.6061 35.919 23.0099L35.9448 23.0278C36 21.5739 36 19.8792 36 17.8891V17.4447H0V17.8891C0 24.5935 0 27.9457 2.10883 30.0285ZM7.2 27.2224C6.45442 27.2224 5.85 26.6255 5.85 25.8891L5.85 22.3336C5.85 21.5972 6.45441 21.0002 7.2 21.0002C7.94558 21.0002 8.55 21.5972 8.55 22.3336V25.8891C8.55 26.6255 7.94558 27.2224 7.2 27.2224ZM12.6 27.2224C11.8544 27.2224 11.25 26.6255 11.25 25.8891V22.3336C11.25 21.5972 11.8544 21.0002 12.6 21.0002C13.3456 21.0002 13.95 21.5972 13.95 22.3336V25.8891C13.95 26.6255 13.3456 27.2224 12.6 27.2224Z" fill="#3795FC"/>
<path fill-rule="evenodd" clip-rule="evenodd" d="M2.10883 2.19412C0 4.27692 0 7.62913 0 14.3335V14.778H36V14.3336C36 7.62913 36 4.27692 33.8912 2.19412C31.7823 0.111328 28.3882 0.111328 21.6 0.111328H14.4C7.61177 0.111328 4.21766 0.111328 2.10883 2.19412ZM12.6 11.2224C11.8544 11.2224 11.25 10.6255 11.25 9.88911V6.33355C11.25 5.59717 11.8544 5.00022 12.6 5.00022C13.3456 5.00022 13.95 5.59717 13.95 6.33355V9.88911C13.95 10.6255 13.3456 11.2224 12.6 11.2224ZM5.85 9.88911C5.85 10.6255 6.45442 11.2224 7.2 11.2224C7.94558 11.2224 8.55 10.6255 8.55 9.88911V6.33355C8.55 5.59717 7.94558 5.00022 7.2 5.00022C6.45441 5.00022 5.85 5.59717 5.85 6.33355L5.85 9.88911ZM19.35 8.11133C19.35 7.37495 19.9544 6.77799 20.7 6.77799H28.8C29.5456 6.77799 30.15 7.37495 30.15 8.11133C30.15 8.84771 29.5456 9.44466 28.8 9.44466H20.7C19.9544 9.44466 19.35 8.84771 19.35 8.11133Z" fill="#3795FC"/>
<path fill-rule="evenodd" clip-rule="evenodd" d="M33.5777 24.788C33.3774 22.9071 31.852 21.4447 30 21.4447C28.4788 21.4447 27.178 22.4313 26.6508 23.826C26.4889 24.2542 26.4 24.7209 26.4 25.2094C26.4 25.6692 26.4788 26.1099 26.6232 26.5172C26.4539 26.4825 26.279 26.4643 26.1 26.4643C25.3082 26.4643 24.596 26.8207 24.1021 27.3885C23.6659 27.89 23.4 28.5564 23.4 29.2878C23.4 30.8472 24.6088 32.1113 26.1 32.1113H32.4C34.3882 32.1113 36 30.4258 36 28.3466C36 26.6987 34.9876 25.2982 33.5777 24.788Z" fill="#3795FC"/>
<path d="M33.5777 24.788C33.3774 22.9071 31.852 21.4447 30 21.4447C28.4788 21.4447 27.178 22.4313 26.6508 23.826C26.4889 24.2542 26.4 24.7209 26.4 25.2094C26.4 25.6692 26.4788 26.1099 26.6232 26.5172C26.4539 26.4825 26.279 26.4643 26.1 26.4643C25.3082 26.4643 24.596 26.8207 24.1021 27.3885C23.6659 27.89 23.4 28.5564 23.4 29.2878C23.4 30.8472 24.6088 32.1113 26.1 32.1113H32.4C34.3882 32.1113 36 30.4258 36 28.3466C36 26.6987 34.9876 25.2982 33.5777 24.788Z" fill="#3795FC"/>
<path d="M52.108 12.0204L54.75 16.8528L57.4347 12.0204H60.6989L56.7528 18.5659L60.767 25.1113H57.5199L54.75 20.3983L52.0057 25.1113H48.733L52.7216 18.5659L48.8352 12.0204H52.108ZM62.5016 25.1113V7.65678H65.6635V15.046H73.7516V7.65678H76.922V25.1113H73.7516V17.6966H65.6635V25.1113H62.5016ZM85.2148 25.367C83.9364 25.367 82.8285 25.0858 81.891 24.5233C80.9535 23.9608 80.2262 23.1738 79.7091 22.1625C79.1978 21.1511 78.9421 19.9693 78.9421 18.617C78.9421 17.2647 79.1978 16.0801 79.7091 15.063C80.2262 14.046 80.9535 13.2562 81.891 12.6937C82.8285 12.1312 83.9364 11.85 85.2148 11.85C86.4932 11.85 87.6012 12.1312 88.5387 12.6937C89.4762 13.2562 90.2006 14.046 90.712 15.063C91.229 16.0801 91.4876 17.2647 91.4876 18.617C91.4876 19.9693 91.229 21.1511 90.712 22.1625C90.2006 23.1738 89.4762 23.9608 88.5387 24.5233C87.6012 25.0858 86.4932 25.367 85.2148 25.367ZM85.2319 22.8954C85.9251 22.8954 86.5046 22.7051 86.9705 22.3244C87.4364 21.938 87.783 21.421 88.0103 20.7733C88.2432 20.1255 88.3597 19.4039 88.3597 18.6085C88.3597 17.8074 88.2432 17.0829 88.0103 16.4352C87.783 15.7818 87.4364 15.2619 86.9705 14.8755C86.5046 14.4892 85.9251 14.296 85.2319 14.296C84.5216 14.296 83.9307 14.4892 83.4591 14.8755C82.9932 15.2619 82.6438 15.7818 82.4109 16.4352C82.1836 17.0829 82.0699 17.8074 82.0699 18.6085C82.0699 19.4039 82.1836 20.1255 82.4109 20.7733C82.6438 21.421 82.9932 21.938 83.4591 22.3244C83.9307 22.7051 84.5216 22.8954 85.2319 22.8954ZM103.733 15.4806L100.92 15.7875C100.841 15.5034 100.702 15.2363 100.503 14.9863C100.309 14.7363 100.048 14.5346 99.7186 14.3812C99.389 14.2278 98.9856 14.1511 98.5083 14.1511C97.8663 14.1511 97.3265 14.2903 96.889 14.5687C96.4572 14.8471 96.2441 15.2079 96.2498 15.6511C96.2441 16.0318 96.3833 16.3414 96.6674 16.5801C96.9572 16.8187 97.4345 17.0147 98.0992 17.1681L100.332 17.6454C101.571 17.9125 102.491 18.3358 103.094 18.9153C103.702 19.4949 104.008 20.2534 104.014 21.1909C104.008 22.0147 103.767 22.742 103.29 23.3727C102.818 23.9977 102.162 24.4863 101.321 24.8386C100.48 25.1909 99.514 25.367 98.4231 25.367C96.8208 25.367 95.5311 25.0318 94.5538 24.3613C93.5765 23.6852 92.9941 22.7449 92.8066 21.5403L95.8151 21.2505C95.9515 21.8414 96.2413 22.2875 96.6845 22.5886C97.1276 22.8897 97.7043 23.0403 98.4146 23.0403C99.1475 23.0403 99.7356 22.8897 100.179 22.5886C100.628 22.2875 100.852 21.9153 100.852 21.4721C100.852 21.0971 100.707 20.7875 100.417 20.5431C100.133 20.2988 99.6901 20.1113 99.0879 19.9806L96.8549 19.5119C95.5992 19.2505 94.6703 18.8102 94.068 18.1909C93.4657 17.5659 93.1674 16.7761 93.1731 15.8216C93.1674 15.0147 93.3862 14.3159 93.8293 13.725C94.2782 13.1284 94.9004 12.6681 95.6958 12.3443C96.497 12.0147 97.4203 11.85 98.4657 11.85C99.9998 11.85 101.207 12.1767 102.088 12.8301C102.974 13.4835 103.523 14.367 103.733 15.4806ZM112.375 12.0204V14.4068H104.849V12.0204H112.375ZM106.707 8.88406H109.793V21.1738C109.793 21.5886 109.855 21.9068 109.98 22.1284C110.111 22.3443 110.281 22.492 110.491 22.5716C110.702 22.6511 110.935 22.6909 111.19 22.6909C111.383 22.6909 111.56 22.6767 111.719 22.6483C111.883 22.6199 112.008 22.5943 112.094 22.5716L112.614 24.9835C112.449 25.0403 112.213 25.1028 111.906 25.171C111.605 25.2392 111.236 25.2789 110.798 25.2903C110.026 25.313 109.33 25.1966 108.71 24.9409C108.091 24.6795 107.599 24.2761 107.236 23.7306C106.878 23.1852 106.702 22.5034 106.707 21.6852V8.88406ZM114.235 25.1113V12.0204H117.32V25.1113H114.235ZM115.786 10.1625C115.298 10.1625 114.877 10.0005 114.525 9.67667C114.173 9.34712 113.997 8.95224 113.997 8.49201C113.997 8.0261 114.173 7.63121 114.525 7.30735C114.877 6.9778 115.298 6.81303 115.786 6.81303C116.281 6.81303 116.701 6.9778 117.048 7.30735C117.4 7.63121 117.576 8.0261 117.576 8.49201C117.576 8.95224 117.4 9.34712 117.048 9.67667C116.701 10.0005 116.281 10.1625 115.786 10.1625ZM122.858 17.4409V25.1113H119.773V12.0204H122.722V14.2449H122.875C123.176 13.5119 123.657 12.9295 124.316 12.4977C124.98 12.0659 125.801 11.85 126.779 11.85C127.682 11.85 128.469 12.0431 129.14 12.4295C129.816 12.8159 130.338 13.3755 130.708 14.1085C131.083 14.8414 131.267 15.7306 131.262 16.7761V25.1113H128.176V17.2534C128.176 16.3784 127.949 15.6937 127.495 15.1994C127.046 14.7051 126.424 14.4579 125.628 14.4579C125.088 14.4579 124.608 14.5772 124.188 14.8159C123.773 15.0488 123.446 15.3869 123.208 15.8301C122.975 16.2733 122.858 16.8102 122.858 17.4409ZM139.371 30.2931C138.263 30.2931 137.312 30.1426 136.516 29.8414C135.721 29.546 135.081 29.1483 134.598 28.6483C134.116 28.1483 133.78 27.5943 133.593 26.9863L136.371 26.313C136.496 26.5687 136.678 26.8216 136.917 27.0716C137.155 27.3272 137.476 27.5375 137.88 27.7022C138.289 27.8727 138.803 27.9579 139.422 27.9579C140.297 27.9579 141.022 27.7449 141.596 27.3187C142.17 26.8983 142.456 26.2051 142.456 25.2392V22.7591H142.303C142.144 23.0772 141.911 23.4039 141.604 23.7392C141.303 24.0744 140.902 24.3556 140.402 24.5829C139.908 24.8102 139.286 24.9238 138.536 24.9238C137.53 24.9238 136.618 24.688 135.8 24.2164C134.988 23.7392 134.34 23.0289 133.857 22.0858C133.38 21.1369 133.141 19.9494 133.141 18.5233C133.141 17.0858 133.38 15.8727 133.857 14.8841C134.34 13.8897 134.991 13.1369 135.809 12.6255C136.627 12.1085 137.539 11.85 138.545 11.85C139.312 11.85 139.942 11.9806 140.437 12.242C140.937 12.4977 141.334 12.8074 141.63 13.171C141.925 13.5289 142.15 13.867 142.303 14.1852H142.473V12.0204H145.516V25.3244C145.516 26.4437 145.249 27.3699 144.715 28.1028C144.181 28.8358 143.451 29.3841 142.525 29.7477C141.598 30.1113 140.547 30.2931 139.371 30.2931ZM139.397 22.5034C140.05 22.5034 140.607 22.3443 141.067 22.0261C141.527 21.7079 141.877 21.2505 142.116 20.6539C142.354 20.0574 142.473 19.3414 142.473 18.5062C142.473 17.6824 142.354 16.9608 142.116 16.3414C141.883 15.7221 141.536 15.242 141.076 14.9011C140.621 14.5545 140.062 14.3812 139.397 14.3812C138.709 14.3812 138.135 14.5602 137.675 14.9181C137.215 15.2761 136.868 15.7676 136.635 16.3926C136.402 17.0119 136.286 17.7164 136.286 18.5062C136.286 19.3074 136.402 20.0091 136.635 20.6113C136.874 21.2079 137.223 21.6738 137.684 22.0091C138.15 22.3386 138.721 22.5034 139.397 22.5034Z" fill="url(#paint0_linear_700_695)"/>
<defs>
<linearGradient id="paint0_linear_700_695" x1="80.5" y1="17.2022" x2="144.5" y2="17.1016" gradientUnits="userSpaceOnUse">
<stop stop-color="#6F56DA"/>
<stop offset="1" stop-color="#FC5C79"/>
</linearGradient>
</defs>
</svg>
