<svg width="246" height="48" viewBox="0 0 246 48" fill="none" xmlns="http://www.w3.org/2000/svg">
<g filter="url(#filter0_ii_51_42)">
<rect width="246" height="48" rx="12" fill="#1A1C20"/>
<path d="M17.2784 30V18.3636H24.4943V19.875H19.0341V23.4205H23.9773V24.9261H19.0341V30H17.2784ZM26.4077 30V21.2727H28.0497V22.6591H28.1406C28.2997 22.1894 28.58 21.8201 28.9815 21.5511C29.3868 21.2784 29.8452 21.142 30.3565 21.142C30.4626 21.142 30.5876 21.1458 30.7315 21.1534C30.8793 21.161 30.9948 21.1705 31.0781 21.1818V22.8068C31.0099 22.7879 30.8887 22.767 30.7145 22.7443C30.5402 22.7178 30.366 22.7045 30.1918 22.7045C29.7902 22.7045 29.4323 22.7898 29.1179 22.9602C28.8073 23.1269 28.5611 23.3598 28.3793 23.6591C28.1974 23.9545 28.1065 24.2917 28.1065 24.6705V30H26.4077ZM35.9972 30.1761C35.1373 30.1761 34.3968 29.9924 33.7756 29.625C33.1581 29.2538 32.6809 28.733 32.3438 28.0625C32.0104 27.3883 31.8438 26.5985 31.8438 25.6932C31.8438 24.7992 32.0104 24.0114 32.3438 23.3295C32.6809 22.6477 33.1506 22.1155 33.7528 21.733C34.3589 21.3504 35.0672 21.1591 35.8778 21.1591C36.3703 21.1591 36.8475 21.2405 37.3097 21.4034C37.7718 21.5663 38.1866 21.822 38.554 22.1705C38.9214 22.5189 39.2112 22.9716 39.4233 23.5284C39.6354 24.0814 39.7415 24.7538 39.7415 25.5455V26.1477H32.804V24.875H38.0767C38.0767 24.428 37.9858 24.0322 37.804 23.6875C37.6222 23.339 37.3665 23.0644 37.0369 22.8636C36.7112 22.6629 36.3286 22.5625 35.8892 22.5625C35.4119 22.5625 34.9953 22.6799 34.6392 22.9148C34.2869 23.1458 34.0142 23.4489 33.821 23.8239C33.6316 24.1951 33.5369 24.5985 33.5369 25.0341V26.0284C33.5369 26.6117 33.6392 27.108 33.8438 27.517C34.0521 27.9261 34.3419 28.2386 34.7131 28.4545C35.0843 28.6667 35.518 28.7727 36.0142 28.7727C36.3362 28.7727 36.6297 28.7273 36.8949 28.6364C37.16 28.5417 37.3892 28.4015 37.5824 28.2159C37.7756 28.0303 37.9233 27.8011 38.0256 27.5284L39.6335 27.8182C39.5047 28.2917 39.2737 28.7064 38.9403 29.0625C38.6108 29.4148 38.196 29.6894 37.696 29.8864C37.1998 30.0795 36.6335 30.1761 35.9972 30.1761ZM45.3878 30.1761C44.5279 30.1761 43.7874 29.9924 43.1662 29.625C42.5488 29.2538 42.0715 28.733 41.7344 28.0625C41.401 27.3883 41.2344 26.5985 41.2344 25.6932C41.2344 24.7992 41.401 24.0114 41.7344 23.3295C42.0715 22.6477 42.5412 22.1155 43.1435 21.733C43.7495 21.3504 44.4579 21.1591 45.2685 21.1591C45.7609 21.1591 46.2382 21.2405 46.7003 21.4034C47.1624 21.5663 47.5772 21.822 47.9446 22.1705C48.312 22.5189 48.6018 22.9716 48.8139 23.5284C49.026 24.0814 49.1321 24.7538 49.1321 25.5455V26.1477H42.1946V24.875H47.4673C47.4673 24.428 47.3764 24.0322 47.1946 23.6875C47.0128 23.339 46.7571 23.0644 46.4276 22.8636C46.1018 22.6629 45.7192 22.5625 45.2798 22.5625C44.8026 22.5625 44.3859 22.6799 44.0298 22.9148C43.6776 23.1458 43.4048 23.4489 43.2116 23.8239C43.0223 24.1951 42.9276 24.5985 42.9276 25.0341V26.0284C42.9276 26.6117 43.0298 27.108 43.2344 27.517C43.4427 27.9261 43.7325 28.2386 44.1037 28.4545C44.4749 28.6667 44.9086 28.7727 45.4048 28.7727C45.7268 28.7727 46.0204 28.7273 46.2855 28.6364C46.5507 28.5417 46.7798 28.4015 46.973 28.2159C47.1662 28.0303 47.3139 27.8011 47.4162 27.5284L49.0241 27.8182C48.8954 28.2917 48.6643 28.7064 48.331 29.0625C48.0014 29.4148 47.5866 29.6894 47.0866 29.8864C46.5904 30.0795 46.0241 30.1761 45.3878 30.1761ZM59.1548 30H55.3878V18.3636H59.2741C60.4143 18.3636 61.3935 18.5966 62.2116 19.0625C63.0298 19.5246 63.6567 20.1894 64.0923 21.0568C64.5317 21.9205 64.7514 22.9564 64.7514 24.1648C64.7514 25.3769 64.5298 26.4186 64.0866 27.2898C63.6473 28.161 63.0109 28.8314 62.1776 29.3011C61.3442 29.767 60.3366 30 59.1548 30ZM57.1435 28.4659H59.0582C59.9446 28.4659 60.6813 28.2992 61.2685 27.9659C61.8556 27.6288 62.295 27.142 62.5866 26.5057C62.8783 25.8655 63.0241 25.0852 63.0241 24.1648C63.0241 23.2519 62.8783 22.4773 62.5866 21.8409C62.2988 21.2045 61.8688 20.7216 61.2969 20.392C60.7249 20.0625 60.0147 19.8977 59.1662 19.8977H57.1435V28.4659ZM70.4744 30.1761C69.6563 30.1761 68.9422 29.9886 68.3324 29.6136C67.7225 29.2386 67.2491 28.714 66.9119 28.0398C66.5748 27.3655 66.4062 26.5777 66.4062 25.6761C66.4062 24.7708 66.5748 23.9792 66.9119 23.3011C67.2491 22.6231 67.7225 22.0966 68.3324 21.7216C68.9422 21.3466 69.6563 21.1591 70.4744 21.1591C71.2926 21.1591 72.0066 21.3466 72.6165 21.7216C73.2263 22.0966 73.6998 22.6231 74.0369 23.3011C74.3741 23.9792 74.5426 24.7708 74.5426 25.6761C74.5426 26.5777 74.3741 27.3655 74.0369 28.0398C73.6998 28.714 73.2263 29.2386 72.6165 29.6136C72.0066 29.9886 71.2926 30.1761 70.4744 30.1761ZM70.4801 28.75C71.0104 28.75 71.4498 28.6098 71.7983 28.3295C72.1468 28.0492 72.4044 27.6761 72.571 27.2102C72.7415 26.7443 72.8267 26.2311 72.8267 25.6705C72.8267 25.1136 72.7415 24.6023 72.571 24.1364C72.4044 23.6667 72.1468 23.2898 71.7983 23.0057C71.4498 22.7216 71.0104 22.5795 70.4801 22.5795C69.946 22.5795 69.5028 22.7216 69.1506 23.0057C68.8021 23.2898 68.5426 23.6667 68.3722 24.1364C68.2055 24.6023 68.1222 25.1136 68.1222 25.6705C68.1222 26.2311 68.2055 26.7443 68.3722 27.2102C68.5426 27.6761 68.8021 28.0492 69.1506 28.3295C69.5028 28.6098 69.946 28.75 70.4801 28.75ZM76.4389 30V21.2727H78.0696V22.6932H78.1776C78.3594 22.2121 78.6567 21.8371 79.0696 21.5682C79.4825 21.2955 79.9768 21.1591 80.5526 21.1591C81.1359 21.1591 81.6245 21.2955 82.0185 21.5682C82.4162 21.8409 82.7098 22.2159 82.8991 22.6932H82.9901C83.1984 22.2273 83.5298 21.8561 83.9844 21.5795C84.4389 21.2992 84.9806 21.1591 85.6094 21.1591C86.401 21.1591 87.0469 21.4072 87.5469 21.9034C88.0507 22.3996 88.3026 23.1477 88.3026 24.1477V30H86.6037V24.3068C86.6037 23.7159 86.4427 23.2879 86.1207 23.0227C85.7988 22.7576 85.4143 22.625 84.9673 22.625C84.4143 22.625 83.9844 22.7955 83.6776 23.1364C83.3707 23.4735 83.2173 23.9072 83.2173 24.4375V30H81.5241V24.1989C81.5241 23.7254 81.3764 23.3447 81.081 23.0568C80.7855 22.7689 80.401 22.625 79.9276 22.625C79.6056 22.625 79.3082 22.7102 79.0355 22.8807C78.7666 23.0473 78.5488 23.2803 78.3821 23.5795C78.2192 23.8788 78.1378 24.2254 78.1378 24.6193V30H76.4389ZM93.1193 30.1932C92.5663 30.1932 92.0663 30.0909 91.6193 29.8864C91.1723 29.678 90.8182 29.3769 90.5568 28.983C90.2992 28.589 90.1705 28.1061 90.1705 27.5341C90.1705 27.0417 90.2652 26.6364 90.4545 26.3182C90.6439 26 90.8996 25.7481 91.2216 25.5625C91.5436 25.3769 91.9034 25.2367 92.3011 25.142C92.6989 25.0473 93.1042 24.9754 93.517 24.9261C94.0398 24.8655 94.464 24.8163 94.7898 24.7784C95.1155 24.7367 95.3523 24.6705 95.5 24.5795C95.6477 24.4886 95.7216 24.3409 95.7216 24.1364V24.0966C95.7216 23.6004 95.5814 23.2159 95.3011 22.9432C95.0246 22.6705 94.6117 22.5341 94.0625 22.5341C93.4905 22.5341 93.0398 22.661 92.7102 22.9148C92.3845 23.1648 92.1591 23.4432 92.0341 23.75L90.4375 23.3864C90.6269 22.8561 90.9034 22.428 91.267 22.1023C91.6345 21.7727 92.0568 21.5341 92.5341 21.3864C93.0114 21.2348 93.5133 21.1591 94.0398 21.1591C94.3883 21.1591 94.7576 21.2008 95.1477 21.2841C95.5417 21.3636 95.9091 21.5114 96.25 21.7273C96.5947 21.9432 96.8769 22.2519 97.0966 22.6534C97.3163 23.0511 97.4261 23.5682 97.4261 24.2045V30H95.767V28.8068H95.6989C95.589 29.0265 95.4242 29.2424 95.2045 29.4545C94.9848 29.6667 94.7027 29.8428 94.358 29.983C94.0133 30.1231 93.6004 30.1932 93.1193 30.1932ZM93.4886 28.8295C93.9583 28.8295 94.3598 28.7367 94.6932 28.5511C95.0303 28.3655 95.286 28.1231 95.4602 27.8239C95.6383 27.5208 95.7273 27.197 95.7273 26.8523V25.7273C95.6667 25.7879 95.5492 25.8447 95.375 25.8977C95.2045 25.947 95.0095 25.9905 94.7898 26.0284C94.5701 26.0625 94.3561 26.0947 94.1477 26.125C93.9394 26.1515 93.7652 26.1742 93.625 26.1932C93.2955 26.2348 92.9943 26.3049 92.7216 26.4034C92.4527 26.5019 92.2367 26.6439 92.0739 26.8295C91.9148 27.0114 91.8352 27.2538 91.8352 27.5568C91.8352 27.9773 91.9905 28.2955 92.3011 28.5114C92.6117 28.7235 93.0076 28.8295 93.4886 28.8295ZM99.6889 30V21.2727H101.388V30H99.6889ZM100.547 19.9261C100.251 19.9261 99.9976 19.8277 99.7855 19.6307C99.5772 19.4299 99.473 19.1913 99.473 18.9148C99.473 18.6345 99.5772 18.3958 99.7855 18.1989C99.9976 17.9981 100.251 17.8977 100.547 17.8977C100.842 17.8977 101.094 17.9981 101.303 18.1989C101.515 18.3958 101.621 18.6345 101.621 18.9148C101.621 19.1913 101.515 19.4299 101.303 19.6307C101.094 19.8277 100.842 19.9261 100.547 19.9261ZM105.372 24.8182V30H103.673V21.2727H105.304V22.6932H105.412C105.613 22.2311 105.927 21.8598 106.355 21.5795C106.787 21.2992 107.33 21.1591 107.986 21.1591C108.58 21.1591 109.101 21.2841 109.548 21.5341C109.995 21.7803 110.342 22.1477 110.588 22.6364C110.834 23.125 110.957 23.7292 110.957 24.4489V30H109.259V24.6534C109.259 24.0208 109.094 23.5265 108.764 23.1705C108.435 22.8106 107.982 22.6307 107.406 22.6307C107.012 22.6307 106.662 22.7159 106.355 22.8864C106.052 23.0568 105.812 23.3068 105.634 23.6364C105.459 23.9621 105.372 24.3561 105.372 24.8182ZM119.362 18.3636V30H117.607V18.3636H119.362ZM123.482 24.8182V30H121.783V21.2727H123.413V22.6932H123.521C123.722 22.2311 124.036 21.8598 124.464 21.5795C124.896 21.2992 125.44 21.1591 126.095 21.1591C126.69 21.1591 127.211 21.2841 127.658 21.5341C128.105 21.7803 128.451 22.1477 128.697 22.6364C128.944 23.125 129.067 23.7292 129.067 24.4489V30H127.368V24.6534C127.368 24.0208 127.203 23.5265 126.874 23.1705C126.544 22.8106 126.091 22.6307 125.516 22.6307C125.122 22.6307 124.771 22.7159 124.464 22.8864C124.161 23.0568 123.921 23.3068 123.743 23.6364C123.569 23.9621 123.482 24.3561 123.482 24.8182ZM135.021 30.1761C134.177 30.1761 133.449 29.9848 132.839 29.6023C132.233 29.2159 131.768 28.6837 131.442 28.0057C131.116 27.3277 130.953 26.5511 130.953 25.6761C130.953 24.7898 131.12 24.0076 131.453 23.3295C131.786 22.6477 132.256 22.1155 132.862 21.733C133.468 21.3504 134.182 21.1591 135.004 21.1591C135.667 21.1591 136.258 21.2822 136.777 21.5284C137.296 21.7708 137.714 22.1117 138.033 22.5511C138.355 22.9905 138.546 23.5038 138.607 24.0909H136.953C136.862 23.6818 136.654 23.3295 136.328 23.0341C136.006 22.7386 135.574 22.5909 135.033 22.5909C134.559 22.5909 134.144 22.7159 133.788 22.9659C133.436 23.2121 133.161 23.5644 132.964 24.0227C132.768 24.4773 132.669 25.0152 132.669 25.6364C132.669 26.2727 132.766 26.822 132.959 27.2841C133.152 27.7462 133.425 28.1042 133.777 28.358C134.133 28.6117 134.552 28.7386 135.033 28.7386C135.355 28.7386 135.646 28.6799 135.908 28.5625C136.173 28.4413 136.394 28.2689 136.572 28.0455C136.754 27.822 136.881 27.553 136.953 27.2386H138.607C138.546 27.803 138.362 28.3068 138.055 28.75C137.749 29.1932 137.338 29.5417 136.822 29.7955C136.311 30.0492 135.711 30.1761 135.021 30.1761ZM142.122 18.3636V30H140.423V18.3636H142.122ZM149.936 26.3807V21.2727H151.641V30H149.97V28.4886H149.879C149.679 28.9545 149.357 29.3428 148.913 29.6534C148.474 29.9602 147.927 30.1136 147.271 30.1136C146.711 30.1136 146.214 29.9905 145.783 29.7443C145.355 29.4943 145.018 29.125 144.771 28.6364C144.529 28.1477 144.408 27.5436 144.408 26.8239V21.2727H146.107V26.6193C146.107 27.214 146.271 27.6875 146.601 28.0398C146.93 28.392 147.358 28.5682 147.885 28.5682C148.203 28.5682 148.519 28.4886 148.834 28.3295C149.152 28.1705 149.415 27.9299 149.624 27.608C149.836 27.286 149.94 26.8769 149.936 26.3807ZM157.19 30.1705C156.486 30.1705 155.857 29.9905 155.304 29.6307C154.755 29.267 154.323 28.75 154.009 28.0795C153.698 27.4053 153.543 26.5966 153.543 25.6534C153.543 24.7102 153.7 23.9034 154.014 23.233C154.332 22.5625 154.768 22.0492 155.321 21.6932C155.874 21.3371 156.501 21.1591 157.202 21.1591C157.743 21.1591 158.179 21.25 158.509 21.4318C158.842 21.6098 159.099 21.8182 159.281 22.0568C159.467 22.2955 159.611 22.5057 159.713 22.6875H159.815V18.3636H161.514V30H159.855V28.642H159.713C159.611 28.8277 159.463 29.0398 159.27 29.2784C159.08 29.517 158.819 29.7254 158.486 29.9034C158.152 30.0814 157.721 30.1705 157.19 30.1705ZM157.565 28.7216C158.054 28.7216 158.467 28.5928 158.804 28.3352C159.145 28.0739 159.402 27.7121 159.577 27.25C159.755 26.7879 159.844 26.25 159.844 25.6364C159.844 25.0303 159.757 24.5 159.582 24.0455C159.408 23.5909 159.152 23.2367 158.815 22.983C158.478 22.7292 158.062 22.6023 157.565 22.6023C157.054 22.6023 156.628 22.7348 156.287 23C155.946 23.2652 155.688 23.6269 155.514 24.0852C155.344 24.5436 155.259 25.0606 155.259 25.6364C155.259 26.2197 155.346 26.7443 155.52 27.2102C155.694 27.6761 155.952 28.0455 156.293 28.3182C156.637 28.5871 157.062 28.7216 157.565 28.7216ZM167.7 30.1761C166.84 30.1761 166.1 29.9924 165.479 29.625C164.861 29.2538 164.384 28.733 164.047 28.0625C163.714 27.3883 163.547 26.5985 163.547 25.6932C163.547 24.7992 163.714 24.0114 164.047 23.3295C164.384 22.6477 164.854 22.1155 165.456 21.733C166.062 21.3504 166.77 21.1591 167.581 21.1591C168.073 21.1591 168.551 21.2405 169.013 21.4034C169.475 21.5663 169.89 21.822 170.257 22.1705C170.625 22.5189 170.914 22.9716 171.126 23.5284C171.339 24.0814 171.445 24.7538 171.445 25.5455V26.1477H164.507V24.875H169.78C169.78 24.428 169.689 24.0322 169.507 23.6875C169.325 23.339 169.07 23.0644 168.74 22.8636C168.414 22.6629 168.032 22.5625 167.592 22.5625C167.115 22.5625 166.698 22.6799 166.342 22.9148C165.99 23.1458 165.717 23.4489 165.524 23.8239C165.335 24.1951 165.24 24.5985 165.24 25.0341V26.0284C165.24 26.6117 165.342 27.108 165.547 27.517C165.755 27.9261 166.045 28.2386 166.416 28.4545C166.787 28.6667 167.221 28.7727 167.717 28.7727C168.039 28.7727 168.333 28.7273 168.598 28.6364C168.863 28.5417 169.092 28.4015 169.286 28.2159C169.479 28.0303 169.626 27.8011 169.729 27.5284L171.337 27.8182C171.208 28.2917 170.977 28.7064 170.643 29.0625C170.314 29.4148 169.899 29.6894 169.399 29.8864C168.903 30.0795 168.337 30.1761 167.7 30.1761ZM176.597 30.1705C175.892 30.1705 175.263 29.9905 174.71 29.6307C174.161 29.267 173.729 28.75 173.415 28.0795C173.104 27.4053 172.949 26.5966 172.949 25.6534C172.949 24.7102 173.106 23.9034 173.42 23.233C173.739 22.5625 174.174 22.0492 174.727 21.6932C175.28 21.3371 175.907 21.1591 176.608 21.1591C177.15 21.1591 177.585 21.25 177.915 21.4318C178.248 21.6098 178.506 21.8182 178.688 22.0568C178.873 22.2955 179.017 22.5057 179.119 22.6875H179.222V18.3636H180.92V30H179.261V28.642H179.119C179.017 28.8277 178.869 29.0398 178.676 29.2784C178.487 29.517 178.225 29.7254 177.892 29.9034C177.559 30.0814 177.127 30.1705 176.597 30.1705ZM176.972 28.7216C177.46 28.7216 177.873 28.5928 178.21 28.3352C178.551 28.0739 178.809 27.7121 178.983 27.25C179.161 26.7879 179.25 26.25 179.25 25.6364C179.25 25.0303 179.163 24.5 178.989 24.0455C178.814 23.5909 178.559 23.2367 178.222 22.983C177.884 22.7292 177.468 22.6023 176.972 22.6023C176.46 22.6023 176.034 22.7348 175.693 23C175.352 23.2652 175.095 23.6269 174.92 24.0852C174.75 24.5436 174.665 25.0606 174.665 25.6364C174.665 26.2197 174.752 26.7443 174.926 27.2102C175.1 27.6761 175.358 28.0455 175.699 28.3182C176.044 28.5871 176.468 28.7216 176.972 28.7216Z" fill="white"/>
<g clip-path="url(#clip0_51_42)">
<path d="M223 15.34C224.508 16.2109 225.763 17.4605 226.64 18.9653C227.517 20.4701 227.985 22.1778 227.999 23.9194C228.013 25.6609 227.572 27.376 226.72 28.8947C225.868 30.4135 224.633 31.6832 223.139 32.5783C221.645 33.4734 219.943 33.9628 218.202 33.9981C216.461 34.0333 214.741 33.6132 213.212 32.7793C211.683 31.9453 210.398 30.7265 209.485 29.2435C208.571 27.7605 208.061 26.0647 208.005 24.324L208 24L208.005 23.676C208.061 21.949 208.564 20.266 209.464 18.791C210.364 17.316 211.631 16.0995 213.141 15.2599C214.651 14.4203 216.353 13.9864 218.081 14.0005C219.809 14.0145 221.504 14.476 223 15.34ZM221.707 21.293C221.535 21.1208 221.306 21.0174 221.063 21.0021C220.82 20.9868 220.579 21.0608 220.387 21.21L220.293 21.293L217 24.585L215.707 23.293L215.613 23.21C215.421 23.0609 215.18 22.987 214.937 23.0024C214.694 23.0177 214.465 23.1211 214.293 23.2933C214.121 23.4654 214.018 23.6945 214.002 23.9374C213.987 24.1804 214.061 24.4206 214.21 24.613L214.293 24.707L216.293 26.707L216.387 26.79C216.562 26.9261 216.778 26.9999 217 26.9999C217.222 26.9999 217.438 26.9261 217.613 26.79L217.707 26.707L221.707 22.707L221.79 22.613C221.939 22.4206 222.013 22.1804 221.998 21.9373C221.983 21.6943 221.879 21.4652 221.707 21.293Z" fill="#00C84A"/>
</g>
</g>
<defs>
<filter id="filter0_ii_51_42" x="0" y="-1" width="246" height="51" filterUnits="userSpaceOnUse" color-interpolation-filters="sRGB">
<feFlood flood-opacity="0" result="BackgroundImageFix"/>
<feBlend mode="normal" in="SourceGraphic" in2="BackgroundImageFix" result="shape"/>
<feColorMatrix in="SourceAlpha" type="matrix" values="0 0 0 0 0 0 0 0 0 0 0 0 0 0 0 0 0 0 127 0" result="hardAlpha"/>
<feOffset dy="-1"/>
<feGaussianBlur stdDeviation="0.5"/>
<feComposite in2="hardAlpha" operator="arithmetic" k2="-1" k3="1"/>
<feColorMatrix type="matrix" values="0 0 0 0 0.0467203 0 0 0 0 0.0431046 0 0 0 0 0.0901095 0 0 0 0.307999 0"/>
<feBlend mode="normal" in2="shape" result="effect1_innerShadow_51_42"/>
<feColorMatrix in="SourceAlpha" type="matrix" values="0 0 0 0 0 0 0 0 0 0 0 0 0 0 0 0 0 0 127 0" result="hardAlpha"/>
<feOffset dy="2"/>
<feGaussianBlur stdDeviation="1"/>
<feComposite in2="hardAlpha" operator="arithmetic" k2="-1" k3="1"/>
<feColorMatrix type="matrix" values="0 0 0 0 1 0 0 0 0 1 0 0 0 0 1 0 0 0 0.11781 0"/>
<feBlend mode="normal" in2="effect1_innerShadow_51_42" result="effect2_innerShadow_51_42"/>
</filter>
<clipPath id="clip0_51_42">
<rect width="24" height="24" fill="white" transform="translate(206 12)"/>
</clipPath>
</defs>
</svg>
