<svg width="144" height="154" viewBox="0 0 144 154" fill="none" xmlns="http://www.w3.org/2000/svg">
<rect x="0.5" y="0.5" width="143" height="153" rx="7.5" fill="#0A0B0F"/>
<rect x="0.5" y="0.5" width="143" height="153" rx="7.5" stroke="url(#paint0_linear_44_182)"/>
<path d="M52.945 53.7301C53.6183 53.7301 54.2661 53.843 54.8882 54.0689C55.5146 54.2947 56.0729 54.6548 56.5629 55.1491C57.0573 55.6435 57.4472 56.2997 57.7327 57.1179C58.0225 57.9318 58.1695 58.9311 58.1737 60.1158C58.1737 61.228 58.048 62.2209 57.7966 63.0945C57.5494 63.9638 57.1936 64.7031 56.7291 65.3125C56.2646 65.9219 55.7043 66.3864 55.048 66.706C54.3918 67.0213 53.6588 67.179 52.8492 67.179C51.9756 67.179 51.2043 67.0107 50.5352 66.674C49.8662 66.3331 49.3271 65.8707 48.9181 65.2869C48.5132 64.6989 48.2682 64.0384 48.183 63.3054H50.9124C51.0189 63.7827 51.2426 64.1534 51.5835 64.4176C51.9244 64.6776 52.3463 64.8075 52.8492 64.8075C53.7014 64.8075 54.3492 64.4368 54.7923 63.6953C55.2355 62.9496 55.4593 61.929 55.4635 60.6335H55.374C55.178 61.017 54.9138 61.3473 54.5814 61.6243C54.249 61.897 53.8676 62.108 53.4372 62.2571C53.0111 62.4062 52.5573 62.4808 52.0757 62.4808C51.3044 62.4808 50.6162 62.2997 50.0111 61.9375C49.406 61.5753 48.9287 61.0767 48.5793 60.4418C48.2298 59.8068 48.0551 59.0824 48.0551 58.2685C48.0509 57.3906 48.2533 56.6087 48.6624 55.9226C49.0715 55.2365 49.6425 54.6996 50.3754 54.3118C51.1127 53.9197 51.9692 53.7259 52.945 53.7301ZM52.9642 55.9034C52.5338 55.9034 52.1503 56.0057 51.8137 56.2102C51.4813 56.4148 51.2171 56.6896 51.021 57.0348C50.8293 57.38 50.7355 57.7656 50.7398 58.1918C50.7398 58.6222 50.8335 59.0099 51.021 59.3551C51.2128 59.696 51.4727 59.9687 51.8009 60.1733C52.1333 60.3736 52.5125 60.4737 52.9387 60.4737C53.2583 60.4737 53.5544 60.4141 53.8271 60.2947C54.0999 60.1754 54.3364 60.0114 54.5367 59.8026C54.7412 59.5895 54.901 59.3445 55.0161 59.0675C55.1311 58.7905 55.1887 58.4964 55.1887 58.1854C55.1844 57.772 55.0864 57.3928 54.8946 57.0476C54.7029 56.7024 54.4387 56.4254 54.102 56.2166C53.7654 56.0078 53.3861 55.9034 52.9642 55.9034ZM64.8279 53.7301C65.5012 53.7301 66.1489 53.843 66.771 54.0689C67.3975 54.2947 67.9557 54.6548 68.4458 55.1491C68.9401 55.6435 69.33 56.2997 69.6155 57.1179C69.9053 57.9318 70.0523 58.9311 70.0566 60.1158C70.0566 61.228 69.9308 62.2209 69.6794 63.0945C69.4323 63.9638 69.0764 64.7031 68.612 65.3125C68.1475 65.9219 67.5871 66.3864 66.9308 66.706C66.2746 67.0213 65.5416 67.179 64.732 67.179C63.8584 67.179 63.0871 67.0107 62.4181 66.674C61.749 66.3331 61.21 65.8707 60.8009 65.2869C60.396 64.6989 60.151 64.0384 60.0658 63.3054H62.7952C62.9017 63.7827 63.1254 64.1534 63.4664 64.4176C63.8073 64.6776 64.2291 64.8075 64.732 64.8075C65.5843 64.8075 66.232 64.4368 66.6752 63.6953C67.1183 62.9496 67.3421 61.929 67.3463 60.6335H67.2568C67.0608 61.017 66.7966 61.3473 66.4642 61.6243C66.1318 61.897 65.7504 62.108 65.32 62.2571C64.8939 62.4062 64.4401 62.4808 63.9585 62.4808C63.1872 62.4808 62.499 62.2997 61.8939 61.9375C61.2888 61.5753 60.8115 61.0767 60.4621 60.4418C60.1127 59.8068 59.9379 59.0824 59.9379 58.2685C59.9337 57.3906 60.1361 56.6087 60.5452 55.9226C60.9543 55.2365 61.5253 54.6996 62.2583 54.3118C62.9955 53.9197 63.852 53.7259 64.8279 53.7301ZM64.847 55.9034C64.4166 55.9034 64.0331 56.0057 63.6965 56.2102C63.3641 56.4148 63.0999 56.6896 62.9039 57.0348C62.7121 57.38 62.6183 57.7656 62.6226 58.1918C62.6226 58.6222 62.7164 59.0099 62.9039 59.3551C63.0956 59.696 63.3556 59.9687 63.6837 60.1733C64.0161 60.3736 64.3953 60.4737 64.8215 60.4737C65.1411 60.4737 65.4372 60.4141 65.71 60.2947C65.9827 60.1754 66.2192 60.0114 66.4195 59.8026C66.624 59.5895 66.7838 59.3445 66.8989 59.0675C67.0139 58.7905 67.0715 58.4964 67.0715 58.1854C67.0672 57.772 66.9692 57.3928 66.7774 57.0476C66.5857 56.7024 66.3215 56.4254 65.9848 56.2166C65.6482 56.0078 65.2689 55.9034 64.847 55.9034ZM73.064 67.1662C72.6421 67.1662 72.2799 67.017 71.9774 66.7188C71.6791 66.4162 71.5299 66.054 71.5299 65.6321C71.5299 65.2145 71.6791 64.8565 71.9774 64.5582C72.2799 64.2599 72.6421 64.1108 73.064 64.1108C73.4731 64.1108 73.8311 64.2599 74.1379 64.5582C74.4447 64.8565 74.5981 65.2145 74.5981 65.6321C74.5981 65.9134 74.5257 66.1712 74.3808 66.4055C74.2401 66.6357 74.0548 66.821 73.8247 66.9616C73.5945 67.098 73.341 67.1662 73.064 67.1662ZM81.2986 53.7301C81.9719 53.7301 82.6196 53.843 83.2417 54.0689C83.8682 54.2947 84.4264 54.6548 84.9165 55.1491C85.4108 55.6435 85.8007 56.2997 86.0862 57.1179C86.376 57.9318 86.523 58.9311 86.5273 60.1158C86.5273 61.228 86.4015 62.2209 86.1501 63.0945C85.903 63.9638 85.5471 64.7031 85.0827 65.3125C84.6182 65.9219 84.0578 66.3864 83.4015 66.706C82.7453 67.0213 82.0123 67.179 81.2027 67.179C80.3291 67.179 79.5578 67.0107 78.8888 66.674C78.2197 66.3331 77.6807 65.8707 77.2716 65.2869C76.8667 64.6989 76.6217 64.0384 76.5365 63.3054H79.2659C79.3724 63.7827 79.5961 64.1534 79.9371 64.4176C80.278 64.6776 80.6998 64.8075 81.2027 64.8075C82.055 64.8075 82.7027 64.4368 83.1459 63.6953C83.589 62.9496 83.8128 61.929 83.817 60.6335H83.7275C83.5315 61.017 83.2673 61.3473 82.9349 61.6243C82.6025 61.897 82.2211 62.108 81.7907 62.2571C81.3646 62.4062 80.9108 62.4808 80.4292 62.4808C79.6579 62.4808 78.9697 62.2997 78.3646 61.9375C77.7595 61.5753 77.2822 61.0767 76.9328 60.4418C76.5834 59.8068 76.4086 59.0824 76.4086 58.2685C76.4044 57.3906 76.6068 56.6087 77.0159 55.9226C77.425 55.2365 77.996 54.6996 78.729 54.3118C79.4662 53.9197 80.3227 53.7259 81.2986 53.7301ZM81.3177 55.9034C80.8873 55.9034 80.5038 56.0057 80.1672 56.2102C79.8348 56.4148 79.5706 56.6896 79.3746 57.0348C79.1828 57.38 79.089 57.7656 79.0933 58.1918C79.0933 58.6222 79.1871 59.0099 79.3746 59.3551C79.5663 59.696 79.8263 59.9687 80.1544 60.1733C80.4868 60.3736 80.866 60.4737 81.2922 60.4737C81.6118 60.4737 81.9079 60.4141 82.1807 60.2947C82.4534 60.1754 82.6899 60.0114 82.8902 59.8026C83.0947 59.5895 83.2545 59.3445 83.3696 59.0675C83.4846 58.7905 83.5422 58.4964 83.5422 58.1854C83.5379 57.772 83.4399 57.3928 83.2481 57.0476C83.0564 56.7024 82.7922 56.4254 82.4555 56.2166C82.1189 56.0078 81.7396 55.9034 81.3177 55.9034ZM95.6104 64.5455V63.8551C95.6104 63.331 95.7211 62.8494 95.9427 62.4105C96.1686 61.9673 96.4946 61.6136 96.9207 61.3494C97.3511 61.081 97.8753 60.9467 98.4932 60.9467C99.1196 60.9467 99.6459 61.0788 100.072 61.343C100.502 61.6072 100.826 61.9609 101.044 62.4041C101.265 62.843 101.376 63.3267 101.376 63.8551V64.5455C101.376 65.0696 101.265 65.5533 101.044 65.9964C100.822 66.4354 100.496 66.7869 100.066 67.0511C99.6352 67.3196 99.1111 67.4538 98.4932 67.4538C97.8667 67.4538 97.3405 67.3196 96.9143 67.0511C96.4882 66.7869 96.1643 66.4354 95.9427 65.9964C95.7211 65.5533 95.6104 65.0696 95.6104 64.5455ZM97.4704 63.8551V64.5455C97.4704 64.848 97.5429 65.1335 97.6878 65.402C97.8369 65.6705 98.1054 65.8047 98.4932 65.8047C98.8809 65.8047 99.1452 65.6726 99.2858 65.4084C99.4307 65.1442 99.5031 64.8565 99.5031 64.5455V63.8551C99.5031 63.544 99.4349 63.2543 99.2986 62.9858C99.1622 62.7173 98.8937 62.5831 98.4932 62.5831C98.1096 62.5831 97.8433 62.7173 97.6942 62.9858C97.545 63.2543 97.4704 63.544 97.4704 63.8551ZM88.8923 57.054V56.3636C88.8923 55.8352 89.0052 55.3516 89.2311 54.9126C89.4569 54.4695 89.7829 54.1158 90.2091 53.8516C90.6395 53.5874 91.1594 53.4553 91.7687 53.4553C92.3994 53.4553 92.9278 53.5874 93.354 53.8516C93.7801 54.1158 94.104 54.4695 94.3256 54.9126C94.5471 55.3516 94.6579 55.8352 94.6579 56.3636V57.054C94.6579 57.5824 94.545 58.0661 94.3192 58.505C94.0976 58.9439 93.7716 59.2955 93.3412 59.5597C92.915 59.8196 92.3909 59.9496 91.7687 59.9496C91.1466 59.9496 90.6203 59.8175 90.1899 59.5533C89.7638 59.2848 89.4399 58.9332 89.2183 58.4986C89.001 58.0597 88.8923 57.5781 88.8923 57.054ZM90.7652 56.3636V57.054C90.7652 57.3651 90.8376 57.6527 90.9825 57.9169C91.1317 58.1811 91.3937 58.3132 91.7687 58.3132C92.1608 58.3132 92.4271 58.1811 92.5677 57.9169C92.7126 57.6527 92.7851 57.3651 92.7851 57.054V56.3636C92.7851 56.0526 92.7169 55.7628 92.5805 55.4943C92.4442 55.2259 92.1736 55.0916 91.7687 55.0916C91.3895 55.0916 91.1274 55.228 90.9825 55.5007C90.8376 55.7734 90.7652 56.0611 90.7652 56.3636ZM89.7361 67L98.7361 53.9091H100.411L91.4108 67H89.7361Z" fill="white"/>
<path d="M117 61C117 85.8528 96.8528 106 72 106C47.1472 106 27 85.8528 27 61C27 36.1472 47.1472 16 72 16C96.8528 16 117 36.1472 117 61ZM33.8655 61C33.8655 82.0611 50.9389 99.1345 72 99.1345C93.0611 99.1345 110.134 82.0611 110.134 61C110.134 39.9389 93.0611 22.8655 72 22.8655C50.9389 22.8655 33.8655 39.9389 33.8655 61Z" fill="#1E202A"/>
<g filter="url(#filter0_i_44_182)">
<path d="M72 19.4328C72 17.5369 73.5393 15.9864 75.4297 16.1308C85.5205 16.9018 95.0955 21.0579 102.571 27.9784C110.889 35.679 115.994 46.2351 116.867 57.5366C117.739 68.8382 114.314 80.0528 107.276 88.9387C100.239 97.8246 90.1071 103.727 78.9062 105.467C67.7052 107.207 56.2604 104.655 46.8592 98.3221C37.458 91.9893 30.793 82.3418 28.1965 71.308C25.6 60.2742 27.2632 48.6669 32.8537 38.8062C37.8778 29.9444 45.7413 23.0799 55.1229 19.2847C56.8804 18.5737 58.8175 19.5843 59.3925 21.3908C59.9675 23.1974 58.9612 25.1137 57.2136 25.8488C49.4771 29.1029 42.997 34.8354 38.8261 42.1922C34.0886 50.5485 32.6791 60.3849 34.8795 69.7353C37.0799 79.0858 42.7279 87.2614 50.6948 92.628C58.6617 97.9946 68.3605 100.157 77.8525 98.6827C87.3445 97.2085 95.9306 92.2064 101.894 84.6762C107.858 77.1459 110.761 67.6424 110.021 58.065C109.282 48.4877 104.956 39.5421 97.9067 33.0164C91.7009 27.2712 83.7875 23.7742 75.4283 23.0198C73.5401 22.8495 72 21.3286 72 19.4328Z" fill="#6F56DA"/>
</g>
<path d="M30.6494 125.493C30.5964 125.022 30.3776 124.658 29.9932 124.399C29.6087 124.137 29.1248 124.006 28.5415 124.006C28.1238 124.006 27.7626 124.073 27.4577 124.205C27.1527 124.335 26.9157 124.513 26.7467 124.742C26.581 124.968 26.4981 125.224 26.4981 125.513C26.4981 125.755 26.5545 125.964 26.6672 126.139C26.7832 126.315 26.934 126.462 27.1196 126.582C27.3085 126.698 27.5107 126.795 27.7261 126.875C27.9416 126.951 28.1487 127.014 28.3476 127.064L29.3419 127.322C29.6667 127.402 29.9998 127.51 30.3412 127.646C30.6826 127.781 30.9991 127.96 31.2907 128.183C31.5824 128.405 31.8177 128.68 31.9967 129.008C32.179 129.336 32.2702 129.729 32.2702 130.186C32.2702 130.763 32.121 131.275 31.8227 131.722C31.5277 132.17 31.0985 132.523 30.5351 132.781C29.9749 133.04 29.2971 133.169 28.5017 133.169C27.7394 133.169 27.0798 133.048 26.523 132.806C25.9662 132.564 25.5303 132.221 25.2155 131.777C24.9006 131.33 24.7266 130.799 24.6934 130.186H26.2346C26.2645 130.554 26.3838 130.861 26.5926 131.106C26.8047 131.348 27.0748 131.528 27.403 131.648C27.7344 131.764 28.0973 131.822 28.4917 131.822C28.9259 131.822 29.3121 131.754 29.6501 131.618C29.9915 131.479 30.26 131.286 30.4555 131.041C30.6511 130.793 30.7488 130.503 30.7488 130.171C30.7488 129.87 30.6627 129.623 30.4903 129.43C30.3213 129.238 30.0909 129.079 29.7993 128.953C29.5109 128.827 29.1845 128.716 28.8199 128.62L27.6167 128.292C26.8014 128.07 26.1551 127.743 25.6778 127.312C25.2039 126.882 24.9669 126.312 24.9669 125.602C24.9669 125.016 25.126 124.504 25.4442 124.066C25.7623 123.629 26.1932 123.289 26.7368 123.047C27.2803 122.802 27.8935 122.679 28.5763 122.679C29.2657 122.679 29.8738 122.8 30.4008 123.042C30.9311 123.284 31.3488 123.617 31.6537 124.041C31.9586 124.462 32.1177 124.946 32.1309 125.493H30.6494ZM37.2778 133.154C36.5254 133.154 35.8775 132.993 35.3339 132.672C34.7936 132.347 34.376 131.891 34.0811 131.305C33.7894 130.715 33.6436 130.024 33.6436 129.232C33.6436 128.449 33.7894 127.76 34.0811 127.163C34.376 126.567 34.787 126.101 35.314 125.766C35.8443 125.432 36.4641 125.264 37.1734 125.264C37.6043 125.264 38.0219 125.335 38.4262 125.478C38.8306 125.621 39.1935 125.844 39.515 126.149C39.8365 126.454 40.0901 126.85 40.2757 127.337C40.4613 127.821 40.5541 128.41 40.5541 129.102V129.629H34.4838V128.516H39.0974C39.0974 128.125 39.0178 127.778 38.8588 127.477C38.6997 127.172 38.4759 126.931 38.1876 126.756C37.9026 126.58 37.5678 126.492 37.1833 126.492C36.7657 126.492 36.4011 126.595 36.0896 126.8C35.7813 127.003 35.5427 127.268 35.3737 127.596C35.2079 127.921 35.1251 128.274 35.1251 128.655V129.525C35.1251 130.035 35.2146 130.469 35.3936 130.827C35.5758 131.185 35.8294 131.459 36.1542 131.648C36.479 131.833 36.8585 131.926 37.2927 131.926C37.5744 131.926 37.8313 131.886 38.0633 131.807C38.2953 131.724 38.4958 131.601 38.6649 131.439C38.8339 131.277 38.9632 131.076 39.0526 130.837L40.4596 131.091C40.3469 131.505 40.1447 131.868 39.8531 132.18C39.5647 132.488 39.2018 132.728 38.7643 132.901C38.3301 133.07 37.8346 133.154 37.2778 133.154ZM42.2034 133V125.364H43.6402V126.577H43.7197C43.8589 126.166 44.1042 125.843 44.4555 125.607C44.8102 125.369 45.2112 125.249 45.6586 125.249C45.7515 125.249 45.8608 125.253 45.9868 125.259C46.116 125.266 46.2171 125.274 46.29 125.284V126.706C46.2304 126.689 46.1243 126.671 45.9719 126.651C45.8194 126.628 45.6669 126.616 45.5145 126.616C45.1631 126.616 44.8499 126.691 44.5748 126.84C44.3031 126.986 44.0876 127.19 43.9285 127.452C43.7694 127.71 43.6899 128.005 43.6899 128.337V133H42.2034ZM54.3415 125.364L51.5724 133H49.9814L47.2073 125.364H48.8032L50.7371 131.24H50.8167L52.7456 125.364H54.3415ZM58.77 133.154C58.0176 133.154 57.3696 132.993 56.8261 132.672C56.2858 132.347 55.8682 131.891 55.5732 131.305C55.2816 130.715 55.1357 130.024 55.1357 129.232C55.1357 128.449 55.2816 127.76 55.5732 127.163C55.8682 126.567 56.2792 126.101 56.8062 125.766C57.3365 125.432 57.9563 125.264 58.6656 125.264C59.0964 125.264 59.5141 125.335 59.9184 125.478C60.3228 125.621 60.6857 125.844 61.0072 126.149C61.3287 126.454 61.5822 126.85 61.7678 127.337C61.9535 127.821 62.0463 128.41 62.0463 129.102V129.629H55.9759V128.516H60.5896C60.5896 128.125 60.51 127.778 60.3509 127.477C60.1919 127.172 59.9681 126.931 59.6798 126.756C59.3947 126.58 59.06 126.492 58.6755 126.492C58.2579 126.492 57.8933 126.595 57.5818 126.8C57.2735 127.003 57.0349 127.268 56.8659 127.596C56.7001 127.921 56.6173 128.274 56.6173 128.655V129.525C56.6173 130.035 56.7068 130.469 56.8857 130.827C57.068 131.185 57.3216 131.459 57.6464 131.648C57.9712 131.833 58.3507 131.926 58.7849 131.926C59.0666 131.926 59.3235 131.886 59.5555 131.807C59.7875 131.724 59.988 131.601 60.157 131.439C60.3261 131.277 60.4553 131.076 60.5448 130.837L61.9518 131.091C61.8391 131.505 61.6369 131.868 61.3453 132.18C61.0569 132.488 60.694 132.728 60.2565 132.901C59.8223 133.07 59.3268 133.154 58.77 133.154ZM63.6956 133V125.364H65.1324V126.577H65.2119C65.3511 126.166 65.5964 125.843 65.9477 125.607C66.3023 125.369 66.7034 125.249 67.1508 125.249C67.2436 125.249 67.353 125.253 67.479 125.259C67.6082 125.266 67.7093 125.274 67.7822 125.284V126.706C67.7226 126.689 67.6165 126.671 67.464 126.651C67.3116 126.628 67.1591 126.616 67.0067 126.616C66.6553 126.616 66.3421 126.691 66.067 126.84C65.7952 126.986 65.5798 127.19 65.4207 127.452C65.2616 127.71 65.1821 128.005 65.1821 128.337V133H63.6956ZM79.4406 122.818H80.9818V129.515C80.9818 130.228 80.8144 130.859 80.4797 131.409C80.1449 131.956 79.6743 132.387 79.0677 132.702C78.4612 133.013 77.7503 133.169 76.9349 133.169C76.1229 133.169 75.4136 133.013 74.8071 132.702C74.2006 132.387 73.7299 131.956 73.3952 131.409C73.0604 130.859 72.893 130.228 72.893 129.515V122.818H74.4292V129.391C74.4292 129.851 74.5303 130.261 74.7325 130.619C74.938 130.977 75.228 131.258 75.6025 131.464C75.9771 131.666 76.4212 131.767 76.9349 131.767C77.452 131.767 77.8978 131.666 78.2723 131.464C78.6501 131.258 78.9385 130.977 79.1373 130.619C79.3395 130.261 79.4406 129.851 79.4406 129.391V122.818ZM83.096 135.864V125.364H84.5477V126.602H84.672C84.7581 126.442 84.8824 126.259 85.0448 126.05C85.2072 125.841 85.4326 125.659 85.721 125.503C86.0093 125.344 86.3905 125.264 86.8644 125.264C87.4809 125.264 88.0311 125.42 88.515 125.732C88.9989 126.043 89.3784 126.492 89.6535 127.079C89.9319 127.665 90.0711 128.371 90.0711 129.197C90.0711 130.022 89.9336 130.73 89.6585 131.32C89.3834 131.906 89.0055 132.359 88.5249 132.677C88.0444 132.992 87.4958 133.149 86.8794 133.149C86.4153 133.149 86.0358 133.071 85.7409 132.915C85.4492 132.76 85.2205 132.577 85.0548 132.369C84.8891 132.16 84.7615 131.974 84.672 131.812H84.5825V135.864H83.096ZM84.5526 129.182C84.5526 129.719 84.6305 130.189 84.7863 130.594C84.9421 130.998 85.1675 131.315 85.4624 131.543C85.7574 131.769 86.1187 131.881 86.5463 131.881C86.9904 131.881 87.3616 131.764 87.6599 131.528C87.9582 131.29 88.1836 130.967 88.336 130.559C88.4918 130.151 88.5697 129.692 88.5697 129.182C88.5697 128.678 88.4935 128.226 88.341 127.825C88.1919 127.424 87.9665 127.107 87.6649 126.875C87.3666 126.643 86.9937 126.527 86.5463 126.527C86.1154 126.527 85.7508 126.638 85.4525 126.86C85.1575 127.082 84.9338 127.392 84.7813 127.79C84.6289 128.187 84.5526 128.652 84.5526 129.182ZM95.3012 125.364V126.557H91.1301V125.364H95.3012ZM92.2487 123.534H93.7352V130.758C93.7352 131.046 93.7783 131.263 93.8644 131.409C93.9506 131.552 94.0616 131.649 94.1975 131.702C94.3367 131.752 94.4875 131.777 94.6499 131.777C94.7693 131.777 94.8737 131.769 94.9632 131.752C95.0526 131.736 95.1222 131.722 95.172 131.712L95.4404 132.94C95.3543 132.973 95.2316 133.007 95.0725 133.04C94.9134 133.076 94.7146 133.096 94.4759 133.099C94.0848 133.106 93.7203 133.036 93.3822 132.891C93.0441 132.745 92.7707 132.519 92.5619 132.214C92.3531 131.91 92.2487 131.527 92.2487 131.066V123.534ZM96.9456 133V125.364H98.4321V133H96.9456ZM97.6963 124.185C97.4378 124.185 97.2157 124.099 97.0301 123.927C96.8478 123.751 96.7567 123.542 96.7567 123.3C96.7567 123.055 96.8478 122.846 97.0301 122.674C97.2157 122.498 97.4378 122.411 97.6963 122.411C97.9548 122.411 98.1752 122.498 98.3575 122.674C98.5431 122.846 98.6359 123.055 98.6359 123.3C98.6359 123.542 98.5431 123.751 98.3575 123.927C98.1752 124.099 97.9548 124.185 97.6963 124.185ZM100.432 133V125.364H101.859V126.607H101.953C102.112 126.186 102.372 125.857 102.734 125.622C103.095 125.384 103.528 125.264 104.031 125.264C104.542 125.264 104.969 125.384 105.314 125.622C105.662 125.861 105.919 126.189 106.085 126.607H106.164C106.346 126.199 106.636 125.874 107.034 125.632C107.432 125.387 107.906 125.264 108.456 125.264C109.149 125.264 109.714 125.481 110.151 125.915C110.592 126.35 110.813 127.004 110.813 127.879V133H109.326V128.018C109.326 127.501 109.185 127.127 108.903 126.895C108.622 126.663 108.285 126.547 107.894 126.547C107.41 126.547 107.034 126.696 106.766 126.994C106.497 127.289 106.363 127.669 106.363 128.133V133H104.881V127.924C104.881 127.51 104.752 127.177 104.494 126.925C104.235 126.673 103.899 126.547 103.484 126.547C103.203 126.547 102.943 126.621 102.704 126.771C102.469 126.916 102.278 127.12 102.132 127.382C101.99 127.644 101.918 127.947 101.918 128.292V133H100.432ZM116.096 133.154C115.344 133.154 114.696 132.993 114.152 132.672C113.612 132.347 113.194 131.891 112.899 131.305C112.608 130.715 112.462 130.024 112.462 129.232C112.462 128.449 112.608 127.76 112.899 127.163C113.194 126.567 113.605 126.101 114.132 125.766C114.663 125.432 115.282 125.264 115.992 125.264C116.423 125.264 116.84 125.335 117.245 125.478C117.649 125.621 118.012 125.844 118.333 126.149C118.655 126.454 118.908 126.85 119.094 127.337C119.28 127.821 119.372 128.41 119.372 129.102V129.629H113.302V128.516H117.916C117.916 128.125 117.836 127.778 117.677 127.477C117.518 127.172 117.294 126.931 117.006 126.756C116.721 126.58 116.386 126.492 116.002 126.492C115.584 126.492 115.219 126.595 114.908 126.8C114.6 127.003 114.361 127.268 114.192 127.596C114.026 127.921 113.943 128.274 113.943 128.655V129.525C113.943 130.035 114.033 130.469 114.212 130.827C114.394 131.185 114.648 131.459 114.973 131.648C115.297 131.833 115.677 131.926 116.111 131.926C116.393 131.926 116.65 131.886 116.882 131.807C117.114 131.724 117.314 131.601 117.483 131.439C117.652 131.277 117.782 131.076 117.871 130.837L119.278 131.091C119.165 131.505 118.963 131.868 118.671 132.18C118.383 132.488 118.02 132.728 117.583 132.901C117.148 133.07 116.653 133.154 116.096 133.154Z" fill="white"/>
<defs>
<filter id="filter0_i_44_182" x="27" y="16.1215" width="90" height="90.8787" filterUnits="userSpaceOnUse" color-interpolation-filters="sRGB">
<feFlood flood-opacity="0" result="BackgroundImageFix"/>
<feBlend mode="normal" in="SourceGraphic" in2="BackgroundImageFix" result="shape"/>
<feColorMatrix in="SourceAlpha" type="matrix" values="0 0 0 0 0 0 0 0 0 0 0 0 0 0 0 0 0 0 127 0" result="hardAlpha"/>
<feOffset dy="1"/>
<feGaussianBlur stdDeviation="0.5"/>
<feComposite in2="hardAlpha" operator="arithmetic" k2="-1" k3="1"/>
<feColorMatrix type="matrix" values="0 0 0 0 0.804104 0 0 0 0 0.758333 0 0 0 0 1 0 0 0 1 0"/>
<feBlend mode="normal" in2="shape" result="effect1_innerShadow_44_182"/>
</filter>
<linearGradient id="paint0_linear_44_182" x1="130.5" y1="80" x2="72" y2="154" gradientUnits="userSpaceOnUse">
<stop stop-color="#1E212B"/>
<stop offset="1"/>
</linearGradient>
</defs>
</svg>
