<svg width="85" height="127" viewBox="0 0 85 127" fill="none" xmlns="http://www.w3.org/2000/svg">
<path d="M83.5215 102.648C83.5215 108.669 79.5631 114.675 71.6175 119.266C55.7551 128.433 30.0289 128.433 14.1657 119.266C6.23497 114.675 2.26172 108.669 2.26172 102.648C2.26172 96.6419 6.23497 90.6346 14.1657 86.0443C30.0289 76.8773 55.7551 76.8773 71.6175 86.0443C79.5626 90.6346 83.5215 96.6415 83.5215 102.648Z" fill="#E0E6F9"/>
<path d="M83.5215 25.8372C83.5215 31.8573 79.5631 37.8642 71.6175 42.4545C55.7551 51.6215 30.0289 51.6215 14.1657 42.4545C6.23497 37.8642 2.26172 31.8573 2.26172 25.8372C2.26172 19.8307 6.23497 13.8233 14.1657 9.23304C30.0289 0.0665245 55.7551 0.0665245 71.6175 9.23304C79.5626 13.8233 83.5215 19.8303 83.5215 25.8372Z" fill="white" stroke="#263994" stroke-width="2.9735" stroke-miterlimit="10" stroke-linecap="round" stroke-linejoin="round"/>
<path d="M83.5215 25.8372C83.5215 31.8573 79.5631 37.8642 71.6175 42.4545C55.7551 51.6215 30.0289 51.6215 14.1657 42.4545C6.23497 37.8642 2.26172 31.8573 2.26172 25.8372C2.26172 19.8307 6.23497 13.8233 14.1657 9.23304C30.0289 0.0665245 55.7551 0.0665245 71.6175 9.23304C79.5626 13.8233 83.5215 19.8303 83.5215 25.8372Z" stroke="#263994" stroke-width="2.9735" stroke-miterlimit="10" stroke-linecap="round" stroke-linejoin="round"/>
<path d="M83.5215 25.8372V90.0885C83.5355 96.1086 79.5631 102.116 71.6175 106.706C55.7552 115.873 30.0289 115.873 14.1657 106.706C6.22097 102.116 2.24862 96.1086 2.26175 90.0885V25.8372C2.26175 31.8573 6.235 37.8642 14.1657 42.4545C30.0289 51.6215 55.7552 51.6215 71.6175 42.4545C79.5627 37.8638 83.5215 31.8573 83.5215 25.8372Z" fill="#E0E7F7" stroke="#263994" stroke-width="2.9735" stroke-miterlimit="10" stroke-linecap="round" stroke-linejoin="round"/>
<path d="M72.1103 22.1682C72.1103 26.4979 69.2632 30.8177 63.549 34.1191C52.1412 40.7116 33.6395 40.7116 22.2312 34.1191C16.5275 30.8177 13.6699 26.4979 13.6699 22.1682C13.6699 17.8485 16.5275 13.5283 22.2312 10.2269C33.6395 3.63442 52.1412 3.63442 63.549 10.2269C69.2632 13.5283 72.1103 17.8485 72.1103 22.1682Z" stroke="#263994" stroke-width="2.9735" stroke-miterlimit="10" stroke-linecap="round" stroke-linejoin="round"/>
<path d="M63.5495 34.1191C52.1412 40.7111 33.6395 40.7111 22.2312 34.1191C16.5275 30.8177 13.6699 26.4979 13.6699 22.1682V25.8385C13.6699 30.1682 16.5275 34.488 22.2312 37.7895C33.6395 44.3819 52.1412 44.3819 63.5495 37.7895C69.2636 34.488 72.1103 30.1682 72.1103 25.8385V22.17C72.1094 26.4993 69.2623 30.8181 63.5495 34.1191Z" stroke="#263994" stroke-width="2.9735" stroke-miterlimit="10" stroke-linecap="round" stroke-linejoin="round"/>
<path d="M54.0625 13.4648C52.8168 14.185 50.7971 14.185 49.5514 13.4648C48.3058 12.7447 48.3058 11.5773 49.5514 10.8572C50.7971 10.1371 52.8168 10.1371 54.0629 10.8572C55.3081 11.5769 55.3081 12.7447 54.0625 13.4648Z" fill="#80C1FF"/>
<path d="M54.0625 13.4648C52.8168 14.185 50.7971 14.185 49.5514 13.4648C48.3058 12.7447 48.3058 11.5773 49.5514 10.8572C50.7971 10.1371 52.8168 10.1371 54.0629 10.8572C55.3081 11.5769 55.3081 12.7447 54.0625 13.4648Z" stroke="#263994" stroke-width="2.9735" stroke-miterlimit="10" stroke-linecap="round" stroke-linejoin="round"/>
<path d="M61.8847 17.5952C60.6391 18.3153 58.6194 18.3153 57.3737 17.5952C56.128 16.875 56.128 15.7076 57.3737 14.9875C58.6194 14.2674 60.6391 14.2674 61.8847 14.9875C63.1304 15.7072 63.1304 16.875 61.8847 17.5952Z" fill="#FFC400"/>
<path d="M61.8847 17.5952C60.6391 18.3153 58.6194 18.3153 57.3737 17.5952C56.128 16.875 56.128 15.7076 57.3737 14.9875C58.6194 14.2674 60.6391 14.2674 61.8847 14.9875C63.1304 15.7072 63.1304 16.875 61.8847 17.5952Z" fill="#80C1FF" stroke="#263994" stroke-width="2.9735" stroke-miterlimit="10" stroke-linecap="round" stroke-linejoin="round"/>
<path d="M39.4996 53.257V66.6735C30.2481 66.2239 21.2284 63.963 14.1682 59.8766C11.5017 58.3236 9.28418 56.6346 7.5293 54.8232V41.4067C9.28418 43.2186 11.5017 44.9212 14.1682 46.4602C21.2284 50.5329 30.2481 52.8079 39.4996 53.257Z" fill="#80C1FF"/>
<path d="M39.4996 53.257V66.6735C30.2481 66.2239 21.2284 63.963 14.1682 59.8766C11.5017 58.3236 9.28418 56.6346 7.5293 54.8232V41.4067C9.28418 43.2186 11.5017 44.9212 14.1682 46.4602C21.2284 50.5329 30.2481 52.8079 39.4996 53.257Z" stroke="#263994" stroke-width="2.9735" stroke-miterlimit="10" stroke-linecap="round" stroke-linejoin="round"/>
<path d="M42.8909 71.3335C32.3647 71.3344 21.8422 69.0192 13.8282 64.3881C5.93464 59.8196 1.58789 53.7111 1.58789 47.1875C1.58789 46.8155 1.88892 46.5137 2.26099 46.5137C2.63306 46.5137 2.93404 46.8155 2.93404 47.1875C2.93404 53.2099 7.04227 58.9036 14.5018 63.2216C30.1563 72.268 55.6268 72.268 71.28 63.2216C78.7395 58.9118 82.8476 53.2176 82.8476 47.1875C82.8476 46.8155 83.1491 46.5137 83.5207 46.5137C83.8923 46.5137 84.1937 46.8155 84.1937 47.1875C84.1937 53.7192 79.8466 59.8282 71.953 64.3881C63.9413 69.0183 53.4143 71.3331 42.8909 71.3335Z" fill="#263994"/>
<path d="M50.9397 63.2066C50.6025 63.2066 50.3114 62.9537 50.2721 62.6098C50.2295 62.2404 50.4948 61.906 50.8637 61.8638C58.6057 60.9729 65.6668 58.789 71.2831 55.5474C74.1556 53.8874 76.5547 52.0071 78.4132 49.9579C78.6631 49.6823 79.0885 49.6624 79.3637 49.9121C79.6389 50.1618 79.6593 50.5887 79.4094 50.8638C77.4567 53.0164 74.9491 54.985 71.9553 56.7143C66.1806 60.047 58.9401 62.2903 51.0171 63.2025C50.9913 63.2057 50.9655 63.2066 50.9397 63.2066Z" fill="#263994"/>
<path d="M50.9397 57.922C50.6025 57.922 50.3114 57.6692 50.2721 57.3252C50.2295 56.9558 50.4948 56.6214 50.8637 56.5792C58.6057 55.6883 65.6668 53.5044 71.2831 50.2628C74.1556 48.6028 76.5551 46.7221 78.4132 44.6728C78.6631 44.3977 79.0885 44.3773 79.3637 44.627C79.6389 44.8767 79.6593 45.3032 79.4094 45.5787C77.4572 47.7314 74.9496 49.7 71.9553 51.4298C66.1806 54.7625 58.9401 57.0057 51.0171 57.9179C50.9913 57.9207 50.9655 57.922 50.9397 57.922Z" fill="#263994"/>
<path d="M42.8909 92.6825C32.3647 92.6834 21.8422 90.3681 13.8282 85.7375C5.93464 81.169 1.58789 75.0605 1.58789 68.537C1.58789 68.1649 1.88892 67.8631 2.26099 67.8631C2.63306 67.8631 2.93404 68.1649 2.93404 68.537C2.93404 74.5593 7.04227 80.2531 14.5018 84.571C22.3279 89.0933 32.611 91.3547 42.8909 91.3552C53.1735 91.3561 63.4525 89.0942 71.28 84.571C78.7395 80.2612 82.8476 74.567 82.8476 68.537C82.8476 68.1649 83.1491 67.8631 83.5207 67.8631C83.8923 67.8631 84.1937 68.1649 84.1937 68.537C84.1937 75.0687 79.8466 81.1776 71.953 85.7375C63.9413 90.3672 53.4143 92.6821 42.8909 92.6825Z" fill="#263994"/>
<path d="M39.4996 74.5325V87.9491C30.2481 87.4995 21.2284 85.2386 14.1682 81.1522C11.5017 79.5991 9.28418 77.9101 7.5293 76.0988V62.6823C9.28418 64.4941 11.5017 66.1967 14.1682 67.7357C21.2284 71.8085 30.2481 74.0834 39.4996 74.5325Z" fill="#80C1FF"/>
<path d="M39.4996 74.5325V87.9491C30.2481 87.4995 21.2284 85.2386 14.1682 81.1522C11.5017 79.5992 9.28418 77.9101 7.5293 76.0988V62.6823C9.28418 64.4941 11.5017 66.1967 14.1682 67.7357C21.2284 71.8085 30.2481 74.0834 39.4996 74.5325Z" stroke="#263994" stroke-width="2.9735" stroke-miterlimit="10" stroke-linecap="round" stroke-linejoin="round"/>
<path d="M50.9397 84.4821C50.6025 84.4821 50.3114 84.2293 50.2721 83.8853C50.2295 83.5159 50.4948 83.1815 50.8637 83.1394C58.6057 82.2489 65.6663 80.065 71.2831 76.8233C74.1556 75.1633 76.5551 73.2826 78.4132 71.2334C78.6631 70.9583 79.0885 70.9379 79.3637 71.1876C79.6389 71.4377 79.6593 71.8637 79.4094 72.1393C77.4572 74.2919 74.9496 76.2605 71.9553 77.9903C66.1801 81.323 58.9397 83.5662 51.0171 84.478C50.9913 84.4808 50.9655 84.4821 50.9397 84.4821Z" fill="#263994"/>
<path d="M50.9397 79.1972C50.6025 79.1972 50.3114 78.9443 50.2721 78.6003C50.2295 78.231 50.4948 77.8965 50.8637 77.8544C58.6057 76.9639 65.6663 74.78 71.2831 71.5384C74.1556 69.8784 76.5551 67.9977 78.4132 65.9484C78.6631 65.6733 79.0885 65.6524 79.3637 65.9026C79.6389 66.1527 79.6593 66.5787 79.4094 66.8542C77.4572 69.0069 74.9496 70.9755 71.9553 72.7053C66.1801 76.038 58.9397 78.2813 51.0171 79.1931C50.9913 79.1962 50.9655 79.1972 50.9397 79.1972Z" fill="#263994"/>
<path d="M39.4996 95.8086V109.225C30.2481 108.776 21.2284 106.515 14.1682 102.428C11.5017 100.875 9.28418 99.1861 7.5293 97.3748V83.9583C9.28418 85.7701 11.5017 87.4727 14.1682 89.0118C21.2284 93.0845 30.2481 95.359 39.4996 95.8086Z" fill="#80C1FF"/>
<path d="M39.4996 95.8086V109.225C30.2481 108.776 21.2284 106.515 14.1682 102.428C11.5017 100.875 9.28418 99.1861 7.5293 97.3748V83.9583C9.28418 85.7701 11.5017 87.4727 14.1682 89.0118C21.2284 93.0845 30.2481 95.359 39.4996 95.8086Z" stroke="#263994" stroke-width="2.9735" stroke-miterlimit="10" stroke-linecap="round" stroke-linejoin="round"/>
<path d="M50.9397 105.758C50.6025 105.758 50.3114 105.505 50.2721 105.161C50.2295 104.792 50.4948 104.458 50.8637 104.415C58.6057 103.525 65.6663 101.341 71.2831 98.0994C74.1565 96.4385 76.5556 94.5578 78.4132 92.5094C78.6631 92.2343 79.0885 92.2135 79.3637 92.4636C79.6389 92.7138 79.6593 93.1398 79.4094 93.4153C77.4581 95.567 74.9505 97.5356 71.9553 99.2663C66.1801 102.599 58.9397 104.842 51.0171 105.754C50.9913 105.757 50.9655 105.758 50.9397 105.758Z" fill="#263994"/>
<path d="M50.9397 100.473C50.6025 100.473 50.3114 100.22 50.2721 99.8763C50.2295 99.507 50.4948 99.1725 50.8637 99.1304C58.6057 98.2399 65.6663 96.056 71.2831 92.8144C74.1565 91.1535 76.5556 89.2728 78.4132 87.2244C78.6631 86.9493 79.0885 86.9289 79.3637 87.1786C79.6389 87.4283 79.6593 87.8547 79.4094 88.1303C77.4581 90.282 74.9505 92.2506 71.9553 93.9813C66.1801 97.314 58.9397 99.5573 51.0171 100.469C50.9913 100.472 50.9655 100.473 50.9397 100.473Z" fill="#263994"/>
<path d="M10.5368 49.239C10.3191 49.239 10.115 49.157 9.96559 48.9934C9.80219 48.8439 9.7207 48.6395 9.7207 48.4215C9.7207 48.2035 9.80219 47.9992 9.96559 47.8496C10.2648 47.5365 10.8094 47.5365 11.1081 47.8496C11.2715 47.9992 11.353 48.2035 11.353 48.4215C11.353 48.6395 11.2715 48.8439 11.1081 48.9934C10.9588 49.157 10.7545 49.239 10.5368 49.239Z" fill="#263994"/>
<path d="M32.2895 57.7244C31.8405 57.656 31.5413 57.2346 31.6092 56.7981C31.6771 56.3486 32.0854 56.049 32.5344 56.1039C32.9834 56.1719 33.2826 56.5942 33.2147 57.0438C33.1603 57.4389 32.8064 57.738 32.4122 57.738C32.3714 57.738 32.3307 57.738 32.2895 57.7244Z" fill="#263994"/>
<path d="M24.4673 56.0218C24.0459 55.8995 23.787 55.4359 23.9232 55.0135C24.0459 54.578 24.4944 54.3193 24.9299 54.4416C25.3653 54.578 25.6102 55.0275 25.4875 55.4631C25.3789 55.8174 25.0521 56.0491 24.6986 56.0491C24.6307 56.0495 24.5488 56.0354 24.4673 56.0218Z" fill="#263994"/>
<path d="M20.6714 54.7692C20.2359 54.6056 20.0318 54.1425 20.1816 53.7206C20.345 53.2841 20.8071 53.0802 21.229 53.2298C21.6509 53.3934 21.8686 53.8569 21.7188 54.2784C21.5961 54.6187 21.2834 54.8236 20.9434 54.8236C20.8484 54.8236 20.7533 54.7964 20.6714 54.7692Z" fill="#263994"/>
<path d="M36.3454 58.2148C36.2368 58.2148 36.1277 58.1876 36.0327 58.1468C35.9376 58.1056 35.8425 58.0512 35.7742 57.9701C35.6927 57.9016 35.6379 57.8065 35.5971 57.7109C35.5564 57.6157 35.5293 57.5069 35.5293 57.3977C35.5293 57.1802 35.6108 56.9754 35.7742 56.8258C35.8425 56.7438 35.9376 56.6894 36.0327 56.6491C36.2368 56.5539 36.4544 56.5539 36.6586 56.6491C36.7536 56.6894 36.8492 56.7442 36.9171 56.8258C37.0805 56.9754 37.1619 57.1802 37.1619 57.3977C37.1619 57.5069 37.1348 57.6157 37.0941 57.7109C37.0533 57.8065 36.999 57.9016 36.9171 57.9701C36.8492 58.0512 36.7536 58.1056 36.6586 58.1468C36.5631 58.1876 36.454 58.2148 36.3454 58.2148Z" fill="#263994"/>
<path d="M10.5368 54.5236C10.3191 54.5236 10.115 54.4416 9.96559 54.278C9.80219 54.1284 9.7207 53.9241 9.7207 53.7061C9.7207 53.4886 9.80219 53.2837 9.96559 53.1342C10.0335 53.0522 10.129 52.9978 10.2241 52.957C10.4282 52.8754 10.646 52.8754 10.8501 52.957C10.9451 52.9978 11.0407 53.0522 11.1086 53.1342C11.272 53.2837 11.3535 53.4886 11.3535 53.7061C11.3535 53.9241 11.272 54.1284 11.1086 54.278C10.9587 54.442 10.7545 54.5236 10.5368 54.5236Z" fill="#263994"/>
<path d="M32.2895 63.0095C31.8405 62.9415 31.5413 62.5191 31.6092 62.0832C31.6771 61.6341 32.0854 61.3209 32.5344 61.402C32.5344 61.402 32.5344 61.4021 32.5344 61.3889C32.9834 61.4569 33.2826 61.8792 33.2147 62.3288C33.1603 62.724 32.8064 63.024 32.4122 63.024C32.3714 63.0236 32.3307 63.0236 32.2895 63.0095Z" fill="#263994"/>
<path d="M28.3591 62.288C27.9237 62.1924 27.6381 61.7569 27.7331 61.3069C27.8282 60.8714 28.2636 60.5986 28.6991 60.6942C29.1481 60.7894 29.4202 61.2248 29.3251 61.6613C29.2436 62.0424 28.9033 62.3011 28.5362 62.3011C28.4678 62.3011 28.4135 62.3012 28.3591 62.288Z" fill="#263994"/>
<path d="M24.4808 61.3069C24.0454 61.1845 23.787 60.7209 23.9232 60.2994C24.0459 59.863 24.4944 59.6043 24.9298 59.7407C25.3653 59.863 25.6101 60.3126 25.4874 60.7481C25.3788 61.1025 25.052 61.3341 24.6985 61.3341C24.6306 61.3341 24.5487 61.3209 24.4808 61.3069Z" fill="#263994"/>
<path d="M16.9576 58.5007C16.5493 58.3104 16.3724 57.8196 16.563 57.4113C16.7671 57.0021 17.2432 56.8253 17.6515 57.0161C18.0598 57.2069 18.2364 57.6973 18.0462 58.1056C17.91 58.4056 17.6108 58.5692 17.3116 58.5692C17.1889 58.5692 17.0667 58.5556 16.9576 58.5007Z" fill="#263994"/>
<path d="M13.408 56.6214C13.0133 56.3899 12.8912 55.8859 13.1089 55.4907C13.3402 55.1096 13.8435 54.9732 14.2382 55.2048C14.6193 55.4364 14.7551 55.9403 14.5238 56.3214C14.374 56.5806 14.102 56.7306 13.8163 56.7306C13.6801 56.7302 13.5302 56.6894 13.408 56.6214Z" fill="#263994"/>
<path d="M10.5368 70.5123C10.3191 70.5123 10.115 70.4303 9.96559 70.2667C9.80219 70.1172 9.7207 69.9128 9.7207 69.6948C9.7207 69.4764 9.80219 69.2725 9.96559 69.1229C10.2648 68.8098 10.8094 68.8098 11.1081 69.1229C11.2715 69.2725 11.353 69.4768 11.353 69.6948C11.353 69.9128 11.2715 70.1172 11.1081 70.2667C10.9588 70.4303 10.7545 70.5123 10.5368 70.5123Z" fill="#263994"/>
<path d="M32.2895 78.9982C31.8405 78.9298 31.5413 78.5079 31.6092 78.0719C31.6771 77.6224 32.0854 77.3233 32.5344 77.3776C32.9834 77.4456 33.2826 77.868 33.2147 78.3175C33.1603 78.7127 32.8064 79.0118 32.4122 79.0118C32.3714 79.0114 32.3307 79.0113 32.2895 78.9982Z" fill="#263994"/>
<path d="M28.3578 78.2758C27.9088 78.1807 27.6367 77.7452 27.7318 77.2956C27.8268 76.8601 28.2623 76.5732 28.6977 76.6825C28.6977 76.6825 28.6977 76.6825 28.6977 76.6693C29.1468 76.7786 29.4188 77.2009 29.3238 77.6496C29.2423 78.0311 28.9019 78.2899 28.5348 78.2899C28.4805 78.2894 28.4121 78.2894 28.3578 78.2758Z" fill="#263994"/>
<path d="M24.4673 77.2956C24.0459 77.1732 23.787 76.7096 23.9232 76.2873C24.0459 75.8518 24.4944 75.593 24.9299 75.7154C25.3653 75.8518 25.6102 76.3013 25.4875 76.7368C25.3789 77.0912 25.0521 77.3228 24.6986 77.3228C24.6307 77.3228 24.5488 77.3087 24.4673 77.2956Z" fill="#263994"/>
<path d="M16.9576 74.4895C16.5493 74.2987 16.3724 73.8084 16.563 73.4001C16.7536 72.9913 17.2432 72.8141 17.6515 73.0049C18.0598 73.1952 18.2364 73.6861 18.0462 74.0944C17.91 74.3944 17.6108 74.5571 17.3116 74.5571C17.1889 74.5575 17.0667 74.5439 16.9576 74.4895Z" fill="#263994"/>
<path d="M13.408 72.6102C13.0133 72.3786 12.8912 71.8747 13.1089 71.4795C13.3402 71.0979 13.8435 70.962 14.2382 71.1935C14.6193 71.4251 14.7551 71.929 14.5238 72.3102C14.374 72.5689 14.0884 72.7189 13.8163 72.7189C13.6801 72.7189 13.5302 72.6777 13.408 72.6102Z" fill="#263994"/>
<path d="M32.2895 84.2828C31.8405 84.2148 31.5413 83.7925 31.6092 83.3565C31.6771 82.9074 32.0854 82.5942 32.5344 82.6753C32.5344 82.6753 32.5344 82.6754 32.5344 82.6622C32.9834 82.7302 33.2826 83.1526 33.2147 83.6021C33.1603 83.9973 32.8064 84.2973 32.4122 84.2973C32.3714 84.2969 32.3307 84.2968 32.2895 84.2828Z" fill="#263994"/>
<path d="M28.3591 83.5613C27.9237 83.4657 27.6381 83.0297 27.7331 82.5802C27.8282 82.1447 28.2636 81.8718 28.6991 81.9675C29.1481 82.0626 29.4202 82.4981 29.3251 82.9346C29.2436 83.3157 28.9033 83.5744 28.5362 83.5744C28.4678 83.5744 28.4135 83.5745 28.3591 83.5613Z" fill="#263994"/>
<path d="M20.6584 81.3271C20.2501 81.1635 20.0324 80.7009 20.1822 80.2785C20.3456 79.8561 20.8077 79.6381 21.2296 79.7881C21.6514 79.9508 21.8692 80.4149 21.7194 80.8368C21.5967 81.1771 21.284 81.3815 20.944 81.3815C20.849 81.3815 20.7539 81.3543 20.6584 81.3271Z" fill="#263994"/>
<path d="M16.9576 79.7741C16.5493 79.5837 16.3724 79.093 16.563 78.6847C16.7671 78.2759 17.2432 78.0987 17.6515 78.2895C18.0598 78.4802 18.2364 78.9706 18.0462 79.3789C17.91 79.6789 17.6108 79.8425 17.3116 79.8425C17.1889 79.8425 17.0667 79.8285 16.9576 79.7741Z" fill="#263994"/>
<path d="M13.408 77.8947C13.0133 77.6632 12.8912 77.1592 13.1089 76.7641C13.3402 76.3829 13.8435 76.2465 14.2382 76.4781C14.6193 76.7097 14.7551 77.2136 14.5238 77.5947C14.374 77.854 14.102 78.0035 13.8163 78.0035C13.6801 78.0035 13.5302 77.9627 13.408 77.8947Z" fill="#263994"/>
<path d="M36.3454 84.7726C36.2368 84.7726 36.1277 84.7454 36.0327 84.7047C35.9376 84.6639 35.8425 84.6095 35.7742 84.5279C35.6108 84.3774 35.5293 84.1735 35.5293 83.956C35.5293 83.8468 35.5564 83.738 35.5971 83.6428C35.6379 83.5472 35.6923 83.452 35.7742 83.3836C35.8425 83.3025 35.9376 83.2482 36.0327 83.2069C36.3319 83.0846 36.6993 83.1525 36.9171 83.3836C36.9985 83.452 37.0529 83.5472 37.0941 83.6428C37.1348 83.738 37.1619 83.8472 37.1619 83.956C37.1619 84.1735 37.0805 84.3774 36.9171 84.5279C36.7672 84.6915 36.5631 84.7726 36.3454 84.7726Z" fill="#263994"/>
<path d="M10.5368 91.7857C10.3191 91.7857 10.115 91.7036 9.96559 91.54C9.80219 91.3905 9.7207 91.1861 9.7207 90.9681C9.7207 90.7502 9.80219 90.5457 9.96559 90.3962C10.2648 90.083 10.8094 90.083 11.1081 90.3962C11.2715 90.5457 11.353 90.7502 11.353 90.9681C11.353 91.1861 11.2715 91.3905 11.1081 91.54C10.9588 91.7036 10.7545 91.7857 10.5368 91.7857Z" fill="#263994"/>
<path d="M28.3578 99.5491C27.9088 99.4539 27.6367 99.0184 27.7318 98.5689C27.8268 98.1334 28.2623 97.8465 28.6977 97.9557C28.6977 97.9557 28.6977 97.9557 28.6977 97.9426C29.1468 98.0518 29.4188 98.4742 29.3238 98.9228C29.2423 99.3044 28.9019 99.5632 28.5348 99.5632C28.4805 99.5632 28.4121 99.5631 28.3578 99.5491Z" fill="#263994"/>
<path d="M24.4673 98.5689C24.0459 98.4465 23.787 97.9829 23.9232 97.5606C24.0459 97.1251 24.4944 96.8663 24.9299 96.9886C25.3653 97.125 25.6102 97.5746 25.4875 98.0101C25.3789 98.3645 25.0521 98.5961 24.6986 98.5961C24.6307 98.5961 24.5488 98.582 24.4673 98.5689Z" fill="#263994"/>
<path d="M20.6714 97.3158C20.2359 97.1522 20.0318 96.6891 20.1816 96.2672C20.345 95.8308 20.8071 95.6268 21.229 95.7764C21.6509 95.94 21.8686 96.4036 21.7188 96.825C21.5961 97.1654 21.2834 97.3702 20.9434 97.3702C20.8484 97.3702 20.7533 97.343 20.6714 97.3158Z" fill="#263994"/>
<path d="M16.9576 95.7628C16.5493 95.572 16.3724 95.0817 16.563 94.6734C16.7536 94.2642 17.2432 94.0874 17.6515 94.2782C18.0598 94.4685 18.2364 94.9593 18.0462 95.3677C17.91 95.6677 17.6108 95.8304 17.3116 95.8304C17.1889 95.8308 17.0667 95.8172 16.9576 95.7628Z" fill="#263994"/>
<path d="M36.3454 100.761C36.2368 100.761 36.1277 100.734 36.0327 100.693C35.9376 100.652 35.8425 100.598 35.7742 100.517C35.6927 100.448 35.6379 100.353 35.5971 100.257C35.5564 100.162 35.5293 100.053 35.5293 99.9444C35.5293 99.7268 35.6108 99.5219 35.7742 99.3724C35.8425 99.2904 35.9376 99.236 36.0327 99.1957C36.2368 99.1005 36.4544 99.1005 36.6586 99.1957C36.7536 99.2365 36.8492 99.2908 36.9171 99.3724C37.0805 99.5219 37.1619 99.7268 37.1619 99.9444C37.1619 100.054 37.1348 100.162 37.0941 100.257C37.0533 100.353 36.999 100.448 36.9171 100.517C36.8492 100.598 36.7536 100.652 36.6586 100.693C36.5631 100.734 36.454 100.761 36.3454 100.761Z" fill="#263994"/>
<path d="M10.5368 97.0703C10.3191 97.0703 10.115 96.9882 9.96559 96.8246C9.80219 96.6751 9.7207 96.4707 9.7207 96.2527C9.7207 96.0352 9.80219 95.8303 9.96559 95.6808C10.0335 95.5988 10.129 95.5444 10.2241 95.5036C10.4282 95.4216 10.646 95.4216 10.8501 95.5036C10.9451 95.5439 11.0407 95.5988 11.1086 95.6808C11.272 95.8303 11.3535 96.0352 11.3535 96.2527C11.3535 96.4707 11.272 96.6751 11.1086 96.8246C10.9587 96.9882 10.7545 97.0703 10.5368 97.0703Z" fill="#263994"/>
<path d="M32.2895 105.556C31.8405 105.488 31.5413 105.066 31.6092 104.63C31.6771 104.181 32.0854 103.868 32.5344 103.949C32.5344 103.949 32.5344 103.949 32.5344 103.936C32.9834 104.004 33.2826 104.426 33.2147 104.875C33.1603 105.271 32.8064 105.571 32.4122 105.571C32.3714 105.57 32.3307 105.57 32.2895 105.556Z" fill="#263994"/>
<path d="M24.4808 103.853C24.0454 103.731 23.787 103.268 23.9232 102.846C24.0459 102.41 24.4944 102.151 24.9298 102.287C25.3653 102.41 25.6101 102.859 25.4874 103.295C25.3788 103.649 25.052 103.881 24.6985 103.881C24.6306 103.881 24.5487 103.868 24.4808 103.853Z" fill="#263994"/>
<path d="M20.6584 102.6C20.2501 102.437 20.0324 101.974 20.1822 101.552C20.3456 101.129 20.8077 100.911 21.2296 101.061C21.6514 101.225 21.8692 101.688 21.7194 102.11C21.5967 102.45 21.284 102.655 20.944 102.655C20.849 102.655 20.7539 102.628 20.6584 102.6Z" fill="#263994"/>
<path d="M13.408 99.1681C13.0133 98.9365 12.8912 98.4325 13.1089 98.0374C13.3402 97.6562 13.8435 97.5198 14.2382 97.7514C14.6193 97.983 14.7551 98.4869 14.5238 98.8681C14.374 99.1273 14.102 99.2773 13.8163 99.2773C13.6801 99.2773 13.5302 99.236 13.408 99.1681Z" fill="#263994"/>
<path d="M36.3454 106.046C36.2368 106.046 36.1277 106.019 36.0327 105.978C35.9376 105.938 35.8425 105.883 35.7742 105.802C35.6108 105.651 35.5293 105.447 35.5293 105.23C35.5293 105.121 35.5564 105.012 35.5971 104.917C35.6379 104.821 35.6923 104.726 35.7742 104.657C35.8425 104.576 35.9376 104.522 36.0327 104.481C36.3319 104.358 36.6993 104.426 36.9171 104.657C36.9985 104.726 37.0529 104.821 37.0941 104.917C37.1348 105.012 37.1619 105.121 37.1619 105.23C37.1619 105.447 37.0805 105.652 36.9171 105.802C36.7672 105.965 36.5631 106.046 36.3454 106.046Z" fill="#263994"/>
<path d="M83.5215 25.8372V89.8855C83.5355 95.906 79.5631 101.913 71.6175 106.503C55.7552 115.67 30.0289 115.67 14.1657 106.503C6.22097 101.912 2.24862 95.9056 2.26175 89.8855V25.8372C2.26175 31.8573 6.235 37.8642 14.1657 42.4545C30.0289 51.6215 55.7552 51.6215 71.6175 42.4545C79.5627 37.8638 83.5215 31.8573 83.5215 25.8372Z" stroke="#263994" stroke-width="2.9735" stroke-miterlimit="10" stroke-linecap="round" stroke-linejoin="round"/>
<path d="M83.5215 25.8372C83.5215 31.8573 79.5631 37.8642 71.6175 42.4545C55.7551 51.6215 30.0289 51.6215 14.1657 42.4545C6.23497 37.8642 2.26172 31.8573 2.26172 25.8372C2.26172 19.8307 6.23497 13.8233 14.1657 9.23304C30.0289 0.0665245 55.7551 0.0665245 71.6175 9.23304C79.5626 13.8233 83.5215 19.8303 83.5215 25.8372Z" stroke="#263994" stroke-width="2.9735" stroke-miterlimit="10" stroke-linecap="round" stroke-linejoin="round"/>
</svg>
