<svg width="229" height="223" viewBox="0 0 229 223" fill="none" xmlns="http://www.w3.org/2000/svg">
<path d="M226.694 75.251L225.343 81.2416L205.085 170.965C204.646 172.915 203.412 174.592 201.681 175.593L199.022 177.131L124.62 220.137C121.984 221.661 117.998 221.826 115.716 220.506L3.17628 155.454C2.16236 154.867 1.65678 154.09 1.63867 153.27V145.174C1.65723 145.994 2.16508 146.769 3.17628 147.356L6.04965 149.017L115.716 212.409C117.998 213.728 121.984 213.562 124.62 212.039L202.503 167.02L222.7 77.5591C223.307 74.8645 221.951 71.6102 219.668 70.2914L108.746 6.17471L107.13 5.24024C105.945 4.55457 104.74 4.52468 103.775 5.03542L107.583 2.83384L107.606 2.82026C108.599 2.21707 109.872 2.20799 111.125 2.93309L223.663 67.9843C225.945 69.3026 227.301 72.5564 226.694 75.251Z" fill="#E0E7F7" stroke="#263994" stroke-width="2.9735" stroke-miterlimit="10" stroke-linecap="round" stroke-linejoin="round"/>
<path d="M222.7 77.5591L221.348 83.5492L214.85 112.323L202.502 167.02L196.292 170.611L147.688 135.336L147.686 135.334L89.1738 92.8703L93.2399 74.8581L99.4071 47.5439L108.746 6.1756L219.668 70.2923C221.951 71.6101 223.307 74.864 222.7 77.5591Z" fill="white" stroke="#263994" stroke-width="2.9735" stroke-miterlimit="10" stroke-linecap="round" stroke-linejoin="round"/>
<path d="M202.503 167.02L196.292 170.61L195.499 171.068L124.62 212.039C121.984 213.562 117.998 213.728 115.716 212.409L6.04964 149.017L3.17628 147.356C2.16463 146.769 1.65678 145.994 1.63867 145.174V145.073C1.65949 144.077 2.39728 143.029 3.8154 142.211L81.6975 97.1901L81.6998 97.1923L147.687 135.334L147.689 135.337L202.503 167.02Z" fill="white" stroke="#263994" stroke-width="2.9735" stroke-miterlimit="10" stroke-linecap="round" stroke-linejoin="round"/>
<path d="M108.906 173.066C108.763 173.202 108.591 173.328 108.389 173.446L88.2444 185.09C87.0286 185.792 85.1895 185.87 84.1367 185.261L50.2974 165.702C50.2168 165.656 50.1434 165.605 50.0764 165.552C49.2721 164.931 49.4721 163.976 50.5938 163.327L70.7385 151.682C71.9521 150.98 73.7912 150.902 74.844 151.512L108.683 171.073C109.561 171.579 109.616 172.401 108.906 173.066Z" fill="#E0E7F7" stroke="#263994" stroke-width="2.9735" stroke-miterlimit="10"/>
<path d="M108.906 173.066C108.763 173.201 108.591 173.328 108.389 173.446L88.2441 185.09C87.0283 185.792 85.1892 185.87 84.1364 185.261L50.2971 165.702C50.2165 165.656 50.1432 165.605 50.0762 165.552C50.2188 165.417 50.3912 165.29 50.5935 165.172L70.7383 153.528C71.9518 152.824 73.7909 152.748 74.8437 153.357L108.683 172.916C108.763 172.962 108.839 173.013 108.906 173.066Z" fill="#80C1FF" stroke="#263994" stroke-width="2.9735" stroke-miterlimit="10"/>
<path d="M64.4643 126.511L59.0874 123.403C58.1862 122.882 56.7255 122.882 55.8243 123.403L50.4474 126.511C49.5462 127.032 49.5462 127.876 50.4474 128.397L55.8243 131.505C56.7255 132.026 58.1862 132.026 59.0874 131.505L64.4639 128.397C65.3655 127.876 65.3655 127.032 64.4643 126.511Z" stroke="#263994" stroke-width="2.9735" stroke-miterlimit="10"/>
<path d="M76.0698 133.219L70.6929 130.112C69.7916 129.591 68.331 129.591 67.4298 130.112L62.0529 133.219C61.1517 133.74 61.1517 134.585 62.0529 135.106L67.4298 138.214C68.331 138.734 69.7921 138.734 70.6929 138.214L76.0698 135.106C76.971 134.585 76.971 133.74 76.0698 133.219Z" stroke="#263994" stroke-width="2.9735" stroke-miterlimit="10"/>
<path d="M134.048 166.733L82.2998 136.821C81.3986 136.3 79.938 136.3 79.0368 136.821L73.6603 139.928C72.7591 140.449 72.7591 141.294 73.6603 141.815L125.408 171.727C126.309 172.248 127.77 172.248 128.671 171.727L134.048 168.619C134.949 168.098 134.949 167.254 134.048 166.733Z" stroke="#263994" stroke-width="2.9735" stroke-miterlimit="10"/>
<path d="M145.706 173.472L140.329 170.364C139.428 169.843 137.967 169.843 137.066 170.364L131.69 173.472C130.788 173.992 130.788 174.837 131.69 175.358L137.066 178.466C137.968 178.986 139.428 178.986 140.33 178.466L145.706 175.358C146.607 174.837 146.607 173.992 145.706 173.472Z" stroke="#263994" stroke-width="2.9735" stroke-miterlimit="10"/>
<path d="M157.311 180.18L151.935 177.072C151.033 176.551 149.573 176.551 148.671 177.072L143.295 180.18C142.394 180.701 142.394 181.546 143.295 182.066L148.672 185.174C149.573 185.695 151.034 185.695 151.935 185.174L157.311 182.066C158.213 181.546 158.213 180.701 157.311 180.18Z" stroke="#263994" stroke-width="2.9735" stroke-miterlimit="10"/>
<path d="M75.9345 119.88L70.5576 116.772C69.6564 116.251 68.1958 116.251 67.2946 116.772L61.9181 119.88C61.0169 120.401 61.0169 121.245 61.9181 121.766L67.295 124.874C68.1962 125.395 69.6569 125.395 70.5581 124.874L75.9345 121.766C76.8357 121.245 76.8357 120.401 75.9345 119.88Z" stroke="#263994" stroke-width="2.9735" stroke-miterlimit="10"/>
<path d="M87.54 126.589L82.1636 123.481C81.2624 122.96 79.8017 122.96 78.9005 123.481L73.5236 126.589C72.6224 127.11 72.6224 127.954 73.5236 128.475L78.9005 131.583C79.8017 132.104 81.2624 132.104 82.1636 131.583L87.54 128.475C88.4412 127.954 88.4412 127.11 87.54 126.589Z" stroke="#263994" stroke-width="2.9735" stroke-miterlimit="10"/>
<path d="M99.1478 133.297L93.771 130.189C92.8698 129.669 91.4091 129.669 90.5078 130.189L85.131 133.297C84.2298 133.818 84.2298 134.663 85.131 135.184L90.5078 138.291C91.4091 138.812 92.8698 138.812 93.771 138.291L99.1478 135.184C100.049 134.663 100.049 133.819 99.1478 133.297Z" stroke="#263994" stroke-width="2.9735" stroke-miterlimit="10"/>
<path d="M110.753 140.006L105.376 136.898C104.475 136.378 103.014 136.378 102.113 136.898L96.7365 140.006C95.8352 140.527 95.8352 141.372 96.7365 141.892L102.113 145C103.014 145.521 104.475 145.521 105.376 145L110.753 141.892C111.654 141.372 111.654 140.527 110.753 140.006Z" stroke="#263994" stroke-width="2.9735" stroke-miterlimit="10"/>
<path d="M122.358 146.715L116.981 143.607C116.08 143.086 114.62 143.086 113.718 143.607L108.342 146.715C107.441 147.236 107.441 148.08 108.342 148.601L113.719 151.709C114.62 152.23 116.081 152.23 116.982 151.709L122.358 148.601C123.259 148.08 123.259 147.236 122.358 146.715Z" stroke="#263994" stroke-width="2.9735" stroke-miterlimit="10"/>
<path d="M133.964 153.424L128.587 150.316C127.686 149.795 126.225 149.795 125.324 150.316L119.947 153.424C119.046 153.944 119.046 154.789 119.947 155.31L125.324 158.418C126.225 158.938 127.686 158.938 128.587 158.418L133.964 155.31C134.865 154.789 134.865 153.944 133.964 153.424Z" stroke="#263994" stroke-width="2.9735" stroke-miterlimit="10"/>
<path d="M145.57 160.132L140.193 157.024C139.292 156.503 137.831 156.503 136.93 157.024L131.553 160.132C130.652 160.653 130.652 161.498 131.553 162.018L136.93 165.126C137.831 165.647 139.292 165.647 140.193 165.126L145.569 162.018C146.471 161.498 146.471 160.653 145.57 160.132Z" stroke="#263994" stroke-width="2.9735" stroke-miterlimit="10"/>
<path d="M87.4067 113.25L82.0302 110.142C81.129 109.621 79.6684 109.621 78.7672 110.142L73.3907 113.25C72.4895 113.77 72.4895 114.615 73.3907 115.136L78.7672 118.244C79.6684 118.764 81.1295 118.764 82.0302 118.244L87.4072 115.136C88.3079 114.615 88.3079 113.771 87.4067 113.25Z" stroke="#263994" stroke-width="2.9735" stroke-miterlimit="10"/>
<path d="M99.0107 119.958L93.6343 116.85C92.7331 116.33 91.2724 116.33 90.3712 116.85L84.9943 119.958C84.0931 120.479 84.0931 121.324 84.9943 121.845L90.3712 124.953C91.2724 125.473 92.7331 125.473 93.6343 124.953L99.0107 121.845C99.9119 121.324 99.9119 120.479 99.0107 119.958Z" stroke="#263994" stroke-width="2.9735" stroke-miterlimit="10"/>
<path d="M110.619 126.667L105.242 123.559C104.34 123.038 102.88 123.038 101.979 123.559L96.6017 126.667C95.7005 127.188 95.7005 128.032 96.6017 128.553L101.979 131.661C102.88 132.182 104.34 132.182 105.242 131.661L110.619 128.553C111.519 128.032 111.519 127.188 110.619 126.667Z" stroke="#263994" stroke-width="2.9735" stroke-miterlimit="10"/>
<path d="M122.224 133.376L116.847 130.268C115.946 129.747 114.485 129.747 113.584 130.268L108.207 133.376C107.306 133.897 107.306 134.741 108.207 135.262L113.584 138.37C114.485 138.891 115.946 138.891 116.847 138.37L122.224 135.262C123.125 134.741 123.125 133.897 122.224 133.376Z" stroke="#263994" stroke-width="2.9735" stroke-miterlimit="10"/>
<path d="M133.829 140.084L128.452 136.976C127.551 136.456 126.09 136.456 125.189 136.976L119.813 140.084C118.911 140.605 118.911 141.45 119.813 141.97L125.189 145.078C126.09 145.599 127.551 145.599 128.452 145.078L133.829 141.97C134.73 141.45 134.73 140.605 133.829 140.084Z" stroke="#263994" stroke-width="2.9735" stroke-miterlimit="10"/>
<path d="M145.435 146.793L140.058 143.685C139.157 143.165 137.696 143.165 136.795 143.685L131.418 146.793C130.517 147.314 130.517 148.159 131.418 148.679L136.795 151.787C137.696 152.308 139.157 152.308 140.058 151.787L145.435 148.679C146.335 148.158 146.335 147.314 145.435 146.793Z" stroke="#263994" stroke-width="2.9735" stroke-miterlimit="10"/>
<path d="M157.04 153.502L151.664 150.394C150.762 149.873 149.302 149.873 148.4 150.394L143.024 153.502C142.122 154.022 142.122 154.867 143.024 155.388L148.4 158.496C149.302 159.016 150.762 159.016 151.664 158.496L157.04 155.388C157.942 154.867 157.942 154.023 157.04 153.502Z" stroke="#263994" stroke-width="2.9735" stroke-miterlimit="10"/>
<path d="M168.648 160.211L163.271 157.103C162.37 156.582 160.909 156.582 160.008 157.103L154.631 160.211C153.73 160.731 153.73 161.576 154.631 162.097L160.008 165.205C160.909 165.725 162.37 165.725 163.271 165.205L168.648 162.097C169.549 161.576 169.549 160.731 168.648 160.211Z" stroke="#263994" stroke-width="2.9735" stroke-miterlimit="10"/>
<path d="M180.253 166.919L174.876 163.811C173.975 163.29 172.514 163.29 171.613 163.811L163.405 168.555C162.504 169.076 161.044 169.076 160.142 168.555L151.8 163.733C150.899 163.212 149.438 163.212 148.537 163.733L143.16 166.841C142.259 167.362 142.259 168.207 143.16 168.727L160.143 178.544C161.044 179.065 162.505 179.065 163.406 178.544L180.253 168.806C181.154 168.284 181.154 167.44 180.253 166.919Z" stroke="#263994" stroke-width="2.9735" stroke-miterlimit="10"/>
<path d="M222.7 77.5591L221.349 83.5493L214.85 112.323L202.502 167.02L147.689 135.336L147.686 135.334L81.6992 97.1918L85.7652 79.1797L91.9325 51.8655L101.897 7.73093C102.163 6.54586 102.768 5.6644 103.554 5.16499L103.775 5.03629C104.74 4.52555 105.945 4.55547 107.131 5.24114L108.747 6.17561L219.668 70.2923C221.951 71.6101 223.307 74.864 222.7 77.5591Z" fill="#80C1FF" stroke="#263994" stroke-width="2.9735" stroke-miterlimit="10" stroke-linecap="round" stroke-linejoin="round"/>
<path d="M198.344 148.324L99.8242 91.3753L115.882 20.2451L214.402 77.1938L198.344 148.324Z" fill="#E0E6F9"/>
<path d="M192.408 149.892L93.8887 92.9433L109.947 21.8132L208.467 78.7619L192.408 149.892Z" fill="white" stroke="#263994" stroke-width="2.9735" stroke-miterlimit="10" stroke-linecap="round" stroke-linejoin="round"/>
<path d="M206.905 86.3527C206.791 86.3527 206.675 86.3237 206.569 86.2625L108.05 29.3138C107.728 29.128 107.617 28.7161 107.803 28.3934C107.989 28.0712 108.401 27.9606 108.723 28.1469L207.242 85.0956C207.564 85.2814 207.674 85.6933 207.488 86.016C207.364 86.2322 207.138 86.3527 206.905 86.3527Z" fill="#263994"/>
<path d="M114.854 29.2123C114.74 29.2123 114.624 29.1833 114.518 29.1221L112.065 27.7041C111.743 27.5183 111.633 27.1063 111.819 26.7837C112.005 26.4619 112.416 26.3513 112.738 26.5371L115.192 27.9551C115.513 28.1409 115.624 28.5529 115.438 28.8756C115.313 29.0917 115.087 29.2123 114.854 29.2123Z" fill="#263994"/>
<path d="M119.942 32.1521C119.828 32.1521 119.712 32.1231 119.606 32.0619L117.153 30.6439C116.831 30.4581 116.721 30.0462 116.907 29.7235C117.093 29.4013 117.504 29.2907 117.826 29.477L120.279 30.8949C120.601 31.0808 120.712 31.4927 120.526 31.8154C120.401 32.0315 120.175 32.1521 119.942 32.1521Z" fill="#263994"/>
<path d="M125.028 35.0919C124.914 35.0919 124.798 35.0628 124.692 35.0017L122.239 33.5837C121.917 33.3979 121.807 32.9859 121.993 32.6633C122.179 32.3415 122.59 32.2309 122.912 32.4167L125.365 33.8347C125.687 34.0205 125.798 34.4325 125.612 34.7551C125.487 34.9713 125.261 35.0919 125.028 35.0919Z" fill="#263994"/>
<path d="M142.481 64.9149C142.367 64.9149 142.251 64.8859 142.145 64.8247L114.173 48.6552C113.851 48.4694 113.74 48.0574 113.926 47.7348C114.112 47.4125 114.523 47.302 114.846 47.4883L142.818 63.6578C143.14 63.8436 143.251 64.2556 143.065 64.5782C142.94 64.7944 142.714 64.9149 142.481 64.9149Z" fill="#263994"/>
<path d="M158.571 74.2142C158.456 74.2142 158.341 74.1852 158.235 74.124L148.042 68.2322C147.72 68.0464 147.609 67.6345 147.795 67.3118C147.981 66.9896 148.392 66.8795 148.715 67.0653L158.908 72.9571C159.23 73.1429 159.34 73.5548 159.154 73.8775C159.03 74.0937 158.803 74.2142 158.571 74.2142Z" fill="#263994"/>
<path d="M190.995 105.109C190.881 105.109 190.765 105.08 190.659 105.019L111.749 59.3942C111.427 59.208 111.316 58.796 111.502 58.4738C111.688 58.1516 112.1 58.041 112.422 58.2273L191.331 103.852C191.653 104.038 191.764 104.45 191.578 104.772C191.453 104.989 191.227 105.109 190.995 105.109Z" fill="#263994"/>
<path d="M189.408 112.138C189.294 112.138 189.178 112.109 189.072 112.048L110.163 66.4235C109.841 66.2377 109.731 65.8253 109.917 65.5031C110.102 65.1813 110.514 65.0708 110.836 65.2566L189.746 110.881C190.067 111.067 190.178 111.479 189.992 111.802C189.867 112.018 189.641 112.138 189.408 112.138Z" fill="#263994"/>
<path d="M187.82 119.168C187.706 119.168 187.59 119.139 187.485 119.078L108.575 73.4524C108.253 73.2666 108.143 72.8542 108.329 72.532C108.515 72.2103 108.926 72.0997 109.248 72.2855L188.158 117.911C188.48 118.096 188.59 118.509 188.404 118.831C188.279 119.047 188.053 119.168 187.82 119.168Z" fill="#263994"/>
<path d="M157.117 109.354C157.003 109.354 156.887 109.325 156.781 109.263L106.989 80.4812C106.667 80.2954 106.557 79.8835 106.743 79.5608C106.929 79.2386 107.34 79.128 107.662 79.3143L157.454 108.096C157.776 108.283 157.886 108.694 157.7 109.017C157.576 109.233 157.35 109.354 157.117 109.354Z" fill="#263994"/>
<path d="M175.886 131.205C175.816 131.205 175.747 131.203 175.677 131.199C174.869 131.148 173.963 130.824 172.909 130.209C171.182 129.202 169.573 127.76 168.255 126.038C168.029 125.743 168.085 125.32 168.38 125.094C168.676 124.867 169.098 124.923 169.323 125.219C170.535 126.802 172.009 128.125 173.586 129.045C174.455 129.552 175.166 129.816 175.761 129.854C176.047 129.872 176.745 129.849 177.033 129.254C177.097 129.122 177.139 128.969 177.167 128.8C176.171 128.551 175.304 128.119 174.578 127.51C174.077 127.09 173.601 126.511 173.248 125.866C172.312 125.984 171.383 125.866 170.509 125.514C168.992 124.903 167.66 123.525 167.114 122.005C166.98 121.632 166.895 121.262 166.847 120.901C165.185 120.943 163.482 120.665 161.976 120.422C161.609 120.362 161.36 120.016 161.419 119.649C161.478 119.281 161.823 119.028 162.19 119.091C163.635 119.324 165.279 119.588 166.823 119.551C166.882 118.892 167.031 118.282 167.185 117.752C167.469 116.775 167.855 115.807 168.749 115.34C169.218 115.095 169.82 115.064 170.398 115.257C171.065 115.479 171.622 115.965 171.924 116.591C172.254 117.275 172.262 118.102 171.946 118.747C171.637 119.378 171.1 119.737 170.723 119.953C169.944 120.398 169.085 120.657 168.189 120.79C168.227 121.042 168.289 121.295 168.38 121.55C168.795 122.707 169.852 123.797 171.011 124.265C171.626 124.512 172.216 124.582 172.746 124.557C172.654 124.134 172.632 123.707 172.703 123.297C172.829 122.569 173.229 122.043 173.801 121.853C174.467 121.634 175.295 121.965 175.728 122.626C176.131 123.242 176.16 124.054 175.799 124.645C175.497 125.14 175.014 125.38 174.61 125.531C174.838 125.88 175.122 126.208 175.443 126.477C175.943 126.897 176.519 127.206 177.185 127.409C177.182 127.363 177.179 127.318 177.177 127.272C177.126 126.387 177.074 125.472 177.421 124.69C177.801 123.834 178.62 123.314 179.557 123.339C180.404 123.359 181.32 123.825 182.007 124.587C182.285 124.896 182.644 125.389 182.777 125.985C182.961 126.815 182.651 127.647 181.949 128.211C181.129 128.87 179.968 129.139 178.496 129.017C178.449 129.303 178.37 129.58 178.244 129.841C177.832 130.694 176.939 131.205 175.886 131.205ZM178.546 127.668C179.694 127.774 180.555 127.603 181.107 127.16C181.282 127.019 181.561 126.717 181.463 126.277C181.409 126.036 181.248 125.756 181.007 125.49C180.571 125.005 180.003 124.697 179.525 124.686C179.516 124.686 179.507 124.686 179.498 124.686C179.114 124.686 178.807 124.886 178.65 125.238C178.436 125.721 178.479 126.471 178.521 127.195C178.53 127.352 178.539 127.51 178.546 127.668ZM174.241 123.131C174.234 123.131 174.228 123.131 174.223 123.133C174.173 123.149 174.073 123.272 174.029 123.527C173.989 123.758 174.004 124.02 174.066 124.294C174.075 124.291 174.085 124.288 174.094 124.285C174.406 124.173 174.573 124.07 174.651 123.942C174.715 123.838 174.744 123.581 174.602 123.364C174.488 123.19 174.314 123.131 174.241 123.131ZM169.641 116.479C169.537 116.479 169.444 116.498 169.372 116.536C168.925 116.769 168.669 117.472 168.478 118.129C168.361 118.534 168.251 118.969 168.191 119.424C168.863 119.308 169.494 119.105 170.057 118.783C170.416 118.578 170.626 118.384 170.739 118.154C170.842 117.943 170.898 117.56 170.713 117.177C170.568 116.877 170.3 116.644 169.976 116.536C169.861 116.498 169.746 116.479 169.641 116.479Z" fill="#263994"/>
<path d="M81.7008 67.3444C81.6515 67.3444 81.6017 67.3389 81.5519 67.3276C81.1893 67.2456 80.9621 66.8849 81.0441 66.5219L89.3319 29.8123C89.4133 29.4497 89.775 29.2209 90.1367 29.3038C90.4993 29.3858 90.7265 29.7466 90.6445 30.1096L82.3567 66.8191C82.2861 67.1323 82.0081 67.3444 81.7008 67.3444Z" fill="#263994"/>
</svg>
