<svg width="58" height="84" viewBox="0 0 58 84" fill="none" xmlns="http://www.w3.org/2000/svg">
<path d="M56.3693 67.5125L46.0251 73.4932L29.1847 83.2261L12.3442 73.49L2 67.5089L29.1847 51.7952L56.3693 67.5125Z" fill="#E0E6F9"/>
<path d="M55.907 37.0726L45.739 42.9518L29.185 52.5194L12.631 42.9486L2.46289 37.0699L29.185 21.6232L55.907 37.0726Z" fill="white" stroke="#263994" stroke-width="2.9735" stroke-miterlimit="10" stroke-linecap="round" stroke-linejoin="round"/>
<path d="M55.907 37.0727V56.5514L29.185 71.9976L2.46289 56.5514V37.0699L12.631 42.9486L29.185 52.5194L45.739 42.9518L55.907 37.0727Z" fill="#E0E7F7" stroke="#263994" stroke-width="2.9735" stroke-miterlimit="10" stroke-linecap="round" stroke-linejoin="round"/>
<path d="M55.907 17.4494L45.739 23.3286L29.185 32.8962L12.631 23.3254L2.46289 17.4467L29.185 2L55.907 17.4494Z" fill="white" stroke="#263994" stroke-width="2.9735" stroke-miterlimit="10" stroke-linecap="round" stroke-linejoin="round"/>
<path d="M55.907 17.4494V29.2045L29.185 44.6512L2.46289 29.2045V17.4467L12.631 23.3254L29.185 32.8962L45.739 23.3286L55.907 17.4494Z" fill="#E0E7F7" stroke="#263994" stroke-width="2.9735" stroke-miterlimit="10" stroke-linecap="round" stroke-linejoin="round"/>
<path d="M11.8018 54.1545C11.8018 54.3443 11.7864 54.5189 11.7561 54.6815C11.6701 55.1347 11.4686 55.4751 11.1866 55.6799H11.1835C10.7336 56.008 10.079 55.9985 9.34754 55.5756C7.99189 54.7912 6.89062 52.886 6.89062 51.3171C6.89062 50.582 7.13231 50.0487 7.5329 49.779L7.72264 49.6689C8.04084 49.5279 8.43229 49.5221 8.86728 49.6752C9.02027 49.7274 9.18233 49.8007 9.34754 49.8959C10.7037 50.6804 11.8018 52.5887 11.8018 54.1545Z" fill="#E0E7F7" stroke="#263994" stroke-width="2.9735" stroke-miterlimit="10" stroke-linecap="round" stroke-linejoin="round"/>
<path d="M13.7323 53.0392C13.7323 53.7407 13.5119 54.2582 13.1448 54.5433H13.1416L12.8818 54.6965L11.1866 55.6799C11.4682 55.4746 11.6701 55.1347 11.7561 54.6815C11.7869 54.5188 11.8018 54.3443 11.8018 54.1544C11.8018 52.5887 10.7032 50.6804 9.34756 49.8959C9.18235 49.8007 9.0204 49.7273 8.86741 49.6752C8.43287 49.5221 8.04131 49.5279 7.72266 49.6689L9.49741 48.6333L9.5404 48.6089C9.98399 48.3515 10.5992 48.3882 11.2786 48.7806C12.6338 49.5651 13.7323 51.4739 13.7323 53.0392Z" fill="white" stroke="#263994" stroke-width="2.9735" stroke-miterlimit="10" stroke-linecap="round" stroke-linejoin="round"/>
<path d="M20.6358 59.2438C20.6358 59.4337 20.6204 59.6081 20.59 59.7704C20.5045 60.2236 20.3026 60.5639 20.0206 60.7692H20.0174C19.5675 61.0973 18.913 61.0878 18.1815 60.665C16.8259 59.8805 15.7246 57.9753 15.7246 56.4069C15.7246 55.6718 15.9663 55.1384 16.3669 54.8687L16.5565 54.7586C16.8747 54.6177 17.2663 54.6118 17.7013 54.765C17.8543 54.8171 18.0163 54.8905 18.1815 54.9856C19.5372 55.7696 20.6358 57.678 20.6358 59.2438Z" fill="#3795FC" stroke="#263994" stroke-width="2.9735" stroke-miterlimit="10" stroke-linecap="round" stroke-linejoin="round"/>
<path d="M22.5668 58.1284C22.5668 58.83 22.3463 59.3479 21.9793 59.6325H21.9762L21.7159 59.7857L20.0207 60.7691C20.3023 60.5638 20.5042 60.224 20.5902 59.7703C20.621 59.6076 20.6359 59.4332 20.6359 59.2437C20.6359 57.678 19.5373 55.7696 18.1817 54.9851C18.0164 54.89 17.8544 54.8166 17.7014 54.7645C17.2669 54.6113 16.8753 54.6176 16.5566 54.7581L18.3315 53.7226L18.3745 53.6981C18.8181 53.4407 19.4333 53.4774 20.1127 53.8699C21.4683 54.6543 22.5668 56.5631 22.5668 58.1284Z" fill="#80C1FF" stroke="#263994" stroke-width="2.9735" stroke-miterlimit="10" stroke-linecap="round" stroke-linejoin="round"/>
<path d="M17.6874 18.91C17.4548 18.91 17.229 18.7895 17.1041 18.5733C16.918 18.2511 17.0284 17.8391 17.3503 17.6529L31.5491 9.44532C31.8718 9.25952 32.2828 9.36964 32.4684 9.69186C32.6544 10.0141 32.544 10.426 32.2222 10.6123L18.0234 18.8198C17.917 18.881 17.8015 18.91 17.6874 18.91Z" fill="#263994"/>
<path d="M22.3477 21.5122C22.115 21.5122 21.8891 21.3916 21.7642 21.1755C21.5782 20.8533 21.6886 20.4413 22.0104 20.2551L36.2093 12.0475C36.5316 11.8617 36.9431 11.9718 37.1287 12.294C37.3147 12.6162 37.2042 13.0282 36.8823 13.2144L22.6835 21.422C22.5776 21.4832 22.4618 21.5122 22.3477 21.5122Z" fill="#263994"/>
<path d="M27.0098 24.1144C26.7771 24.1144 26.5512 23.9938 26.4263 23.7777C26.2403 23.4554 26.3508 23.0435 26.6726 22.8572L40.8714 14.6501C41.1937 14.4639 41.6047 14.5744 41.7907 14.8966C41.9768 15.2189 41.8664 15.6308 41.5445 15.8171L27.3456 24.0242C27.2392 24.0854 27.1238 24.1144 27.0098 24.1144Z" fill="#263994"/>
<path d="M53.0901 44.1084C53.0901 45.1647 52.3495 46.4486 51.4357 46.977C50.5218 47.5054 49.7812 47.0771 49.7812 46.0208C49.7812 44.9644 50.5218 43.6806 51.4357 43.1521C52.3495 42.6237 53.0901 43.052 53.0901 44.1084Z" stroke="#263994" stroke-width="2.9735" stroke-miterlimit="10" stroke-linecap="round" stroke-linejoin="round"/>
<path d="M29.1848 45.3246C28.8132 45.3246 28.5117 45.0229 28.5117 44.6508V32.8957C28.5117 32.5236 28.8132 32.2218 29.1848 32.2218C29.5564 32.2218 29.8578 32.5236 29.8578 32.8957V44.6508C29.8578 45.0229 29.5569 45.3246 29.1848 45.3246Z" fill="#263994"/>
<path d="M29.1848 72.6715C28.8132 72.6715 28.5117 72.3697 28.5117 71.9976V52.5194C28.5117 52.1474 28.8132 51.8455 29.1848 51.8455C29.5564 51.8455 29.8578 52.1474 29.8578 52.5194V71.9976C29.8578 72.3697 29.5569 72.6715 29.1848 72.6715Z" fill="#263994"/>
</svg>
