<svg width="635" height="581" viewBox="0 0 635 581" fill="none" xmlns="http://www.w3.org/2000/svg">
<g filter="url(#filter0_f_588_3508)">
<path d="M69.8911 485.764C66.0269 487.997 59.7623 487.997 55.8981 485.764C52.034 483.53 52.034 479.909 55.8981 477.675C59.7623 475.442 66.0269 475.442 69.8911 477.675C73.7548 479.909 73.7548 483.53 69.8911 485.764Z" stroke="#263994" stroke-width="2.9735" stroke-miterlimit="10" stroke-linecap="round" stroke-linejoin="round"/>
</g>
<path d="M186.511 263.654C183.878 265.176 179.608 265.176 176.975 263.654C174.342 262.131 174.342 259.664 176.975 258.142C179.608 256.619 183.877 256.619 186.511 258.142C189.144 259.664 189.144 262.131 186.511 263.654Z" stroke="#263994" stroke-width="2.9735" stroke-miterlimit="10" stroke-linecap="round" stroke-linejoin="round"/>
<path d="M366.169 535.738C363 535.738 359.831 534.922 357.005 533.288L280.989 489.347C280.667 489.162 280.557 488.75 280.743 488.427C280.928 488.105 281.34 487.995 281.662 488.18L357.678 532.121C362.915 535.148 369.423 535.148 374.661 532.121L443.924 492.083C444.246 491.898 444.657 492.008 444.843 492.33C445.029 492.652 444.919 493.064 444.597 493.25L375.334 533.288C372.507 534.922 369.338 535.738 366.169 535.738Z" fill="#263994"/>
<path d="M473.854 476.235C473.621 476.235 473.395 476.114 473.27 475.898C473.084 475.576 473.195 475.164 473.517 474.978L521.688 447.133C523.199 446.259 524.101 444.694 524.101 442.946C524.101 441.199 523.199 439.633 521.688 438.76L505.759 429.552C503.826 428.435 502.672 426.434 502.672 424.199C502.672 421.964 503.826 419.963 505.759 418.845L507.989 417.556C509.501 416.682 510.404 415.116 510.404 413.369C510.404 411.621 509.501 410.056 507.989 409.182L435.93 367.529C435.609 367.343 435.498 366.931 435.684 366.608C435.87 366.286 436.282 366.176 436.603 366.362L508.662 408.015C510.596 409.132 511.75 411.134 511.75 413.368C511.75 415.603 510.596 417.605 508.662 418.723L506.432 420.012C504.92 420.886 504.018 422.451 504.018 424.199C504.018 425.946 504.92 427.512 506.432 428.385L522.361 437.593C524.294 438.71 525.448 440.712 525.448 442.946C525.448 445.181 524.293 447.183 522.361 448.3L474.19 476.144C474.084 476.206 473.968 476.235 473.854 476.235Z" fill="#263994"/>
<path d="M622.641 342.761C622.408 342.761 622.182 342.64 622.057 342.424C621.871 342.102 621.982 341.69 622.303 341.504L633.99 334.749C634.312 334.563 634.723 334.673 634.909 334.995C635.095 335.317 634.985 335.729 634.663 335.915L622.976 342.671C622.87 342.732 622.755 342.761 622.641 342.761Z" fill="#263994"/>
<path d="M634.326 342.761C634.212 342.761 634.096 342.732 633.99 342.671L622.303 335.915C621.982 335.729 621.871 335.317 622.057 334.994C622.243 334.672 622.655 334.562 622.976 334.748L634.663 341.504C634.985 341.689 635.095 342.101 634.909 342.424C634.785 342.64 634.559 342.761 634.326 342.761Z" fill="#263994"/>
<g filter="url(#filter1_f_588_3508)">
<path d="M582.674 442.329C582.441 442.329 582.215 442.208 582.09 441.992C581.904 441.67 582.015 441.258 582.337 441.072L597.874 432.091C598.197 431.904 598.608 432.015 598.794 432.337C598.98 432.659 598.869 433.071 598.547 433.258L583.01 442.239C582.904 442.3 582.788 442.329 582.674 442.329Z" fill="#263994"/>
<path d="M598.21 442.329C598.096 442.329 597.98 442.3 597.874 442.239L582.337 433.258C582.015 433.072 581.904 432.66 582.09 432.337C582.276 432.014 582.688 431.904 583.01 432.091L598.547 441.072C598.869 441.258 598.98 441.669 598.794 441.992C598.669 442.208 598.443 442.329 598.21 442.329Z" fill="#263994"/>
</g>
<path d="M400.216 405.569L340.947 371.309C336.778 368.9 337.301 364.691 342.115 361.908L399.048 328.998C403.861 326.216 411.143 325.914 415.312 328.323L474.581 362.583C478.749 364.992 478.227 369.202 473.413 371.984L416.48 404.894C411.666 407.676 404.385 407.979 400.216 405.569Z" fill="#E0E6F9"/>
<path d="M472.797 354.773L416.399 387.372C413.917 388.809 410.765 389.575 407.73 389.644V251.608C410.765 251.539 413.917 250.773 416.399 249.336L472.797 216.732C475.077 215.418 476.373 213.773 476.666 212.161V348.776C477.07 350.808 475.752 353.065 472.797 354.773Z" fill="#80C1FF" stroke="#263994" stroke-width="2.9735" stroke-miterlimit="10" stroke-linecap="round" stroke-linejoin="round"/>
<path d="M308.99 352.864L249.683 318.582C245.512 316.171 246.035 311.959 250.851 309.175L307.821 276.244C312.638 273.46 319.924 273.157 324.095 275.569L383.403 309.851C387.574 312.262 387.051 316.473 382.234 319.258L325.265 352.189C320.448 354.973 313.161 355.275 308.99 352.864Z" fill="#E0E6F9"/>
<path d="M309.067 197.272L250.358 163.335C246.229 160.948 246.747 156.779 251.515 154.023L307.91 121.424C312.678 118.668 319.891 118.369 324.02 120.756L382.729 154.692C386.859 157.079 386.341 161.248 381.573 164.005L325.177 196.603C320.41 199.36 313.197 199.659 309.067 197.272Z" fill="white" stroke="#263994" stroke-width="2.9735" stroke-miterlimit="10" stroke-linecap="round" stroke-linejoin="round"/>
<path d="M375.922 160.777C374.238 161.75 371.507 161.75 369.823 160.777C368.14 159.803 368.14 158.225 369.823 157.251C371.507 156.278 374.238 156.278 375.922 157.251C377.606 158.225 377.606 159.803 375.922 160.777Z" fill="#E0E7F7" stroke="#263994" stroke-width="2.9735" stroke-miterlimit="10" stroke-linecap="round" stroke-linejoin="round"/>
<path d="M319.592 193.338C317.908 194.311 315.177 194.311 313.493 193.338C311.81 192.364 311.81 190.786 313.493 189.812C315.177 188.839 317.907 188.839 319.592 189.812C321.276 190.786 321.276 192.364 319.592 193.338Z" fill="#E0E7F7" stroke="#263994" stroke-width="2.9735" stroke-miterlimit="10" stroke-linecap="round" stroke-linejoin="round"/>
<path d="M263.262 160.776C261.578 161.75 258.847 161.75 257.163 160.776C255.479 159.803 255.479 158.224 257.163 157.251C258.847 156.277 261.577 156.277 263.262 157.251C264.946 158.225 264.946 159.803 263.262 160.776Z" fill="#E0E7F7" stroke="#263994" stroke-width="2.9735" stroke-miterlimit="10" stroke-linecap="round" stroke-linejoin="round"/>
<path d="M311.879 175.954L275.255 154.783C272.679 153.294 273.002 150.693 275.976 148.974L311.157 128.638C314.131 126.919 318.631 126.732 321.207 128.221L357.831 149.392C360.407 150.881 360.083 153.482 357.109 155.201L321.929 175.537C318.954 177.256 314.455 177.442 311.879 175.954Z" fill="white" stroke="#263994" stroke-width="2.9735" stroke-miterlimit="10" stroke-linecap="round" stroke-linejoin="round"/>
<path d="M333.393 142.866C333.278 142.866 333.163 142.837 333.057 142.775L316.206 133.035C315.884 132.849 315.773 132.437 315.96 132.115C316.146 131.793 316.557 131.682 316.879 131.868L333.73 141.608C334.052 141.794 334.162 142.207 333.976 142.529C333.851 142.745 333.625 142.866 333.393 142.866Z" fill="#263994"/>
<path d="M329.996 144.83C329.882 144.83 329.766 144.801 329.66 144.739L312.809 134.998C312.487 134.812 312.377 134.4 312.563 134.078C312.749 133.756 313.161 133.645 313.482 133.831L330.333 143.572C330.655 143.758 330.765 144.17 330.579 144.492C330.455 144.709 330.229 144.83 329.996 144.83Z" fill="#263994"/>
<path d="M326.6 146.793C326.485 146.793 326.37 146.764 326.264 146.703L309.413 136.962C309.091 136.776 308.981 136.364 309.167 136.041C309.353 135.719 309.764 135.609 310.086 135.795L326.937 145.536C327.259 145.721 327.369 146.134 327.183 146.456C327.058 146.673 326.832 146.793 326.6 146.793Z" fill="#263994"/>
<path d="M323.203 148.757C323.089 148.757 322.973 148.728 322.867 148.666L306.016 138.926C305.694 138.74 305.584 138.328 305.77 138.006C305.956 137.683 306.368 137.573 306.689 137.759L323.54 147.499C323.862 147.685 323.973 148.097 323.787 148.42C323.662 148.636 323.436 148.757 323.203 148.757Z" fill="#263994"/>
<path d="M319.54 172.218C320.84 171.466 320.84 170.248 319.54 169.496C318.24 168.745 316.132 168.745 314.832 169.496C313.532 170.248 313.532 171.466 314.832 172.218C316.132 172.969 318.24 172.969 319.54 172.218Z" fill="#80C1FF" stroke="#263994" stroke-width="2.9735" stroke-miterlimit="10" stroke-linecap="round" stroke-linejoin="round"/>
<path d="M327.108 167.842C328.408 167.091 328.408 165.873 327.108 165.121C325.808 164.369 323.701 164.369 322.401 165.121C321.101 165.872 321.101 167.09 322.401 167.842C323.701 168.594 325.808 168.594 327.108 167.842Z" fill="#80C1FF" stroke="#263994" stroke-width="2.9735" stroke-miterlimit="10" stroke-linecap="round" stroke-linejoin="round"/>
<path d="M357.109 155.201L321.929 175.537C318.954 177.256 314.455 177.443 311.879 175.954L275.255 154.783C274.017 154.068 273.456 153.095 273.529 152.087H273.516V159.014H273.529C273.455 160.022 274.017 160.994 275.255 161.71L311.879 182.88C314.455 184.369 318.954 184.182 321.929 182.463L357.11 162.128C358.655 161.234 359.477 160.104 359.557 159.014H359.562V158.893C359.563 158.827 359.566 158.761 359.562 158.695V152.088H359.557C359.477 153.177 358.654 154.307 357.109 155.201Z" fill="#E0E7F7" stroke="#263994" stroke-width="2.9735" stroke-miterlimit="10" stroke-linecap="round" stroke-linejoin="round"/>
<path d="M316.504 198.879V336.915C313.724 336.979 311.045 336.452 309.068 335.308L250.359 301.374C248.376 300.224 247.473 298.665 247.59 297.053H247.568V159.012H247.59C247.473 160.63 248.371 162.189 250.359 163.338L309.068 197.272C311.045 198.417 313.724 198.943 316.504 198.879Z" fill="white" stroke="#263994" stroke-width="2.9735" stroke-miterlimit="10" stroke-linecap="round" stroke-linejoin="round"/>
<path d="M381.575 302.039L325.178 334.643C322.691 336.08 319.539 336.846 316.504 336.915V198.879C319.539 198.81 322.691 198.039 325.178 196.602L381.57 164.003C383.855 162.684 385.152 161.044 385.445 159.427V296.048C385.848 298.08 384.53 300.331 381.575 302.039Z" fill="#80C1FF" stroke="#263994" stroke-width="2.9735" stroke-miterlimit="10" stroke-linecap="round" stroke-linejoin="round"/>
<path d="M316.062 245.556C313.315 245.556 310.69 245.001 308.731 243.868L250.022 209.931C247.927 208.72 246.828 207.011 246.913 205.106C246.91 205.08 246.908 205.053 246.908 205.026C246.908 204.654 247.199 204.352 247.57 204.352C247.757 204.352 247.947 204.43 248.074 204.567C248.201 204.705 248.277 204.888 248.263 205.075C248.161 206.489 249.024 207.798 250.695 208.764L309.404 242.701C313.341 244.976 320.266 244.677 324.842 242.032L381.237 209.433C383.253 208.267 384.512 206.807 384.781 205.321C384.847 204.955 385.199 204.712 385.563 204.779C385.928 204.845 386.171 205.196 386.105 205.562C385.764 207.444 384.274 209.234 381.91 210.6L325.515 243.2C322.817 244.758 319.353 245.556 316.062 245.556Z" fill="#263994"/>
<path d="M316.062 291.568C313.315 291.568 310.69 291.013 308.731 289.88L250.022 255.944C247.927 254.733 246.828 253.023 246.913 251.119C246.91 251.092 246.908 251.066 246.908 251.038C246.908 250.666 247.199 250.364 247.57 250.364C247.757 250.364 247.947 250.442 248.074 250.579C248.201 250.717 248.277 250.901 248.263 251.087C248.161 252.5 249.024 253.81 250.695 254.777L309.404 288.713C313.341 290.989 320.267 290.689 324.842 288.044L381.237 255.446C383.253 254.279 384.512 252.819 384.781 251.334C384.847 250.968 385.199 250.724 385.563 250.791C385.928 250.858 386.171 251.208 386.105 251.574C385.764 253.456 384.274 255.246 381.91 256.613L325.515 289.212C322.818 290.77 319.353 291.568 316.062 291.568Z" fill="#263994"/>
<path d="M275.301 201.502C275.301 203.602 273.828 204.454 272.012 203.404C270.196 202.354 268.723 199.8 268.723 197.7C268.723 195.599 270.196 194.748 272.012 195.799C273.829 196.848 275.301 199.402 275.301 201.502Z" fill="#80C1FF" stroke="#263994" stroke-width="2.9735" stroke-miterlimit="10" stroke-linecap="round" stroke-linejoin="round"/>
<path d="M284.686 206.927C284.686 209.027 283.214 209.879 281.397 208.828C279.58 207.778 278.107 205.225 278.107 203.124C278.107 201.024 279.58 200.173 281.397 201.223C283.214 202.274 284.686 204.827 284.686 206.927Z" fill="white" stroke="#263994" stroke-width="2.9735" stroke-miterlimit="10" stroke-linecap="round" stroke-linejoin="round"/>
<path d="M294.073 212.353C294.073 214.453 292.6 215.304 290.783 214.254C288.967 213.204 287.494 210.651 287.494 208.55C287.494 206.45 288.967 205.599 290.783 206.649C292.6 207.7 294.073 210.253 294.073 212.353Z" fill="white" stroke="#263994" stroke-width="2.9735" stroke-miterlimit="10" stroke-linecap="round" stroke-linejoin="round"/>
<path d="M275.301 247.514C275.301 249.614 273.828 250.466 272.012 249.416C270.196 248.366 268.723 245.812 268.723 243.712C268.723 241.612 270.196 240.76 272.012 241.811C273.829 242.861 275.301 245.414 275.301 247.514Z" fill="white" stroke="#263994" stroke-width="2.9735" stroke-miterlimit="10" stroke-linecap="round" stroke-linejoin="round"/>
<path d="M284.686 252.94C284.686 255.04 283.214 255.891 281.397 254.841C279.58 253.791 278.107 251.237 278.107 249.137C278.107 247.037 279.58 246.185 281.397 247.236C283.214 248.286 284.686 250.84 284.686 252.94Z" fill="#80C1FF" stroke="#263994" stroke-width="2.9735" stroke-miterlimit="10" stroke-linecap="round" stroke-linejoin="round"/>
<path d="M294.073 258.365C294.073 260.465 292.6 261.317 290.783 260.266C288.967 259.216 287.494 256.662 287.494 254.562C287.494 252.462 288.967 251.61 290.783 252.661C292.6 253.711 294.073 256.265 294.073 258.365Z" fill="#80C1FF" stroke="#263994" stroke-width="2.9735" stroke-miterlimit="10" stroke-linecap="round" stroke-linejoin="round"/>
<path d="M275.301 293.527C275.301 295.627 273.828 296.478 272.012 295.428C270.196 294.378 268.723 291.824 268.723 289.724C268.723 287.624 270.196 286.772 272.012 287.823C273.829 288.873 275.301 291.427 275.301 293.527Z" fill="white" stroke="#263994" stroke-width="2.9735" stroke-miterlimit="10" stroke-linecap="round" stroke-linejoin="round"/>
<path d="M284.686 298.952C284.686 301.052 283.214 301.904 281.397 300.853C279.58 299.803 278.107 297.249 278.107 295.149C278.107 293.049 279.58 292.197 281.397 293.247C283.214 294.298 284.686 296.852 284.686 298.952Z" fill="#80C1FF" stroke="#263994" stroke-width="2.9735" stroke-miterlimit="10" stroke-linecap="round" stroke-linejoin="round"/>
<path d="M294.073 304.377C294.073 306.478 292.6 307.329 290.783 306.279C288.967 305.229 287.494 302.675 287.494 300.574C287.494 298.474 288.967 297.623 290.783 298.673C292.6 299.724 294.073 302.277 294.073 304.377Z" fill="white" stroke="#263994" stroke-width="2.9735" stroke-miterlimit="10" stroke-linecap="round" stroke-linejoin="round"/>
<path d="M360.357 201.502C360.357 203.602 361.83 204.454 363.647 203.404C365.463 202.354 366.936 199.8 366.936 197.7C366.936 195.599 365.463 194.748 363.647 195.799C361.83 196.848 360.357 199.402 360.357 201.502Z" fill="white" stroke="#263994" stroke-width="2.9735" stroke-miterlimit="10" stroke-linecap="round" stroke-linejoin="round"/>
<path d="M350.971 206.927C350.971 209.027 352.444 209.879 354.26 208.828C356.077 207.778 357.549 205.225 357.549 203.124C357.549 201.024 356.077 200.173 354.26 201.223C352.444 202.274 350.971 204.827 350.971 206.927Z" fill="white" stroke="#263994" stroke-width="2.9735" stroke-miterlimit="10" stroke-linecap="round" stroke-linejoin="round"/>
<path d="M341.586 212.353C341.586 214.453 343.059 215.304 344.875 214.254C346.692 213.204 348.165 210.651 348.165 208.55C348.165 206.45 346.692 205.599 344.875 206.649C343.059 207.699 341.586 210.253 341.586 212.353Z" fill="white" stroke="#263994" stroke-width="2.9735" stroke-miterlimit="10" stroke-linecap="round" stroke-linejoin="round"/>
<path d="M360.357 247.514C360.357 249.614 361.83 250.466 363.647 249.416C365.463 248.366 366.936 245.812 366.936 243.712C366.936 241.612 365.463 240.76 363.647 241.811C361.83 242.861 360.357 245.414 360.357 247.514Z" fill="white" stroke="#263994" stroke-width="2.9735" stroke-miterlimit="10" stroke-linecap="round" stroke-linejoin="round"/>
<path d="M350.971 252.94C350.971 255.04 352.444 255.891 354.26 254.841C356.077 253.791 357.549 251.237 357.549 249.137C357.549 247.037 356.077 246.185 354.26 247.236C352.444 248.286 350.971 250.84 350.971 252.94Z" fill="white" stroke="#263994" stroke-width="2.9735" stroke-miterlimit="10" stroke-linecap="round" stroke-linejoin="round"/>
<path d="M341.586 258.365C341.586 260.465 343.059 261.317 344.875 260.266C346.692 259.216 348.165 256.662 348.165 254.562C348.165 252.462 346.692 251.61 344.875 252.661C343.059 253.711 341.586 256.265 341.586 258.365Z" fill="white" stroke="#263994" stroke-width="2.9735" stroke-miterlimit="10" stroke-linecap="round" stroke-linejoin="round"/>
<path d="M360.357 293.527C360.357 295.627 361.83 296.478 363.647 295.428C365.463 294.378 366.936 291.824 366.936 289.724C366.936 287.624 365.463 286.772 363.647 287.823C361.83 288.873 360.357 291.427 360.357 293.527Z" fill="white" stroke="#263994" stroke-width="2.9735" stroke-miterlimit="10" stroke-linecap="round" stroke-linejoin="round"/>
<path d="M350.971 298.952C350.971 301.052 352.444 301.904 354.26 300.853C356.077 299.803 357.549 297.249 357.549 295.149C357.549 293.049 356.077 292.197 354.26 293.247C352.444 294.298 350.971 296.852 350.971 298.952Z" fill="white" stroke="#263994" stroke-width="2.9735" stroke-miterlimit="10" stroke-linecap="round" stroke-linejoin="round"/>
<path d="M341.586 304.377C341.586 306.478 343.059 307.329 344.875 306.279C346.692 305.229 348.165 302.675 348.165 300.574C348.165 298.474 346.692 297.623 344.875 298.673C343.059 299.724 341.586 302.277 341.586 304.377Z" fill="white" stroke="#263994" stroke-width="2.9735" stroke-miterlimit="10" stroke-linecap="round" stroke-linejoin="round"/>
<path d="M267.371 179.689C267.257 179.689 267.141 179.66 267.035 179.598L252.135 170.985C251.814 170.8 251.703 170.387 251.889 170.065C252.075 169.743 252.487 169.632 252.809 169.819L267.708 178.431C268.03 178.618 268.141 179.029 267.955 179.352C267.83 179.568 267.604 179.689 267.371 179.689Z" fill="#263994"/>
<path d="M267.371 225.635C267.257 225.635 267.141 225.606 267.035 225.544L252.135 216.931C251.814 216.746 251.703 216.334 251.889 216.011C252.075 215.689 252.487 215.578 252.809 215.764L267.708 224.377C268.03 224.563 268.141 224.975 267.955 225.298C267.83 225.514 267.604 225.635 267.371 225.635Z" fill="#263994"/>
<path d="M267.371 271.581C267.257 271.581 267.141 271.552 267.035 271.49L252.135 262.878C251.814 262.692 251.703 262.28 251.889 261.958C252.074 261.636 252.487 261.525 252.809 261.711L267.708 270.324C268.03 270.509 268.141 270.921 267.955 271.244C267.83 271.46 267.604 271.581 267.371 271.581Z" fill="#263994"/>
<path d="M381.191 180.488C380.819 180.488 380.518 180.186 380.518 179.814V170.857C380.518 170.485 380.819 170.183 381.191 170.183C381.562 170.183 381.864 170.485 381.864 170.857V179.814C381.864 180.186 381.562 180.488 381.191 180.488Z" fill="#263994"/>
<path d="M381.191 226.871C380.819 226.871 380.518 226.57 380.518 226.198V217.241C380.518 216.869 380.819 216.567 381.191 216.567C381.562 216.567 381.864 216.869 381.864 217.241V226.198C381.864 226.57 381.562 226.871 381.191 226.871Z" fill="#263994"/>
<path d="M400.288 250.002L341.579 216.065C337.449 213.678 337.967 209.509 342.735 206.753L399.131 174.154C403.899 171.398 411.112 171.099 415.241 173.486L473.95 207.422C478.079 209.809 477.561 213.978 472.793 216.735L416.398 249.333C411.63 252.09 404.417 252.389 400.288 250.002Z" fill="white" stroke="#263994" stroke-width="2.9735" stroke-miterlimit="10" stroke-linecap="round" stroke-linejoin="round"/>
<path d="M381.191 273.255C380.819 273.255 380.518 272.953 380.518 272.581V263.625C380.518 263.253 380.819 262.951 381.191 262.951C381.562 262.951 381.864 263.253 381.864 263.625V272.581C381.864 272.953 381.562 273.255 381.191 273.255Z" fill="#263994"/>
<path d="M467.145 213.507C465.461 214.48 462.73 214.48 461.046 213.507C459.362 212.533 459.362 210.955 461.046 209.981C462.73 209.008 465.46 209.008 467.145 209.981C468.828 210.955 468.828 212.533 467.145 213.507Z" fill="#E0E7F7" stroke="#263994" stroke-width="2.9735" stroke-miterlimit="10" stroke-linecap="round" stroke-linejoin="round"/>
<path d="M410.814 246.068C409.131 247.041 406.4 247.041 404.716 246.068C403.032 245.094 403.032 243.516 404.716 242.543C406.4 241.569 409.131 241.569 410.814 242.543C412.499 243.516 412.499 245.094 410.814 246.068Z" fill="#E0E7F7" stroke="#263994" stroke-width="2.9735" stroke-miterlimit="10" stroke-linecap="round" stroke-linejoin="round"/>
<path d="M354.484 213.506C352.801 214.48 350.07 214.48 348.386 213.506C346.702 212.533 346.702 210.954 348.386 209.981C350.07 209.007 352.801 209.007 354.484 209.981C356.168 210.955 356.168 212.533 354.484 213.506Z" fill="#E0E7F7" stroke="#263994" stroke-width="2.9735" stroke-miterlimit="10" stroke-linecap="round" stroke-linejoin="round"/>
<path d="M403.101 228.684L366.477 207.513C363.901 206.024 364.224 203.423 367.199 201.704L402.379 181.368C405.354 179.649 409.853 179.462 412.429 180.951L449.053 202.122C451.629 203.611 451.306 206.212 448.332 207.931L413.151 228.267C410.176 229.986 405.677 230.172 403.101 228.684Z" fill="white" stroke="#263994" stroke-width="2.9735" stroke-miterlimit="10" stroke-linecap="round" stroke-linejoin="round"/>
<path d="M424.615 195.596C424.501 195.596 424.385 195.567 424.279 195.506L407.428 185.765C407.107 185.579 406.996 185.167 407.182 184.845C407.368 184.522 407.78 184.412 408.101 184.598L424.952 194.339C425.274 194.525 425.385 194.937 425.199 195.259C425.074 195.475 424.848 195.596 424.615 195.596Z" fill="#263994"/>
<path d="M421.219 197.56C421.105 197.56 420.989 197.531 420.883 197.469L404.032 187.729C403.71 187.543 403.6 187.131 403.786 186.808C403.971 186.487 404.383 186.376 404.705 186.562L421.556 196.302C421.878 196.488 421.988 196.9 421.802 197.222C421.677 197.439 421.451 197.56 421.219 197.56Z" fill="#263994"/>
<path d="M417.82 199.523C417.706 199.523 417.59 199.494 417.484 199.433L400.634 189.692C400.312 189.507 400.201 189.094 400.387 188.772C400.573 188.45 400.984 188.339 401.307 188.525L418.157 198.266C418.479 198.451 418.59 198.863 418.404 199.186C418.279 199.402 418.053 199.523 417.82 199.523Z" fill="#263994"/>
<path d="M414.424 201.487C414.31 201.487 414.194 201.458 414.088 201.397L397.237 191.656C396.915 191.47 396.805 191.058 396.991 190.736C397.176 190.413 397.588 190.303 397.91 190.489L414.761 200.23C415.083 200.416 415.193 200.828 415.007 201.15C414.883 201.366 414.656 201.487 414.424 201.487Z" fill="#263994"/>
<path d="M410.761 224.948C412.061 224.196 412.061 222.978 410.761 222.226C409.461 221.475 407.353 221.475 406.053 222.226C404.753 222.978 404.753 224.196 406.053 224.948C407.353 225.7 409.461 225.7 410.761 224.948Z" fill="#80C1FF" stroke="#263994" stroke-width="2.9735" stroke-miterlimit="10" stroke-linecap="round" stroke-linejoin="round"/>
<path d="M418.331 220.573C419.631 219.821 419.631 218.603 418.331 217.851C417.031 217.1 414.923 217.1 413.623 217.851C412.323 218.603 412.323 219.821 413.623 220.573C414.923 221.324 417.031 221.324 418.331 220.573Z" fill="#80C1FF" stroke="#263994" stroke-width="2.9735" stroke-miterlimit="10" stroke-linecap="round" stroke-linejoin="round"/>
<path d="M448.332 207.931L413.151 228.267C410.177 229.986 405.677 230.173 403.102 228.684L366.478 207.513C365.24 206.798 364.679 205.825 364.752 204.817H364.738V211.744H364.752C364.678 212.752 365.24 213.724 366.478 214.44L403.102 235.61C405.678 237.099 410.177 236.912 413.152 235.193L448.332 214.857C449.878 213.964 450.7 212.833 450.779 211.744H450.784V211.622C450.786 211.556 450.788 211.49 450.784 211.425V204.817H450.779C450.7 205.907 449.877 207.037 448.332 207.931Z" fill="#E0E7F7" stroke="#263994" stroke-width="2.9735" stroke-miterlimit="10" stroke-linecap="round" stroke-linejoin="round"/>
<path d="M407.729 251.608V389.644C404.95 389.708 402.265 389.181 400.288 388.037L341.579 354.102C339.597 352.953 338.693 351.393 338.815 349.781H338.789V211.746H338.81C338.694 213.358 339.597 214.917 341.58 216.067L400.289 250.001C402.266 251.145 404.95 251.672 407.729 251.608Z" fill="white" stroke="#263994" stroke-width="2.9735" stroke-miterlimit="10" stroke-linecap="round" stroke-linejoin="round"/>
<path d="M407.283 298.286C404.537 298.286 401.911 297.731 399.952 296.598L341.243 262.661C339.148 261.45 338.048 259.741 338.134 257.836C338.131 257.81 338.129 257.783 338.129 257.756C338.129 257.384 338.42 257.082 338.791 257.082C338.978 257.082 339.167 257.16 339.294 257.297C339.422 257.435 339.497 257.619 339.484 257.805C339.381 259.219 340.244 260.528 341.916 261.494L400.625 295.431C404.562 297.706 411.487 297.406 416.062 294.762L472.457 262.163C474.474 260.997 475.732 259.537 476.001 258.051C476.067 257.685 476.418 257.441 476.783 257.509C477.149 257.575 477.392 257.926 477.326 258.292C476.985 260.174 475.495 261.964 473.13 263.33L416.735 295.93C414.038 297.488 410.574 298.286 407.283 298.286Z" fill="#263994"/>
<path d="M407.284 344.298C404.538 344.298 401.912 343.743 399.952 342.61L341.243 308.674C339.148 307.463 338.048 305.753 338.134 303.849C338.131 303.823 338.129 303.796 338.129 303.769C338.129 303.397 338.42 303.095 338.791 303.095C338.978 303.095 339.167 303.173 339.294 303.31C339.422 303.447 339.497 303.631 339.484 303.818C339.381 305.231 340.245 306.541 341.916 307.507L400.625 341.443C404.562 343.719 411.487 343.419 416.062 340.775L472.457 308.176C474.474 307.01 475.732 305.549 476.001 304.064C476.067 303.698 476.418 303.455 476.783 303.521C477.149 303.588 477.392 303.938 477.326 304.304C476.985 306.186 475.495 307.976 473.13 309.343L416.735 341.942C414.039 343.5 410.575 344.298 407.284 344.298Z" fill="#263994"/>
<path d="M366.522 254.232C366.522 256.332 365.049 257.184 363.233 256.133C361.416 255.083 359.943 252.53 359.943 250.429C359.943 248.329 361.416 247.478 363.233 248.528C365.049 249.578 366.522 252.132 366.522 254.232Z" fill="white" stroke="#263994" stroke-width="2.9735" stroke-miterlimit="10" stroke-linecap="round" stroke-linejoin="round"/>
<path d="M375.907 259.657C375.907 261.757 374.434 262.609 372.617 261.559C370.801 260.508 369.328 257.955 369.328 255.854C369.328 253.754 370.801 252.903 372.617 253.953C374.434 255.004 375.907 257.557 375.907 259.657Z" fill="#80C1FF" stroke="#263994" stroke-width="2.9735" stroke-miterlimit="10" stroke-linecap="round" stroke-linejoin="round"/>
<path d="M385.294 265.083C385.294 267.183 383.821 268.034 382.004 266.984C380.188 265.934 378.715 263.381 378.715 261.28C378.715 259.18 380.188 258.329 382.004 259.379C383.821 260.429 385.294 262.983 385.294 265.083Z" fill="#80C1FF" stroke="#263994" stroke-width="2.9735" stroke-miterlimit="10" stroke-linecap="round" stroke-linejoin="round"/>
<path d="M366.522 300.244C366.522 302.344 365.049 303.196 363.233 302.146C361.416 301.096 359.943 298.542 359.943 296.441C359.943 294.341 361.416 293.49 363.233 294.54C365.049 295.591 366.522 298.144 366.522 300.244Z" fill="white" stroke="#263994" stroke-width="2.9735" stroke-miterlimit="10" stroke-linecap="round" stroke-linejoin="round"/>
<path d="M375.907 305.67C375.907 307.77 374.434 308.622 372.617 307.571C370.801 306.521 369.328 303.967 369.328 301.867C369.328 299.767 370.801 298.916 372.617 299.966C374.434 301.016 375.907 303.57 375.907 305.67Z" fill="white" stroke="#263994" stroke-width="2.9735" stroke-miterlimit="10" stroke-linecap="round" stroke-linejoin="round"/>
<path d="M385.294 311.095C385.294 313.195 383.821 314.047 382.004 312.996C380.188 311.946 378.715 309.392 378.715 307.292C378.715 305.192 380.188 304.34 382.004 305.391C383.821 306.441 385.294 308.995 385.294 311.095Z" fill="#80C1FF" stroke="#263994" stroke-width="2.9735" stroke-miterlimit="10" stroke-linecap="round" stroke-linejoin="round"/>
<path d="M366.522 346.257C366.522 348.357 365.049 349.209 363.233 348.158C361.416 347.108 359.943 344.554 359.943 342.454C359.943 340.354 361.416 339.502 363.233 340.553C365.049 341.603 366.522 344.157 366.522 346.257Z" fill="#80C1FF" stroke="#263994" stroke-width="2.9735" stroke-miterlimit="10" stroke-linecap="round" stroke-linejoin="round"/>
<path d="M375.907 351.682C375.907 353.782 374.434 354.634 372.617 353.583C370.801 352.533 369.328 349.979 369.328 347.879C369.328 345.779 370.801 344.928 372.617 345.978C374.434 347.028 375.907 349.582 375.907 351.682Z" fill="white" stroke="#263994" stroke-width="2.9735" stroke-miterlimit="10" stroke-linecap="round" stroke-linejoin="round"/>
<path d="M385.294 357.108C385.294 359.208 383.821 360.059 382.004 359.009C380.188 357.959 378.715 355.405 378.715 353.304C378.715 351.204 380.188 350.353 382.004 351.403C383.821 352.453 385.294 355.007 385.294 357.108Z" fill="#80C1FF" stroke="#263994" stroke-width="2.9735" stroke-miterlimit="10" stroke-linecap="round" stroke-linejoin="round"/>
<path d="M451.58 254.232C451.58 256.332 453.053 257.184 454.869 256.133C456.686 255.083 458.159 252.53 458.159 250.429C458.159 248.329 456.686 247.478 454.869 248.528C453.053 249.578 451.58 252.132 451.58 254.232Z" fill="#80C1FF" stroke="#263994" stroke-width="2.9735" stroke-miterlimit="10" stroke-linecap="round" stroke-linejoin="round"/>
<path d="M442.193 259.657C442.193 261.757 443.666 262.609 445.483 261.559C447.299 260.508 448.772 257.955 448.772 255.854C448.772 253.754 447.3 252.903 445.483 253.953C443.666 255.004 442.193 257.557 442.193 259.657Z" fill="white" stroke="#263994" stroke-width="2.9735" stroke-miterlimit="10" stroke-linecap="round" stroke-linejoin="round"/>
<path d="M432.809 265.083C432.809 267.183 434.281 268.034 436.098 266.984C437.914 265.934 439.387 263.381 439.387 261.28C439.387 259.18 437.915 258.329 436.098 259.379C434.281 260.429 432.809 262.983 432.809 265.083Z" fill="white" stroke="#263994" stroke-width="2.9735" stroke-miterlimit="10" stroke-linecap="round" stroke-linejoin="round"/>
<path d="M451.58 300.244C451.58 302.344 453.053 303.196 454.869 302.146C456.686 301.096 458.159 298.542 458.159 296.441C458.159 294.341 456.686 293.49 454.869 294.54C453.053 295.591 451.58 298.144 451.58 300.244Z" fill="#80C1FF" stroke="#263994" stroke-width="2.9735" stroke-miterlimit="10" stroke-linecap="round" stroke-linejoin="round"/>
<path d="M442.193 305.67C442.193 307.77 443.666 308.622 445.483 307.571C447.299 306.521 448.772 303.967 448.772 301.867C448.772 299.767 447.3 298.916 445.483 299.966C443.666 301.016 442.193 303.57 442.193 305.67Z" fill="#80C1FF" stroke="#263994" stroke-width="2.9735" stroke-miterlimit="10" stroke-linecap="round" stroke-linejoin="round"/>
<path d="M432.809 311.095C432.809 313.195 434.281 314.047 436.098 312.996C437.914 311.946 439.387 309.392 439.387 307.292C439.387 305.192 437.915 304.34 436.098 305.391C434.281 306.441 432.809 308.995 432.809 311.095Z" fill="#80C1FF" stroke="#263994" stroke-width="2.9735" stroke-miterlimit="10" stroke-linecap="round" stroke-linejoin="round"/>
<path d="M451.58 346.257C451.58 348.357 453.053 349.209 454.869 348.158C456.686 347.108 458.159 344.554 458.159 342.454C458.159 340.354 456.686 339.502 454.869 340.553C453.053 341.603 451.58 344.157 451.58 346.257Z" fill="white" stroke="#263994" stroke-width="2.9735" stroke-miterlimit="10" stroke-linecap="round" stroke-linejoin="round"/>
<path d="M447.801 351.153C449.086 348.925 449.086 346.518 447.802 345.775C446.517 345.033 444.435 346.236 443.15 348.464C441.866 350.691 441.865 353.099 443.15 353.842C444.434 354.584 446.517 353.38 447.801 351.153Z" fill="#80C1FF" stroke="#263994" stroke-width="2.9735" stroke-miterlimit="10" stroke-linecap="round" stroke-linejoin="round"/>
<path d="M432.809 357.108C432.809 359.208 434.281 360.059 436.098 359.009C437.914 357.959 439.387 355.405 439.387 353.304C439.387 351.204 437.915 350.353 436.098 351.403C434.281 352.453 432.809 355.007 432.809 357.108Z" fill="white" stroke="#263994" stroke-width="2.9735" stroke-miterlimit="10" stroke-linecap="round" stroke-linejoin="round"/>
<path d="M358.592 232.418C358.478 232.418 358.362 232.389 358.256 232.328L343.356 223.716C343.034 223.53 342.924 223.118 343.11 222.795C343.296 222.473 343.707 222.363 344.029 222.549L358.929 231.161C359.251 231.347 359.361 231.759 359.175 232.082C359.051 232.298 358.825 232.418 358.592 232.418Z" fill="#263994"/>
<path d="M358.592 278.365C358.478 278.365 358.362 278.336 358.256 278.275L343.356 269.662C343.034 269.476 342.924 269.064 343.11 268.741C343.296 268.419 343.707 268.309 344.029 268.495L358.929 277.108C359.251 277.293 359.361 277.705 359.175 278.028C359.051 278.244 358.825 278.365 358.592 278.365Z" fill="#263994"/>
<path d="M358.592 324.311C358.478 324.311 358.362 324.282 358.256 324.221L343.356 315.608C343.034 315.422 342.924 315.011 343.11 314.688C343.296 314.366 343.707 314.255 344.029 314.441L358.929 323.054C359.251 323.24 359.361 323.652 359.175 323.974C359.051 324.191 358.825 324.311 358.592 324.311Z" fill="#263994"/>
<path d="M472.411 233.218C472.04 233.218 471.738 232.916 471.738 232.544V223.587C471.738 223.215 472.04 222.913 472.411 222.913C472.783 222.913 473.084 223.215 473.084 223.587V232.544C473.084 232.916 472.783 233.218 472.411 233.218Z" fill="#263994"/>
<path d="M472.411 279.602C472.04 279.602 471.738 279.3 471.738 278.928V269.971C471.738 269.599 472.04 269.297 472.411 269.297C472.783 269.297 473.084 269.599 473.084 269.971V278.928C473.084 279.3 472.783 279.602 472.411 279.602Z" fill="#263994"/>
<path d="M472.411 325.985C472.04 325.985 471.738 325.683 471.738 325.311V316.354C471.738 315.982 472.04 315.68 472.411 315.68C472.783 315.68 473.084 315.982 473.084 316.354V325.311C473.084 325.683 472.783 325.985 472.411 325.985Z" fill="#263994"/>
<path d="M315.404 489.914C312.234 489.914 309.066 489.098 306.239 487.464L295.534 481.275C295.212 481.089 295.102 480.677 295.288 480.355C295.474 480.033 295.885 479.922 296.207 480.108L306.912 486.297C312.15 489.324 318.657 489.324 323.895 486.297L364.723 462.858C366.237 461.983 367.139 460.414 367.135 458.661C367.131 456.909 366.221 455.344 364.701 454.475L335.336 437.685C333.392 436.574 332.229 434.573 332.224 432.332C332.218 430.091 333.372 428.084 335.311 426.964L360.648 412.156C362.162 411.281 363.065 409.716 363.065 407.967C363.065 406.22 362.162 404.655 360.651 403.781L357.973 402.233C356.04 401.116 354.886 399.114 354.886 396.879C354.886 394.644 356.04 392.643 357.973 391.525L382.484 377.357C382.806 377.171 383.217 377.281 383.404 377.603C383.59 377.925 383.479 378.337 383.157 378.524L358.646 392.692C357.134 393.566 356.232 395.131 356.232 396.879C356.232 398.627 357.134 400.192 358.646 401.066L361.324 402.614C363.257 403.731 364.411 405.733 364.411 407.967C364.411 410.202 363.257 412.204 361.324 413.321L335.986 428.129C334.468 429.007 333.565 430.576 333.569 432.329C333.573 434.081 334.483 435.646 336.003 436.515L365.368 453.305C367.312 454.416 368.475 456.417 368.481 458.658C368.486 460.899 367.332 462.906 365.393 464.026L324.566 487.465C321.74 489.098 318.572 489.914 315.404 489.914Z" fill="#263994"/>
<path d="M483.06 266.85C482.688 266.85 482.387 266.549 482.387 266.176V238.601C482.387 238.229 482.688 237.927 483.06 237.927C483.431 237.927 483.733 238.229 483.733 238.601V266.176C483.733 266.549 483.431 266.85 483.06 266.85Z" fill="#263994"/>
<path d="M488.429 296.16C488.057 296.16 487.756 295.859 487.756 295.486V253.516C487.756 253.144 488.057 252.842 488.429 252.842C488.801 252.842 489.102 253.144 489.102 253.516V295.486C489.102 295.859 488.801 296.16 488.429 296.16Z" fill="#263994"/>
<path d="M241.122 274.649C240.751 274.649 240.449 274.347 240.449 273.975V244.896C240.449 244.524 240.751 244.222 241.122 244.222C241.494 244.222 241.795 244.524 241.795 244.896V273.975C241.795 274.347 241.494 274.649 241.122 274.649Z" fill="#263994"/>
<path d="M241.122 207.594C240.751 207.594 240.449 207.293 240.449 206.921V179.814C240.449 179.442 240.751 179.14 241.122 179.14C241.494 179.14 241.795 179.441 241.795 179.814V206.921C241.795 207.293 241.494 207.594 241.122 207.594Z" fill="#263994"/>
<path d="M236.042 217.961C235.671 217.961 235.369 217.66 235.369 217.288V198.883C235.369 198.511 235.671 198.209 236.042 198.209C236.414 198.209 236.715 198.511 236.715 198.883V217.288C236.715 217.66 236.414 217.961 236.042 217.961Z" fill="#263994"/>
<defs>
<filter id="filter0_f_588_3508" x="47.5137" y="470.513" width="30.7617" height="22.4125" filterUnits="userSpaceOnUse" color-interpolation-filters="sRGB">
<feFlood flood-opacity="0" result="BackgroundImageFix"/>
<feBlend mode="normal" in="SourceGraphic" in2="BackgroundImageFix" result="shape"/>
<feGaussianBlur stdDeviation="2" result="effect1_foregroundBlur_588_3508"/>
</filter>
<filter id="filter1_f_588_3508" x="578" y="428" width="24.8848" height="18.329" filterUnits="userSpaceOnUse" color-interpolation-filters="sRGB">
<feFlood flood-opacity="0" result="BackgroundImageFix"/>
<feBlend mode="normal" in="SourceGraphic" in2="BackgroundImageFix" result="shape"/>
<feGaussianBlur stdDeviation="2" result="effect1_foregroundBlur_588_3508"/>
</filter>
</defs>
</svg>
