<svg width="80" height="72" viewBox="0 0 80 72" fill="none" xmlns="http://www.w3.org/2000/svg">
<path d="M3.06211 51.9112L34.2408 69.9339C37.2952 71.6995 42.63 71.4779 46.1566 69.4394L75.6243 52.4061C79.1509 50.3677 79.5342 47.2838 76.4798 45.5182L45.3011 27.4956C42.2466 25.73 36.9119 25.9516 33.3853 27.99L3.91755 45.0233C0.390583 47.0617 0.00769776 50.1456 3.06211 51.9112Z" fill="#E0E6F9"/>
<path d="M3.68705 27.1716L34.3348 44.8874C37.3372 46.6231 42.581 46.4051 46.0478 44.4011L75.0136 27.6578C78.4803 25.6539 78.857 22.6225 75.8546 20.8873L45.2068 3.1715C42.2044 1.43627 36.9606 1.65379 33.4938 3.65777L4.52801 20.401C1.06125 22.405 0.684689 25.4363 3.68705 27.1716Z" fill="white" stroke="#263994" stroke-width="2.9735" stroke-miterlimit="10" stroke-linecap="round" stroke-linejoin="round"/>
<path d="M1.6759 24.0297H1.66992V24.1691C1.67084 24.1225 1.67224 24.0763 1.6759 24.0297Z" stroke="#263994" stroke-width="2.9735" stroke-miterlimit="10" stroke-linecap="round" stroke-linejoin="round"/>
<path d="M75.0135 27.6578L46.0477 44.4011C42.581 46.4051 37.3372 46.6226 34.3348 44.8874L3.68653 27.1716C2.39741 26.4261 1.73568 25.4418 1.66959 24.4026V37.8857H1.67545C1.58945 39.0604 2.24396 40.1938 3.68653 41.0276L34.3348 58.7435C37.3372 60.4787 42.581 60.2612 46.0477 58.2576L75.0135 41.5139C76.8146 40.4729 77.7733 39.1551 77.8661 37.8857H77.8719V37.7443C77.8733 37.6673 77.8765 37.5903 77.8719 37.5137V24.0297H77.8656C77.7733 25.299 76.8146 26.6169 75.0135 27.6578Z" fill="#80C1FF" stroke="#263994" stroke-width="2.9735" stroke-miterlimit="10" stroke-linecap="round" stroke-linejoin="round"/>
<path d="M18.7047 25.8637L36.5967 36.2057C38.3493 37.2186 41.4105 37.0917 43.4347 35.9221L60.3445 26.1474C62.3682 24.9777 62.5882 23.208 60.8356 22.1947L42.9436 11.8526C41.191 10.8398 38.1298 10.9666 36.1056 12.1363L19.1959 21.911C17.1717 23.0811 16.9521 24.8508 18.7047 25.8637Z" fill="#80C1FF" stroke="#263994" stroke-width="2.9735" stroke-miterlimit="10" stroke-linecap="round" stroke-linejoin="round"/>
<path d="M29.0439 24.9637L38.1556 30.2305C39.0482 30.7463 40.6071 30.6819 41.6377 30.086L50.2492 25.1082C51.2799 24.5123 51.3917 23.6114 50.4991 23.0952L41.3874 17.8283C40.4948 17.3126 38.9359 17.3769 37.9053 17.9729L29.2938 22.9506C28.2636 23.5466 28.1513 24.448 29.0439 24.9637Z" fill="white" stroke="#263994" stroke-width="2.9735" stroke-miterlimit="10" stroke-linecap="round" stroke-linejoin="round"/>
<path d="M50.2491 25.1082L41.6376 30.086C40.607 30.6819 39.0481 30.7463 38.1555 30.2306L29.0438 24.9637C28.6152 24.7158 28.4237 24.3786 28.4495 24.0297H28.4414V31.4913L36.5984 36.2062C38.351 37.2191 41.4122 37.0922 43.436 35.9225L51.1014 31.4913V24.0297H51.0933C51.0661 24.4072 50.7846 24.7987 50.2491 25.1082Z" fill="#E0E7F7" stroke="#263994" stroke-width="2.9735" stroke-miterlimit="10" stroke-linecap="round" stroke-linejoin="round"/>
</svg>
