<svg width="120" height="83" viewBox="0 0 120 83" fill="none" xmlns="http://www.w3.org/2000/svg">
<path d="M50.442 80.6602L2 52.659L69.5633 13.6042L118.005 41.6058L50.442 80.6602Z" fill="white" stroke="#263994" stroke-width="2.9735" stroke-miterlimit="10" stroke-linecap="round" stroke-linejoin="round"/>
<path d="M50.442 74.8581L2 46.8565L69.5633 7.80212L118.005 35.8038L50.442 74.8581Z" fill="white" stroke="#263994" stroke-width="2.9735" stroke-miterlimit="10" stroke-linecap="round" stroke-linejoin="round"/>
<path d="M50.442 69.0556L2 41.0544L69.5633 2L118.005 30.0012L50.442 69.0556Z" fill="white" stroke="#263994" stroke-width="2.9735" stroke-miterlimit="10" stroke-linecap="round" stroke-linejoin="round"/>
<path d="M84.1156 22.2636C84.0016 22.2636 83.8857 22.2346 83.7798 22.1734L66.321 12.0815C65.9991 11.8957 65.8887 11.4838 66.0748 11.1611C66.2603 10.8389 66.6718 10.7283 66.9941 10.9146L84.4533 21.0065C84.7751 21.1923 84.8856 21.6042 84.6995 21.9269C84.5741 22.1426 84.3483 22.2636 84.1156 22.2636Z" fill="#263994"/>
<path d="M91.9506 37.2485C91.8365 37.2485 91.7206 37.2195 91.6147 37.1583L57.2761 17.3089C56.9543 17.1231 56.8438 16.7112 57.0298 16.3885C57.2159 16.0667 57.6273 15.9557 57.9491 16.142L92.2878 35.9914C92.6096 36.1772 92.7201 36.5891 92.534 36.9118C92.4091 37.128 92.1832 37.2485 91.9506 37.2485Z" fill="#263994"/>
<path d="M86.2786 40.5273C86.1646 40.5273 86.0487 40.4983 85.9428 40.4371L51.6042 20.5877C51.2823 20.4015 51.1719 19.99 51.358 19.6673C51.544 19.3451 51.9554 19.235 52.2772 19.4208L86.6158 39.2702C86.9377 39.456 87.0481 39.8679 86.8621 40.1906C86.7376 40.4068 86.5113 40.5273 86.2786 40.5273Z" fill="#263994"/>
<path d="M80.6068 43.8061C80.4927 43.8061 80.3768 43.777 80.2709 43.7159L45.9323 23.8665C45.6105 23.6807 45.5 23.2688 45.6861 22.9461C45.8721 22.6239 46.2831 22.5133 46.6054 22.6996L80.944 42.5489C81.2658 42.7347 81.3763 43.1467 81.1902 43.4694C81.0658 43.6851 80.8394 43.8061 80.6068 43.8061Z" fill="#263994"/>
<path d="M74.9329 47.0845C74.8189 47.0845 74.703 47.0554 74.5971 46.9942L40.2585 27.1453C39.9366 26.9595 39.8262 26.5476 40.0123 26.2249C40.1978 25.9031 40.6097 25.7926 40.9316 25.9784L75.2701 45.8273C75.592 46.0131 75.7024 46.4251 75.5164 46.7477C75.3919 46.9639 75.1656 47.0845 74.9329 47.0845Z" fill="#263994"/>
<path d="M69.263 50.3632C69.1489 50.3632 69.0331 50.3342 68.9272 50.273L34.5885 30.4236C34.2667 30.2378 34.1563 29.8259 34.3423 29.5032C34.5279 29.181 34.9394 29.0704 35.2616 29.2567L69.6002 49.1061C69.9221 49.2923 70.0325 49.7038 69.8465 50.0265C69.7216 50.2426 69.4952 50.3632 69.263 50.3632Z" fill="#263994"/>
<path d="M54.8514 48.5908C54.7374 48.5908 54.6215 48.5618 54.5156 48.5006L28.9147 33.7024C28.5929 33.5166 28.4825 33.1046 28.6685 32.782C28.8545 32.4597 29.2655 32.3492 29.5878 32.5354L55.1887 47.3336C55.5105 47.5194 55.6209 47.9314 55.4349 48.2541C55.3104 48.4702 55.0841 48.5908 54.8514 48.5908Z" fill="#263994"/>
<path d="M46.962 60.2457C46.4614 60.2457 45.9458 60.1977 45.4421 60.0998C44.4254 59.9022 43.4328 59.5156 42.4076 58.9174C40.6486 57.8914 39.3432 56.6012 38.6326 55.1864C38.4655 54.8537 38.5995 54.4491 38.9318 54.2818C39.2635 54.1137 39.6682 54.2483 39.8352 54.581C40.4282 55.7624 41.5521 56.8587 43.0852 57.7532C43.9778 58.2735 44.8323 58.6084 45.6992 58.7765C46.6456 58.9614 47.6586 58.9329 48.4118 58.7094C47.6003 58.3967 46.9648 58.0315 46.4922 57.6091C46.0599 57.2221 45.7711 56.7562 45.6535 56.274C44.525 56.1712 43.2821 55.9459 42.1948 55.4882C40.3702 54.7192 39.3912 53.3986 39.7008 52.1229C39.7307 51.9987 39.7723 51.8782 39.8235 51.7612C37.6241 51.4232 35.5369 50.8975 33.6924 50.4329C33.3321 50.3423 33.1135 49.9757 33.204 49.615C33.2946 49.2542 33.6612 49.0371 34.0206 49.126C36.0498 49.6376 38.3804 50.2245 40.8075 50.5394C41.3615 50.0772 42.0473 49.6856 42.7154 49.3408C43.6718 48.8472 44.7332 48.381 46.0192 48.3075C46.9195 48.2604 48.1213 48.4802 48.7767 49.0979C49.1469 49.4469 49.2262 49.8148 49.2271 50.0618C49.2298 50.7234 48.6898 51.3221 47.7827 51.6643C47.0851 51.9276 46.2853 52.0132 45.6661 52.059C44.1932 52.1673 42.7194 52.1102 41.2805 51.9534C41.1456 52.1138 41.0483 52.2779 41.0085 52.441C40.87 53.0116 41.5883 53.7707 42.7172 54.246C43.5437 54.5941 44.5888 54.8275 45.7915 54.9349C45.9734 54.5601 46.2772 54.2292 46.685 53.9691C47.2128 53.6333 47.8809 53.4416 48.525 53.4416C48.5372 53.4416 48.5499 53.4416 48.5621 53.4416C49.3443 53.4503 50.2337 53.7738 50.4564 54.4772C50.6714 55.1565 50.1699 55.8381 49.2374 56.1353C48.6368 56.3261 47.961 56.3483 47.364 56.3506C47.2951 56.3506 47.225 56.3502 47.153 56.3493C47.2178 56.4367 47.297 56.5224 47.3884 56.6044C47.8986 57.0603 48.7355 57.4532 49.8843 57.7768C49.9952 57.6644 50.1052 57.547 50.2183 57.4251C50.7162 56.8922 51.2802 56.2876 52.2281 55.9047C53.1225 55.5435 54.2753 55.4352 55.3105 55.6147C56.3932 55.8018 57.318 56.3035 57.7833 56.9556C58.1395 57.4555 58.2002 58.0097 57.9494 58.4756C57.5448 59.2265 56.4471 59.5274 55.5975 59.6479C54.1459 59.8532 52.5177 59.754 50.6207 59.3457C50.4922 59.3176 50.3659 59.289 50.2423 59.26C49.9309 59.5007 49.5665 59.721 49.1179 59.8918C48.5042 60.1261 47.751 60.2457 46.962 60.2457ZM51.4047 58.1294C52.9156 58.4144 54.2608 58.4769 55.4092 58.3134C56.2742 58.191 56.6938 57.9427 56.7617 57.8411C56.7504 57.8497 56.7341 57.8026 56.6884 57.7382C56.4322 57.3793 55.8012 57.0666 55.0815 56.9425C54.2934 56.8061 53.3931 56.8872 52.7314 57.1541C52.1601 57.3852 51.7871 57.7283 51.4047 58.1294ZM48.525 54.789C48.2095 54.789 47.8764 54.866 47.5953 55.0015C48.0199 54.9952 48.4711 54.9648 48.8301 54.8506C48.8513 54.8438 48.8713 54.837 48.8907 54.8297C48.7916 54.8071 48.6748 54.7903 48.5472 54.789C48.5395 54.789 48.5322 54.789 48.525 54.789ZM42.9557 50.7362C43.8257 50.7806 44.6984 50.7788 45.5674 50.7149C46.0961 50.6763 46.7719 50.6056 47.3083 50.4035C47.6084 50.2898 47.784 50.1538 47.8542 50.0745C47.6609 49.8814 46.9326 49.6018 46.0957 49.653C45.061 49.712 44.1561 50.113 43.3319 50.5381C43.2368 50.5871 43.1065 50.6546 42.9557 50.7362Z" fill="#263994"/>
</svg>
