<svg width="169" height="172" viewBox="0 0 169 172" fill="none" xmlns="http://www.w3.org/2000/svg">
<path d="M111.275 43.3847L86.5709 58.0962C86.444 58.0205 86.3197 57.9538 86.1927 57.8811C80.2922 42.7153 69.2869 28.446 56.6838 21.1598C56.5568 21.0871 56.4265 21.0114 56.2995 20.9417C53.6609 19.448 51.0949 18.3454 48.6287 17.612C43.0852 15.9609 38.0711 16.1822 33.959 18.0606L57.3646 4.44877C57.3706 4.44279 57.3798 4.43651 57.3858 4.43352L57.9245 4.12154C64.0703 0.719391 72.4823 1.29818 81.7627 6.66343C94.3688 13.9496 105.374 28.2189 111.275 43.3847Z" fill="white" stroke="#263994" stroke-width="2.9735" stroke-miterlimit="10" stroke-linecap="round" stroke-linejoin="round"/>
<path d="M132.038 67.8213L106.959 82.3177C102.508 72.2354 95.0398 62.9891 86.5703 58.0965L111.274 43.385C111.398 43.4577 111.525 43.5244 111.652 43.6001C120.119 48.4927 127.59 57.739 132.038 67.8213Z" fill="white" stroke="#263994" stroke-width="2.9735" stroke-miterlimit="10" stroke-linecap="round" stroke-linejoin="round"/>
<path d="M128.162 117.927C128.162 124.204 126.022 128.667 122.539 130.854L122.506 130.876L122.497 130.879C118.818 133.166 113.652 132.924 107.936 129.618L27.1498 82.9207V82.9147C15.987 76.2406 7 60.5202 7 47.5628C6.99702 41.2096 9.16032 36.6896 12.6797 34.469L13.2273 34.1477L13.2426 34.1417C15.9508 32.6725 19.3791 32.4787 23.2041 33.7448C23.6489 31.3333 24.3238 29.1489 25.2072 27.2133C25.2162 27.1921 25.2285 27.1679 25.2374 27.1466C27.2104 22.8507 30.209 19.7695 33.9522 18.0639C33.9522 18.0639 33.9552 18.061 33.9581 18.061C38.0703 16.1825 43.0843 15.9615 48.6277 17.6123C50.9727 18.3092 53.4118 19.3454 55.9142 20.7297C56.0442 20.7994 56.1714 20.8721 56.2984 20.9417C56.4253 21.0114 56.5556 21.0871 56.6826 21.1598C69.2857 28.446 80.2908 42.7153 86.1915 57.8811C86.3185 57.9538 86.4428 58.0205 86.5697 58.0962C95.0392 62.9888 102.507 72.2351 106.959 82.3174C107.282 82.487 107.609 82.6659 107.936 82.8537C117.431 88.3464 125.402 100.519 127.574 111.977C127.959 113.998 128.162 115.994 128.162 117.927Z" stroke="#263994" stroke-width="2.9735" stroke-miterlimit="10" stroke-linecap="round" stroke-linejoin="round"/>
<path d="M153.241 103.431C153.241 110.066 150.85 114.674 147.007 116.712L122.54 130.854C126.022 128.667 128.162 124.204 128.162 117.927C128.162 115.994 127.959 113.998 127.575 111.977C125.402 100.519 117.432 88.3467 107.937 82.8537C107.61 82.6659 107.283 82.4873 106.959 82.3174L132.038 67.821C132.362 67.9876 132.688 68.1695 133.015 68.357C144.184 74.8135 153.241 90.5156 153.241 103.431Z" fill="white" stroke="#263994" stroke-width="2.9735" stroke-miterlimit="10" stroke-linecap="round" stroke-linejoin="round"/>
<path d="M25.239 27.1463C25.2297 27.1675 25.2178 27.1918 25.2088 27.213C24.3254 29.1489 23.6505 31.333 23.2056 33.7445C19.3809 32.4783 15.9524 32.6722 13.2441 34.1414L25.239 27.1463Z" fill="white" stroke="#263994" stroke-width="2.9735" stroke-miterlimit="10" stroke-linecap="round" stroke-linejoin="round"/>
<path d="M128.302 117.927C128.302 124.204 126.163 128.667 122.68 130.854L122.647 130.875L122.638 130.878C118.958 133.166 113.793 132.923 108.077 129.618L27.2904 82.9204V82.9144C16.1276 76.2403 7.14063 60.5199 7.14063 47.5628C7.13764 41.2099 9.30094 36.6896 12.8203 34.469L13.3679 34.1477L13.3832 34.1418C16.0914 32.6725 19.5197 32.4787 23.3447 33.7448C23.7895 31.3334 24.4644 29.1489 25.3478 27.2133C25.3568 27.1921 25.3691 27.1679 25.378 27.1466C27.351 22.8507 30.3497 19.7695 34.0928 18.064C34.0928 18.064 34.0958 18.061 34.0988 18.061C38.2109 16.1825 43.225 15.9615 48.7687 17.6126C51.1137 18.3095 53.5527 19.3457 56.0551 20.73C56.1851 20.7997 56.3123 20.8724 56.4393 20.9421C56.5663 21.0118 56.6966 21.0874 56.8235 21.1601C69.4267 28.4463 80.432 42.7156 86.3325 57.8814C86.4597 57.9541 86.5837 58.0208 86.7107 58.0968C95.1802 62.9894 102.648 72.2357 107.099 82.318C107.423 82.4876 107.75 82.6665 108.077 82.8543C117.572 88.347 125.542 100.52 127.715 111.977C128.099 113.998 128.302 115.994 128.302 117.927Z" fill="white" stroke="#263994" stroke-width="2.9735" stroke-miterlimit="10" stroke-linecap="round" stroke-linejoin="round"/>
<path d="M27.2056 79.3107C22.6313 76.5756 18.3435 71.9695 15.1322 66.3404C11.9172 60.7051 10.1465 54.6818 10.1465 49.3805C10.1441 44.2001 11.844 40.2697 14.935 38.3075L15.4043 38.0321L15.433 38.0171C17.7756 36.7462 20.6905 36.6295 23.8627 37.6797L25.8994 38.3539L26.2935 36.2176C26.6932 34.0517 27.3044 32.0575 28.1108 30.2912L28.1598 30.182L28.1389 30.229C29.9016 26.391 32.637 23.5405 36.0497 21.9857L36.1378 21.9456C39.9138 20.2484 44.4873 20.1195 49.3705 21.5741C51.5188 22.2124 53.7434 23.1645 55.9835 24.4037L56.3811 24.623C56.4552 24.6637 56.5304 24.707 56.6048 24.7498L56.7019 24.8054C67.6816 31.153 77.9466 43.9276 83.474 58.1339L84.3876 60.4825L86.2082 61.5252L86.573 61.7328C93.6885 65.846 100.338 73.7474 104.367 82.8735L105.357 85.1168L107.107 86.0342C107.393 86.1844 107.677 86.3396 107.949 86.4958C115.822 91.0501 122.642 101.163 124.523 111.082C124.852 112.813 125.019 114.504 125.019 116.11C125.019 121.198 123.352 125.06 120.323 126.993L120.235 127.047C116.986 129.067 112.62 128.689 107.942 125.985L27.4834 79.4767L27.2056 79.3107Z" fill="#80C1FF" stroke="#263994" stroke-width="2.9735" stroke-miterlimit="10" stroke-linecap="round" stroke-linejoin="round"/>
<path d="M43.1656 53.9411L38.5584 51.2781C38.0353 50.9757 37.6113 50.1645 37.6113 49.4664V44.4789C37.6113 43.7805 38.0356 43.4595 38.5584 43.7619L43.1656 46.425C43.6887 46.7274 44.1126 47.5386 44.1126 48.237V53.2245C44.1126 53.9226 43.6887 54.2435 43.1656 53.9411Z" fill="#E0E6F9"/>
<path d="M47.7305 68.238L42.504 65.2169C41.9107 64.8738 41.4297 63.9538 41.4297 63.1614V57.5036C41.4297 56.7116 41.9107 56.3475 42.504 56.6903L47.7305 59.7114C48.3238 60.0545 48.8048 60.9746 48.8048 61.7666V67.4244C48.8048 68.2171 48.3238 68.5811 47.7305 68.238Z" fill="#E0E6F9"/>
<path d="M52.2737 84.9122L45.8077 81.1745C45.0736 80.75 44.4785 79.6116 44.4785 78.6317V71.6321C44.4785 70.6521 45.0736 70.2017 45.8077 70.6258L52.2737 74.3636C53.0081 74.788 53.6029 75.9265 53.6029 76.9064V83.906C53.6029 84.8862 53.0078 85.3367 52.2737 84.9122Z" fill="#E0E6F9"/>
<path d="M88.3538 69.0647L81.8878 65.327C81.1537 64.9025 80.5586 65.353 80.5586 66.3332V73.3328C80.5586 74.3127 81.1537 75.4515 81.8878 75.8756L87.2105 78.9523V79.9316C87.2105 80.4566 87.5293 81.0665 87.9224 81.2938L91.3862 83.2961C91.7794 83.5234 92.0984 83.282 92.0984 82.7571V79.0077C92.0984 78.4827 91.7797 77.8728 91.3865 77.6455L89.6836 76.6611V71.6075C89.6833 70.6276 89.0882 69.4892 88.3538 69.0647Z" fill="#E0E6F9"/>
<path d="M39.9566 72.0116L37.6744 70.6925C37.4154 70.5427 37.2051 70.141 37.2051 69.7949V67.3242C37.2051 66.9784 37.4151 66.8193 37.6744 66.9691L39.9566 68.2882C40.2157 68.4381 40.426 68.8398 40.426 69.1859V71.6566C40.4257 72.0024 40.2157 72.1615 39.9566 72.0116Z" fill="#E0E6F9"/>
<path d="M58.2828 72.2548L56.0006 70.9354C55.7416 70.7856 55.5312 70.3839 55.5312 70.0378V67.5671C55.5312 67.2213 55.7413 67.0622 56.0006 67.212L58.2828 68.5311C58.5418 68.681 58.7522 69.0827 58.7522 69.4288V71.8995C58.7522 72.2456 58.5421 72.4047 58.2828 72.2548Z" fill="#E0E6F9"/>
<path d="M47.7906 58.1984L45.5084 56.8793C45.2494 56.7295 45.0391 56.3278 45.0391 55.9817V53.511C45.0391 53.1652 45.2491 53.0061 45.5084 53.1559L47.7906 54.4753C48.0496 54.6252 48.2597 55.0269 48.2597 55.373V57.8437C48.2597 58.1895 48.0496 58.3483 47.7906 58.1984Z" fill="#E0E6F9"/>
<path d="M100.802 94.2046L97.0262 92.0219C96.5975 91.7743 96.25 91.1093 96.25 90.5371V86.4497C96.25 85.8775 96.5975 85.6143 97.0262 85.8622L100.802 88.0449C101.231 88.2925 101.578 88.9575 101.578 89.5297V93.6171C101.578 94.1893 101.231 94.4522 100.802 94.2046Z" fill="#E0E6F9"/>
<path d="M64.562 88.4652L60.3406 86.025C59.8613 85.748 59.4727 85.0047 59.4727 84.3649V79.795C59.4727 79.1552 59.8613 78.8611 60.3406 79.1381L64.562 81.5783C65.0412 81.8553 65.4299 82.5986 65.4299 83.2384V87.8083C65.4299 88.4484 65.0415 88.7424 64.562 88.4652Z" fill="#E0E6F9"/>
<path d="M100.214 97.6926L93.7478 93.9548C93.0138 93.5303 92.4187 93.9808 92.4187 94.961V101.961C92.4187 101.971 92.4195 101.98 92.4198 101.99L91.8483 101.659C91.3691 101.382 90.9805 101.676 90.9805 102.316V106.886C90.9805 107.526 91.3691 108.269 91.8483 108.546L96.0698 110.986C96.549 111.263 96.9377 110.969 96.9377 110.33V106.347L100.214 108.241C100.949 108.666 101.544 108.215 101.544 107.235V100.235C101.543 99.2554 100.948 98.117 100.214 97.6926Z" fill="#E0E6F9"/>
<path d="M68.8411 57.9619L64.1589 55.2555C63.8207 55.0601 63.5241 55.1215 63.3523 55.3742C63.1315 54.4798 62.5761 53.6136 61.9239 53.2367L58.0272 50.9841V42.1132C58.0272 40.725 57.1841 39.1128 56.1444 38.5115L46.9863 33.2178C45.9463 32.6168 45.1035 33.2549 45.1035 34.6428V44.5567C45.1035 45.9446 45.9463 47.5571 46.9863 48.1583L52.9453 51.6029V58.1527C52.9453 59.2816 53.6307 60.5929 54.4765 61.0816L61.9239 65.3865C62.7694 65.8753 63.455 65.3566 63.455 64.2277V62.0768C63.6307 62.4301 63.8805 62.7331 64.1586 62.8937L68.8407 65.6001C69.3722 65.9073 69.8034 65.5813 69.8034 64.8717V59.8032C69.8037 59.0937 69.3726 58.2694 68.8411 57.9619Z" fill="#E0E6F9"/>
<path d="M77.1068 63.5278L73.2791 61.3152C72.8444 61.064 72.4922 60.3901 72.4922 59.8098V55.6661C72.4922 55.0859 72.8444 54.8193 73.2791 55.0706L77.1068 57.2832C77.5415 57.5344 77.8938 58.2083 77.8938 58.7886V62.9323C77.8938 63.5123 77.5415 63.7791 77.1068 63.5278Z" fill="#E0E6F9"/>
<path d="M66.3704 46.5222L64.0882 45.2031C63.8292 45.0532 63.6191 44.6515 63.6191 44.3054V41.8347C63.6191 41.4889 63.8292 41.3298 64.0882 41.4797L66.3704 42.7988C66.6294 42.9486 66.8398 43.3503 66.8398 43.6964V46.1671C66.8398 46.5129 66.6297 46.672 66.3704 46.5222Z" fill="#E0E6F9"/>
<path d="M111.357 94.6404L109.075 93.3213C108.816 93.1714 108.606 93.3306 108.606 93.6763V96.147C108.606 96.2801 108.637 96.4216 108.69 96.5538L105.426 94.6667C104.883 94.3529 104.443 94.6861 104.443 95.4103V100.584C104.443 101.308 104.883 102.15 105.426 102.463L110.205 105.226C110.748 105.54 111.188 105.207 111.188 104.483V99.309C111.188 98.8831 111.035 98.417 110.799 98.0413L111.357 98.3638C111.616 98.5136 111.827 98.3545 111.827 98.0087V95.538C111.826 95.192 111.616 94.7902 111.357 94.6404Z" fill="#E0E6F9"/>
<path d="M39.0638 33.7311L36.7816 32.4119C36.5225 32.2621 36.3125 31.8604 36.3125 31.5143V29.0436C36.3125 28.6978 36.5225 28.5387 36.7816 28.6886L39.0638 30.0077C39.3228 30.1575 39.5328 30.5592 39.5328 30.9053V33.376C39.5331 33.7218 39.3231 33.8809 39.0638 33.7311Z" fill="#E0E6F9"/>
<path d="M110.933 113.491L108.651 112.172C108.392 112.022 108.182 111.62 108.182 111.274V108.804C108.182 108.458 108.392 108.299 108.651 108.448L110.933 109.768C111.192 109.918 111.402 110.319 111.402 110.666V113.136C111.402 113.482 111.192 113.641 110.933 113.491Z" fill="#E0E6F9"/>
<path d="M33.3968 52.5838L28.1703 49.5627C27.577 49.2196 27.0957 49.5836 27.0957 50.376V56.0338C27.0957 56.6176 27.3574 57.2703 27.7323 57.7109L25.993 56.7056C25.3076 56.3095 24.752 56.7298 24.752 57.6448V64.1793C24.752 65.0943 25.3076 66.1571 25.993 66.5531L32.0294 70.0423C32.7148 70.4383 33.2704 70.018 33.2704 69.103V62.5686C33.2704 61.8773 32.9532 61.102 32.5023 60.5935L33.3965 61.1104C33.9898 61.4534 34.4709 61.0894 34.4709 60.2971V54.6393C34.4715 53.8469 33.9905 52.9268 33.3968 52.5838Z" fill="#E0E6F9"/>
<path d="M25.5907 47.4608L23.5278 46.2682C23.2935 46.1327 23.1035 45.7696 23.1035 45.457V43.2238C23.1035 42.9112 23.2935 42.7673 23.5278 42.9028L25.5907 44.0954C25.8249 44.2309 26.0149 44.594 26.0149 44.9066V47.1398C26.0146 47.4527 25.8249 47.5963 25.5907 47.4608Z" fill="#E0E6F9"/>
<path d="M86.0029 89.1331L83.7571 87.8349V87.2791C83.7571 86.1503 83.0715 84.8389 82.226 84.3502L76.8803 81.2603V76.5747C76.8803 75.5092 76.2332 74.2718 75.4352 73.8102L68.406 69.747C67.608 69.2858 66.9609 69.7754 66.9609 70.8406V78.4498C66.9609 79.5153 67.608 80.753 68.406 81.2143L73.2474 84.0128V89.2662C73.2474 90.395 73.9328 91.7064 74.7785 92.1948L82.226 96.5C83.0715 96.9887 83.7571 96.4701 83.7571 95.3412V92.4874L86.0029 93.7855C86.3268 93.9728 86.589 93.7741 86.589 93.3416V90.2544C86.5893 89.8222 86.3268 89.3203 86.0029 89.1331Z" fill="#E0E6F9"/>
<path d="M38.0306 72.9595L35.7483 71.6401C35.4893 71.4903 35.2793 71.0886 35.2793 70.7425V68.2718C35.2793 67.926 35.4893 67.7669 35.7483 67.9167L38.0306 69.2358C38.2896 69.3857 38.4996 69.7874 38.4996 70.1335V72.6042C38.4996 72.9503 38.2896 73.1094 38.0306 72.9595Z" fill="white" stroke="#263994" stroke-miterlimit="10" stroke-linecap="round" stroke-linejoin="round"/>
<path d="M31.875 62.76L26.6485 59.7389C26.0552 59.3958 25.5742 58.4758 25.5742 57.6834V52.0256C25.5742 51.2336 26.0552 50.8692 26.6485 51.2123L31.875 54.2334C32.4684 54.5765 32.9493 55.4966 32.9493 56.2889V61.9467C32.9493 62.7388 32.4684 63.1031 31.875 62.76Z" fill="white" stroke="#263994" stroke-miterlimit="10" stroke-linecap="round" stroke-linejoin="round"/>
<path d="M29.0978 69.2478L23.0614 65.7587C22.376 65.3626 21.8203 64.2996 21.8203 63.3849V56.8504C21.8203 55.9354 22.376 55.5148 23.0614 55.9111L29.0978 59.4003C29.7831 59.7964 30.3388 60.8594 30.3388 61.7741V68.3086C30.3385 69.2236 29.7831 69.6439 29.0978 69.2478Z" fill="white" stroke="#263994" stroke-miterlimit="10" stroke-linecap="round" stroke-linejoin="round"/>
<path d="M24.3251 49.5552L22.2621 48.3626C22.0279 48.2271 21.8379 47.864 21.8379 47.5514V45.3182C21.8379 45.0057 22.0276 44.8618 22.2621 44.9973L24.3251 46.1899C24.5593 46.3254 24.7493 46.6885 24.7493 47.0011V49.2343C24.7493 49.5471 24.5593 49.6907 24.3251 49.5552Z" fill="white" stroke="#263994" stroke-miterlimit="10" stroke-linecap="round" stroke-linejoin="round"/>
<path d="M50.5826 86.2681L44.1166 82.5304C43.3825 82.1059 42.7871 80.9675 42.7871 79.9876V72.988C42.7871 72.008 43.3822 71.5576 44.1166 71.9817L50.5826 75.7195C51.3166 76.1439 51.9118 77.2824 51.9118 78.2623V85.2619C51.9121 86.2418 51.3166 86.6926 50.5826 86.2681Z" fill="white" stroke="#263994" stroke-miterlimit="10" stroke-linecap="round" stroke-linejoin="round"/>
<path d="M46.6211 70.6028L41.3947 67.5817C40.8013 67.2387 40.3203 66.3186 40.3203 65.5262V59.8684C40.3203 59.0764 40.8013 58.712 41.3947 59.0551L46.6211 62.0762C47.2145 62.4193 47.6955 63.3394 47.6955 64.1317V69.7895C47.6958 70.5816 47.2145 70.9459 46.6211 70.6028Z" fill="white" stroke="#263994" stroke-miterlimit="10" stroke-linecap="round" stroke-linejoin="round"/>
<path d="M41.1284 54.6961L36.5213 52.0328C35.9981 51.7304 35.5742 50.9192 35.5742 50.221V45.2336C35.5742 44.5351 35.9981 44.2142 36.5213 44.5166L41.1284 47.1799C41.6515 47.4823 42.0755 48.2935 42.0755 48.9917V53.9791C42.0755 54.6776 41.6515 54.9985 41.1284 54.6961Z" fill="white" stroke="#263994" stroke-miterlimit="10" stroke-linecap="round" stroke-linejoin="round"/>
<path d="M46.4817 60.2208L44.1995 58.9017C43.9405 58.7518 43.7305 58.3501 43.7305 58.004V55.5333C43.7305 55.1876 43.9405 55.0284 44.1995 55.1783L46.4817 56.4974C46.7408 56.6472 46.9511 57.049 46.9511 57.395V59.8657C46.9511 60.2115 46.7411 60.3706 46.4817 60.2208Z" fill="white" stroke="#263994" stroke-miterlimit="10" stroke-linecap="round" stroke-linejoin="round"/>
<path d="M38.0306 36.2263L35.7483 34.9072C35.4893 34.7573 35.2793 34.3556 35.2793 34.0095V31.5388C35.2793 31.193 35.4893 31.0339 35.7483 31.1838L38.0306 32.5029C38.2896 32.6527 38.4996 33.0544 38.4996 33.4005V35.8712C38.4996 36.217 38.2896 36.3761 38.0306 36.2263Z" fill="white" stroke="#263994" stroke-miterlimit="10" stroke-linecap="round" stroke-linejoin="round"/>
<path d="M98.9046 110.26L92.4385 106.522C91.7042 106.098 91.1094 104.959 91.1094 103.979V96.9798C91.1094 95.9996 91.7045 95.5491 92.4385 95.9736L98.9046 99.7113C99.6389 100.136 100.234 101.274 100.234 102.254V109.254C100.234 110.234 99.6389 110.684 98.9046 110.26Z" fill="white" stroke="#263994" stroke-miterlimit="10" stroke-linecap="round" stroke-linejoin="round"/>
<path d="M98.2296 94.0341L94.454 91.8514C94.0252 91.6038 93.6777 90.9388 93.6777 90.3666V86.2792C93.6777 85.707 94.0252 85.4437 94.454 85.6917L98.2296 87.8744C98.6584 88.122 99.0058 88.787 99.0058 89.3592V93.4466C99.0061 94.0188 98.6584 94.282 98.2296 94.0341Z" fill="white" stroke="#263994" stroke-miterlimit="10" stroke-linecap="round" stroke-linejoin="round"/>
<path d="M106.865 103.721L102.086 100.958C101.544 100.645 101.104 99.8031 101.104 99.0787V93.9052C101.104 93.1807 101.543 92.8478 102.086 93.1616L106.865 95.9242C107.408 96.238 107.848 97.0794 107.848 97.8039V102.977C107.848 103.702 107.408 104.035 106.865 103.721Z" fill="white" stroke="#263994" stroke-miterlimit="10" stroke-linecap="round" stroke-linejoin="round"/>
<path d="M92.9467 109.859L88.7253 107.419C88.2461 107.142 87.8574 106.398 87.8574 105.759V101.189C87.8574 100.549 88.2461 100.255 88.7253 100.532L92.9467 102.972C93.4259 103.249 93.8146 103.992 93.8146 104.632V109.202C93.8146 109.842 93.4259 110.136 92.9467 109.859Z" fill="white" stroke="#263994" stroke-miterlimit="10" stroke-linecap="round" stroke-linejoin="round"/>
<path d="M109.57 99.5507L107.288 98.2316C107.029 98.0817 106.818 97.68 106.818 97.3339V94.8632C106.818 94.5175 107.028 94.3583 107.288 94.5082L109.57 95.8273C109.829 95.9771 110.039 96.3789 110.039 96.7249V99.1956C110.039 99.5414 109.829 99.7005 109.57 99.5507Z" fill="white" stroke="#263994" stroke-miterlimit="10" stroke-linecap="round" stroke-linejoin="round"/>
<path d="M108.587 113.714L106.305 112.394C106.046 112.245 105.836 111.843 105.836 111.497V109.026C105.836 108.68 106.046 108.521 106.305 108.671L108.587 109.99C108.846 110.14 109.057 110.542 109.057 110.888V113.359C109.057 113.704 108.847 113.863 108.587 113.714Z" fill="white" stroke="#263994" stroke-miterlimit="10" stroke-linecap="round" stroke-linejoin="round"/>
<path d="M89.2265 83.842L85.7627 81.8397C85.3696 81.6124 85.0508 81.0025 85.0508 80.4775V76.7281C85.0508 76.2032 85.3696 75.9618 85.7627 76.1891L89.2265 78.1914C89.6197 78.4187 89.9385 79.0286 89.9385 79.5536V83.303C89.9385 83.8279 89.6197 84.0693 89.2265 83.842Z" fill="white" stroke="#263994" stroke-miterlimit="10" stroke-linecap="round" stroke-linejoin="round"/>
<path d="M85.5061 78.9655L79.0401 75.2277C78.3061 74.8033 77.7109 73.6649 77.7109 72.685V65.6853C77.7109 64.7054 78.3061 64.255 79.0401 64.6791L85.5061 68.4169C86.2401 68.8413 86.8353 69.9798 86.8353 70.9597V77.9593C86.8356 78.9395 86.2401 79.3899 85.5061 78.9655Z" fill="white" stroke="#263994" stroke-miterlimit="10" stroke-linecap="round" stroke-linejoin="round"/>
<path d="M74.1908 62.7597L70.3631 60.5471C69.9284 60.2959 69.5762 59.622 69.5762 59.0417V54.898C69.5762 54.3177 69.9284 54.0512 70.3631 54.3025L74.1908 56.515C74.6255 56.7663 74.9777 57.4402 74.9777 58.0205V62.1641C74.9777 62.7441 74.6255 63.0109 74.1908 62.7597Z" fill="white" stroke="#263994" stroke-miterlimit="10" stroke-linecap="round" stroke-linejoin="round"/>
<path d="M53.3632 52.9179L44.205 47.6241C43.1654 47.0232 42.3223 45.4107 42.3223 44.0225V34.1085C42.3223 32.7206 43.1651 32.0826 44.205 32.6836L53.3632 37.9773C54.4028 38.5782 55.2459 40.1908 55.2459 41.579V51.4929C55.2459 52.8808 54.4031 53.5188 53.3632 52.9179Z" fill="white" stroke="#263994" stroke-miterlimit="10" stroke-linecap="round" stroke-linejoin="round"/>
<path d="M60.254 66.7783L52.8065 62.4734C51.961 61.9847 51.2754 60.6734 51.2754 59.5445V51.4824C51.2754 50.3536 51.961 49.8349 52.8065 50.3236L60.254 54.6285C61.0994 55.1173 61.7851 56.4286 61.7851 57.5575V65.6196C61.7851 66.7484 61.0997 67.2671 60.254 66.7783Z" fill="white" stroke="#263994" stroke-miterlimit="10" stroke-linecap="round" stroke-linejoin="round"/>
<path d="M80.2989 97.4476L72.8514 93.1427C72.006 92.654 71.3203 91.3426 71.3203 90.2138V82.1517C71.3203 81.0228 72.0057 80.5042 72.8514 80.9929L80.2989 85.2978C81.1444 85.7866 81.83 87.0979 81.83 88.2267V96.2888C81.83 97.4177 81.1447 97.9364 80.2989 97.4476Z" fill="white" stroke="#263994" stroke-miterlimit="10" stroke-linecap="round" stroke-linejoin="round"/>
<path d="M73.5075 86.2253L66.4783 82.1622C65.6803 81.7009 65.0332 80.4632 65.0332 79.3977V71.7885C65.0332 70.723 65.6803 70.2334 66.4783 70.6946L73.5075 74.7578C74.3055 75.2191 74.9525 76.4568 74.9525 77.5223V85.1315C74.9525 86.1969 74.3058 86.6866 73.5075 86.2253Z" fill="white" stroke="#263994" stroke-miterlimit="10" stroke-linecap="round" stroke-linejoin="round"/>
<path d="M64.4335 62.247L59.7516 59.5406C59.2198 59.2334 58.7891 58.409 58.7891 57.6992V52.631C58.7891 51.9215 59.2198 51.5952 59.7516 51.9024L64.4335 54.6088C64.965 54.916 65.3961 55.7403 65.3961 56.4501V61.5187C65.3961 62.2282 64.965 62.5542 64.4335 62.247Z" fill="white" stroke="#263994" stroke-miterlimit="10" stroke-linecap="round" stroke-linejoin="round"/>
<path d="M65.482 49.2707L63.1998 47.9516C62.9408 47.8018 62.7305 47.4001 62.7305 47.054V44.5833C62.7305 44.2375 62.9405 44.0784 63.1998 44.2282L65.482 45.5476C65.741 45.6975 65.9511 46.0992 65.9511 46.4453V48.916C65.9511 49.2615 65.741 49.4206 65.482 49.2707Z" fill="white" stroke="#263994" stroke-miterlimit="10" stroke-linecap="round" stroke-linejoin="round"/>
<path d="M83.9788 94.5662L81.1272 92.9178C80.8033 92.7305 80.541 92.2283 80.541 91.7961V88.7089C80.541 88.2767 80.8036 88.0781 81.1272 88.265L83.9788 89.9135C84.3027 90.1007 84.565 90.6026 84.565 91.0348V94.122C84.565 94.5548 84.3027 94.7535 83.9788 94.5662Z" fill="white" stroke="#263994" stroke-miterlimit="10" stroke-linecap="round" stroke-linejoin="round"/>
<path d="M57.013 74.3433L54.7307 73.0239C54.4717 72.874 54.2617 72.4723 54.2617 72.1262V69.6555C54.2617 69.3097 54.4717 69.1506 54.7307 69.3005L57.013 70.6196C57.272 70.7694 57.482 71.1711 57.482 71.5172V73.9879C57.4823 74.334 57.272 74.4931 57.013 74.3433Z" fill="white" stroke="#263994" stroke-miterlimit="10" stroke-linecap="round" stroke-linejoin="round"/>
<path d="M62.1616 88.5908L57.9401 86.1506C57.4609 85.8736 57.0723 85.1303 57.0723 84.4905V79.9206C57.0723 79.2808 57.4609 78.9867 57.9401 79.2637L62.1616 81.7039C62.6408 81.9809 63.0295 82.7242 63.0295 83.364V87.9339C63.0295 88.5737 62.6411 88.8677 62.1616 88.5908Z" fill="white" stroke="#263994" stroke-miterlimit="10" stroke-linecap="round" stroke-linejoin="round"/>
<path d="M53.6917 98.1813L41.707 91.4096V100.39C41.707 101.277 42.292 102.163 43.4622 102.839C45.8024 104.192 49.5963 104.192 51.9368 102.839C53.107 102.163 53.692 101.276 53.6917 100.39V98.1813Z" fill="white" stroke="#263994" stroke-width="2.9735" stroke-miterlimit="10" stroke-linecap="round" stroke-linejoin="round"/>
<path d="M70.4476 107.868L58.4629 101.096V110.076C58.4629 110.963 59.0479 111.849 60.2181 112.525C62.5583 113.878 66.3522 113.878 68.6927 112.525C69.8626 111.849 70.4479 110.963 70.4476 110.076V107.868Z" fill="white" stroke="#263994" stroke-width="2.9735" stroke-miterlimit="10" stroke-linecap="round" stroke-linejoin="round"/>
<path d="M87.2054 117.554L75.2207 110.783V119.763C75.2207 120.649 75.8057 121.536 76.9759 122.212C79.3161 123.565 83.11 123.565 85.4505 122.212C86.6204 121.536 87.2057 120.649 87.2054 119.763V117.554Z" fill="white" stroke="#263994" stroke-width="2.9735" stroke-miterlimit="10" stroke-linecap="round" stroke-linejoin="round"/>
<path d="M46.9521 171.704C46.7068 171.704 46.5078 171.505 46.5078 171.259V103.854C46.5078 103.608 46.7068 103.409 46.9521 103.409C47.1974 103.409 47.3964 103.608 47.3964 103.854V171.259C47.3964 171.505 47.1974 171.704 46.9521 171.704Z" fill="#263994"/>
<path d="M63.618 159.193C63.3727 159.193 63.1738 158.994 63.1738 158.748V113.548C63.1738 113.302 63.3727 113.103 63.618 113.103C63.8633 113.103 64.0623 113.302 64.0623 113.548V158.748C64.062 158.994 63.8633 159.193 63.618 159.193Z" fill="#263994"/>
<path d="M80.8603 168.967C80.615 168.967 80.416 168.768 80.416 168.522V123.217C80.416 122.971 80.615 122.772 80.8603 122.772C81.1056 122.772 81.3046 122.971 81.3046 123.217V168.522C81.3043 168.768 81.1056 168.967 80.8603 168.967Z" fill="#263994"/>
<path d="M128.649 41C128.535 41 128.423 40.9464 128.355 40.8473C124.378 35.0133 118.207 30.6576 118.145 30.6142C117.988 30.5042 117.953 30.2919 118.067 30.1403C118.18 29.9885 118.4 29.9547 118.557 30.0645C118.62 30.1085 124.894 34.5375 128.942 40.4738C129.049 40.6304 129.004 40.8409 128.842 40.9438C128.783 40.982 128.715 41 128.649 41Z" fill="#263994"/>
<path d="M131.668 53C131.545 53 131.427 52.9277 131.37 52.8029C128.427 46.4579 122.159 39.6678 122.096 39.5999C121.967 39.4612 121.968 39.2381 122.099 39.1013C122.23 38.9649 122.44 38.9663 122.569 39.1051C122.633 39.1736 128.976 46.0455 131.966 52.4916C132.047 52.6664 131.979 52.8776 131.814 52.9637C131.767 52.9884 131.717 53 131.668 53Z" fill="#263994"/>
<path d="M164.574 102C164.341 102 164.152 101.82 164.148 101.596C164.002 91.2174 156.161 80.756 156.082 80.6515C155.943 80.4687 155.985 80.2123 156.175 80.0788C156.364 79.9454 156.631 79.9854 156.77 80.1682C156.85 80.2746 164.849 90.9414 165 101.585C165.003 101.811 164.815 101.997 164.58 102C164.578 102 164.576 102 164.574 102Z" fill="#263994"/>
<path d="M167.343 110C167.291 110 167.238 109.994 167.186 109.981C166.909 109.915 166.755 109.688 166.841 109.475C169.691 102.421 166.069 94.6209 166.032 94.5431C165.933 94.3333 166.073 94.1009 166.346 94.0244C166.618 93.9483 166.92 94.056 167.019 94.2661C167.175 94.5948 170.799 102.404 167.844 109.716C167.774 109.889 167.566 110 167.343 110Z" fill="#263994"/>
<path d="M15.5019 83C15.3829 83 15.2637 82.9578 15.1685 82.8722C3.90837 72.7338 0.0576007 59.7659 0.0197363 59.636C-0.0566626 59.3723 0.0954699 59.0962 0.35985 59.0199C0.624231 58.943 0.90032 59.0959 0.976718 59.3593C1.01358 59.4865 4.79432 72.1917 15.8353 82.1329C16.0397 82.3169 16.0561 82.6315 15.8718 82.8357C15.7736 82.9448 15.6383 83 15.5019 83Z" fill="#263994"/>
</svg>
