<svg width="64" height="64" viewBox="0 0 64 64" fill="none" xmlns="http://www.w3.org/2000/svg">
<rect x="0.5" y="0.5" width="63" height="63" rx="4.83333" fill="white"/>
<rect x="0.5" y="0.5" width="63" height="63" rx="4.83333" stroke="#131415"/>
<path fill-rule="evenodd" clip-rule="evenodd" d="M13.1283 48.2367C15.5886 50.6667 19.5484 50.6667 27.468 50.6667H35.7193C35.142 49.686 34.818 48.5494 34.818 47.3726C34.818 45.6801 35.4882 44.071 36.6178 42.8889H34.818C33.9481 42.8889 33.243 42.1925 33.243 41.3333C33.243 40.4742 33.9481 39.7778 34.818 39.7778H38.8671C39.9408 37.1024 42.4932 35.1111 45.668 35.1111C48.9454 35.1111 51.5681 37.2439 52.5735 40.0484L52.6036 40.0692C52.668 38.3731 52.668 36.3959 52.668 34.0741V33.5556H10.668V34.0741C10.668 41.8959 10.668 45.8068 13.1283 48.2367ZM19.068 44.963C18.1981 44.963 17.493 44.2665 17.493 43.4074L17.493 39.2593C17.493 38.4002 18.1981 37.7037 19.068 37.7037C19.9378 37.7037 20.643 38.4002 20.643 39.2593V43.4074C20.643 44.2665 19.9378 44.963 19.068 44.963ZM25.368 44.963C24.4981 44.963 23.793 44.2665 23.793 43.4074V39.2593C23.793 38.4002 24.4981 37.7037 25.368 37.7037C26.2378 37.7037 26.943 38.4002 26.943 39.2593V43.4074C26.943 44.2665 26.2378 44.963 25.368 44.963Z" fill="#17BD54"/>
<path fill-rule="evenodd" clip-rule="evenodd" d="M13.1283 15.7633C10.668 18.1932 10.668 22.1041 10.668 29.9259V30.4445H52.668V29.9259C52.668 22.1041 52.668 18.1932 50.2077 15.7633C47.7474 13.3333 43.7876 13.3333 35.868 13.3333H27.468C19.5484 13.3333 15.5886 13.3333 13.1283 15.7633ZM25.368 26.2963C24.4981 26.2963 23.793 25.5999 23.793 24.7408V20.5926C23.793 19.7335 24.4981 19.037 25.368 19.037C26.2378 19.037 26.943 19.7335 26.943 20.5926V24.7408C26.943 25.5999 26.2378 26.2963 25.368 26.2963ZM17.493 24.7408C17.493 25.5999 18.1981 26.2963 19.068 26.2963C19.9378 26.2963 20.643 25.5999 20.643 24.7408V20.5926C20.643 19.7335 19.9378 19.037 19.068 19.037C18.1981 19.037 17.493 19.7335 17.493 20.5926L17.493 24.7408ZM33.243 22.6667C33.243 21.8076 33.9481 21.1111 34.818 21.1111H44.268C45.1378 21.1111 45.843 21.8076 45.843 22.6667C45.843 23.5258 45.1378 24.2222 44.268 24.2222H34.818C33.9481 24.2222 33.243 23.5258 33.243 22.6667Z" fill="#17BD54"/>
<path fill-rule="evenodd" clip-rule="evenodd" d="M49.8419 42.1228C49.6082 39.9285 47.8286 38.2222 45.668 38.2222C43.8933 38.2222 42.3757 39.3733 41.7606 41.0005C41.5717 41.5001 41.468 42.0446 41.468 42.6144C41.468 43.1509 41.56 43.665 41.7283 44.1402C41.5309 44.0997 41.3268 44.0784 41.118 44.0784C40.1942 44.0784 39.3633 44.4943 38.7871 45.1567C38.2782 45.7418 37.968 46.5193 37.968 47.3726C37.968 49.1918 39.3783 50.6667 41.118 50.6667H48.468C50.7876 50.6667 52.668 48.7002 52.668 46.2745C52.668 44.352 51.4868 42.718 49.8419 42.1228Z" fill="#17BD54"/>
<path d="M49.8419 42.1228C49.6082 39.9285 47.8286 38.2222 45.668 38.2222C43.8933 38.2222 42.3757 39.3733 41.7606 41.0005C41.5717 41.5001 41.468 42.0446 41.468 42.6144C41.468 43.1509 41.56 43.665 41.7283 44.1402C41.5309 44.0997 41.3268 44.0784 41.118 44.0784C40.1942 44.0784 39.3633 44.4943 38.7871 45.1567C38.2782 45.7418 37.968 46.5193 37.968 47.3726C37.968 49.1918 39.3783 50.6667 41.118 50.6667H48.468C50.7876 50.6667 52.668 48.7002 52.668 46.2745C52.668 44.352 51.4868 42.718 49.8419 42.1228Z" fill="#17BD54"/>
</svg>
