<svg width="173" height="78" viewBox="0 0 173 78" fill="none" xmlns="http://www.w3.org/2000/svg">
<rect x="0.5" y="0.5" width="172" height="77" rx="3.5" fill="white"/>
<rect x="0.5" y="0.5" width="172" height="77" rx="3.5" stroke="#131415"/>
<g clip-path="url(#clip0_463_123)">
<path d="M19.75 25.5L23.5 29.25L31 21.75" stroke="#17BD54" stroke-width="2" stroke-linecap="round" stroke-linejoin="round"/>
</g>
<path d="M42.9588 30V21.2727H48.3707V22.4062H44.2756V25.0653H47.983V26.1946H44.2756V30H42.9588ZM49.8058 30V23.4545H51.0373V24.4943H51.1055C51.2248 24.142 51.435 23.8651 51.7362 23.6634C52.0401 23.4588 52.3839 23.3565 52.7674 23.3565C52.8469 23.3565 52.9407 23.3594 53.0487 23.3651C53.1594 23.3707 53.2461 23.3778 53.3086 23.3864V24.6051C53.2575 24.5909 53.1665 24.5753 53.0359 24.5582C52.9052 24.5384 52.7745 24.5284 52.6438 24.5284C52.3427 24.5284 52.0742 24.5923 51.8384 24.7202C51.6055 24.8452 51.4208 25.0199 51.2844 25.2443C51.1481 25.4659 51.0799 25.7187 51.0799 26.0028V30H49.8058ZM56.9979 30.1321C56.353 30.1321 55.7976 29.9943 55.3317 29.7188C54.8686 29.4403 54.5107 29.0497 54.2578 28.5469C54.0078 28.0412 53.8828 27.4489 53.8828 26.7699C53.8828 26.0994 54.0078 25.5085 54.2578 24.9972C54.5107 24.4858 54.8629 24.0866 55.3146 23.7997C55.7692 23.5128 56.3004 23.3693 56.9084 23.3693C57.2777 23.3693 57.6357 23.4304 57.9822 23.5526C58.3288 23.6747 58.6399 23.8665 58.9155 24.1278C59.1911 24.3892 59.4084 24.7287 59.5675 25.1463C59.7266 25.5611 59.8061 26.0653 59.8061 26.6591V27.1108H54.603V26.1562H58.5575C58.5575 25.821 58.4893 25.5241 58.353 25.2656C58.2166 25.0043 58.0249 24.7983 57.7777 24.6477C57.5334 24.4972 57.2464 24.4219 56.9169 24.4219C56.5589 24.4219 56.2464 24.5099 55.9794 24.6861C55.7152 24.8594 55.5107 25.0866 55.3658 25.3679C55.2237 25.6463 55.1527 25.9489 55.1527 26.2756V27.0213C55.1527 27.4588 55.2294 27.831 55.3828 28.1378C55.5391 28.4446 55.7564 28.679 56.0348 28.8409C56.3132 29 56.6385 29.0795 57.0107 29.0795C57.2521 29.0795 57.4723 29.0455 57.6712 28.9773C57.87 28.9062 58.0419 28.8011 58.1868 28.6619C58.3317 28.5227 58.4425 28.3509 58.5192 28.1463L59.7251 28.3636C59.6286 28.7187 59.4553 29.0298 59.2053 29.2969C58.9581 29.5611 58.647 29.767 58.272 29.9148C57.8999 30.0597 57.4751 30.1321 56.9979 30.1321ZM64.0408 30.1321C63.396 30.1321 62.8406 29.9943 62.3746 29.7188C61.9116 29.4403 61.5536 29.0497 61.3008 28.5469C61.0508 28.0412 60.9258 27.4489 60.9258 26.7699C60.9258 26.0994 61.0508 25.5085 61.3008 24.9972C61.5536 24.4858 61.9059 24.0866 62.3576 23.7997C62.8121 23.5128 63.3434 23.3693 63.9513 23.3693C64.3207 23.3693 64.6786 23.4304 65.0252 23.5526C65.3718 23.6747 65.6829 23.8665 65.9585 24.1278C66.234 24.3892 66.4513 24.7287 66.6104 25.1463C66.7695 25.5611 66.8491 26.0653 66.8491 26.6591V27.1108H61.646V26.1562H65.6005C65.6005 25.821 65.5323 25.5241 65.396 25.2656C65.2596 25.0043 65.0678 24.7983 64.8207 24.6477C64.5763 24.4972 64.2894 24.4219 63.9599 24.4219C63.6019 24.4219 63.2894 24.5099 63.0224 24.6861C62.7582 24.8594 62.5536 25.0866 62.4087 25.3679C62.2667 25.6463 62.1957 25.9489 62.1957 26.2756V27.0213C62.1957 27.4588 62.2724 27.831 62.4258 28.1378C62.582 28.4446 62.7994 28.679 63.0778 28.8409C63.3562 29 63.6815 29.0795 64.0536 29.0795C64.2951 29.0795 64.5153 29.0455 64.7141 28.9773C64.913 28.9062 65.0849 28.8011 65.2298 28.6619C65.3746 28.5227 65.4854 28.3509 65.5621 28.1463L66.7681 28.3636C66.6715 28.7187 66.4982 29.0298 66.2482 29.2969C66.0011 29.5611 65.69 29.767 65.315 29.9148C64.9428 30.0597 64.5181 30.1321 64.0408 30.1321ZM76.3008 23.5653C76.2553 23.1619 76.0678 22.8494 75.7383 22.6278C75.4087 22.4034 74.994 22.2912 74.494 22.2912C74.136 22.2912 73.8263 22.348 73.565 22.4616C73.3036 22.5724 73.1005 22.7259 72.9556 22.9219C72.8136 23.1151 72.7425 23.3352 72.7425 23.5824C72.7425 23.7898 72.7908 23.9687 72.8874 24.1193C72.9869 24.2699 73.1161 24.3963 73.2752 24.4986C73.4371 24.598 73.6104 24.6818 73.7951 24.75C73.9798 24.8153 74.1573 24.8693 74.3278 24.9119L75.18 25.1335C75.4585 25.2017 75.744 25.294 76.0366 25.4105C76.3292 25.527 76.6005 25.6804 76.8505 25.8707C77.1005 26.0611 77.3022 26.2969 77.4556 26.5781C77.6119 26.8594 77.69 27.196 77.69 27.5881C77.69 28.0824 77.5621 28.5213 77.3065 28.9048C77.0536 29.2884 76.6857 29.5909 76.2028 29.8125C75.7227 30.0341 75.1417 30.1449 74.4599 30.1449C73.8065 30.1449 73.2411 30.0412 72.7638 29.8338C72.2866 29.6264 71.913 29.3324 71.6431 28.9517C71.3732 28.5682 71.2241 28.1136 71.1957 27.5881H72.5167C72.5423 27.9034 72.6445 28.1662 72.8235 28.3764C73.0053 28.5838 73.2369 28.7386 73.5181 28.8409C73.8022 28.9403 74.1133 28.9901 74.4513 28.9901C74.8235 28.9901 75.1545 28.9318 75.4442 28.8153C75.7369 28.696 75.967 28.5312 76.1346 28.321C76.3022 28.108 76.386 27.8594 76.386 27.5753C76.386 27.3168 76.3121 27.1051 76.1644 26.9403C76.0195 26.7756 75.8221 26.6392 75.5721 26.5312C75.3249 26.4233 75.0451 26.3281 74.7326 26.2457L73.7013 25.9645C73.0025 25.7741 72.4485 25.4943 72.0394 25.125C71.6332 24.7557 71.43 24.267 71.43 23.6591C71.43 23.1562 71.5664 22.7173 71.8391 22.3423C72.1119 21.9673 72.4812 21.6761 72.9471 21.4688C73.413 21.2585 73.9386 21.1534 74.5238 21.1534C75.1147 21.1534 75.636 21.2571 76.0877 21.4645C76.5423 21.6719 76.9002 21.9574 77.1616 22.321C77.4229 22.6818 77.5593 23.0966 77.5707 23.5653H76.3008ZM84.0234 23.5653C83.978 23.1619 83.7905 22.8494 83.4609 22.6278C83.1314 22.4034 82.7166 22.2912 82.2166 22.2912C81.8587 22.2912 81.549 22.348 81.2876 22.4616C81.0263 22.5724 80.8232 22.7259 80.6783 22.9219C80.5362 23.1151 80.4652 23.3352 80.4652 23.5824C80.4652 23.7898 80.5135 23.9687 80.6101 24.1193C80.7095 24.2699 80.8388 24.3963 80.9979 24.4986C81.1598 24.598 81.3331 24.6818 81.5178 24.75C81.7024 24.8153 81.88 24.8693 82.0504 24.9119L82.9027 25.1335C83.1811 25.2017 83.4666 25.294 83.7592 25.4105C84.0518 25.527 84.3232 25.6804 84.5732 25.8707C84.8232 26.0611 85.0249 26.2969 85.1783 26.5781C85.3345 26.8594 85.4126 27.196 85.4126 27.5881C85.4126 28.0824 85.2848 28.5213 85.0291 28.9048C84.7763 29.2884 84.4084 29.5909 83.9254 29.8125C83.4453 30.0341 82.8643 30.1449 82.1825 30.1449C81.5291 30.1449 80.9638 30.0412 80.4865 29.8338C80.0092 29.6264 79.6357 29.3324 79.3658 28.9517C79.0959 28.5682 78.9467 28.1136 78.9183 27.5881H80.2393C80.2649 27.9034 80.3672 28.1662 80.5462 28.3764C80.728 28.5838 80.9595 28.7386 81.2408 28.8409C81.5249 28.9403 81.8359 28.9901 82.174 28.9901C82.5462 28.9901 82.8771 28.9318 83.1669 28.8153C83.4595 28.696 83.6896 28.5312 83.8572 28.321C84.0249 28.108 84.1087 27.8594 84.1087 27.5753C84.1087 27.3168 84.0348 27.1051 83.8871 26.9403C83.7422 26.7756 83.5447 26.6392 83.2947 26.5312C83.0476 26.4233 82.7678 26.3281 82.4553 26.2457L81.424 25.9645C80.7251 25.7741 80.1712 25.4943 79.7621 25.125C79.3558 24.7557 79.1527 24.267 79.1527 23.6591C79.1527 23.1562 79.2891 22.7173 79.5618 22.3423C79.8345 21.9673 80.2038 21.6761 80.6697 21.4688C81.1357 21.2585 81.6612 21.1534 82.2464 21.1534C82.8374 21.1534 83.3587 21.2571 83.8104 21.4645C84.2649 21.6719 84.6229 21.9574 84.8842 22.321C85.1456 22.6818 85.282 23.0966 85.2933 23.5653H84.0234ZM86.9862 30V21.2727H88.3029V28.8665H92.2575V30H86.9862ZM104.184 24.1108H102.854C102.803 23.8267 102.708 23.5767 102.569 23.3608C102.43 23.1449 102.259 22.9616 102.058 22.8111C101.856 22.6605 101.63 22.5469 101.38 22.4702C101.133 22.3935 100.87 22.3551 100.592 22.3551C100.089 22.3551 99.6385 22.4815 99.2408 22.7344C98.8459 22.9872 98.5334 23.358 98.3033 23.8466C98.076 24.3352 97.9624 24.9318 97.9624 25.6364C97.9624 26.3466 98.076 26.946 98.3033 27.4347C98.5334 27.9233 98.8473 28.2926 99.245 28.5426C99.6428 28.7926 100.09 28.9176 100.587 28.9176C100.863 28.9176 101.124 28.8807 101.371 28.8068C101.621 28.7301 101.847 28.6179 102.049 28.4702C102.251 28.3224 102.421 28.142 102.56 27.929C102.702 27.7131 102.8 27.4659 102.854 27.1875L104.184 27.1918C104.113 27.6207 103.975 28.0156 103.771 28.3764C103.569 28.7344 103.309 29.044 102.991 29.3054C102.675 29.5639 102.315 29.7642 101.908 29.9062C101.502 30.0483 101.059 30.1193 100.579 30.1193C99.8232 30.1193 99.1499 29.9403 98.5589 29.5824C97.968 29.2216 97.5021 28.706 97.1612 28.0355C96.8232 27.3651 96.6541 26.5653 96.6541 25.6364C96.6541 24.7045 96.8246 23.9048 97.1655 23.2372C97.5064 22.5668 97.9723 22.0526 98.5632 21.6946C99.1541 21.3338 99.826 21.1534 100.579 21.1534C101.042 21.1534 101.474 21.2202 101.874 21.3537C102.278 21.4844 102.64 21.6776 102.961 21.9332C103.282 22.1861 103.548 22.4957 103.758 22.8622C103.968 23.2259 104.11 23.642 104.184 24.1108ZM108.478 30.1321C107.833 30.1321 107.278 29.9943 106.812 29.7188C106.349 29.4403 105.991 29.0497 105.738 28.5469C105.488 28.0412 105.363 27.4489 105.363 26.7699C105.363 26.0994 105.488 25.5085 105.738 24.9972C105.991 24.4858 106.343 24.0866 106.795 23.7997C107.25 23.5128 107.781 23.3693 108.389 23.3693C108.758 23.3693 109.116 23.4304 109.463 23.5526C109.809 23.6747 110.12 23.8665 110.396 24.1278C110.672 24.3892 110.889 24.7287 111.048 25.1463C111.207 25.5611 111.287 26.0653 111.287 26.6591V27.1108H106.083V26.1562H110.038C110.038 25.821 109.97 25.5241 109.833 25.2656C109.697 25.0043 109.505 24.7983 109.258 24.6477C109.014 24.4972 108.727 24.4219 108.397 24.4219C108.039 24.4219 107.727 24.5099 107.46 24.6861C107.196 24.8594 106.991 25.0866 106.846 25.3679C106.704 25.6463 106.633 25.9489 106.633 26.2756V27.0213C106.633 27.4588 106.71 27.831 106.863 28.1378C107.02 28.4446 107.237 28.679 107.515 28.8409C107.794 29 108.119 29.0795 108.491 29.0795C108.733 29.0795 108.953 29.0455 109.152 28.9773C109.35 28.9062 109.522 28.8011 109.667 28.6619C109.812 28.5227 109.923 28.3509 110 28.1463L111.206 28.3636C111.109 28.7187 110.936 29.0298 110.686 29.2969C110.439 29.5611 110.127 29.767 109.752 29.9148C109.38 30.0597 108.956 30.1321 108.478 30.1321ZM112.7 30V23.4545H113.932V24.4943H114C114.119 24.142 114.33 23.8651 114.631 23.6634C114.935 23.4588 115.278 23.3565 115.662 23.3565C115.741 23.3565 115.835 23.3594 115.943 23.3651C116.054 23.3707 116.141 23.3778 116.203 23.3864V24.6051C116.152 24.5909 116.061 24.5753 115.93 24.5582C115.8 24.5384 115.669 24.5284 115.538 24.5284C115.237 24.5284 114.969 24.5923 114.733 24.7202C114.5 24.8452 114.315 25.0199 114.179 25.2443C114.043 25.4659 113.974 25.7187 113.974 26.0028V30H112.7ZM120.748 23.4545V24.4773H117.173V23.4545H120.748ZM118.131 21.8864H119.406V28.0781C119.406 28.3253 119.442 28.5114 119.516 28.6364C119.59 28.7585 119.685 28.8423 119.802 28.8878C119.921 28.9304 120.05 28.9517 120.19 28.9517C120.292 28.9517 120.381 28.9446 120.458 28.9304C120.535 28.9162 120.594 28.9048 120.637 28.8963L120.867 29.9489C120.793 29.9773 120.688 30.0057 120.552 30.0341C120.415 30.0653 120.245 30.0824 120.04 30.0852C119.705 30.0909 119.393 30.0312 119.103 29.9062C118.813 29.7812 118.579 29.5881 118.4 29.3267C118.221 29.0653 118.131 28.7372 118.131 28.3423V21.8864ZM122.157 30V23.4545H123.431V30H122.157ZM122.801 22.4446C122.579 22.4446 122.389 22.3707 122.23 22.223C122.074 22.0724 121.995 21.8935 121.995 21.6861C121.995 21.4759 122.074 21.2969 122.23 21.1491C122.389 20.9986 122.579 20.9233 122.801 20.9233C123.022 20.9233 123.211 20.9986 123.368 21.1491C123.527 21.2969 123.606 21.4759 123.606 21.6861C123.606 21.8935 123.527 22.0724 123.368 22.223C123.211 22.3707 123.022 22.4446 122.801 22.4446ZM128.261 23.4545V24.4773H124.562V23.4545H128.261ZM125.576 30V22.696C125.576 22.2869 125.665 21.9474 125.844 21.6776C126.023 21.4048 126.261 21.2017 126.556 21.0682C126.852 20.9318 127.173 20.8636 127.519 20.8636C127.775 20.8636 127.994 20.8849 128.175 20.9276C128.357 20.9673 128.492 21.0043 128.58 21.0384L128.282 22.0696C128.222 22.0526 128.146 22.0327 128.052 22.0099C127.958 21.9844 127.844 21.9716 127.711 21.9716C127.401 21.9716 127.18 22.0483 127.046 22.2017C126.915 22.3551 126.85 22.5767 126.85 22.8665V30H125.576ZM129.575 30V23.4545H130.849V30H129.575ZM130.219 22.4446C129.997 22.4446 129.807 22.3707 129.648 22.223C129.491 22.0724 129.413 21.8935 129.413 21.6861C129.413 21.4759 129.491 21.2969 129.648 21.1491C129.807 20.9986 129.997 20.9233 130.219 20.9233C130.44 20.9233 130.629 20.9986 130.786 21.1491C130.945 21.2969 131.024 21.4759 131.024 21.6861C131.024 21.8935 130.945 22.0724 130.786 22.223C130.629 22.3707 130.44 22.4446 130.219 22.4446ZM135.321 30.1321C134.687 30.1321 134.142 29.9886 133.684 29.7017C133.23 29.4119 132.88 29.0128 132.636 28.5043C132.392 27.9957 132.27 27.4134 132.27 26.7571C132.27 26.0923 132.395 25.5057 132.645 24.9972C132.895 24.4858 133.247 24.0866 133.701 23.7997C134.156 23.5128 134.691 23.3693 135.308 23.3693C135.805 23.3693 136.248 23.4616 136.637 23.6463C137.027 23.8281 137.341 24.0838 137.579 24.4134C137.821 24.7429 137.964 25.1278 138.01 25.5682H136.77C136.701 25.2614 136.545 24.9972 136.301 24.7756C136.059 24.554 135.735 24.4432 135.329 24.4432C134.974 24.4432 134.663 24.5369 134.396 24.7244C134.132 24.9091 133.926 25.1733 133.778 25.517C133.63 25.858 133.556 26.2614 133.556 26.7273C133.556 27.2045 133.629 27.6165 133.774 27.9631C133.919 28.3097 134.123 28.5781 134.387 28.7685C134.654 28.9588 134.968 29.054 135.329 29.054C135.571 29.054 135.789 29.0099 135.985 28.9219C136.184 28.831 136.35 28.7017 136.484 28.5341C136.62 28.3665 136.716 28.1648 136.77 27.929H138.01C137.964 28.3523 137.826 28.7301 137.596 29.0625C137.366 29.3949 137.058 29.6562 136.672 29.8466C136.288 30.0369 135.838 30.1321 135.321 30.1321ZM141.277 30.1449C140.862 30.1449 140.487 30.0682 140.152 29.9148C139.817 29.7585 139.551 29.5327 139.355 29.2372C139.162 28.9418 139.065 28.5795 139.065 28.1506C139.065 27.7812 139.136 27.4773 139.278 27.2386C139.42 27 139.612 26.8111 139.854 26.6719C140.095 26.5327 140.365 26.4276 140.663 26.3565C140.962 26.2855 141.266 26.2315 141.575 26.1946C141.967 26.1491 142.286 26.1122 142.53 26.0838C142.774 26.0526 142.952 26.0028 143.062 25.9347C143.173 25.8665 143.229 25.7557 143.229 25.6023V25.5724C143.229 25.2003 143.124 24.9119 142.913 24.7074C142.706 24.5028 142.396 24.4006 141.984 24.4006C141.555 24.4006 141.217 24.4957 140.97 24.6861C140.726 24.8736 140.557 25.0824 140.463 25.3125L139.266 25.0398C139.408 24.642 139.615 24.321 139.888 24.0767C140.163 23.8295 140.48 23.6506 140.838 23.5398C141.196 23.4261 141.572 23.3693 141.967 23.3693C142.229 23.3693 142.506 23.4006 142.798 23.4631C143.094 23.5227 143.369 23.6335 143.625 23.7955C143.884 23.9574 144.095 24.1889 144.26 24.4901C144.425 24.7884 144.507 25.1761 144.507 25.6534V30H143.263V29.1051H143.212C143.129 29.2699 143.006 29.4318 142.841 29.5909C142.676 29.75 142.464 29.8821 142.206 29.9872C141.947 30.0923 141.638 30.1449 141.277 30.1449ZM141.554 29.1222C141.906 29.1222 142.207 29.0526 142.457 28.9134C142.71 28.7741 142.902 28.5923 143.033 28.3679C143.166 28.1406 143.233 27.8977 143.233 27.6392V26.7955C143.188 26.8409 143.099 26.8835 142.969 26.9233C142.841 26.9602 142.695 26.9929 142.53 27.0213C142.365 27.0469 142.205 27.071 142.048 27.0938C141.892 27.1136 141.761 27.1307 141.656 27.1449C141.409 27.1761 141.183 27.2287 140.979 27.3026C140.777 27.3764 140.615 27.483 140.493 27.6222C140.374 27.7585 140.314 27.9403 140.314 28.1676C140.314 28.483 140.43 28.7216 140.663 28.8835C140.896 29.0426 141.193 29.1222 141.554 29.1222ZM149.26 23.4545V24.4773H145.684V23.4545H149.26ZM146.643 21.8864H147.917V28.0781C147.917 28.3253 147.954 28.5114 148.028 28.6364C148.102 28.7585 148.197 28.8423 148.314 28.8878C148.433 28.9304 148.562 28.9517 148.701 28.9517C148.804 28.9517 148.893 28.9446 148.97 28.9304C149.047 28.9162 149.106 28.9048 149.149 28.8963L149.379 29.9489C149.305 29.9773 149.2 30.0057 149.064 30.0341C148.927 30.0653 148.757 30.0824 148.552 30.0852C148.217 30.0909 147.904 30.0312 147.615 29.9062C147.325 29.7812 147.091 29.5881 146.912 29.3267C146.733 29.0653 146.643 28.7372 146.643 28.3423V21.8864ZM153.42 30.1321C152.775 30.1321 152.219 29.9943 151.754 29.7188C151.29 29.4403 150.933 29.0497 150.68 28.5469C150.43 28.0412 150.305 27.4489 150.305 26.7699C150.305 26.0994 150.43 25.5085 150.68 24.9972C150.933 24.4858 151.285 24.0866 151.737 23.7997C152.191 23.5128 152.722 23.3693 153.33 23.3693C153.7 23.3693 154.058 23.4304 154.404 23.5526C154.751 23.6747 155.062 23.8665 155.337 24.1278C155.613 24.3892 155.83 24.7287 155.989 25.1463C156.148 25.5611 156.228 26.0653 156.228 26.6591V27.1108H151.025V26.1562H154.979C154.979 25.821 154.911 25.5241 154.775 25.2656C154.638 25.0043 154.447 24.7983 154.2 24.6477C153.955 24.4972 153.668 24.4219 153.339 24.4219C152.981 24.4219 152.668 24.5099 152.401 24.6861C152.137 24.8594 151.933 25.0866 151.788 25.3679C151.646 25.6463 151.575 25.9489 151.575 26.2756V27.0213C151.575 27.4588 151.651 27.831 151.805 28.1378C151.961 28.4446 152.178 28.679 152.457 28.8409C152.735 29 153.06 29.0795 153.433 29.0795C153.674 29.0795 153.894 29.0455 154.093 28.9773C154.292 28.9062 154.464 28.8011 154.609 28.6619C154.754 28.5227 154.864 28.3509 154.941 28.1463L156.147 28.3636C156.05 28.7187 155.877 29.0298 155.627 29.2969C155.38 29.5611 155.069 29.767 154.694 29.9148C154.322 30.0597 153.897 30.1321 153.42 30.1321Z" fill="#131415"/>
<g clip-path="url(#clip1_463_123)">
<path d="M19.75 52.5L23.5 56.25L31 48.75" stroke="#17BD54" stroke-width="2" stroke-linecap="round" stroke-linejoin="round"/>
</g>
<path d="M42.9588 57V48.2727H48.3707V49.4062H44.2756V52.0653H47.983V53.1946H44.2756V57H42.9588ZM49.8058 57V50.4545H51.0373V51.4943H51.1055C51.2248 51.142 51.435 50.8651 51.7362 50.6634C52.0401 50.4588 52.3839 50.3565 52.7674 50.3565C52.8469 50.3565 52.9407 50.3594 53.0487 50.3651C53.1594 50.3707 53.2461 50.3778 53.3086 50.3864V51.6051C53.2575 51.5909 53.1665 51.5753 53.0359 51.5582C52.9052 51.5384 52.7745 51.5284 52.6438 51.5284C52.3427 51.5284 52.0742 51.5923 51.8384 51.7202C51.6055 51.8452 51.4208 52.0199 51.2844 52.2443C51.1481 52.4659 51.0799 52.7187 51.0799 53.0028V57H49.8058ZM56.9979 57.1321C56.353 57.1321 55.7976 56.9943 55.3317 56.7188C54.8686 56.4403 54.5107 56.0497 54.2578 55.5469C54.0078 55.0412 53.8828 54.4489 53.8828 53.7699C53.8828 53.0994 54.0078 52.5085 54.2578 51.9972C54.5107 51.4858 54.8629 51.0866 55.3146 50.7997C55.7692 50.5128 56.3004 50.3693 56.9084 50.3693C57.2777 50.3693 57.6357 50.4304 57.9822 50.5526C58.3288 50.6747 58.6399 50.8665 58.9155 51.1278C59.1911 51.3892 59.4084 51.7287 59.5675 52.1463C59.7266 52.5611 59.8061 53.0653 59.8061 53.6591V54.1108H54.603V53.1562H58.5575C58.5575 52.821 58.4893 52.5241 58.353 52.2656C58.2166 52.0043 58.0249 51.7983 57.7777 51.6477C57.5334 51.4972 57.2464 51.4219 56.9169 51.4219C56.5589 51.4219 56.2464 51.5099 55.9794 51.6861C55.7152 51.8594 55.5107 52.0866 55.3658 52.3679C55.2237 52.6463 55.1527 52.9489 55.1527 53.2756V54.0213C55.1527 54.4588 55.2294 54.831 55.3828 55.1378C55.5391 55.4446 55.7564 55.679 56.0348 55.8409C56.3132 56 56.6385 56.0795 57.0107 56.0795C57.2521 56.0795 57.4723 56.0455 57.6712 55.9773C57.87 55.9062 58.0419 55.8011 58.1868 55.6619C58.3317 55.5227 58.4425 55.3509 58.5192 55.1463L59.7251 55.3636C59.6286 55.7187 59.4553 56.0298 59.2053 56.2969C58.9581 56.5611 58.647 56.767 58.272 56.9148C57.8999 57.0597 57.4751 57.1321 56.9979 57.1321ZM64.0408 57.1321C63.396 57.1321 62.8406 56.9943 62.3746 56.7188C61.9116 56.4403 61.5536 56.0497 61.3008 55.5469C61.0508 55.0412 60.9258 54.4489 60.9258 53.7699C60.9258 53.0994 61.0508 52.5085 61.3008 51.9972C61.5536 51.4858 61.9059 51.0866 62.3576 50.7997C62.8121 50.5128 63.3434 50.3693 63.9513 50.3693C64.3207 50.3693 64.6786 50.4304 65.0252 50.5526C65.3718 50.6747 65.6829 50.8665 65.9585 51.1278C66.234 51.3892 66.4513 51.7287 66.6104 52.1463C66.7695 52.5611 66.8491 53.0653 66.8491 53.6591V54.1108H61.646V53.1562H65.6005C65.6005 52.821 65.5323 52.5241 65.396 52.2656C65.2596 52.0043 65.0678 51.7983 64.8207 51.6477C64.5763 51.4972 64.2894 51.4219 63.9599 51.4219C63.6019 51.4219 63.2894 51.5099 63.0224 51.6861C62.7582 51.8594 62.5536 52.0866 62.4087 52.3679C62.2667 52.6463 62.1957 52.9489 62.1957 53.2756V54.0213C62.1957 54.4588 62.2724 54.831 62.4258 55.1378C62.582 55.4446 62.7994 55.679 63.0778 55.8409C63.3562 56 63.6815 56.0795 64.0536 56.0795C64.2951 56.0795 64.5153 56.0455 64.7141 55.9773C64.913 55.9062 65.0849 55.8011 65.2298 55.6619C65.3746 55.5227 65.4854 55.3509 65.5621 55.1463L66.7681 55.3636C66.6715 55.7187 66.4982 56.0298 66.2482 56.2969C66.0011 56.5611 65.69 56.767 65.315 56.9148C64.9428 57.0597 64.5181 57.1321 64.0408 57.1321ZM74.3661 57H71.5408V48.2727H74.4556C75.3107 48.2727 76.0451 48.4474 76.6587 48.7969C77.2724 49.1435 77.7425 49.642 78.0692 50.2926C78.3988 50.9403 78.5636 51.7173 78.5636 52.6236C78.5636 53.5327 78.3974 54.3139 78.065 54.9673C77.7354 55.6207 77.2582 56.1236 76.6332 56.4759C76.0082 56.8253 75.2525 57 74.3661 57ZM72.8576 55.8494H74.2937C74.9585 55.8494 75.511 55.7244 75.9513 55.4744C76.3917 55.2216 76.7212 54.8565 76.94 54.3793C77.1587 53.8991 77.2681 53.3139 77.2681 52.6236C77.2681 51.9389 77.1587 51.358 76.94 50.8807C76.7241 50.4034 76.4016 50.0412 75.9727 49.794C75.5437 49.5469 75.011 49.4233 74.3746 49.4233H72.8576V55.8494ZM82.8558 57.1321C82.2422 57.1321 81.7067 56.9915 81.2493 56.7102C80.7919 56.429 80.4368 56.0355 80.1839 55.5298C79.9311 55.0241 79.8047 54.4332 79.8047 53.7571C79.8047 53.0781 79.9311 52.4844 80.1839 51.9759C80.4368 51.4673 80.7919 51.0724 81.2493 50.7912C81.7067 50.5099 82.2422 50.3693 82.8558 50.3693C83.4695 50.3693 84.005 50.5099 84.4624 50.7912C84.9197 51.0724 85.2749 51.4673 85.5277 51.9759C85.7805 52.4844 85.907 53.0781 85.907 53.7571C85.907 54.4332 85.7805 55.0241 85.5277 55.5298C85.2749 56.0355 84.9197 56.429 84.4624 56.7102C84.005 56.9915 83.4695 57.1321 82.8558 57.1321ZM82.8601 56.0625C83.2578 56.0625 83.5874 55.9574 83.8487 55.7472C84.1101 55.5369 84.3033 55.2571 84.4283 54.9077C84.5561 54.5582 84.62 54.1733 84.62 53.7528C84.62 53.3352 84.5561 52.9517 84.4283 52.6023C84.3033 52.25 84.1101 51.9673 83.8487 51.7543C83.5874 51.5412 83.2578 51.4347 82.8601 51.4347C82.4595 51.4347 82.1271 51.5412 81.8629 51.7543C81.6016 51.9673 81.407 52.25 81.2791 52.6023C81.1541 52.9517 81.0916 53.3352 81.0916 53.7528C81.0916 54.1733 81.1541 54.5582 81.2791 54.9077C81.407 55.2571 81.6016 55.5369 81.8629 55.7472C82.1271 55.9574 82.4595 56.0625 82.8601 56.0625ZM87.3292 57V50.4545H88.5522V51.5199H88.6332C88.7695 51.1591 88.9925 50.8778 89.3022 50.6761C89.6119 50.4716 89.9826 50.3693 90.4144 50.3693C90.8519 50.3693 91.2184 50.4716 91.5138 50.6761C91.8121 50.8807 92.0323 51.1619 92.1744 51.5199H92.2425C92.3988 51.1705 92.6474 50.892 92.9883 50.6847C93.3292 50.4744 93.7354 50.3693 94.207 50.3693C94.8008 50.3693 95.2852 50.5554 95.6602 50.9276C96.038 51.2997 96.2269 51.8608 96.2269 52.6108V57H94.9528V52.7301C94.9528 52.2869 94.832 51.9659 94.5906 51.767C94.3491 51.5682 94.0607 51.4688 93.7255 51.4688C93.3107 51.4688 92.9883 51.5966 92.7582 51.8523C92.5281 52.1051 92.413 52.4304 92.413 52.8281V57H91.1431V52.6491C91.1431 52.294 91.0323 52.0085 90.8107 51.7926C90.5891 51.5767 90.3008 51.4688 89.9457 51.4688C89.7042 51.4688 89.4812 51.5327 89.2766 51.6605C89.0749 51.7855 88.9116 51.9602 88.7866 52.1847C88.6644 52.4091 88.6033 52.669 88.6033 52.9645V57H87.3292ZM99.8395 57.1449C99.4247 57.1449 99.0497 57.0682 98.7145 56.9148C98.3793 56.7585 98.1136 56.5327 97.9176 56.2372C97.7244 55.9418 97.6278 55.5795 97.6278 55.1506C97.6278 54.7812 97.6989 54.4773 97.8409 54.2386C97.983 54 98.1747 53.8111 98.4162 53.6719C98.6577 53.5327 98.9276 53.4276 99.2259 53.3565C99.5241 53.2855 99.8281 53.2315 100.138 53.1946C100.53 53.1491 100.848 53.1122 101.092 53.0838C101.337 53.0526 101.514 53.0028 101.625 52.9347C101.736 52.8665 101.791 52.7557 101.791 52.6023V52.5724C101.791 52.2003 101.686 51.9119 101.476 51.7074C101.268 51.5028 100.959 51.4006 100.547 51.4006C100.118 51.4006 99.7798 51.4957 99.5327 51.6861C99.2884 51.8736 99.1193 52.0824 99.0256 52.3125L97.8281 52.0398C97.9702 51.642 98.1776 51.321 98.4503 51.0767C98.7259 50.8295 99.0426 50.6506 99.4006 50.5398C99.7585 50.4261 100.135 50.3693 100.53 50.3693C100.791 50.3693 101.068 50.4006 101.361 50.4631C101.656 50.5227 101.932 50.6335 102.188 50.7955C102.446 50.9574 102.658 51.1889 102.822 51.4901C102.987 51.7884 103.07 52.1761 103.07 52.6534V57H101.825V56.1051H101.774C101.692 56.2699 101.568 56.4318 101.403 56.5909C101.239 56.75 101.027 56.8821 100.768 56.9872C100.51 57.0923 100.2 57.1449 99.8395 57.1449ZM100.116 56.1222C100.469 56.1222 100.77 56.0526 101.02 55.9134C101.273 55.7741 101.464 55.5923 101.595 55.3679C101.729 55.1406 101.795 54.8977 101.795 54.6392V53.7955C101.75 53.8409 101.662 53.8835 101.531 53.9233C101.403 53.9602 101.257 53.9929 101.092 54.0213C100.928 54.0469 100.767 54.071 100.611 54.0938C100.455 54.1136 100.324 54.1307 100.219 54.1449C99.9716 54.1761 99.7457 54.2287 99.5412 54.3026C99.3395 54.3764 99.1776 54.483 99.0554 54.6222C98.9361 54.7585 98.8764 54.9403 98.8764 55.1676C98.8764 55.483 98.9929 55.7216 99.2259 55.8835C99.4588 56.0426 99.7557 56.1222 100.116 56.1222ZM104.767 57V50.4545H106.041V57H104.767ZM105.41 49.4446C105.189 49.4446 104.998 49.3707 104.839 49.223C104.683 49.0724 104.605 48.8935 104.605 48.6861C104.605 48.4759 104.683 48.2969 104.839 48.1491C104.998 47.9986 105.189 47.9233 105.41 47.9233C105.632 47.9233 105.821 47.9986 105.977 48.1491C106.136 48.2969 106.216 48.4759 106.216 48.6861C106.216 48.8935 106.136 49.0724 105.977 49.223C105.821 49.3707 105.632 49.4446 105.41 49.4446ZM109.029 53.1136V57H107.755V50.4545H108.978V51.5199H109.059C109.21 51.1733 109.445 50.8949 109.766 50.6847C110.09 50.4744 110.498 50.3693 110.989 50.3693C111.435 50.3693 111.826 50.4631 112.161 50.6506C112.496 50.8352 112.756 51.1108 112.941 51.4773C113.126 51.8437 113.218 52.2969 113.218 52.8366V57H111.944V52.9901C111.944 52.5156 111.82 52.1449 111.573 51.8778C111.326 51.608 110.987 51.473 110.555 51.473C110.259 51.473 109.996 51.5369 109.766 51.6648C109.539 51.7926 109.359 51.9801 109.225 52.2273C109.094 52.4716 109.029 52.767 109.029 53.1136Z" fill="#131415"/>
<defs>
<clipPath id="clip0_463_123">
<rect width="18" height="18" fill="white" transform="translate(16 16.5)"/>
</clipPath>
<clipPath id="clip1_463_123">
<rect width="18" height="18" fill="white" transform="translate(16 43.5)"/>
</clipPath>
</defs>
</svg>
