<svg width="126" height="81" viewBox="0 0 126 81" fill="none" xmlns="http://www.w3.org/2000/svg">
<rect x="0.5" y="0.5" width="125" height="80" rx="3.5" fill="white"/>
<rect x="0.5" y="0.5" width="125" height="80" rx="3.5" stroke="#131415"/>
<path d="M37.9945 22.7557C38.7426 22.7557 39.4623 22.8812 40.1536 23.1321C40.8496 23.383 41.4699 23.7831 42.0144 24.3324C42.5636 24.8816 42.9969 25.6108 43.3141 26.5199C43.6361 27.4242 43.7994 28.5346 43.8042 29.8509C43.8042 31.0866 43.6645 32.1899 43.3851 33.1605C43.1105 34.1264 42.7151 34.9479 42.199 35.625C41.6829 36.3021 41.0603 36.8182 40.3311 37.1733C39.602 37.5237 38.7876 37.6989 37.888 37.6989C36.9173 37.6989 36.0603 37.5118 35.3169 37.1378C34.5736 36.759 33.9746 36.2453 33.5201 35.5966C33.0703 34.9432 32.798 34.2093 32.7033 33.3949H35.736C35.8543 33.9252 36.1029 34.3371 36.4817 34.6307C36.8605 34.9195 37.3292 35.0639 37.888 35.0639C38.8349 35.0639 39.5546 34.652 40.0471 33.8281C40.5395 32.9995 40.7881 31.8655 40.7928 30.4261H40.6934C40.4756 30.8523 40.182 31.2192 39.8127 31.527C39.4434 31.83 39.0196 32.0644 38.5414 32.2301C38.0679 32.3958 37.5636 32.4787 37.0286 32.4787C36.1716 32.4787 35.4069 32.2775 34.7346 31.875C34.0622 31.4725 33.5319 30.9186 33.1436 30.2131C32.7554 29.5076 32.5613 28.7027 32.5613 27.7983C32.5565 26.8229 32.7814 25.9541 33.236 25.1918C33.6905 24.4295 34.325 23.8329 35.1394 23.402C35.9585 22.9664 36.9102 22.7509 37.9945 22.7557ZM38.0158 25.1705C37.5376 25.1705 37.1114 25.2841 36.7374 25.5114C36.3681 25.7386 36.0745 26.044 35.8567 26.4276C35.6436 26.8111 35.5395 27.2396 35.5442 27.7131C35.5442 28.1913 35.6484 28.6222 35.8567 29.0057C36.0698 29.3845 36.3586 29.6875 36.7232 29.9148C37.0925 30.1373 37.5139 30.2486 37.9874 30.2486C38.3425 30.2486 38.6716 30.1823 38.9746 30.0497C39.2776 29.9171 39.5404 29.7348 39.763 29.5028C39.9902 29.2661 40.1678 28.9938 40.2956 28.6861C40.4235 28.3783 40.4874 28.0516 40.4874 27.706C40.4827 27.2467 40.3738 26.8253 40.1607 26.4418C39.9476 26.0582 39.6541 25.7505 39.28 25.5185C38.906 25.2865 38.4846 25.1705 38.0158 25.1705ZM51.1976 22.7557C51.9457 22.7557 52.6654 22.8812 53.3567 23.1321C54.0527 23.383 54.673 23.7831 55.2175 24.3324C55.7667 24.8816 56.2 25.6108 56.5172 26.5199C56.8392 27.4242 57.0025 28.5346 57.0073 29.8509C57.0073 31.0866 56.8676 32.1899 56.5882 33.1605C56.3136 34.1264 55.9183 34.9479 55.4022 35.625C54.8861 36.3021 54.2634 36.8182 53.5343 37.1733C52.8051 37.5237 51.9907 37.6989 51.0911 37.6989C50.1204 37.6989 49.2634 37.5118 48.5201 37.1378C47.7767 36.759 47.1777 36.2453 46.7232 35.5966C46.2734 34.9432 46.0011 34.2093 45.9064 33.3949H48.9391C49.0575 33.9252 49.306 34.3371 49.6848 34.6307C50.0636 34.9195 50.5324 35.0639 51.0911 35.0639C52.0381 35.0639 52.7578 34.652 53.2502 33.8281C53.7426 32.9995 53.9912 31.8655 53.9959 30.4261H53.8965C53.6787 30.8523 53.3851 31.2192 53.0158 31.527C52.6465 31.83 52.2227 32.0644 51.7445 32.2301C51.271 32.3958 50.7667 32.4787 50.2317 32.4787C49.3747 32.4787 48.61 32.2775 47.9377 31.875C47.2653 31.4725 46.735 30.9186 46.3468 30.2131C45.9585 29.5076 45.7644 28.7027 45.7644 27.7983C45.7596 26.8229 45.9846 25.9541 46.4391 25.1918C46.8936 24.4295 47.5281 23.8329 48.3425 23.402C49.1616 22.9664 50.1133 22.7509 51.1976 22.7557ZM51.2189 25.1705C50.7407 25.1705 50.3146 25.2841 49.9405 25.5114C49.5712 25.7386 49.2776 26.044 49.0598 26.4276C48.8468 26.8111 48.7426 27.2396 48.7473 27.7131C48.7473 28.1913 48.8515 28.6222 49.0598 29.0057C49.2729 29.3845 49.5617 29.6875 49.9263 29.9148C50.2956 30.1373 50.717 30.2486 51.1905 30.2486C51.5456 30.2486 51.8747 30.1823 52.1777 30.0497C52.4808 29.9171 52.7435 29.7348 52.9661 29.5028C53.1934 29.2661 53.3709 28.9938 53.4988 28.6861C53.6266 28.3783 53.6905 28.0516 53.6905 27.706C53.6858 27.2467 53.5769 26.8253 53.3638 26.4418C53.1507 26.0582 52.8572 25.7505 52.4831 25.5185C52.1091 25.2865 51.6877 25.1705 51.2189 25.1705ZM60.3489 37.6847C59.8801 37.6847 59.4777 37.5189 59.1415 37.1875C58.8101 36.8513 58.6444 36.4489 58.6444 35.9801C58.6444 35.5161 58.8101 35.1184 59.1415 34.7869C59.4777 34.4555 59.8801 34.2898 60.3489 34.2898C60.8034 34.2898 61.2012 34.4555 61.5421 34.7869C61.883 35.1184 62.0534 35.5161 62.0534 35.9801C62.0534 36.2926 61.973 36.5791 61.812 36.8395C61.6557 37.0952 61.4498 37.3011 61.1941 37.4574C60.9384 37.6089 60.6567 37.6847 60.3489 37.6847ZM69.4984 22.7557C70.2465 22.7557 70.9662 22.8812 71.6575 23.1321C72.3535 23.383 72.9738 23.7831 73.5183 24.3324C74.0675 24.8816 74.5008 25.6108 74.818 26.5199C75.14 27.4242 75.3033 28.5346 75.3081 29.8509C75.3081 31.0866 75.1684 32.1899 74.889 33.1605C74.6144 34.1264 74.219 34.9479 73.7029 35.625C73.1868 36.3021 72.5642 36.8182 71.835 37.1733C71.1059 37.5237 70.2915 37.6989 69.3919 37.6989C68.4212 37.6989 67.5642 37.5118 66.8208 37.1378C66.0775 36.759 65.4785 36.2453 65.024 35.5966C64.5742 34.9432 64.3019 34.2093 64.2072 33.3949H67.2399C67.3583 33.9252 67.6068 34.3371 67.9856 34.6307C68.3644 34.9195 68.8332 35.0639 69.3919 35.0639C70.3388 35.0639 71.0585 34.652 71.551 33.8281C72.0434 32.9995 72.292 31.8655 72.2967 30.4261H72.1973C71.9795 30.8523 71.6859 31.2192 71.3166 31.527C70.9473 31.83 70.5235 32.0644 70.0453 32.2301C69.5718 32.3958 69.0675 32.4787 68.5325 32.4787C67.6755 32.4787 66.9108 32.2775 66.2385 31.875C65.5661 31.4725 65.0358 30.9186 64.6475 30.2131C64.2593 29.5076 64.0652 28.7027 64.0652 27.7983C64.0604 26.8229 64.2853 25.9541 64.7399 25.1918C65.1944 24.4295 65.8289 23.8329 66.6433 23.402C67.4624 22.9664 68.4141 22.7509 69.4984 22.7557ZM69.5197 25.1705C69.0415 25.1705 68.6154 25.2841 68.2413 25.5114C67.872 25.7386 67.5784 26.044 67.3606 26.4276C67.1475 26.8111 67.0434 27.2396 67.0481 27.7131C67.0481 28.1913 67.1523 28.6222 67.3606 29.0057C67.5737 29.3845 67.8625 29.6875 68.2271 29.9148C68.5964 30.1373 69.0178 30.2486 69.4913 30.2486C69.8464 30.2486 70.1755 30.1823 70.4785 30.0497C70.7815 29.9171 71.0443 29.7348 71.2669 29.5028C71.4941 29.2661 71.6717 28.9938 71.7995 28.6861C71.9274 28.3783 71.9913 28.0516 71.9913 27.706C71.9866 27.2467 71.8777 26.8253 71.6646 26.4418C71.4515 26.0582 71.158 25.7505 70.7839 25.5185C70.4099 25.2865 69.9885 25.1705 69.5197 25.1705ZM85.4004 34.7727V34.0057C85.4004 33.4233 85.5235 32.8883 85.7697 32.4006C86.0207 31.9081 86.3829 31.5152 86.8564 31.2216C87.3346 30.9233 87.917 30.7741 88.6035 30.7741C89.2995 30.7741 89.8843 30.9209 90.3578 31.2145C90.836 31.508 91.1958 31.901 91.4373 32.3935C91.6835 32.8812 91.8066 33.4186 91.8066 34.0057V34.7727C91.8066 35.3551 91.6835 35.8925 91.4373 36.3849C91.1911 36.8726 90.8289 37.2633 90.3507 37.5568C89.8725 37.8551 89.2901 38.0043 88.6035 38.0043C87.9075 38.0043 87.3227 37.8551 86.8493 37.5568C86.3758 37.2633 86.0159 36.8726 85.7697 36.3849C85.5235 35.8925 85.4004 35.3551 85.4004 34.7727ZM87.4672 34.0057V34.7727C87.4672 35.1089 87.5476 35.4261 87.7086 35.7244C87.8743 36.0227 88.1726 36.1719 88.6035 36.1719C89.0344 36.1719 89.3279 36.0251 89.4842 35.7315C89.6452 35.438 89.7257 35.1184 89.7257 34.7727V34.0057C89.7257 33.66 89.6499 33.3381 89.4984 33.0398C89.3469 32.7415 89.0486 32.5923 88.6035 32.5923C88.1774 32.5923 87.8815 32.7415 87.7157 33.0398C87.55 33.3381 87.4672 33.66 87.4672 34.0057ZM77.9359 26.4489V25.6818C77.9359 25.0947 78.0614 24.5573 78.3123 24.0696C78.5633 23.5772 78.9255 23.1842 79.399 22.8906C79.8772 22.5971 80.4548 22.4503 81.1319 22.4503C81.8327 22.4503 82.4198 22.5971 82.8933 22.8906C83.3668 23.1842 83.7266 23.5772 83.9728 24.0696C84.219 24.5573 84.3422 25.0947 84.3422 25.6818V26.4489C84.3422 27.036 84.2167 27.5734 83.9657 28.0611C83.7195 28.5488 83.3573 28.9394 82.8791 29.233C82.4056 29.5218 81.8232 29.6662 81.1319 29.6662C80.4406 29.6662 79.8559 29.5194 79.3777 29.2259C78.9042 28.9276 78.5443 28.5369 78.2981 28.054C78.0566 27.5663 77.9359 27.0312 77.9359 26.4489ZM80.0169 25.6818V26.4489C80.0169 26.7945 80.0974 27.1141 80.2583 27.4077C80.4241 27.7012 80.7153 27.848 81.1319 27.848C81.5675 27.848 81.8635 27.7012 82.0197 27.4077C82.1807 27.1141 82.2612 26.7945 82.2612 26.4489V25.6818C82.2612 25.3362 82.1854 25.0142 82.0339 24.7159C81.8824 24.4176 81.5817 24.2685 81.1319 24.2685C80.7105 24.2685 80.4193 24.42 80.2583 24.723C80.0974 25.026 80.0169 25.3456 80.0169 25.6818ZM78.8734 37.5L88.8734 22.9545H90.7342L80.7342 37.5H78.8734Z" fill="#17BD54"/>
<path d="M27.0566 53.0653C27.0112 52.6619 26.8237 52.3494 26.4941 52.1278C26.1646 51.9034 25.7498 51.7912 25.2498 51.7912C24.8919 51.7912 24.5822 51.848 24.3208 51.9616C24.0595 52.0724 23.8564 52.2259 23.7115 52.4219C23.5694 52.6151 23.4984 52.8352 23.4984 53.0824C23.4984 53.2898 23.5467 53.4687 23.6433 53.6193C23.7427 53.7699 23.872 53.8963 24.0311 53.9986C24.193 54.098 24.3663 54.1818 24.551 54.25C24.7356 54.3153 24.9132 54.3693 25.0836 54.4119L25.9359 54.6335C26.2143 54.7017 26.4998 54.794 26.7924 54.9105C27.085 55.027 27.3564 55.1804 27.6064 55.3707C27.8564 55.5611 28.0581 55.7969 28.2115 56.0781C28.3677 56.3594 28.4458 56.696 28.4458 57.0881C28.4458 57.5824 28.318 58.0213 28.0623 58.4048C27.8095 58.7884 27.4416 59.0909 26.9586 59.3125C26.4785 59.5341 25.8975 59.6449 25.2157 59.6449C24.5623 59.6449 23.997 59.5412 23.5197 59.3338C23.0424 59.1264 22.6689 58.8324 22.399 58.4517C22.1291 58.0682 21.9799 57.6136 21.9515 57.0881H23.2725C23.2981 57.4034 23.4004 57.6662 23.5794 57.8764C23.7612 58.0838 23.9927 58.2386 24.274 58.3409C24.5581 58.4403 24.8691 58.4901 25.2072 58.4901C25.5794 58.4901 25.9103 58.4318 26.2001 58.3153C26.4927 58.196 26.7228 58.0312 26.8904 57.821C27.0581 57.608 27.1419 57.3594 27.1419 57.0753C27.1419 56.8168 27.068 56.6051 26.9203 56.4403C26.7754 56.2756 26.5779 56.1392 26.3279 56.0312C26.0808 55.9233 25.801 55.8281 25.4885 55.7457L24.4572 55.4645C23.7583 55.2741 23.2044 54.9943 22.7953 54.625C22.389 54.2557 22.1859 53.767 22.1859 53.1591C22.1859 52.6562 22.3223 52.2173 22.595 51.8423C22.8677 51.4673 23.237 51.1761 23.7029 50.9688C24.1689 50.7585 24.6944 50.6534 25.2797 50.6534C25.8706 50.6534 26.3919 50.7571 26.8436 50.9645C27.2981 51.1719 27.6561 51.4574 27.9174 51.821C28.1788 52.1818 28.3152 52.5966 28.3265 53.0653H27.0566ZM32.7381 59.6321C32.0932 59.6321 31.5378 59.4943 31.0719 59.2188C30.6088 58.9403 30.2509 58.5497 29.998 58.0469C29.748 57.5412 29.623 56.9489 29.623 56.2699C29.623 55.5994 29.748 55.0085 29.998 54.4972C30.2509 53.9858 30.6032 53.5866 31.0549 53.2997C31.5094 53.0128 32.0407 52.8693 32.6486 52.8693C33.0179 52.8693 33.3759 52.9304 33.7225 53.0526C34.0691 53.1747 34.3801 53.3665 34.6557 53.6278C34.9313 53.8892 35.1486 54.2287 35.3077 54.6463C35.4668 55.0611 35.5463 55.5653 35.5463 56.1591V56.6108H30.3432V55.6562H34.2978C34.2978 55.321 34.2296 55.0241 34.0932 54.7656C33.9569 54.5043 33.7651 54.2983 33.5179 54.1477C33.2736 53.9972 32.9867 53.9219 32.6571 53.9219C32.2992 53.9219 31.9867 54.0099 31.7196 54.1861C31.4554 54.3594 31.2509 54.5866 31.106 54.8679C30.964 55.1463 30.8929 55.4489 30.8929 55.7756V56.5213C30.8929 56.9588 30.9696 57.331 31.123 57.6378C31.2793 57.9446 31.4966 58.179 31.775 58.3409C32.0534 58.5 32.3787 58.5795 32.7509 58.5795C32.9924 58.5795 33.2125 58.5455 33.4114 58.4773C33.6103 58.4062 33.7821 58.3011 33.927 58.1619C34.0719 58.0227 34.1827 57.8509 34.2594 57.6463L35.4654 57.8636C35.3688 58.2187 35.1955 58.5298 34.9455 58.7969C34.6983 59.0611 34.3873 59.267 34.0123 59.4148C33.6401 59.5597 33.2154 59.6321 32.7381 59.6321ZM36.96 59.5V52.9545H38.1916V53.9943H38.2598C38.3791 53.642 38.5893 53.3651 38.8904 53.1634C39.1944 52.9588 39.5382 52.8565 39.9217 52.8565C40.0012 52.8565 40.095 52.8594 40.2029 52.8651C40.3137 52.8707 40.4004 52.8778 40.4629 52.8864V54.1051C40.4118 54.0909 40.3208 54.0753 40.1902 54.0582C40.0595 54.0384 39.9288 54.0284 39.7981 54.0284C39.497 54.0284 39.2285 54.0923 38.9927 54.2202C38.7598 54.3452 38.5751 54.5199 38.4387 54.7443C38.3024 54.9659 38.2342 55.2187 38.2342 55.5028V59.5H36.96ZM47.3642 52.9545L44.9906 59.5H43.627L41.2491 52.9545H42.617L44.2747 57.9915H44.3429L45.9963 52.9545H47.3642ZM51.16 59.6321C50.5151 59.6321 49.9597 59.4943 49.4938 59.2188C49.0307 58.9403 48.6728 58.5497 48.4199 58.0469C48.1699 57.5412 48.0449 56.9489 48.0449 56.2699C48.0449 55.5994 48.1699 55.0085 48.4199 54.4972C48.6728 53.9858 49.025 53.5866 49.4767 53.2997C49.9313 53.0128 50.4625 52.8693 51.0705 52.8693C51.4398 52.8693 51.7978 52.9304 52.1444 53.0526C52.4909 53.1747 52.802 53.3665 53.0776 53.6278C53.3532 53.8892 53.5705 54.2287 53.7296 54.6463C53.8887 55.0611 53.9682 55.5653 53.9682 56.1591V56.6108H48.7651V55.6562H52.7196C52.7196 55.321 52.6515 55.0241 52.5151 54.7656C52.3787 54.5043 52.187 54.2983 51.9398 54.1477C51.6955 53.9972 51.4086 53.9219 51.079 53.9219C50.7211 53.9219 50.4086 54.0099 50.1415 54.1861C49.8773 54.3594 49.6728 54.5866 49.5279 54.8679C49.3858 55.1463 49.3148 55.4489 49.3148 55.7756V56.5213C49.3148 56.9588 49.3915 57.331 49.5449 57.6378C49.7012 57.9446 49.9185 58.179 50.1969 58.3409C50.4753 58.5 50.8006 58.5795 51.1728 58.5795C51.4142 58.5795 51.6344 58.5455 51.8333 58.4773C52.0321 58.4062 52.204 58.3011 52.3489 58.1619C52.4938 58.0227 52.6046 57.8509 52.6813 57.6463L53.8873 57.8636C53.7907 58.2187 53.6174 58.5298 53.3674 58.7969C53.1202 59.0611 52.8091 59.267 52.4341 59.4148C52.062 59.5597 51.6373 59.6321 51.16 59.6321ZM55.3819 59.5V52.9545H56.6135V53.9943H56.6816C56.801 53.642 57.0112 53.3651 57.3123 53.1634C57.6163 52.9588 57.96 52.8565 58.3436 52.8565C58.4231 52.8565 58.5169 52.8594 58.6248 52.8651C58.7356 52.8707 58.8223 52.8778 58.8848 52.8864V54.1051C58.8336 54.0909 58.7427 54.0753 58.612 54.0582C58.4814 54.0384 58.3507 54.0284 58.22 54.0284C57.9189 54.0284 57.6504 54.0923 57.4146 54.2202C57.1816 54.3452 56.997 54.5199 56.8606 54.7443C56.7243 54.9659 56.6561 55.2187 56.6561 55.5028V59.5H55.3819ZM68.8777 50.7727H70.1987V56.5128C70.1987 57.1236 70.0552 57.6648 69.7683 58.1364C69.4814 58.6051 69.0779 58.9744 68.5581 59.2443C68.0382 59.5114 67.4288 59.6449 66.7299 59.6449C66.0339 59.6449 65.426 59.5114 64.9061 59.2443C64.3862 58.9744 63.9828 58.6051 63.6958 58.1364C63.4089 57.6648 63.2654 57.1236 63.2654 56.5128V50.7727H64.5822V56.4062C64.5822 56.8011 64.6689 57.152 64.8422 57.4588C65.0183 57.7656 65.2669 58.0071 65.5879 58.1832C65.9089 58.3565 66.2896 58.4432 66.7299 58.4432C67.1731 58.4432 67.5552 58.3565 67.8762 58.1832C68.2001 58.0071 68.4473 57.7656 68.6177 57.4588C68.791 57.152 68.8777 56.8011 68.8777 56.4062V50.7727ZM72.0108 61.9545V52.9545H73.2551V54.0156H73.3617C73.4355 53.8793 73.5421 53.7216 73.6813 53.5426C73.8205 53.3636 74.0137 53.2074 74.2608 53.0739C74.508 52.9375 74.8347 52.8693 75.2409 52.8693C75.7694 52.8693 76.2409 53.0028 76.6557 53.2699C77.0705 53.5369 77.3958 53.9219 77.6316 54.4247C77.8702 54.9276 77.9895 55.5327 77.9895 56.2401C77.9895 56.9474 77.8716 57.554 77.6358 58.0597C77.4 58.5625 77.0762 58.9503 76.6642 59.223C76.2523 59.4929 75.7821 59.6278 75.2537 59.6278C74.856 59.6278 74.5307 59.5611 74.2779 59.4276C74.0279 59.294 73.8319 59.1378 73.6898 58.9588C73.5478 58.7798 73.4384 58.6207 73.3617 58.4815H73.285V61.9545H72.0108ZM73.2594 56.2273C73.2594 56.6875 73.3262 57.0909 73.4597 57.4375C73.5932 57.7841 73.7864 58.0554 74.0392 58.2514C74.2921 58.4446 74.6017 58.5412 74.9682 58.5412C75.3489 58.5412 75.6671 58.4403 75.9228 58.2386C76.1784 58.0341 76.3716 57.7571 76.5023 57.4077C76.6358 57.0582 76.7026 56.6648 76.7026 56.2273C76.7026 55.7955 76.6373 55.4077 76.5066 55.0639C76.3787 54.7202 76.1855 54.4489 75.927 54.25C75.6713 54.0511 75.3517 53.9517 74.9682 53.9517C74.5989 53.9517 74.2864 54.0469 74.0307 54.2372C73.7779 54.4276 73.5861 54.6932 73.4554 55.0341C73.3248 55.375 73.2594 55.7727 73.2594 56.2273ZM82.4725 52.9545V53.9773H78.8972V52.9545H82.4725ZM79.856 51.3864H81.1301V57.5781C81.1301 57.8253 81.1671 58.0114 81.2409 58.1364C81.3148 58.2585 81.41 58.3423 81.5265 58.3878C81.6458 58.4304 81.775 58.4517 81.9142 58.4517C82.0165 58.4517 82.106 58.4446 82.1827 58.4304C82.2594 58.4162 82.3191 58.4048 82.3617 58.3963L82.5918 59.4489C82.5179 59.4773 82.4128 59.5057 82.2765 59.5341C82.1401 59.5653 81.9696 59.5824 81.7651 59.5852C81.4299 59.5909 81.1174 59.5312 80.8276 59.4062C80.5378 59.2812 80.3034 59.0881 80.1245 58.8267C79.9455 58.5653 79.856 58.2372 79.856 57.8423V51.3864ZM83.8819 59.5V52.9545H85.1561V59.5H83.8819ZM84.5254 51.9446C84.3038 51.9446 84.1135 51.8707 83.9544 51.723C83.7981 51.5724 83.72 51.3935 83.72 51.1861C83.72 50.9759 83.7981 50.7969 83.9544 50.6491C84.1135 50.4986 84.3038 50.4233 84.5254 50.4233C84.747 50.4233 84.9359 50.4986 85.0922 50.6491C85.2512 50.7969 85.3308 50.9759 85.3308 51.1861C85.3308 51.3935 85.2512 51.5724 85.0922 51.723C84.9359 51.8707 84.747 51.9446 84.5254 51.9446ZM86.8702 59.5V52.9545H88.0932V54.0199H88.1742C88.3105 53.6591 88.5336 53.3778 88.8432 53.1761C89.1529 52.9716 89.5236 52.8693 89.9554 52.8693C90.3929 52.8693 90.7594 52.9716 91.0549 53.1761C91.3532 53.3807 91.5733 53.6619 91.7154 54.0199H91.7836C91.9398 53.6705 92.1884 53.392 92.5293 53.1847C92.8702 52.9744 93.2765 52.8693 93.748 52.8693C94.3418 52.8693 94.8262 53.0554 95.2012 53.4276C95.579 53.7997 95.7679 54.3608 95.7679 55.1108V59.5H94.4938V55.2301C94.4938 54.7869 94.373 54.4659 94.1316 54.267C93.8901 54.0682 93.6017 53.9688 93.2665 53.9688C92.8517 53.9688 92.5293 54.0966 92.2992 54.3523C92.0691 54.6051 91.954 54.9304 91.954 55.3281V59.5H90.6841V55.1491C90.6841 54.794 90.5733 54.5085 90.3517 54.2926C90.1301 54.0767 89.8418 53.9688 89.4867 53.9688C89.2452 53.9688 89.0222 54.0327 88.8176 54.1605C88.6159 54.2855 88.4526 54.4602 88.3276 54.6847C88.2054 54.9091 88.1444 55.169 88.1444 55.4645V59.5H86.8702ZM100.297 59.6321C99.6518 59.6321 99.0964 59.4943 98.6305 59.2188C98.1674 58.9403 97.8095 58.5497 97.5566 58.0469C97.3066 57.5412 97.1816 56.9489 97.1816 56.2699C97.1816 55.5994 97.3066 55.0085 97.5566 54.4972C97.8095 53.9858 98.1618 53.5866 98.6135 53.2997C99.068 53.0128 99.5993 52.8693 100.207 52.8693C100.577 52.8693 100.934 52.9304 101.281 53.0526C101.628 53.1747 101.939 53.3665 102.214 53.6278C102.49 53.8892 102.707 54.2287 102.866 54.6463C103.025 55.0611 103.105 55.5653 103.105 56.1591V56.6108H97.9018V55.6562H101.856C101.856 55.321 101.788 55.0241 101.652 54.7656C101.515 54.5043 101.324 54.2983 101.077 54.1477C100.832 53.9972 100.545 53.9219 100.216 53.9219C99.8578 53.9219 99.5453 54.0099 99.2782 54.1861C99.014 54.3594 98.8095 54.5866 98.6646 54.8679C98.5225 55.1463 98.4515 55.4489 98.4515 55.7756V56.5213C98.4515 56.9588 98.5282 57.331 98.6816 57.6378C98.8379 57.9446 99.0552 58.179 99.3336 58.3409C99.612 58.5 99.9373 58.5795 100.309 58.5795C100.551 58.5795 100.771 58.5455 100.97 58.4773C101.169 58.4062 101.341 58.3011 101.486 58.1619C101.631 58.0227 101.741 57.8509 101.818 57.6463L103.024 57.8636C102.927 58.2187 102.754 58.5298 102.504 58.7969C102.257 59.0611 101.946 59.267 101.571 59.4148C101.199 59.5597 100.774 59.6321 100.297 59.6321Z" fill="black"/>
</svg>
